<svg xmlns="http://www.w3.org/2000/svg" viewBox="0 0 256 256"><path d="M125.06 68.11c0-4.11-.91-9.14-5.03-9.14-1.37 0-2.74.91-3.66 2.29-2.29 4.11-3.66 16.91 3.2 35.2 3.2-9.14 5.03-18.74 5.49-28.34ZM115.46 149.94c10.97-3.66 25.14-6.4 25.14-6.86-3.66-3.66-10.52-11.89-14.63-18.74-1.83 5.49-6.86 18.29-10.51 25.6ZM56.94 191.54c-.46 1.83 0 3.2 1.37 4.11.91.46 1.83.91 2.74.91 5.94 0 16.91-10.97 27.43-28.34-18.29 8.23-30.17 16.91-31.54 23.31ZM186.32 147.66c-9.6-1.83-22.86-.46-28.8.46 6.86 5.49 14.63 9.6 23.31 11.89 7.32 1.83 11.43-1.37 11.89-4.57.92-4.57-2.74-6.86-6.4-7.77Z"/><path d="M210.74 0H45.26C20.11 0 0 20.11 0 45.26v165.49c0 25.14 20.11 45.26 45.26 45.26h165.48c25.14 0 45.26-20.11 45.26-45.26V45.26C256 20.12 235.89 0 210.74 0Zm-4.31 160.91c-1.37 4.12-5.49 8.69-16.46 8.69-8.23 0-23.77-2.29-41.6-17.83-15.09 2.74-30.17 7.32-39.77 10.51-11.43 19.66-27.89 42.97-44.8 42.97-4.11 0-8.23-1.37-11.43-4.11-3.2-3.2-4.57-7.32-3.66-11.43 2.29-13.71 30.17-26.52 43.43-32 12.8-24.23 17.37-37.94 22.4-52.11-8.69-19.66-10.97-38.86-5.49-48.46 2.29-3.66 6.4-6.4 10.97-6.4 12.8 0 17.37 12.34 17.37 23.77-.46 13.26-3.2 25.6-7.31 37.94 2.74 4.57 10.51 17.83 21.94 28.8 7.77-.91 40.23-5.94 52.11 6.4 3.2 3.66 4.57 8.69 2.29 13.26Z"/></svg>