<svg xmlns="http://www.w3.org/2000/svg" width="24" height="24" viewBox="0 0 0.72 0.72"><title>Adobe Acrobat Reader icon</title><path d="M.709.454Q.676.42.583.419a1 1 0 0 0-.112.01A1 1 0 0 1 .403.35 1 1 0 0 1 .36.284.6.6 0 0 0 .396.107c0-.049-.018-.1-.07-.1a.05.05 0 0 0-.04.024C.263.07.274.16.314.25a2 2 0 0 1-.05.133q-.027.06-.058.12c-.116.046-.19.1-.2.142A.05.05 0 0 0 .02.688c.005.003.02.016.045.016.077 0 .158-.125.2-.2l.094-.03A1 1 0 0 1 .461.454.3.3 0 0 0 .65.537C.694.537.71.52.715.505A.05.05 0 0 0 .709.454m-.043.03C.663.5.647.511.626.511L.606.509A.3.3 0 0 1 .491.447 1 1 0 0 1 .58.44q.034 0 .054.004c.014.003.038.013.032.04M.443.434l-.088.02L.28.478.316.401Q.335.356.35.312l.034.052zM.304.043A.02.02 0 0 1 .324.03c.023 0 .027.025.027.045A.6.6 0 0 1 .322.22C.292.137.29.069.304.042M.188.534C.134.623.083.678.051.678A.03.03 0 0 1 .035.672Q.025.663.028.65C.034.618.095.574.188.534" style="stroke-width:.0297426"/></svg>