<svg xmlns="http://www.w3.org/2000/svg" viewBox="0 0 24 24"><path d="M10.638 1.01a.8.8 0 0 0-.203.21c-.043.073-.53 2.388-1.243 5.907-.644 3.182-1.183 5.765-1.197 5.74a83 83 0 0 1-.532-1.743c-.278-.933-.543-1.748-.588-1.811-.161-.226-.473-.3-.682-.162-.059.039-.581.62-1.161 1.29L3.979 11.66l-1.95.01-1.949.011v1.399l2.13-.001c1.635 0 2.153-.012 2.23-.051.055-.027.462-.47.905-.983s.82-.936.838-.939.271.795.564 1.774c.893 2.99.859 2.884.984 3.027.296.336.79.194.924-.265.029-.1.464-2.211.967-4.692.503-2.48.924-4.51.937-4.51.012 0 .217 3.611.454 8.025.343 6.379.444 8.057.493 8.179.093.233.3.396.501.396a.57.57 0 0 0 .48-.269c.037-.063.709-2.489 1.492-5.393a918 918 0 0 1 1.473-5.426l.048-.148.717 1.728c.956 2.301.95 2.289 1.11 2.387.232.141.53.084.701-.133.042-.053.299-.683.572-1.401l.498-1.305h2.148l.267.274c.354.364.596.461 1.087.437.852-.041 1.238-.5 1.306-1.551.055-.851-.304-1.574-.937-1.885-.262-.128-.746-.132-1.018-.007-.403.185-.816.726-.891 1.17l-.027.162h-1.219c-1.326 0-1.37.006-1.525.229-.042.061-.199.435-.348.831-.15.396-.294.762-.32.814-.043.085-.129-.101-.903-1.96-.607-1.457-.891-2.093-.977-2.186-.23-.252-.609-.213-.808.083-.057.085-.501 1.665-1.291 4.587a449 449 0 0 1-1.223 4.477c-.011.01-.019-.025-.019-.078-.001-.554-.925-17.045-.96-17.137-.089-.235-.333-.42-.552-.42a.56.56 0 0 0-.25.09"/></svg>