<?xml version="1.0" encoding="UTF-8" standalone="no"?>
<svg
   width="232"
   height="232"
   fill="none"
   viewBox="0 0 232 232"
   version="1.1"
   id="svg2"
   sodipodi:docname=":activitywatch:.svg"
   inkscape:version="1.4.3 (0d15f75, 2025-12-25)"
   xmlns:inkscape="http://www.inkscape.org/namespaces/inkscape"
   xmlns:sodipodi="http://sodipodi.sourceforge.net/DTD/sodipodi-0.dtd"
   xmlns="http://www.w3.org/2000/svg"
   xmlns:svg="http://www.w3.org/2000/svg">
  <defs
     id="defs2" />
  <sodipodi:namedview
     id="namedview2"
     pagecolor="#505050"
     bordercolor="#ffffff"
     borderopacity="1"
     inkscape:showpageshadow="0"
     inkscape:pageopacity="0"
     inkscape:pagecheckerboard="1"
     inkscape:deskcolor="#505050"
     inkscape:zoom="1.6168138"
     inkscape:cx="-16.081011"
     inkscape:cy="110.40233"
     inkscape:window-width="1710"
     inkscape:window-height="1044"
     inkscape:window-x="0"
     inkscape:window-y="40"
     inkscape:window-maximized="0"
     inkscape:current-layer="svg2" />
  <path
     id="path2"
     style="fill:#000000;fill-opacity:1;stroke-width:1.22245"
     d="m 55.079351,10.502088 c -1.939689,0.07808 -3.750448,0.467493 -4.942341,1.200965 -2.444907,1.344699 -5.744098,7.825612 -12.589839,24.573225 L 30.701909,52.655245 A 2169.8549,2169.8549 0 0 0 5.3956895,112.4337 c -4.8898139,10.14636 -5.13287188,12.83576 -2.1989835,16.50312 2.9338883,3.66736 7.945947,4.15587 11.002081,0.73299 1.222454,-1.22245 3.17838,-4.64485 4.278588,-7.45649 l 5.50104,-13.20106 3.421437,-7.94595 h 58.188309 l 7.82418,17.72558 -1.222453,4.40035 a 17.114348,17.114348 0 0 0 0,7.70003 l 0.857148,3.30206 -6.35819,6.11226 a 674.79432,674.79432 0 0 1 -19.92456,18.21503 l -27.505202,25.30384 -13.936447,12.71399 c -10.635345,9.77963 -12.225491,12.4695 -9.536093,15.1589 2.200416,2.20041 3.424303,1.71 10.025551,-4.52451 a 2749.2979,2749.2979 0 0 1 41.07396,-37.65014 l 27.74874,-25.42798 3.177902,-3.17791 4.156823,0.73301 c 5.37879,0.97795 6.48042,2.4449 10.02555,14.0582 7.09023,23.34886 18.33489,56.23191 20.04633,58.92131 l 1.95782,2.93437 h 3.66736 c 5.3788,0 7.70099,-3.17838 11.73508,-15.8919 5.1343,-16.62537 9.90092,-31.53835 13.69053,-43.02941 1.83368,-5.50104 3.30205,-10.63582 3.30205,-11.49154 0,-3.54511 2.07817,-1.22245 3.66736,3.66736 l 6.47757,20.53818 c 9.53514,30.56134 13.44652,42.17369 15.40244,44.25186 2.32266,2.44491 8.43589,2.44491 10.75854,0 2.44491,-2.6894 4.39989,-8.55718 29.58243,-86.7942 0.85572,-2.56715 -2.6894,-6.96704 -5.50104,-6.96704 -4.88982,0 -6.23356,2.68941 -11.85684,21.39294 l -14.05822,45.47432 -3.42382,11.00208 -2.07722,-5.9905 -13.93645,-45.35255 c -7.33472,-24.20458 -8.55718,-26.52629 -13.44699,-26.52629 -5.37879,0 -7.08975,3.17695 -13.56875,24.81439 l -13.81468,45.23077 c -0.97797,3.66737 -2.19946,6.47996 -2.68845,6.47996 -0.48898,0 -1.8332,-3.66689 -3.17789,-8.06771 l -4.40037,-14.91537 -6.84764,-22.12593 -4.6439,-15.40243 3.42145,-10.14732 -2.19899,-7.33472 3.66736,-4.03267 a 660.12488,660.12488 0 0 0 36.18415,-40.830422 l 2.07722,-3.302057 -2.44491,-5.501041 h -6.23404 L 142.5564,78.816226 c -5.86777,6.601248 -12.95801,14.669442 -15.8919,17.725571 -2.81164,3.056136 -7.09118,8.068193 -9.53608,11.002083 -2.6894,3.17838 -5.25608,5.25751 -6.84527,5.25751 h -2.44491 l -2.4449,-5.25751 -3.91328,-9.411935 C 100.74658,95.931529 98.791136,91.164439 97.079701,87.619324 A 57.455313,57.455313 0 0 1 94.145336,80.528139 1162.431,1162.431 0 0 1 73.853084,32.362994 c 0,-1.955926 -8.557174,-18.2136 -10.390855,-19.802791 h 0.121769 c -1.680873,-1.451663 -5.27183,-2.18824 -8.504647,-2.058115 z m 1.169927,20.760221 1.222453,2.201371 A 5979.1422,5979.1422 0 0 0 74.46431,73.804645 l 4.889814,12.102767 H 33.758043 L 36.20295,80.528139 A 1182.1125,1182.1125 0 0 0 55.394515,33.46368 Z" />
</svg>
