<svg xmlns="http://www.w3.org/2000/svg" height="24" width="24" viewBox="0 0 24 24"><path d="M22.711 0H1.289C.5773.0006.0006.6928 0 1.5468v20.9064c.0006.854.5773 1.5461 1.289 1.5468h21.422c.7116-.0007 1.2884-.6928 1.289-1.5468V1.5468C23.9994.6928 23.4226.0006 22.711 0ZM23 22.4532c0 .1916-.1294.3468-.289.3468H1.289c-.1596 0-.289-.1552-.289-.3468V12.6h3.5865c.128 0 .2511-.0588.344-.1644l1.365-1.551 1.176 3.8496c.0949.3112.382.4712.6414.3573.1555-.0683.2728-.2245.3131-.4173L10.05 6.846l.7465 13.5672c.0158.2865.1986.5195.436.5556a.4226.4226 0 0 0 .0635.0048c.2155-.0001.4068-.166.4745-.4116l2.5-9.06 1.373 3.2226c.087.2034.2405.3168.454.327.1907-.004.363-.1378.444-.345l.8214-2.1066h1.893c.2342.3766.6025.5989.994.6.877 0 1.25-.4482 1.25-1.5.0007-.8285-.5583-1.5007-1.2487-1.5015-.595-.0007-1.1079.5019-1.2263 1.2015h-1.98c-.1938 0-.37.1345-.4524.345l-.5256 1.3446-1.45-3.4098c-.1256-.2951-.4267-.4122-.6726-.2614-.1172.0718-.206.196-.2473.346l-2.072 7.5036-.789-14.3334c-.0147-.331-.2501-.585-.5259-.5674-.2218.0142-.4092.2023-.4601.4617l-2 9.6559-.876-2.8692c-.0952-.3111-.3825-.4708-.6417-.3567a.496.496 0 0 0-.1713.1275l-1.774 2.0135H1V1.5468c0-.1916.1294-.3468.289-.3468h21.422c.1595 0 .289.1552.289.3468v20.9064z"/></svg>