<svg xmlns="http://www.w3.org/2000/svg" width="24" height="24"><g fill="none" fill-rule="evenodd"><path fill="currentColor" d="m3.019 21.425 9.09-19.304a.21.21 0 0 1 .19-.121h.399a.21.21 0 0 1 .188.118l5.864 12.047 1.839-.708a.21.21 0 0 1 .272.121l.489 1.273a.21.21 0 0 1-.12.272l-1.696.652 2.091 4.297a.21.21 0 0 1-.096.282l-1.226.596a.21.21 0 0 1-.283-.097l-2.158-4.435-14.477 5.568a.21.21 0 0 1-.273-.125l-.1-.275a.21.21 0 0 1 .008-.161H3.02Zm9.499-15.986L6.122 19.022l10.956-4.215-4.561-9.368Z"/><path d="m17.424 10.849.737 2.01-16.758 6.146a.253.253 0 0 1-.324-.15l-.564-1.537a.253.253 0 0 1 .15-.324l16.76-6.145h-.001Z"/></g></svg>