<svg xmlns="http://www.w3.org/2000/svg" width="232" height="232" fill="none" viewBox="0 0 232 232"><path fill="#000" d="M75.7 39a4891.1 4891.1 0 0 0 13.9 33l4 9.9H56.3l2-4.4A967 967 0 0 0 74 39l.7-1.8z"/><path fill="#000" fill-rule="evenodd" d="M119 0a116 116 0 0 1 113 113v5.2A116 116 0 0 1 118.2 232H113A116 116 0 0 1 0 119v-5.2A116 116 0 0 1 112 0zM80.7 21.9c-2.2-1.9-8.4-2.3-11-.7-2 1.1-4.7 6.4-10.3 20.1l-5.6 13.4a1775 1775 0 0 0-20.7 48.9c-4 8.3-4.2 10.5-1.8 13.5s6.5 3.4 9 .6c1-1 2.6-3.8 3.5-6.1l4.5-10.8 2.8-6.5h47.6l6.4 14.5-1 3.6a14 14 0 0 0 0 6.3l.7 2.7-5.2 5a552 552 0 0 1-16.3 14.9L60.8 162l-11.4 10.4c-8.7 8-10 10.2-7.8 12.4 1.8 1.8 2.8 1.4 8.2-3.7a2249 2249 0 0 1 33.6-30.8l22.7-20.8 2.6-2.6 3.4.6c4.4.8 5.3 2 8.2 11.5 5.8 19.1 15 46 16.4 48.2l1.6 2.4h3c4.4 0 6.3-2.6 9.6-13 4.2-13.6 8.1-25.8 11.2-35.2 1.5-4.5 2.7-8.7 2.7-9.4 0-2.9 1.7-1 3 3l5.3 16.8c7.8 25 11 34.5 12.6 36.2 1.9 2 6.9 2 8.8 0 2-2.2 3.6-7 24.2-71 .7-2.1-2.2-5.7-4.5-5.7-4 0-5.1 2.2-9.7 17.5L193 166l-2.8 9-1.7-4.9-11.4-37.1c-6-19.8-7-21.7-11-21.7-4.4 0-5.8 2.6-11.1 20.3l-11.3 37c-.8 3-1.8 5.3-2.2 5.3s-1.5-3-2.6-6.6l-3.6-12.2-5.6-18.1-3.8-12.6 2.8-8.3-1.8-6 3-3.3a540 540 0 0 0 29.6-33.4l1.7-2.7-2-4.5h-5.1l-8.8 9.9c-4.8 5.4-10.6 12-13 14.5-2.3 2.5-5.8 6.6-7.8 9-2.2 2.6-4.3 4.3-5.6 4.3h-2l-2-4.3-3.2-7.7c-.6-1.8-2.2-5.7-3.6-8.6a47 47 0 0 1-2.4-5.8 950.9 950.9 0 0 1-16.6-39.4c0-1.6-7-14.9-8.5-16.2" clip-rule="evenodd"/></svg>