<svg xmlns="http://www.w3.org/2000/svg" fill="none" viewBox="0 0 24 24"><path d="M1.112 23.38 12.02.215a.253.253 0 0 1 .228-.145h.479a.253.253 0 0 1 .226.142l7.037 14.456 2.206-.849a.253.253 0 0 1 .327.145l.586 1.527a.253.253 0 0 1-.144.327l-2.035.782 2.51 5.156a.253.253 0 0 1-.116.339l-1.471.715a.253.253 0 0 1-.339-.116l-2.59-5.322-17.372 6.681a.253.253 0 0 1-.328-.15l-.12-.33a.253.253 0 0 1 .01-.193ZM12.511 4.197 4.836 20.496l13.147-5.057L12.51 4.197Z"/><path d="m17.424 10.849.737 2.01-16.758 6.146a.253.253 0 0 1-.324-.15l-.564-1.537a.253.253 0 0 1 .15-.324l16.76-6.145Z"/></svg>
