<svg xmlns="http://www.w3.org/2000/svg" width="24" height="24" viewBox="0 0 24 24"><path d="M38.102 18.602C38.102 10.812 31.789 4.5 24 4.5S9.898 10.813 9.898 18.602 16.211 32.703 24 32.703s14.102-6.312 14.102-14.101m0 0" style="fill:none;stroke-width:1;stroke-linecap:round;stroke-linejoin:round;stroke:#000;stroke-opacity:1;stroke-miterlimit:4" transform="scale(.5)"/><path d="M19.773 19.203c0-1.18-.875-2.133-1.945-2.133s-1.937.953-1.937 2.133c0 1.172.867 2.125 1.937 2.125s1.945-.953 1.945-2.125M32.11 19.203c0-1.18-.868-2.133-1.938-2.133s-1.945.953-1.945 2.133c0 1.172.875 2.125 1.945 2.125s1.937-.953 1.937-2.125m0 0" style="fill:none;stroke-width:1;stroke-linecap:round;stroke-linejoin:round;stroke:#000;stroke-opacity:1;stroke-miterlimit:4" transform="scale(.5)"/><path d="M24 13.242c6.469 0 11.508 2 11.508 6.797 0 3.211-1.852 4.164-4.258 4.164-2.133 0-4-1.25-7.25-1.25s-5.117 1.25-7.25 1.25c-2.406 0-4.258-.953-4.258-4.164 0-4.766 5.04-6.797 11.508-6.797M34.508 32c0 3.852-8.602 11.477-10.508 11.477S13.492 35.867 13.492 32" style="fill:none;stroke-width:1;stroke-linecap:round;stroke-linejoin:round;stroke:#000;stroke-opacity:1;stroke-miterlimit:4" transform="scale(.5)"/></svg>