<svg xml:space="preserve" width="24" height="24" fill-rule="evenodd" stroke-linejoin="round" stroke-miterlimit="2"
  clip-rule="evenodd" xmlns="http://www.w3.org/2000/svg">
  <path
    d="M4.25 0h15.5C22.1 0 24 1.949 24 4.359v15.282C24 22.051 22.1 24 19.75 24H4.25C1.9 24 0 22.051 0 19.641V4.359C0 1.949 1.9 0 4.25 0Zm1.26 16.841c0 .082.03.133.11.133.15 0 .33 0 .54.01.21.01.46.01.74.021.29.01.57.01.91.01h1.06a6.06 6.06 0 0 0 2.41-.44c.68-.278 1.19-.678 1.55-1.18.37-.513.56-1.139.56-1.775.01-.43-.09-.861-.28-1.25a2.536 2.536 0 0 0-.6-.821c-.2-.175-.41-.328-.64-.452.16-.112.31-.246.43-.41.17-.205.3-.44.39-.697.12-.308.19-.636.19-.964 0-.318-.05-.616-.14-.913a2.414 2.414 0 0 0-.59-.954c-.28-.297-.68-.554-1.2-.749-.52-.205-1.24-.266-2.12-.266-.37 0-.77 0-1.21.01-.44.01-.8.01-1.18.02-.38 0-.66.01-.84.02-.07.011-.1.062-.1.165l.01 10.482Zm2.17-8.749c.13 0 .25-.01.35-.01.11-.01.2-.01.34-.01h.47c.35-.01.69.03 1.02.133.23.072.44.226.6.42.16.226.24.493.24.76 0 .225-.05.44-.16.636-.09.164-.21.317-.35.44-.2-.04-.4-.061-.6-.061-.28-.01-.56-.02-.85-.02H7.69l-.01-2.288Zm.01 4.205h1.34c.2 0 .39.01.59.031.15.02.29.041.44.082.37.103.63.287.77.503.17.225.26.502.27.78-.01.286-.12.563-.31.779-.2.225-.47.39-.76.461-.38.103-.78.154-1.17.144-.26 0-.48 0-.66-.01-.19 0-.33-.01-.51-.02v-2.75Zm7.08-3.58c-.05.011-.08.062-.07.114.03.236.05.482.06.718.01.266.01.533.02.8.01.266.01.523.01.769V16.8c.01.082.08.133.16.123h1.9c.09 0 .13-.041.13-.144v-5.2c.17-.164.37-.287.59-.379.27-.123.55-.215.84-.277.34-.072.68-.092 1.02-.072.11 0 .16-.03.16-.113v-2.01c-.01-.072-.07-.123-.14-.113-.56 0-1.02.062-1.45.308-.41.236-.77.554-1.07.923a3.497 3.497 0 0 0-.07-.728.658.658 0 0 0-.08-.236.226.226 0 0 0-.21-.164h-1.8Z" />
</svg>