<?xml version="1.0" encoding="UTF-8" standalone="no"?>
<!DOCTYPE svg PUBLIC "-//W3C//DTD SVG 1.1//EN" "http://www.w3.org/Graphics/SVG/1.1/DTD/svg11.dtd">
<svg width="100%" height="100%" viewBox="0 0 240 240" version="1.1" xmlns="http://www.w3.org/2000/svg" xmlns:xlink="http://www.w3.org/1999/xlink" xml:space="preserve" xmlns:serif="http://www.serif.com/" style="fill-rule:evenodd;clip-rule:evenodd;stroke-linejoin:round;stroke-miterlimit:2;">
    <g transform="matrix(1.479081,0,0,1.479081,-56.84666,-57.85066)">
        <path d="M94.96,151.531C96.849,176.416 135.875,181.403 171.193,110.345C171.524,109.68 174.954,102.779 176.521,102.745C177.264,102.728 185.352,102.551 185.642,104.481C185.679,104.722 185.694,196.183 185.634,196.521C185.01,199.998 183.171,198.457 141.515,198.166C130.482,198.09 181.829,127.062 174.645,124.186C168.986,121.921 162.921,153.106 132.247,182.228C90.787,221.589 36.311,194.902 48.989,150.632C64.345,97.008 190.018,98.535 176.144,69.67C167.909,52.537 104.268,63.705 64.724,92.836C60.252,96.13 61.58,91.796 61.594,89.5C61.828,51.809 60.076,50.336 63.413,49.273C137.207,25.763 204.612,45.644 186.249,82.372C171.065,112.741 103.619,115.158 94.96,151.531Z"/>
    </g>
</svg>
