<svg viewBox="0 0 24 24" width="24" height="24" xmlns="http://www.w3.org/2000/svg">
  <path
    d="M24 2.344v19.312A2.344 2.344 0 0 1 21.657 24H2.344A2.345 2.345 0 0 1 0 21.656V2.344A2.345 2.345 0 0 1 2.344 0h19.313A2.344 2.344 0 0 1 24 2.344Zm-1.757 12.893H11.08l4.046 7.005h6.198a.938.938 0 0 0 .919-.937v-6.068Zm-8.039 7.005-5.478-9.485-5.485 9.485h10.963ZM2.361 22.18 9.699 9.475H6.215l-4.457 7.717.003 4.182a.938.938 0 0 0 .6.806ZM12.885 9.46h-1.764a.9.9 0 0 0-.75.446l-.926 1.605-.006.012a.894.894 0 0 0 0 .871l.923 1.599.01.017a.891.891 0 0 0 .756.428c.001 0 1.178.001 1.764-.001a.891.891 0 0 0 .75-.437c.311-.539.625-1.076.933-1.616a.883.883 0 0 0-.013-.877l-.921-1.595-.005-.008a.901.901 0 0 0-.751-.444Zm8.722-7.652-7.295 12.63h7.931V2.695a.938.938 0 0 0-.636-.887Zm-10.935-.05-.409.71 5.02 8.692 5.431-9.402H10.672Zm2.255 6.918-3.126-5.41-3.125 5.41h6.251Z" />
</svg>