<svg xml:space="preserve" style="fill-rule:evenodd;clip-rule:evenodd;stroke-linejoin:round;stroke-miterlimit:2" viewBox="0 0 24 24"><g transform="scale(.024)"><clipPath id="_clip1"><path d="M0 0h1000v1000H0z"/></clipPath><g clip-path="url(#_clip1)"><path d="M348.362 692.817c11.642 153.362 252.153 184.096 469.812-253.823 2.04-4.098 23.178-46.628 32.835-46.838 4.58-.104 54.424-1.195 56.211 10.7.229 1.484.321 565.144-.049 567.227-3.845 21.428-15.179 11.93-271.898 10.138-67.995-.469 248.449-438.203 204.175-455.927-34.876-13.959-72.253 178.23-261.292 357.703-255.512 242.576-591.238 78.108-513.106-194.72C159.687 356.8 934.19 366.21 848.686 188.32c-50.751-105.588-442.96-36.762-686.664 142.768-27.56 20.3-19.376-6.41-19.29-20.56 1.443-232.283-9.354-241.36 11.211-247.912C608.723-82.27 1024.13 40.252 910.961 266.601c-93.576 187.16-509.235 202.055-562.599 426.216"/></g></g></svg>