<svg xmlns="http://www.w3.org/2000/svg" width="30" height="30" fill="none"><path d="M15.017 1.774c-.413 0-.827.197-1.054.59L.247 26.12c-.454.786.146 1.826 1.054 1.827h27.433c.908 0 1.508-1.041 1.054-1.827L16.07 2.364a1.202 1.202 0 0 0-1.054-.59Zm0 1.2 8.654 14.989-10.443-10.11a1.178 1.178 0 0 0-.837-.33ZM12.362 8.59c.031 0 .068.016.102.05l8.618 8.341-8.91-5.205a1.16 1.16 0 0 0-.643-.157l.733-2.922c.017-.069.054-.106.1-.107zm-1.675 1.884L6.814 25.928c-.071.283-.03.56.085.8H1.303Zm.845 2.222c.026 0 .056.008.088.026l4.684 2.739-4.294-1.152c-.2-.053-.397-.05-.58-.004l.007-1.478c0-.082.038-.129.095-.13zm.135 2.665c.018 0 .038.001.06.007l2.096.562h-.987c-.428 0-.786.228-1 .552l-.259-.964c-.025-.094.013-.154.09-.157zm-1.346 1.083-.043 8.077c-.002.436.233.8.566 1.014l-2.814.804c-.116.033-.182-.029-.153-.145zm2.493.583h4.202c.12 0 .167.079.107.183l-2.091 3.62c-.06.105-.152.105-.212 0l-2.09-3.62c-.055-.097-.019-.174.084-.183zm5.413.083.768.207c.116.03.14.12.055.204l-1.991 1.992 1.013-1.754c.12-.207.167-.431.155-.65zm1.918.595 1.575.92c.103.06.104.153 0 .212l-5.67 3.233 3.776-3.773c.17-.17.275-.377.319-.592zm2.714.999 2.565 2.481c.086.084.065.172-.05.205L13.53 24.77l8.732-4.98c.407-.232.606-.66.597-1.085zm-10.335.342 1.347 2.332c.174.301.455.488.763.56l-.904.903c-.085.085-.173.061-.204-.054zm-1.12.058 1.063 3.966c.087.324.298.573.564.723l-1.473.84c-.104.06-.184.013-.183-.107zm14.715 3.097 2.612 4.526h-18.06l15.003-4.283c.172-.05.32-.134.445-.243z" style="baseline-shift:baseline;display:inline;overflow:visible;opacity:1;vector-effect:none;fill:#000;stroke-width:1.21817;enable-background:accumulate;stop-color:#000;stop-opacity:1"/></svg>