<svg viewBox="0 0 24 24" width="24" height="24" xmlns="http://www.w3.org/2000/svg">
  <path
    d="M24 2.344v19.312A2.344 2.344 0 0 1 21.657 24H2.344A2.345 2.345 0 0 1 0 21.656V2.344A2.345 2.345 0 0 1 2.344 0h19.313A2.344 2.344 0 0 1 24 2.344Zm-2.695-.586h-6.232l-4.148 7.185 3.174 5.496h8.144V2.688a.938.938 0 0 0-.938-.93ZM1.758 21.305c0 .517.42.937.938.937h8.226l-4.299-7.445 7.528-13.039h-3.482L1.758 17.192v4.113Zm11.418-6.866-2.712-4.698-1.761 3.051a1.098 1.098 0 0 0 .952 1.647h3.521Zm9.067 6.873v-6.075H7.799l4.045 7.005h9.461a.938.938 0 0 0 .938-.93Z" />
</svg>