<svg viewBox="0 0 24 24" width="24" height="24" xmlns="http://www.w3.org/2000/svg">
  <path
    d="M24 2.344v19.312A2.344 2.344 0 0 1 21.657 24H2.344A2.345 2.345 0 0 1 0 21.656V2.344A2.345 2.345 0 0 1 2.344 0h19.313A2.344 2.344 0 0 1 24 2.344Zm-8.668 19.898L7.087 7.967l-1.264 2.187a1.657 1.657 0 0 0 0 1.657c1.512 2.615 6.025 10.431 6.025 10.431h3.484Zm6.911-3.291L12.312 1.758h-1.639l-.922 1.597L20.66 22.242h.645c.518 0 .938-.42.938-.937v-2.354Zm-11.317 3.291L4.884 11.781l-3.126 5.411v4.113c0 .517.42.937.938.937h8.23Zm8.812 0L9.29 4.153 7.599 7.08l8.655 15.162h3.484Zm1.567-20.484h-8.071l9.009 15.597V2.695a.938.938 0 0 0-.938-.937Z" />
</svg>