<svg width="24" height="24" viewBox="0 0 24 24" fill="none" xmlns="http://www.w3.org/2000/svg">
<path d="M12 0C18.6274 0 24 5.37258 24 12C24 18.6274 18.6274 24 12 24C5.37258 24 0 18.6274 0 12C0 5.37258 5.37258 0 12 0ZM12 2C6.47715 2 2 6.47715 2 12C2 17.5228 6.47715 22 12 22C17.5228 22 22 17.5228 22 12C22 6.47715 17.5228 2 12 2ZM4.4133 8.5474C3.93381 9.59935 3.66667 10.7685 3.66667 12C3.66667 16.6024 7.39763 20.3333 12 20.3333C16.6024 20.3333 20.3333 16.6024 20.3333 12C20.3333 10.7767 20.0697 9.61494 19.5963 8.56846L13.3515 13.3391C12.6921 13.8429 11.7963 13.8841 11.0977 13.4587L10.9512 13.3604L4.4133 8.5474ZM12 3.66667C14.658 3.66667 17.0253 4.91106 18.5512 6.84903L12.1371 11.75L5.46056 6.83417C6.98682 4.9047 9.34883 3.66667 12 3.66667Z" fill="black"/>
</svg>
