<svg xmlns="http://www.w3.org/2000/svg" width="24" height="24" viewBox="0 0 30.72 30.72"><path d="M15.435.364A14.99 14.99 0 0 0 .443 15.356a14.99 14.99 0 0 0 14.992 14.992 14.99 14.99 0 0 0 14.992-14.992A14.99 14.99 0 0 0 15.435.364m.725 9.21c.904-.036 1.827.284 2.455.945.395.39.682.902.764 1.452.038.226-.003.451-.064.668.164-.044.328-.111.5-.114.331-.018.662.114.908.334.314.243.478.676.363 1.06-.04.172-.137.325-.216.483.84.026 1.704.284 2.327.87.258.277.495.588.612.954.106.351.12.723.091 1.086-.079.539-.26 1.087-.632 1.496a1.87 1.87 0 0 1-.855.54 3.7 3.7 0 0 1-.999.11 3.92 3.92 0 0 1-2.72-1.016 1.86 1.86 0 0 1-.527.642c-.433.333-.89.372-1.124.39-.211.014-.926.064-1.473-.417a1.7 1.7 0 0 1-.275-.313c-.074.152-.123.32-.229.454-.22.29-.553.492-.913.556-.469.082-.973.053-1.391-.19a1.74 1.74 0 0 1-.627-.636c-.284-.439-.39-.98-.337-1.496.059-.626.308-1.247.753-1.701.375-.404.893-.65 1.423-.782.96-.225 1.97-.085 2.89.237a.9.9 0 0 0-.214-.225c-.43-.36-.963-.574-1.51-.688-.534-.1-1.084-.129-1.614-.003-.562.132-1.11.372-1.549.752-.495.399-.858.97-.98 1.596a5 5 0 0 0-.121 1.151c.03.425.056.852.17 1.262-.463.164-.96.21-1.45.187-.35 0-.694-.1-1.021-.225-.557-.228-.987-.691-1.262-1.215-.402-.735-.495-1.672-.106-2.43.252-.566.74-1.01 1.312-1.24.433-.175.928-.163 1.37-.01-.105-.51-.003-1.073.314-1.491.213-.31.524-.554.875-.688.407-.173.878-.13 1.285.029.156.056.287.161.44.22.26-.577.606-1.128 1.068-1.564a3.33 3.33 0 0 1 2.29-1.03" style="fill:#26c;stroke-width:.0292811"/></svg>