<svg width="24" height="24" viewBox="0 0 24 24" fill="none" xmlns="http://www.w3.org/2000/svg">

    <!-- background disc -->
    <path d="M12 0 a12 12 0 1 1 0 24 a12 12 0 1 1 0 -24Z" fill="black" />

    <!-- all four chevrons enlarged 20 % -->
    <g transform="translate(12 12) scale(1.2) translate(-12 -12)">
        <path
            d="M10.3777 15.569L12.0361 17.2273L13.6944 15.569L13.5502 15.4248L13.2618 15.2085L12.8292 14.9922L12.6129 14.9201L12.0361 14.848L11.4593 14.9201L11.243 14.9922L11.0987 15.0643L10.8103 15.2085L10.594 15.3527L10.3777 15.569Z"
            fill="white" />
        <path
            d="M8.43103 13.6943L9.44043 14.6316L9.87304 14.199L10.3056 13.9827L10.7382 13.7664L11.2429 13.6222L11.7476 13.5501H12.1802H12.6128L13.3339 13.7664L13.9828 14.1269L14.6317 14.6316L15.569 13.6943L15.2806 13.4059L14.9201 13.1175L14.4875 12.8291L13.6944 12.4686L12.9012 12.2523L12.1802 12.1802H11.7476L11.0266 12.2523L10.3056 12.4686L9.44043 12.9012L8.43103 13.6943Z"
            fill="white" />
        <path
            d="M6.55643 11.7477L7.49373 12.685L8.07053 12.2524L8.28683 12.1082L8.57524 11.8919L9.15204 11.5314L9.72884 11.243L10.3777 11.0266L11.0987 10.8824H11.8197H12.3245H12.8292L13.4781 11.0266L14.3433 11.3151L15.2085 11.7477L15.8574 12.1803L16.5063 12.7571L17.4436 11.7477L16.8668 11.243L16.2179 10.7382L15.2806 10.2335L14.127 9.80094L13.0455 9.51254H11.8197L10.594 9.65674L9.15204 10.0172L7.78213 10.7382L6.55643 11.7477Z"
            fill="white" />
        <path
            d="M4.68182 9.87305L5.61913 10.8104L6.41223 10.0893L7.27743 9.58465L8.14264 9.07995L8.93574 8.71944L10.0172 8.43104L11.0988 8.21474H11.964H12.9013L13.9828 8.43104L15.2085 8.71944L16.2179 9.22415L17.2273 9.87305L18.3809 10.8104L19.3182 9.87305L18.1646 8.86364L16.9389 8.07054L15.3527 7.34954L13.6944 6.91694L11.964 6.77274L10.594 6.91694L8.79154 7.34954L7.27743 7.92634L5.97963 8.71944L4.68182 9.87305Z"
            fill="white" />
    </g>
</svg>