<svg version="1.1" id="svg1" width="24" height="24" viewBox="0 0 24 24" xmlns="http://www.w3.org/2000/svg">
   <defs id="defs1" />
   <g id="g1">
      <path style="fill:#000000;stroke-width:0.0385172"
         d="m 2.9017734,23.982522 c -0.116572,-0.02029 -0.201378,-0.07742 -0.286699,-0.193102 -0.06973,-0.09454 -0.209667,-0.987911 -2.34413997,-14.9647719 -0.430959,-2.821984 -0.456953,-2.719507 0.74122097,-2.922164 0.381907,-0.06459 0.752946,-0.13052 0.824529,-0.146499 0.211321,-0.04717 0.211119,-0.04446 0.07137,-0.957912 -0.176175,-1.151505 -0.119312,-1.588039 0.221827,-1.70298 C 2.2998954,3.0378131 21.044646,-0.01686191 21.122243,7.0089905e-5 21.387909,0.05804009 21.44407,0.17407509 21.555367,0.89495109 c 0.04803,0.31111901 0.26313,1.71140301 0.477989,3.11174301 0.21486,1.400341 0.57296,3.732935 0.795778,5.183544 1.180858,7.6877189 1.153985,7.5032549 1.167964,8.0174809 0.01989,0.731741 -0.05072,0.844121 -0.582253,0.926649 -0.244662,0.03799 -0.223223,0.01535 -0.245773,0.259572 -0.05821,0.63049 -0.12375,0.691889 -0.867217,0.812455 -0.185512,0.03008 -0.185512,0.03008 -0.171548,0.125223 0.09676,0.659216 0.06963,1.270762 -0.06331,1.427351 -0.115613,0.13618 0.326399,0.05846 -9.566044,1.682039 -10.7867336,1.770355 -9.4852386,1.56135 -9.5991746,1.541514 z m 7.6121446,-7.546449 c 0.102635,-0.08349 0.10274,-0.121809 0.0022,-0.783561 -0.137882,-0.907195 -0.291373,-0.785447 1.315741,-1.043631 1.266275,-0.203427 1.285523,-0.207981 1.340036,-0.317002 0.06114,-0.12228 -0.187131,-1.706757 -0.28075,-1.791746 -0.08622,-0.07827 -0.01187,-0.08576 -1.397181,0.140806 -1.5559746,0.25448 -1.394047,0.317041 -1.5303756,-0.591265 -0.109565,-0.729987 -0.213748,-0.898074 -0.434545,-0.701081 -0.02499,0.0223 -0.83514,0.695703 -1.800325,1.496451 -1.970068,1.634432 -1.930982,1.598988 -1.910087,1.732152 0.02277,0.145097 -0.03632,0.118362 2.291756,1.036962 2.3031006,0.908745 2.2986866,0.907236 2.4035686,0.821915 z m 4.327043,-4.325747 c 1.384201,-1.090688 3.644261,-3.0330489 3.644261,-3.1319829 0,-0.193596 0.247411,-0.07766 -2.3283,-1.091023 -2.740754,-1.078295 -2.528791,-1.074039 -2.370247,-0.04759 0.140971,0.912673 0.283396,0.796236 -1.290759,1.055242 -1.286576,0.21169 -1.343981,0.226463 -1.374889,0.353818 -0.0183,0.07542 0.20632,1.6304139 0.247022,1.7100449 0.06838,0.13377 0.0669,0.133868 1.480193,-0.09824 1.516354,-0.249039 1.354461,-0.307666 1.484384,0.537546 0.110524,0.719003 0.104333,0.693267 0.181948,0.756407 0.0952,0.07745 0.187927,0.06488 0.326387,-0.04422 z M 4.4239244,7.2693051 c 0.282378,-0.148985 0.394485,-0.513062 0.248781,-0.807935 -0.190697,-0.385928 -0.722535,-0.433346 -0.974555,-0.08689 -0.370829,0.509786 0.176514,1.184618 0.725774,0.894825 z m 1.59662,-0.23554 c 0.246869,-0.07089 0.431877,-0.413608 0.372186,-0.689452 -0.117356,-0.542335 -0.81971,-0.658852 -1.067971,-0.177171 -0.259181,0.502867 0.157072,1.021324 0.695785,0.866623 z m 1.783106,-0.332597 c 0.408742,-0.258244 0.365438,-0.876284 -0.07497,-1.06999 -0.288863,-0.127051 -0.6632,0.04672 -0.769054,0.357 -0.179538,0.526267 0.384892,1.00307 0.844024,0.71299 z"
         id="path1" />
   </g>
</svg>