<svg version="1.1" id="Layer_1" xmlns="http://www.w3.org/2000/svg" xmlns:xlink="http://www.w3.org/1999/xlink" x="0px" y="0px" width="100%" viewBox="0 0 407 373" enable-background="new 0 0 407 373" xml:space="preserve">

<path fill="#F18A2B" opacity="1.000000" stroke="none" d="
M338.038208,178.982513 
	C338.188538,182.206955 339.971924,183.109634 343.014954,182.924576 
	C346.781189,182.695541 350.571960,182.869751 356.169006,182.869751 
	C353.881042,188.335403 352.775360,193.094208 350.175049,196.805893 
	C341.065491,209.808716 337.394958,224.235870 338.564850,239.763855 
	C339.347931,250.157837 337.001740,259.193756 330.606171,267.290405 
	C327.611725,271.081299 324.978302,275.232697 321.577545,278.613495 
	C310.224640,289.899689 309.218079,303.252014 312.425049,317.960327 
	C314.902710,329.323578 316.591949,340.860443 318.538483,352.335907 
	C318.819275,353.991394 318.577393,355.735504 318.577393,358.930511 
	C315.025085,356.692383 311.975616,355.654724 310.295135,353.532837 
	C306.510406,348.753906 302.345917,343.824921 300.302307,338.237762 
	C298.007904,331.964996 292.922913,328.767853 288.932098,324.353363 
	C288.247345,323.595947 286.408966,323.497955 285.187683,323.675293 
	C279.779205,324.460693 274.236664,324.917114 269.049255,326.498505 
	C260.150787,329.211243 251.336655,332.326965 242.746475,335.897461 
	C226.407013,342.688995 209.759766,342.786621 192.725784,339.539246 
	C181.779510,337.452454 170.711273,335.998718 159.779968,333.843842 
	C156.293777,333.156616 153.071869,331.128784 149.897903,329.400635 
	C152.362854,327.852112 154.951553,326.962219 156.895981,325.312805 
	C161.361740,321.524536 166.255707,317.832123 166.404953,310.967773 
	C170.215240,311.712036 173.598923,312.994568 177.028015,313.130463 
	C196.608765,313.906464 216.200211,314.413513 235.788742,314.987183 
	C236.436310,315.006134 237.172867,314.912720 237.731277,314.615234 
	C248.135941,309.071869 258.605194,303.640381 268.862671,297.835144 
	C272.547791,295.749603 273.870453,291.898804 272.430267,287.831238 
	C269.669861,280.035034 266.758759,272.279022 263.539246,264.663147 
	C261.418457,259.646332 258.649170,254.903656 256.534912,250.033630 
	C259.131348,248.986923 261.513702,248.178299 263.565186,246.856277 
	C268.524170,243.660629 273.328705,240.225342 278.417969,237.162476 
	C283.408264,249.120392 287.755920,261.011963 295.170074,272.650696 
	C296.703369,270.332611 297.710297,269.237885 298.234467,267.947144 
	C301.220978,260.593231 305.371704,253.420914 306.739197,245.760681 
	C309.672607,229.328262 311.149536,212.635834 313.611023,196.105682 
	C321.410187,198.264328 325.349457,196.721436 330.000397,190.057343 
	C332.610504,186.317459 335.354523,182.671036 338.038208,178.982513 
z" data-index="1" style="visibility: visible; opacity: 1;"></path>
<path fill="#7FBAD2" opacity="1.000000" stroke="none" d="
M161.950043,79.798119 
	C165.809555,78.239975 170.281570,77.533470 170.512421,71.780487 
	C170.553040,70.767860 173.091583,69.422958 174.685867,68.972992 
	C188.578064,65.052032 189.761917,63.760143 192.119049,49.266357 
	C194.326431,48.390015 195.954544,47.279331 197.459839,47.426323 
	C202.628418,47.931053 203.829727,44.111053 205.060883,40.659672 
	C206.417130,36.857605 207.174423,32.841881 208.192642,28.919230 
	C211.015060,37.393505 213.966568,45.827541 216.623993,54.353245 
	C219.342743,63.075787 225.094070,67.947250 234.566284,69.474030 
	C236.823837,75.566269 237.804443,81.687737 240.615921,86.802902 
	C245.625336,95.917038 245.827438,104.311806 239.566193,112.830040 
	C236.564026,112.302673 233.943756,111.800903 230.730789,111.185646 
	C232.058197,116.310684 233.158920,120.560524 234.128754,125.174057 
	C231.549820,131.501724 228.972275,137.416931 226.701736,143.447739 
	C225.313736,147.134384 223.256271,149.427948 218.851883,148.666977 
	C218.079391,147.181976 217.537262,145.968262 216.903259,144.804596 
	C211.983047,135.773865 207.093048,126.725830 202.053329,117.762062 
	C201.407043,116.612579 199.741150,115.021271 198.922852,115.215508 
	C197.612350,115.526573 196.430191,117.028740 195.544022,118.276260 
	C194.802261,119.320457 194.533569,120.710976 194.103439,121.964615 
	C190.775909,131.662903 187.460083,141.365219 183.783234,151.016617 
	C181.350815,149.009995 179.275803,147.053040 176.356140,144.299500 
	C174.389160,146.565018 172.913666,149.155228 170.696655,150.633087 
	C166.045044,153.733887 161.003540,156.249756 156.108398,158.627457 
	C160.126190,145.673355 164.198425,133.110275 168.132126,120.503952 
	C168.569839,119.101135 168.219162,117.452301 168.234100,115.917557 
	C166.656097,115.941071 164.920486,115.548607 163.532822,116.074440 
	C160.617249,117.179222 157.884445,118.766312 155.051300,119.706924 
	C156.527328,111.153687 158.072678,103.056763 159.513840,94.941338 
	C160.407654,89.908112 161.143372,84.846817 161.950043,79.798119 
z" data-index="2" style="visibility: visible;"></path>
<path fill="#524093" opacity="1.000000" stroke="none" d="
M64.955757,269.672424 
	C52.595997,272.229034 40.236465,274.786774 27.876003,277.339996 
	C26.937508,277.533844 25.992323,277.695282 24.496778,277.132050 
	C26.353821,275.375732 28.151480,273.551208 30.077950,271.874664 
	C39.498974,263.675934 48.921749,255.478546 58.417896,247.367310 
	C61.185146,245.003647 62.118790,242.292648 62.039883,238.620743 
	C61.875465,230.969147 62.285610,223.305222 63.169960,215.317902 
	C73.228218,215.328583 82.576180,215.667740 91.968567,216.462341 
	C92.012985,219.525101 92.012985,222.132416 92.012985,224.875992 
	C93.016815,224.933105 93.671135,225.090927 94.281143,224.987457 
	C110.329597,222.265320 125.244652,216.646027 138.558105,207.186981 
	C140.173386,206.039322 140.995956,203.775940 142.637390,202.024017 
	C149.284439,201.215744 155.560135,200.785263 161.646317,199.474747 
	C165.463974,198.652695 169.022079,196.564636 172.650879,194.942230 
	C176.742249,193.113022 180.172867,194.111206 182.889008,197.416092 
	C187.028397,202.452713 188.746353,208.412582 188.664017,215.008026 
	C167.604080,224.212067 152.575806,238.880997 143.714813,260.048645 
	C138.820709,260.180267 134.380585,260.574554 129.961105,260.410828 
	C126.525978,260.283600 123.116631,259.460693 119.761429,258.549988 
	C120.538727,255.262421 121.473747,252.399643 121.838829,249.465958 
	C121.963600,248.463364 120.836235,246.501572 119.978256,246.306000 
	C112.486412,244.598251 99.248741,251.696426 95.421219,258.986206 
	C92.988693,258.995514 90.989021,258.825745 89.029274,259.033234 
	C79.881317,260.001587 71.387627,262.525299 64.955757,269.672424 
z" data-index="3" style="visibility: visible; opacity: 1;"></path>
<path fill="#67BCB3" opacity="1.000000" stroke="none" d="
M161.559509,79.855179 
	C161.143372,84.846817 160.407654,89.908112 159.513840,94.941338 
	C158.072678,103.056763 156.527328,111.153687 154.841660,119.964111 
	C132.263062,135.052246 113.502449,152.869522 101.000046,177.022034 
	C90.591728,178.695526 80.597839,180.341354 70.603958,181.987183 
	C74.530609,172.482849 78.348793,162.931686 82.423370,153.491180 
	C84.989159,147.546478 87.719070,141.647583 90.816147,135.968521 
	C92.209190,133.414093 94.760704,131.512650 96.633575,129.191483 
	C97.960083,127.547424 99.192924,125.782272 100.176735,123.917725 
	C101.710899,121.010101 102.998405,117.972336 104.553696,114.639915 
	C106.257652,115.456543 107.675514,116.136070 110.226707,117.358749 
	C114.662788,111.111908 119.795319,105.004013 123.628212,98.167465 
	C127.354980,91.520210 132.335556,87.784348 139.650284,86.123146 
	C146.918488,84.472511 154.003571,82.015587 161.559509,79.855179 
z" data-index="4" style="visibility: visible; opacity: 1;"></path>
<path fill="#F4ADBA" opacity="1.000000" stroke="none" d="
M239.948059,112.855644 
	C245.827438,104.311806 245.625336,95.917038 240.615921,86.802902 
	C237.804443,81.687737 236.823837,75.566269 234.952820,69.537918 
	C239.210129,69.128578 243.613083,68.549751 247.832062,69.187645 
	C251.632034,69.762169 255.849487,70.860893 258.812653,73.127457 
	C273.167633,84.107887 287.146942,95.578789 301.310822,106.810997 
	C302.534607,107.781464 304.086609,108.401947 305.568878,108.968643 
	C308.268433,110.000702 311.030121,110.870346 314.749603,112.144836 
	C309.614075,118.286285 311.320435,122.187958 317.648712,125.217453 
	C316.258972,128.347809 314.689362,131.012589 312.921631,133.538712 
	C310.701691,136.711060 308.319489,139.769821 305.661591,142.960510 
	C300.771179,145.038208 296.226440,147.032990 291.464233,148.788544 
	C288.663910,145.347580 286.421539,141.779434 283.438995,139.007858 
	C270.798828,127.261871 255.981491,119.019905 239.948059,112.855644 
z" data-index="5" style="visibility: visible;"></path>
<path fill="#F2AD4C" opacity="1.000000" stroke="none" d="
M326.013092,132.680344 
	C331.073669,135.460205 336.134247,138.240082 341.431091,141.395828 
	C338.013489,151.221207 332.241455,158.972153 324.413605,165.549484 
	C319.982422,169.272766 316.769836,174.446365 312.568542,178.926239 
	C298.346039,179.889755 285.479370,184.014160 273.311462,190.417664 
	C266.541901,193.980194 265.588837,196.175980 267.567444,203.750641 
	C268.905212,208.872086 270.528809,213.918884 271.660400,219.035370 
	C264.636810,222.080383 258.124573,225.608368 250.304047,224.607651 
	C249.651779,222.188690 249.130905,220.145401 249.039261,218.056137 
	C253.400635,218.080429 255.000320,216.208740 255.062408,212.232315 
	C255.101974,209.696930 256.207123,207.186890 256.758972,204.649063 
	C258.179749,198.115082 259.558502,191.571960 261.324097,184.986893 
	C265.289642,182.975800 269.204224,181.426208 272.416748,178.961578 
	C279.997284,173.145874 287.523621,167.835327 297.743103,167.729019 
	C302.128601,167.683380 306.934509,166.447067 309.317932,162.073227 
	C311.908875,157.318680 313.840302,152.204742 316.343933,147.054886 
	C319.756775,142.134964 322.884949,137.407654 326.013092,132.680344 
z" data-index="6" style="visibility: visible; opacity: 1;"></path>
<path fill="#5F6098" opacity="1.000000" stroke="none" d="
M65.330826,269.767334 
	C71.387627,262.525299 79.881317,260.001587 89.029274,259.033234 
	C90.989021,258.825745 92.988693,258.995514 95.476936,259.387695 
	C97.069862,267.652039 100.201660,274.386841 107.048737,278.855316 
	C111.074036,281.482300 113.361244,280.536987 114.725166,275.965698 
	C116.414848,270.302551 118.041779,264.620728 119.695831,258.946960 
	C123.116631,259.460693 126.525978,260.283600 129.961105,260.410828 
	C134.380585,260.574554 138.820709,260.180267 143.680206,260.437012 
	C142.654343,267.205444 141.200211,273.563171 139.376877,279.942810 
	C136.288239,281.133270 133.493637,282.154755 130.864090,283.499146 
	C124.172981,286.920074 118.163864,291.893127 109.568245,289.131073 
	C102.275017,286.787567 95.601372,289.294830 89.823837,294.152710 
	C84.630608,288.030518 79.626030,281.732269 74.154778,275.869537 
	C71.844940,273.394470 68.551987,271.836853 65.330826,269.767334 
z" data-index="7" style="visibility: visible;"></path>
<path fill="#8E888C" opacity="1.000000" stroke="none" d="
M89.981964,294.445984 
	C95.601372,289.294830 102.275017,286.787567 109.568245,289.131073 
	C118.163864,291.893127 124.172981,286.920074 130.864090,283.499146 
	C133.493637,282.154755 136.288239,281.133270 139.433716,280.360474 
	C138.528198,289.918671 139.370453,298.295410 147.983627,304.074280 
	C142.185486,309.579071 136.589462,314.799744 130.693207,319.868988 
	C128.949982,319.483002 127.130417,318.568298 126.125420,319.124756 
	C119.835167,322.607513 112.981537,322.663879 106.138504,322.968231 
	C107.868080,313.244965 103.398262,306.340515 96.143936,300.585388 
	C93.966881,298.858246 92.131821,296.700012 89.981964,294.445984 
z" data-index="8"></path>
<path fill="#F6A555" opacity="1.000000" stroke="none" d="
M313.008392,178.966736 
	C316.769836,174.446365 319.982422,169.272766 324.413605,165.549484 
	C332.241455,158.972153 338.013489,151.221207 341.815796,141.457367 
	C346.380127,140.099686 350.796021,139.056335 355.560944,138.395813 
	C354.183807,143.719193 352.382050,148.635681 350.794434,153.620377 
	C350.472443,154.631348 350.958496,155.899689 351.072021,157.049377 
	C348.979645,159.330948 346.923462,161.647064 344.786987,163.886566 
	C340.928833,167.930786 338.496124,172.589142 338.194641,178.632324 
	C335.354523,182.671036 332.610504,186.317459 330.000397,190.057343 
	C325.349457,196.721436 321.410187,198.264328 313.550934,195.638092 
	C313.071228,189.732010 313.039825,184.349380 313.008392,178.966736 
z" data-index="9" style="visibility: visible;"></path>
<path fill="#8E8A8E" opacity="1.000000" stroke="none" d="
M70.390816,182.251251 
	C80.597839,180.341354 90.591728,178.695526 100.867172,177.388672 
	C98.911034,184.495193 96.673325,191.262695 93.939766,198.019043 
	C84.286751,198.001968 75.129578,197.996078 65.972412,197.990189 
	C67.374168,192.831909 68.775917,187.673615 70.390816,182.251251 
z" data-index="10" style="visibility: visible;"></path>
<path fill="#606098" opacity="1.000000" stroke="none" d="
M65.774200,198.313904 
	C75.129578,197.996078 84.286751,198.001968 93.855927,198.448090 
	C93.486671,204.594513 92.705406,210.300705 91.924141,216.006897 
	C82.576180,215.667740 73.228218,215.328583 63.407257,214.980499 
	C63.814831,209.526932 64.695404,204.082275 65.774200,198.313904 
z" data-index="11" style="visibility: visible;"></path>
<path fill="#709CCB" opacity="1.000000" stroke="none" d="
M208.164627,28.522146 
	C207.174423,32.841881 206.417130,36.857605 205.060883,40.659672 
	C203.829727,44.111053 202.628418,47.931053 197.459839,47.426323 
	C195.954544,47.279331 194.326431,48.390015 192.367554,48.962807 
	C193.004105,37.095776 193.882706,25.174339 195.176270,13.298103 
	C195.428619,10.981187 197.292618,8.839806 198.872314,5.707092 
	C204.849442,13.025846 206.001816,20.781006 208.164627,28.522146 
z" data-index="12" style="visibility: visible;"></path>
<path fill="#F18C2F" opacity="1.000000" stroke="none" d="
M351.366272,156.892136 
	C350.958496,155.899689 350.472443,154.631348 350.794434,153.620377 
	C352.382050,148.635681 354.183807,143.719193 355.959076,138.400391 
	C366.859589,134.950882 377.708771,131.864334 388.313904,132.997253 
	C376.427490,140.695206 364.044006,148.715057 351.366272,156.892136 
z" data-index="13" style="visibility: visible;"></path>
<path fill="#B8955D" opacity="1.000000" stroke="none" d="
M106.063965,323.400879 
	C112.981537,322.663879 119.835167,322.607513 126.125420,319.124756 
	C127.130417,318.568298 128.949982,319.483002 130.682526,320.120178 
	C130.957535,320.689880 130.942963,320.856995 130.928375,321.024109 
	C123.304497,321.580505 120.270470,324.045776 118.040375,331.433350 
	C117.522957,333.147400 116.899513,334.829468 115.782074,336.951294 
	C112.866051,340.591187 110.492790,343.806030 108.188652,346.927246 
	C106.223076,345.383057 104.732513,344.212036 103.241943,343.041016 
	C104.157768,336.638519 105.073593,330.236023 106.063965,323.400879 
z" data-index="14"></path>
<path fill="#F2AD4C" opacity="1.000000" stroke="none" d="
M131.184708,321.253235 
	C130.942963,320.856995 130.957535,320.689880 130.982758,320.271606 
	C136.589462,314.799744 142.185486,309.579071 148.324921,304.172241 
	C152.590302,305.631256 156.312256,307.276367 160.024841,309.330627 
	C160.673111,315.915710 156.153152,316.743530 150.711472,318.067535 
	C145.732605,319.278961 140.927551,321.204742 136.045898,322.815765 
	C134.510941,322.371277 132.975983,321.926819 131.184708,321.253235 
z" data-index="15" style="opacity: 1;"></path>
<path fill="#F8B671" opacity="1.000000" stroke="none" d="
M136.248749,323.104431 
	C140.927551,321.204742 145.732605,319.278961 150.711472,318.067535 
	C156.153152,316.743530 160.673111,315.915710 160.390106,309.349487 
	C162.509628,309.631592 164.254486,310.304016 165.999329,310.976440 
	C166.255707,317.832123 161.361740,321.524536 156.895981,325.312805 
	C154.951553,326.962219 152.362854,327.852112 149.642090,329.120483 
	C144.962158,327.233704 140.706894,325.313385 136.248749,323.104431 
z" data-index="16" style="opacity: 1;"></path>
<path fill="#F9C9CF" opacity="1.000000" stroke="none" d="
M325.959045,132.370636 
	C322.884949,137.407654 319.756775,142.134964 315.969238,146.979050 
	C312.209015,145.689743 309.108154,144.283676 306.007294,142.877609 
	C308.319489,139.769821 310.701691,136.711060 312.921631,133.538712 
	C314.689362,131.012589 316.258972,128.347809 317.943359,125.394432 
	C320.615112,127.383179 323.260071,129.722061 325.959045,132.370636 
z" data-index="17" style="visibility: visible;"></path>
<path fill="#F18D31" opacity="1.000000" stroke="none" d="
M103.134796,343.429260 
	C104.732513,344.212036 106.223076,345.383057 108.188652,346.927246 
	C110.492790,343.806030 112.866051,340.591187 115.490700,337.170441 
	C113.830475,342.726013 112.371658,348.700897 109.802238,354.152344 
	C108.644547,356.608582 105.271896,358.020874 102.904221,359.906830 
	C102.239265,359.470490 101.574303,359.034149 100.909340,358.597809 
	C101.615440,353.671051 102.321541,348.744293 103.134796,343.429260 
z" data-index="18"></path>

<path fill="#FFFEFD" opacity="1.000000" stroke="none" d="
M312.568542,178.926239 
	C313.039825,184.349380 313.071228,189.732010 313.162720,195.582260 
	C311.149536,212.635834 309.672607,229.328262 306.739197,245.760681 
	C305.371704,253.420914 301.220978,260.593231 298.234467,267.947144 
	C297.710297,269.237885 296.703369,270.332611 295.170074,272.650696 
	C287.755920,261.011963 283.408264,249.120392 278.383850,236.786789 
	C276.093079,230.423218 274.058838,224.711136 272.024597,218.999054 
	C270.528809,213.918884 268.905212,208.872086 267.567444,203.750641 
	C265.588837,196.175980 266.541901,193.980194 273.311462,190.417664 
	C285.479370,184.014160 298.346039,179.889755 312.568542,178.926239 
z" data-index="20" style="visibility: hidden; opacity: 1;"></path>
<path fill="#F6A555" opacity="1.000000" stroke="none" d="
M271.660400,219.035370 
	C274.058838,224.711136 276.093079,230.423218 278.161438,236.510986 
	C273.328705,240.225342 268.524170,243.660629 263.565186,246.856277 
	C261.513702,248.178299 259.131348,248.986923 256.534912,250.033630 
	C251.574829,242.594727 251.279022,234.115845 250.383774,225.388535 
	C258.124573,225.608368 264.636810,222.080383 271.660400,219.035370 
z" data-index="21"></path>

<path fill="#FEFEFE" opacity="1.000000" stroke="none" d="
M184.140625,151.066284 
	C187.460083,141.365219 190.775909,131.662903 194.103439,121.964615 
	C194.533569,120.710976 194.802261,119.320457 195.544022,118.276260 
	C196.430191,117.028740 197.612350,115.526573 198.922852,115.215508 
	C199.741150,115.021271 201.407043,116.612579 202.053329,117.762062 
	C207.093048,126.725830 211.983047,135.773865 216.903259,144.804596 
	C217.537262,145.968262 218.079391,147.181976 218.885223,149.033051 
	C221.126587,155.831482 223.146805,161.969376 225.145172,168.537903 
	C226.246643,175.883774 222.936646,180.431122 217.088867,183.346436 
	C212.824173,185.472504 208.357635,187.193680 203.585968,189.094055 
	C192.967102,190.554703 182.743317,192.016647 171.369873,193.643005 
	C172.760864,188.613983 173.671982,185.319977 174.781586,181.742233 
	C178.033615,171.327744 181.087112,161.197021 184.140625,151.066284 
z" data-index="23" style="visibility: hidden; opacity: 1;"></path>

<path fill="#88ADD4" opacity="1.000000" stroke="none" d="
M183.783234,151.016617 
	C181.087112,161.197021 178.033615,171.327744 174.330627,181.704437 
	C166.051483,179.886703 158.421814,177.823044 150.792160,175.759369 
	C152.439697,170.389359 154.087250,165.019363 155.928467,159.327560 
	C161.003540,156.249756 166.045044,153.733887 170.696655,150.633087 
	C172.913666,149.155228 174.389160,146.565018 176.356140,144.299500 
	C179.275803,147.053040 181.350815,149.009995 183.783234,151.016617 
z" data-index="25" style="visibility: visible; opacity: 1;"></path>
<path fill="#F4ADBB" opacity="1.000000" stroke="none" d="
M234.128769,125.174057 
	C237.093643,132.780594 239.909058,140.757523 242.771591,148.717499 
	C243.782578,151.528839 244.908646,154.298798 245.878052,157.841049 
	C245.803009,161.784241 245.709656,164.981339 245.899658,168.161499 
	C246.053848,170.742340 246.572281,173.319046 242.342773,172.801910 
	C236.830261,169.659760 231.463440,167.143768 225.167007,168.107285 
	C223.146805,161.969376 221.126587,155.831482 219.073029,149.327515 
	C223.256271,149.427948 225.313736,147.134384 226.701736,143.447739 
	C228.972275,137.416931 231.549820,131.501724 234.128769,125.174057 
z" data-index="26" style="visibility: visible; opacity: 1;"></path>
<path fill="#606198" opacity="1.000000" stroke="none" d="
M150.549652,176.039368 
	C158.421814,177.823044 166.051483,179.886703 174.132111,181.988190 
	C173.671982,185.319977 172.760864,188.613983 171.369873,193.643005 
	C182.743317,192.016647 192.967102,190.554703 203.607574,189.508179 
	C204.752502,196.425797 205.480728,202.927994 206.208954,209.430176 
	C200.711899,211.233459 195.214828,213.036758 189.349701,214.846497 
	C188.746353,208.412582 187.028397,202.452713 182.889008,197.416092 
	C180.172867,194.111206 176.742249,193.113022 172.650879,194.942230 
	C169.022079,196.564636 165.463974,198.652695 161.646317,199.474747 
	C155.560135,200.785263 149.284439,201.215744 142.637421,202.024017 
	C144.893005,193.459564 147.600082,184.889481 150.549652,176.039368 
z" data-index="27" style="opacity: 1;"></path>

<path fill="#FBCF69" opacity="1.000000" stroke="none" d="
M242.608490,172.978790 
	C246.572281,173.319046 246.053848,170.742340 245.899658,168.161499 
	C245.709656,164.981339 245.803009,161.784241 245.934113,158.198441 
	C246.219452,157.911179 246.382767,157.996887 246.464294,158.131943 
	C253.773468,170.241272 257.714539,171.788666 271.150665,166.697968 
	C277.477661,164.300812 283.443512,160.959381 289.609741,158.125793 
	C293.718781,156.237595 291.852142,152.834686 291.769287,149.458649 
	C296.226440,147.032990 300.771179,145.038208 305.661591,142.960510 
	C309.108154,144.283676 312.209015,145.689743 315.684570,147.171661 
	C313.840302,152.204742 311.908875,157.318680 309.317932,162.073227 
	C306.934509,166.447067 302.128601,167.683380 297.743103,167.729019 
	C287.523621,167.835327 279.997284,173.145874 272.416748,178.961578 
	C269.204224,181.426208 265.289642,182.975800 261.032837,184.817139 
	C254.450485,180.788254 248.529495,176.883530 242.608490,172.978790 
z" data-index="29" style="visibility: visible; opacity: 1;"></path>
<path fill="#8E898D" opacity="1.000000" stroke="none" d="
M242.342773,172.801910 
	C248.529495,176.883530 254.450485,180.788254 260.662781,184.862732 
	C259.558502,191.571960 258.179749,198.115082 256.758972,204.649063 
	C256.207123,207.186890 255.101974,209.696930 255.062408,212.232315 
	C255.000320,216.208740 253.400635,218.080429 249.039261,218.056137 
	C245.529633,209.324142 239.351929,205.794434 230.178146,206.921661 
	C222.486404,207.866791 214.759384,208.525040 206.628479,209.370239 
	C205.480728,202.927994 204.752502,196.425797 204.002670,189.509491 
	C208.357635,187.193680 212.824173,185.472504 217.088867,183.346436 
	C222.936646,180.431122 226.246643,175.883774 225.145172,168.537903 
	C231.463440,167.143768 236.830261,169.659760 242.342773,172.801910 
z" data-index="30" style="opacity: 1;"></path>
</svg>