<svg version="1.1" xmlns="http://www.w3.org/2000/svg" width="200" height="200">
<path d="M0 0 C1.6796875 1.296875 1.6796875 1.296875 3.6796875 3.296875 C4.4325 3.58046875 5.1853125 3.8640625 5.9609375 4.15625 C13.5096678 7.32324605 19.70996316 13.92941569 24.6796875 20.296875 C25.6696875 20.956875 26.6596875 21.616875 27.6796875 22.296875 C28.0096875 23.286875 28.3396875 24.276875 28.6796875 25.296875 C29.5253125 26.1425 30.3709375 26.988125 31.2421875 27.859375 C32.44875 29.0659375 32.44875 29.0659375 33.6796875 30.296875 C33.6796875 30.956875 33.6796875 31.616875 33.6796875 32.296875 C34.3396875 32.296875 34.9996875 32.296875 35.6796875 32.296875 C36.3396875 34.606875 36.9996875 36.916875 37.6796875 39.296875 C38.3396875 39.296875 38.9996875 39.296875 39.6796875 39.296875 C48.43422045 53.78713643 50.20859994 68.9026961 50.12573242 85.5090332 C50.11723136 88.09602857 50.14608357 90.68079947 50.17773438 93.26757812 C50.23556072 107.15391417 48.85689047 121.09562994 41.6796875 133.296875 C41.00453596 134.62593204 40.33588104 135.95835632 39.6796875 137.296875 C39.0196875 137.296875 38.3596875 137.296875 37.6796875 137.296875 C37.0196875 139.606875 36.3596875 141.916875 35.6796875 144.296875 C35.0196875 144.296875 34.3596875 144.296875 33.6796875 144.296875 C33.4115625 145.080625 33.1434375 145.864375 32.8671875 146.671875 C31.6796875 149.296875 31.6796875 149.296875 28.6796875 151.296875 C28.3909375 151.915625 28.1021875 152.534375 27.8046875 153.171875 C26.30469234 156.0051992 24.18804428 157.31352313 21.6796875 159.296875 C20.5659375 160.6890625 20.5659375 160.6890625 19.4296875 162.109375 C14.92562546 167.71094583 9.30833068 171.67281753 2.6796875 174.296875 C1.38782307 175.20517556 0.11730132 176.14441953 -1.1328125 177.109375 C-7.54489547 181.52442876 -14.92416816 183.18150107 -22.3203125 185.296875 C-23.2062207 185.64073242 -24.09212891 185.98458984 -25.00488281 186.33886719 C-29.12129122 187.52832128 -32.87353138 187.65633936 -37.13671875 187.703125 C-38.40502029 187.72389603 -38.40502029 187.72389603 -39.69894409 187.74508667 C-42.42708877 187.77961936 -45.15445931 187.79226917 -47.8828125 187.796875 C-48.80804718 187.79955383 -49.73328186 187.80223267 -50.68655396 187.80499268 C-67.40667981 187.79445253 -87.05672122 187.1661804 -100.3203125 175.296875 C-100.3203125 174.636875 -100.3203125 173.976875 -100.3203125 173.296875 C-102.6303125 172.636875 -104.9403125 171.976875 -107.3203125 171.296875 C-107.3203125 170.636875 -107.3203125 169.976875 -107.3203125 169.296875 C-108.279375 169.11125 -108.279375 169.11125 -109.2578125 168.921875 C-109.9384375 168.715625 -110.6190625 168.509375 -111.3203125 168.296875 C-111.6503125 167.636875 -111.9803125 166.976875 -112.3203125 166.296875 C-113.3103125 165.966875 -114.3003125 165.636875 -115.3203125 165.296875 C-119.3203125 160.83973214 -119.3203125 160.83973214 -119.3203125 158.296875 C-120.3103125 157.966875 -121.3003125 157.636875 -122.3203125 157.296875 C-122.3203125 156.636875 -122.3203125 155.976875 -122.3203125 155.296875 C-123.3103125 155.296875 -124.3003125 155.296875 -125.3203125 155.296875 C-125.3203125 153.976875 -125.3203125 152.656875 -125.3203125 151.296875 C-126.6403125 150.966875 -127.9603125 150.636875 -129.3203125 150.296875 C-129.3203125 149.306875 -129.3203125 148.316875 -129.3203125 147.296875 C-130.3103125 146.966875 -131.3003125 146.636875 -132.3203125 146.296875 C-134.95436971 142.47718647 -137.09465402 138.36533787 -139.3203125 134.296875 C-139.71734375 133.60980469 -140.114375 132.92273438 -140.5234375 132.21484375 C-147.60018803 119.32504814 -147.9839815 105.99501268 -147.89672852 91.66674805 C-147.88288111 88.50006464 -147.91701706 85.33635671 -147.95507812 82.16992188 C-148.01558075 66.72173498 -146.52062833 52.0643352 -137.6328125 38.921875 C-137.24287109 38.30828125 -136.85292969 37.6946875 -136.45117188 37.0625 C-135.42813895 35.46062281 -134.37605886 33.87738331 -133.3203125 32.296875 C-132.6603125 31.306875 -132.0003125 30.316875 -131.3203125 29.296875 C-130.6603125 29.296875 -130.0003125 29.296875 -129.3203125 29.296875 C-129.3203125 28.306875 -129.3203125 27.316875 -129.3203125 26.296875 C-127.3403125 25.801875 -127.3403125 25.801875 -125.3203125 25.296875 C-125.3203125 23.976875 -125.3203125 22.656875 -125.3203125 21.296875 C-124.3303125 21.296875 -123.3403125 21.296875 -122.3203125 21.296875 C-121.9903125 20.306875 -121.6603125 19.316875 -121.3203125 18.296875 C-120.6603125 18.296875 -120.0003125 18.296875 -119.3203125 18.296875 C-119.2171875 17.69875 -119.1140625 17.100625 -119.0078125 16.484375 C-118.21394314 13.95842705 -117.36458841 12.94802093 -115.3203125 11.296875 C-114.3303125 10.966875 -113.3403125 10.636875 -112.3203125 10.296875 C-111.8046875 9.78125 -111.2890625 9.265625 -110.7578125 8.734375 C-110.2834375 8.26 -109.8090625 7.785625 -109.3203125 7.296875 C-108.6603125 7.296875 -108.0003125 7.296875 -107.3203125 7.296875 C-107.3203125 6.636875 -107.3203125 5.976875 -107.3203125 5.296875 C-105.0103125 4.636875 -102.7003125 3.976875 -100.3203125 3.296875 C-100.3203125 2.636875 -100.3203125 1.976875 -100.3203125 1.296875 C-77.26351174 -19.33616503 -24.31893982 -16.09723419 0 0 Z " fill="#2F322F" transform="translate(148.3203125,11.703125)"/>
<path d="M0 0 C1.65 0 3.3 0 5 0 C5.67812114 1.8708878 6.3419946 3.74694293 7 5.625 C7.37125 6.66914063 7.7425 7.71328125 8.125 8.7890625 C9.00483564 12.01774506 9.15988262 14.67244294 9 18 C9.66 18 10.32 18 11 18 C11.33386719 19.12148438 11.66773437 20.24296875 12.01171875 21.3984375 C12.77738121 23.35967247 12.77738121 23.35967247 14 25 C16.84557195 25.92473331 18.90376654 26.37183734 21.8125 26.625 C28.24218639 27.26500565 31.24681791 28.54817239 36 33 C37.86012886 34.17524281 37.86012886 34.17524281 39.5625 35 C43.61667474 37.35879258 46.408069 40.20907763 49.5 43.6875 C51.47092441 45.41205886 53.54765165 46.13836409 56 47 C55.67 48.65 55.34 50.3 55 52 C55.556875 52.226875 56.11375 52.45375 56.6875 52.6875 C59.63694755 54.36151077 61.6752269 56.54956349 64 59 C65.01570615 60.24899531 65.01570615 60.24899531 67.13305664 60.02172852 C68.04949951 59.97459717 68.96594238 59.92746582 69.91015625 59.87890625 C71.39418945 59.80639648 71.39418945 59.80639648 72.90820312 59.73242188 C74.46958008 59.64831055 74.46958008 59.64831055 76.0625 59.5625 C77.62967773 59.48418945 77.62967773 59.48418945 79.22851562 59.40429688 C81.81928236 59.27416704 84.40970666 59.13918842 87 59 C87 59.99 87 60.98 87 62 C85.80375 62.556875 84.6075 63.11375 83.375 63.6875 C79.36150453 65.69069597 76.31863031 67.99007948 73 71 C72.4225 71.45375 71.845 71.9075 71.25 72.375 C69.26604643 74.95413965 68.76485824 77.8817318 68 81 C70.64 81 73.28 81 76 81 C75.01649022 86.3109528 73.90834898 90.39511411 71 95 C69.25671858 100.07934516 68.8644347 104.40395777 68.875 109.75 C68.65623663 117.80950529 65.8937665 123.31112927 60 129 C59.34 129 58.68 129 58 129 C56.15433468 132.98393611 55.63977171 136.44376683 55.375 140.8125 C55.30023438 141.97394531 55.22546875 143.13539063 55.1484375 144.33203125 C55.07496094 145.65267578 55.07496094 145.65267578 55 147 C55.66 147 56.32 147 57 147 C58.32388229 153.43028541 59.24794402 159.4294834 59 166 C56.60729132 165.61391537 55.3144565 165.33138192 53.62109375 163.546875 C53.23050781 162.95390625 52.83992188 162.3609375 52.4375 161.75 C51.80521484 160.80640625 51.80521484 160.80640625 51.16015625 159.84375 C50.20647049 158.32812818 49.28598436 156.79166583 48.375 155.25 C47.04189484 153.06855519 45.97344008 151.6100327 44 150 C38.44749901 149.07269841 33.48148725 151.13837709 28.59692383 153.58349609 C13.87365089 160.89318094 -0.75258095 159.22911258 -16.08203125 154.38671875 C-19.81452032 153.12068269 -23.39044693 151.57945833 -27 150 C-29.63460948 149.12056596 -29.63460948 149.12056596 -32 149 C-36.62107477 152.08071652 -36.55168982 156.5786003 -37.7421875 161.8125 C-39 165 -39 165 -41.6328125 166.4375 C-42.41398437 166.623125 -43.19515625 166.80875 -44 167 C-44.72779072 160.30432535 -42.67242689 155.57664825 -39 150 C-34.61342073 144.83931851 -29.83742101 140.44258162 -24 137 C-23.278125 137.598125 -22.55625 138.19625 -21.8125 138.8125 C-12.81187157 144.74267993 -0.73492021 144.47408532 9.625 144.375 C11.50251953 144.39240234 11.50251953 144.39240234 13.41796875 144.41015625 C14.61292969 144.40628906 15.80789062 144.40242187 17.0390625 144.3984375 C18.11365723 144.39505371 19.18825195 144.39166992 20.29541016 144.38818359 C23.39951211 143.94265894 23.99767711 143.2845633 26 141 C28.30988315 140.25613932 30.64315944 139.57809297 33 139 C33 138.34 33 137.68 33 137 C33.99 136.67 34.98 136.34 36 136 C36.43972915 130.7313933 34.95300174 127.04269391 32.625 122.4375 C27.06524852 111.1032912 27.06524852 111.1032912 26.0625 105.125 C25.46648125 101.83712606 24.70867027 99.15833254 23.1875 96.1875 C22.795625 95.135625 22.40375 94.08375 22 93 C23.25 90.375 23.25 90.375 25 88 C25.70670728 85.30745009 25.70670728 85.30745009 26 83 C24.73299277 82.0158875 23.4612381 81.03788503 22.1875 80.0625 C21.47980469 79.51722656 20.77210937 78.97195312 20.04296875 78.41015625 C17.95874948 76.83143752 17.95874948 76.83143752 15 76 C13.89180332 73.60333999 12.94779794 71.28992527 12.0625 68.8125 C10.21097312 63.69709554 8.13025843 59.50969434 5 55 C4.7215625 53.8553125 4.7215625 53.8553125 4.4375 52.6875 C4.293125 52.130625 4.14875 51.57375 4 51 C3.01 50.67 2.02 50.34 1 50 C0.81050781 50.78117187 0.81050781 50.78117187 0.6171875 51.578125 C-1.49419699 59.86330465 -3.82313297 68.05783242 -7 76 C-7.66 76 -8.32 76 -9 76 C-9 76.99 -9 77.98 -9 79 C-13.01804691 79.84098656 -16.01803543 80.05404945 -20 79 C-19.40562282 74.1459197 -18.37819352 69.68585795 -17 65 C-16.64679688 63.76378906 -16.29359375 62.52757812 -15.9296875 61.25390625 C-14.953125 57.8359375 -13.9765625 54.41796875 -13 51 C-20.036095 52.18852956 -24.11927874 55.99726071 -29 61 C-30.5159375 62.2065625 -30.5159375 62.2065625 -32.0625 63.4375 C-35.07955215 66.06939656 -36.85774698 68.64380361 -39 72 C-42.31679665 76.26445283 -45.8440116 77.20362951 -51 78 C-54 78.125 -54 78.125 -56 78 C-56.3200444 73.30601554 -55.80726988 71.63905354 -53 68 C-52.50826838 66.55258659 -52.0536836 65.09232271 -51.625 63.625 C-50.21775978 59.07392523 -48.17341742 56.50746136 -45 53 C-44.67 52.01 -44.34 51.02 -44 50 C-43.2575 50 -42.515 50 -41.75 50 C-38.4343409 48.79430578 -38.27100343 48.08212045 -36.8125 45 C-36.50957031 44.278125 -36.20664062 43.55625 -35.89453125 42.8125 C-35 41 -35 41 -33 40 C-32.690625 39.0409375 -32.690625 39.0409375 -32.375 38.0625 C-30.52921853 35.2938278 -28.59080054 35.14770508 -25.44140625 34.50390625 C-22.58884962 33.91513856 -19.80643464 33.15355929 -17 32.375 C-16.05125 32.11460938 -15.1025 31.85421875 -14.125 31.5859375 C-13.073125 31.29589844 -13.073125 31.29589844 -12 31 C-11.85884766 30.05447266 -11.85884766 30.05447266 -11.71484375 29.08984375 C-11.47894531 28.40019531 -11.24304688 27.71054687 -11 27 C-9.865625 26.525625 -8.73125 26.05125 -7.5625 25.5625 C-3.97534254 24.40705391 -3.97534254 24.40705391 -2.84765625 22.015625 C-1.65685007 17.77920855 -1.27287408 13.56085363 -0.875 9.1875 C-0.78863281 8.30384766 -0.70226562 7.42019531 -0.61328125 6.50976562 C-0.40221556 4.34047942 -0.20020574 2.17031542 0 0 Z " fill="#F07802" transform="translate(94,8)"/>
<path d="M0 0 C-0.62419898 2.3543816 -1.24933923 4.70850682 -1.875 7.0625 C-2.04902344 7.71927734 -2.22304687 8.37605469 -2.40234375 9.05273438 C-3.55416101 13.38271409 -4.75810591 17.69476714 -6 22 C-6.20882812 22.73089844 -6.41765625 23.46179688 -6.6328125 24.21484375 C-7.08854167 25.80989583 -7.54427083 27.40494792 -8 29 C-4.37 29 -0.74 29 3 29 C3 28.01 3 27.02 3 26 C3.66 26 4.32 26 5 26 C6.9953266 19.60363388 8.73016104 13.18947985 10.25390625 6.6640625 C10.93585325 4.22904755 11.78169617 2.20654169 13 0 C14.8125 0.0625 14.8125 0.0625 17 1 C18.4375 3.9375 18.4375 3.9375 19.1484375 5.83203125 C20.46932916 9.19485176 22.16916673 12.35793885 23.81640625 15.5703125 C27 22.10561056 27 22.10561056 27 26 C27.57234375 26.10183594 28.1446875 26.20367187 28.734375 26.30859375 C31.40275646 27.12291016 33.05965688 28.34673122 35.25 30.0625 C35.95640625 30.61035156 36.6628125 31.15820312 37.390625 31.72265625 C38.18726562 32.35494141 38.18726562 32.35494141 39 33 C38.7834375 33.61488281 38.566875 34.22976562 38.34375 34.86328125 C38.0653125 35.67152344 37.786875 36.47976562 37.5 37.3125 C37.2215625 38.11300781 36.943125 38.91351563 36.65625 39.73828125 C35.40823005 44.03949287 36.62968408 46.72720483 38.21875 50.7734375 C38.9775278 52.93595423 39.44973151 55.00098397 39.875 57.25 C41.33712643 64.33947015 44.4005306 71.02167768 47.8125 77.375 C49.19514259 80.43136782 49.23699262 82.68210333 49 86 C47.68 86.33 46.36 86.66 45 87 C45 87.66 45 88.32 45 89 C44.44570312 89.26554687 43.89140625 89.53109375 43.3203125 89.8046875 C42.59585938 90.15789062 41.87140625 90.51109375 41.125 90.875 C40.40570313 91.22304687 39.68640625 91.57109375 38.9453125 91.9296875 C36.84864981 92.96557543 36.84864981 92.96557543 35 95 C30.62568209 95.49655998 26.21172695 95.38034946 21.8125 95.375 C20.54140381 95.37411377 19.27030762 95.37322754 17.96069336 95.37231445 C6.69637365 95.23049359 -3.32653171 94.2173857 -13 88 C-15.08749458 89.89141488 -17.1699937 91.78787968 -19.25 93.6875 C-19.83652344 94.21794922 -20.42304687 94.74839844 -21.02734375 95.29492188 C-21.60097656 95.82021484 -22.17460938 96.34550781 -22.765625 96.88671875 C-23.28930664 97.36326904 -23.81298828 97.83981934 -24.35253906 98.33081055 C-26.39882661 100.40408677 -28.1802421 102.72530262 -30 105 C-30.33 100.38 -30.66 95.76 -31 91 C-31.99 90.67 -32.98 90.34 -34 90 C-36.1875 88.0625 -36.1875 88.0625 -38 86 C-38 85.34 -38 84.68 -38 84 C-38.66 84 -39.32 84 -40 84 C-40.433125 83.0409375 -40.433125 83.0409375 -40.875 82.0625 C-41.82823451 79.84793921 -41.82823451 79.84793921 -44 79 C-44.33 78.01 -44.66 77.02 -45 76 C-47.296537 74.8517315 -48.58313167 74.88438825 -51.1328125 74.90234375 C-51.93847656 74.90556641 -52.74414062 74.90878906 -53.57421875 74.91210938 C-54.41597656 74.92048828 -55.25773437 74.92886719 -56.125 74.9375 C-57.39923828 74.94426758 -57.39923828 74.94426758 -58.69921875 74.95117188 C-60.79950909 74.96297126 -62.8997633 74.98090694 -65 75 C-64.67 74.01 -64.34 73.02 -64 72 C-63.34 72 -62.68 72 -62 72 C-62 71.34 -62 70.68 -62 70 C-60.3203125 68.5625 -60.3203125 68.5625 -58.125 67 C-53.66724576 64.13450793 -53.66724576 64.13450793 -51.56103516 59.57666016 C-51.47128418 58.57425293 -51.3815332 57.5718457 -51.2890625 56.5390625 C-51.17820312 55.42660156 -51.06734375 54.31414062 -50.953125 53.16796875 C-50.73802802 50.84543355 -50.5269461 48.52252222 -50.3203125 46.19921875 C-49.52842686 38.34335322 -47.81196431 31.3782586 -45 24 C-44.67 25.32 -44.34 26.64 -44 28 C-41.87198777 27.57739475 -39.74761548 27.13642627 -37.625 26.6875 C-36.44164063 26.44386719 -35.25828125 26.20023438 -34.0390625 25.94921875 C-30.72074996 25.26236391 -30.72074996 25.26236391 -29 22 C-28.34 22 -27.68 22 -27 22 C-26.72929688 21.41347656 -26.45859375 20.82695313 -26.1796875 20.22265625 C-23.64170162 15.44082192 -19.64603816 10.82080888 -15 8 C-14.34 8 -13.68 8 -13 8 C-12.67 7.01 -12.34 6.02 -12 5 C-10.546875 3.61328125 -10.546875 3.61328125 -8.75 2.3125 C-8.16734375 1.87550781 -7.5846875 1.43851563 -6.984375 0.98828125 C-4.53196948 -0.23309394 -2.7043563 -0.17251928 0 0 Z " fill="#71699E" transform="translate(82,58)"/>
<path d="M0 0 C1.65 0 3.3 0 5 0 C5.67812114 1.8708878 6.3419946 3.74694293 7 5.625 C7.37125 6.66914063 7.7425 7.71328125 8.125 8.7890625 C9.00483564 12.01774506 9.15988262 14.67244294 9 18 C9.66 18 10.32 18 11 18 C11.33386719 19.12148438 11.66773437 20.24296875 12.01171875 21.3984375 C12.77738121 23.35967247 12.77738121 23.35967247 14 25 C16.84557195 25.92473331 18.90376654 26.37183734 21.8125 26.625 C28.24218639 27.26500565 31.24681791 28.54817239 36 33 C37.86012886 34.17524281 37.86012886 34.17524281 39.5625 35 C43.61667474 37.35879258 46.408069 40.20907763 49.5 43.6875 C51.46437953 45.40633209 53.57695913 46.07562564 56 47 C54.3468703 60.24678931 54.3468703 60.24678931 50 66 C47.75 66.9375 47.75 66.9375 46 67 C45.649375 66.278125 45.29875 65.55625 44.9375 64.8125 C42.77023251 61.66646654 40.60677692 60.13515635 37.42578125 58.11328125 C36.95527344 57.74589844 36.48476562 57.37851563 36 57 C36 56.34 36 55.68 36 55 C34.824375 54.814375 34.824375 54.814375 33.625 54.625 C31 54 31 54 29 52 C27.14640431 51.23740958 25.26749402 50.53517233 23.375 49.875 C22.37210937 49.52179687 21.36921875 49.16859375 20.3359375 48.8046875 C19.56507812 48.53914063 18.79421875 48.27359375 18 48 C18.3609375 49.02480469 18.721875 50.04960938 19.09375 51.10546875 C19.5629013 52.46600752 20.03162901 53.82669241 20.5 55.1875 C20.85771484 56.19780273 20.85771484 56.19780273 21.22265625 57.22851562 C22.48727592 60.93204467 23.30451221 64.07940536 23 68 C23.66 68 24.32 68 25 68 C25 69.32 25 70.64 25 72 C25.66 72 26.32 72 27 72 C27.33 72.66 27.66 73.32 28 74 C30.32156597 74.40729228 32.6568787 74.74438677 35 75 C33.625 77.5 33.625 77.5 32 80 C31.34 80 30.68 80 30 80 C29.505 81.485 29.505 81.485 29 83 C27.60231765 82.40012326 26.20694345 81.7948677 24.8125 81.1875 C24.03519531 80.85105469 23.25789063 80.51460938 22.45703125 80.16796875 C21.64621094 79.78253906 20.83539063 79.39710937 20 79 C19.13890625 78.61070313 18.2778125 78.22140625 17.390625 77.8203125 C14.1512782 75.35375105 13.20898857 72.41502633 11.9375 68.6875 C10.13898021 63.59421287 8.11393867 59.48039278 5 55 C4.7215625 53.8553125 4.7215625 53.8553125 4.4375 52.6875 C4.293125 52.130625 4.14875 51.57375 4 51 C3.01 50.67 2.02 50.34 1 50 C0.81050781 50.78117187 0.81050781 50.78117187 0.6171875 51.578125 C-1.49419699 59.86330465 -3.82313297 68.05783242 -7 76 C-7.66 76 -8.32 76 -9 76 C-9 76.99 -9 77.98 -9 79 C-13.01804691 79.84098656 -16.01803543 80.05404945 -20 79 C-19.40562282 74.1459197 -18.37819352 69.68585795 -17 65 C-16.64679688 63.76378906 -16.29359375 62.52757812 -15.9296875 61.25390625 C-14.953125 57.8359375 -13.9765625 54.41796875 -13 51 C-20.036095 52.18852956 -24.11927874 55.99726071 -29 61 C-30.5159375 62.2065625 -30.5159375 62.2065625 -32.0625 63.4375 C-35.07955215 66.06939656 -36.85774698 68.64380361 -39 72 C-42.31679665 76.26445283 -45.8440116 77.20362951 -51 78 C-54 78.125 -54 78.125 -56 78 C-56.3200444 73.30601554 -55.80726988 71.63905354 -53 68 C-52.50826838 66.55258659 -52.0536836 65.09232271 -51.625 63.625 C-50.21775978 59.07392523 -48.17341742 56.50746136 -45 53 C-44.67 52.01 -44.34 51.02 -44 50 C-43.2575 50 -42.515 50 -41.75 50 C-38.4343409 48.79430578 -38.27100343 48.08212045 -36.8125 45 C-36.50957031 44.278125 -36.20664062 43.55625 -35.89453125 42.8125 C-35 41 -35 41 -33 40 C-32.690625 39.0409375 -32.690625 39.0409375 -32.375 38.0625 C-30.52921853 35.2938278 -28.59080054 35.14770508 -25.44140625 34.50390625 C-22.58884962 33.91513856 -19.80643464 33.15355929 -17 32.375 C-16.05125 32.11460938 -15.1025 31.85421875 -14.125 31.5859375 C-13.073125 31.29589844 -13.073125 31.29589844 -12 31 C-11.85884766 30.05447266 -11.85884766 30.05447266 -11.71484375 29.08984375 C-11.47894531 28.40019531 -11.24304688 27.71054687 -11 27 C-9.865625 26.525625 -8.73125 26.05125 -7.5625 25.5625 C-3.97534254 24.40705391 -3.97534254 24.40705391 -2.84765625 22.015625 C-1.65685007 17.77920855 -1.27287408 13.56085363 -0.875 9.1875 C-0.78863281 8.30384766 -0.70226562 7.42019531 -0.61328125 6.50976562 C-0.40221556 4.34047942 -0.20020574 2.17031542 0 0 Z " fill="#8DBED0" transform="translate(94,8)"/>
<path d="M0 0 C4.01579112 3.48035231 4.83062203 9.09742111 5.8125 14.125 C7.3321696 21.25297407 10.37575725 27.97554799 13.8125 34.375 C15.19514259 37.43136782 15.23699262 39.68210333 15 43 C13.02 43.495 13.02 43.495 11 44 C11 44.66 11 45.32 11 46 C10.16855469 46.39832031 10.16855469 46.39832031 9.3203125 46.8046875 C8.59585938 47.15789062 7.87140625 47.51109375 7.125 47.875 C6.40570313 48.22304687 5.68640625 48.57109375 4.9453125 48.9296875 C2.84864981 49.96557543 2.84864981 49.96557543 1 52 C-3.37429957 52.4965579 -7.78829 52.38063099 -12.1875 52.375 C-14.09414429 52.37258301 -14.09414429 52.37258301 -16.03930664 52.37011719 C-26.90354804 52.22847309 -38.73289122 52.01569402 -47 44 C-49.93465855 36.74800723 -46.69386716 29.21229608 -43.96484375 22.42578125 C-41.19862226 16.30258588 -37.53953642 10.94265217 -32 7 C-30.68 7 -29.36 7 -28 7 C-28 6.34 -28 5.68 -28 5 C-25.79290017 4.34996375 -23.58426108 3.70515255 -21.375 3.0625 C-20.14523438 2.70285156 -18.91546875 2.34320313 -17.6484375 1.97265625 C-11.68874695 0.38383082 -6.145205 -0.50370533 0 0 Z " fill="#2C2C2A" transform="translate(116,101)"/>
<path d="M0 0 C4.35257596 0.65948121 8.00442214 2.17745571 12 4 C13.03125 4.45375 14.0625 4.9075 15.125 5.375 C18.36634259 7.2070632 20.47158743 9.27709416 23 12 C23.928125 12.886875 24.85625 13.77375 25.8125 14.6875 C28 17 28 17 28 19 C29.32 18.67 30.64 18.34 32 18 C32.185625 17.1646875 32.185625 17.1646875 32.375 16.3125 C33.06181978 13.7712668 33.99195305 11.43117205 35 9 C35.37125 8.071875 35.7425 7.14375 36.125 6.1875 C36.41375 5.465625 36.7025 4.74375 37 4 C40.83078469 5.56069006 43.14143762 8.06814114 46 11 C48.91765 12.9451 50.62537285 13.45276317 54 14 C52.86464474 16.45993639 51.60610221 18.57178711 50.0625 20.8125 C47.90448485 23.95122918 47.90448485 23.95122918 46.5 27.5 C45 31 45 31 42.9375 34.0625 C40.99833651 37.00252207 39.96304951 39.62932672 39 43 C38.67 43 38.34 43 38 43 C38 39.04 38 35.08 38 31 C35.62089771 31.73855084 33.24735537 32.49031317 30.875 33.25 C30.20984375 33.45496094 29.5446875 33.65992188 28.859375 33.87109375 C24.33936424 35.33345017 20.84147431 37.19967293 17 40 C17.15597656 40.59167969 17.31195313 41.18335938 17.47265625 41.79296875 C17.66730469 42.58316406 17.86195313 43.37335938 18.0625 44.1875 C18.35833984 45.35345703 18.35833984 45.35345703 18.66015625 46.54296875 C19.05634218 49.40734749 18.91172293 51.25161785 18 54 C16.1875 56.01953125 16.1875 56.01953125 14 57.8125 C12.9171875 58.71935547 12.9171875 58.71935547 11.8125 59.64453125 C10 61 10 61 9 61 C8.80664062 60.18015625 8.61328125 59.3603125 8.4140625 58.515625 C8.15367188 57.43796875 7.89328125 56.3603125 7.625 55.25 C7.24214844 53.64898437 7.24214844 53.64898437 6.8515625 52.015625 C6.12945722 49.05557223 6.12945722 49.05557223 4.81640625 46.76171875 C4.54699219 46.18035156 4.27757813 45.59898438 4 45 C5.3125 42.5625 5.3125 42.5625 7 40 C8.09797774 36.40719467 8.09797774 36.40719467 7 33 C8.32 33.33 9.64 33.66 11 34 C12.65 32.02 14.3 30.04 16 28 C13.69 27.34 11.38 26.68 9 26 C9 25.34 9 24.68 9 24 C8.34 24 7.68 24 7 24 C7 22.68 7 21.36 7 20 C6.34 20 5.68 20 5 20 C4.16247839 17.04283593 3.33069969 14.084087 2.5 11.125 C2.26152344 10.28324219 2.02304688 9.44148438 1.77734375 8.57421875 C1.55175781 7.76855469 1.32617188 6.96289062 1.09375 6.1328125 C0.88427734 5.38918457 0.67480469 4.64555664 0.45898438 3.87939453 C0 2 0 2 0 0 Z " fill="#F2E1B3" transform="translate(112,56)"/>
<path d="M0 0 C1.89551022 -0.05441656 3.7914792 -0.09298035 5.6875 -0.125 C6.74324219 -0.14820313 7.79898438 -0.17140625 8.88671875 -0.1953125 C14.5862017 0.16224603 17.67352245 2.49761341 22 6 C23.15664905 6.6636074 24.32402056 7.30878372 25.5 7.9375 C29.55560768 10.17690076 32.43741257 13.24208915 35.5 16.6875 C37.46437953 18.40633209 39.57695913 19.07562564 42 20 C40.3468703 33.24678931 40.3468703 33.24678931 36 39 C33.75 39.9375 33.75 39.9375 32 40 C31.649375 39.278125 31.29875 38.55625 30.9375 37.8125 C28.77023251 34.66646654 26.60677692 33.13515635 23.42578125 31.11328125 C22.72001953 30.56220703 22.72001953 30.56220703 22 30 C22 29.34 22 28.68 22 28 C21.21625 27.87625 20.4325 27.7525 19.625 27.625 C17 27 17 27 15 25 C13.14640431 24.23740958 11.26749402 23.53517233 9.375 22.875 C7.87066406 22.34519531 7.87066406 22.34519531 6.3359375 21.8046875 C5.56507812 21.53914063 4.79421875 21.27359375 4 21 C4.54140625 22.53720703 4.54140625 22.53720703 5.09375 24.10546875 C5.5629013 25.46600752 6.03162901 26.82669241 6.5 28.1875 C6.73847656 28.86103516 6.97695312 29.53457031 7.22265625 30.22851562 C8.48727592 33.93204467 9.30451221 37.07940536 9 41 C9.66 41 10.32 41 11 41 C11 42.32 11 43.64 11 45 C11.66 45 12.32 45 13 45 C13.33 45.66 13.66 46.32 14 47 C16.32156597 47.40729228 18.6568787 47.74438677 21 48 C19.625 50.5 19.625 50.5 18 53 C17.34 53 16.68 53 16 53 C15.67 53.99 15.34 54.98 15 56 C11.98194033 54.7046672 8.98881504 53.36129223 6 52 C4.576875 51.38125 4.576875 51.38125 3.125 50.75 C-1.06465771 47.29969365 -1.79657147 42.50028541 -2.5 37.3125 C-2.28279228 31.27895219 0.40036021 25.36471121 3 20 C3.66 19.67 4.32 19.34 5 19 C3.64746536 12.54945018 1.96939767 6.28894321 0 0 Z " fill="#F0DCDE" transform="translate(108,35)"/>
<path d="M0 0 C-0.62419898 2.3543816 -1.24933923 4.70850682 -1.875 7.0625 C-2.04902344 7.71927734 -2.22304687 8.37605469 -2.40234375 9.05273438 C-3.22806836 12.15684725 -4.07217217 15.25186615 -4.95703125 18.33984375 C-5.53090876 20.35378843 -6.09333662 22.37157189 -6.60351562 24.40258789 C-11.03723515 41.90180275 -11.03723515 41.90180275 -16 45.890625 C-22.30873419 49.43184844 -28.76422699 51.11433501 -36 51 C-36.60637877 40.69156093 -34.08683988 30.94582187 -29 22 C-28.34 22 -27.68 22 -27 22 C-26.72929688 21.41347656 -26.45859375 20.82695313 -26.1796875 20.22265625 C-23.64170162 15.44082192 -19.64603816 10.82080888 -15 8 C-14.34 8 -13.68 8 -13 8 C-12.67 7.01 -12.34 6.02 -12 5 C-10.546875 3.61328125 -10.546875 3.61328125 -8.75 2.3125 C-8.16734375 1.87550781 -7.5846875 1.43851563 -6.984375 0.98828125 C-4.53196948 -0.23309394 -2.7043563 -0.17251928 0 0 Z " fill="#313634" transform="translate(82,58)"/>
<path d="M0 0 C-0.41588092 2.98047995 -0.85439685 5.64509232 -2 8.4375 C-3.24905916 11.63821409 -3.74182223 14.57914451 -4 18 C-3.34 18.66 -2.68 19.32 -2 20 C-2.56847656 20.4125 -3.13695312 20.825 -3.72265625 21.25 C-9.76256251 25.76732555 -14.871469 30.61230792 -19.26171875 36.76953125 C-22.11928425 40.67138979 -24.46928163 41.89569728 -29.0625 42.765625 C-31.39562564 43.04785794 -33.6536909 43.14664432 -36 43 C-36.3200444 38.30601554 -35.80726988 36.63905354 -33 33 C-32.50826838 31.55258659 -32.0536836 30.09232271 -31.625 28.625 C-30.21775978 24.07392523 -28.17341742 21.50746136 -25 18 C-24.67 17.01 -24.34 16.02 -24 15 C-23.2575 15 -22.515 15 -21.75 15 C-18.4343409 13.79430578 -18.27100343 13.08212045 -16.8125 10 C-16.50957031 9.278125 -16.20664062 8.55625 -15.89453125 7.8125 C-15 6 -15 6 -13 5 C-12.690625 4.0409375 -12.690625 4.0409375 -12.375 3.0625 C-10.42347693 0.13521539 -8.29173304 -0.02529602 -4.97265625 -0.80078125 C-3 -1 -3 -1 0 0 Z " fill="#53F0CF" transform="translate(74,43)"/>
<path d="M0 0 C0.74083297 32.50167191 0.74083297 32.50167191 -6 43 C-8.45672466 42.02551631 -9.75402512 41.39919155 -11.16015625 39.1171875 C-11.45792969 38.37726563 -11.75570312 37.63734375 -12.0625 36.875 C-12.39378906 36.06289062 -12.72507813 35.25078125 -13.06640625 34.4140625 C-13.37449219 33.61742187 -13.68257812 32.82078125 -14 32 C-14.25652344 31.36835937 -14.51304687 30.73671875 -14.77734375 30.0859375 C-16.43762273 25.86793143 -17.84579235 21.55880155 -19.25 17.25 C-19.78367188 15.61804688 -19.78367188 15.61804688 -20.328125 13.953125 C-21.30725209 9.64951987 -21.30725209 9.64951987 -20 7 C-18.109375 5.5859375 -18.109375 5.5859375 -15.75 4.375 C-14.93402344 3.95605469 -14.11804688 3.53710938 -13.27734375 3.10546875 C-12.52582031 2.74066406 -11.77429688 2.37585938 -11 2 C-9.6696875 1.3503125 -9.6696875 1.3503125 -8.3125 0.6875 C-5.47747179 -0.15534623 -2.94410457 -0.04430253 0 0 Z " fill="#33332E" transform="translate(149,88)"/>
<path d="M0 0 C0 0.99 0 1.98 0 3 C-1.19625 3.556875 -2.3925 4.11375 -3.625 4.6875 C-7.63849547 6.69069597 -10.68136969 8.99007948 -14 12 C-14.5775 12.45375 -15.155 12.9075 -15.75 13.375 C-17.73395357 15.95413965 -18.23514176 18.8817318 -19 22 C-16.36 22 -13.72 22 -11 22 C-11.42049683 26.90579632 -13.47843242 28.7185393 -17 32 C-18.71642761 33.96296057 -20.35352044 35.97718225 -22 38 C-21.67 38.33 -21.34 38.66 -21 39 C-20.01 38.505 -20.01 38.505 -19 38 C-19.67883043 41.11547441 -20.74106902 43.85137721 -22.0625 46.75 C-22.42472656 47.54921875 -22.78695312 48.3484375 -23.16015625 49.171875 C-23.43730469 49.77515625 -23.71445313 50.3784375 -24 51 C-24.99 51 -25.98 51 -27 51 C-27 51.66 -27 52.32 -27 53 C-28.75 54.5078125 -28.75 54.5078125 -31 56.125 C-31.7425 56.66382813 -32.485 57.20265625 -33.25 57.7578125 C-33.8275 58.16773438 -34.405 58.57765625 -35 59 C-34.80083984 58.02740234 -34.80083984 58.02740234 -34.59765625 57.03515625 C-32.45319394 45.12321595 -32.34712974 33.07193075 -32 21 C-32.66 20.67 -33.32 20.34 -34 20 C-33.01 20 -32.02 20 -31 20 C-30.67 22.31 -30.34 24.62 -30 27 C-26.13110968 23.71144323 -23.81983819 19.10083537 -22 14.4375 C-20.72199368 11.3223596 -18.91901791 8.75858825 -17 6 C-16.34 5.01 -15.68 4.02 -15 3 C-16.65 3 -18.3 3 -20 3 C-20 2.67 -20 2.34 -20 2 C-17.41703099 1.66361334 -14.83368737 1.3307835 -12.25 1 C-11.52039063 0.90460938 -10.79078125 0.80921875 -10.0390625 0.7109375 C-6.65143196 0.27978452 -3.42145141 0 0 0 Z " fill="#EE8B2C" transform="translate(181,67)"/>
<path d="M0 0 C1.8125 0.0625 1.8125 0.0625 4 1 C5.4375 3.9375 5.4375 3.9375 6.14453125 5.82421875 C7.49396683 9.25634487 9.2335825 12.48614281 10.9140625 15.765625 C13.03159332 20.12255892 13.65999261 24.20534782 13 29 C10.5654686 32.91642007 6.84797857 34.16093577 2.59375 35.47265625 C-1.9248684 36.39135126 -6.41394616 36.23144571 -11 36 C-10.00326102 29.83595631 -8.45445301 24.3953134 -6.01171875 18.65625 C-4.52307643 14.74784546 -3.62494492 10.73946028 -2.7109375 6.6640625 C-2.05635971 4.21119408 -1.22668578 2.21222819 0 0 Z " fill="#343836" transform="translate(95,58)"/>
<path d="M0 0 C4.35257596 0.65948121 8.00442214 2.17745571 12 4 C13.03125 4.45375 14.0625 4.9075 15.125 5.375 C18.36634259 7.2070632 20.47158743 9.27709416 23 12 C23.9075 12.845625 24.815 13.69125 25.75 14.5625 C27.98665106 16.98553865 28.3995319 17.91281075 29 21 C22.56479472 24.64079463 17.41216681 26.64134677 10 27 C9.67 26.01 9.34 25.02 9 24 C8.34 24 7.68 24 7 24 C7 22.68 7 21.36 7 20 C6.34 20 5.68 20 5 20 C4.16247839 17.04283593 3.33069969 14.084087 2.5 11.125 C2.26152344 10.28324219 2.02304688 9.44148438 1.77734375 8.57421875 C1.55175781 7.76855469 1.32617188 6.96289062 1.09375 6.1328125 C0.88427734 5.38918457 0.67480469 4.64555664 0.45898438 3.87939453 C0 2 0 2 0 0 Z " fill="#383B38" transform="translate(112,56)"/>
<path d="M0 0 C2.63286594 2.63286594 2.61501173 4.19068193 2.9375 7.875 C2.91224325 12.4313176 2.31731055 15.0608926 -0.76171875 18.3515625 C-3.48191713 20.92579138 -6.35990931 23.2866518 -9.35253906 25.53710938 C-11.56860099 27.42185199 -11.56860099 27.42185199 -15 32 C-15.33 27.38 -15.66 22.76 -16 18 C-16.99 17.67 -17.98 17.34 -19 17 C-21.1875 15.125 -21.1875 15.125 -23 13 C-23 12.01 -23 11.02 -23 10 C-19.04 10 -15.08 10 -11 10 C-11 9.01 -11 8.02 -11 7 C-11.66 6.67 -12.32 6.34 -13 6 C-9.535 5.505 -9.535 5.505 -6 5 C-5.67 4.01 -5.34 3.02 -5 2 C-3.35 2 -1.7 2 0 2 C0 1.34 0 0.68 0 0 Z " fill="#88939D" transform="translate(67,131)"/>
<path d="M0 0 C0.33 0.99 0.66 1.98 1 3 C1.66 3 2.32 3 3 3 C6.42857143 11.42857143 6.42857143 11.42857143 6 16 C6.66 16 7.32 16 8 16 C8 17.32 8 18.64 8 20 C8.66 20 9.32 20 10 20 C10.33 20.66 10.66 21.32 11 22 C13.32156597 22.40729228 15.6568787 22.74438677 18 23 C16.625 25.5 16.625 25.5 15 28 C14.34 28 13.68 28 13 28 C12.67 28.99 12.34 29.98 12 31 C8.98194033 29.7046672 5.98881504 28.36129223 3 27 C2.05125 26.5875 1.1025 26.175 0.125 25.75 C-3.57485629 22.70305953 -4.69166179 18.57751468 -5.25 13.91015625 C-5.38294988 9.58097591 -4.5995045 5.99876125 -3 2 C-2.01 2 -1.02 2 0 2 C0 1.34 0 0.68 0 0 Z " fill="#F0F0D4" transform="translate(111,60)"/>
<path d="M0 0 C0.19335938 0.69867188 0.38671875 1.39734375 0.5859375 2.1171875 C0.84632813 3.02726562 1.10671875 3.93734375 1.375 4.875 C1.63023437 5.77992187 1.88546875 6.68484375 2.1484375 7.6171875 C2.8604315 10.14569726 2.8604315 10.14569726 5 12 C5.81640625 13.8046875 5.81640625 13.8046875 6.5625 15.875 C6.81128906 16.55304688 7.06007812 17.23109375 7.31640625 17.9296875 C7.97478163 19.92362438 8.49071894 21.96287575 9 24 C4.05 25.485 4.05 25.485 -1 27 C-1 26.34 -1 25.68 -1 25 C-1.59296875 24.81695312 -2.1859375 24.63390625 -2.796875 24.4453125 C-6.01102606 22.33673822 -6.90937571 19.32915952 -8.25 15.875 C-8.518125 15.21628906 -8.78625 14.55757812 -9.0625 13.87890625 C-9.7204713 12.25747697 -10.36187627 10.62934259 -11 9 C-3.8 0 -3.8 0 0 0 Z " fill="#F1973A" transform="translate(132,109)"/>
<path d="M0 0 C1.051875 0.61875 2.10375 1.2375 3.1875 1.875 C6.05015677 3.51579108 8.89207246 4.86984453 12 6 C12 9.60352128 10.91409751 11.01400788 9 14 C8.67 14.66 8.34 15.32 8 16 C6.53984709 15.71758359 5.08190207 15.42373386 3.625 15.125 C2.40683594 14.88136719 2.40683594 14.88136719 1.1640625 14.6328125 C-1 14 -1 14 -3 12 C-6.02080135 11.68291229 -6.02080135 11.68291229 -9 13 C-11.21458911 16.60636646 -11.95291904 20.79149863 -12.875 24.875 C-14 28 -14 28 -16.625 29.4375 C-17.40875 29.623125 -18.1925 29.80875 -19 30 C-19.72736968 23.30819895 -17.67706744 18.57079963 -14 13 C-9.81506471 8.15667525 -5.14339344 3.8160661 0 0 Z " fill="#F1BD83" transform="translate(69,145)"/>
<path d="M0 0 C0.33 1.32 0.66 2.64 1 4 C1.60328125 3.855625 2.2065625 3.71125 2.828125 3.5625 C3.62734375 3.376875 4.4265625 3.19125 5.25 3 C6.43335938 2.7215625 6.43335938 2.7215625 7.640625 2.4375 C10 2 10 2 14 2 C13.86722656 2.52078125 13.73445313 3.0415625 13.59765625 3.578125 C12.8449883 6.62815201 12.14166329 9.68842047 11.4375 12.75 C11.16808594 13.92046875 10.89867187 15.0909375 10.62109375 16.296875 C10.41613281 17.18890625 10.21117187 18.0809375 10 19 C5.33493937 19.88418405 1.68713196 19.91904548 -3 19 C-3.33 18.67 -3.66 18.34 -4 18 C-3.94338874 11.65953874 -2.21203894 5.8848583 0 0 Z " fill="#6D7C98" transform="translate(37,82)"/>
<path d="M0 0 C0.51949219 0.42152344 1.03898438 0.84304687 1.57421875 1.27734375 C6.70146308 5.43428979 6.70146308 5.43428979 13 7 C11.86464474 9.45993639 10.60610221 11.57178711 9.0625 13.8125 C6.90448485 16.95122918 6.90448485 16.95122918 5.5 20.5 C4 24 4 24 1.9375 27.0625 C-0.00166349 30.00252207 -1.03695049 32.62932672 -2 36 C-2.33 36 -2.66 36 -3 36 C-3 32.04 -3 28.08 -3 24 C-5.97 24.66 -8.94 25.32 -12 26 C-11 24 -11 24 -8.6875 23.1875 C-3.55386864 20.91915126 -1.02329862 16.05824655 1 11 C1.27184991 7.05817633 1.02523612 3.78675923 0 0 Z " fill="#F3B37A" transform="translate(153,63)"/>
<path d="M0 0 C0 0.99 0 1.98 0 3 C-1.19625 3.556875 -2.3925 4.11375 -3.625 4.6875 C-7.63849547 6.69069597 -10.68136969 8.99007948 -14 12 C-14.86625 12.6496875 -14.86625 12.6496875 -15.75 13.3125 C-17.87969137 16.18758335 -18.26105788 19.5326562 -19 23 C-19.99 23 -20.98 23 -22 23 C-23.35386936 24.65002828 -24.68678142 26.3174387 -26 28 C-26.99 28.33 -27.98 28.66 -29 29 C-29 25.41949878 -28.16840155 24.48967298 -26.125 21.625 C-23.89721606 18.49318779 -22.38311941 15.57983848 -21 12 C-19.70427617 9.97543152 -18.3726682 7.97321053 -17 6 C-16.34 5.01 -15.68 4.02 -15 3 C-16.65 3 -18.3 3 -20 3 C-20 2.67 -20 2.34 -20 2 C-17.41703099 1.66361334 -14.83368737 1.3307835 -12.25 1 C-11.52039063 0.90460938 -10.79078125 0.80921875 -10.0390625 0.7109375 C-6.65143196 0.27978452 -3.42145141 0 0 0 Z " fill="#F39A4B" transform="translate(181,67)"/>
<path d="M0 0 C-0.7883609 1.77230751 -1.58081347 3.54279534 -2.375 5.3125 C-2.81585938 6.29863281 -3.25671875 7.28476563 -3.7109375 8.30078125 C-5 11 -5 11 -7 14 C-11.44811632 15.38547885 -15.31712702 16.29267956 -20 16 C-20.44090207 12.98716918 -20.48171258 10.81839342 -18.91015625 8.1484375 C-13.76120319 1.7293183 -8.27187972 -0.50644162 0 0 Z " fill="#7FF1D1" transform="translate(58,70)"/>
<path d="M0 0 C-0.41588092 2.98047995 -0.85439685 5.64509232 -2 8.4375 C-3.2313074 11.59272521 -3.60557171 14.64735955 -4 18 C-4.66 18 -5.32 18 -6 18 C-6.33 18.99 -6.66 19.98 -7 21 C-8.65 21.33 -10.3 21.66 -12 22 C-12.10777074 17.04254583 -11.77740624 12.25906889 -11.21875 7.33203125 C-10.93773842 4.72662515 -10.93773842 4.72662515 -11 1 C-3.375 -1.125 -3.375 -1.125 0 0 Z " fill="#44F2DD" transform="translate(74,43)"/>
<path d="M0 0 C2.64 0.33 5.28 0.66 8 1 C8 1.66 8 2.32 8 3 C9.65 3 11.3 3 13 3 C13.20395079 6.67111414 12.76683472 8.79761207 11 12 C11 12.66 11 13.32 11 14 C9.08210287 13.71653722 7.16570817 13.4228972 5.25 13.125 C4.18265625 12.96257812 3.1153125 12.80015625 2.015625 12.6328125 C-0.67708871 12.06776118 -2.63572439 11.36577086 -5 10 C-3.99088542 8.27473958 -2.98177083 6.54947917 -1.97265625 4.82421875 C-0.86098753 2.86180445 -0.86098753 2.86180445 0 0 Z " fill="#F2802F" transform="translate(81,151)"/>
<path d="M0 0 C0.33 0.66 0.66 1.32 1 2 C1.66 2 2.32 2 3 2 C2.76400864 5.72192087 2.0360054 6.96208811 -0.58203125 9.71875 C-1.6488446 10.65733424 -2.72608349 11.58417782 -3.8125 12.5 C-4.88466522 13.42343301 -5.95373131 14.3504776 -7.01953125 15.28125 C-7.73266479 15.88549805 -7.73266479 15.88549805 -8.46020508 16.50195312 C-10.50032526 18.48676008 -12.22191674 20.77739592 -14 23 C-14.33 18.38 -14.66 13.76 -15 9 C-12.265625 7.53515625 -9.53125 6.0703125 -6.796875 4.60546875 C-4.36644588 3.21034812 -2.19212301 1.73804039 0 0 Z " fill="#A69982" transform="translate(66,140)"/>
<path d="M0 0 C0.33 0 0.66 0 1 0 C1.33 2.31 1.66 4.62 2 7 C3.98 4.69 5.96 2.38 8 0 C10.44986529 3.67479793 12.1658623 6.95436493 11.80078125 11.45703125 C10.81270412 14.59477862 9.52503544 15.74287274 7 17.8125 C6.278125 18.41707031 5.55625 19.02164063 4.8125 19.64453125 C3 21 3 21 2 21 C1.80664062 20.18015625 1.61328125 19.3603125 1.4140625 18.515625 C1.15367188 17.43796875 0.89328125 16.3603125 0.625 15.25 C0.36976562 14.18265625 0.11453125 13.1153125 -0.1484375 12.015625 C-0.86808689 9.0574495 -0.86808689 9.0574495 -2.18359375 6.78125 C-2.45300781 6.1934375 -2.72242187 5.605625 -3 5 C-1.6875 2.25 -1.6875 2.25 0 0 Z " fill="#F4CC89" transform="translate(119,96)"/>
<path d="M0 0 C2 2 2 2 2.4375 5.0625 C1.75271023 11.22560789 -1.15937547 15.76893997 -5.0625 20.5 C-7.09693975 22.07505013 -8.51874853 22.48663763 -11 23 C-11.33 23.66 -11.66 24.32 -12 25 C-13.99609375 26.0703125 -13.99609375 26.0703125 -16.4375 27.125 C-17.24058594 27.47820312 -18.04367188 27.83140625 -18.87109375 28.1953125 C-21 29 -21 29 -23 29 C-22.505 27.515 -22.505 27.515 -22 26 C-21.030625 25.71125 -20.06125 25.4225 -19.0625 25.125 C-18.051875 24.75375 -17.04125 24.3825 -16 24 C-15.29289322 22.35008418 -14.63437344 20.6792238 -14 19 C-11.36756528 15.95564395 -8.62746876 12.81373438 -5 11 C-4.06154746 9.17712703 -3.19564908 7.31635447 -2.375 5.4375 C-1.92898437 4.42558594 -1.48296875 3.41367188 -1.0234375 2.37109375 C-0.68570313 1.58863281 -0.34796875 0.80617188 0 0 Z " fill="#EEC89F" transform="translate(153,65)"/>
<path d="M0 0 C1.32 0.66 2.64 1.32 4 2 C3.52021714 8.83690573 2.13290241 14.00605697 -2.9375 18.8515625 C-4.30436445 20.03249319 -5.69003466 21.19217759 -7.09765625 22.32421875 C-9.06193003 24.05455438 -10.50344746 25.86006973 -12 28 C-12 25.66666667 -12 23.33333333 -12 21 C-12.33 20.34 -12.66 19.68 -13 19 C-12.38125 18.731875 -11.7625 18.46375 -11.125 18.1875 C-8.7004767 17.04443152 -8.7004767 17.04443152 -7 14 C-6.34 14 -5.68 14 -5 14 C-4.87625 13.443125 -4.7525 12.88625 -4.625 12.3125 C-3.93818022 9.7712668 -3.00804695 7.43117205 -2 5 C-1.62875 4.071875 -1.2575 3.14375 -0.875 2.1875 C-0.58625 1.465625 -0.2975 0.74375 0 0 Z " fill="#F1C4B5" transform="translate(149,60)"/>
<path d="M0 0 C-1.09698167 5.69139902 -2.54053077 10.74567937 -5 16 C-8.36370321 14.60812281 -10.21906331 13.20568604 -12 10 C-12.1875 6.75 -12.1875 6.75 -12 4 C-10.75539217 3.32332002 -9.50403104 2.65905281 -8.25 2 C-7.55390625 1.62875 -6.8578125 1.2575 -6.140625 0.875 C-4 0 -4 0 0 0 Z " fill="#2D3033" transform="translate(60,120)"/>
<path d="M0 0 C1.2065625 0.0309375 1.2065625 0.0309375 2.4375 0.0625 C1.30214474 2.52243639 0.04360221 4.63428711 -1.5 6.875 C-3.65801515 10.01372918 -3.65801515 10.01372918 -5.0625 13.5625 C-6.5625 17.0625 -6.5625 17.0625 -8.625 20.125 C-10.56416349 23.06502207 -11.59945049 25.69182672 -12.5625 29.0625 C-12.8925 29.0625 -13.2225 29.0625 -13.5625 29.0625 C-14.19518893 20.01153339 -14.19518893 20.01153339 -11.6875 16.25 C-10.98625 15.528125 -10.285 14.80625 -9.5625 14.0625 C-8.85002268 12.4148962 -8.18849617 10.74486471 -7.5625 9.0625 C-3.31884423 0.08094742 -3.31884423 0.08094742 0 0 Z " fill="#F7A761" transform="translate(163.5625,69.9375)"/>
<path d="M0 0 C0.33 1.32 0.66 2.64 1 4 C1.60328125 3.855625 2.2065625 3.71125 2.828125 3.5625 C3.62734375 3.376875 4.4265625 3.19125 5.25 3 C6.43335938 2.7215625 6.43335938 2.7215625 7.640625 2.4375 C10 2 10 2 14 2 C13.42415568 4.38564077 12.77772405 6.66682784 12 9 C11.15695313 9.13277344 10.31390625 9.26554687 9.4453125 9.40234375 C8.34960938 9.57894531 7.25390625 9.75554687 6.125 9.9375 C4.48917969 10.19853516 4.48917969 10.19853516 2.8203125 10.46484375 C0.06178454 10.85551159 0.06178454 10.85551159 -2 12 C-2.21278058 7.53160785 -1.59138085 4.17737474 0 0 Z " fill="#67AF9A" transform="translate(37,82)"/>
<path d="M0 0 C1.32 0 2.64 0 4 0 C3.67 1.32 3.34 2.64 3 4 C2.34 4 1.68 4 1 4 C-1.3498478 5.31049204 -3.67775578 6.64252948 -6 8 C-11.4119381 11.07737657 -11.4119381 11.07737657 -14.375 10.6875 C-14.91125 10.460625 -15.4475 10.23375 -16 10 C-16.33 8.68 -16.66 7.36 -17 6 C-14 5 -14 5 -11.75 4.5625 C-5.30199326 3.43741619 -5.30199326 3.43741619 0 0 Z " fill="#9AA391" transform="translate(64,138)"/>
<path d="M0 0 C1.32 0.33 2.64 0.66 4 1 C4 4.60352128 2.91409751 6.01400788 1 9 C0.67 9.66 0.34 10.32 0 11 C-1.46109063 10.74445946 -2.91888096 10.46999628 -4.375 10.1875 C-5.59316406 9.96126953 -5.59316406 9.96126953 -6.8359375 9.73046875 C-9 9 -9 9 -11 6 C-10.37351562 5.90203125 -9.74703125 5.8040625 -9.1015625 5.703125 C-7.87566406 5.47882813 -7.87566406 5.47882813 -6.625 5.25 C-5.81289062 5.11078125 -5.00078125 4.9715625 -4.1640625 4.828125 C-1.82290908 4.18250739 -1.82290908 4.18250739 -0.7109375 1.921875 C-0.47632812 1.28765625 -0.24171875 0.6534375 0 0 Z " fill="#E99757" transform="translate(77,150)"/>
<path d="M0 0 C2 2 2 2 2.4375 5.0625 C1.68554913 11.83005785 -1.808397 17.57752337 -7 22 C-7.99 21.67 -8.98 21.34 -10 21 C-9.401875 20.67 -8.80375 20.34 -8.1875 20 C-5.1238408 17.19894016 -4.05553951 13.96626968 -3 10 C-3 9.01 -3 8.02 -3 7 C-2.04346365 4.6485148 -1.04718798 2.31254012 0 0 Z " fill="#F4BE91" transform="translate(153,65)"/>
<path d="M0 0 C0.8971875 0.309375 0.8971875 0.309375 1.8125 0.625 C0.90757813 1.51251953 0.90757813 1.51251953 -0.015625 2.41796875 C-5.91760457 8.23733838 -5.91760457 8.23733838 -11.1875 14.625 C-11.1875 10.665 -11.1875 6.705 -11.1875 2.625 C-10.8575 3.285 -10.5275 3.945 -10.1875 4.625 C-8.5375 4.295 -6.8875 3.965 -5.1875 3.625 C-5.1875 2.965 -5.1875 2.305 -5.1875 1.625 C-2.1875 -0.375 -2.1875 -0.375 0 0 Z " fill="#AC8F65" transform="translate(63.1875,148.375)"/>
<path d="M0 0 C1.53125 1.18359375 1.53125 1.18359375 3 3 C3.04554981 6.51302871 2.2790918 9.73435413 1 13 C-1.625 14.625 -1.625 14.625 -4 15 C-4.50610724 8.92671312 -3.04157942 5.22771463 0 0 Z " fill="#EFA143" transform="translate(54,160)"/>
<path d="M0 0 C0 0.99 0 1.98 0 3 C-6 6 -6 6 -12 9 C-11.34 7.35 -10.68 5.7 -10 4 C-13.3 3.67 -16.6 3.34 -20 3 C-20 2.67 -20 2.34 -20 2 C-17.41703099 1.66361334 -14.83368737 1.3307835 -12.25 1 C-11.15558594 0.85691406 -11.15558594 0.85691406 -10.0390625 0.7109375 C-6.65143196 0.27978452 -3.42145141 0 0 0 Z " fill="#E28534" transform="translate(181,67)"/>
<path d="M0 0 C0.66 0.66 1.32 1.32 2 2 C2.33 1.67 2.66 1.34 3 1 C4.84891946 0.76636119 6.70488031 0.58696365 8.5625 0.4375 C9.57441406 0.35371094 10.58632813 0.26992187 11.62890625 0.18359375 C12.41136719 0.12300781 13.19382812 0.06242187 14 0 C14 0.99 14 1.98 14 3 C9.35855331 4.76054874 4.72224516 6.46527032 0 8 C0 5.36 0 2.72 0 0 Z " fill="#6F959C" transform="translate(34,91)"/>
<path d="M0 0 C1.65 0 3.3 0 5 0 C5.33 1.65 5.66 3.3 6 5 C5.34 5 4.68 5 4 5 C4.061875 5.78375 4.12375 6.5675 4.1875 7.375 C4.125625 8.24125 4.06375 9.1075 4 10 C3.01 10.66 2.02 11.32 1 12 C0.26393501 15.56769552 0.26393501 15.56769552 0 19 C-0.33 19 -0.66 19 -1 19 C-0.67 12.73 -0.34 6.46 0 0 Z " fill="#769DC2" transform="translate(94,8)"/>
<path d="M0 0 C0.66 0 1.32 0 2 0 C1.71382812 0.70511719 1.42765625 1.41023438 1.1328125 2.13671875 C-0.00476831 5.01205232 -1.07392356 7.90452186 -2.125 10.8125 C-2.65480469 12.27623047 -2.65480469 12.27623047 -3.1953125 13.76953125 C-3.46085938 14.50558594 -3.72640625 15.24164063 -4 16 C-4.66 14.68 -5.32 13.36 -6 12 C-6.99 12.66 -7.98 13.32 -9 14 C-8.40683971 10.0942676 -6.51378095 7.78196414 -4.0625 4.75 C-3.35222656 3.85796875 -2.64195312 2.9659375 -1.91015625 2.046875 C-1.27980469 1.37140625 -0.64945313 0.6959375 0 0 Z " fill="#DE7B17" transform="translate(167,94)"/>
<path d="M0 0 C1.32 0.66 2.64 1.32 4 2 C3.8125 3.875 3.8125 3.875 3 6 C-1.31297901 8.69561188 -6.09709597 8.19227075 -11 8 C-11 7.67 -11 7.34 -11 7 C-10.071875 6.731875 -9.14375 6.46375 -8.1875 6.1875 C-5.1688359 5.06289965 -4.0844857 4.29293427 -2 2 C-1.34 2 -0.68 2 0 2 C0 1.34 0 0.68 0 0 Z " fill="#F2A66C" transform="translate(73,148)"/>
<path d="M0 0 C0.33 1.32 0.66 2.64 1 4 C-0.47648938 5.33629746 -1.9562633 6.66896671 -3.4375 8 C-4.26121094 8.7425 -5.08492188 9.485 -5.93359375 10.25 C-8 12 -8 12 -9 12 C-9.5625 9.375 -9.5625 9.375 -9 6 C-6.2279485 3.60079753 -3.19327746 1.78671477 0 0 Z " fill="#F1B86E" transform="translate(130,105)"/>
<path d="M0 0 C0.99 0 1.98 0 3 0 C3 1.98 3 3.96 3 6 C2.34 6 1.68 6 1 6 C0.896875 6.78375 0.79375 7.5675 0.6875 8.375 C0 11 0 11 -3 13 C-3.6875 11.25 -3.6875 11.25 -4 9 C-3.03542166 7.64082143 -2.03145371 6.30915279 -1 5 C-0.28566879 2.35065178 -0.28566879 2.35065178 0 0 Z M-6 12 C-5.01 12.495 -5.01 12.495 -4 13 C-4.99 13.495 -4.99 13.495 -6 14 C-6 13.34 -6 12.68 -6 12 Z " fill="#F5CAC6" transform="translate(148,62)"/>
<path d="M0 0 C0 3 0 3 -1.53125 4.60546875 C-2.1809375 5.12753906 -2.830625 5.64960937 -3.5 6.1875 C-4.1496875 6.71730469 -4.799375 7.24710938 -5.46875 7.79296875 C-5.9740625 8.19128906 -6.479375 8.58960938 -7 9 C-3.535 8.505 -3.535 8.505 0 8 C0.33 8.66 0.66 9.32 1 10 C-1.88211302 10.96070434 -3.69850044 11.10581883 -6.6875 11.0625 C-7.89986328 11.04896484 -7.89986328 11.04896484 -9.13671875 11.03515625 C-10.05904297 11.01775391 -10.05904297 11.01775391 -11 11 C-10.67 10.01 -10.34 9.02 -10 8 C-9.34 8 -8.68 8 -8 8 C-8 7.34 -8 6.68 -8 6 C-6.25 4.4921875 -6.25 4.4921875 -4 2.875 C-3.2575 2.33617188 -2.515 1.79734375 -1.75 1.2421875 C-1.1725 0.83226563 -0.595 0.42234375 0 0 Z " fill="#554A7E" transform="translate(28,122)"/>
<path d="M0 0 C1.32 0 2.64 0 4 0 C3.67 1.32 3.34 2.64 3 4 C2.34 4 1.68 4 1 4 C0.443125 4.515625 -0.11375 5.03125 -0.6875 5.5625 C-4.00239093 7.62310787 -6.29608604 6.78352026 -10 6 C-9.67 5.34 -9.34 4.68 -9 4 C-6.66989091 3.32215008 -4.33640176 2.65583207 -2 2 C-1.34 1.34 -0.68 0.68 0 0 Z " fill="#9C9999" transform="translate(64,138)"/>
<path d="M0 0 C1.32 0.66 2.64 1.32 4 2 C3.38511719 2.47050781 2.77023438 2.94101562 2.13671875 3.42578125 C1.32847656 4.04839844 0.52023438 4.67101562 -0.3125 5.3125 C-1.11300781 5.92738281 -1.91351563 6.54226562 -2.73828125 7.17578125 C-4.62701374 8.69916307 -6.33077636 10.24434407 -8 12 C-8 8.67941669 -7.56938028 6.91456338 -6 4 C-3.4375 2.8125 -3.4375 2.8125 -1 2 C-0.67 1.34 -0.34 0.68 0 0 Z " fill="#49E3CE" transform="translate(68,61)"/>
<path d="M0 0 C0 3.51716303 -0.82445585 4.37121748 -3 7 C-1.35 6.67 0.3 6.34 2 6 C2 6.99 2 7.98 2 9 C-0.64 9.99 -3.28 10.98 -6 12 C-5.39294514 7.87202695 -4.06000669 4.62561178 -2 1 C-1.34 0.67 -0.68 0.34 0 0 Z " fill="#56DBB0" transform="translate(48,63)"/>
<path d="M0 0 C0 0.99 0 1.98 0 3 C-1 4 -2 5 -3 6 C-3 6.99 -3 7.98 -3 9 C-5 11.6875 -5 11.6875 -7 14 C-7 11.66666667 -7 9.33333333 -7 7 C-7.33 6.34 -7.66 5.68 -8 5 C-7.38125 4.71125 -6.7625 4.4225 -6.125 4.125 C-3.86674235 3.06279958 -3.86674235 3.06279958 -2 1 C-1.34 0.67 -0.68 0.34 0 0 Z " fill="#F0D5B8" transform="translate(144,74)"/>
<path d="M0 0 C0.33 0.99 0.66 1.98 1 3 C0.01 3.33 -0.98 3.66 -2 4 C-2.28875 4.598125 -2.5775 5.19625 -2.875 5.8125 C-4.35537318 8.69100341 -6.42278571 10.10099999 -9 12 C-8.67 10.35 -8.34 8.7 -8 7 C-7.01 6.67 -6.02 6.34 -5 6 C-4.3162955 4.67532254 -3.65035814 3.34136367 -3 2 C-2.01 1.34 -1.02 0.68 0 0 Z " fill="#F5DDA1" transform="translate(129,92)"/>
<path d="M0 0 C3.96 0 7.92 0 12 0 C12 0.33 12 0.66 12 1 C9.36 1.66 6.72 2.32 4 3 C4 5.31 4 7.62 4 10 C1.04816899 7.04816899 0.91336012 4.04488053 0 0 Z " fill="#D1D7D6" transform="translate(108,35)"/>
<path d="M0 0 C2 1.375 2 1.375 4 3 C4 3.66 4 4.32 4 5 C1.03 5.66 -1.94 6.32 -5 7 C-3.47793991 4.37098712 -2.15634036 2.15634036 0 0 Z " fill="#F3BB96" transform="translate(69,145)"/>
<path d="M0 0 C2 2 2 2 2.375 4.9375 C2 8 2 8 0 9.875 C-0.99 10.431875 -0.99 10.431875 -2 11 C-2.66 10.67 -3.32 10.34 -4 10 C-3.52449439 8.51965236 -3.04448784 7.04074979 -2.5625 5.5625 C-2.29566406 4.73878906 -2.02882812 3.91507812 -1.75390625 3.06640625 C-1 1 -1 1 0 0 Z " fill="#F6BBA1" transform="translate(153,65)"/>
<path d="M0 0 C1.98 1.65 3.96 3.3 6 5 C5.48967606 8.77639718 4.79233071 10.44722581 2 13 C1.93941406 12.39671875 1.87882813 11.7934375 1.81640625 11.171875 C1.69072266 9.97304687 1.69072266 9.97304687 1.5625 8.75 C1.48128906 7.96109375 1.40007812 7.1721875 1.31640625 6.359375 C1.02365007 4.17635361 0.57935581 2.1226818 0 0 Z " fill="#EEAC8B" transform="translate(153,63)"/>
<path d="M0 0 C0.66 0 1.32 0 2 0 C2 0.66 2 1.32 2 2 C1.34 2 0.68 2 0 2 C0 1.34 0 0.68 0 0 Z M-2 2 C-1.34 2.33 -0.68 2.66 0 3 C-1.11799986 4.33920838 -2.24461897 5.67122556 -3.375 7 C-4.00148437 7.7425 -4.62796875 8.485 -5.2734375 9.25 C-6.12808594 10.11625 -6.12808594 10.11625 -7 11 C-7.66 11 -8.32 11 -9 11 C-9 8 -9 8 -7.46875 6.39453125 C-6.49421875 5.61142578 -6.49421875 5.61142578 -5.5 4.8125 C-4.8503125 4.28269531 -4.200625 3.75289063 -3.53125 3.20703125 C-3.0259375 2.80871094 -2.520625 2.41039063 -2 2 Z " fill="#F68310" transform="translate(154,118)"/>
<path d="M0 0 C1.98 0 3.96 0 6 0 C5.8125 2.375 5.8125 2.375 5 5 C2.4375 6.3125 2.4375 6.3125 0 7 C0 4.69 0 2.38 0 0 Z " fill="#E48823" transform="translate(50,168)"/>
<path d="M0 0 C0.33 0.66 0.66 1.32 1 2 C1.66 2.33 2.32 2.66 3 3 C2.01 3.66 1.02 4.32 0 5 C-1.19232613 7.05003955 -1.19232613 7.05003955 -2 9 C-2.99 8.67 -3.98 8.34 -5 8 C-3.8141763 4.62496331 -2.72426311 2.35277269 0 0 Z " fill="#E5B165" transform="translate(59,154)"/>
<path d="M0 0 C-0.3125 2.375 -0.3125 2.375 -1 5 C-1.99 5.66 -2.98 6.32 -4 7 C-4.99 6.67 -5.98 6.34 -7 6 C-5.81636731 2.44910192 -3.99368042 0 0 0 Z " fill="#AB8E7F" transform="translate(69,142)"/>
<path d="M0 0 C3.3 0 6.6 0 10 0 C8.86695008 3.39914975 7.87481525 4.05254451 5 6 C4.87625 5.071875 4.87625 5.071875 4.75 4.125 C4.08785794 1.46510021 4.08785794 1.46510021 0 0 Z " fill="#EF781A" transform="translate(89,153)"/>
<path d="M0 0 C-5.75 5 -5.75 5 -8 5 C-7.67 3.68 -7.34 2.36 -7 1 C-7.66 0.67 -8.32 0.34 -9 0 C-5.62182575 -0.84454356 -3.32534757 -1.10844919 0 0 Z " fill="#7C769D" transform="translate(99,94)"/>
<path d="M0 0 C0.99 0.33 1.98 0.66 3 1 C2.34 2.32 1.68 3.64 1 5 C-3.455 4.01 -3.455 4.01 -8 3 C-8 2.67 -8 2.34 -8 2 C-6.865625 1.855625 -5.73125 1.71125 -4.5625 1.5625 C-1.19222799 1.38828522 -1.19222799 1.38828522 0 0 Z " fill="#E78A42" transform="translate(76,156)"/>
<path d="M0 0 C-3.32307692 3.93846154 -3.32307692 3.93846154 -6.75 4.25 C-7.4925 4.1675 -8.235 4.085 -9 4 C-6.56225426 0.2214941 -6.56225426 0.2214941 -3.9375 -0.8125 C-2 -1 -2 -1 0 0 Z " fill="#6EF5C6" transform="translate(50,73)"/>
<path d="M0 0 C0.33 0 0.66 0 1 0 C1 3.96 1 7.92 1 12 C0.34 11.01 -0.32 10.02 -1 9 C-1.433125 8.38125 -1.86625 7.7625 -2.3125 7.125 C-3 5 -3 5 -1.6875 2.25 C-1.130625 1.5075 -0.57375 0.765 0 0 Z " fill="#C2AB85" transform="translate(119,96)"/>
<path d="M0 0 C0 0.99 0 1.98 0 3 C-4.95 2.67 -9.9 2.34 -15 2 C-15 1.67 -15 1.34 -15 1 C-13.25021843 0.83105557 -11.50016388 0.66493691 -9.75 0.5 C-8.77546875 0.4071875 -7.8009375 0.314375 -6.796875 0.21875 C-4.53697847 0.04199832 -2.26679807 0 0 0 Z " fill="#955E28" transform="translate(181,67)"/>
<path d="M0 0 C3.63 0 7.26 0 11 0 C11.33 0.99 11.66 1.98 12 3 C6.06 2.01 6.06 2.01 0 1 C0 0.67 0 0.34 0 0 Z " fill="#BF641E" transform="translate(80,162)"/>
<path d="M0 0 C0.66 0.66 1.32 1.32 2 2 C-0.52956528 5.0916909 -3.22454612 5.90931332 -7 7 C-6.34 6.01 -5.68 5.02 -5 4 C-4.34 4 -3.68 4 -3 4 C-2.67 3.01 -2.34 2.02 -2 1 C-1.34 0.67 -0.68 0.34 0 0 Z " fill="#F39251" transform="translate(80,151)"/>
<path d="M0 0 C0.66 0.66 1.32 1.32 2 2 C1.67 2.99 1.34 3.98 1 5 C-1.0625 5.6875 -1.0625 5.6875 -3 6 C-3.66 4.68 -4.32 3.36 -5 2 C-3.35 2 -1.7 2 0 2 C0 1.34 0 0.68 0 0 Z " fill="#7F7C9A" transform="translate(67,131)"/>
<path d="M0 0 C0 0.66 0 1.32 0 2 C-1.28913487 2.67154933 -2.58140204 3.33708859 -3.875 4 C-4.59429687 4.37125 -5.31359375 4.7425 -6.0546875 5.125 C-8 6 -8 6 -10 6 C-9.67 5.01 -9.34 4.02 -9 3 C-2.88888889 0 -2.88888889 0 0 0 Z " fill="#E8D098" transform="translate(140,88)"/>
<path d="M0 0 C0.66 0 1.32 0 2 0 C1.43628586 3.26954202 0.50037734 4.82575883 -2 7 C-2.66 6.34 -3.32 5.68 -4 5 C-2.71937515 3.2925002 -1.38232443 1.62626404 0 0 Z " fill="#72E7D0" transform="translate(52,77)"/>
<path d="M0 0 C1.98 0 3.96 0 6 0 C6 0.66 6 1.32 6 2 C4.35 2.66 2.7 3.32 1 4 C0.67 2.68 0.34 1.36 0 0 Z " fill="#809596" transform="translate(44,141)"/>
<path d="M0 0 C0.33 0 0.66 0 1 0 C1 2.31 1 4.62 1 7 C1.66 7 2.32 7 3 7 C2.34 8.65 1.68 10.3 1 12 C0.67 12 0.34 12 0 12 C0 8.04 0 4.08 0 0 Z " fill="#9A7848" transform="translate(52,151)"/>
</svg>