<svg width="24" height="24" viewBox="0 0 24 24" fill="none" xmlns="http://www.w3.org/2000/svg">
<path d="M0.60999 5.69999C0.572731 5.67204 0.54249 5.63581 0.521662 5.59415C0.500834 5.5525 0.48999 5.50656 0.48999 5.45999C0.48999 5.41341 0.500834 5.36748 0.521662 5.32582C0.54249 5.28417 0.572731 5.24793 0.60999 5.21999L3.02999 3.35999C3.07456 3.32656 3.12756 3.3062 3.18305 3.3012C3.23854 3.2962 3.29432 3.30674 3.34415 3.33166C3.39399 3.35658 3.4359 3.39488 3.46519 3.44227C3.49448 3.48966 3.50999 3.54427 3.50999 3.59999V7.29999C3.50999 7.3557 3.49448 7.41031 3.46519 7.45771C3.4359 7.5051 3.39399 7.5434 3.34415 7.56832C3.29432 7.59323 3.23854 7.60378 3.18305 7.59878C3.12756 7.59377 3.07456 7.57342 3.02999 7.53999L0.59999 5.68999L0.60999 5.69999Z" fill="black"/>
<path d="M21.9999 3.29999H3.17993V19.4C3.17993 20.5 4.07993 21.4 5.17993 21.4H21.9999C22.5304 21.4 23.0391 21.1893 23.4141 20.8142C23.7892 20.4391 23.9999 19.9304 23.9999 19.4V5.29999C23.9999 4.76956 23.7892 4.26085 23.4141 3.88577C23.0391 3.5107 22.5304 3.29999 21.9999 3.29999ZM9.14993 8.65999H18.0299C18.1997 8.65999 18.3625 8.72742 18.4825 8.84744C18.6025 8.96746 18.6699 9.13025 18.6699 9.29999C18.6699 9.46973 18.6025 9.63251 18.4825 9.75254C18.3625 9.87256 18.1997 9.93999 18.0299 9.93999H9.14993C8.98019 9.93999 8.81741 9.87256 8.69738 9.75254C8.57736 9.63251 8.50993 9.46973 8.50993 9.29999C8.50993 9.13025 8.57736 8.96746 8.69738 8.84744C8.81741 8.72742 8.98019 8.65999 9.14993 8.65999ZM8.50993 12.33C8.50993 11.98 8.80993 11.69 9.14993 11.69H18.0299C18.1997 11.69 18.3625 11.7574 18.4825 11.8774C18.6025 11.9975 18.6699 12.1602 18.6699 12.33C18.6699 12.4997 18.6025 12.6625 18.4825 12.7825C18.3625 12.9026 18.1997 12.97 18.0299 12.97H9.14993C9.06588 12.97 8.98266 12.9534 8.90501 12.9213C8.82737 12.8891 8.75681 12.842 8.69738 12.7825C8.63795 12.7231 8.59081 12.6526 8.55865 12.5749C8.52649 12.4973 8.50993 12.414 8.50993 12.33ZM9.14993 14.73V14.72H18.0299C18.1997 14.72 18.3625 14.7874 18.4825 14.9074C18.6025 15.0275 18.6699 15.1902 18.6699 15.36C18.6699 15.5297 18.6025 15.6925 18.4825 15.8125C18.3625 15.9326 18.1997 16 18.0299 16H9.14993C9.05985 16.0113 8.9684 16.0033 8.88163 15.9766C8.79487 15.9499 8.71479 15.905 8.64671 15.8449C8.57863 15.7849 8.5241 15.711 8.48675 15.6283C8.4494 15.5455 8.43009 15.4558 8.43009 15.365C8.43009 15.2742 8.4494 15.1845 8.48675 15.1017C8.5241 15.019 8.57863 14.9451 8.64671 14.885C8.71479 14.825 8.79487 14.7801 8.88163 14.7534C8.9684 14.7266 9.05985 14.7187 9.14993 14.73Z" fill="black"/>
</svg>
