<svg xmlns="http://www.w3.org/2000/svg" width="24" height="24" viewBox="0 0 12 12"><path fill-rule="evenodd" d="M7.745.602c-.162.27-.301.492-.31.492a2 2 0 0 1-.173-.061 4.3 4.3 0 0 0-.66-.184A4 4 0 0 0 6.02.824c-.506 0-.686.03-1.094.172a3 3 0 0 1-.27.084c-.03.003-.1-.1-.322-.468-.181-.302-.297-.475-.32-.48-.035-.006-.035-.002.003.061.071.117.527.937.527.947a1 1 0 0 1-.145.09c-.87.48-1.448 1.352-1.514 2.282l-.013.192h6.391v-.127c0-.183-.054-.473-.133-.715-.214-.654-.698-1.233-1.353-1.616l-.179-.105.272-.487c.22-.395.267-.492.248-.515-.013-.016-.036-.03-.051-.03s-.16.222-.322.493M4.723 2.116c.177.126.167.374-.019.5-.057.04-.088.046-.178.039-.096-.008-.117-.018-.185-.092-.071-.075-.078-.092-.078-.195 0-.128.043-.207.149-.273.08-.051.223-.042.31.021m3.017-.013q.168.115.154.277c-.034.369-.56.37-.592.001-.02-.238.246-.407.438-.278M1.537 4.008a.76.76 0 0 0-.372.373l-.064.136V7.81l.062.132c.136.288.335.421.628.423.249 0 .505-.185.609-.44l.046-.115.006-1.604c.006-1.771.009-1.722-.12-1.925a.66.66 0 0 0-.795-.273m8.623-.013a.76.76 0 0 0-.429.459c-.033.096-.036.216-.036 1.72V7.79l.046.114c.06.15.16.278.278.356.34.226.781.082.968-.314l.053-.115V4.497l-.053-.114a.8.8 0 0 0-.322-.348.5.5 0 0 0-.267-.063.6.6 0 0 0-.238.023M2.843 6.55l.005 2.485.047.097c.059.12.21.277.32.333.076.039.116.042.495.042h.413v.829c0 .455.009.884.018.952.055.376.34.654.673.655.282.001.517-.17.639-.468.044-.108.045-.128.051-1.039l.006-.929h1.101l.006.95.006.949.065.133c.279.565.995.53 1.234-.06.046-.112.046-.129.052-1.043l.006-.929h.416c.366 0 .426-.005.5-.039a.77.77 0 0 0 .318-.328l.049-.105v-4.97H2.837z" style="stroke-width:.50201"/></svg>