<svg xmlns="http://www.w3.org/2000/svg" width="24" height="24" fill="none"><path d="M11.941.13c-.013.072-.247 1.687-.522 3.59-.274 1.903-.518 3.532-.542 3.62-.079.286-.307.642-.569.884-.221.205-.679.467-3.516 2.01-1.793.975-3.36 1.851-3.48 1.945-.766.601-.952 1.783-.411 2.608a2.4 2.4 0 0 0 .591.6c.07.05 1.607.738 3.414 1.528 1.808.79 3.367 1.491 3.465 1.559.098.067.262.215.364.329.354.394.384.495.804 2.741.21 1.12.4 2.13.424 2.246l.043.21h2.043l-.022-.09c-.012-.049-.203-1.062-.425-2.25a141.428 141.428 0 0 0-.468-2.44 3.983 3.983 0 0 0-2.118-2.672c-.156-.079-1.65-.74-3.32-1.47a220.363 220.363 0 0 1-3.063-1.352c-.015-.014 1.36-.782 3.057-1.706a243.25 243.25 0 0 0 3.389-1.867 4.02 4.02 0 0 0 1.785-2.528c.033-.157.284-1.842.559-3.745.274-1.903.504-3.475.509-3.494.006-.019 1.162.996 2.569 2.255a217.349 217.349 0 0 0 2.879 2.547 4.392 4.392 0 0 0 1.52.757c.328.084.497.103.94.106.472.003.633-.016 1.28-.146.407-.082.772-.158.81-.17.064-.019.07-.104.07-1.04 0-.953-.005-1.019-.07-1-.038.012-.493.105-1.01.207-.749.148-.991.181-1.19.163-.298-.026-.737-.172-.946-.314-.14-.095-1.41-1.22-3.413-3.021L16.559 0H11.964l-.023.13m10.03 19.472a4.131 4.131 0 0 0-2.031.817c-.154.122-1.011.973-1.903 1.892l-1.624 1.669 1.383.011 1.383.01 1.02-1.038c.81-.824 1.066-1.061 1.241-1.146.493-.243.767-.271 1.694-.175.399.042.758.076.796.077.065.001.07-.073.07-.999 0-.55-.01-1-.022-1-.012 0-.268-.026-.57-.057-.823-.086-1.076-.097-1.437-.061" fill-rule="evenodd" fill="#000"/></svg>
