<svg xmlns="http://www.w3.org/2000/svg" width="24" height="24" fill="none"><g clip-path="url(#a)"><path stroke="#fff" stroke-width="2" d="m14.597-.406 5.272 4.712a3 3 0 0 0 2.592.705l7.032-1.418a1 1 0 0 1 1.093 1.425l-3.038 6.124a3 3 0 0 0 .074 2.807l3.325 5.897a1 1 0 0 1-.973 1.486l-7.282-.744a3 3 0 0 0-2.457.894l-5.1 5.25a1 1 0 0 1-1.7-.512l-1.245-6.654a3 3 0 0 0-1.747-2.198L4.18 14.63a1 1 0 0 1-.078-1.795L10.4 9.401a3 3 0 0 0 1.533-2.206l1.01-6.998a1 1 0 0 1 1.655-.603Z"/></g><defs><clipPath id="a"><path fill="#fff" d="M0 0h24v24H0z"/></clipPath></defs></svg>