<svg xmlns="http://www.w3.org/2000/svg" viewBox="0 0 24 24"><path d="m4.239 17.871-.135-.135h-.27l-.135.135h-.27l-.135.135H1.27l-.27.27.135.135v.135h1.62l.135-.135h.539l.135-.135h.405l.135-.135h.135Zm-.135-.81-.27-.27h-.135l-.135.135H3.16l-.135.135h-1.89L1 17.196v.135l.135.135h2.294l.135-.135h.27Zm15.792-.135v.135l.135.135h.27l.135.135h.404l.135.135h1.89l.135-.135v-.135l-.135-.135h-1.62l-.135-.135h-.404l-.135-.135h-.27l-.135-.135Zm-8.773-2.294v.27l.135.135h.54l.135-.135h.134l.135.135h.405l.27-.27v-.135h-.135l-.135-.135h-1.349Zm1.754-2.699-.135-.135h-.54l-.135-.135-.134.135h-.54l-.135.135v.404h.54l.135-.135h.269l.135.135h.405l.135-.135ZM8.693 8.288v.135l-.54.945v.54l-.135.135v2.429l.135.135v.54l.405.135.135-.135.405-.135.405-.405v-.27l.135-.135V9.773l.135-.135.135-.405.81-.81h.135l.405-.27h.27l.135-.135h.809l.135.135h.27l.135.135.405.135.81.81v.135l.27.405v2.699l.135.135.135.405h.135l.405.27h.405l.27-.27v-.27l.135-.135v-2.564l-.135-.135v-.54l-.135-.135v-.27l-.405-.54v-.135l-1.08-1.079h-.135l-.27-.27h-.135l-.135-.135h-.27l-.135-.135h-.405l-.135-.135h-1.484l-.135.135h-.405l-.135.135-.405.135-.27.27h-.135Zm.135.81.27-.27v-.135l.27-.27v-.135l.54-.54h.135l.27-.269h.135l.405-.27h.27l.135-.135h1.484l.135.135h.27l.135.135h.27l.135.135h.135l.54.539h.135l.135.135v.135l.54.54v.135l.135.135v.27l.135.135v.27l.135.135v2.699l-.135.135h-.135l-.27-.27V9.908l-.135-.135-.135-.675-.27-.27v-.135l-.54-.54h-.135l-.27-.27h-.135l-.135-.135h-.27l-.135-.135h-.405l-.135-.134h-.674l-.135.134h-.405l-.135.135-.675.27-.675.675v.135l-.405.54v.27l-.135.135v2.429l-.405.405-.135-.135v-2.429l.135-.135v-.405l.135-.135Zm-.81-1.619v.134l-.27.27v.135l-.539.945v.405l-.135.135v4.454l.135.135h.135l.135-.135v-3.914l.134-.135v-.405l.135-.135v-.27l.135-.135.27-.675.27-.27v-.135l1.08-1.079h.135l.27-.27h.135l.135-.135h.27l.405-.27h.675l.135-.135h.809l.135.135h.54l.135.135h.27l.135.135.945.405 1.08 1.079v.135l.27.27v.135l.27.405.135.675.134.135v4.454l.27.27.135-.135h.135V9.773l-.135-.135v-.405l-.135-.135-.135-.675-.404-.54v-.135l-.405-.404v-.135l-1.08-.945h-.135l-.675-.405h-.27l-.135-.135h-.27l-.135-.135h-.405l-.135-.135h-1.214l-.135.135h-.405l-.135.135h-.27l-.135.135h-.27l-.135.135h-.135l-.27.27h-.135l-.27.27h-.135ZM1 16.252v.135l.135.134h2.429l.135-.134h.405l.135-.135h.27l.135-.135h.27l.135.135v2.024l-.135.135h-.135l-.675.405h-.27l-.135.135h-.405l-.134.135H1.27v.135l.135.135v.135h1.889l.135-.135h.405l.135-.135h.27l.135-.135.675-.135.27.27v.27l-.135.135h-.27l-.135.135h-.405l-.135.135h-.405l-.135.135H1.945l.27.27h.27l.135.135h1.214l.135-.135h.54l.135-.135h.405l.135-.135h.27l.135-.135h.135l.54.405h.135l.135.135h.27l.135.135h1.214l.135-.135h.27l.135-.135.405-.135.81-.81v-.135l.27-.27v-.27l.135-.135v-.405l.135-.135v-1.485l.135-.134h.135l.135-.135h.27l.135-.135h1.619l.135.135h.27l.27.269v1.35l.135.135v.54l.135.135v.27l.27.27v.135l.81.81h.135l.405.27h.27l.135.135h1.349l.135-.135.675-.27.27-.27h.27l.135.135h.27l.135.135h.27l.135.135h.405l.135.135h1.484l.54-.405-.135.135h-.54l-.135-.135h-1.079l-.135-.135h-.27l-.135-.135h-.405l-.54-.405.27-.405h.27l.135.135h.135l.135.135h.27l.135.135h.54l.135.135h1.889v-.135l.135-.135v-.135h-1.755l-.135-.135h-.539l-.135-.135-.675-.135-.405-.27v-.405l.135-.135h.135l.405.27.675.135.135.135h.404l.135.135h1.755l.135-.135v-.27l-.135-.135H20.84l-.134-.135h-.405l-1.215-.675v-1.214l.135-.135.54.405h.27l.135.135h.405l.135.134h2.159l.135-.134v-.135l-.135-.135h-1.89l-.135-.135h-.404l-.135-.135h-.27l-.135-.135-.405-.135-.405-.405V9.773l-.135-.135v-.675l-.135-.135-.135-.675-.27-.405v-.269l-.135-.135v-.135l-.27-.27v-.135l-.27-.27v-.135l-.945-1.08h-.135l-.539-.54h-.135l-.27-.27h-.135l-.945-.54h-.27l-.135-.135h-.27l-.135-.135h-.405l-.135-.135h-.945l-.135-.135h-.269l-.135.135h-1.08l-.135.135h-.405l-.135.135-.675.135-.135.135-.675.27-.675.54h-.135l-1.349 1.35v.135l-.54.675v.135l-.405.674v.27l-.135.135v.27l-.135.135v.405l-.135.135v6.074l-.54.405h-.135l-.135.135h-.27l-.135.135h-.54l-.134.135H1.135Zm8.908.674v1.35l-.135.135v.27l-.27.27v.135l-.675.675h-.135l-.405.27h-.27l-.135.135h-.674l-.135-.135h-.27l-.135-.135-.405-.135-.405-.405v-.135l-.27-.405v-.135l.27-.27.27.27.135.405.54.405h.27l.135.135h.539l.135-.135h.27l.135-.135h.135l.675-.675v-.27l.135-.135v-.945l.54-.54Zm4.319-2.834.27.27.405.135.27.27h.135l.27.27h.135l.809.81h.135l.81.809h.135l.945.81v.405l.135.135-.135.135v.54l-.135.135-.135.405-.675.675h-.135l-.135.135h-.27l-.135.135h-.809l-.135-.135h-.405l-.27-.27h-.135l-.81-.81v-.135l-.27-.405v-1.485l.135-.135.405.27v.945l.135.135v.405l.54.675h.135l.27.27h.27l.135.135h.674l.135-.135h.27l.27-.27h.135v-.135l.405-.54v-.81l-.54-.54h-.135l-.675-.675h-.135l-.404-.404h-.135l-.54-.54h-.135l-.27-.27-.135.135h-.135v.27l.27.27h.135l.54.539h.135l.54.54h.134l.675.675h.135l.27.27v.135l-.135.135v.27l-.54.54h-.944l-.135-.135h-.135l-.54-.675v-.54l.135-.135.675.675h.135l.27.27h.404v-.27l-.404-.405h-.135l-.81-.81h-.135l-.54-.54h-.135l-.54-.404v-1.89Zm-3.779 0 .27-.27h.27l.135-.135h1.889l.135.135h.27l.135.135v1.755l-.135.135h-.135l-.135-.135h-.405l-.135-.135h-1.079l-.135.135h-.405l-.135.135h-.27l-.135-.135Zm1.08-4.994h.944l.135.135.405.135.27.27v.135l.27.405v2.969l-.135.135h-.405l-.135-.135h-1.619l-.135.135h-.54l-.135-.135.135-.135-.135-.135.135-.135v-2.699l.135-.135v-.135l.54-.54h.135Zm3.239-3.374.27.27h.135l1.349 1.35v.135l.27.269v.135l.54.945v.27l.135.135v.54l.135.135v4.589l.135.135v.135l.81.81v1.079l-.135.135-2.429-2.159h-.135l-.405-.405-.405-.135-.27-.27-.405-.135-.27-.27v-3.104l-.135-.135v-.405l-.135-.135v-.135l-.675-.675h-.135l-.405-.27h-1.079l-.135.135h-.27l-.27.27h-.135l-.54.675v.27l-.135.135v3.374l-.27.27h-.27l-.135.135-.675.27-.27.27h-.135l-.405.405h-.135l-.674.675h-.135l-.54.54h-.135l-.27.405.27.269.135-.135h.135l.54-.539h.135l1.349-1.215h.135l.27-.27h.135l.675-.405.135.135v1.89l-.81.674h-.135l-.675.675h-.135l-.54.54h-.134l-.27.27v.27h.135l.135.135.134-.135h.135l.54-.54h.135l.27-.27.135.135v.135l-.135.135v.27l-.54.54h-.135l-.135.135h-.809l-.135-.135h-.135l-.405-.54v-.405l.135-.135h.135l.81-.81h.134l.405-.405h.135l.54-.539h.135l.27-.27v-.27l-.135-.135-.405.135-1.079.944h-.135l-.675.675h-.135l-.675.675h-.135l-.135.135-.135-.135v-2.159l.81-.81v-.135l.27-.405V9.638l.135-.135v-.405l.135-.135v-.27l.135-.135v-.27l.135-.135v-.135l.27-.27v-.135l.269-.269v-.135l1.08-1.08h.135l.675-.54h.135l.135-.135h.27l.135-.135h.27l.135-.135h.405l.135-.135h1.754l.135.135h.405l.135.135h.27l.135.135h.27l.135.135ZM6.399 7.209l.27-.27v-.135l.54-.54v-.135l1.079-.945h.135l.27-.27h.135l.945-.54h.27l.135-.135h.405l.135-.135h.81l.135-.135h.674l.135.135h.81l.135.135h.405l.135.135h.27l.135.135.945.405.81.675h.135l.809.81v.135l.675.81v.135l.27.404v.27l.27.405v.405l.135.135v.54l.135.135v4.724l-.135.135-.27-.27v-4.319l-.135-.135v-.675l-.135-.135-.135-.675-.135-.135-.27-.675-.54-.674v-.135l-1.079-1.08h-.135l-.27-.27h-.135l-.54-.405h-.27l-.405-.27h-.27l-.135-.135h-.405l-.135-.135h-1.889l-.135.135h-.405l-.135.135h-.405l-.135.135h-.135l-.135.135-.945.405-.405.405h-.135l-.809.81v.135l-.405.405v.135l-.54.944v.27l-.135.135v.27l-.135.135v.54l-.135.135v4.589l-.405.405-.135-.135V9.908l.135-.135v-.54l.135-.135v-.405l.135-.135v-.27l.135-.135Z"/></svg>
