<svg xmlns="http://www.w3.org/2000/svg" width="24" height="24" viewBox="0 0 24 24"><path fill="#e9e7ed" fill-rule="evenodd" d="M6.49.432c-.881.025-.951.033-1.172.125-.787.33-1.255.906-1.56 1.921-.094.314-1.811 7.113-2.562 10.15-.211.85-.401 1.703-.424 1.894-.096.802.148 1.607.633 2.1.292.295.628.497 1.099.658l.353.121 2.422.035c1.332.02 5.427.025 9.101.013 7.316-.022 6.894-.007 7.493-.257s1.046-.652 1.281-1.153c.23-.49.293-1.354.148-1.987-.046-.196-.46-1.824-.921-3.618l-1.424-5.547c-.627-2.445-.768-2.916-.976-3.267-.2-.339-.63-.754-.957-.923-.565-.293-.118-.272-6.167-.282C9.87.409 7.005.418 6.49.432m11.319.667c.646.064 1.173.426 1.435.986.083.176.211.691.464 1.865.193.891.713 3.282 1.156 5.312 1.266 5.8 1.223 5.556 1.076 6.113-.091.353-.276.653-.488.795-.272.185-.426.213-1.31.243-1.072.038-14.963.04-16.133.002-.832-.026-.89-.033-1.093-.128-.394-.184-.649-.538-.739-1.026-.091-.5-.082-.56.714-4.222 1.832-8.433 1.903-8.753 2.006-8.964.13-.27.478-.622.752-.762.47-.238.355-.226 2.638-.256 2.588-.032 9.052-.004 9.522.042M3.739 19.772c-.237.02-.301.039-.362.114-.09.111-.065.21.1.386.173.187.48.377.772.478.226.078.358.089 1.46.116 1.597.04 11.189.04 12.733 0 .88-.024 1.26-.048 1.387-.09.66-.212 1.11-.657.924-.909-.052-.07-.103-.078-.462-.076-.34.001-.434.016-.599.095l-.195.092-2.969.034c-1.632.017-4.928.028-7.324.022l-4.355-.01-.293-.11c-.419-.155-.494-.168-.816-.142m1.659 2.932c-.2.047-.257.098-.257.23 0 .212.31.475.745.63l.251.09 5.273.013c2.9.007 5.608-.002 6.016-.02.687-.032.76-.043.974-.141.309-.14.482-.278.559-.44.06-.127.06-.138-.016-.24-.114-.153-.4-.167-.707-.034l-.224.097-5.879.025-5.879.025-.3-.14c-.322-.149-.325-.15-.556-.095" style="fill:#000;fill-opacity:1;stroke:#000;stroke-width:.493;stroke-dasharray:none;stroke-opacity:1"/></svg>