<svg width="24" height="24" viewBox="0 0 24 24" fill="none" xmlns="http://www.w3.org/2000/svg">
<g clip-path="url(#clip0_2_2)">
<path d="M12.0013 0C5.37321 0 0 5.37321 0 12.0013C0 18.6294 5.37321 24.0027 12.0013 24.0027C18.6294 24.0027 24.0027 18.6294 24.0027 12.0013C24 5.37321 18.6294 0 12.0013 0Z" fill="url(#paint0_linear_2_2)"/>
<path d="M23.0376 12.0013C23.0376 18.0977 18.0977 23.0376 12.0013 23.0376C5.90495 23.0376 0.965105 18.095 0.965105 12.0013C0.965105 5.90761 5.90495 0.965105 12.0013 0.965105C18.0977 0.965105 23.0376 5.90495 23.0376 12.0013Z" fill="url(#paint1_linear_2_2)"/>
<path d="M11.7328 8.82154C11.7328 8.35892 11.3021 7.72881 10.9405 7.38318C10.3609 6.82486 9.59256 6.49784 8.61948 6.39681C7.60917 6.29046 6.34629 6.6095 5.47956 7.18644C4.99568 7.50814 4.80691 7.75274 4.75374 8.13293C4.73779 8.23928 4.73247 10.0499 4.73513 12.6181C4.74045 15.0535 4.74576 16.3164 4.74842 16.904C4.74842 17.0794 4.94782 17.1805 5.09139 17.0768C5.19774 16.9997 6.31173 16.2951 6.92589 16.1648C7.37787 16.0479 7.74211 16.0027 8.2127 16.0027C9.32935 16.0027 10.2732 16.3908 10.9884 17.1432C11.4563 17.6245 11.7301 18.4699 11.7301 18.4699C11.7301 18.4699 11.7328 10.2519 11.7328 8.82154ZM12.2619 18.4646C12.2619 18.4646 12.5384 17.6191 13.0037 17.1379C13.7188 16.3855 14.6627 15.9973 15.7793 15.9973C16.2473 15.9973 16.6142 16.0425 17.0661 16.1595C17.683 16.2898 18.7969 16.997 18.9006 17.0715C19.0415 17.1751 19.2436 17.0741 19.2436 16.8986C19.2463 16.3084 19.2542 15.0482 19.2569 12.6128C19.2622 10.0445 19.2542 8.23397 19.2383 8.12762C19.1851 7.75008 18.999 7.50548 18.5125 7.18112C17.6457 6.60419 16.3829 6.2878 15.3725 6.39149C14.3995 6.49252 13.6311 6.81954 13.0515 7.37787C12.6899 7.72616 12.2592 8.35627 12.2592 8.81622C12.2619 10.2519 12.2619 18.4646 12.2619 18.4646Z" fill="url(#paint2_linear_2_2)"/>
</g>
<defs>
<linearGradient id="paint0_linear_2_2" x1="12.0005" y1="0.212206" x2="12.0005" y2="23.7757" gradientUnits="userSpaceOnUse">
<stop stop-color="#FFBB1C"/>
<stop offset="1" stop-color="#AE1A00"/>
</linearGradient>
<linearGradient id="paint1_linear_2_2" x1="12.0004" y1="0.211196" x2="12.0004" y2="23.7765" gradientUnits="userSpaceOnUse">
<stop stop-color="#FEC216"/>
<stop offset="1" stop-color="#DD4C01"/>
</linearGradient>
<linearGradient id="paint2_linear_2_2" x1="11.9972" y1="6.53143" x2="11.9972" y2="18.4029" gradientUnits="userSpaceOnUse">
<stop stop-color="#EEEEEE"/>
<stop offset="1" stop-color="#D0D0CD"/>
</linearGradient>
<clipPath id="clip0_2_2">
<rect width="24" height="24" fill="white"/>
</clipPath>
</defs>
</svg>
