<svg width="24" height="24" viewBox="0 0 24 24" xmlns="http://www.w3.org/2000/svg"><path d="M11.582 6.765c0-.728-.675-1.718-1.246-2.261-.911-.877-2.117-1.391-3.646-1.55-1.587-.168-3.574.333-4.934 1.242C.995 4.7.698 5.086.615 5.682.589 5.85.58 8.695.585 12.731c.008 3.826.015 5.811.02 6.735a.34.34 0 0 0 .54.272c.167-.12 1.916-1.229 2.883-1.433a7.5 7.5 0 0 1 2.023-.255c1.753 0 3.237.61 4.36 1.792.736.757 1.167 2.085 1.167 2.085zm.832 15.155s.434-1.33 1.166-2.086c1.124-1.183 2.607-1.791 4.361-1.791a7.5 7.5 0 0 1 2.023.254c.97.204 2.718 1.316 2.883 1.433a.34.34 0 0 0 .54-.271c.003-.928.015-2.908.02-6.736.008-4.036-.005-6.882-.03-7.049-.083-.594-.376-.979-1.14-1.488-1.362-.907-3.348-1.403-4.936-1.241-1.529.16-2.734.674-3.646 1.55-.569.548-1.246 1.538-1.246 2.26.005 2.257.005 15.165.005 15.165"/></svg>