<svg xmlns="http://www.w3.org/2000/svg" width="24" height="24" fill="none"><path fill="#000" d="m19.583 15.677 1.245 2.617c.698 1.467-.043 3.265-1.607 3.696-.228.065-.46.097-.691.097a2.597 2.597 0 0 1-2.348-1.482l-1.108-2.33h-.004l-2.255-4.743h.003l-1.107-2.33a.296.296 0 0 0-.535 0l-1.133 2.38c-1.728-.367-3.466-1.435-4.45-2.735l3.502-7.365A2.598 2.598 0 0 1 11.44 2c1 0 1.915.579 2.344 1.482l3.435 7.222c-.004 0-.004.004-.004.004l.004-.004v.002c.805-.986 1.39-2.146 1.639-3.392a2.605 2.605 0 0 1 3.057-2.037 2.593 2.593 0 0 1 2.034 3.055c-.577 2.88-2.186 5.454-4.366 7.345Z"/><path fill="#000" d="M11.276 13.717c.517 0 1.033-.064 1.54-.185l2.25 4.744a11.91 11.91 0 0 1-3.794.634c-1.167 0-2.353-.203-3.495-.57l-1.08 2.268a2.6 2.6 0 0 1-3.566 1.176c-1.24-.659-1.692-2.215-1.09-3.48l1.183-2.486c-1.35-1.14-2.426-2.525-3.036-4.035a2.6 2.6 0 0 1 1.436-3.38A2.602 2.602 0 0 1 5.005 9.84c.14.345.339.684.585 1.008.983 1.3 2.722 2.368 4.45 2.735.417.089.833.135 1.236.135Z"/></svg>