<svg viewBox="0 0 24 24" width="24" height="24" data-reactroot=""><path fill="none" stroke="#000" stroke-width=".25" d="M3.85 11.525c-.097.333.61 1.767.947 1.906.212.087.605-.131.605-.367 0-.327-.347-1.337-.605-1.593-.225-.223-.857-.256-.947.054Z" transform="matrix(1.71785 0 0 1.41039 -2.787 -5.028)"/><path stroke="#000" stroke-width=".4" d="M17.055 9.905H18.5v2.132h-1.445zM5.389 12.101h1.69v1.515h-1.69z"/><ellipse cx="12" cy="7.423" stroke="#000" stroke-width=".39" rx="1.473" ry="1.58" transform="matrix(1.05229 0 0 .98098 -1.021 -.591)"/><ellipse cx="12" cy="7.423" stroke="#000" stroke-width=".39" rx="1.473" ry="1.58" transform="matrix(1.05229 0 0 .98098 -6.116 10.094)"/><ellipse cx="12" cy="7.423" stroke="#000" stroke-width=".38" rx="1.473" ry="1.58" transform="matrix(1.07591 0 0 1.00243 3.697 9.86)"/><path stroke="#000" stroke-width=".1" d="M11.712 14.578c-.774 0-1.402.689-1.402 1.539 0 .849.628 1.539 1.402 1.539-.461-.208-.835-.826-.835-1.539 0-.714.374-1.332.835-1.539Z" transform="matrix(-.65579 -4.56189 3.38539 -.48666 -34.99 70.916)"/><path stroke="#000" stroke-width=".14" d="M9.718 13.823c-1.098 0-1.99 1.576-1.99 3.517 0 1.942.892 3.518 1.99 3.518-.675-.452-1.223-1.873-1.223-3.518 0-1.644.548-3.065 1.223-3.517Z" transform="matrix(-.48366 -3.33048 2.19861 -.31928 -21.722 47.837)"/><ellipse cx="12" cy="7.423" stroke="#000" stroke-width=".39" rx="1.473" ry="1.58" transform="matrix(1.05229 0 0 .98098 6.02 1.74)"/><ellipse cx="12" cy="7.423" stroke="#000" stroke-width=".39" rx="1.473" ry="1.58" transform="matrix(1.05229 0 0 .98098 -7.3 3.867)"/><path stroke="#000" stroke-width=".14" d="M9.172 9.539h3.315v1.958H9.172z" transform="matrix(1.55135 -3.25128 1.4489 .69134 -23.006 40.066)"/><path stroke="#000" stroke-width=".15" d="M9.172 9.539h3.315v1.958H9.172z" transform="matrix(-1.52177 -3.19717 -1.45255 .69138 45.786 39.236)"/><path stroke="#000" stroke-width=".4" d="M17.785 13.824c.072.205 1.2-1.45 1.564-2.04.285-.46.491-1.092.627-1.5.102-.305.171-.727.19-.947.01-.128.012-.465-.079-.376-.208.203-.887.997-1.169 1.593-.384.81-1.205 3.065-1.133 3.27Z"/></svg>
