<svg xmlns="http://www.w3.org/2000/svg" width="24" height="24" fill="none"><path fill="#000" fill-rule="evenodd" d="M4 0a4 4 0 0 0-4 4v16a4 4 0 0 0 4 4h16a4 4 0 0 0 4-4V4a4 4 0 0 0-4-4H4Zm13.355 7.361c2.9 0 5.236 2.086 5.236 4.656 0 2.589-2.336 4.675-5.256 4.656-.261 0-.543-.019-.805-.056-2.235-.298-3.725-1.788-4.57-2.924-.826 1.136-2.337 2.626-4.572 2.924a5.846 5.846 0 0 1-.805.056c-2.88 0-5.215-2.086-5.215-4.656s2.356-4.656 5.235-4.656c.262 0 .544.019.806.056 2.235.298 3.725 1.788 4.57 2.924.826-1.136 2.336-2.626 4.571-2.924.262-.037.544-.056.805-.056ZM6.603 15.034c.181 0 .363-.019.544-.037 2.114-.28 3.403-2.198 3.846-2.98-.443-.782-1.732-2.7-3.846-2.98A5.33 5.33 0 0 0 6.603 9C4.71 9 3.16 10.36 3.16 12.017c0 1.658 1.55 3.017 3.443 3.017Zm10.209-5.997c-2.114.28-3.403 2.216-3.846 2.98.443.782 1.732 2.7 3.846 2.98.181.018.362.037.543.037 1.893 0 3.444-1.36 3.444-3.017 0-1.658-1.55-3.017-3.444-3.017-.18 0-.362.019-.543.037Zm-8.518 3.464h-3.14v-.931h3.14v.931Zm10.47 0h-1.046v.987H16.69v-.987h-1.047v-.931h1.047v-.987h1.027v.987h1.047v.931Z" clip-rule="evenodd"/></svg>