<svg xmlns="http://www.w3.org/2000/svg" xmlns:xlink="http://www.w3.org/1999/xlink" width="24px" height="24px"
  viewBox="0 0 24 24" version="1.1">
  <path
    d="M 4.007812 0 L 4.007812 1.601562 L 19.992188 1.601562 L 19.992188 0 Z M 19.992188 1.601562 L 19.992188 3.199219 L 21.59375 3.199219 L 21.59375 1.601562 Z M 21.59375 3.199219 L 21.59375 17.601562 L 19.992188 17.601562 L 19.992188 19.199219 L 4.007812 19.199219 L 4.007812 17.601562 L 2.40625 17.601562 L 2.40625 3.199219 L 0.808594 3.199219 L 0.808594 20.800781 L 2.40625 20.800781 L 2.40625 22.398438 L 4.007812 22.398438 L 4.007812 24 L 19.996094 24 L 19.996094 22.398438 L 21.59375 22.398438 L 21.59375 20.800781 L 23.191406 20.800781 L 23.191406 3.199219 Z M 2.40625 3.199219 L 4.007812 3.199219 L 4.007812 1.601562 L 2.40625 1.601562 Z M 7.203125 6.398438 L 7.203125 12.800781 L 8.804688 12.800781 L 8.804688 6.398438 Z M 15.199219 6.398438 L 15.199219 12.800781 L 16.796875 12.800781 L 16.796875 6.398438 Z M 15.199219 6.398438 " />
</svg>