<svg width="24" height="24" viewBox="0 0 24 24" fill="none" xmlns="http://www.w3.org/2000/svg">
<path d="M8.27193 2.18397C8.78293 2.34797 9.38093 2.68497 10.0439 3.18997L11.3449 4.95297C10.6796 5.64277 10.0511 6.36711 9.46193 7.12297C8.38193 7.16297 7.35393 7.25997 6.40193 7.40997C6.30193 6.93497 6.22593 6.47897 6.17593 6.04797C6.05093 4.98097 6.08393 4.08897 6.25593 3.42097C6.42893 2.75197 6.72393 2.36597 7.07993 2.18697L7.08393 2.18597L7.08693 2.18397C7.36393 2.03997 7.74693 2.01397 8.27193 2.18397ZM12.0639 4.24397L10.7649 2.48397L10.7099 2.44097C9.97493 1.87297 9.25393 1.44997 8.57793 1.23197C7.90193 1.01397 7.22293 0.988971 6.62993 1.29497C5.92393 1.64897 5.50193 2.34197 5.28793 3.17097C5.07393 4.00097 5.04993 5.02697 5.18293 6.16397C5.23593 6.61797 5.31493 7.09397 5.41793 7.58697C4.8935 7.69375 4.37455 7.82591 3.86293 7.98297C2.76993 8.32197 1.84193 8.75697 1.16993 9.28597C0.500927 9.81297 0.0379269 10.476 0.00392689 11.261C-0.0370731 11.943 0.245927 12.565 0.714927 13.103C1.18193 13.638 1.85293 14.116 2.65893 14.536L2.75593 14.586L5.10293 14.705C4.79993 15.507 4.56293 16.277 4.39793 16.996C4.14293 18.11 4.05193 19.13 4.16593 19.976C4.27993 20.821 4.60893 21.559 5.25693 21.991L5.26193 21.994L5.26693 21.997C5.90893 22.404 6.68693 22.427 7.48093 22.215C8.27393 22.005 9.13593 21.55 10.0179 20.917C10.0726 20.8793 10.1192 20.8311 10.155 20.7752C10.1908 20.7193 10.2152 20.6568 10.2266 20.5914C10.238 20.526 10.2363 20.4589 10.2215 20.3942C10.2068 20.3295 10.1793 20.2683 10.1406 20.2143C10.102 20.1603 10.0529 20.1146 9.99642 20.0797C9.9399 20.0449 9.87701 20.0217 9.81141 20.0114C9.74581 20.0011 9.67882 20.004 9.61436 20.0199C9.54989 20.0358 9.48923 20.0644 9.43593 20.104C8.60893 20.697 7.85793 21.081 7.22393 21.249C6.59393 21.417 6.13193 21.359 5.80693 21.156C5.48993 20.942 5.24893 20.527 5.15693 19.843C5.06393 19.158 5.13193 18.267 5.37293 17.22C5.54693 16.46 5.80893 15.63 6.15393 14.758L8.20293 14.861C9.59393 17.411 11.2079 19.547 12.7539 20.975C13.5959 21.752 14.4379 22.339 15.2319 22.659C16.0259 22.979 16.8319 23.054 17.5319 22.699C18.2119 22.353 18.6219 21.689 18.8359 20.894C19.0499 20.099 19.0859 19.119 18.9729 18.032C18.8737 17.136 18.7052 16.249 18.4689 15.379L20.8739 15.501L20.9749 15.46C21.8189 15.122 22.5299 14.707 23.0509 14.226C23.5719 13.746 23.9309 13.174 23.9959 12.53L23.9979 12.515V12.501C24.0299 11.716 23.6289 11.011 23.0109 10.416C22.3919 9.82097 21.5109 9.29097 20.4579 8.83997C18.8179 8.13797 16.6979 7.60097 14.3319 7.31997L12.6619 5.05497C13.1289 4.60897 13.5899 4.21297 14.0379 3.87097C14.8979 3.21397 15.6859 2.77697 16.3509 2.57297C17.0139 2.36897 17.4879 2.41497 17.8099 2.61197C18.1449 2.83797 18.3799 3.22197 18.4829 3.81097C18.5889 4.41097 18.5509 5.18997 18.3639 6.12497C18.3485 6.19028 18.3464 6.25803 18.3577 6.32418C18.369 6.39033 18.3936 6.45352 18.4298 6.50999C18.4661 6.56646 18.5133 6.61506 18.5688 6.65288C18.6242 6.6907 18.6867 6.71697 18.7525 6.73013C18.8183 6.74329 18.8861 6.74307 18.9518 6.72948C19.0175 6.71589 19.0798 6.68921 19.135 6.65103C19.1902 6.61285 19.2371 6.56395 19.273 6.50725C19.3089 6.45054 19.333 6.38719 19.3439 6.32097C19.5439 5.32097 19.6039 4.40697 19.4679 3.63697C19.3309 2.85897 18.9859 2.19497 18.3579 1.77597L18.3509 1.77197L18.3449 1.76697C17.6829 1.35497 16.8729 1.36697 16.0569 1.61697C15.2379 1.86897 14.3439 2.37897 13.4309 3.07697C12.9829 3.41797 12.5249 3.80897 12.0639 4.24397V4.24397ZM11.9469 5.76997V5.77097L12.9939 7.19097C12.2515 7.13557 11.5074 7.10588 10.7629 7.10197C11.1569 6.62797 11.5529 6.18297 11.9469 5.76997ZM13.7869 8.26497V8.26497L15.6839 10.837C16.2339 11.9617 16.7089 13.1216 17.1059 14.309L8.81793 13.891C8.41582 13.1189 8.04715 12.3298 7.71293 11.526C8.38852 10.3389 9.14078 9.19715 9.96493 8.10797C11.241 8.08035 12.5175 8.13279 13.7869 8.26497ZM18.1739 14.363V14.363C17.7366 12.9895 17.1978 11.6505 16.5619 10.357L16.5419 10.317L15.1589 8.44097C17.0599 8.73197 18.7429 9.19297 20.0649 9.75897C21.0549 10.183 21.8179 10.655 22.3179 11.136C22.8139 11.613 23.0099 12.055 22.9999 12.445C22.9639 12.765 22.7739 13.122 22.3739 13.491C21.9859 13.849 21.4239 14.193 20.7039 14.491L18.1739 14.363ZM17.0799 21.807C16.7319 21.983 16.2489 21.991 15.6059 21.731C14.9639 21.473 14.2229 20.971 13.4329 20.241C12.0899 19.001 10.6589 17.156 9.38093 14.921L17.4179 15.326M17.4179 15.327C17.7029 16.339 17.8909 17.287 17.9779 18.135C18.0829 19.153 18.0419 19.999 17.8709 20.634C17.6999 21.268 17.4169 21.635 17.0799 21.807M7.66593 13.833L6.56793 13.778C6.73493 13.407 6.91493 13.03 7.10793 12.65C7.28393 13.043 7.46993 13.437 7.66593 13.833ZM5.49993 13.723V13.724L3.02493 13.599C2.33093 13.227 1.80893 12.836 1.46893 12.446C1.11593 12.042 0.979927 11.666 1.00293 11.318V11.307C1.01893 10.918 1.24893 10.497 1.78893 10.071C2.32893 9.64597 3.13093 9.25697 4.15793 8.93797C4.61793 8.79597 5.11593 8.66997 5.64793 8.56097C5.88993 9.48497 6.21093 10.459 6.60693 11.459C6.18793 12.226 5.81793 12.985 5.49993 13.723ZM6.63593 8.38497C6.80293 9.01197 7.00793 9.66497 7.24993 10.336C7.69728 9.59264 8.17502 8.86803 8.68193 8.16397C7.96593 8.21197 7.28193 8.28697 6.63593 8.38497V8.38497Z" fill="black"/>
<path d="M13.3781 11.996C13.3781 12.1742 13.343 12.3506 13.2748 12.5153C13.2066 12.6799 13.1066 12.8295 12.9806 12.9555C12.8546 13.0815 12.705 13.1815 12.5404 13.2497C12.3757 13.3179 12.1993 13.353 12.0211 13.353C11.8429 13.353 11.6664 13.3179 11.5018 13.2497C11.3371 13.1815 11.1875 13.0815 11.0615 12.9555C10.9355 12.8295 10.8356 12.6799 10.7674 12.5153C10.6992 12.3506 10.6641 12.1742 10.6641 11.996C10.6641 11.6361 10.807 11.2909 11.0615 11.0364C11.316 10.7819 11.6612 10.639 12.0211 10.639C12.381 10.639 12.7261 10.7819 12.9806 11.0364C13.2351 11.2909 13.3781 11.6361 13.3781 11.996V11.996Z" fill="black"/>
</svg>
