<svg xmlns="http://www.w3.org/2000/svg" xml:space="preserve" width="24" height="24" viewBox="0 0 24 24"><path d="M21.469 23.965H2.496A2.5 2.5 0 0 1 0 21.469V2.496A2.5 2.5 0 0 1 2.496 0H21.47a2.5 2.5 0 0 1 2.496 2.496V21.47a2.5 2.5 0 0 1-2.496 2.496M2.496.999A1.5 1.5 0 0 0 1 2.496V21.47a1.5 1.5 0 0 0 1.497 1.497H21.47a1.5 1.5 0 0 0 1.497-1.497V2.496A1.5 1.5 0 0 0 21.47 1Z"/><path d="M11.483 14.23v9.236h-.998V13.23h11.483v9.985h-.999v-8.987zM7.988 8.238H3.745A1.25 1.25 0 0 1 2.496 6.99V3.495c0-.688.56-1.248 1.249-1.248h4.243c.689 0 1.248.56 1.248 1.248V6.99a1.25 1.25 0 0 1-1.248 1.248M3.745 3.245a.25.25 0 0 0-.25.25V6.99c0 .137.112.25.25.25h4.243a.25.25 0 0 0 .25-.25V3.495a.25.25 0 0 0-.25-.25zM3.245 19.721h.999v.999h-.999zM5.242 19.721h.999v.999h-.999zM7.24 19.721h.998v.999h-.999zM3.245 17.724h.999v.999h-.999zM5.242 17.724h.999v.999h-.999zM7.24 17.724h.998v.999h-.999zM3.245 15.727h.999v.999h-.999zM5.242 15.727h.999v.999h-.999zM7.24 15.727h.998v.999h-.999zM3.245 9.985h.999v3.495h-.999zM5.242 9.985h.999v3.495h-.999zM7.24 9.985h.998v3.495h-.999zM12.232 5.742a1.75 1.75 0 0 1-1.747-1.748 1.75 1.75 0 0 1 1.747-1.747 1.75 1.75 0 0 1 1.748 1.747 1.75 1.75 0 0 1-1.748 1.748m0-2.497a.75.75 0 0 0 0 1.498.75.75 0 0 0 0-1.498M16.226 5.742a1.75 1.75 0 0 1-1.747-1.748 1.75 1.75 0 0 1 1.747-1.747 1.75 1.75 0 0 1 1.748 1.747 1.75 1.75 0 0 1-1.748 1.748m0-2.497a.75.75 0 0 0 0 1.498.75.75 0 0 0 0-1.498M20.22 5.742a1.75 1.75 0 0 1-1.747-1.748 1.75 1.75 0 0 1 1.747-1.747 1.75 1.75 0 0 1 1.748 1.747 1.75 1.75 0 0 1-1.748 1.748m0-2.497a.75.75 0 0 0 0 1.498.75.75 0 0 0 0-1.498M11.234 6.74h.998v5.492h-.998z"/><path d="M12.482 9.486h-1.498a.5.5 0 0 1 0-.998h1.498a.5.5 0 0 1 0 .998M14.23 6.74h.998v5.492h-.999z"/><path d="M15.477 10.984H13.98a.5.5 0 0 1 0-.999h1.497a.5.5 0 0 1 0 .999M17.225 6.74h.998v5.492h-.998z"/><path d="M18.473 8.737h-1.498a.5.5 0 0 1 0-.998h1.498a.5.5 0 0 1 0 .998M20.22 6.74h.999v5.492h-.999z"/><path d="M21.469 9.486H19.97a.5.5 0 0 1 0-.998h1.498a.5.5 0 0 1 0 .998M15.727 13.73v6.74h-3.495v-6.74h.999v5.741h1.497V13.73z"/><path d="M13.48 19.97h.999v3.496h-.999zM20.22 13.73v6.74h-3.494v-6.74h.998v5.741h1.498V13.73z"/><path d="M17.974 19.97h.998v3.496h-.998z"/></svg>