<svg width="24" height="24" version="1.1" viewBox="0 0 24 24" xmlns="http://www.w3.org/2000/svg">
   <path
      d="m 5.142,-7.6977143 a 0.104,0.13007309 0 0 1 0.005,0.015009 2.53,3.1642781 0 0 1 0.023,-0.013758 H 5.142 Z m 6.977,8.12581591 a 6.012,7.5192251 0 0 0 -0.693,0.0337691 C 10.456,0.57818614 9.742,0.9796618 9.742,1.4061514 c 0,0.829216 2.946,1.1081226 4.226,0.4002249 0.984,-0.5453064 -0.266,-1.33950269 -1.849,-1.37827469 z m 2.515,1.10812259 c -0.058,0 -0.07,0.020012 -0.086,0.060034 -0.52,1.1831646 -4.373,1.253204 -4.974,0.091301 C 9.491,1.5274693 9.464,1.5162129 9.264,1.5562355 6.156,2.1915925 4.117,3.2346787 2.442,5.0456962 1.758,5.7861123 1.784,5.7273292 1.942,6.1938413 2.62,8.1824588 2.597,11.501824 1.892,13.250306 c -0.197,0.491526 1.86,2.346319 3.572,3.223061 4.082,2.087424 10.08,1.911075 13.869,-0.407728 1.49,-0.910512 3.003,-2.411355 2.84,-2.814081 C 21.468,11.499323 21.446,8.1799574 22.126,6.1888385 22.264,5.7823602 22.264,5.7823602 21.996,5.4684337 20.233,3.4147797 17.864,2.1015419 14.992,1.5887538 a 3.135,3.9209532 0 0 0 -0.358,-0.05253 z m -16.879,1.0280776 -0.009,0.021262 h 0.003 a 0.921,1.1518973 0 0 1 0.006,-0.021262 z m 29.097,1.7860037 0.001,0.046276 0.013,0.028766 C 26.861,4.4003324 26.858,4.375319 26.852,4.3503055 Z m -25.3,1.85104 c -0.016,0 -0.036,0.031267 -0.073,0.083797 C 0.286,7.9348196 0.238,10.821441 1.37,12.750026 1.574,13.097721 1.572,13.100222 1.744,12.541159 2.285,10.790174 2.24,7.8535239 1.65,6.3914524 1.595,6.2538751 1.576,6.2000949 1.552,6.2013455 Z M 22.519,6.22636 c -0.034,0 -0.06,0.057532 -0.103,0.1625914 -0.591,1.4645729 -0.637,4.3999726 -0.095,6.1534586 0.172,0.556563 0.17,0.555312 0.374,0.207617 1.084,-1.844788 1.113,-4.2298785 0.074,-6.1559608 -0.14,-0.2576446 -0.202,-0.3689573 -0.25,-0.3689573 z M 11.109,6.8604664 C 16.925,6.5102697 21.39,9.3881369 19.235,12.095909 16.773,15.187646 7.979,15.331477 5.085,12.32854 2.825,9.9847224 5.926,7.1718914 11.11,6.8604664 Z m 16.116,5.4405576 -0.016,0.133826 0.012,0.02251 c 0.003,-0.05128 0.004,-0.103799 0.004,-0.155088 z m -20.82,4.851475 c -0.045,0.0012 -0.048,0.167594 -0.048,1.372021 0,1.200674 0.007,1.392032 0.05,1.392032 0.029,0 0.28,-0.06629 0.558,-0.148833 2.045,-0.600338 5.804,-0.700394 8.778,-0.23013 0.461,0.07254 0.796,0.137577 1.855,0.366457 0.11,0.02502 0.11,0.02502 0.11,-1.374523 0,-1.311987 -0.003,-1.397035 -0.059,-1.374522 -2.98,1.166905 -8.2,1.166905 -11.232,0 a 0.048,0.06003373 0 0 0 -0.012,-0.0025 z m 5.154,2.219997 c -4.5,0.08254 -8.173,1.400788 -10.015,3.597022 -0.081,0.09756 -0.13,0.165093 -0.183,0.182602 0,0.0037 -0.002,0.0088 -0.003,0.01007 l -0.004,0.005 H 1.35 a 0.696,0.87048914 0 0 0 -0.01,0.03502 0.4,0.50028111 0 0 0 -0.003,0.03376 c 0,0.01007 -10e-4,0.01877 -0.003,0.02877 0,0.0012 21.243,0.01007 21.232,-0.06004 a 1.03,1.2882238 0 0 1 -0.023,-0.26641 0.291,0.3639545 0 0 1 -0.118,-0.0863 C 20.537,20.605689 16.408,19.283696 11.559,19.372496 Z"
      style="stroke-width:0.0382379" id="path1" />
</svg>