<svg xmlns="http://www.w3.org/2000/svg" xml:space="preserve" width="24mm" height="24mm" viewBox="0 0 24 24"><path fill-rule="evenodd" d="M9.882.224c-.204.104-.329.262-.46.578-.147.359-.162.88-.046 1.647.165 1.103.151 2.118-.04 2.847-.046.174-.248.784-.45 1.357-.2.572-.373 1.064-.382 1.093-.01.03-.123-.073-.267-.243-.417-.494-1.332-1.376-1.682-1.623-.45-.317-1.1-.633-1.755-.855-.717-.242-1.188-.322-1.769-.3-.424.016-.472.026-.756.167-.345.17-.617.442-.657.657-.034.178.034.37.232.654.599.863.567.729.602 2.563.028 1.489.049 1.734.202 2.407.138.612.394 1.072.847 1.522.554.55 1.397 1.047 2.327 1.372l.44.154-.299.226c-.505.381-1.105.938-1.325 1.23-.605.8-1.063 2.191-1.065 3.233-.001.555.064.926.274 1.56.223.671.474 1.027.846 1.2.42.197.565.138 1.154-.464.548-.56.695-.651 1.521-.94 1.104-.384 1.598-.643 2.388-1.253l.413-.319.05.23c.122.547.485 1.356.793 1.77a6 6 0 0 0 1.666 1.462c.15.084.638.323 1.084.532.447.208 1.176.56 1.622.78.958.475 1.12.524 1.377.426.22-.084.35-.233.469-.538.079-.203.09-.31.09-.82 0-.324-.03-.816-.068-1.094-.13-.963-.274-1.845-.372-2.275a10 10 0 0 1-.1-.46c0-.014.051.013.112.06a5.5 5.5 0 0 0 1.55.834c.292.096.413.114.81.115.457.002.472 0 .853-.164.544-.233.572-.236 1.042-.117.46.117.494.12.71.06.354-.099.629-.515.665-1.01.022-.31-.076-.642-.37-1.256-.917-1.915-2.06-2.916-4.166-3.648-.217-.076-.395-.147-.395-.16 0-.011.141-.082.314-.156a4.7 4.7 0 0 0 1.608-1.101c.861-.913 1.348-1.905 1.844-3.762.31-1.164.474-1.629.784-2.234.345-.673.436-.923.441-1.218.012-.644-.732-1.081-1.844-1.083-.691-.001-1.372.193-2.398.685-1.062.509-2.04 1.156-3.285 2.174l-.41.335-.022-.595c-.025-.65-.127-1.22-.369-2.056-.543-1.882-1.511-3.136-3.03-3.924-.675-.351-1.037-.422-1.348-.262m2.989 12.242c.056.152.163.367.237.476.13.19.424.441.517.441s.036.065-.14.158c-.232.124-.412.327-.446.504l-.025.137-.29.022c-.16.012-.409.052-.554.09-.3.076-.899.32-1.059.432a.6.6 0 0 1-.128.074c-.01 0-.075-.098-.142-.217a2.7 2.7 0 0 0-.38-.47l-.258-.251.12-.243q.27-.542.04-1.512c-.018-.077.003-.081.439-.086.665-.008 1.205-.172 1.692-.514l.142-.099.066.39c.037.215.112.515.169.668" style="stroke-width:.267865"/></svg>