<svg xmlns="http://www.w3.org/2000/svg" xml:space="preserve" id="Layer_1" width="24" height="24" x="0" y="0" viewBox="0 0 24 24"><style id="style1" type="text/css">.st1{fill:#e11e29}</style><g id="vertical-red-navy_00000051368041451234160270000002649772264205555865_" style="fill:#000;fill-opacity:1" transform="matrix(-.08767 0 0 .08767 43.431 .059)"><g id="g16" style="fill:#000;fill-opacity:1"><g id="g15" style="fill:#000;fill-opacity:1"><g id="g12" style="fill:#000;fill-opacity:1"><path id="path11" d="M330.71-.01c3.4 7.04 7.51 17.4 7.51 29.94 0 48.37-52.17 61.53-52.17 105.57 0 21.79 15.84 46.14 41.21 46.14 22.85 0 35.54-14.11 35.54-34.59 0-16.92-7.98-30.03-7.98-41.7 0-17.9 15.29-29.14 15.29-47.11 0-28.14-27.46-50.79-39.4-58.25" class="st1" style="fill:#000;fill-opacity:1"/></g><g id="g13" style="fill:#000;fill-opacity:1"><path id="path12" d="M443.24 188.17c0 31.22-23.73 44.7-41.37 44.7-14.85 0-33.63-9.44-33.63-35.48 0-21.48 13.28-22.14 13.28-45.96 0-13.21-9.38-28.69-9.38-43 0-18.8 19.41-35.56 29.56-40.41-3.88 4.19-7.56 15.5-7.56 21.65-.01 34.86 49.1 54.18 49.1 98.5" class="st1" style="fill:#000;fill-opacity:1"/></g><g id="g14" style="fill:#000;fill-opacity:1"><path id="path13" d="M372.52 242.84c-27.8-15.08-19.9-41.42-23.61-44.51-3.72-3.11-16.96 6.13-40.58-1.91-19.26-6.55-26.18-24.72-27.37-24.72-1.37 0-1.98 9.97-1.98 15.68 0 43.58 34.15 83.92 82.49 83.92 38.49 0 63.36-27.62 61.99-28.79-1.54-1.3-28.89 12.3-50.94.33" class="st1" style="fill:#000;fill-opacity:1"/></g></g></g></g></svg>