<?xml version="1.0" encoding="UTF-8" standalone="no"?>
<svg
   class="icon"
   viewBox="0 0 1024 1024"
   width="200"
   height="200"
   version="1.1"
   id="svg1"
   xmlns="http://www.w3.org/2000/svg"
   xmlns:svg="http://www.w3.org/2000/svg">
  <defs
     id="defs1" />
  <path
     d="m 946.72057,479.84627 c -45.36689,-45.36689 -105.67144,-70.34915 -169.83504,-70.34915 -3.58208,0 -7.1457,0.0923 -10.70932,0.24003 6.40713,-72.0848 -17.89195,-146.40379 -72.95263,-201.46446 -47.78572,-47.78573 -111.30307,-74.09742 -178.86411,-74.09742 -67.56104,0 -131.09685,26.31169 -178.86411,74.09742 -47.78572,47.78572 -74.09742,111.30307 -74.09742,178.86411 0,7.62577 0.35083,15.19615 1.01554,22.71114 -64.97603,-2.84351 -130.9122,20.47696 -180.415112,69.99833 -93.651157,93.65116 -93.651157,246.01893 0,339.67009 46.825582,46.82558 108.330312,70.23837 169.835042,70.23837 61.0062,0 121.99393,-23.0435 168.6718,-69.11204 L 681.48026,577.04258 c 4.00676,-3.54515 7.93967,-7.20109 11.76179,-11.02321 22.34185,-22.34186 52.05098,-34.65758 83.66194,-34.65758 31.61096,0 61.32009,12.31572 83.66195,34.65758 46.12393,46.12393 46.12393,121.19996 0,167.32389 -22.34186,22.34186 -52.05099,34.65758 -83.66195,34.65758 -31.61096,0 -61.32009,-12.31572 -83.66194,-34.65758 -23.80055,-23.80054 -62.37256,-23.80054 -86.1731,0 -23.80054,23.80055 -23.80054,62.37256 0,86.1731 46.82558,46.82558 108.33031,70.23837 169.83504,70.23837 61.50474,0 123.00947,-23.41279 169.83505,-70.23837 93.63266,-93.65116 93.63266,-246.01893 -0.0185,-339.67009 M 383.26262,387.15526 c 0,-35.0084 13.64515,-67.93033 38.40584,-92.69101 24.76069,-24.76069 57.68261,-38.40584 92.69101,-38.40584 35.0084,0 67.93033,13.64515 92.69101,38.40584 50.98006,50.98005 51.10931,133.82957 0.40622,184.97581 l -7.10877,6.64716 c -23.85594,20.79085 -54.04514,32.18335 -85.98846,32.18335 -35.0084,0 -67.93032,-13.64515 -92.69101,-38.40583 -24.76069,-24.76069 -38.40584,-57.70108 -38.40584,-92.70948 m -215.09115,346.188 c -22.34186,-22.34185 -34.65758,-52.05098 -34.65758,-83.66194 0,-31.61096 12.31572,-61.32009 34.65758,-83.66195 23.06196,-23.06197 53.36195,-34.60218 83.66194,-34.60218 30.29999,0 60.59998,11.54021 83.66195,34.60218 22.34186,22.34186 34.65758,52.05099 34.65758,83.66195 0,31.61096 -12.31572,61.32009 -34.65758,83.66194 -46.1424,46.12394 -121.19996,46.1424 -167.32389,0"
     id="path1"
     style="stroke-width:1.84643" />
</svg>
