<svg width="28" height="28" preserveAspectRatio="xMidYMid" viewBox="0 0 24 24" version="1.1" id="svg6"
   sodipodi:docname=":balena_etcher:.svg" inkscape:version="1.4.2 (ebf0e940, 2025-05-08)"
   xmlns:inkscape="http://www.inkscape.org/namespaces/inkscape"
   xmlns:sodipodi="http://sodipodi.sourceforge.net/DTD/sodipodi-0.dtd" xmlns="http://www.w3.org/2000/svg">
   <defs id="defs6" />
   <sodipodi:namedview id="namedview6" pagecolor="#ffffff" bordercolor="#000000" borderopacity="0.25"
      inkscape:showpageshadow="2" inkscape:pageopacity="0.0" inkscape:pagecheckerboard="0" inkscape:deskcolor="#d1d1d1"
      inkscape:zoom="12.121834" inkscape:cx="12.745596" inkscape:cy="24.872474" inkscape:window-width="1712"
      inkscape:window-height="1016" inkscape:window-x="1" inkscape:window-y="43" inkscape:window-maximized="0"
      inkscape:current-layer="svg6" />
   <path fill="#ffc600"
      d="m 12.421889,14.236652 v 6.73872 c 0.285416,-0.0508 0.561158,-0.149964 0.81271,-0.290254 l 5.577705,-3.207301 c 0.815129,-0.471662 1.320653,-1.342424 1.320653,-2.285747 V 8.7943978 c 0,-0.2588082 -0.04353,-0.5103617 -0.116096,-0.7522404 l -6.061462,3.4951366 c -1.245671,0.882854 -1.516574,1.717334 -1.533506,2.694521"
      id="path1" style="fill:#000000;fill-opacity:1;stroke-width:2.41877" />
   <path fill="#f6eb61"
      d="m 22.227621,6.7674612 -2.210765,1.2771152 c 0.07256,0.2418787 0.116097,0.493431 0.116097,0.7498214 V 15.19207 c 0,0.940906 -0.507943,1.814085 -1.320653,2.285747 l -5.577701,3.204882 a 2.5639061,2.5639061 0 0 1 -0.81271,0.292673 v 2.544555 c 0.394261,-0.05563 0.77401,-0.186245 1.119895,-0.382167 l 7.241825,-4.165137 c 1.011049,-0.582927 1.635095,-1.659283 1.635095,-2.827555 V 7.8413991 A 3.1686009,3.1686009 0 0 0 22.227621,6.7674612"
      id="path2" style="fill:#000000;fill-opacity:1;stroke-width:2.41877" />
   <path fill="#439879"
      d="m 11.913946,12.117801 c 0.328954,-0.539387 0.822385,-1.003793 1.52625,-1.448849 l 6.10258,-3.519323 A 2.5784187,2.5784187 0 0 0 18.812304,6.5110707 L 13.234599,3.3037692 a 2.6461446,2.6461446 0 0 0 -2.631632,0 L 5.04945,6.5086516 C 4.7567776,6.6779658 4.5100621,6.9053313 4.3093035,7.1617217 L 10.38044,10.668952 c 0.711121,0.445056 1.202133,0.909462 1.533506,1.448849"
      id="path3" style="fill:#000000;fill-opacity:1;stroke-width:2.41877" />
   <path fill="#28cdfb"
      d="m 5.04945,6.5086516 5.553517,-3.2024635 a 2.6461446,2.6461446 0 0 1 2.631632,-0.00242 l 5.577705,3.2073018 c 0.285416,0.1644774 0.529712,0.3870047 0.728053,0.6385583 L 21.748702,5.8749316 A 3.1927886,3.1927886 0 0 0 20.783609,5.0138463 L 13.541784,0.85112687 a 3.2726085,3.2726085 0 0 0 -3.253258,0 L 3.0757259,5.0114275 A 3.2363268,3.2363268 0 0 0 2.1009578,5.8894444 L 4.3093035,7.1617217 C 4.5100621,6.9004945 4.7616152,6.6779658 5.04945,6.5086516"
      id="path4" style="fill:#000000;fill-opacity:1;stroke-width:2.41877" />
   <path fill="#fdd757"
      d="M 10.602967,20.682699 5.04945,17.477817 A 2.6437258,2.6437258 0 0 1 3.7287964,15.19449 V 8.7943978 c 0,-0.2515522 0.041119,-0.4982677 0.1112643,-0.7328891 L 1.6268771,6.7843934 C 1.5059378,7.1230219 1.4454687,7.4785826 1.4430499,7.8365623 v 8.3133447 c 0,1.165851 0.6240451,2.239789 1.632676,2.822716 l 7.2103821,4.16272 c 0.343466,0.195919 0.718377,0.324115 1.117476,0.384584 v -2.546974 a 2.5566498,2.5566498 0 0 1 -0.800617,-0.290254"
      id="path5" style="fill:#000000;fill-opacity:1;stroke-width:2.41877" />
   <path fill="#ec8b00"
      d="M 9.8628207,11.534876 3.8400603,8.0615087 A 2.5784187,2.5784187 0 0 0 3.7287959,8.7943978 V 15.19207 c 0,0.940906 0.5079437,1.814085 1.3206537,2.285747 l 5.5535174,3.204882 c 0.251553,0.145127 0.522456,0.237041 0.800616,0.290254 v -6.741138 c -0.01694,-0.977187 -0.285416,-1.814086 -1.5431816,-2.699358"
      id="path6" style="fill:#000000;fill-opacity:1;stroke-width:2.41877" />
</svg>