<?xml version="1.0" encoding="UTF-8" standalone="no"?>
<svg
   width="28"
   height="28"
   preserveAspectRatio="xMidYMid"
   viewBox="0 0 24 24"
   version="1.1"
   id="svg1"
   sodipodi:docname=":balena_etcher:.svg"
   inkscape:version="1.4.3 (0d15f75, 2025-12-25)"
   xmlns:inkscape="http://www.inkscape.org/namespaces/inkscape"
   xmlns:sodipodi="http://sodipodi.sourceforge.net/DTD/sodipodi-0.dtd"
   xmlns="http://www.w3.org/2000/svg"
   xmlns:svg="http://www.w3.org/2000/svg">
  <defs
     id="defs1" />
  <sodipodi:namedview
     id="namedview1"
     pagecolor="#505050"
     bordercolor="#ffffff"
     borderopacity="1"
     inkscape:showpageshadow="0"
     inkscape:pageopacity="0"
     inkscape:pagecheckerboard="1"
     inkscape:deskcolor="#505050"
     inkscape:zoom="11.567859"
     inkscape:cx="25.242354"
     inkscape:cy="22.778631"
     inkscape:window-width="1710"
     inkscape:window-height="1044"
     inkscape:window-x="0"
     inkscape:window-y="40"
     inkscape:window-maximized="0"
     inkscape:current-layer="svg1" />
  <path
     d="M 11.634588,0.15602754 C 11.285913,0.2115764 10.988513,0.30472755 10.691967,0.45257296 10.370638,0.61409194 3.1296316,4.7853834 2.8792345,4.9537392 2.6758403,5.0904748 2.1212063,5.6288714 2.1212063,5.6886932 c 0,0.02222 1.8886611,1.1306329 4.1977842,2.4629507 2.3082684,1.3331724 4.3148645,2.5014071 4.4584365,2.5954131 0.404225,0.26578 0.844342,0.660604 1.095594,0.981078 0.124772,0.15981 0.240997,0.291418 0.257234,0.291418 0.01624,0 0.136736,-0.135027 0.268344,-0.300818 0.267489,-0.336712 0.529851,-0.578563 0.969114,-0.891346 C 13.53265,10.710309 15.560611,9.5241279 17.874006,8.19181 20.188257,6.8586375 22.106829,5.7450967 22.137595,5.7160404 22.235018,5.6237439 21.651328,5.092184 21.083021,4.7546179 19.85411,4.0265006 13.563416,0.4371902 13.381386,0.361131 12.919049,0.16799192 12.141365,0.07654996 11.634588,0.15602754 M 21.723115,7.1654381 c -0.526432,0.3042368 -2.384328,1.3741932 -4.127707,2.377491 -1.744234,1.0032979 -3.295329,1.9083169 -3.448302,2.0108679 -0.352095,0.235869 -0.879381,0.76572 -1.052864,1.056283 -0.07349,0.123063 -0.178611,0.335857 -0.234161,0.472592 -0.208522,0.517887 -0.207666,0.477721 -0.208522,5.746316 l -0.0017,4.895136 h 0.09572 c 0.1487,0 0.61531,-0.154682 0.906729,-0.301673 0.37004,-0.186303 7.374323,-4.213167 7.691379,-4.422543 0.729826,-0.480284 1.217802,-1.161399 1.44256,-2.015142 l 0.08888,-0.339275 0.01452,-4.347339 c 0.01538,-4.4704006 0.0017,-5.0011058 -0.140154,-5.4608794 L 22.680264,6.6125134 21.723115,7.1654381 M 1.5905011,6.6851542 c -0.0094,0.016238 -0.050421,0.1649374 -0.092297,0.3290201 -0.070932,0.284581 -0.075205,0.524723 -0.075205,4.9848687 l 8.546e-4,4.686614 0.089733,0.318765 c 0.2170678,0.766574 0.6247109,1.387012 1.206692,1.834821 0.2051035,0.158101 7.4110719,4.341357 7.9221209,4.599445 0.264071,0.133318 0.732391,0.285436 0.875963,0.285436 h 0.09657 l -0.01196,-5.034435 -0.01111,-5.03529 -0.0923,-0.298254 C 11.306423,12.728014 10.926981,12.187909 10.370638,11.746937 10.190318,11.604218 8.4520664,10.576138 5.8694721,9.0857193 3.5560759,7.7499829 1.650323,6.6569524 1.6349402,6.6560979 c -0.015382,0 -0.035038,0.012819 -0.044439,0.029057"
     fill="#ffc600"
     stroke="none"
     fill-rule="evenodd"
     id="path1"
     style="fill:#000000;fill-opacity:1;stroke-width:0.854597" />
</svg>
