<?xml version="1.0" encoding="UTF-8" standalone="no"?>
<svg
   width="28"
   height="28"
   preserveAspectRatio="xMidYMid"
   viewBox="-13 0 9.87 9.87"
   version="1.1"
   id="svg6"
   sodipodi:docname=":balena_etcher:.svg"
   inkscape:version="1.4.2 (ebf0e940, 2025-05-08)"
   xmlns:inkscape="http://www.inkscape.org/namespaces/inkscape"
   xmlns:sodipodi="http://sodipodi.sourceforge.net/DTD/sodipodi-0.dtd"
   xmlns="http://www.w3.org/2000/svg"
   xmlns:svg="http://www.w3.org/2000/svg">
  <defs
     id="defs6" />
  <sodipodi:namedview
     id="namedview6"
     pagecolor="#ffffff"
     bordercolor="#000000"
     borderopacity="0.25"
     inkscape:showpageshadow="2"
     inkscape:pageopacity="0.0"
     inkscape:pagecheckerboard="0"
     inkscape:deskcolor="#d1d1d1"
     inkscape:zoom="12.121834"
     inkscape:cx="12.663101"
     inkscape:cy="24.872474"
     inkscape:window-width="1712"
     inkscape:window-height="1016"
     inkscape:window-x="1"
     inkscape:window-y="43"
     inkscape:window-maximized="0"
     inkscape:current-layer="svg6" />
  <path
     fill="#ffc600"
     d="m -7.8772393,5.9190798 v 2.786 c 0.118,-0.021 0.232,-0.062 0.336,-0.12 l 2.306,-1.326 c 0.337,-0.195 0.546,-0.555 0.546,-0.945 v -2.645 c 0,-0.107 -0.018,-0.211 -0.048,-0.311 l -2.506,1.445 c -0.515,0.365 -0.627,0.71 -0.634,1.114"
     id="path1"
     style="fill:#000000;fill-opacity:1" />
  <path
     fill="#f6eb61"
     d="m -3.8232393,2.8310798 -0.914,0.528 c 0.03,0.1 0.048,0.204 0.048,0.31 v 2.645 c 0,0.389 -0.21,0.75 -0.546,0.945 l -2.306,1.325 a 1.06,1.06 0 0 1 -0.336,0.121 v 1.052 c 0.163,-0.023 0.32,-0.077 0.463,-0.158 l 2.994,-1.722 c 0.418,-0.241 0.676,-0.686 0.676,-1.169 v -3.433 a 1.31,1.31 0 0 0 -0.079,-0.444"
     id="path2"
     style="fill:#000000;fill-opacity:1" />
  <path
     fill="#439879"
     d="m -8.0872393,5.0430798 c 0.136,-0.223 0.34,-0.415 0.631,-0.599 l 2.523,-1.455 a 1.066,1.066 0 0 0 -0.302,-0.264 l -2.306,-1.326 a 1.094,1.094 0 0 0 -1.088,0 l -2.2959997,1.325 c -0.121,0.07 -0.223,0.164 -0.306,0.27 l 2.5099997,1.45 c 0.294,0.184 0.497,0.376 0.634,0.599"
     id="path3"
     style="fill:#000000;fill-opacity:1" />
  <path
     fill="#28cdfb"
     d="m -10.925239,2.7240798 2.2959997,-1.324 a 1.094,1.094 0 0 1 1.088,-0.001 l 2.306,1.326 c 0.118,0.068 0.219,0.16 0.301,0.264 l 0.913,-0.527 a 1.32,1.32 0 0 0 -0.399,-0.356 l -2.994,-1.72100004 a 1.353,1.353 0 0 0 -1.345,0 L -11.741239,2.1050798 a 1.338,1.338 0 0 0 -0.403,0.363 l 0.913,0.526 c 0.083,-0.108 0.187,-0.2 0.306,-0.27"
     id="path4"
     style="fill:#000000;fill-opacity:1" />
  <path
     fill="#fdd757"
     d="m -8.6292393,8.5840798 -2.2959997,-1.325 a 1.093,1.093 0 0 1 -0.546,-0.944 v -2.646 c 0,-0.104 0.017,-0.206 0.046,-0.303 l -0.915,-0.528 c -0.05,0.14 -0.075,0.287 -0.076,0.435 v 3.437 c 0,0.482 0.258,0.926 0.675,1.167 l 2.9809997,1.721 c 0.142,0.081 0.297,0.134 0.462,0.159 v -1.053 a 1.057,1.057 0 0 1 -0.331,-0.12"
     id="path5"
     style="fill:#000000;fill-opacity:1" />
  <path
     fill="#ec8b00"
     d="m -8.9352393,4.8020798 -2.4899997,-1.436 a 1.066,1.066 0 0 0 -0.046,0.303 v 2.645 c 0,0.389 0.21,0.75 0.546,0.945 l 2.2959997,1.325 c 0.104,0.06 0.216,0.098 0.331,0.12 v -2.787 c -0.007,-0.404 -0.118,-0.75 -0.638,-1.116"
     id="path6"
     style="fill:#000000;fill-opacity:1" />
</svg>
