<svg xmlns="http://www.w3.org/2000/svg" viewBox="0 0 24 24"><path d="M1.960 7.240 C 1.960 11.112,1.965 14.280,1.972 14.280 C 1.978 14.280,4.061 13.456,6.601 12.450 L 11.219 10.620 11.247 10.460 C 11.263 10.372,11.276 8.027,11.278 5.250 L 11.280 0.200 6.620 0.200 L 1.960 0.200 1.960 7.240 M12.680 3.130 L 12.680 6.061 15.750 7.259 C 21.492 9.499,21.857 9.638,21.889 9.587 C 21.905 9.561,21.919 7.439,21.919 4.870 L 21.920 0.200 17.300 0.200 L 12.680 0.200 12.680 3.130 M12.653 9.627 C 12.668 10.719,12.680 14.382,12.680 17.767 L 12.680 23.920 17.300 23.920 L 21.920 23.920 21.910 17.673 L 21.900 11.425 19.820 10.570 C 16.203 9.082,12.675 7.640,12.650 7.640 C 12.638 7.640,12.639 8.534,12.653 9.627 M9.380 12.980 C 8.390 13.364,6.320 14.169,4.780 14.770 L 1.980 15.862 1.970 19.891 L 1.960 23.920 6.620 23.920 L 11.280 23.920 11.280 18.286 C 11.280 13.054,11.270 12.277,11.205 12.282 C 11.191 12.283,10.370 12.597,9.380 12.980 " stroke="none" fill-rule="evenodd"></path></svg>