<svg xmlns="http://www.w3.org/2000/svg" viewBox="0 0 24 24">
  <path d="M21.058 10.578s1.976.101 1.976-1.061c0-1.517-2.631-2.884-2.631-2.884s.411-.873.669-1.362c.258-.489.982-2.392 1.045-2.826.081-.55-.044-.72-.044-.72-.177 1.172-2.086 4.547-2.24 4.661-1.862-.87-4.42-1.115-4.42-1.115S12.908 0 10.551 0C8.213 0 8.227 4.514 8.227 4.514s-.66-1.279-1.491-1.279c-1.212 0-1.61 1.828-1.61 3.814-2.391 0-4.403.536-4.584.586-.178.05-.743.462-.489.412.526-.167 2.983-.55 5.133-.362.12 1.885 1.223 4.343 1.223 4.343s-2.364 3.423-2.364 5.864c0 .643.281 1.818 1.975 1.818 1.424 0 3.021-.854 3.319-1.025-.262.372-.456 1.086-.456 1.413 0 .268.161 1.029 1.256 1.029 1.406 0 2.98-1.079 2.98-1.079s1.487 2.465 2.756 3.593c.342.305.67.362.67.362s-1.263-1.212-2.923-4.339c1.543-.952 3.15-3.202 3.15-3.202s.191.007 1.658.007c2.297 0 5.558-.482 5.558-2.307.004-1.883-2.93-3.584-2.93-3.584Zm.255-1.135c0 .667-.633.66-.633.66l-.481.03s-.915-.479-1.471-.707c0 0 .861-1.322 1.062-1.69.15.09 1.523.947 1.523 1.707Zm-9.614-6.787c1.082 0 2.622 2.545 2.622 2.545s-2.404-.214-4.383.947c.053-1.832.67-3.492 1.761-3.492ZM7.423 4.718c.342 0 .676.419.817.77 0 .235.121 1.601.121 1.601l-1.983-.077c0-1.785.7-2.294 1.045-2.294Zm-.207 12.407c-1.086 0-1.306-.602-1.306-1.145 0-1.229.981-2.951.981-2.951s1.101 2.315 3.021 3.289c-.952.559-1.739.807-2.696.807Zm3.519 2.421c-.76 0-.854-.492-.854-.606 0-.351.278-.771.278-.771s1.276-.859 1.356-.954l.944 1.762s-.964.569-1.724.569Zm2.371-.957c-.462-.808-.804-1.652-.804-1.652s1.898.121 2.92-.93c-.636.284-1.651.646-2.83.535 2.465-2.169 3.905-3.743 5.121-5.368-.104-.127-.66-.515-.797-.579-.733.884-3.59 3.934-6.235 5.445-3.349-1.825-4.052-7.193-4.123-8.308l1.829.174S7.5 9.125 7.5 10.023c0 .893.107.94.107.94s-.023-1.56.942-2.765c.736 3.911 1.503 5.913 2.099 7.109.304-.128.871-.379.871-.379s-1.688-4.866-1.595-8.157c.768-.409 1.903-.83 3.182-.83 3.369 0 6.078 1.446 6.078 1.446l-1.058 1.48s-.945-1.707-2.281-2.012c.703.522 1.494 1.215 1.902 2.21-2.793-1.088-6.161-1.664-7.243-1.792-.094.399-.081.968-.081.968s4.518.834 7.806 2.712c-.024 4.112-4.504 7.27-5.123 7.636Zm4.279-3.075s1.403-1.838 1.38-4.276c0 0 2.267 1.403 2.267 2.773 0 1.527-3.647 1.503-3.647 1.503Z"/>
</svg>
