<svg xmlns="http://www.w3.org/2000/svg" width="24" height="24" viewBox="0 0 24 24"><title>Bazarr SVG Icon</title><path fill="currentColor" d="M21.369 7.637a2.8 2.8 0 0 0-2.46-2.308 110 110 0 0 0-13.884 0 2.8 2.8 0 0 0-2.458 2.308 36.6 36.6 0 0 0 0 8.313 2.8 2.8 0 0 0 2.458 2.318 110 110 0 0 0 13.885 0 2.8 2.8 0 0 0 2.459-2.318 36.6 36.6 0 0 0 0-8.313m-4.664 8.973a.46.46 0 0 1-.467.467H7.704a.46.46 0 0 1-.467-.467.46.46 0 0 1 .467-.448h8.528a.46.46 0 0 1 .467.448zm1.755-1.369H5.484a.467.467 0 0 1 0-.934H18.46a.467.467 0 0 1 0 .934m1.86-11.617A11.806 11.806 0 1 0 3.624 20.32a11.7 11.7 0 0 0 8.348 3.458A11.806 11.806 0 0 0 20.32 3.624m-8.348 19.6a11.252 11.252 0 1 1 11.253-11.252 11.263 11.263 0 0 1-11.253 11.253" style="stroke-width:1.18062"/></svg>