<svg xmlns="http://www.w3.org/2000/svg" width="24" height="24" viewBox="0 0 24 24"><path d="M17 2.72h-.96c-1.32.04-2.6.28-3.8.68l4 1.48.92.36.84.32-1.4 6.24c-.56 2.76-1.56 5.36-2.92 7.76l2.6-2.96.92-1.04.12-.12 1.36-1.56c.2-.24.36-.48.44-.8l.48-1.6 2.36-7.84c-1.56-.56-3.24-.88-4.96-.92Z"/><path d="M17 2.72h-.96c-1.32.04-2.6.28-3.8.68l4 1.48.92.36.84.32 3.88-1.84c-1.48-.64-3.16-.96-4.88-1Z"/><path d="M3.67998 9.12c.2.2.36.44.56.64.44.44.88.88 1.32 1.28l-.56-2.44-.2-1.04-.44-2L11.2 3c1.48-.52 3.12-.84 4.76-.84h.08c.28 0 .6 0 .88.04.4.04.8.08 1.16.12l-1.2-.44-1-.36-2.24-.8-1.72-.6c-.44-.16-.96-.16-1.4 0L8.55998.8l-6.2 2.2-1.88.68c.76 2 1.84 3.84 3.2 5.44Z"/><path d="M3.67998 9.12c.2.2.36.44.56.64.44.44.88.88 1.32 1.28l-.56-2.44-.2-1.04-.44-2-3.88-1.88c.76 2 1.84 3.84 3.2 5.44Z"/><path d="m13.44 15-1.08.92-1.16.92-5.24002-4.28c-.76-.6-1.44-1.28-2.12-2.04-.2-.2-.4-.44-.56-.68-.68-.88-1.28-1.8-1.8-2.76l1.08 3.64.12.44.36 1.24.24.76c.08.28.24.56.44.8.2.2.44.52.76.88.2.24.44.52.68.8 2.28 2.6 5.88002 6.72 6.00002 6.84 1.92-2.68 3.4-5.76 4.24-9.04L13.44 15Z"/><path d="m13.44 15-1.08.92-1.16.92v5.56c1.92-2.68 3.4-5.76 4.24-9.04l-2 1.64ZM4.31998 5.6l-3.84-1.92 3.88 1.8-.04.12Z"/><path d="M4.32001 5.48 10.16 3.4 4.36001 5.6l-.04-.12ZM11.24 16.84l-.04 5.2-.08-5.2h.12Zm6.72-11.32 3.96-1.84-3.88 1.96-.08-.12Z"/><path d="m4.40003 5.52 1.2 5.52-1.32-5.48.12-.04ZM11.16 16.8l4.28-3.44-4.2 3.52-.08-.08Z"/><path d="M11.16 16.88 6 12.6l5.24 4.2-.08.08Zm6.92-11.36-1.72 7.44 1.6-7.48.12.04Z"/><path d="m18 5.6-5.76-2.2 5.8 2.08-.04.12Z"/></svg>
