<svg xmlns="http://www.w3.org/2000/svg" width="24" height="24" viewBox="0 0 24 24"><path d="m14.396-7.366-.055.001h-.016a.8.8 0 0 0 .229.021.6.6 0 0 0-.158-.022m-5.543.063h-.006a.1.1 0 0 0-.033.007h-.001v.001h.002a.1.1 0 0 0 .038-.008M4.697-6.2l-.074.018-.03.014zm20.887 4.01-.028.065c.054.05.128.111.182.15l-.042-.063-.056-.089zm.25.362q0 .007.008.01zM12.03.099c-.024 0-2.699 2.655-5.944 5.9s-5.9 5.92-5.9 5.944C.186 12 12.017 23.83 12.075 23.83s11.843-11.786 11.843-11.844S12.087.099 12.03.099m-8.523 3.32v4.406l2.192-2.192A310 310 0 0 0 7.89 3.431c0-.006-.987-.011-2.192-.011zm12.642 0 2.213 2.214a316 316 0 0 0 2.224 2.214c.006 0 .012-.996.012-2.214V3.42h-2.225Zm-8.17 2.518 2.8.016c1.843.011 2.846.033 2.934.065.073.026.242.072.376.103 1.008.23 1.974 1.134 2.224 2.08.294 1.114.184 2.07-.343 2.978l-.2.344.237.28c.737.868.997 2.206.672 3.46-.368 1.42-1.305 2.27-2.89 2.622-.302.067-.66.076-3.065.077L8 17.964l-.01-6.013zm.93.936.01 5.08.012 5.082 1.815.014c1.714.013 2.699-.028 2.989-.123.06-.02.2-.062.31-.093 2.356-.674 2.475-4.51.158-5.093l-.214-.054.106-.081a.4.4 0 0 1 .163-.082c.19-.003.798-.588.97-.933.755-1.52.046-3.247-1.47-3.577-.583-.127-.842-.14-2.798-.14Zm1.085.848c.032-.084 2.977-.05 3.21.037.654.244.909.497 1.153 1.144.295.781-.114 1.848-.848 2.208-.422.207-.474.213-2.032.213H9.993L9.98 9.552c-.006-.974-.001-1.798.012-1.831m.952.879v1.815h.83c1.353-.001 1.724-.188 1.711-.863-.015-.803-.28-.952-1.694-.952zM10 12.172c.066-.066 2.83-.033 3.167.038 1.29.27 1.92 1.42 1.493 2.723-.208.634-.638 1.024-1.343 1.221-.31.087-3.105.143-3.249.066l-.097-.052v-1.984c0-1.09.013-1.996.03-2.012m1.96.908c-.504-.01-.977.001-.993.042-.013.034-.019.54-.012 1.124l.012 1.062.531.014c1.834.049 2.303-.189 2.302-1.165-.002-.625-.133-.822-.664-.991-.137-.044-.672-.076-1.176-.086m-8.442 3.002c-.006 0-.012.997-.012 2.214v2.214h4.45l-2.214-2.214a316 316 0 0 0-2.224-2.214m17.067.045c-.006 0-.997.986-2.202 2.191l-2.191 2.192h4.405v-2.192c0-1.205-.006-2.191-.011-2.191" style="fill:#000;fill-opacity:1;stroke-width:.11069"/></svg>