<svg xmlns="http://www.w3.org/2000/svg" viewBox="0 0 24 24"><path fill-rule="evenodd" d="M2.438 6.75A6.747 6.747 0 0 1 9.203 0h5.594c3.737 0 6.765 3.014 6.765 6.75a6.76 6.76 0 0 1-2.106 4.898l-1.282 1.278c1.867 1.089 3.373 2.797 3.373 5.114 0 3.47-2.812 5.96-6.282 5.96H5.813V12.598C3.814 11.432 2.438 9.25 2.438 6.75m6.765-4.875a4.87 4.87 0 0 0-4.89 4.875 4.87 4.87 0 0 0 4.89 4.875h2.329l-1.296 6.55 7.903-7.861a4.9 4.9 0 0 0 1.548-3.564c0-2.719-2.226-4.904-4.89-4.875z" clip-rule="evenodd"/></svg>
