<svg xmlns="http://www.w3.org/2000/svg" xml:space="preserve" viewBox="0 0 24 24">
  <g transform="scale(0.1642) translate(6, 0)">
    <path
      d="M121.3 28.2 77.7 3.1C70.6-1 61.9-1 54.9 3.1L43.5 9.7v63.5c0 8.1 4.3 15.7 11.4 19.8 3.5 2 7.5 3.1 11.4 3.1s7.9-1 11.4-3.1c7.1-4.1 11.4-11.6 11.4-19.8 0-8.1-4.3-15.7-11.4-19.8-3.5-2-7.5-3.1-11.4-3.1V36c3.9 0 7.9 1 11.4 3.1l12.4 7.2c7.1 4.1 11.4 11.6 11.4 19.8v14.3c0 8.1-4.3 15.7-11.4 19.8l-12.4 7.2c-3.5 2-7.5 3.1-11.4 3.1s-7.9-1-11.4-3.1l-12.4-7.2c-7.1-4.1-11.4-11.6-11.4-19.8V16.8L11.4 28.2C4.3 32.3 0 39.8 0 48v50.3c0 8.1 4.3 15.7 11.4 19.8L55 143.2c7.1 4.1 15.8 4.1 22.8 0l43.6-25.1c7.1-4.1 11.4-11.6 11.4-19.8V48c-.1-8.2-4.5-15.7-11.5-19.8m-69 27c-1.3 1-2.4 2.1-3.4 3.3v-16l3.4-2zM61 51c-1.2.3-2.3.6-3.4 1.1V37.7c1.1-.5 2.3-.8 3.4-1.1z"
      style="fill:#fad83b" />
  </g>
</svg>