<svg xmlns="http://www.w3.org/2000/svg" viewBox="0 0 24 24"><path d="M3.405 3.058 C 2.421 3.221,1.844 3.455,1.310 3.910 C 0.699 4.431,0.300 5.234,0.163 6.219 C 0.104 6.639,0.104 17.499,0.162 18.242 C 0.301 20.016,0.829 20.865,2.048 21.278 C 2.668 21.488,2.812 21.499,5.020 21.499 C 7.234 21.499,7.367 21.489,8.037 21.261 C 8.886 20.972,9.477 20.331,9.700 19.456 C 9.895 18.689,9.893 18.729,9.917 15.198 C 9.939 12.051,9.944 11.850,10.013 11.745 C 10.124 11.576,10.316 11.515,10.745 11.515 C 11.330 11.513,11.461 11.642,11.553 12.309 C 11.577 12.484,11.584 14.101,11.570 16.605 C 11.558 18.813,11.561 20.723,11.577 20.848 C 11.611 21.122,11.726 21.305,11.930 21.410 C 12.060 21.477,12.169 21.488,12.730 21.490 C 13.438 21.493,13.520 21.474,13.727 21.254 C 13.928 21.039,13.932 20.969,13.902 18.456 L 13.873 16.131 14.081 16.104 C 14.364 16.066,14.809 16.110,15.104 16.205 C 15.389 16.296,15.648 16.501,15.764 16.727 C 15.898 16.990,15.963 17.694,15.951 18.760 C 15.942 19.638,15.947 19.721,16.033 20.019 C 16.211 20.636,16.517 21.055,16.943 21.263 C 17.203 21.390,17.518 21.421,19.140 21.479 C 21.520 21.565,22.298 21.395,23.060 20.624 C 23.471 20.207,23.684 19.768,23.842 19.009 C 23.998 18.257,24.005 17.934,23.991 11.880 L 23.978 6.020 23.868 5.640 C 23.569 4.613,23.040 3.936,22.200 3.503 C 21.531 3.159,20.902 3.034,19.800 3.026 C 19.393 3.023,15.991 3.025,12.240 3.031 C 8.489 3.037,5.042 3.033,4.580 3.022 C 3.975 3.009,3.646 3.019,3.405 3.058 M12.352 5.362 C 16.032 5.362,19.182 5.351,19.352 5.337 C 19.818 5.301,20.696 5.377,20.962 5.477 C 21.372 5.630,21.613 5.980,21.672 6.504 C 21.689 6.656,21.691 9.327,21.677 12.440 C 21.654 17.519,21.644 18.135,21.584 18.439 C 21.506 18.830,21.422 18.998,21.264 19.074 C 21.059 19.173,20.347 19.209,19.280 19.174 L 18.260 19.140 18.236 18.200 C 18.201 16.867,18.079 16.153,17.780 15.540 C 17.493 14.951,17.094 14.567,16.420 14.231 C 15.838 13.941,15.260 13.804,14.470 13.771 L 13.920 13.748 13.919 13.144 C 13.918 11.593,13.633 10.638,12.979 9.985 C 12.419 9.426,11.743 9.190,10.700 9.190 C 10.225 9.190,10.080 9.205,9.748 9.293 C 8.402 9.648,7.712 10.551,7.559 12.160 C 7.529 12.479,7.524 13.609,7.544 15.844 L 7.572 19.067 7.476 19.094 C 7.037 19.215,4.066 19.265,3.285 19.165 C 2.795 19.102,2.661 19.045,2.606 18.874 C 2.476 18.468,2.467 18.066,2.457 12.280 C 2.447 6.161,2.445 6.222,2.627 5.930 C 2.849 5.571,3.104 5.446,3.820 5.343 C 3.886 5.334,4.327 5.334,4.800 5.344 C 5.273 5.354,8.671 5.362,12.352 5.362 " stroke="none" fill-rule="evenodd" fill="#000"></path></svg>