<svg xmlns="http://www.w3.org/2000/svg" viewBox="0 0 24 24"><path d="M3.480 2.824 C 2.645 2.920,2.203 3.024,1.775 3.225 C 0.893 3.639,0.366 4.345,0.111 5.452 C 0.027 5.819,0.026 5.837,0.036 11.980 C 0.041 15.603,0.061 18.287,0.084 18.498 C 0.191 19.485,0.421 20.067,0.872 20.489 C 1.127 20.727,1.351 20.852,1.782 20.996 C 2.356 21.188,2.681 21.208,4.940 21.190 C 6.872 21.174,6.998 21.168,7.313 21.086 C 8.273 20.837,8.895 20.275,9.137 19.438 C 9.336 18.750,9.331 18.840,9.356 15.060 C 9.379 11.687,9.384 11.493,9.455 11.360 C 9.632 11.028,9.852 10.896,10.342 10.831 C 11.039 10.737,11.473 10.896,11.691 11.323 C 11.916 11.763,11.917 11.779,11.919 16.607 L 11.920 21.034 12.029 21.120 C 12.131 21.200,12.175 21.205,12.732 21.193 L 13.327 21.180 13.430 21.060 L 13.533 20.941 13.504 18.293 L 13.476 15.645 13.668 15.615 C 13.774 15.599,14.076 15.586,14.340 15.587 C 15.086 15.591,15.565 15.739,15.936 16.081 C 16.345 16.457,16.445 16.959,16.457 18.680 C 16.464 19.752,16.470 19.835,16.556 20.080 C 16.731 20.582,16.993 20.904,17.320 21.021 C 17.571 21.110,18.675 21.169,20.200 21.175 C 21.273 21.179,21.508 21.169,21.783 21.109 C 22.226 21.011,22.494 20.903,22.800 20.700 C 23.287 20.377,23.601 19.884,23.778 19.168 C 23.985 18.329,23.980 18.494,23.980 11.900 C 23.980 6.021,23.977 5.725,23.905 5.420 C 23.589 4.068,22.770 3.248,21.448 2.960 C 20.822 2.823,20.259 2.804,18.060 2.846 C 16.196 2.882,5.960 2.865,4.260 2.824 C 3.908 2.815,3.557 2.815,3.480 2.824 M21.169 4.517 C 21.825 4.685,22.231 5.111,22.364 5.767 C 22.421 6.050,22.414 17.217,22.356 17.899 C 22.250 19.142,22.058 19.451,21.320 19.564 C 20.922 19.625,18.136 19.592,18.069 19.525 C 18.038 19.494,18.021 19.170,18.016 18.510 C 17.999 16.388,17.724 15.441,16.940 14.797 C 16.507 14.441,15.895 14.177,15.224 14.056 C 14.889 13.995,13.825 13.972,13.629 14.021 L 13.520 14.049 13.520 13.154 C 13.519 11.892,13.448 11.365,13.194 10.746 C 13.059 10.419,12.784 10.021,12.557 9.827 C 12.350 9.649,11.926 9.428,11.640 9.347 C 11.254 9.238,10.608 9.188,10.205 9.237 C 8.775 9.411,7.984 10.181,7.781 11.596 C 7.708 12.102,7.696 13.575,7.738 16.660 C 7.769 18.901,7.766 19.152,7.708 19.265 C 7.601 19.471,7.346 19.540,6.440 19.605 C 5.185 19.695,3.009 19.647,2.399 19.516 C 1.999 19.430,1.803 19.189,1.721 18.680 C 1.629 18.108,1.606 16.423,1.618 11.240 C 1.630 5.830,1.631 5.820,1.716 5.560 C 1.935 4.894,2.422 4.539,3.242 4.448 C 3.384 4.433,7.406 4.424,12.180 4.429 C 20.696 4.437,20.866 4.439,21.169 4.517 " stroke="none" fill-rule="evenodd" fill="black"></path></svg>