<svg xmlns="http://www.w3.org/2000/svg" width="24" height="24" viewBox="0 0 24 24"><path d="M.965 11.29c-.016.038-.02.995-.008 1.257.023.402.059.75.113 1.101l.024.165.152.148c.563.55 1.29 1.078 2.078 1.516l.149.082-.07.007c-.423.055-1.2-.101-1.805-.359a1 1 0 0 0-.192-.07A11.128 11.128 0 0 0 9.34 22.71c.316.078.265.09.414-.086.293-.344.484-.648.89-1.434.196-.382.45-.851.47-.87.023-.02.003.327-.032.511-.086.504-.305 1.16-.637 1.926-.035.086-.066.156-.066.156 0 .004.039.008.328.043a11.3 11.3 0 0 0 2.902-.035c.008 0 .004-.024-.007-.047-.473-1.078-.739-1.984-.723-2.453l.004-.113.105.187c.055.106.168.317.25.469.426.816.485.922.637 1.164.148.23.371.516.473.613l.035.035.246-.062c3.5-.875 6.34-3.363 7.672-6.715.105-.262.304-.852.293-.863a.5.5 0 0 0-.137.05c-.602.266-1.422.434-1.852.38l-.078-.008.137-.079c.836-.464 1.5-.949 2.09-1.52l.152-.144.035-.27c.04-.276.063-.495.09-.816.016-.203.02-1.34.004-1.418l-.008-.042h-.761l-.067.078c-.11.129-.512.52-.668.648-.207.172-.515.395-.527.383a2 2 0 0 1 .16-.211c.238-.3.64-.86.64-.895 0-.003-.706-.003-1.57-.003h-1.57l-.129.253c-.992 1.997-2.691 2.989-4.633 2.704-1.52-.227-2.77-1.387-3.035-2.817l-.023-.14H7.059l-.02.105c-.105.57-.16 1.473-.117 1.95a1 1 0 0 1 .008.128c-.012.008-.313-.305-.453-.469a7.5 7.5 0 0 1-1.016-1.52l-.098-.194H3.777c-1.457 0-1.582 0-1.578.02.031.07.48.694.684.94.14.172.14.176-.008.079a6.4 6.4 0 0 1-1.004-.883l-.148-.156h-.375c-.344 0-.375 0-.383.02" style="stroke:none;fill-rule:evenodd;fill:#000;fill-opacity:1"/><path d="M11.152.957a.07.07 0 0 0 .04 0q.015-.007-.02-.008-.036.001-.02.008m-.351.027c-1.395.16-2.57.512-3.828 1.145a11.1 11.1 0 0 0-3.504 2.809l-.09.109.008.48c.02 1.27.207 2.72.52 4.04l.03.14c-.003.023-.253-.55-.374-.855-.391-.977-.641-1.926-.72-2.73-.007-.083-.019-.188-.023-.231l-.007-.075-.11.164A11.3 11.3 0 0 0 1.27 9.266l-.024.105.05.137a11 11 0 0 0 .731 1.515c.153.25.192.313.176.266-.015-.031 3.152-.031 3.172 0 .023.031.008 0-.07-.176C4.375 9 4.53 6.477 5.727 4.48 6.852 2.598 8.832 1.27 10.934.992c.187-.027.199-.031.117-.031-.035 0-.149.012-.25.023M12.91.97c.019 0 .089.011.163.023 3.836.535 6.61 4.14 6.172 8.04-.082.75-.351 1.761-.594 2.222-.02.039-.023.066-.004.035.012-.02.098-.02 1.594-.02h1.578l.067-.105c.297-.476.62-1.14.816-1.656l.05-.137-.062-.23a11 11 0 0 0-1.406-3.176l-.098-.149-.007.075-.024.222c-.082.86-.347 1.84-.773 2.867a13 13 0 0 1-.313.711.4.4 0 0 1 .016-.097c.328-1.364.531-2.996.531-4.239v-.312l-.125-.148c-1.004-1.2-2.367-2.262-3.68-2.875-1.273-.594-2.386-.91-3.687-1.043-.164-.016-.293-.02-.215-.008m-1.875 4.379a4.52 4.52 0 0 0-2.918 1.297c-.137.136-.305.328-.289.328.004 0 .055-.032.113-.07.633-.426 1.375-.676 1.985-.673h.062l-.246.122c-.46.23-.738.433-.937.68-.125.152-.125.155.011.077.516-.3 1.157-.449 1.801-.418.25.012.278.02.145.047-1.418.301-2.727 1.59-3.375 3.324-.149.391-.371 1.22-.34 1.25q.01.005.008-.019v-.023h3.797l-.008-.06c-.211-1.608.945-2.726 2.824-2.726 1.55 0 2.598.739 2.43 1.711-.024.133-.028.133.09-.004.843-1.007.55-2.277-.786-3.402-1.156-.973-2.82-1.523-4.367-1.441m1.969 1.257c.172.051.32.082.672.133.406.059.484.09.484.196a.35.35 0 0 1-.078.18c-.05.054-.988-.36-1.234-.548l-.028-.015.028.008c.011.003.082.027.156.046M1.043 10.422c0 .008-.008.101-.023.207-.04.309-.07.7-.051.652.004-.011.09-.011.379-.011h.375l.05.05c.032.028.008-.004-.05-.07a12 12 0 0 1-.524-.656c-.133-.184-.156-.207-.156-.172m21.793.125c-.14.191-.34.45-.461.59a1 1 0 0 0-.102.125c0 .004.168.008.375.008.348 0 .38 0 .383.02.02.058-.031-.5-.07-.821-.012-.082-.008-.086-.125.078m-.629.785-.05.05.054-.046c.047-.047.055-.055.047-.055a.3.3 0 0 0-.051.051m-.422-.023c-.043.07-.043.074-.023.05.023-.03.047-.066.039-.066-.004 0-.012.004-.016.016m-20.832.14c0 .047 0 .07.004.043a.4.4 0 0 0 0-.09c-.004-.023-.004-.004-.004.047m17.613-.008c-.02.043-.039.082-.039.086 0 .008.02-.027.043-.07a.4.4 0 0 0 .04-.086c-.005-.004-.024.027-.044.07m-16.652.032a1 1 0 0 0 .09.082 1 1 0 0 0-.078-.082c-.047-.047-.086-.086-.09-.086s.031.039.078.086m20.16.004-.086.085.09-.085c.078-.075.09-.09.082-.09 0 0-.039.039-.086.09m.969-.004c0 .05.004.07.004.043a.4.4 0 0 0 0-.09c0-.024-.004-.004-.004.047m-1.395.043c-.02.027-.035.05-.03.05a.2.2 0 0 0 .042-.05c.02-.032.035-.055.031-.055a.2.2 0 0 0-.043.055m-19.261.07.043.055c.004 0-.008-.024-.032-.055a.2.2 0 0 0-.043-.055s.012.024.032.055m-.383-.016c0 .004.02.02.039.04l.039.035-.035-.04c-.031-.035-.043-.043-.043-.035m16.453.094c-.016.027-.023.047-.02.047.004 0 .016-.02.032-.047l.02-.047c-.005 0-.02.02-.032.047m-12.894 0c.007.02.019.035.023.035s0-.015-.012-.035c-.011-.02-.023-.035-.023-.035-.004 0 0 .016.011.035m16.235.086-.106.113.11-.11c.062-.058.11-.108.11-.108 0-.012-.013.003-.114.105M.94 11.992c0 .192 0 .27.004.172v-.348c-.004-.093-.004-.015-.004.176m20.586-.305c-.011.02-.023.036-.02.036.005 0 .02-.016.032-.036.016-.019.023-.035.02-.035-.004 0-.016.016-.032.036m1.532.28c0 .169 0 .235.003.157v-.3c-.003-.087-.003-.02-.003.144m-20.575-.246c.016.02.028.039.032.039s-.004-.02-.02-.04c-.016-.019-.027-.034-.031-.034s.004.015.02.035m-.27.05c.039.04.074.07.078.07l-.066-.07a.5.5 0 0 0-.079-.074c-.003 0 .028.031.067.074m16.152.059c-.012.02-.015.035-.015.035.003 0 .015-.015.027-.035.008-.02.016-.035.012-.035s-.016.015-.024.035m3.024.043c-.02.023-.028.043-.02.035.012-.008.067-.078.059-.078a.14.14 0 0 0-.04.043m-19.03.027c.023.028.046.051.05.051a.2.2 0 0 0-.039-.05c-.027-.024-.05-.048-.055-.048-.003 0 .016.024.043.047m19.27.004-.035.04.039-.036c.035-.031.043-.043.035-.043zm-14.69.16q0 .042.007.019c.004-.016 0-.035 0-.047-.004-.012-.008 0-.008.027m-.011.149c0 .031.004.043.008.027v-.055q-.007-.015-.008.028m-1.028.012c.012.023.036.05.051.07.016.02.008.004-.015-.035-.047-.075-.07-.098-.036-.035m-2.941.117c0 .011.008.02.012.02q.012-.006.02.011.01.012.011 0a.1.1 0 0 0-.023-.031c-.024-.02-.024-.02-.02 0m18.063.004c-.012.011-.02.027-.016.03q.007.008.008-.003c0-.008.008-.012.011-.012q.013-.001.02-.02c.004-.023 0-.023-.023.005m-14.106.058c0 .043.004.063.008.04v-.079c-.004-.02-.008-.004-.008.04m16.129.077c0 .047.004.067.004.04a.3.3 0 0 0 0-.083c0-.023-.004 0-.004.043m-22.09.04c0 .042 0 .062.004.039a.3.3 0 0 0 0-.086c-.004-.02-.004 0-.004.046m5.953.34c0 .137 0 .192.004.125v-.246c-.004-.07-.004-.012-.004.121m16.125-.156q.002.059.004.035a.2.2 0 0 0 0-.066c0-.02-.004-.004-.004.031m-22.066.031q-.001.05.004.028a.2.2 0 0 0 0-.063q-.005-.018-.004.035m16.703.082-.035.04.039-.036c.039-.035.047-.043.035-.043 0 0-.02.016-.039.04m5.352.05c0 .024.003.035.003.02a.1.1 0 0 0 0-.047c-.003-.012-.003 0-.003.027m-22.043.027q0 .05.003.028a.1.1 0 0 0 0-.055c-.003-.012-.003 0-.003.027m16.488.133a2 2 0 0 0-.137.145c.004 0 .07-.067.149-.145.082-.078.14-.144.14-.144-.004 0-.07.066-.152.144m5.543-.023q-.001.036.004.02a.07.07 0 0 0 0-.04q-.005-.016-.004.02m-22.02.023c0 .024 0 .035.004.024a.1.1 0 0 0 0-.043q-.005-.017-.004.02m5.575.054c.023.023.042.043.046.043s-.011-.02-.035-.043c-.02-.024-.043-.043-.043-.043-.004 0 .012.02.032.043m5.269.11c.074.074.14.136.145.136.003 0-.059-.062-.133-.137a2 2 0 0 0-.145-.14c-.004 0 .059.062.133.14m11.164-.066q-.001.036.004.02a.1.1 0 0 0 0-.044c-.004-.011-.004 0-.004.024M1 13.152q-.001.037.004.02a.07.07 0 0 0 0-.04q-.005-.015-.004.02m5.781.16c.145.149.157.157.153.114q.002-.035-.008-.004c-.004.015-.031-.004-.145-.117l-.14-.133zm10.457-.062-.035.04.04-.036c.034-.031.042-.043.034-.043-.004 0-.02.02-.039.039m-10.324.05c0 .036.004.048.008.028v-.058c-.004-.016-.008 0-.008.03m-5.684.657c.067.066.122.117.125.117s-.046-.05-.113-.117c-.066-.066-.12-.121-.125-.121-.004 0 .047.055.113.121m21.508.02-.101.105.105-.102a1 1 0 0 0 .106-.105c0-.008-.012.004-.11.102m-21.324.152.04.039.038.035-.035-.039c-.031-.039-.043-.047-.043-.035m12.594.113h.043c.011-.004 0-.008-.024-.008q-.035.001-.02.008m.122.012h.039q.017-.007-.02-.008-.035.001-.02.008m.825 0h.043q.017-.007-.02-.008-.034.001-.023.008m-.664.012h.055c.015-.004 0-.008-.028-.008-.03 0-.043.004-.027.008m.484 0h.063c.016-.004 0-.008-.035-.008q-.049.001-.028.008M2.93 15.563c.02 0 .047 0 .062-.004.016 0 0-.004-.035-.004-.031 0-.043.004-.027.008m18.101-.004c.016.004.04.004.051 0 .012 0 0-.004-.027-.004q-.041.002-.024.004m-17.855.015h.129c.03-.004.004-.004-.067-.004-.066 0-.097 0-.062.004m17.52 0h.128c.035-.004.004-.004-.062-.004-.07 0-.098 0-.067.004M3.793 19.383c0 .004.016.02.039.039l.04.035-.036-.039c-.035-.035-.043-.043-.043-.035m16.324.086-.035.039.04-.035c.034-.035.042-.043.034-.043a.2.2 0 0 0-.039.039m-16.133.12a1 1 0 0 0 .07.067.4.4 0 0 0-.058-.066 1 1 0 0 0-.07-.067.4.4 0 0 0 .058.067m15.82.2-.167.17.172-.167.171-.168c0-.012-.02.008-.175.164m-15.45.172c.043.043.082.078.082.078a.5.5 0 0 0-.07-.078 1 1 0 0 0-.082-.078.5.5 0 0 0 .07.078m6.758.566c0 .024.004.035.008.02a.1.1 0 0 0 0-.047c-.004-.012-.008 0-.008.027m1.766.004c0 .032.004.043.004.028a.1.1 0 0 0 0-.055c0-.016-.004 0-.004.027m-1.672 2.48a.1.1 0 0 0 .047 0c.012-.003 0-.003-.027-.003q-.043-.001-.02.004m1.59 0a.07.07 0 0 0 .039 0q.017-.005-.02-.004-.035-.001-.02.004m-1.382.011c.02.004.047.004.063 0q.017-.002-.036-.003c-.03 0-.043.003-.027.003m1.184 0a.1.1 0 0 0 .054 0c.012 0 0-.003-.027-.003-.031 0-.043.003-.027.003m-.852.012c.035.004.09.004.121 0 .031 0 0-.004-.066-.004-.067 0-.09.004-.055.004m.543 0a.4.4 0 0 0 .094 0c.023 0 .004-.004-.047-.004-.05 0-.07.004-.047.004" style="stroke:none;fill-rule:evenodd;fill:#000;fill-opacity:1"/></svg>