<svg xmlns="http://www.w3.org/2000/svg" viewBox="0 0 24 24"><path stroke="#000" stroke-miterlimit="26.2" stroke-width=".3816" d="M3.964 2.996a6.289 6.289 0 0 0-1.4601.169c-.9688.2287-1.6692.788-2.0361 1.7313-.2008.5165-.268 1.0588-.2686 1.6058-.001.9543.0297 1.908.0304 2.8623.0022 2.6781-.0055 5.3567-.0064 8.0348-.0002.5823.0296 1.1633.1477 1.7357.1452.704.484 1.269 1.1668 1.5725.4135.1838.854.2818 1.3032.287 1.1236.013 2.2474.0032 3.3711.0041.2905.0003.5775-.0125.8665-.0615.9556-.162 1.6366-.6338 1.8962-1.6092.1322-.497.186-1.009.1894-1.518.0135-1.9913.0037-3.982.0042-5.9734.0002-.6315.3587-1.0608.9717-1.178.2538-.0486.5084-.05.7647-.0354.5258.0301.8639.2791 1.0438.7774.1487.4118.1739.843.1739 1.2735-.0001.8846-.02 1.7691-.0212 2.6538-.0026 1.8223.0014 3.6449.0028 5.4673 0 .0291.003.0582 0 .087-.0106.0937.0332.1191.1215.118.3027-.004.606-.0122.9082.0022.1604.0077.1907-.046.1894-.1951-.0122-1.3328-.0168-2.6658-.0227-3.9987-.0017-.4017-.0006-.8032.0008-1.205.0002-.0666-.0163-.142.0918-.1534.5613-.0585 1.1216-.1264 1.6841-.0029.7048.155 1.3477.5689 1.4792 1.4594.0948.642.1394 1.279.0827 1.9265-.0386.4414-.0246.8863.1407 1.3082.1625.415.3857.7403.9053.7626 1.0463.0448 2.0907.1201 3.1393.0968.2796-.0062.556-.0194.8332-.0629 1.0315-.1619 1.6916-.762 1.9364-1.7753.1373-.568.1965-1.1479.2-1.7287.0116-1.8922.0042-3.7842.0042-5.6764h-.0049V6.36c0-.2788-.0016-.5552-.0572-.8325-.2031-1.0118-.7165-1.7756-1.6905-2.193-.5831-.2499-1.201-.3125-1.8205-.3315-.5803-.0177-1.1622.0253-1.7435.0325-.8556.0107-1.7112.018-2.5668.0184-3.4641.0014-6.9285.016-10.392-.0212-.3547-.0038-.711.0101-1.0643-.017a6.6222 6.6222 0 0 0-.494-.0197zm.2565 1.2127c.3749.0073.7498.0275 1.1244.0198.419-.0087.8389.003 1.258.0056.8963.0052 1.7921.011 2.6884.0148 1.298.0055 2.596.0128 3.8941.0134.8964.0006 1.7928-.0079 2.6891-.0134 1.199-.0074 2.3978-.009 3.5965-.0275.4771-.0074.952-.0176 1.4276.0403 1.0101.1229 1.5918.7188 1.699 1.7407.0635.6053.0064 1.2089.005 1.8135-.0036 1.3388-.0014 2.6782-.0014 4.017h-.007c0 1.7174.005 3.4347-.0029 5.152-.0028.6043-.021 1.211-.1618 1.803-.157.6602-.4501.8936-1.1223.971-.7325.0844-1.4639.0264-2.1958.0163-.3021-.0042-.6047-.018-.9067-.029-.2977-.0108-.3189-.0254-.359-.3244-.042-.312-.0342-.6269-.0184-.94.035-.697-.0585-1.3837-.1753-2.065-.1874-1.0924-.889-1.7215-1.9145-2.046-.7323-.2318-1.475-.2522-2.2262-.1499-.1465.02-.1932.0009-.1908-.1569.0085-.5703.014-1.1416-.0007-1.7117-.0147-.5665-.0994-1.122-.3435-1.643-.3163-.6752-.847-1.0792-1.5711-1.2284-.6744-.1389-1.345-.1126-1.9916.1287-.8545.3188-1.274.9908-1.4248 1.8552-.0912.5227-.0977 1.0516-.0827 1.5817.0095.3368-.0216.6744-.0127 1.0113.0439 1.6637.0642 3.3273.0615 4.9916-.0006.3058-.1714.5147-.417.5908a2.7807 2.7807 0 0 1-.6778.123c-.7603.0417-1.519.1127-2.2813.084-.7137-.0268-1.4312.0046-2.1393-.1279-.5452-.102-.7832-.3368-.889-.8834-.0879-.4534-.101-.9118-.1152-1.371-.0361-1.1638-.027-2.3277-.0184-3.4913.0099-1.3385.0274-2.677.0212-4.0156-.0056-1.2279-.0307-2.4557-.0283-3.6835.001-.4567.102-.9032.366-1.2898.3158-.4622.7963-.6356 1.3217-.7187.3736-.0591.7481-.0645 1.123-.0573z"/></svg>