<?xml version="1.0" encoding="UTF-8" standalone="no"?>
<svg
   viewBox="0 0 24 24"
   width="24"
   height="24"
   version="1.1"
   id="svg1"
   sodipodi:docname=":bit_warden:.svg"
   inkscape:version="1.4.3 (0d15f75, 2025-12-25)"
   xmlns:inkscape="http://www.inkscape.org/namespaces/inkscape"
   xmlns:sodipodi="http://sodipodi.sourceforge.net/DTD/sodipodi-0.dtd"
   xmlns="http://www.w3.org/2000/svg"
   xmlns:svg="http://www.w3.org/2000/svg">
  <defs
     id="defs1" />
  <sodipodi:namedview
     id="namedview1"
     pagecolor="#505050"
     bordercolor="#ffffff"
     borderopacity="1"
     inkscape:showpageshadow="0"
     inkscape:pageopacity="0"
     inkscape:pagecheckerboard="1"
     inkscape:deskcolor="#505050"
     inkscape:zoom="24.504611"
     inkscape:cx="13.344427"
     inkscape:cy="13.976962"
     inkscape:window-width="1710"
     inkscape:window-height="1044"
     inkscape:window-x="0"
     inkscape:window-y="40"
     inkscape:window-maximized="0"
     inkscape:current-layer="svg1" />
  <path
     id="path2"
     d="M 3.0866068,0.12354524 A 0.95515641,0.95515641 0 0 0 2.3879786,0.41717163 C 2.1922817,0.61546055 2.0943522,0.84876186 2.0943522,1.1183311 V 13.040574 a 7.1306249,7.1306249 0 0 0 0.5189087,2.647699 9.8716775,9.8716775 0 0 0 1.2884122,2.328759 14.398627,14.398627 0 0 0 1.8326334,1.979449 21.32837,21.32837 0 0 0 1.9642592,1.599756 24.796482,24.796482 0 0 0 1.8781963,1.202351 26.710683,26.710683 0 0 0 1.389662,0.76697 17.864146,17.864146 0 0 0 0.66066,0.311347 0.89165212,0.89165212 0 0 0 0.405001,0.09366 0.8903561,0.8903561 0 0 0 0.399939,-0.09366 c 0.167185,-0.07258 0.385907,-0.174029 0.66066,-0.308813 0.274752,-0.134785 0.737773,-0.392367 1.389662,-0.769504 0.651892,-0.378434 1.279382,-0.778557 1.880729,-1.202351 0.600051,-0.42509 1.252811,-0.958234 1.961727,-1.599756 a 14.381778,14.381778 0 0 0 1.832633,-1.979449 9.8729735,9.8729735 0 0 0 1.288412,-2.328759 c 0.346035,-0.874803 0.52144,-1.757343 0.52144,-2.647699 V 1.1183311 A 0.95515641,0.95515641 0 0 0 21.671129,0.41970281 C 21.474137,0.22270995 21.242071,0.12354524 20.972501,0.12354524 H 3.0891381 Z M 12.029554,3.1053714 h 6.955907 v 9.9352026 c 0,1.822185 -1.214944,3.683896 -3.647548,5.589026 -0.9733,0.764644 -2.077153,1.475664 -3.308359,2.126259 z"
     style="stroke-width:1.296" />
</svg>
