<svg width="24" height="24" fill="none" xmlns="http://www.w3.org/2000/svg">
  <path d="M1 6.46099V18.7872l.15493.4681.15493.4681.15493.4681.15493.312.15493.3121.15493.3121.30986.312.15493.156.15493.1561.15493.156.46478.4681.46479.312.46479.1561.77465.156H18.9718l.6197-.156.6198-.1561.3098-.156.3099-.156.3098-.156.3099-.3121.3099-.3121.1549-.156.3099-.4681.3098-.4681.1549-.468.155-.6242.1549-.7801V6.61702l-.3099.31206-.6197.62411-1.0845 1.0922-.9296.93617-1.0845 1.09224-1.3943 1.4042-1.0845 1.0922-1.3944 1.4043-1.2394 1.2482-1.0846 1.0922-.6197.6241h-.6197l-.4648-.312-1.23941-1.2483-1.5493-1.5603-1.70422-1.7163-.77465-.7801-.77465-.7802-.46479-.468-.15493-.3121v-.62411l.30986-.31206.92958-.93617.46479-.46808.30986-.31206h.30985l.30986.15603.61972.62411.92958.93617.77465.78017 1.0845 1.0922.7747.7801.5746.422.3549-.266.6197-.6241.6198-.6241 1.2394-1.24821.9296-.93617 1.5493-1.56028 1.3943-1.40426.9296-.93617 1.0845-1.0922.7747-.78014.4648-.46809-.155-.15602-.3098-.31206-.4648-.31206-.4648-.31205-.7747-.31206L18.9718 1H4.71831l-.46479.15603-.46479.15603-.46479.31205-.46479.31206-.30985.31206-.30986.31205-.46479.62412-.30986.62411-.30986.62411L1 5.36879v1.0922Z" stroke="#000" stroke-width="1.9" stroke-linejoin="round"/>
</svg>
