<svg width="24" height="24" fill="none" viewBox="0 0 0.72 0.72" xmlns="http://www.w3.org/2000/svg">
  <path fill="#292d32" d="M.392.51.45.46.392.408ZM.392.311.45.258.392.21Z" style="stroke-width:.0345512" />
  <path fill="#292d32"
    d="M.465.014H.257c-.103 0-.173.07-.173.173v.345c0 .104.07.173.173.173h.208C.568.705.637.636.637.532V.187C.637.083.568.014.465.014zm.024.413c.01.01.016.022.016.035a.047.047 0 0 1-.017.035l-.072.06A.053.053 0 0 1 .382.57.045.045 0 0 1 .365.567C.357.564.34.552.34.521V.429L.26.502A.026.026 0 0 1 .224.5.026.026 0 0 1 .225.463L.34.36.225.256A.026.026 0 0 1 .261.217l.08.074V.198c0-.03.016-.042.024-.046.007-.003.027-.01.051.01l.072.06c.01.008.016.021.017.034a.046.046 0 0 1-.016.036L.415.36z"
    style="stroke-width:.0345512" />
</svg>