<svg xmlns="http://www.w3.org/2000/svg" preserveAspectRatio="xMidYMid" version="1.0" viewBox="0 0 24 24">
  <path d="m.01 2.62.01 2.62.1.34c.5 1.8 2.04 3.1 4.1 3.47.26.04.85.05 5.79.07 6.01.02 5.7.01 6.6.2a7.23 7.23 0 0 1 4 2.28c.36.42.34.37.17.6a7.18 7.18 0 0 1-4.18 2.5c-.93.19-.59.17-6.61.2-5.44.01-5.52.02-5.85.08-.48.1-.78.19-1.16.34a4.62 4.62 0 0 0-2.94 3.51C.02 19 0 19.95 0 21.53V24h7.86l7.85-.02.49-.07c2.72-.4 4.88-1.6 6.3-3.5a7.74 7.74 0 0 0 1.5-4.68c0-1.27-.25-2.38-.77-3.46l-.12-.26.18-.39c.48-1.06.71-2.11.71-3.33 0-2.42-.95-4.5-2.79-6.05A9.63 9.63 0 0 0 16.23.1c-.57-.08-.9-.08-9.54-.1H0zm14.82-.93c1.31.02 2.25.22 3.32.68.75.33 1.35.71 1.93 1.25a6.17 6.17 0 0 1 1.97 5.69c-.08.38-.2.9-.23.9a9.6 9.6 0 0 0-4.9-2.56c-1-.18-.61-.18-6.69-.2L4.7 7.45l-.3-.07a3.16 3.16 0 0 1-2.41-2.1c-.08-.24-.08-.3-.1-1.9V1.7a1534.38 1534.38 0 0 1 12.94 0zm7.08 12.38c.15.57.2.97.2 1.66 0 .83-.07 1.3-.3 2.02a6.74 6.74 0 0 1-5.1 4.36l-.7.14-.4.07H8.74l-6.87.02.01-1.67c.02-1.62.02-1.69.1-1.93a3.11 3.11 0 0 1 2.04-2c.58-.17.16-.16 6.1-.18a92 92 0 0 0 5.86-.07c1.18-.16 2.06-.4 3.02-.8.96-.43 1.7-.9 2.4-1.53.22-.2.4-.36.42-.36l.1.27z"/>
</svg>
