<svg xmlns="http://www.w3.org/2000/svg" width="24" height="24"><path fill="#1185fe" d="M5.268 2.87c2.734 2.053 5.675 6.215 6.755 8.448 1.08-2.233 4.02-6.395 6.754-8.448 1.973-1.48 5.17-2.627 5.17 1.02 0 .728-.418 6.117-.663 6.992-.851 3.042-3.953 3.818-6.712 3.349 4.823.82 6.05 3.54 3.4 6.258-5.032 5.164-7.233-1.295-7.797-2.95-.103-.304-.152-.446-.152-.325-.001-.12-.05.021-.153.325-.564 1.655-2.764 8.114-7.797 2.95-2.65-2.719-1.423-5.438 3.4-6.258-2.759.47-5.86-.307-6.712-3.349C.516 10.007.1 4.618.1 3.89c0-3.647 3.196-2.5 5.169-1.02z" style="stroke-width:.041117;fill:#000;fill-opacity:1"/></svg>