<svg viewBox="0 0 24 24"><path d="M 12 5.4 c -4.5 0 -8.1 4 -8.1 8.8 c 0 4.8 3.6 8.8 8.1 8.7 c 4.5 0 8.1 -3.9 8.1 -8.8 c 0 -4.9 -3.7 -8.8 -8.1 -8.8 Z m 3.2 6.2 c 0.6 0 1.2 0.6 1.2 1.3 c 0 0.7 -0.5 1.3 -1.2 1.3 c -0.6 0 -1.2 -0.6 -1.2 -1.3 c 0 -0.3 0.1 -0.7 0.3 -0.9 c 0.2 -0.2 0.5 -0.4 0.8 -0.4 Z m -6.2 0 c 0.6 0 1.2 0.6 1.2 1.3 c 0 0.7 -0.5 1.3 -1.2 1.3 c -0.6 0 -1.2 -0.6 -1.2 -1.3 c 0 -0.3 0.1 -0.7 0.3 -0.9 c 0.2 -0.2 0.5 -0.4 0.8 -0.4 Z m 7.6 4.5 c -0.1 0.6 -0.7 4.1 -4.5 4.1 c -3.7 0 -4.6 -3.8 -4.6 -4.1 c 0 0 -0.2 -0.8 0.7 -0.6 c 1.1 0.2 2.7 0.2 3.7 0.2 c 1.3 0 3 -0.1 3.8 -0.2 c 0.9 -0.1 0.9 0.3 0.8 0.6 Z m 5.9 -7.1 h -0.2 C 21.6 7.1 18.9 1 12.2 1 C 4.5 1 2.2 7.6 1.7 9.1 h -0.3 C 0.1 9.1 0 10.7 0 10.7 v 4 c 0 2.3 2.1 1.8 2.8 1.8 c 0.7 0 0.8 -1 0.8 -1 V 9.7 C 3.5 9.4 3.2 9.1 2.9 9.1 c 0.6 -1.8 2.8 -6.9 9.3 -6.9 c 5.5 0 8 4.5 8.9 6.9 C 20.8 9.1 20.5 9.3 20.4 9.7 v 5.9 s 0 1 0.8 1 c 0.7 0 2.8 0.5 2.8 -1.8 V 10.7 s -0.1 -1.6 -1.4 -1.6 Z m 0 0"/></svg>
