<svg width="24" height="24" viewBox="0 0 24 24"><path fill="#040404" fill-rule="evenodd" d="M3.819 1.02c-.217.115-.767.678-1.153 1.18C1.362 3.894.572 5.967.37 8.217c-.178 1.986.303 4.344 1.243 6.102.575 1.076 1.58 2.403 2.09 2.762.211.148.28.166.633.166.34 0 .428-.02.624-.15.321-.213.516-.53.546-.887.034-.411-.063-.647-.45-1.092-1.195-1.375-1.84-2.657-2.18-4.327-.104-.515-.122-.773-.12-1.753.003-1.264.073-1.738.41-2.772.355-1.082 1.062-2.301 1.836-3.163.416-.463.516-.66.516-1.015 0-.455-.251-.858-.669-1.072C4.582.879 4.083.88 3.82 1.02m15.409-.017c-.425.223-.681.627-.683 1.074-.002.367.095.56.514 1.027 1.034 1.15 1.78 2.636 2.12 4.225.166.772.18 2.53.026 3.352a9 9 0 0 1-2.074 4.289c-.51.59-.607.794-.576 1.218.027.378.214.69.546.91.196.13.284.15.624.15.353 0 .422-.018.633-.166.51-.359 1.515-1.686 2.09-2.762A11.372 11.372 0 0 0 21.5 2.34c-.435-.587-1.018-1.196-1.267-1.323-.255-.13-.77-.137-1.004-.014M7.16 4.033c-.3.053-.506.186-.832.538-.566.611-1.067 1.476-1.363 2.353a6.94 6.94 0 0 0 .041 4.454c.404 1.124 1.282 2.392 1.845 2.664.776.376 1.678-.194 1.678-1.062 0-.355-.108-.599-.425-.958-.784-.89-1.152-1.948-1.092-3.144.053-1.043.377-1.872 1.051-2.682.406-.489.487-.688.455-1.126A1.144 1.144 0 0 0 7.16 4.033m9.304.009c-.538.094-.93.567-.93 1.122 0 .39.09.586.483 1.054.65.775.981 1.626 1.033 2.66.06 1.196-.307 2.254-1.092 3.144-.317.36-.424.603-.424.958 0 .711.567 1.224 1.289 1.165.379-.032.648-.212 1.051-.702.89-1.083 1.4-2.324 1.547-3.76.185-1.823-.489-3.839-1.723-5.15-.418-.445-.747-.576-1.234-.491m-4.925 2.746a2.35 2.35 0 0 0-1.846 2.47c.05.654.388 1.3.87 1.66l.264.197v9.598l-.725.019c-.652.017-.75.033-.969.156a1.5 1.5 0 0 0-.41.374c-.152.215-.167.277-.167.665 0 .39.015.45.167.666.091.13.276.299.41.374l.244.137h5.308l.262-.153a1.5 1.5 0 0 0 .41-.38c.13-.196.15-.28.15-.649 0-.383-.016-.445-.167-.66a1.5 1.5 0 0 0-.41-.374c-.22-.123-.318-.14-.97-.156l-.725-.02v-9.597l.265-.198c.48-.359.82-1.005.869-1.659a2.35 2.35 0 0 0-1.924-2.485c-.392-.072-.516-.07-.906.015" style="stroke-width:.0547273"/></svg>