<svg xmlns="http://www.w3.org/2000/svg" width="20" height="20" viewBox="0 0 20 20">
  <defs />
  <path
    d="M2.873,2.495 C2.971,2.162 3.303,1.954 3.649,2.009 L9.187,2.896 C9.216,2.9 9.244,2.907 9.271,2.914 L10.729,2.914 C10.756,2.907 10.784,2.9 10.813,2.896 L16.351,2.009 C16.697,1.954 17.029,2.162 17.127,2.495 L18.95,8.726 C18.954,8.738 18.957,8.75 18.96,8.762 C19.026,9.046 19.01,9.342 18.915,9.618 C18.82,9.893 18.649,10.136 18.422,10.319 C18.033,10.636 17.535,10.745 17.071,10.656 C16.748,12.861 16.215,14.611 15.434,15.849 C14.564,17.226 13.362,18 11.846,18 L8.154,18 C6.638,18 5.436,17.226 4.566,15.849 C3.785,14.611 3.252,12.861 2.929,10.656 C2.868,10.668 2.805,10.676 2.743,10.681 C2.322,10.714 1.905,10.584 1.579,10.32 C1.351,10.136 1.18,9.893 1.085,9.618 C0.99,9.342 0.974,9.046 1.04,8.762 C1.043,8.75 1.046,8.738 1.05,8.726 Z M4.19,9.768 C4.207,9.814 4.219,9.864 4.225,9.915 C4.528,12.315 5.05,14.027 5.741,15.122 C6.41,16.183 7.208,16.629 8.154,16.629 L9.308,16.629 L9.308,15.486 C9.308,15.371 9.336,15.263 9.386,15.168 C9.18,15.102 8.985,14.993 8.818,14.828 C8.488,14.501 8.385,14.068 8.385,13.657 C8.385,13.278 8.695,12.972 9.077,12.972 L10.923,12.972 C11.306,12.972 11.616,13.278 11.616,13.657 C11.616,14.068 11.512,14.501 11.182,14.828 C11.015,14.993 10.819,15.102 10.614,15.168 C10.664,15.263 10.692,15.371 10.692,15.486 L10.692,16.629 L11.846,16.629 C12.792,16.629 13.59,16.183 14.259,15.122 C14.95,14.027 15.472,12.315 15.775,9.915 C15.781,9.864 15.793,9.814 15.81,9.768 L10.648,4.286 L9.352,4.286 Z M7.686,4.044 L4.033,3.46 L2.387,9.083 C2.382,9.113 2.385,9.144 2.395,9.173 C2.406,9.206 2.427,9.235 2.454,9.257 L2.456,9.258 C2.506,9.299 2.57,9.319 2.634,9.314 C2.698,9.309 2.758,9.279 2.801,9.232 L2.812,9.22 Z M12.314,4.044 L17.188,9.22 L17.202,9.235 C17.284,9.328 17.441,9.343 17.543,9.26 L17.546,9.257 C17.573,9.235 17.594,9.206 17.605,9.173 C17.615,9.144 17.618,9.113 17.613,9.083 L15.967,3.46 Z M8.154,8.4 C8.536,8.4 8.846,8.707 8.846,9.086 L8.846,9.095 C8.846,9.474 8.536,9.781 8.154,9.781 C7.771,9.781 7.461,9.474 7.461,9.095 L7.461,9.086 C7.461,8.707 7.771,8.4 8.154,8.4 Z M11.846,8.4 C12.229,8.4 12.539,8.707 12.539,9.086 L12.539,9.095 C12.539,9.474 12.229,9.781 11.846,9.781 C11.464,9.781 11.154,9.474 11.154,9.095 L11.154,9.086 C11.154,8.707 11.464,8.4 11.846,8.4 Z" />
</svg>