<svg xmlns="http://www.w3.org/2000/svg" width="20" height="20" viewBox="0 0 20 20"><path d="M2.839 1.239 C 2.598 1.281,2.364 1.468,2.286 1.683 C 2.159 2.030,0.232 8.709,0.216 8.856 C 0.202 8.983,0.213 9.137,0.247 9.300 C 0.427 10.157,1.171 10.732,2.051 10.695 L 2.326 10.683 2.365 10.967 C 2.430 11.440,2.629 12.416,2.788 13.044 C 3.552 16.060,4.847 17.874,6.668 18.480 C 7.300 18.690,7.452 18.700,10.050 18.700 C 11.983 18.700,12.434 18.691,12.729 18.648 C 14.255 18.424,15.472 17.425,16.364 15.667 C 16.957 14.497,17.438 12.861,17.720 11.050 L 17.777 10.683 18.072 10.695 C 18.580 10.715,19.039 10.531,19.405 10.159 C 19.732 9.827,19.932 9.286,19.885 8.860 C 19.860 8.635,17.861 1.785,17.766 1.598 C 17.648 1.367,17.403 1.228,17.117 1.229 C 17.025 1.229,15.589 1.448,13.926 1.715 L 10.903 2.200 10.050 2.200 L 9.197 2.200 6.190 1.720 C 2.680 1.159,3.020 1.208,2.839 1.239 M5.567 3.137 C 6.621 3.304,7.489 3.446,7.495 3.452 C 7.501 3.457,6.294 4.749,4.811 6.323 C 2.271 9.019,2.109 9.184,1.993 9.194 C 1.855 9.205,1.733 9.115,1.733 9.001 C 1.733 8.953,3.428 3.100,3.516 2.844 C 3.523 2.823,3.556 2.811,3.590 2.819 C 3.623 2.827,4.513 2.970,5.567 3.137 M17.466 5.867 C 17.947 7.507,18.347 8.897,18.357 8.955 C 18.380 9.092,18.277 9.200,18.124 9.200 C 18.031 9.200,17.972 9.156,17.713 8.892 C 17.184 8.354,12.592 3.463,12.605 3.452 C 12.611 3.446,13.502 3.300,14.583 3.127 C 15.918 2.913,16.557 2.823,16.572 2.848 C 16.584 2.867,16.986 4.226,17.466 5.867 M13.576 6.703 C 15.568 8.819,16.397 9.723,16.385 9.762 C 16.376 9.792,16.331 10.072,16.285 10.383 C 15.869 13.243,15.163 15.191,14.160 16.251 C 13.741 16.694,13.338 16.952,12.828 17.105 C 12.610 17.170,12.488 17.179,11.693 17.192 L 10.804 17.206 10.793 16.461 C 10.787 16.052,10.771 15.693,10.756 15.664 C 10.736 15.622,10.777 15.588,10.951 15.502 C 11.483 15.240,11.798 14.699,11.808 14.030 C 11.812 13.736,11.759 13.594,11.582 13.422 C 11.369 13.215,11.265 13.200,10.050 13.200 C 8.835 13.200,8.731 13.215,8.518 13.422 C 8.343 13.592,8.288 13.737,8.291 14.024 C 8.296 14.688,8.617 15.240,9.149 15.502 C 9.323 15.588,9.364 15.622,9.344 15.664 C 9.329 15.693,9.313 16.050,9.307 16.458 L 9.296 17.200 8.513 17.200 C 7.662 17.200,7.398 17.167,7.004 17.010 C 6.665 16.875,6.404 16.703,6.103 16.417 C 5.168 15.526,4.511 14.035,4.050 11.750 C 3.927 11.143,3.743 10.016,3.722 9.750 C 3.719 9.704,4.586 8.760,6.533 6.692 L 9.349 3.700 10.049 3.700 L 10.750 3.700 13.576 6.703 M7.841 8.233 C 7.434 8.329,7.181 8.790,7.314 9.192 C 7.504 9.763,8.215 9.893,8.612 9.430 C 8.953 9.031,8.767 8.402,8.262 8.252 C 8.074 8.196,8.009 8.193,7.841 8.233 M11.824 8.252 C 11.471 8.364,11.249 8.754,11.331 9.118 C 11.377 9.326,11.545 9.537,11.745 9.640 C 12.138 9.841,12.662 9.607,12.788 9.172 C 12.958 8.587,12.412 8.065,11.824 8.252 " stroke="none" fill-rule="evenodd" fill="black"></path></svg>