<svg width="24" height="24"><path d="M11.422.254a10.57 10.57 0 0 0-5.05 1.432l-.095.054c-.492.286-.965.58-1.41.936l-.148.119c-1.98 1.54-3.398 3.78-4.05 6.191-.734 2.87-.434 6.117 1.079 8.7l.055.093c.285.492.58.965.935 1.41l.121.149c1.54 1.979 3.779 3.398 6.19 4.049 2.87.735 6.117.437 8.699-1.076l.094-.057c.492-.286.967-.58 1.412-.936l.146-.119c1.98-1.54 3.4-3.78 4.051-6.191.735-2.87.435-6.117-1.078-8.7l-.055-.093a11.5 11.5 0 0 0-.937-1.41l-.12-.149a10 10 0 0 0-1.193-1.287C17.462 1.233 14.378.165 11.422.254m.875 1.016c1.549-.006 3.185.36 4.54 1.125-.068.183-.152.35-.251.52l-.09.155q-.048.083-.1.168l-.101.176-.313.54-.091.157-.348.594q-.319.547-.635 1.098-.494.857-1.002 1.709-.175.292-.347.588l-.073.123-.127.22a9 9 0 0 1-.142.235h-.051l-.006-.164c-.039-.647-.242-1.13-.547-1.696l-.203-.382q-.064-.12-.13-.237c-.23-.42-.348-.82-.337-1.299.001-.06.002-.059.002-.12.008-.397.055-.789.116-1.18-.216.191-.325.373-.434.638l-.045.108c-.34.82-.53 1.885-.193 2.736q.154.313.34.607c.165.28.223.515.181.838-.075.13-.077.13-.152.202-.206-.027-.292-.128-.43-.276-.444-.456-.967-.906-1.515-1.232-.29-.18-.415-.425-.57-.721l-.173-.312-.09-.165c-.14-.256-.289-.507-.437-.76l-.176-.302-.088-.152q-.136-.234-.273-.467l-.092-.156-.178-.307-.408-.691-.07-.122-.133-.22c-.143-.24-.143-.24-.143-.352.854-.401 1.68-.744 2.596-.969l.152-.037c.719-.168 1.414-.218 2.149-.217zm-.588 3.335h.049l.004.188.01.254.001.121c.027.682.356 1.252.67 1.84l.233.435q.025.049.053.098c.191.364.256.706.228 1.115l-.008.125c-.043.67-.117 1.342-.185 2.01.333-.007.333-.007.63-.137.431-.543.667-1.13.752-1.82q.014-.077.026-.156.05-.024.101-.05l.073.23.039.128c.192.734.084 1.482-.035 2.217-.06.365-.102.727-.127 1.096.459.004.712-.157 1.056-.453l.121-.104c.278-.257.463-.54.65-.865.083-.137.084-.138.184-.238.18.825-.293 1.8-.609 2.547a2 2 0 0 0-.184.728l-.007.17-.004.125.31-.037.176-.022c.186-.046.275-.117.418-.242h.102l.043-.097c.056-.104.057-.104.158-.155-.058.959-.662 1.925-1.352 2.574a6.7 6.7 0 0 1-1.305.883l-.105.053q-.126.06-.256.111l-.1-.05.079-.131c.519-.874.695-1.63.675-2.635l-.216-.01-.123-.004c-.142.019-.177.055-.264.164l-.102.153h-.05q-.024-.421-.05-.856l-.241-.01-.137-.005c-.146.017-.186.053-.276.166.006-.068.007-.068.012-.137q.024-.334.04-.668l.005-.133c.034-.815-.063-1.46-.457-2.184-.051-.096-.051-.097-.101-.248q-.176 0-.35-.002l-.195-.001c-.152-.014-.152-.014-.21.054-.056.557.028 1.044.194 1.576.099.322.19.621.031.938l-.074.101c-.16-.106-.24-.165-.295-.353-.006-.15-.007-.15.018-.242.032-.134.031-.257.03-.395v-.148c.008-.117.008-.118-.056-.17-.358-.038-.358-.037-.681.086-.172.275-.192.508-.192.826v.133c.006.367.064.71.153 1.066.071.29.072.29.017.453a7.7 7.7 0 0 1-.402-1.658h-.502c-.168.273-.188.532-.211.848l-.014.148q-.014.18-.027.362l-.076-.043a1.4 1.4 0 0 0-.678-.198l-.174-.008-.129-.003c.012.753.246 1.475.801 2.013l.105.098v.101h.1c.071.07.071.071.154.17.181.214.369.418.559.623.091.111.092.111.143.262-.684-.077-1.239-.42-1.711-.904l-.106-.102a2.9 2.9 0 0 1-.51-.74l-.048-.096c-.295-.608-.406-1.268-.526-1.927l-.047-.254-.086-.463q-.04-.221-.084-.442c.193.08.31.204.452.354l.117.11c.085.09.084.09.084.19h.453l.012-.097c.04-.292.104-.56.2-.838.19-.546.24-1.052.241-1.629.136.134.266.267.385.416.101.14.101.138.217.188q.14.005.283.004l.154-.002.117-.002c.341-.915.437-2.102.069-3.02l-.069-.148-.062-.135q-.066-.135-.139-.268c.243.077.401.216.588.381q.045.041.092.082l.275.243q.039.033.078.068c.398.352.399.354.522.496.135.115.211.115.386.111h.147q.06-.011.123-.023c.183-.275.14-.68.102-1.004a2.1 2.1 0 0 0-.252-.504c-.402-.76-.489-1.367-.301-2.213a7 7 0 0 1 .201-.553M1.349 12.5h5.684c.127.507.239.995.322 1.508.177 1.025.43 1.907 1.186 2.666q-.27.553-.584 1.084l-.088.152-.084.143-.076.13c-.073.1-.074.099-.225.149l-.015.133a1.3 1.3 0 0 1-.186.451l-.094.162-.101.168-.102.176-.207.351q-.212.363-.422.727l-.136.234-.094.162c-.578-.196-1.075-.741-1.508-1.156l-.084-.078a10 10 0 0 1-1.273-1.48q-.03-.044-.063-.088c-1.126-1.607-1.85-3.625-1.85-5.594m6.487 0h.353l-.05.352c-.245-.24-.246-.239-.303-.352m2.967 0h.152c-.063.174-.135.31-.252.453.044-.396.043-.396.1-.453m5.44.045h1.792l1.057.002h1.203q1.237.001 2.475.004l.001.236.002.133a4.5 4.5 0 0 1-.066.617l-.021.133c-.066.405-.152.8-.268 1.193l-.04.131c-.34 1.14-.824 2.219-1.519 3.188q-.03.045-.064.09c-.301.415-.638.797-.992 1.167l-.078.084a9.7 9.7 0 0 1-1.932 1.575 3.5 3.5 0 0 1-.365-.526l-.092-.162-.098-.17-.2-.353-.052-.088q-.162-.285-.334-.563l-.084-.138-.158-.256-.07-.115q-.03-.048-.063-.098c-.043-.095-.043-.096-.043-.297h-.101l-.31-.535q-.053-.091-.106-.184c-.19-.326-.376-.65-.54-.99l.114-.096c.807-.697 1.407-1.646 1.545-2.72.02-.302.013-.603 0-.905l-.08.112-.108.148-.105.149c-.433.585-.433.583-.809.687l-.103.01c.025-.339.12-.614.25-.926l.056-.139c.16-.39.16-.39.305-.398m-6.245.559.152.05c.1.305.156.571.008.866q-.164.282-.361.543h-.049c-.023-1.06-.024-1.06.25-1.46M8.691 14.26c.28.022.468.098.702.254.044.028.044.03.09.058l.214.14-.086.151-.111.196q-.03.048-.059.1c-.102.177-.101.177-.197.359h-.1c-.452-.84-.453-.841-.453-1.258m-1.005 4.273h8.347v.15H7.686z" style="stroke-width:.0502807"/></svg>