<svg version="1.1" id="Layer_1" xmlns="http://www.w3.org/2000/svg" xmlns:xlink="http://www.w3.org/1999/xlink" x="0px" y="0px" width="100%" viewBox="0 0 4096 4096" enable-background="new 0 0 4096 4096" xml:space="preserve">
<path fill="#999999" opacity="1.000000" stroke="none" d="
M2.000000,2158.000000 
	C2.000000,2087.291504 2.000000,2016.583130 2.738238,1945.612183 
	C4.424375,1942.394653 5.987121,1939.485840 6.213020,1936.476562 
	C7.157516,1923.894897 7.292011,1911.244751 8.471054,1898.689941 
	C11.477806,1866.672974 14.550174,1834.654907 18.237118,1802.711304 
	C21.240675,1776.688477 24.484077,1750.656128 28.860502,1724.838135 
	C34.684887,1690.478027 41.339321,1656.245850 48.303604,1622.094604 
	C60.728710,1561.164673 76.830353,1501.138062 95.255531,1441.784180 
	C117.642639,1369.667480 144.090973,1299.004639 174.480576,1229.856445 
	C198.299454,1175.659058 224.414673,1122.581665 252.770920,1070.605591 
	C285.948792,1009.791565 321.573425,950.439697 361.527222,893.851562 
	C389.725525,853.913330 419.061768,814.750610 448.766724,775.912231 
	C475.803101,740.562927 504.807159,706.783875 535.191895,674.233948 
	C555.378540,652.608887 575.536133,630.952576 596.019226,609.610107 
	C605.903992,599.310669 616.360291,589.542725 626.817749,579.813477 
	C652.837830,555.605408 678.353333,530.797607 705.280518,507.636292 
	C739.538513,478.169525 774.372070,449.293365 810.079712,421.610046 
	C855.300720,386.551117 902.526001,354.226379 950.757446,323.376923 
	C1005.144897,288.590149 1061.115601,256.585419 1118.550781,227.172882 
	C1145.479858,213.382477 1172.895142,200.515427 1200.324951,187.734070 
	C1254.924316,162.292664 1310.851562,140.086411 1367.622192,119.975060 
	C1422.190918,100.643784 1477.336548,83.065704 1533.547485,69.276245 
	C1582.250244,57.328621 1631.170044,45.980621 1680.429810,36.675251 
	C1723.115601,28.611744 1766.315918,22.981068 1809.468994,17.766155 
	C1848.939453,12.996264 1888.651367,10.223391 1928.125732,7.465634 
	C1927.869385,12.683622 1927.634521,17.006460 1927.634155,21.329317 
	C1927.616089,225.978378 1927.554199,430.627533 1927.827881,635.276184 
	C1927.840210,644.515991 1925.161499,650.776367 1918.224609,656.661255 
	C1901.719727,670.663025 1885.745361,685.292847 1869.637207,699.758850 
	C1829.983765,735.369690 1790.378540,771.034424 1750.748657,806.671448 
	C1691.055542,860.350647 1631.357666,914.024536 1571.661499,967.700439 
	C1532.030640,1003.334534 1492.398682,1038.967529 1452.769165,1074.603027 
	C1399.764038,1122.266235 1346.764893,1169.936157 1293.755493,1217.594604 
	C1254.617676,1252.781616 1215.459473,1287.945923 1176.325073,1323.136597 
	C1129.512695,1365.231323 1082.693359,1407.318359 1035.919800,1449.455933 
	C999.043579,1482.677124 962.279724,1516.023193 925.343750,1549.177612 
	C919.174683,1554.715210 912.645691,1559.939941 905.829468,1564.653320 
	C875.914856,1585.339722 862.984863,1613.328125 867.695984,1649.643311 
	C873.834900,1696.964233 918.265869,1730.807861 967.276184,1721.764038 
	C972.790405,1720.746460 978.469421,1720.157715 984.072510,1720.153931 
	C1117.061035,1720.065918 1250.049561,1720.085327 1383.038086,1720.085327 
	C1574.021606,1720.085327 1765.005249,1720.085327 1955.988770,1720.085327 
	C1960.202393,1720.085327 1964.416016,1720.085449 1969.593628,1720.085449 
	C1969.593628,1725.380371 1969.593506,1729.310181 1969.593506,1733.240112 
	C1969.593506,1961.220581 1969.639771,2189.200928 1969.455566,2417.181396 
	C1969.446533,2428.409912 1967.723877,2439.675781 1966.263550,2450.854248 
	C1964.701538,2462.812500 1964.367432,2474.616211 1967.141602,2486.453125 
	C1975.990234,2524.207031 2009.307007,2550.999023 2050.005615,2552.144775 
	C2060.320801,2552.435303 2070.659668,2551.761230 2080.987549,2551.760010 
	C2333.965820,2551.734619 2586.943848,2551.739990 2839.922119,2551.740234 
	C2867.253174,2551.740234 2894.583984,2551.720459 2921.915039,2551.775146 
	C2924.320801,2551.780029 2926.725586,2552.270996 2930.689209,2552.708008 
	C2926.816895,2556.399658 2924.261475,2558.961426 2921.575439,2561.377686 
	C2888.640381,2591.005615 2855.685547,2620.611816 2822.736328,2650.224121 
	C2769.967285,2697.649170 2717.201172,2745.077637 2664.429932,2792.500488 
	C2618.596680,2833.688721 2572.755859,2874.868408 2526.921143,2916.054688 
	C2474.396729,2963.252930 2421.876221,3010.455322 2369.353027,3057.654785 
	C2323.271484,3099.065674 2277.188232,3140.474854 2231.107178,3181.886475 
	C2184.778320,3223.520264 2138.456787,3265.162109 2092.120605,3306.787842 
	C2076.015381,3321.255371 2060.112549,3335.959961 2043.693237,3350.062500 
	C2023.054077,3367.789795 2011.735474,3389.581787 2011.745117,3417.100342 
	C2011.821899,3636.414795 2011.822754,3855.729004 2011.855713,4075.043457 
	C2011.856812,4082.695557 2011.949707,4090.347900 2012.000000,4098.000000 
	C1987.291504,4098.000000 1962.583130,4098.000000 1937.586792,4097.260742 
	C1934.632446,4095.597900 1932.017822,4094.078857 1929.291504,4093.841553 
	C1899.229980,4091.221191 1869.106812,4089.236816 1839.089355,4086.201172 
	C1809.721313,4083.230713 1780.370239,4079.833008 1751.164673,4075.574463 
	C1698.590210,4067.908203 1646.391968,4058.114502 1594.577759,4046.253662 
	C1516.086548,4028.286377 1438.920898,4005.881836 1363.071045,3978.833252 
	C1268.947266,3945.267822 1177.557007,3905.505127 1089.703857,3857.885742 
	C1050.262817,3836.507080 1011.054199,3814.556152 972.885010,3791.009277 
	C919.128479,3757.845703 867.151733,3721.952637 816.748474,3683.783203 
	C750.705688,3633.770264 687.705750,3580.199707 628.288574,3522.541016 
	C597.757141,3492.913086 568.592468,3461.839600 539.544922,3430.732910 
	C518.473450,3408.167725 498.186371,3384.831299 478.295349,3361.210693 
	C438.649445,3314.130127 401.171173,3265.295654 366.502075,3214.470947 
	C339.897705,3175.468994 314.712921,3135.446045 290.160645,3095.107910 
	C246.874283,3023.990479 209.302399,2949.826416 175.771255,2873.637695 
	C142.929459,2799.014893 114.827652,2722.627686 91.055580,2644.631104 
	C72.637611,2584.201416 57.138077,2523.025146 44.509724,2461.158691 
	C33.026325,2404.901367 23.357243,2348.298828 17.654718,2291.117676 
	C14.002133,2254.492188 10.969672,2217.804443 7.698765,2181.141113 
	C7.080184,2174.207275 6.766576,2167.245117 6.056339,2160.322266 
	C5.845506,2158.267334 5.470870,2155.035156 2.000000,2158.000000 
z" data-index="0" style="visibility: visible; opacity: 1;"></path>
<path fill="#FFAC76" opacity="1.000000" stroke="none" d="
M4098.000000,1894.000000 
	C4098.000000,1992.708496 4098.000000,2091.416992 4097.334961,2190.461914 
	C4096.187012,2191.149414 4095.703613,2191.500977 4094.896973,2192.188477 
	C4094.215576,2193.086182 4094.128906,2193.686768 4094.364502,2195.173828 
	C4095.609863,2196.014404 4096.805176,2196.007324 4098.000000,2196.000000 
	C4098.000000,2199.428711 4098.000000,2202.857422 4097.319824,2206.353760 
	C4095.663330,2207.839600 4093.973389,2209.187500 4093.825684,2210.687256 
	C4092.802490,2221.076172 4092.100342,2231.496826 4090.885498,2242.195312 
	C4090.414307,2243.122803 4090.353027,2243.762451 4090.308105,2245.257812 
	C4089.646484,2254.226074 4088.971191,2262.338867 4088.286133,2270.450684 
	C4088.230469,2271.112061 4088.132080,2271.771973 4088.017822,2272.426270 
	C4086.684814,2280.048340 4084.946289,2287.625732 4084.104248,2295.301270 
	C4082.925293,2306.048828 4083.015381,2316.953857 4081.513184,2327.644043 
	C4074.031738,2380.886475 4065.036133,2433.890625 4053.516846,2486.407959 
	C4034.704346,2572.173096 4010.757812,2656.491455 3981.201172,2739.215332 
	C3942.168701,2848.458984 3894.145264,2953.605225 3837.306396,3054.676514 
	C3787.810059,3142.691650 3731.912354,3226.530029 3669.916748,3306.260742 
	C3623.134521,3366.425781 3573.410400,3424.068115 3519.948242,3478.392822 
	C3494.961914,3503.782471 3469.502686,3528.757812 3443.326660,3552.912109 
	C3414.997559,3579.054199 3386.186279,3604.747559 3356.520264,3629.352539 
	C3290.386475,3684.204590 3221.006348,3734.684814 3148.341309,3780.614014 
	C3080.505127,3823.491699 3010.579834,3862.542969 2938.196289,3897.248047 
	C2880.294678,3925.009521 2821.251953,3949.975586 2761.046143,3972.274170 
	C2695.858887,3996.417480 2629.552002,4016.904785 2562.250732,4034.252930 
	C2511.101807,4047.437744 2459.501465,4058.535400 2407.479492,4067.612061 
	C2384.351807,4071.647217 2361.068604,4074.791016 2337.855957,4078.338379 
	C2326.423584,4080.085693 2315.020508,4082.069336 2303.548584,4083.500977 
	C2294.434570,4084.638428 2285.235840,4085.099365 2276.064453,4084.932373 
	C2276.051025,3899.033203 2276.047607,3714.062500 2276.044922,3529.091553 
	C2276.044922,3527.092041 2275.595947,3524.946289 2276.171631,3523.126953 
	C2277.027588,3520.423584 2278.016602,3517.300537 2279.989990,3515.492920 
	C2288.548340,3507.653564 2297.587646,3500.342529 2306.262451,3492.626709 
	C2325.614258,3475.413330 2344.866211,3458.087402 2364.134033,3440.779541 
	C2384.145020,3422.804199 2404.126465,3404.795410 2424.121094,3386.801514 
	C2444.115723,3368.807617 2464.110352,3350.813965 2484.104980,3332.820068 
	C2504.099609,3314.826416 2524.094238,3296.832764 2544.088867,3278.838867 
	C2564.083008,3260.845215 2584.076660,3242.851318 2604.071045,3224.857910 
	C2624.065674,3206.864746 2644.047607,3188.857422 2664.058350,3170.882080 
	C2683.326172,3153.573730 2702.640625,3136.317383 2721.903564,3119.003662 
	C2742.157227,3100.799805 2762.366699,3082.546875 2782.608398,3064.329834 
	C2802.355469,3046.558594 2822.126465,3028.813965 2841.873779,3011.042725 
	C2862.115479,2992.826904 2882.321289,2974.570801 2902.578857,2956.372803 
	C2921.598633,2939.286377 2940.686523,2922.275879 2959.706299,2905.189453 
	C2979.964111,2886.991211 3000.170898,2868.735840 3020.412354,2850.519287 
	C3040.159180,2832.748047 3059.928711,2815.001709 3079.675537,2797.230469 
	C3099.917236,2779.013428 3120.136719,2760.771729 3140.378662,2742.554932 
	C3160.125488,2724.783691 3179.898438,2707.042480 3199.640381,2689.266113 
	C3220.124756,2670.821289 3240.581787,2652.345703 3261.058350,2633.892090 
	C3274.874268,2621.441406 3288.747314,2609.053955 3302.499756,2596.533447 
	C3306.621338,2592.780762 3310.888672,2589.037598 3314.286865,2584.666504 
	C3328.904541,2565.864014 3335.876709,2545.213623 3332.472900,2520.743164 
	C3329.566650,2499.846924 3320.999756,2482.565674 3305.648926,2468.864258 
	C3285.550293,2450.924561 3261.942871,2443.307861 3234.658691,2447.477539 
	C3226.912842,2411.380615 3194.244873,2383.634033 3156.510742,2382.214355 
	C3145.540527,2381.801270 3134.533936,2382.456055 3123.543945,2382.456787 
	C2832.414795,2382.474609 2541.285400,2382.471924 2250.156250,2382.465820 
	C2244.828369,2382.465576 2239.500244,2382.384521 2234.110596,2381.375977 
	C2234.029297,2377.081055 2233.992432,2373.751221 2233.992676,2370.421387 
	C2234.010742,2146.312500 2233.963623,1922.203491 2234.229492,1698.094971 
	C2234.244629,1685.334351 2231.676025,1673.380615 2225.942627,1662.604614 
	C2213.688232,1639.572388 2195.010010,1623.443726 2168.962402,1618.114014 
	C2158.384277,1615.949463 2147.212402,1616.684692 2136.102051,1615.377197 
	C2131.065186,1598.305542 2122.541260,1584.339355 2109.841064,1572.811401 
	C2093.239746,1557.742432 2073.454346,1551.120483 2051.504395,1550.458008 
	C2043.911377,1550.228760 2036.275024,1551.920898 2028.658203,1551.923828 
	C1804.375122,1552.010132 1580.092163,1551.996704 1355.809082,1551.969482 
	C1351.826904,1551.968994 1347.844727,1551.607056 1344.021851,1550.794189 
	C1352.799316,1542.410889 1361.414917,1534.643921 1370.036499,1526.884033 
	C1390.029053,1508.889404 1410.024658,1490.898071 1430.018677,1472.905029 
	C1450.012573,1454.912598 1470.006592,1436.920166 1490.000366,1418.927612 
	C1509.994141,1400.934814 1529.979004,1382.932129 1549.984497,1364.952393 
	C1569.494995,1347.417603 1589.032227,1329.912476 1608.547363,1312.382812 
	C1628.309692,1294.631104 1648.066284,1276.873047 1667.812256,1259.103149 
	C1688.053589,1240.887695 1708.260132,1222.633667 1728.517212,1204.435669 
	C1747.536011,1187.350220 1766.620728,1170.338257 1785.639648,1153.253052 
	C1805.897217,1135.055420 1826.169067,1116.873047 1846.326904,1098.565430 
	C1863.298218,1083.151855 1880.101440,1067.553345 1897.005859,1052.065918 
	C1904.353516,1045.334229 1911.702026,1038.600952 1919.165771,1031.998901 
	C1941.042114,1012.647705 1963.011963,993.402161 1984.874756,974.035583 
	C1997.798950,962.587036 2010.604980,951.004761 2023.437134,939.452515 
	C2043.922729,921.010315 2064.432129,902.594177 2084.843506,884.070374 
	C2101.327881,869.110718 2117.588135,853.902893 2134.138672,839.017700 
	C2141.529053,832.370850 2149.490234,826.362671 2157.000244,819.843262 
	C2162.229004,815.304077 2167.680176,810.845032 2172.078125,805.556885 
	C2186.714844,787.958313 2192.178467,767.502380 2192.155273,744.616516 
	C2191.908203,499.331573 2192.015869,254.046265 2192.848633,8.579111 
	C2209.675293,10.264644 2225.642822,13.166262 2241.693848,13.743682 
	C2262.825928,14.503896 2283.642090,17.556005 2304.540283,20.037260 
	C2328.859863,22.924711 2353.146973,26.164970 2377.369141,29.782156 
	C2425.980713,37.041576 2474.103271,46.876240 2521.952393,58.077915 
	C2611.706787,79.089836 2699.612549,106.135765 2785.658203,139.176208 
	C2866.468262,170.206238 2944.941650,206.329330 3021.202393,247.325073 
	C3074.576904,276.017761 3126.523438,307.056183 3177.151611,340.315247 
	C3219.165771,367.915375 3260.005127,397.172852 3299.874756,427.799469 
	C3363.765137,476.878357 3424.477783,529.636230 3482.157715,585.838745 
	C3505.043213,608.138062 3527.214600,631.211731 3548.947754,654.641113 
	C3572.449951,679.977661 3595.618896,705.668579 3617.948486,732.038879 
	C3672.390625,796.333069 3722.472900,863.901184 3768.485107,934.514038 
	C3808.302979,995.621704 3844.838623,1058.597168 3877.981445,1123.542480 
	C3910.653564,1187.565308 3940.328613,1252.978516 3965.219727,1320.408936 
	C3981.784668,1365.284424 3997.144043,1410.638672 4011.772949,1456.186646 
	C4029.558350,1511.561768 4043.841553,1567.966187 4055.239258,1624.980835 
	C4064.601562,1671.814941 4072.118652,1719.022339 4080.120605,1766.120728 
	C4082.219971,1778.476196 4083.175537,1791.032227 4084.484619,1803.514160 
	C4085.790283,1815.964966 4086.890381,1828.437500 4088.052490,1840.902954 
	C4088.236328,1842.874390 4088.174805,1844.870483 4088.395264,1846.836304 
	C4090.080078,1861.867188 4091.806641,1876.893188 4093.224121,1892.148315 
	C4093.243164,1892.932251 4093.558350,1893.488647 4094.418457,1894.872925 
	C4095.975586,1895.133911 4096.987793,1894.567017 4098.000000,1894.000000 
z" data-index="1" style="visibility: visible; opacity: 1;"></path>

<path fill="#000000" opacity="1.000000" stroke="none" d="
M1937.062744,2.000000 
	C1940.082764,3.453388 1940.508423,5.098605 1937.698486,5.799528 
	C1935.250122,6.410274 1932.597412,6.201357 1929.145874,6.462557 
	C1888.651367,10.223391 1848.939453,12.996264 1809.468994,17.766155 
	C1766.315918,22.981068 1723.115601,28.611744 1680.429810,36.675251 
	C1631.170044,45.980621 1582.250244,57.328621 1533.547485,69.276245 
	C1477.336548,83.065704 1422.190918,100.643784 1367.622192,119.975060 
	C1310.851562,140.086411 1254.924316,162.292664 1200.324951,187.734070 
	C1172.895142,200.515427 1145.479858,213.382477 1118.550781,227.172882 
	C1061.115601,256.585419 1005.144897,288.590149 950.757446,323.376923 
	C902.526001,354.226379 855.300720,386.551117 810.079712,421.610046 
	C774.372070,449.293365 739.538513,478.169525 705.280518,507.636292 
	C678.353333,530.797607 652.837830,555.605408 626.817749,579.813477 
	C616.360291,589.542725 605.903992,599.310669 596.019226,609.610107 
	C575.536133,630.952576 555.378540,652.608887 535.191895,674.233948 
	C504.807159,706.783875 475.803101,740.562927 448.766724,775.912231 
	C419.061768,814.750610 389.725525,853.913330 361.527222,893.851562 
	C321.573425,950.439697 285.948792,1009.791565 252.770920,1070.605591 
	C224.414673,1122.581665 198.299454,1175.659058 174.480576,1229.856445 
	C144.090973,1299.004639 117.642639,1369.667480 95.255531,1441.784180 
	C76.830353,1501.138062 60.728710,1561.164673 48.303604,1622.094604 
	C41.339321,1656.245850 34.684887,1690.478027 28.860502,1724.838135 
	C24.484077,1750.656128 21.240675,1776.688477 18.237118,1802.711304 
	C14.550174,1834.654907 11.477806,1866.672974 8.471054,1898.689941 
	C7.292011,1911.244751 7.157516,1923.894897 6.213020,1936.476562 
	C5.987121,1939.485840 4.424375,1942.394653 2.738238,1944.674805 
	C2.000000,1296.812622 2.000000,649.625366 2.000000,2.000000 
	C646.708374,2.000000 1291.416870,2.000000 1937.062744,2.000000 
z" data-index="3" style="visibility: hidden; opacity: 1;"></path>

<path fill="#000000" opacity="1.000000" stroke="none" d="
M4098.000000,1893.062744 
	C4096.987793,1894.567017 4095.975586,1895.133911 4094.480957,1894.316772 
	C4093.839355,1892.595459 4093.679688,1892.258057 4093.520020,1891.920776 
	C4091.806641,1876.893188 4090.080078,1861.867188 4088.395264,1846.836304 
	C4088.174805,1844.870483 4088.236328,1842.874390 4088.052490,1840.902954 
	C4086.890381,1828.437500 4085.790283,1815.964966 4084.484619,1803.514160 
	C4083.175537,1791.032227 4082.219971,1778.476196 4080.120605,1766.120728 
	C4072.118652,1719.022339 4064.601562,1671.814941 4055.239258,1624.980835 
	C4043.841553,1567.966187 4029.558350,1511.561768 4011.772949,1456.186646 
	C3997.144043,1410.638672 3981.784668,1365.284424 3965.219727,1320.408936 
	C3940.328613,1252.978516 3910.653564,1187.565308 3877.981445,1123.542480 
	C3844.838623,1058.597168 3808.302979,995.621704 3768.485107,934.514038 
	C3722.472900,863.901184 3672.390625,796.333069 3617.948486,732.038879 
	C3595.618896,705.668579 3572.449951,679.977661 3548.947754,654.641113 
	C3527.214600,631.211731 3505.043213,608.138062 3482.157715,585.838745 
	C3424.477783,529.636230 3363.765137,476.878357 3299.874756,427.799469 
	C3260.005127,397.172852 3219.165771,367.915375 3177.151611,340.315247 
	C3126.523438,307.056183 3074.576904,276.017761 3021.202393,247.325073 
	C2944.941650,206.329330 2866.468262,170.206238 2785.658203,139.176208 
	C2699.612549,106.135765 2611.706787,79.089836 2521.952393,58.077915 
	C2474.103271,46.876240 2425.980713,37.041576 2377.369141,29.782156 
	C2353.146973,26.164970 2328.859863,22.924711 2304.540283,20.037260 
	C2283.642090,17.556005 2262.825928,14.503896 2241.693848,13.743682 
	C2225.642822,13.166262 2209.675293,10.264644 2191.945312,8.387742 
	C2182.362061,8.090432 2174.503906,7.802562 2166.328857,7.063563 
	C2165.317627,6.586180 2164.623535,6.559927 2163.030762,6.437009 
	C2157.654297,6.220444 2153.139648,6.399124 2148.713379,5.855094 
	C2146.488281,5.581612 2145.627930,3.783604 2148.000000,2.000000 
	C2797.852051,2.000000 3447.704102,2.000000 4098.000000,2.000000 
	C4098.000000,632.041748 4098.000000,1262.083496 4098.000000,1893.062744 
z" data-index="5" style="visibility: hidden; opacity: 1;"></path>

<path fill="#FF924B" opacity="1.000000" stroke="none" d="
M2276.064453,4084.932129 
	C2254.797119,4088.014648 2233.523926,4090.214600 2212.239502,4092.297363 
	C2205.333740,4092.972900 2198.381592,4093.193359 2191.487793,4093.956299 
	C2189.795898,4094.143555 2188.249268,4095.644775 2187.317871,4097.270996 
	C2183.916748,4098.000000 2179.833252,4098.000000 2174.875000,4098.000000 
	C2171.400391,4094.619141 2174.291992,4094.427734 2177.735352,4093.640381 
	C2179.707031,4093.148926 2179.884766,4092.644531 2179.566650,4091.964600 
	C2179.664307,4087.636475 2179.846680,4083.308350 2179.847168,4078.980225 
	C2179.861084,3874.670898 2179.910889,3670.361572 2179.675537,3466.052490 
	C2179.666016,3457.641602 2181.997803,3451.939697 2188.291748,3446.315918 
	C2259.102051,3383.040527 2329.679688,3319.504639 2400.287842,3256.003418 
	C2437.450928,3222.580566 2474.517822,3189.050781 2511.686279,3155.633545 
	C2580.569336,3093.702637 2649.513184,3031.839355 2718.396240,2969.908203 
	C2755.564453,2936.491211 2792.624756,2902.954346 2829.792969,2869.537842 
	C2891.985840,2813.621826 2954.248291,2757.783203 3016.439209,2701.864990 
	C3060.048584,2662.654297 3103.529541,2623.299805 3147.184326,2584.139648 
	C3167.269287,2566.122803 3187.771729,2548.571045 3207.831055,2530.526123 
	C3225.468994,2514.659424 3235.524170,2494.897461 3236.178223,2470.920410 
	C3236.368164,2463.956299 3235.537354,2456.964600 3235.052734,2449.057617 
	C3261.942871,2443.307861 3285.550293,2450.924561 3305.648926,2468.864258 
	C3320.999756,2482.565674 3329.566650,2499.846924 3332.472900,2520.743164 
	C3335.876709,2545.213623 3328.904541,2565.864014 3314.286865,2584.666504 
	C3310.888672,2589.037598 3306.621338,2592.780762 3302.499756,2596.533447 
	C3288.747314,2609.053955 3274.874268,2621.441406 3261.058350,2633.892090 
	C3240.581787,2652.345703 3220.124756,2670.821289 3199.640381,2689.266113 
	C3179.898438,2707.042480 3160.125488,2724.783691 3140.378662,2742.554932 
	C3120.136719,2760.771729 3099.917236,2779.013428 3079.675537,2797.230469 
	C3059.928711,2815.001709 3040.159180,2832.748047 3020.412354,2850.519287 
	C3000.170898,2868.735840 2979.964111,2886.991211 2959.706299,2905.189453 
	C2940.686523,2922.275879 2921.598633,2939.286377 2902.578857,2956.372803 
	C2882.321289,2974.570801 2862.115479,2992.826904 2841.873779,3011.042725 
	C2822.126465,3028.813965 2802.355469,3046.558594 2782.608398,3064.329834 
	C2762.366699,3082.546875 2742.157227,3100.799805 2721.903564,3119.003662 
	C2702.640625,3136.317383 2683.326172,3153.573730 2664.058350,3170.882080 
	C2644.047607,3188.857422 2624.065674,3206.864746 2604.071045,3224.857910 
	C2584.076660,3242.851318 2564.083008,3260.845215 2544.088867,3278.838867 
	C2524.094238,3296.832764 2504.099609,3314.826416 2484.104980,3332.820068 
	C2464.110352,3350.813965 2444.115723,3368.807617 2424.121094,3386.801514 
	C2404.126465,3404.795410 2384.145020,3422.804199 2364.134033,3440.779541 
	C2344.866211,3458.087402 2325.614258,3475.413330 2306.262451,3492.626709 
	C2297.587646,3500.342529 2288.548340,3507.653564 2279.989990,3515.492920 
	C2278.016602,3517.300537 2277.027588,3520.423584 2276.171631,3523.126953 
	C2275.595947,3524.946289 2276.044922,3527.092041 2276.044922,3529.091553 
	C2276.047607,3714.062500 2276.051025,3899.033203 2276.064453,4084.932129 
z" data-index="7" style="visibility: visible; opacity: 1;"></path>
<path fill="#FF924B" opacity="1.000000" stroke="none" d="
M2147.062744,2.000000 
	C2145.627930,3.783604 2146.488281,5.581612 2148.713379,5.855094 
	C2153.139648,6.399124 2157.654297,6.220444 2163.386475,6.818422 
	C2165.308838,7.369230 2165.977295,7.441961 2166.645752,7.514693 
	C2174.503906,7.802562 2182.362061,8.090432 2191.123291,8.569672 
	C2192.015869,254.046265 2191.908203,499.331573 2192.155273,744.616516 
	C2192.178467,767.502380 2186.714844,787.958313 2172.078125,805.556885 
	C2167.680176,810.845032 2162.229004,815.304077 2157.000244,819.843262 
	C2149.490234,826.362671 2141.529053,832.370850 2134.138672,839.017700 
	C2117.588135,853.902893 2101.327881,869.110718 2084.843506,884.070374 
	C2064.432129,902.594177 2043.922729,921.010315 2023.437134,939.452515 
	C2010.604980,951.004761 1997.798950,962.587036 1984.874756,974.035583 
	C1963.011963,993.402161 1941.042114,1012.647705 1919.165771,1031.998901 
	C1911.702026,1038.600952 1904.353516,1045.334229 1897.005859,1052.065918 
	C1880.101440,1067.553345 1863.298218,1083.151855 1846.326904,1098.565430 
	C1826.169067,1116.873047 1805.897217,1135.055420 1785.639648,1153.253052 
	C1766.620728,1170.338257 1747.536011,1187.350220 1728.517212,1204.435669 
	C1708.260132,1222.633667 1688.053589,1240.887695 1667.812256,1259.103149 
	C1648.066284,1276.873047 1628.309692,1294.631104 1608.547363,1312.382812 
	C1589.032227,1329.912476 1569.494995,1347.417603 1549.984497,1364.952393 
	C1529.979004,1382.932129 1509.994141,1400.934814 1490.000366,1418.927612 
	C1470.006592,1436.920166 1450.012573,1454.912598 1430.018677,1472.905029 
	C1410.024658,1490.898071 1390.029053,1508.889404 1370.036499,1526.884033 
	C1361.414917,1534.643921 1352.799316,1542.410889 1344.021851,1550.794189 
	C1341.220337,1551.664062 1338.578369,1552.130493 1335.936035,1552.132690 
	C1283.947632,1552.175781 1231.959106,1552.166748 1179.970703,1552.155396 
	C1178.649170,1552.155029 1177.327637,1552.007324 1174.843750,1551.858765 
	C1176.621094,1549.604492 1177.704590,1547.738403 1179.231201,1546.364624 
	C1251.548706,1481.288940 1323.906006,1416.257812 1396.255249,1351.217285 
	C1462.162598,1291.967896 1528.065430,1232.713379 1593.970581,1173.461426 
	C1666.812866,1107.972534 1739.654663,1042.483032 1812.497925,976.995178 
	C1871.714111,923.758240 1930.933105,870.524475 1990.148315,817.286560 
	C2010.217041,799.243652 2030.252075,781.163208 2050.368164,763.173462 
	C2053.838379,760.070190 2057.594482,757.278809 2061.293457,754.440918 
	C2080.520264,739.689819 2091.967529,720.414795 2094.170166,696.211304 
	C2095.068604,686.338318 2094.591797,676.332214 2094.592529,666.386719 
	C2094.609619,450.768005 2094.605713,235.149277 2094.602295,19.530550 
	C2094.602295,15.531767 2094.557861,11.532985 2094.347656,6.261910 
	C2094.161621,4.989619 2094.054932,4.353525 2094.520508,3.753953 
	C2094.657471,2.769587 2094.328857,2.384794 2094.000000,2.000000 
	C2111.375244,2.000000 2128.750244,2.000000 2147.062744,2.000000 
z" data-index="8" style="visibility: visible; opacity: 1;"></path>
<path fill="#000000" opacity="1.000000" stroke="none" d="
M1951.199951,2.000018 
	C1952.357056,2.751232 1952.714233,3.502429 1953.071289,4.253608 
	C1949.364746,5.878838 1945.632568,7.801316 1943.224243,2.670695 
	C1946.133423,2.000000 1948.266724,2.000000 1951.199951,2.000018 
z" data-index="9" style="visibility: visible;"></path>
<path fill="#000000" opacity="1.000000" stroke="none" d="
M2093.333496,2.000000 
	C2094.328857,2.384794 2094.657471,2.769587 2094.063477,3.622162 
	C2092.415039,4.285043 2092.065186,4.757988 2092.090820,5.508799 
	C2091.018799,4.694550 2089.947021,3.880281 2089.437500,2.533007 
	C2090.888916,2.000000 2091.777832,2.000000 2093.333496,2.000000 
z" data-index="10" style="visibility: visible;"></path>
<path fill="#412C1E" opacity="1.000000" stroke="none" d="
M4098.000000,2195.333496 
	C4096.805176,2196.007324 4095.609863,2196.014404 4094.760742,2194.877930 
	C4095.541260,2193.131348 4095.579102,2192.503906 4095.220215,2191.852295 
	C4095.703613,2191.500977 4096.187012,2191.149414 4097.334961,2191.398926 
	C4098.000000,2192.888916 4098.000000,2193.777832 4098.000000,2195.333496 
z" data-index="11" style="visibility: visible;"></path>
<path fill="#FF924B" opacity="1.000000" stroke="none" d="
M2234.110596,2381.375977 
	C2225.216797,2382.763428 2216.264160,2383.465820 2207.305420,2383.550293 
	C2187.662598,2383.735596 2168.016602,2383.627197 2148.372070,2383.587891 
	C2145.126221,2383.581543 2141.881104,2383.316895 2137.918457,2383.139404 
	C2137.746582,2379.222412 2137.480713,2375.984863 2137.480469,2372.747314 
	C2137.460938,2134.014648 2137.484375,1895.281982 2137.403564,1656.549316 
	C2137.399170,1643.624512 2136.531982,1630.700073 2136.188721,1616.937988 
	C2147.212402,1616.684692 2158.384277,1615.949463 2168.962402,1618.114014 
	C2195.010010,1623.443726 2213.688232,1639.572388 2225.942627,1662.604614 
	C2231.676025,1673.380615 2234.244629,1685.334351 2234.229492,1698.094971 
	C2233.963623,1922.203491 2234.010742,2146.312500 2233.992676,2370.421387 
	C2233.992432,2373.751221 2234.029297,2377.081055 2234.110596,2381.375977 
z" data-index="12" style="visibility: visible;"></path>
<path fill="#BF8158" opacity="1.000000" stroke="none" d="
M4093.224121,1892.148315 
	C4093.679688,1892.258057 4093.839355,1892.595459 4093.936035,1893.488892 
	C4093.558350,1893.488647 4093.243164,1892.932251 4093.224121,1892.148315 
z" data-index="13" style="visibility: visible;"></path>
<path fill="#BF8158" opacity="1.000000" stroke="none" d="
M4094.896973,2192.188477 
	C4095.579102,2192.503906 4095.541260,2193.131348 4094.710449,2194.030518 
	C4094.128906,2193.686768 4094.215576,2193.086182 4094.896973,2192.188477 
z" data-index="14" style="visibility: visible;"></path>
<path fill="#BF8158" opacity="1.000000" stroke="none" d="
M4090.885742,2242.195312 
	C4091.245850,2242.546631 4091.196045,2243.186035 4090.718994,2244.113770 
	C4090.353027,2243.762451 4090.414307,2243.122803 4090.885742,2242.195312 
z" data-index="15" style="visibility: visible;"></path>
<path fill="#BD7344" opacity="1.000000" stroke="none" d="
M2092.621826,5.589869 
	C2092.065186,4.757988 2092.415039,4.285043 2093.597656,4.221735 
	C2094.054932,4.353525 2094.161621,4.989619 2094.194336,5.311029 
	C2093.868896,5.645279 2093.510986,5.658118 2092.621826,5.589869 
z" data-index="16" style="visibility: visible;"></path>
<path fill="#FFEBDD" opacity="1.000000" stroke="none" d="
M2179.250732,4092.133545 
	C2179.884766,4092.644531 2179.707031,4093.148926 2178.588867,4093.473389 
	C2178.274414,4092.989746 2178.537598,4092.600830 2179.250732,4092.133545 
z" data-index="17" style="visibility: visible;"></path>
<path fill="#BD7344" opacity="1.000000" stroke="none" d="
M2166.328857,7.063563 
	C2165.977295,7.441961 2165.308838,7.369230 2164.284668,6.915086 
	C2164.623535,6.559927 2165.317627,6.586180 2166.328857,7.063563 
z" data-index="18" style="visibility: visible;"></path>
</svg>