<svg xmlns="http://www.w3.org/2000/svg" viewBox="0 0 50 50"><path d="M3.667 0.287 C 2.345 0.659,1.279 1.538,0.659 2.766 C 0.136 3.801,0.169 2.310,0.168 25.003 C 0.167 47.822,0.127 46.101,0.682 47.250 C 1.038 47.986,2.014 48.962,2.750 49.318 C 3.869 49.859,3.307 49.833,14.059 49.833 L 23.833 49.833 23.833 45.438 L 23.833 41.042 28.896 35.979 L 33.958 30.917 28.896 30.917 L 23.833 30.917 23.833 25.583 L 23.833 20.250 17.063 20.250 L 10.292 20.250 17.063 13.479 L 23.833 6.708 23.833 3.437 L 23.833 0.167 13.938 0.174 C 6.223 0.180,3.959 0.205,3.667 0.287 M26.167 3.938 L 26.167 7.709 21.125 12.750 C 18.352 15.523,16.083 17.819,16.083 17.854 C 16.083 17.888,18.352 17.917,21.124 17.917 L 26.165 17.917 26.187 23.229 L 26.208 28.542 32.915 28.563 L 39.623 28.584 32.895 35.314 L 26.167 42.044 26.167 45.939 L 26.167 49.833 35.938 49.832 C 46.789 49.831,46.243 49.858,47.366 49.270 C 48.520 48.666,49.441 47.474,49.762 46.167 C 49.856 45.788,49.875 42.115,49.875 24.917 L 49.875 4.125 49.690 3.542 C 49.187 1.954,47.897 0.692,46.372 0.294 C 45.945 0.183,44.607 0.167,36.024 0.167 L 26.167 0.167 26.167 3.938 " stroke="none" fill-rule="evenodd" fill="black"></path></svg>