<svg xmlns="http://www.w3.org/2000/svg" data-name="Layer 1" viewBox="0 0 24 24"><path d="M14.55 17.94v1.05c0 .81-.5 1.42-1.31 1.47-.82.06-1.65.05-2.47 0-.75-.05-1.24-.53-1.29-1.3-.05-.81-.06-1.63 0-2.44.06-.83.63-1.32 1.47-1.34a74.9 74.9 0 0 1 2.12 0c.86.01 1.46.61 1.47 1.47v1.08ZM3.26 11.7v1.16c0 .81.59 1.41 1.41 1.42h2.27c.8-.01 1.38-.61 1.39-1.41v-2.24c0-.78-.59-1.4-1.37-1.41-.78-.02-1.55-.02-2.33 0-.85.02-1.36.61-1.36 1.4v1.08Zm16.03 2.57a1.4 1.4 0 0 0 1.44-1.43V10.6c0-.76-.63-1.39-1.39-1.4h-2.3a1.4 1.4 0 0 0-1.38 1.4v2.27c0 .82.59 1.4 1.42 1.4h2.22ZM4.67 15.43c-.79 0-1.4.58-1.41 1.38-.01.75-.01 1.49 0 2.24.01.8.61 1.42 1.41 1.44.75.02 1.49.02 2.24 0 .82-.02 1.48-.71 1.43-1.47-.05-.76 0-1.53-.01-2.3 0-.7-.6-1.29-1.3-1.29H4.68Zm12.34 0c-.74 0-1.34.6-1.34 1.34v2.18c-.02.95.61 1.52 1.51 1.54.71.02 1.41.01 2.12 0 .77-.01 1.42-.62 1.44-1.35.02-.8.04-1.61 0-2.41-.04-.71-.52-1.29-1.33-1.3h-2.38Zm-7.52-2.45c0 .65.58 1.26 1.23 1.28.84.02 1.69.01 2.53 0 .57 0 1.2-.53 1.23-1.09a42 42 0 0 0 .01-2.75c-.02-.72-.75-1.23-1.38-1.23h-2.27c-.71 0-1.41.69-1.36 1.37.03.39 0 .78 0 1.16v1.25Zm14.5 5.79a5.12 5.12 0 0 1-5.15 5.22H5.16a5.14 5.14 0 0 1-3.97-1.86A4.76 4.76 0 0 1 0 18.99V5.68c0-.66.02-1.31.18-1.95l.06-.18.05-.12A5.2 5.2 0 0 1 5.03 0c4.65 0 9.29-.02 13.94 0 1.24 0 2.36.43 3.27 1.3.38.37.7.79 1.04 1.19.61 1.08.73 2.26.72 3.48-.02 4.26 0 8.52 0 12.78ZM16.2 3.05a1.03 1.03 0 1 0 2.06 0V1.87a1.03 1.03 0 1 0-2.06 0v1.18Zm-10.46 0a1.03 1.03 0 1 0 2.06 0V1.87a1.03 1.03 0 1 0-2.06 0v1.18Zm16.64 15.11c-.04-2.23 0-4.46 0-6.69 0-.22 0-.45-.04-.67a4.07 4.07 0 0 0-4.17-3.47H5.98a4.28 4.28 0 0 0-2.93.99 3.6 3.6 0 0 0-1.4 2.72c-.05 2.45-.02 4.91-.02 7.36a4.1 4.1 0 0 0 4.22 3.96c4.1 0 8.21-.02 12.31 0a4.16 4.16 0 0 0 4.23-4.2Z" style="fill:#000;stroke-width:0"/></svg>