<svg xmlns="http://www.w3.org/2000/svg" width="24" height="24"><path d="M7.035 3.824h3.992c.176 0 .32.145.32.324v18.258a.32.32 0 0 1-.32.32H7.035a.32.32 0 0 1-.32-.32V4.148c0-.18.144-.324.32-.324M1.82 1.86h4.344c.242 0 .438.195.438.437v19.992a.437.437 0 0 1-.438.438H1.82a.437.437 0 0 1-.437-.438V2.297c0-.242.195-.438.437-.438M15.5 9.066l4.477-.804a.32.32 0 0 1 .37.254l2.587 13.035a.31.31 0 0 1-.25.367l-4.473.805a.33.33 0 0 1-.375-.254L15.25 9.434a.313.313 0 0 1 .25-.368M13.93 1.43q-.03-.001-.059.004l-2.488.316a.296.296 0 0 0-.254.332l2.613 20.387a.28.28 0 0 0 .11.195c.062.047.14.07.218.059l2.489-.317a.296.296 0 0 0 .253-.332L14.2 1.688a.29.29 0 0 0-.27-.258"/></svg>