<svg xmlns="http://www.w3.org/2000/svg" xml:space="preserve" width="24" height="24" style="fill-rule:evenodd;clip-rule:evenodd;stroke-linejoin:round;stroke-miterlimit:2"><path d="M5.534 0.337 C 5.199 0.418,4.888 0.594,4.603 0.863 C 4.327 1.123,4.181 1.347,4.028 1.748 L 3.940 1.980 3.930 11.970 C 3.918 22.949,3.903 22.243,4.159 22.791 C 4.312 23.118,4.765 23.580,5.080 23.732 C 5.581 23.973,5.188 23.960,12.158 23.960 C 17.608 23.959,18.572 23.951,18.758 23.901 C 19.523 23.697,20.104 23.110,20.299 22.342 C 20.353 22.132,20.360 20.916,20.360 12.134 C 20.360 5.055,20.347 2.102,20.316 1.952 C 20.198 1.381,19.765 0.800,19.256 0.531 C 18.758 0.267,19.154 0.281,12.120 0.284 C 7.161 0.286,5.694 0.298,5.534 0.337 M18.322 2.050 C 18.452 2.116,18.524 2.188,18.590 2.318 C 18.680 2.497,18.680 2.500,18.680 4.566 C 18.680 5.927,18.665 6.673,18.638 6.747 C 18.574 6.915,18.363 7.115,18.202 7.160 C 18.112 7.185,15.891 7.199,12.100 7.199 C 6.374 7.198,6.134 7.195,5.976 7.124 C 5.886 7.083,5.769 6.989,5.716 6.915 L 5.620 6.780 5.609 4.621 C 5.597 2.363,5.600 2.329,5.773 2.167 C 6.008 1.947,5.591 1.961,12.122 1.960 L 18.143 1.960 18.322 2.050 M7.650 9.167 C 7.880 9.217,8.251 9.450,8.436 9.661 C 8.511 9.746,8.628 9.934,8.696 10.078 C 8.809 10.317,8.820 10.376,8.820 10.740 C 8.820 11.107,8.809 11.162,8.693 11.409 C 8.444 11.933,7.997 12.273,7.426 12.371 C 6.748 12.487,6.032 12.100,5.708 11.442 C 5.587 11.197,5.580 11.156,5.580 10.741 C 5.580 10.346,5.591 10.276,5.688 10.070 C 5.836 9.755,6.155 9.427,6.463 9.275 C 6.840 9.090,7.162 9.060,7.650 9.167 M12.671 9.182 C 12.904 9.251,13.214 9.456,13.382 9.654 C 14.228 10.642,13.689 12.130,12.399 12.370 C 11.714 12.497,10.978 12.104,10.664 11.442 C 10.549 11.198,10.540 11.149,10.540 10.739 C 10.540 10.321,10.547 10.284,10.672 10.030 C 11.042 9.280,11.849 8.937,12.671 9.182 M17.354 9.122 C 17.874 9.206,18.332 9.551,18.572 10.039 C 18.693 10.283,18.700 10.324,18.700 10.740 C 18.700 11.157,18.693 11.196,18.571 11.445 C 18.064 12.473,16.742 12.707,15.943 11.909 C 15.682 11.647,15.540 11.379,15.474 11.022 C 15.297 10.056,16.021 9.160,17.040 9.085 C 17.073 9.083,17.214 9.099,17.354 9.122 M7.528 14.084 C 8.372 14.261,8.957 15.118,8.804 15.952 C 8.672 16.667,8.124 17.206,7.414 17.321 C 6.740 17.429,6.010 17.040,5.712 16.412 C 5.121 15.165,6.183 13.803,7.528 14.084 M12.533 14.100 C 12.864 14.186,13.066 14.301,13.299 14.534 C 14.085 15.321,13.859 16.671,12.860 17.163 C 11.862 17.655,10.694 17.043,10.510 15.932 C 10.322 14.796,11.413 13.808,12.533 14.100 M17.499 14.101 C 18.719 14.419,19.128 15.957,18.232 16.853 C 17.432 17.652,16.115 17.429,15.611 16.409 C 15.465 16.115,15.460 16.090,15.460 15.681 C 15.460 15.284,15.468 15.242,15.591 14.991 C 15.953 14.256,16.720 13.899,17.499 14.101 M17.842 19.201 C 18.829 19.699,19.049 20.959,18.296 21.796 C 17.957 22.173,17.361 22.377,16.854 22.291 C 15.760 22.103,15.159 20.955,15.629 19.952 C 16.008 19.140,17.033 18.793,17.842 19.201 M12.768 19.172 C 13.522 19.542,13.898 20.398,13.641 21.157 C 13.447 21.731,13.042 22.107,12.453 22.260 C 12.106 22.351,7.209 22.349,6.858 22.258 C 6.218 22.093,5.750 21.582,5.634 20.921 C 5.496 20.137,6.010 19.323,6.800 19.077 C 6.855 19.060,8.169 19.049,9.720 19.053 L 12.540 19.060 12.768 19.172 " stroke="none" fill-rule="evenodd" fill="black"></path></svg>