<svg xmlns="http://www.w3.org/2000/svg" width="24" height="24"><path d="M12.680 0.548 C 11.841 0.657,11.265 0.749,11.211 0.784 C 11.161 0.815,11.111 0.883,11.098 0.934 C 11.075 1.027,13.931 23.494,13.989 23.676 C 14.006 23.729,14.069 23.808,14.129 23.853 L 14.238 23.934 15.707 23.746 C 17.352 23.535,17.360 23.533,17.360 23.239 C 17.360 23.158,16.712 18.035,15.920 11.856 C 15.128 5.676,14.480 0.606,14.480 0.588 C 14.480 0.508,14.276 0.360,14.172 0.365 C 14.110 0.367,13.439 0.450,12.680 0.548 M0.518 0.931 C 0.423 0.994,0.368 1.074,0.331 1.200 C 0.289 1.346,0.281 3.472,0.290 12.482 C 0.299 23.000,0.304 23.589,0.370 23.691 C 0.527 23.929,0.439 23.923,3.239 23.911 L 5.798 23.900 5.929 23.769 L 6.060 23.638 6.070 12.429 C 6.077 3.513,6.069 1.200,6.029 1.121 C 6.001 1.067,5.918 0.981,5.844 0.931 L 5.708 0.840 3.180 0.840 L 0.652 0.840 0.518 0.931 M6.410 3.059 C 6.338 3.091,6.262 3.163,6.240 3.221 C 6.214 3.289,6.200 6.868,6.200 13.506 L 6.200 23.686 6.317 23.803 L 6.434 23.920 8.760 23.920 L 11.086 23.920 11.203 23.803 L 11.320 23.686 11.320 13.465 L 11.320 3.244 11.223 3.132 L 11.127 3.020 8.833 3.011 C 6.916 3.003,6.519 3.011,6.410 3.059 M18.303 8.379 C 15.916 8.812,15.822 8.833,15.733 8.937 C 15.682 8.996,15.640 9.084,15.641 9.132 C 15.642 9.346,18.516 23.687,18.575 23.778 C 18.613 23.835,18.694 23.886,18.770 23.900 C 18.854 23.916,19.774 23.766,21.360 23.480 C 22.713 23.236,23.861 23.026,23.910 23.014 C 23.998 22.992,24.000 22.978,24.000 22.441 L 24.000 21.891 22.640 15.035 C 21.892 11.265,21.280 8.166,21.280 8.148 C 21.280 8.131,21.232 8.072,21.174 8.018 C 21.099 7.949,21.026 7.921,20.924 7.925 C 20.845 7.927,19.665 8.132,18.303 8.379 " stroke="none" fill-rule="evenodd" fill="black"></path></svg>