<svg width="24" height="24" viewBox="0 0 24 24" fill="none" xmlns="http://www.w3.org/2000/svg">
<path fill-rule="evenodd" clip-rule="evenodd" d="M8.95208 0.0424781C3.01053 1.57211 -0.875417 7.69094 0.169732 13.8712C1.28489 20.4658 7.50737 24.95 13.986 23.8279C14.6615 23.7108 15.3213 23.5375 15.4752 23.4366C15.8238 23.2079 17.0353 20.004 16.9048 19.6558C16.7636 19.279 16.531 19.2663 15.8541 19.5984C12.4642 21.2617 8.59257 20.6352 5.97009 17.9993C0.749635 12.7519 4.00336 3.79045 11.3635 3.14458C12.9832 3.00245 12.7145 2.40774 10.1863 0.538457C9.43536 -0.0168162 9.33652 -0.056534 8.95208 0.0424781ZM16.0913 0.536125C15.7551 0.777331 15.8042 0.939665 16.466 1.7748C20.0736 6.32752 21.636 12.2928 20.8066 18.3476C20.5356 20.3262 21.4481 19.8189 22.7097 17.2896C25.7266 11.2414 23.2695 3.85766 17.2512 0.886166C16.3541 0.443262 16.2602 0.414922 16.0913 0.536125ZM11.363 6.68859C7.42385 7.24938 5.57206 11.8777 8.02353 15.0354C10.4545 18.1666 15.5121 17.3096 16.7938 13.5491C18.0272 9.93041 15.0459 6.16427 11.363 6.68859Z" fill="black"/>
</svg>
