<svg width="24" height="24" viewBox="-5 -10 24 24"><path fill-rule="evenodd" d="M12.407 7.111H1.45a.3.3 0 0 0-.213.09.3.3 0 0 0-.09.213v.302h11.56v-.302a.3.3 0 0 0-.089-.213.3.3 0 0 0-.213-.09zm.916 3.703H.534a1 1 0 0 0-.109.008l-.009.002H.413a.75.75 0 0 0-.629.742v.64q.001.046.034.078a.1.1 0 0 0 .078.033h14.066a.1.1 0 0 0 .079-.033.1.1 0 0 0 .033-.079v-.639a.75.75 0 0 0-.22-.529.75.75 0 0 0-.53-.22zM1.637 9.654l-.072.106h10.763l-.072-.107a4 4 0 0 1-.428-.883H2.066a4 4 0 0 1-.429.883zm1.2-4.078q-.119.24-.206.48h9.344l.06-.316c.153-.743.392-1.431.631-2.118.226-.649.452-1.297.588-1.956q.034-.16.07-.377c.374-2.186.057-4.3-.91-5.975-.957-1.658-2.558-2.893-4.764-3.35a9 9 0 0 0-.3-.056 8.5 8.5 0 0 0-1.832-.128 6 6 0 0 0-1.382.224c.087.222.182.474.24.628v.002q.23.612-.3.985c-.17.12-.508.36-.697.648-.188.286-.31.588-.44.909-.196.48-.406 1-.864 1.632-.058.08-.17.225-.3.395C1.195-2.045.14-.675.278-.337q.012.032.026.053c.121.195.394.386.71.51.3.12.613.167.826.08A.3.3 0 0 0 1.894.28c.147-.092.312-.258.466-.411.135-.137.264-.266.403-.37.329-.247.552-.266.925-.299l.21-.018c.494-.054.912-.139 1.298-.286.377-.144.73-.353 1.107-.662q1.13-.925 1.045.373c-.008.113-.022.338-.188.785a7 7 0 0 1-.39.864 9 9 0 0 1-.517.858c-.443.653-.975 1.267-1.509 1.883-.734.847-1.471 1.698-1.909 2.578Zm-1.314.48q.042-.135.088-.27.119-.342.284-.676c.496-1 1.278-1.903 2.057-2.802.518-.597 1.033-1.192 1.435-1.784.18-.263.33-.52.454-.757a5 5 0 0 1-.267.113c-.475.181-.977.284-1.561.347-.134.015-.185.02-.232.024-.189.017-.302.027-.385.089-.073.055-.177.159-.288.27-.196.196-.41.41-.655.563a1.4 1.4 0 0 1-.214.11c-.481.194-1.078.131-1.605-.076-.51-.202-.98-.553-1.22-.938a1.4 1.4 0 0 1-.11-.21c-.362-.894.93-2.575 1.641-3.497.107-.139.197-.257.28-.37.382-.528.567-.986.74-1.41.15-.37.291-.72.535-1.09.248-.377.599-.66.84-.836a17 17 0 0 0-.292-.74l-.032-.067c-.08-.169-.122-.26-.074-.462.072-.3.19-.344.44-.436l.026-.01a6.8 6.8 0 0 1 2.064-.41 9.5 9.5 0 0 1 2.39.203c2.524.523 4.362 1.947 5.465 3.857 1.092 1.89 1.454 4.252 1.038 6.676q-.03.177-.079.41c-.151.732-.388 1.412-.625 2.092-.228.654-.456 1.31-.595 1.983l-.047.25q.194.099.348.253c.246.246.398.585.398.958v.415a.94.94 0 0 1-.806.932q.08.165.181.321.264.406.672.746c.302.086.572.247.788.462.327.328.53.779.53 1.275v.64c0 .32-.131.612-.342.823a1.16 1.16 0 0 1-.824.342H-.105c-.321 0-.612-.13-.824-.342a1.16 1.16 0 0 1-.342-.824v-.639A1.814 1.814 0 0 1 .095 9.815q.4-.335.66-.734.099-.153.178-.316a.94.94 0 0 1-.84-.936v-.415c0-.373.153-.712.399-.958s.585-.398.958-.398h.072z" style="stroke-width:.251648"/></svg>