<svg xmlns="http://www.w3.org/2000/svg" width="64" height="64" viewBox="-1.5 0 67 67"><path d="M16.7 51.2c-4.5 0-8.6-1.8-11.8-5S0 38.7 0 34.2s1.7-8.8 4.9-12 7.4-5 11.8-5 8.7 1.8 11.8 5c2.3 2.4 2.3 6.2 0 8.6a5.9 5.9 0 0 1-8.4 0 4.8 4.8 0 0 0-3.4-1.5c-2.6 0-4.9 2.3-4.9 4.9s2.2 4.9 4.9 4.9c1.3 0 2.5-.5 3.4-1.5a5.9 5.9 0 0 1 8.4 0c2.3 2.4 2.3 6.2 0 8.6-3.1 3.2-7.4 5-11.8 5m15.4 15.5c-4.5 0-8.6-1.8-11.8-5s-4.9-7.5-4.9-12 1.8-8.9 4.9-12.1a5.9 5.9 0 0 1 8.4 0c2.3 2.4 2.3 6.2 0 8.6-.9.9-1.4 2.2-1.4 3.5 0 2.7 2.2 4.9 4.9 4.9s4.9-2.3 4.9-4.9c0-1-.2-2.3-1.3-3.4-3.1-3.2-4.9-7.6-4.9-12.1s1.7-8.8 4.9-12 7.4-5 11.8-5 8.6 1.8 11.8 5 4.9 7.5 4.9 12-1.8 8.9-4.9 12.1a5.9 5.9 0 0 1-8.4 0c-2.3-2.4-2.3-6.2 0-8.6.9-.9 1.4-2.2 1.4-3.5 0-2.7-2.2-4.9-4.9-4.9s-4.9 2.3-4.9 4.9c0 1.3.5 2.6 1.5 3.5 3.1 3.2 4.8 7.4 4.8 12s-1.7 8.8-4.9 12-7.4 5-11.8 5zM32 19.1 22.3 10a3.7 3.7 0 0 1-.2-5.3 3.7 3.7 0 0 1 5.3-.2l3.9 3.7 5.5-6.8A3.7 3.7 0 0 1 42 .8a3.7 3.7 0 0 1 .6 5.2z"/></svg>