<svg xmlns="http://www.w3.org/2000/svg" width="24" height="24"><path fill="#000" fill-rule="nonzero" d="m23.143 14.572-6.375-1.843v-2.262l6.375 1.854v2.25Zm-3.492 5.536-1.592 1.591-3.296-5.906 1.602-1.6 3.286 5.915Zm-5.722-4.692a.428.428 0 0 0-.08.495h-2.9a.43.43 0 0 0-.28.103l-2.085-2.085a.427.427 0 0 0-.495-.081v-2.9a.43.43 0 0 0-.103-.28l2.085-2.085a.428.428 0 0 0 .081-.494h2.9a.43.43 0 0 0 .279-.103l2.085 2.085c.13.132.331.163.495.08v2.9a.43.43 0 0 0 .103.28l-2.085 2.085Zm-2.25 7.727h-2.25l1.842-6.375h2.262l-1.855 6.375ZM3.891 19.65 2.3 18.058l5.907-3.295 1.6 1.601-5.915 3.286ZM.857 11.678v-2.25l6.375 1.842v2.263L.857 11.678ZM4.35 3.892 5.941 2.3l3.296 5.906-1.602 1.601L4.35 3.892ZM12.322.857h2.25l-1.843 6.375h-2.262L12.322.857Zm7.786 3.492L21.7 5.941l-5.907 3.295-1.6-1.6 5.915-3.287Zm3.583 7.24-6.806-1.98 5.728-3.195a.429.429 0 0 0 .094-.678l-2.222-2.221a.428.428 0 0 0-.511-.072l-6.263 3.48L15.554.546A.43.43 0 0 0 15.142 0H12a.428.428 0 0 0-.411.309l-1.98 6.805-3.195-5.727a.43.43 0 0 0-.678-.094L3.515 3.515a.429.429 0 0 0-.072.511l3.479 6.262L.547 8.446A.428.428 0 0 0 0 8.857V12c0 .19.126.358.309.411l6.806 1.98-5.728 3.195a.43.43 0 0 0-.094.677l2.222 2.222a.429.429 0 0 0 .511.071l6.263-3.479-1.843 6.375a.43.43 0 0 0 .412.548H12c.19 0 .358-.126.411-.309l1.98-6.806 3.195 5.728a.429.429 0 0 0 .678.094l2.221-2.222a.429.429 0 0 0 .072-.511l-3.479-6.263 6.375 1.843a.429.429 0 0 0 .547-.412V12a.428.428 0 0 0-.309-.411Z"/></svg>