<svg version="1.1" id="svg1" width="24" height="24" viewBox="0 0 24 24" xmlns="http://www.w3.org/2000/svg">
   <defs id="defs1" />
   <g id="g1">
      <path style="fill:#000000;stroke-width:0.0375939"
         d="m 1.8547419,23.987825 c -0.02919,-0.01193 -0.09802,-0.02244 -0.152946,-0.02336 -0.05493,-9.16e-4 -0.120609,-0.01161 -0.145953,-0.02376 -0.02534,-0.01215 -0.102802,-0.03578 -0.172129,-0.05251 -0.06933,-0.01672 -0.12605,-0.03873 -0.12605,-0.04891 0,-0.01018 -0.02388,-0.0185 -0.05307,-0.0185 -0.02919,0 -0.05307,-0.01065 -0.05307,-0.02367 0,-0.01302 -0.01566,-0.02367 -0.0348,-0.02367 -0.01914,0 -0.06044,-0.0213 -0.09177,-0.04734 -0.03133,-0.02604 -0.06802,-0.04734 -0.08153,-0.04734 -0.0308,0 -0.375686,-0.297063 -0.375771,-0.323662 -3.4e-5,-0.01076 -0.03583,-0.05684 -0.07955,-0.102405 -0.04372,-0.04557 -0.07951,-0.09616 -0.07955,-0.112435 -3.5e-5,-0.01627 -0.012,-0.02959 -0.0266,-0.02959 -0.0146,0 -0.02654,-0.0213 -0.02654,-0.04734 0,-0.02604 -0.01194,-0.04734 -0.02654,-0.04734 -0.01459,0 -0.02654,-0.0213 -0.02654,-0.04734 0,-0.02604 -0.0098,-0.04734 -0.02174,-0.04734 -0.01196,0 -0.0382,-0.05393 -0.05833,-0.119852 -0.02012,-0.06592 -0.04617,-0.125131 -0.05787,-0.131584 -0.0117,-0.0065 -0.02128,-0.04243 -0.02128,-0.07995 0,-0.03752 -0.01194,-0.0748 -0.02654,-0.08285 -0.01459,-0.008 -0.02654,-0.05598 -0.02654,-0.106516 0,-0.05054 -0.01039,-0.09762 -0.02309,-0.10462 -0.05936,-0.03272 -0.06581,-1.021912 -0.066720001,-10.239341 -9.8e-4,-9.8912342 3.02e-4,-10.0440376 0.087410001,-10.4268067 0.01481,-0.065094 0.03473,-0.1531002 0.04427,-0.1955704 0.0095,-0.04247 0.0279,-0.083043 0.04081,-0.090161 0.01291,-0.00712 0.02348,-0.033762 0.02348,-0.059208 0,-0.025446 0.01056,-0.064761 0.02346,-0.087367 0.01291,-0.022606 0.06302,-0.1156637 0.111364,-0.20679469 0.04835,-0.091131 0.0975,-0.1692433 0.109222,-0.1735829 0.01173,-0.00434 0.02136,-0.020317 0.02141,-0.035506 2.75e-4,-0.080433 0.510023,-0.5348266 0.601407,-0.5360981 0.01703,-2.379e-4 0.03494,-0.00842 0.03981,-0.018184 0.0086,-0.01719 0.219354,-0.1122899 0.327287,-0.1476587 0.219746,-0.072009 0.289731,-0.0798579959 0.710559,-0.07969099587 0.30509,1.211e-4 0.454992,0.0089199959 0.476336,0.02795799587 0.01713,0.01528 0.06985,0.027782 0.117151,0.027782 0.0473,0 0.09339,0.010652 0.102406,0.02367 0.009,0.013019 0.04571,0.02367 0.08154,0.02367 0.03582,0 0.08886,0.010652 0.117849,0.02367 0.02899,0.013019 0.07643,0.034322 0.105427,0.047341 0.02899,0.013019 0.0678,0.023826 0.08624,0.024017 0.04479,4.633e-4 0.639216,0.2677036 0.683683,0.3073682 0.01155,0.010304 0.07646,0.042663 0.305174,0.1521261 0.02919,0.013971 0.05904,0.030988 0.06634,0.037816 0.0073,0.00683 0.06999,0.038765 0.139318,0.070971 0.06933,0.032206 0.12605,0.066563 0.12605,0.07635 0,0.00979 0.02388,0.017793 0.05307,0.017793 0.02919,0 0.05307,0.00941 0.05307,0.02091 0,0.0115 0.0209,0.026821 0.04644,0.034046 0.04547,0.012862 0.19268,0.087323 0.218929,0.11073669 0.01155,0.010304 0.07646,0.042663 0.305173,0.1521261 0.02919,0.013971 0.05905,0.030728 0.06634,0.037237 0.0073,0.00651 0.03715,0.023266 0.06634,0.037237 0.231081,0.1105992 0.293613,0.1418893 0.305173,0.1527053 0.0073,0.00683 0.06999,0.038765 0.139318,0.070971 0.06933,0.032206 0.12605,0.066563 0.12605,0.07635 0,0.00979 0.02388,0.017793 0.05307,0.017793 0.02919,0 0.05307,0.00941 0.05307,0.02091 0,0.0115 0.0209,0.026821 0.04644,0.034046 0.04547,0.012862 0.19268,0.087323 0.218929,0.1107367 0.01155,0.010304 0.07646,0.042663 0.305173,0.1521261 0.02919,0.013971 0.05904,0.030728 0.06634,0.037237 0.01155,0.010304 0.07646,0.042663 0.305174,0.1521261 0.02919,0.013971 0.05904,0.030988 0.06634,0.037816 0.0073,0.00683 0.06999,0.038765 0.139318,0.07097 0.06933,0.032206 0.12605,0.066563 0.12605,0.07635 0,0.00979 0.02388,0.017794 0.05307,0.017794 0.02919,0 0.05307,0.00941 0.05307,0.02091 0,0.0115 0.0209,0.026821 0.04644,0.034046 0.04547,0.012862 0.19268,0.087323 0.218929,0.1107367 0.01155,0.010304 0.07646,0.042663 0.305173,0.1521261 0.02919,0.013971 0.05904,0.030728 0.06634,0.037237 0.01155,0.010304 0.07647,0.042663 0.305174,0.1521261 0.02919,0.013971 0.05904,0.030988 0.06634,0.037816 0.0073,0.00683 0.06999,0.038765 0.139318,0.070971 0.06933,0.032206 0.12605,0.066563 0.12605,0.07635 0,0.00979 0.02388,0.017793 0.05307,0.017793 0.02919,0 0.05307,0.00941 0.05307,0.02091 0,0.0115 0.0209,0.026821 0.04644,0.034046 0.04547,0.012862 0.19268,0.087323 0.218929,0.1107367 0.01155,0.010304 0.07646,0.042663 0.305173,0.1521261 0.02919,0.013971 0.05904,0.030728 0.06634,0.037237 0.01155,0.010305 0.07646,0.042663 0.305174,0.1521261 0.02919,0.013971 0.05904,0.030988 0.06634,0.037816 0.0073,0.00683 0.06999,0.038765 0.139318,0.070971 0.06933,0.032206 0.1260501,0.066563 0.1260501,0.076349 0,0.00979 0.02388,0.017793 0.05307,0.017793 0.02919,0 0.05307,0.00941 0.05307,0.02091 0,0.0115 0.0209,0.026821 0.04644,0.034046 0.04547,0.012862 0.19268,0.087323 0.218929,0.1107366 0.01155,0.010304 0.07646,0.042663 0.305173,0.1521262 0.02919,0.013971 0.05904,0.030728 0.06634,0.037237 0.01155,0.010304 0.07646,0.042663 0.305174,0.1521262 0.02919,0.013971 0.05904,0.030988 0.06634,0.037816 0.0073,0.00683 0.06999,0.038765 0.139319,0.070971 0.06933,0.032206 0.12605,0.066563 0.12605,0.07635 0,0.00979 0.02388,0.017793 0.05307,0.017793 0.02919,0 0.05307,0.00941 0.05307,0.02091 0,0.0115 0.0209,0.026821 0.04644,0.034046 0.04547,0.012862 0.192681,0.087323 0.218929,0.1107366 0.01155,0.010304 0.07646,0.042663 0.305174,0.1521261 0.02919,0.013971 0.05904,0.030728 0.06634,0.037237 0.01155,0.010304 0.07646,0.042663 0.305173,0.1521261 0.02919,0.013971 0.05905,0.030989 0.06634,0.037816 0.0073,0.00683 0.06999,0.038765 0.139319,0.070971 0.06933,0.032206 0.12605,0.066563 0.12605,0.076349 0,0.00979 0.02388,0.017793 0.05307,0.017793 0.02919,0 0.05307,0.00941 0.05307,0.02091 0,0.0115 0.0209,0.026821 0.04644,0.034046 0.04547,0.012862 0.19268,0.087323 0.218929,0.1107366 0.01155,0.010304 0.07646,0.042663 0.305174,0.1521261 0.02919,0.013971 0.05904,0.030728 0.06634,0.037237 0.01155,0.010304 0.07646,0.042663 0.305173,0.1521261 0.02919,0.013971 0.05904,0.030989 0.06634,0.037816 0.0073,0.00683 0.06999,0.038765 0.139319,0.070971 0.06933,0.032206 0.12605,0.066563 0.12605,0.076349 0,0.00979 0.02388,0.017794 0.05307,0.017794 0.02919,0 0.05307,0.00941 0.05307,0.02091 0,0.0115 0.0209,0.026821 0.04644,0.034046 0.04547,0.012862 0.19268,0.087324 0.218929,0.1107366 0.01155,0.010304 0.07646,0.042663 0.305174,0.1521261 0.02919,0.013971 0.05904,0.030728 0.06634,0.037237 0.01155,0.010304 0.07646,0.042663 0.305173,0.1521255 0.02919,0.01397 0.05904,0.03099 0.06634,0.03782 0.0073,0.0068 0.06999,0.03876 0.139319,0.07097 0.06933,0.03221 0.126049,0.06656 0.126049,0.07635 0,0.0098 0.02388,0.01779 0.05307,0.01779 0.02919,0 0.05307,0.0094 0.05307,0.02091 0,0.0115 0.0209,0.02682 0.04644,0.03405 0.04547,0.01286 0.19268,0.08732 0.218929,0.110737 0.01155,0.0103 0.07646,0.04266 0.305173,0.152126 0.02919,0.01397 0.05904,0.03073 0.06634,0.03724 0.01155,0.0103 0.07646,0.04266 0.305173,0.152126 0.02919,0.01397 0.05904,0.03099 0.06634,0.03782 0.0073,0.0068 0.06999,0.03876 0.139318,0.07097 0.06933,0.0322 0.12605,0.06656 0.12605,0.07635 0,0.0098 0.02388,0.01779 0.05307,0.01779 0.02919,0 0.05307,0.0094 0.05307,0.02091 0,0.0115 0.0209,0.02682 0.04644,0.03405 0.04547,0.01286 0.19268,0.08732 0.218929,0.110736 0.01155,0.01031 0.07647,0.04266 0.305173,0.152126 0.02919,0.01397 0.05904,0.03073 0.06634,0.03724 0.01155,0.0103 0.07647,0.04266 0.305173,0.152125 0.02919,0.01397 0.05904,0.03099 0.06634,0.03782 0.0073,0.0068 0.06999,0.03876 0.139318,0.07097 0.06933,0.03221 0.12605,0.06656 0.12605,0.07635 0,0.0098 0.02388,0.01779 0.05307,0.01779 0.02919,0 0.05307,0.0094 0.05307,0.02091 0,0.0115 0.0209,0.02682 0.04644,0.03405 0.04547,0.01286 0.19268,0.08732 0.218929,0.110737 0.01155,0.0103 0.07646,0.04266 0.305173,0.152126 0.02919,0.01397 0.05905,0.03073 0.06634,0.03724 0.01155,0.01031 0.07646,0.04266 0.305173,0.152126 0.02919,0.01397 0.05904,0.03099 0.06634,0.03782 0.0073,0.0068 0.06999,0.03876 0.139318,0.07097 0.06933,0.03221 0.12605,0.06656 0.12605,0.07635 0,0.0098 0.02388,0.01779 0.05307,0.01779 0.02919,0 0.05307,0.0094 0.05307,0.02091 0,0.0115 0.0209,0.02682 0.04644,0.03405 0.04547,0.01286 0.19268,0.08732 0.218929,0.110737 0.01155,0.0103 0.07646,0.04266 0.305173,0.152126 0.02919,0.01397 0.05904,0.03073 0.06634,0.03724 0.01155,0.0103 0.07646,0.04266 0.305174,0.152126 0.02919,0.01397 0.05904,0.03099 0.06634,0.03782 0.0073,0.0068 0.06999,0.03876 0.139318,0.07097 0.06933,0.0322 0.12605,0.06656 0.12605,0.07635 0,0.0098 0.02388,0.01779 0.05307,0.01779 0.02919,0 0.05307,0.0094 0.05307,0.02091 0,0.0115 0.0209,0.02682 0.04644,0.03405 0.04547,0.01286 0.19268,0.08732 0.218929,0.110736 0.01155,0.01031 0.07646,0.04266 0.305173,0.152126 0.02919,0.01397 0.05905,0.03073 0.06634,0.03724 0.01155,0.0103 0.07647,0.04266 0.305174,0.152126 0.02919,0.01397 0.05904,0.03099 0.06634,0.03782 0.0073,0.0068 0.06999,0.03876 0.139318,0.07097 0.06933,0.03221 0.12605,0.06656 0.12605,0.07635 0,0.0098 0.01248,0.01779 0.02773,0.01779 0.03319,0 0.392054,0.213723 0.509474,0.303421 0.221226,0.168998 0.449933,0.386707 0.576434,0.548714 0.03558,0.04556 0.07148,0.08817 0.07977,0.09468 0.01619,0.0127 0.179701,0.312153 0.213262,0.390562 0.141605,0.33083 0.141715,0.777519 2.78e-4,1.112508 -0.03505,0.08301 -0.195659,0.378272 -0.212449,0.390561 -0.0089,0.0065 -0.04528,0.04912 -0.08086,0.09468 -0.1265,0.162006 -0.355207,0.379715 -0.576433,0.548713 -0.11742,0.0897 -0.476281,0.303421 -0.509474,0.303421 -0.01526,0 -0.02773,0.008 -0.02773,0.01779 0,0.0098 -0.05672,0.04414 -0.126051,0.07635 -0.06933,0.03221 -0.13202,0.06414 -0.139318,0.07097 -0.01156,0.01082 -0.07409,0.04211 -0.305173,0.152706 -0.02919,0.01397 -0.05904,0.03073 -0.06634,0.03724 -0.01155,0.0103 -0.07646,0.04266 -0.305174,0.152126 -0.02919,0.01397 -0.05904,0.03073 -0.06634,0.03724 -0.02625,0.02341 -0.17346,0.09787 -0.218928,0.110737 -0.02554,0.0072 -0.04644,0.02255 -0.04644,0.03405 0,0.0115 -0.02388,0.02091 -0.05307,0.02091 -0.02919,0 -0.05307,0.008 -0.05307,0.01779 0,0.0098 -0.05672,0.04414 -0.12605,0.07635 -0.06933,0.0322 -0.132021,0.06414 -0.139318,0.07097 -0.01156,0.01082 -0.07409,0.04211 -0.305174,0.152705 -0.02919,0.01397 -0.05904,0.03073 -0.06634,0.03724 -0.01155,0.0103 -0.07646,0.04266 -0.305173,0.152127 -0.02919,0.01397 -0.05904,0.03073 -0.06634,0.03724 -0.02625,0.02341 -0.17346,0.09788 -0.218928,0.110737 -0.02554,0.0072 -0.04644,0.02255 -0.04644,0.03405 0,0.0115 -0.02388,0.02091 -0.05307,0.02091 -0.02919,0 -0.05307,0.008 -0.05307,0.01779 0,0.0098 -0.05672,0.04414 -0.12605,0.07635 -0.06933,0.03221 -0.132021,0.06414 -0.139318,0.07097 -0.01156,0.01082 -0.07409,0.04211 -0.305174,0.152705 -0.02919,0.01397 -0.05904,0.03073 -0.06634,0.03724 -0.01155,0.0103 -0.07646,0.04266 -0.305173,0.152126 -0.02919,0.01397 -0.05904,0.03073 -0.06634,0.03724 -0.02625,0.02341 -0.17346,0.09788 -0.218928,0.110737 -0.02554,0.0072 -0.04644,0.02255 -0.04644,0.03405 0,0.0115 -0.02388,0.02091 -0.05307,0.02091 -0.02919,0 -0.05307,0.008 -0.05307,0.01779 0,0.0098 -0.05672,0.04414 -0.12605,0.07635 -0.06933,0.03221 -0.132021,0.06414 -0.139318,0.07097 -0.01156,0.01082 -0.07409,0.04211 -0.305174,0.152706 -0.02919,0.01397 -0.05904,0.03073 -0.06634,0.03724 -0.01155,0.0103 -0.07647,0.04266 -0.305173,0.152126 -0.02919,0.01397 -0.05904,0.03073 -0.06634,0.03724 -0.02625,0.02341 -0.17346,0.09787 -0.218928,0.110737 -0.02554,0.0072 -0.04644,0.02255 -0.04644,0.03405 0,0.0115 -0.02388,0.02091 -0.05307,0.02091 -0.02919,0 -0.05307,0.008 -0.05307,0.01779 0,0.0098 -0.05672,0.04414 -0.12605,0.07635 -0.06933,0.03221 -0.132021,0.06414 -0.139318,0.07097 -0.01156,0.01082 -0.07409,0.04211 -0.305174,0.152706 -0.02919,0.01397 -0.05904,0.03073 -0.06634,0.03724 -0.02625,0.02341 -0.17346,0.09787 -0.218929,0.110736 -0.02554,0.0072 -0.04644,0.02255 -0.04644,0.03405 0,0.0115 -0.02289,0.02091 -0.05086,0.02091 -0.02798,0 -0.05484,0.008 -0.05971,0.01775 -0.01107,0.02222 -0.152421,0.09909 -0.214506,0.116654 -0.02554,0.0072 -0.04644,0.02255 -0.04644,0.03405 0,0.0115 -0.02388,0.02091 -0.05307,0.02091 -0.02919,0 -0.05307,0.008 -0.05307,0.01779 0,0.0098 -0.05672,0.04414 -0.12605,0.07635 -0.06933,0.03221 -0.132021,0.06414 -0.139318,0.07097 -0.02468,0.02309 -0.172186,0.09809 -0.218929,0.111316 -0.02554,0.0072 -0.04644,0.02255 -0.04644,0.03405 0,0.0115 -0.02289,0.02091 -0.05086,0.02091 -0.02797,0 -0.05484,0.008 -0.05971,0.01775 -0.01107,0.02222 -0.15242,0.09909 -0.214506,0.116654 -0.02554,0.0072 -0.04644,0.02255 -0.04644,0.03405 0,0.0115 -0.02388,0.02091 -0.05307,0.02091 -0.02919,0 -0.05307,0.008 -0.05307,0.01779 0,0.0098 -0.05672,0.04414 -0.12605,0.07635 -0.06933,0.03221 -0.132021,0.0644 -0.139319,0.07155 -0.0073,0.0071 -0.06999,0.03934 -0.139318,0.07155 -0.06933,0.03221 -0.12605,0.06656 -0.12605,0.07635 0,0.0098 -0.02289,0.01779 -0.05086,0.01779 -0.02797,0 -0.05484,0.008 -0.05971,0.01775 -0.01107,0.02222 -0.15242,0.09909 -0.214506,0.116654 -0.02554,0.0072 -0.04644,0.02255 -0.04644,0.03405 0,0.0115 -0.02388,0.02091 -0.05307,0.02091 -0.02919,0 -0.05307,0.008 -0.05307,0.01779 0,0.0098 -0.05672,0.04414 -0.12605,0.07635 -0.06933,0.03221 -0.13202,0.0644 -0.139318,0.07155 -0.0073,0.0071 -0.06999,0.03934 -0.139318,0.07155 -0.06933,0.03221 -0.12605,0.06656 -0.12605,0.07635 0,0.0098 -0.02289,0.01779 -0.05086,0.01779 -0.02797,0 -0.05484,0.008 -0.05971,0.01775 -0.01107,0.02222 -0.152421,0.09909 -0.214506,0.116654 -0.02554,0.0072 -0.04644,0.02255 -0.04644,0.03405 0,0.0115 -0.02289,0.02091 -0.05086,0.02091 -0.02797,0 -0.05484,0.008 -0.05971,0.01775 -0.01107,0.02222 -0.15242,0.09909 -0.214506,0.116654 -0.02554,0.0072 -0.04644,0.02255 -0.04644,0.03405 0,0.0115 -0.02388,0.02091 -0.05307,0.02091 -0.02919,0 -0.05307,0.008 -0.05307,0.01779 0,0.0098 -0.05672,0.04414 -0.126051,0.07635 -0.06933,0.03221 -0.13202,0.06414 -0.139318,0.07097 -0.02468,0.02309 -0.172186,0.09809 -0.218929,0.111316 -0.02554,0.0072 -0.04644,0.02255 -0.04644,0.03405 0,0.0115 -0.02289,0.02091 -0.05086,0.02091 -0.02797,0 -0.05484,0.008 -0.05971,0.01775 -0.01107,0.02222 -0.152421,0.09909 -0.214506,0.116654 -0.02554,0.0072 -0.04644,0.02255 -0.04644,0.03405 0,0.0115 -0.02388,0.02091 -0.05307,0.02091 -0.02919,0 -0.05307,0.008 -0.05307,0.01779 0,0.0098 -0.05672,0.04414 -0.12605,0.07635 -0.06933,0.03221 -0.132021,0.06414 -0.139318,0.07097 -0.02468,0.02309 -0.172186,0.09809 -0.218929,0.111315 -0.02554,0.0072 -0.04644,0.02255 -0.04644,0.03405 0,0.0115 -0.02289,0.02091 -0.05086,0.02091 -0.02797,0 -0.05484,0.008 -0.05971,0.01775 -0.01107,0.02222 -0.15242,0.09909 -0.214506,0.116655 -0.02554,0.0072 -0.04644,0.02255 -0.04644,0.03405 0,0.0115 -0.02388,0.02091 -0.05307,0.02091 -0.02919,0 -0.05307,0.0086 -0.05307,0.01901 0,0.01046 -0.05952,0.04508 -0.132272,0.07693 -0.07275,0.03185 -0.1324571,0.0659 -0.1326841,0.07567 -2.39e-4,0.0098 -0.01882,0.01775 -0.04133,0.01775 -0.0225,0 -0.06655,0.0213 -0.09788,0.04734 -0.03133,0.02604 -0.07263,0.04734 -0.09177,0.04734 -0.01914,0 -0.0348,0.01065 -0.0348,0.02367 0,0.01302 -0.02289,0.02367 -0.05086,0.02367 -0.02797,0 -0.05484,0.008 -0.05971,0.01775 -0.01107,0.02222 -0.15242,0.09909 -0.214506,0.116654 -0.02554,0.0072 -0.04644,0.02255 -0.04644,0.03405 0,0.0115 -0.02289,0.02091 -0.05086,0.02091 -0.02797,0 -0.05484,0.008 -0.05971,0.01775 -0.01107,0.02222 -0.15242,0.09909 -0.214506,0.116654 -0.02554,0.0072 -0.04644,0.02255 -0.04644,0.03405 0,0.0115 -0.02388,0.02091 -0.05307,0.02091 -0.02919,0 -0.05307,0.0094 -0.05307,0.0208 0,0.01144 -0.03583,0.03403 -0.07961,0.05021 -0.04379,0.01618 -0.07961,0.03877 -0.07961,0.05021 0,0.01144 -0.02289,0.0208 -0.05086,0.0208 -0.02797,0 -0.05484,0.008 -0.05971,0.01775 -0.01107,0.02222 -0.152421,0.09909 -0.214506,0.116655 -0.02554,0.0072 -0.04644,0.02255 -0.04644,0.03405 0,0.0115 -0.02289,0.02091 -0.05086,0.02091 -0.02797,0 -0.05484,0.008 -0.05971,0.01775 -0.01107,0.02222 -0.15242,0.09909 -0.214506,0.116655 -0.02554,0.0072 -0.04644,0.02255 -0.04644,0.03405 0,0.0115 -0.02388,0.02091 -0.05307,0.02091 -0.02919,0 -0.05307,0.0094 -0.05307,0.02091 0,0.0115 -0.0209,0.02682 -0.04644,0.03405 -0.04547,0.01286 -0.19268,0.08732 -0.218929,0.110736 -0.02625,0.02341 -0.17346,0.09787 -0.218929,0.110737 -0.02554,0.0072 -0.04644,0.02255 -0.04644,0.03405 0,0.0115 -0.02289,0.02091 -0.05086,0.02091 -0.02797,0 -0.05484,0.008 -0.05971,0.01775 -0.01107,0.02222 -0.152421,0.09909 -0.214506,0.116654 -0.02554,0.0072 -0.04644,0.02255 -0.04644,0.03405 0,0.0115 -0.02289,0.02091 -0.05086,0.02091 -0.02797,0 -0.05484,0.008 -0.05971,0.01775 -0.01107,0.02222 -0.15242,0.09909 -0.214506,0.116654 -0.02554,0.0072 -0.04644,0.02255 -0.04644,0.03405 0,0.0115 -0.02388,0.02091 -0.05307,0.02091 -0.02919,0 -0.05307,0.0094 -0.05307,0.0208 0,0.01144 -0.03583,0.03403 -0.07961,0.05021 -0.04379,0.01618 -0.07961,0.03877 -0.07961,0.05021 0,0.01144 -0.02289,0.0208 -0.05086,0.0208 -0.02797,0 -0.05484,0.008 -0.05971,0.01775 -0.01107,0.02222 -0.15242,0.09909 -0.214506,0.116654 -0.02554,0.0072 -0.04644,0.02255 -0.04644,0.03405 0,0.0115 -0.02289,0.02091 -0.05086,0.02091 -0.02797,0 -0.05484,0.008 -0.05971,0.01775 -0.01107,0.02222 -0.152421,0.09909 -0.214506,0.116654 -0.02554,0.0072 -0.04644,0.02255 -0.04644,0.03405 0,0.0115 -0.02388,0.02091 -0.05307,0.02091 -0.02919,0 -0.05307,0.0094 -0.05307,0.02091 0,0.0115 -0.0209,0.02682 -0.04644,0.03405 -0.04674,0.01322 -0.194246,0.08822 -0.218929,0.111316 -0.0073,0.0068 -0.06999,0.03876 -0.139318,0.07097 -0.06933,0.03221 -0.12605,0.06656 -0.12605,0.07635 0,0.0098 -0.02388,0.01779 -0.05307,0.01779 -0.02919,0 -0.05307,0.0094 -0.05307,0.02091 0,0.0115 -0.0209,0.02682 -0.04644,0.03405 -0.06208,0.01756 -0.203433,0.09443 -0.214506,0.116655 -0.0049,0.0098 -0.03074,0.01775 -0.0575,0.01775 -0.02676,0 -0.05263,0.008 -0.0575,0.01775 -0.01107,0.02222 -0.152421,0.09909 -0.214506,0.116655 -0.02554,0.0072 -0.04644,0.02255 -0.04644,0.03405 0,0.0115 -0.02388,0.02091 -0.05307,0.02091 -0.02919,0 -0.05307,0.0094 -0.05307,0.0208 0,0.01144 -0.03582,0.03403 -0.07961,0.05021 -0.04379,0.01618 -0.07961,0.03877 -0.07961,0.05021 0,0.01144 -0.02388,0.0208 -0.05307,0.0208 -0.02919,0 -0.05307,0.01065 -0.05307,0.02367 0,0.01302 -0.02289,0.02367 -0.05086,0.02367 -0.02797,0 -0.05484,0.008 -0.05971,0.01775 -0.01274,0.02557 -0.232524,0.124269 -0.276722,0.124269 -0.02051,0 -0.0373,0.01065 -0.0373,0.02367 0,0.01302 -0.02318,0.02367 -0.05151,0.02367 -0.02833,0 -0.05889,0.01065 -0.06791,0.02367 -0.009,0.01302 -0.04555,0.02367 -0.08118,0.02367 -0.03563,0 -0.06478,0.01065 -0.06478,0.02367 0,0.01302 -0.03512,0.02367 -0.07805,0.02367 -0.04292,0 -0.08542,0.01065 -0.09445,0.02367 -0.009,0.01302 -0.05749,0.02367 -0.107713,0.02367 -0.05022,0 -0.09131,0.0097 -0.09131,0.02148 0,0.03956 -0.751682,0.08532 -0.83591,0.05089 z m 7.69568,-6.557845 c 0.5280151,-0.04529 0.5842081,-0.05205 0.6090201,-0.0733 0.01387,-0.01187 0.07585,-0.02159 0.137752,-0.02159 0.0619,0 0.119923,-0.01065 0.128943,-0.02367 0.009,-0.01302 0.05679,-0.02367 0.106147,-0.02367 0.04936,0 0.09713,-0.01065 0.106148,-0.02367 0.009,-0.01302 0.04571,-0.02367 0.08154,-0.02367 0.03583,0 0.08587,-0.0096 0.111216,-0.02136 0.02534,-0.01175 0.09982,-0.03491 0.165495,-0.05146 0.06568,-0.01655 0.13076,-0.03889 0.144625,-0.04965 0.01387,-0.01075 0.05268,-0.01955 0.08624,-0.01955 0.03357,0 0.06103,-0.01065 0.06103,-0.02367 0,-0.01302 0.01807,-0.02367 0.04017,-0.02367 0.02209,0 0.06389,-0.01065 0.09288,-0.02367 0.02899,-0.01302 0.07643,-0.03432 0.105427,-0.04734 0.02899,-0.01302 0.07079,-0.02367 0.09288,-0.02367 0.02209,0 0.04017,-0.01065 0.04017,-0.02367 0,-0.01302 0.02388,-0.02367 0.05307,-0.02367 0.02919,0 0.05307,-0.01065 0.05307,-0.02367 0,-0.01302 0.02388,-0.02367 0.05307,-0.02367 0.02919,0 0.05307,-0.0094 0.05307,-0.02091 0,-0.0115 0.0209,-0.02682 0.04644,-0.03405 0.06209,-0.01756 0.203433,-0.09443 0.214506,-0.116654 0.0049,-0.0098 0.02033,-0.01775 0.03437,-0.01775 0.02481,0 0.421161,-0.229822 0.447716,-0.259608 0.0073,-0.0082 0.05506,-0.04077 0.106147,-0.0724 0.05108,-0.03164 0.119474,-0.08099 0.151979,-0.109676 0.03251,-0.02868 0.10384,-0.08217 0.158523,-0.118867 0.689069,-0.462357 0.688008,-0.518287 -0.02195,-1.156697 -0.368479,-0.331346 -0.686976,-0.602447 -0.707773,-0.602447 -0.03821,0 -0.254688,0.14995 -0.376887,0.261059 -0.03649,0.03318 -0.108138,0.08642 -0.159221,0.118324 -0.05108,0.0319 -0.12749,0.08741 -0.169791,0.123355 -0.0423,0.03594 -0.09042,0.06535 -0.106923,0.06535 -0.01651,0 -0.04723,0.0213 -0.06826,0.04734 -0.02104,0.02604 -0.05128,0.04734 -0.0672,0.04734 -0.01592,0 -0.0526,0.01864 -0.08151,0.04142 -0.06672,0.05257 -0.195683,0.123269 -0.255977,0.140324 -0.02554,0.0072 -0.04644,0.02255 -0.04644,0.03405 0,0.0115 -0.02388,0.02091 -0.05307,0.02091 -0.02919,0 -0.05317,0.008 -0.05328,0.01775 -2.38e-4,0.02126 -0.128752,0.07693 -0.177572,0.07693 -0.01898,0 -0.03451,0.01065 -0.03451,0.02367 0,0.01302 -0.02388,0.02367 -0.05307,0.02367 -0.02919,0 -0.05307,0.0087 -0.05307,0.01939 0,0.01067 -0.06047,0.03408 -0.134366,0.05203 -0.0739,0.01795 -0.140285,0.04118 -0.147519,0.05162 -0.0072,0.01044 -0.0416,0.01898 -0.07636,0.01898 -0.03477,0 -0.07059,0.01065 -0.07961,0.02367 -0.009,0.01302 -0.05749,0.02367 -0.1077131,0.02367 -0.05022,0 -0.09131,0.01065 -0.09131,0.02367 0,0.01302 -0.05732,0.02367 -0.127377,0.02367 -0.07006,0 -0.138721,0.0095 -0.152587,0.02109 -0.09865,0.08254 -1.140952,0.06883 -1.590882,-0.02092 -0.07298,-0.01456 -0.171605,-0.03238 -0.219175,-0.0396 -0.04757,-0.0072 -0.09306,-0.02261 -0.101079,-0.03419 -0.008,-0.01158 -0.04303,-0.02106 -0.0778,-0.02106 -0.03477,0 -0.07059,-0.01065 -0.07961,-0.02367 -0.009,-0.01302 -0.04555,-0.02367 -0.08118,-0.02367 -0.03563,0 -0.06478,-0.01065 -0.06478,-0.02367 0,-0.01302 -0.01624,-0.02367 -0.03608,-0.02367 -0.04361,0 -0.371601,-0.146547 -0.384089,-0.171611 -0.0049,-0.0098 -0.02626,-0.01775 -0.04755,-0.01775 -0.02129,0 -0.06434,-0.0213 -0.09567,-0.04734 -0.03133,-0.02604 -0.07263,-0.04734 -0.09177,-0.04734 -0.01914,0 -0.0348,-0.0084 -0.0348,-0.01857 0,-0.01021 -0.03284,-0.03592 -0.07298,-0.05712 -0.04014,-0.0212 -0.108802,-0.06611 -0.152587,-0.09978 -0.04379,-0.03367 -0.139643,-0.105999 -0.213015,-0.160718 -0.07337,-0.05472 -0.180847,-0.151163 -0.238832,-0.21432 -0.05798,-0.06316 -0.144237,-0.153615 -0.191671,-0.201017 -0.04744,-0.0474 -0.08624,-0.09617 -0.08624,-0.108373 0,-0.0122 -0.0209,-0.03953 -0.04644,-0.06072 -0.02554,-0.02119 -0.0595,-0.05972 -0.07547,-0.08562 -0.07281,-0.118113 -0.104647,-0.166313 -0.117086,-0.177274 -0.03023,-0.02664 -0.185596,-0.316737 -0.185596,-0.346546 0,-0.0177 -0.01194,-0.03218 -0.02654,-0.03218 -0.01459,0 -0.02654,-0.01612 -0.02654,-0.03583 0,-0.0197 -0.01055,-0.05432 -0.02344,-0.07693 -0.01289,-0.02261 -0.03529,-0.06773 -0.04977,-0.100278 -0.01448,-0.03255 -0.03976,-0.08897 -0.05617,-0.125384 -0.01641,-0.03641 -0.02984,-0.09234 -0.02984,-0.124269 0,-0.03193 -0.01194,-0.05806 -0.02654,-0.05806 -0.01459,0 -0.02654,-0.03515 -0.02654,-0.07811 0,-0.04296 -0.01072,-0.08823 -0.02382,-0.100599 -0.02401,-0.02267 -0.03336,-0.06975 -0.08669,-0.436718 -0.05097,-0.350717 -0.02809,-1.230999 0.0335,-1.288853 0.01317,-0.01237 0.02394,-0.06829 0.02394,-0.12427 0,-0.05598 0.01194,-0.101782 0.02654,-0.101782 0.01459,0 0.02654,-0.03665 0.02654,-0.08145 0,-0.0448 0.01194,-0.08803 0.02654,-0.09608 0.0146,-0.008 0.02654,-0.04596 0.02654,-0.08424 0,-0.03829 0.01194,-0.06961 0.02654,-0.06961 0.01459,0 0.02654,-0.03195 0.02654,-0.07101 0,-0.03906 0.0098,-0.07101 0.02174,-0.07101 0.01196,0 0.038,-0.05326 0.05787,-0.118352 0.01987,-0.06509 0.04591,-0.118352 0.05787,-0.118352 0.01196,0 0.02174,-0.0213 0.02174,-0.04734 0,-0.02604 0.01194,-0.04734 0.02654,-0.04734 0.01459,0 0.02654,-0.0213 0.02654,-0.04734 0,-0.02604 0.01194,-0.04734 0.02654,-0.04734 0.0146,0 0.02654,-0.0213 0.02654,-0.04734 0,-0.02604 0.01055,-0.04734 0.02344,-0.04734 0.01289,0 0.03007,-0.01864 0.03817,-0.04142 0.01912,-0.05378 0.09838,-0.168813 0.157318,-0.228327 0.02554,-0.02579 0.04644,-0.05602 0.04644,-0.06718 0,-0.01115 0.02985,-0.04691 0.06634,-0.07946 0.03649,-0.03255 0.06634,-0.06836 0.06634,-0.07958 0,-0.02902 0.522996,-0.496673 0.650152,-0.581359 0.05838,-0.03888 0.121927,-0.08401 0.141214,-0.100282 0.01929,-0.01627 0.0453,-0.02959 0.05781,-0.02959 0.01251,0 0.03889,-0.01331 0.05862,-0.02959 0.04923,-0.0406 0.183571,-0.11255 0.239919,-0.128489 0.02554,-0.0072 0.04644,-0.02255 0.04644,-0.03405 0,-0.0115 0.02388,-0.02091 0.05307,-0.02091 0.02919,0 0.05307,-0.01065 0.05307,-0.02367 0,-0.01302 0.01567,-0.02367 0.03482,-0.02367 0.01915,0 0.08425,-0.0213 0.144671,-0.04734 0.06042,-0.02604 0.128338,-0.04734 0.150937,-0.04734 0.0226,0 0.04109,-0.01065 0.04109,-0.02367 0,-0.01302 0.03582,-0.02367 0.07961,-0.02367 0.04379,0 0.07961,-0.0095 0.07961,-0.02108 0,-0.01159 0.03881,-0.0268 0.08624,-0.0338 0.04744,-0.007 0.139982,-0.02507 0.20566,-0.04016 0.34088,-0.07835 1.128323,-0.10524 1.499331,-0.05119 0.102167,0.01488 0.236585,0.03369 0.298706,0.04181 0.06212,0.0081 0.119549,0.02427 0.127616,0.03592 0.0081,0.01164 0.04004,0.02117 0.07104,0.02117 0.075,0 0.4073221,0.100486 0.5571141,0.168454 0.02534,0.0115 0.06415,0.02091 0.08624,0.02091 0.02209,0 0.04017,0.01065 0.04017,0.02367 0,0.01302 0.02388,0.02367 0.05307,0.02367 0.02919,0 0.05307,0.01065 0.05307,0.02367 0,0.01302 0.02388,0.02367 0.05307,0.02367 0.02919,0 0.05326,0.008 0.05349,0.01775 2.39e-4,0.0098 0.05994,0.04382 0.132684,0.07567 0.07275,0.03185 0.132272,0.06647 0.132272,0.07693 0,0.01046 0.01277,0.01901 0.02839,0.01901 0.03362,0 0.27284,0.142574 0.285629,0.170233 0.0049,0.01052 0.02343,0.01913 0.04125,0.01913 0.01782,0 0.07804,0.03728 0.133808,0.08285 0.05577,0.04556 0.109353,0.08285 0.119073,0.08285 0.0097,0 0.05924,0.03462 0.110041,0.07693 0.386428,0.321834 0.360491,0.322075 0.661462,-0.0062 0.06554,-0.07147 0.149244,-0.156579 0.186015,-0.189126 0.03677,-0.03255 0.120363,-0.11776 0.185758,-0.189363 0.06539,-0.0716 0.14887,-0.156816 0.1855,-0.189363 0.03663,-0.03255 0.10983,-0.107108 0.162666,-0.165692 0.05284,-0.05859 0.151226,-0.159776 0.218645,-0.224869 0.151138,-0.145925 0.152194,-0.17423 0.01037,-0.278064 -0.06203,-0.04541 -0.160547,-0.123973 -0.218929,-0.174579 -0.05838,-0.0506 -0.147943,-0.118073 -0.199026,-0.149928 -0.05108,-0.03186 -0.09885,-0.06427 -0.106147,-0.07204 -0.0073,-0.0078 -0.05506,-0.03994 -0.106147,-0.07151 -0.05108,-0.03157 -0.116029,-0.07632 -0.144323,-0.09946 -0.02829,-0.02314 -0.06163,-0.04207 -0.07408,-0.04207 -0.01245,0 -0.04828,-0.0213 -0.07961,-0.04734 -0.03133,-0.02604 -0.07263,-0.04734 -0.09177,-0.04734 -0.01914,0 -0.0348,-0.0094 -0.0348,-0.02091 0,-0.0115 -0.0209,-0.02682 -0.04644,-0.03405 -0.04673,-0.01322 -0.19423,-0.08821 -0.218929,-0.111309 -0.02721,-0.02545 -0.465674,-0.212845 -0.497565,-0.212657 -0.01824,1.07e-4 -0.03317,-0.0085 -0.03317,-0.01919 0,-0.01067 -0.05971,-0.03389 -0.132684,-0.05162 -0.07298,-0.01772 -0.132685,-0.04095 -0.132685,-0.05162 0,-0.01066 -0.03582,-0.01939 -0.07961,-0.01939 -0.04379,0 -0.07961,-0.01065 -0.07961,-0.02367 0,-0.01302 -0.03582,-0.02367 -0.07961,-0.02367 -0.04379,0 -0.07961,-0.0095 -0.07961,-0.02108 0,-0.01159 -0.03881,-0.0268 -0.08624,-0.0338 -0.04744,-0.007 -0.139982,-0.02479 -0.205661,-0.03955 -0.06568,-0.01476 -0.15524,-0.03223 -0.199026,-0.03883 -0.04378,-0.0066 -0.103493,-0.02136 -0.132684,-0.03281 -0.02919,-0.01145 -0.112781,-0.02682 -0.185758,-0.03415 -0.07298,-0.0073 -0.2461291,-0.02601 -0.3847841,-0.04151 -0.317194,-0.03547 -1.508824,-0.03476 -1.791235,0.0011 -0.116762,0.01481 -0.272003,0.03297 -0.344979,0.04035 -0.07298,0.0074 -0.156567,0.0228 -0.185758,0.03425 -0.02919,0.01145 -0.0889,0.02623 -0.132684,0.03284 -0.138409,0.02089 -0.237116,0.04151 -0.291905,0.06099 -0.02919,0.01038 -0.172489,0.05284 -0.318442,0.09437 -0.251227,0.07148 -0.349059,0.105125 -0.528179,0.181661 -0.04238,0.01811 -0.09313,0.03292 -0.112782,0.03292 -0.01965,0 -0.03573,0.01065 -0.03573,0.02367 0,0.01302 -0.02289,0.02367 -0.05086,0.02367 -0.02797,0 -0.05484,0.008 -0.05971,0.01775 -0.008,0.01596 -0.147465,0.08744 -0.307178,0.157387 -0.03272,0.01433 -0.05959,0.03405 -0.05971,0.04381 -1.19e-4,0.0098 -0.01269,0.01775 -0.02794,0.01775 -0.02637,0 -0.421997,0.228279 -0.449928,0.259607 -0.0073,0.0082 -0.0545,0.0406 -0.104901,0.07203 -0.234205,0.146075 -1.009645,0.834846 -1.009645,0.896799 0,0.01049 -0.03582,0.05251 -0.07961,0.09337 -0.04378,0.04087 -0.07963,0.08239 -0.07964,0.09227 -1.7e-5,0.0099 -0.02987,0.04892 -0.06634,0.08674 -0.03647,0.03783 -0.06631,0.07701 -0.06631,0.08707 0,0.01006 -0.01493,0.0327 -0.03317,0.0503 -0.04552,0.04391 -0.12618,0.163742 -0.14405,0.214004 -0.0081,0.02278 -0.02528,0.04142 -0.03817,0.04142 -0.01289,0 -0.02344,0.02042 -0.02344,0.04537 0,0.02495 -0.0091,0.04892 -0.02015,0.05326 -0.03817,0.01495 -0.351368,0.611272 -0.351368,0.669006 0,0.0189 -0.01194,0.04095 -0.02654,0.049 -0.01459,0.008 -0.02654,0.04063 -0.02654,0.07241 0,0.03178 -0.01194,0.05778 -0.02654,0.05778 -0.01459,0 -0.02654,0.03195 -0.02654,0.07101 0,0.03906 -0.01064,0.07101 -0.02363,0.07101 -0.013,0 -0.03006,0.03462 -0.03791,0.07693 -0.02384,0.128438 -0.04743,0.216521 -0.07133,0.266292 -0.0263,0.05478 -0.05084,0.168014 -0.06925,0.31955 -0.0071,0.05858 -0.02376,0.12782 -0.03699,0.153858 -0.09701,0.19098 -0.07896,1.563335 0.02662,2.023818 0.01642,0.0716 0.03632,0.175456 0.04423,0.230786 0.0079,0.05533 0.02512,0.100599 0.03825,0.100599 0.01313,0 0.02387,0.03665 0.02387,0.08145 0,0.0448 0.01194,0.08803 0.02654,0.09608 0.01459,0.008 0.02654,0.04596 0.02654,0.08424 0,0.03829 0.01194,0.06961 0.02654,0.06961 0.01459,0 0.02654,0.03133 0.02654,0.06961 0,0.03829 0.01194,0.0762 0.02654,0.08424 0.0146,0.008 0.02654,0.04063 0.02654,0.07241 0,0.03178 0.0098,0.05778 0.02174,0.05778 0.01196,0 0.038,0.05326 0.05787,0.118351 0.01987,0.06509 0.04591,0.118352 0.05787,0.118352 0.01196,0 0.02164,0.01331 0.02152,0.02959 -2.78e-4,0.03744 0.218356,0.429268 0.245441,0.439875 0.01108,0.0043 0.02015,0.02831 0.02015,0.05326 0,0.02495 0.01055,0.04537 0.02344,0.04537 0.01289,0 0.03007,0.01864 0.03817,0.04142 0.01787,0.05026 0.09853,0.170093 0.14405,0.214004 0.01824,0.0176 0.03317,0.04023 0.03317,0.0503 0,0.01006 0.02984,0.04925 0.06631,0.08707 0.03647,0.03783 0.06632,0.07686 0.06634,0.08674 1.8e-5,0.0099 0.03586,0.05141 0.07964,0.09227 0.04379,0.04087 0.07961,0.08292 0.07961,0.09346 0,0.05942 0.840481,0.80581 0.985169,0.874881 0.03042,0.01452 0.09165,0.05739 0.136083,0.09526 0.04443,0.03787 0.09692,0.06886 0.116646,0.06886 0.01973,0 0.03587,0.0089 0.03587,0.01967 0,0.01082 0.03284,0.03478 0.07298,0.05326 0.04014,0.01847 0.09613,0.05223 0.12442,0.07501 0.02829,0.02278 0.0671,0.04142 0.08624,0.04142 0.01914,0 0.0348,0.01065 0.0348,0.02367 0,0.01302 0.02388,0.02367 0.05307,0.02367 0.02919,0 0.05317,0.008 0.05328,0.01775 1.19e-4,0.0098 0.02698,0.02906 0.05971,0.04288 0.03272,0.01382 0.137121,0.06045 0.23199,0.103638 0.09487,0.04318 0.193225,0.0878 0.218568,0.09915 0.02534,0.01135 0.06415,0.02063 0.08624,0.02063 0.02209,0 0.04017,0.01065 0.04017,0.02367 0,0.01302 0.02318,0.02367 0.05151,0.02367 0.02833,0 0.05889,0.01065 0.06791,0.02367 0.009,0.01302 0.04555,0.02367 0.08118,0.02367 0.03563,0 0.06477,0.01065 0.06477,0.02367 0,0.01302 0.02915,0.02367 0.06478,0.02367 0.03563,0 0.07216,0.01065 0.08118,0.02367 0.009,0.01302 0.04485,0.02367 0.07961,0.02367 0.03477,0 0.07059,0.01065 0.07961,0.02367 0.009,0.01302 0.05082,0.02367 0.09288,0.02367 0.04206,0 0.08386,0.01065 0.09288,0.02367 0.009,0.01302 0.05679,0.02367 0.106147,0.02367 0.04936,0 0.09635,0.0095 0.104415,0.02117 0.0081,0.01164 0.05952,0.02731 0.114347,0.03482 0.05482,0.0075 0.1773,0.02509 0.27217,0.03907 0.09487,0.01398 0.300685,0.03366 0.45737,0.04374 0.156686,0.01008 0.294014,0.02659 0.305174,0.0367 0.02321,0.02102 0.686834,6.14e-4 1.081765,-0.03326 z"
         id="path1" />
   </g>
</svg>