<svg xmlns="http://www.w3.org/2000/svg" width="24" height="24" viewBox="0 0 50 50"><path d="M25 2C12.309 2 2 12.309 2 25s10.309 23 23 23 23-10.309 23-23S37.691 2 25 2Zm0 2c.379 0 .754.012 1.125.031-1.71 1.336-3.852 3.567-4.89 6.98-7.598.212-12.782 3.536-15.735 6.18C8.598 9.457 16.152 4 25 4Zm10.969 3.11C41.98 10.8 46 17.417 46 25c0 .441-.02.875-.047 1.313-1.95.632-3.945.718-5.031.722-1.012-9.348-9.14-13.976-12.324-15.445 3.09-3.602 6.582-4.348 7.37-4.48ZM25 17s7.5 1.918 9 10c-8.582-2-9-10-9-10Zm-5.848 2.285c.52 3.125 2.809 11.192 12.692 13.496-.496 2.442-2.176 9.14-6.246 13.203-.2.004-.399.016-.598.016-9.21 0-17.02-5.914-19.855-14.156.867-1.992 4.722-9.649 14.007-12.559Zm25 14.313a21.03 21.03 0 0 1-4.843 6.75 41.432 41.432 0 0 0 1.558-6.364 19.883 19.883 0 0 0 3.285-.386Z"/></svg>