<svg xmlns="http://www.w3.org/2000/svg" xml:space="preserve" width="24" height="24" viewBox="0 0 24 24"><defs><radialGradient id="j" cx="0" cy="0" r="1" fx=".339" fy="-.553" gradientTransform="matrix(135.72 53.102 32.823 -83.888 479.47 287.23)" gradientUnits="userSpaceOnUse"><stop offset="0" stop-color="#ffff87"/><stop offset=".126" stop-color="#ffff87"/><stop offset=".144" stop-color="#ffc503"/><stop offset=".216" stop-color="#ffc503"/><stop offset=".395" stop-color="#ffc503"/><stop offset=".441" stop-color="#ffc503"/><stop offset=".5" stop-color="#ffc003"/><stop offset=".628" stop-color="#ffc003"/><stop offset=".729" stop-color="#ffc003"/><stop offset=".849" stop-color="#ff8904" stop-opacity=".869"/><stop offset=".987" stop-color="#ff8904"/><stop offset="1" stop-color="#ff8904"/></radialGradient><radialGradient id="a" cx="-.042" cy=".043" r="1" gradientTransform="matrix(97.003 -81.357 -81.357 -97.003 516.33 432.83)" gradientUnits="userSpaceOnUse"><stop offset="0" stop-color="#ff0"/><stop offset=".666" stop-color="#ffba05"/><stop offset="1" stop-color="#ffba05"/></radialGradient><radialGradient id="c" cx="0" cy="0" r="1" gradientTransform="rotate(-97.66 430.78 -5.68)scale(92.677 -92.677)" gradientUnits="userSpaceOnUse"><stop offset="0" stop-color="#ff0"/><stop offset="1" stop-color="#ffba05"/></radialGradient><radialGradient id="d" cx="0" cy="0" r="1" fx="-.892" fy="-.452" gradientTransform="matrix(58.797 44.174 44.174 -58.797 591.5 452.83)" gradientUnits="userSpaceOnUse"><stop offset="0" stop-color="#ff0"/><stop offset="1" stop-color="#ffba05"/></radialGradient><radialGradient id="e" cx="0" cy="0" r="1" gradientTransform="matrix(-63.936 -51.968 -51.968 63.936 480.5 419.5)" gradientUnits="userSpaceOnUse"><stop offset="0" stop-color="#ff0"/><stop offset="1" stop-color="#ffba05"/></radialGradient><radialGradient id="f" cx="-.277" cy="-.013" r="1" gradientTransform="matrix(166.21 117.68 75.941 -107.26 545.45 466.23)" gradientUnits="userSpaceOnUse"><stop offset="0" stop-color="#ff0"/><stop offset=".497" stop-color="#ffee05"/><stop offset="1" stop-color="#ffba05"/></radialGradient><radialGradient id="g" cx=".069" cy=".001" r="1" gradientTransform="matrix(92.166 1.56 1.3981 -82.601 484.17 431.17)" gradientUnits="userSpaceOnUse"><stop offset="0" stop-color="#ff0"/><stop offset="1" stop-color="#ffba05"/></radialGradient><radialGradient id="h" cx="0" cy="0" r="1" gradientTransform="matrix(112.47 78.731 51.056 -72.937 527.5 460.5)" gradientUnits="userSpaceOnUse"><stop offset="0" stop-color="#ff0"/><stop offset="1" stop-color="#ffba05"/></radialGradient><radialGradient id="i" cx=".132" cy="-.001" r="1" fx="-.08" fy=".039" gradientTransform="rotate(-42.446 819.26 -431.472)scale(86.787 -98.92)" gradientUnits="userSpaceOnUse"><stop offset="0" stop-color="#ff0"/><stop offset=".63" stop-color="#ffcf05"/><stop offset="1" stop-color="#ffcf05"/></radialGradient></defs><g style="fill:#000;fill-opacity:1"><path fill="url(#a)" d="M508.37 418.38c-1.948-9.873-2.175-19.875-2.148-30.734.105-4.803-.008-10.436.607-16.082 1.248-11.467 5.143-14.109 15.617-9.51 17.862 7.84 33.696 18.829 47.854 32.241 3.988 3.779 8.185 7.422 11.089 12.202 2.673 4.397 2.097 6.88-2.266 9.608-1.396.873-2.949 1.54-4.502 2.103-5.181 1.881-10.542 3.121-15.918 4.281-12.621 2.721-25.222 5.644-38.216 5.823l-.239.001c-6.452 0-10.63-3.605-11.878-9.933" style="fill:#000;fill-opacity:1" transform="matrix(.08201 0 0 -.08201 -31.046 44.74)"/><path fill="url(#c)" d="M492.04 416.52c-3.243-1.617-5.823-4.156-8.361-6.684-16.977-16.905-32.998-34.704-48.672-52.819-4.26-4.924-8.651-9.823-11.376-15.886-1.919-4.27-.934-6.454 3.654-7.668 4.725-1.249 9.544-1.787 14.436-1.358 11.696 1.026 22.799 4.32 33.655 8.677 10.044 4.032 16.339 11.18 18.544 21.838 2.891 13.979 3.907 28.175 4.618 42.392 0 2.182.021 4.364-.013 6.545-.01.636-.15 1.274-.276 1.902-.545 2.722-1.447 4.01-3.104 4.01-.83 0-1.848-.323-3.105-.949" style="fill:#000;fill-opacity:1" transform="matrix(.08201 0 0 -.08201 -31.046 44.74)"/><path fill="url(#d)" d="M623.43 485.96c-2.879-.515-5.736-1.318-8.503-2.282-15.719-5.482-30.649-12.847-45.782-19.703-12.92-5.855-25.833-11.785-38.083-19.013-2.413-1.425-5.354-3.1-4.765-6.319.504-2.751 3.758-2.789 6.016-3.319 17.339-4.073 35.01-5.712 51.316-7.058 10.474.119 18.926 1.786 25.516 8.829 6.88 7.354 12.632 15.489 16.919 24.601 2.691 5.72 4.477 11.786 4.479 18.169.002 4.153-1.835 6.272-5.267 6.272q-.858 0-1.846-.177" style="fill:#000;fill-opacity:1" transform="matrix(.08201 0 0 -.08201 -31.046 44.74)"/><path fill="url(#e)" d="M475.92 419.25c-.367-.104-.71-.292-1.065-.437-22.555-9.166-44.21-20.249-65.865-31.321-5.464-2.792-10.748-5.939-15.684-9.652-5.297-3.984-8.316-8.98-7.651-15.694 0-.89-.035-1.662.005-2.431.397-7.627 4.249-12.981 10.812-16.559 6.098-3.323 11.35-1.172 16.365 2.52 1.236.911 2.498 1.799 3.649 2.811 22.843 20.104 43.28 42.565 63.347 65.381 1.264 1.437 3.447 3.141 2.012 5.299-.613.922-1.333 1.232-2.102 1.231-1.232 0-2.589-.797-3.823-1.148" style="fill:#000;fill-opacity:1" transform="matrix(.08201 0 0 -.08201 -31.046 44.74)"/><path fill="url(#f)" d="M589.81 520.12c-2.155-1.598-4.18-3.381-6.195-5.159-14.338-12.647-27.085-26.892-40.259-40.697-5.472-5.734-10.87-11.588-15.617-17.981-.828-1.116-1.856-2.369-.83-3.824.972-1.379 2.519-1.147 3.87-.737 1.831.556 3.62 1.272 5.386 2.018 23.705 10.024 46.647 21.655 69.496 33.464 6.568 3.394 13.185 6.854 18.588 12.131 2.02 1.974 3.277 4.24 3.342 7.436-.072 2.307-.943 4.698-2.221 6.96-4.063 7.191-12.308 11.156-20.705 11.156-5.215 0-10.489-1.53-14.855-4.767" style="fill:#000;fill-opacity:1" transform="matrix(.08201 0 0 -.08201 -31.046 44.74)"/><path fill="url(#g)" d="M413.44 432.07c-5.861-6.67-11.407-13.524-15.914-21.172-2.874-4.876-5.175-10.064-6.355-15.632-.819-3.866.412-5.458 3.711-5.517 2.078.023 4.038.607 5.971 1.3 18.942 6.786 36.964 15.693 55.17 24.173 7.774 3.62 15.486 7.375 22.781 11.914 2.187 1.361 4.634 2.997 4.191 5.914-.396 2.604-3.356 2.319-5.257 3.169-.692.308-1.469.436-2.215.612-11.727 2.765-23.679 4.039-35.625 5.305a38 38 0 0 1-4.058.221c-8.707 0-16.182-3.211-22.4-10.287" style="fill:#000;fill-opacity:1" transform="matrix(.08201 0 0 -.08201 -31.046 44.74)"/><path fill="url(#h)" d="M567.31 526.82c-14.169-1.46-27.39-6.06-40.199-12.109-7.73-3.652-12.567-9.493-14.146-17.954-1.793-9.597-3.042-19.253-2.904-29.045 0-2.697-.068-5.395.022-8.089.067-1.997-.399-4.391 1.83-5.503 2.219-1.108 4.351.084 6.055 1.392 2.834 2.177 5.567 4.529 8.099 7.054 14.061 14.024 27.283 28.841 40.42 43.726 4.051 4.589 8.321 9.1 10.964 14.772 1.594 3.423.812 4.978-2.88 5.7-1.112.218-2.231.3-3.353.3-1.302 0-2.607-.11-3.908-.244" style="fill:#000;fill-opacity:1" transform="matrix(.08201 0 0 -.08201 -31.046 44.74)"/><path fill="url(#i)" d="M493.43 497.7c-3.943-1.236-7.454-3.334-11.002-5.368-14.602-8.364-28.162-18.128-39.782-30.405-5.392-5.696-4.536-9.429 2.935-11.564 13.892-3.97 27.998-7.036 42.519-7.395 7.646-.189 11.495 3.378 12.86 10.836 1.395 7.615 1.69 15.275 1.485 25.395-.22 3.072.784 8.645-.687 14.051-.943 3.472-2.527 5.026-5.134 5.025-.929 0-1.988-.197-3.194-.575" style="fill:#000;fill-opacity:1" transform="matrix(.08201 0 0 -.08201 -31.046 44.74)"/><path fill="url(#j)" d="M641.75 509.34c.237-.588.284-.774.375-1.057.174-.52.277-.819.368-1.099s.019-.115.107-.392c.087-.277.181-.577.264-.852.082-.276.15-.659.224-.934.076-.276.167-.604.233-.881.066-.276.257-1.337.312-1.615.316-1.599.241-2.12.401-3.701q.238-2.37.26-4.712a55 55 0 0 0-.154-4.66 59 59 0 0 0-.533-4.61 66 66 0 0 0-.877-4.562 75 75 0 0 0-1.184-4.518q-.665-2.25-1.457-4.478a104 104 0 0 0-1.694-4.438 141 141 0 0 0-3.805-8.51 148 148 0 0 0-4.302-8.169 160 160 0 0 0-4.755-7.858 178 178 0 0 0-5.165-7.574 202 202 0 0 0-5.53-7.318q-2.852-3.599-5.852-7.09a269 269 0 0 0-6.129-6.89 324 324 0 0 0-6.362-6.72 278 278 0 0 0-6.76-6.714 291 291 0 0 0-6.961-6.47 306 306 0 0 0-7.152-6.237 325 325 0 0 0-7.334-6.016 344 344 0 0 0-7.504-5.806 365 365 0 0 0-7.664-5.609 394 394 0 0 0-7.816-5.423 414 414 0 0 0-7.957-5.247 325 325 0 0 0-10.058-6.225 306 306 0 0 0-10.232-5.813 286 286 0 0 0-10.416-5.38 268 268 0 0 0-10.611-4.924 252 252 0 0 0-16.384-6.51 240 240 0 0 0-16.731-5.3 234 234 0 0 0-11.502-2.872 139 139 0 0 0-9.762-1.823 129 129 0 0 0-4.896-.638 123 123 0 0 0-9.822-.69q-2.458-.07-4.923-.034a110 110 0 0 0-9.866.591 72 72 0 0 0-3.979.531 64 64 0 0 0-3.906.759 57 57 0 0 0-3.819 1.007q-1.885.57-3.717 1.278-1.831.711-3.602 1.571-1.123.547-2.22 1.159-.783.429-1.55.891a43 43 0 0 0-3.327 2.219 43 43 0 0 0-2.194 1.731c-.282.225-.554.448-.806.662 5.18-5.701 10.508-11.008 15.987-15.904 5.538-4.95 11.227-9.48 17.07-13.573a161 161 0 0 1 17.987-10.956 147 147 0 0 1 18.901-8.236 140.5 140.5 0 0 1 19.816-5.415 142.5 142.5 0 0 1 20.731-2.495c7.063-.333 14.278-.163 21.645.528 7.368.692 14.887 1.904 22.56 3.654 8.186 1.866 15.978 4.164 23.376 6.884 7.397 2.719 14.401 5.861 21.012 9.414a147.5 147.5 0 0 1 18.655 11.891 141 141 0 0 1 16.304 14.311 144 144 0 0 1 13.962 16.675c4.264 5.947 8.14 12.278 11.626 18.985 3.487 6.707 6.586 13.789 9.296 21.238 2.712 7.449 5.037 15.264 6.975 23.436q.822 3.465 1.432 6.944.61 3.477 1.023 6.968t.637 6.991.276 7.01a152 152 0 0 1-.061 7.024q-.112 3.517-.374 7.037a179 179 0 0 1-.664 7.046 200 200 0 0 1-.928 7.049c-.39 2.617-.912 5.345-1.535 8.125a160 160 0 0 1-2.142 8.427 190 190 0 0 1-2.569 8.359 195 195 0 0 1-2.816 7.915 164 164 0 0 1-2.883 7.098 106 106 0 0 1-2.773 5.909c-.886 1.73-1.723 3.199-2.481 4.346a75 75 0 0 1-1.946 2.775c.215-.462.433-.967.627-1.49" style="fill:#000;fill-opacity:1" transform="matrix(.08201 0 0 -.08201 -31.046 44.74)"/></g></svg>