<svg viewBox="0 0 24 24" width="24" height="24" xmlns="http://www.w3.org/2000/svg">
  <path
    d="M11.17.036a12.04 12.04 0 0 0-9.868 6.529c-1.906 3.749-1.708 8.272.519 11.818.862 1.376 2.151 2.699 3.513 3.613 4.383 2.935 10.278 2.632 14.315-.736a12.007 12.007 0 0 0 1.919-16.494c-.433-.578-1.318-1.501-1.919-2.002C17.719 1.152 15.323.209 12.72.031c-.76-.053-.736-.053-1.55.005Zm1.17 2.406c.433.13.712.529.717 1.015 0 .332-.044.457-.251.693-.245.279-.495.366-1.202.409-2.012.13-3.739.938-5.067 2.362-1.617 1.737-2.358 4.355-1.877 6.636.568 2.694 2.777 5.004 5.447 5.692.91.236 2.156.298 3.051.154a7.504 7.504 0 0 0 5.952-5.129c.192-.602.288-1.141.341-1.882.053-.717.13-.938.424-1.198.24-.212.423-.264.813-.231.356.029.625.222.803.563.111.226.13.323.13.664 0 1.934-.741 4.037-2.011 5.716-.293.385-1.107 1.218-1.525 1.559a9.757 9.757 0 0 1-4.793 2.098c-.659.092-1.919.092-2.598-.005-4.253-.591-7.655-3.974-8.242-8.194-.101-.697-.101-1.958 0-2.656a9.67 9.67 0 0 1 2.781-5.552c1.482-1.473 3.474-2.454 5.514-2.714.472-.063 1.386-.058 1.593 0Zm.091 4.33c.433.198.64.515.64.982 0 .669-.419 1.039-1.256 1.102-1.159.091-2.146.736-2.627 1.727-.496 1.011-.481 2.098.043 2.998.337.577 1.155 1.251 1.795 1.472.27.092.419.111.924.111.534 0 .645-.015.986-.135 1.295-.452 2.041-1.371 2.19-2.694.067-.607.13-.814.298-1.016.534-.649 1.593-.447 1.862.352.116.351.034 1.241-.173 1.905-.255.808-.674 1.496-1.314 2.16-1.092 1.136-2.483 1.68-4.104 1.603a5.305 5.305 0 0 1-4.73-3.522c-.25-.698-.322-1.218-.293-2.021.028-.732.115-1.155.37-1.79.78-1.949 2.733-3.316 4.764-3.33.312 0 .457.019.625.096Zm.125 4.254c1.011.592.587 2.126-.582 2.112-.645-.01-1.102-.476-1.102-1.126 0-.885.929-1.429 1.684-.986Z"
    style="fill-rule:nonzero" />
</svg>