<svg xmlns="http://www.w3.org/2000/svg" width="24" height="24" viewBox="0 0 24 24"><path d="M15.880 7.040 C 15.245 7.102,14.800 7.228,14.169 7.523 C 13.631 7.775,13.056 8.155,12.615 8.550 C 12.027 9.076,6.800 14.336,6.801 14.400 C 6.802 14.463,7.287 14.842,7.698 15.102 C 7.977 15.279,8.508 15.531,8.750 15.603 C 8.843 15.630,8.920 15.668,8.920 15.686 C 8.920 15.705,8.951 15.720,8.990 15.720 C 9.029 15.720,9.242 15.773,9.464 15.837 C 10.685 16.189,12.033 16.242,13.109 15.980 C 14.716 15.589,15.998 14.831,17.082 13.631 C 17.462 13.211,17.639 12.982,17.640 12.910 C 17.640 12.894,16.402 12.876,14.890 12.870 L 12.140 12.860 12.400 12.605 C 12.543 12.465,13.128 11.888,13.700 11.323 C 14.748 10.288,15.045 10.045,15.471 9.873 C 15.689 9.784,15.743 9.780,16.600 9.787 C 17.095 9.791,18.011 9.816,18.635 9.843 C 20.255 9.913,20.726 9.871,21.206 9.615 C 21.478 9.470,22.213 8.739,22.400 8.426 C 22.477 8.298,22.778 7.947,23.070 7.646 C 23.361 7.346,23.600 7.078,23.600 7.050 C 23.600 7.010,22.834 7.001,19.890 7.006 C 17.849 7.009,16.045 7.024,15.880 7.040 M0.326 7.555 C 0.334 7.576,0.785 8.045,1.330 8.597 L 2.320 9.600 3.381 9.600 C 4.997 9.600,4.977 9.590,6.680 11.297 C 7.219 11.838,7.678 12.280,7.701 12.280 C 7.754 12.280,9.240 10.789,9.240 10.735 C 9.240 10.684,6.999 8.476,6.715 8.247 C 6.436 8.024,5.865 7.743,5.460 7.631 C 5.149 7.545,5.073 7.542,2.726 7.529 C 1.192 7.521,0.317 7.531,0.326 7.555 " fill="#010101" stroke="none" fill-rule="evenodd"></path></svg>