<svg xmlns="http://www.w3.org/2000/svg" viewBox="0 0 24 24" width="24" height="24"><path fill="#010101" d="M16.171 7.825h0.182q0.195 0 0.39 0 0.282 0 0.564 0 0.458 0 0.916 0 0.445 0 0.889 0h0.055l0.276 0q1.141 0 2.282 0.001c0 0.07 0 0.07 -0.03 0.108l-0.041 0.04 -0.045 0.044 -0.047 0.045a37.641 37.641 0 0 0 -0.091 0.089l-0.041 0.04c-0.035 0.034 -0.035 0.034 -0.056 0.081h-0.047l-0.018 0.041c-0.034 0.06 -0.071 0.101 -0.123 0.146h-0.047l-0.047 0.094h-0.047l-0.047 0.094h-0.047v0.047h-0.047l-0.018 0.039c-0.273 0.516 -0.868 1.209 -1.437 1.385 -0.301 0.078 -0.613 0.087 -0.923 0.087h-0.069c-0.284 -0.001 -0.568 -0.013 -0.851 -0.03 -0.268 -0.015 -0.536 -0.022 -0.804 -0.028q-0.142 -0.004 -0.284 -0.007l-0.07 -0.002a22.57 22.57 0 0 1 -0.468 -0.018l-0.186 -0.008a15.633 15.633 0 0 1 -0.169 -0.009c-0.547 -0.027 -0.987 0.224 -1.388 0.577 -0.067 0.062 -0.129 0.126 -0.188 0.196L13.992 10.945h-0.047l-0.018 0.042c-0.033 0.059 -0.069 0.091 -0.121 0.134 -0.048 0.04 -0.09 0.074 -0.126 0.125 -0.035 0.045 -0.067 0.075 -0.111 0.111 -0.105 0.089 -0.2 0.186 -0.296 0.283l-0.116 0.117a165.516 165.516 0 0 0 -0.182 0.184 92.203 92.203 0 0 1 -0.177 0.178l-0.055 0.056 -0.051 0.051 -0.045 0.045C12.609 12.305 12.609 12.305 12.563 12.305l-0.016 0.041c-0.039 0.067 -0.087 0.1 -0.148 0.146a1.627 1.627 0 0 0 -0.188 0.211h4.57c-0.053 0.132 -0.053 0.132 -0.108 0.2l-0.037 0.045 -0.04 0.048 -0.041 0.05C16.425 13.203 16.29 13.353 16.148 13.5l-0.04 0.042C15.936 13.72 15.759 13.887 15.563 14.039l-0.072 0.057c-0.166 0.132 -0.339 0.251 -0.519 0.362a10.852 10.852 0 0 0 -0.121 0.077C14.377 14.833 13.868 15.026 13.336 15.188l-0.059 0.018c-1.086 0.324 -2.409 0.228 -3.474 -0.115l-0.054 -0.017 -0.047 -0.016c-0.052 -0.015 -0.052 -0.015 -0.138 -0.011v-0.047l-0.043 -0.012C8.925 14.82 8.349 14.454 7.875 14.063a8.297 8.297 0 0 0 -0.094 -0.07c0.014 -0.079 0.038 -0.117 0.095 -0.174l0.046 -0.047 0.051 -0.051 0.054 -0.054c0.06 -0.06 0.121 -0.12 0.181 -0.18l0.129 -0.129a172.594 172.594 0 0 1 0.279 -0.279c0.135 -0.134 0.269 -0.269 0.404 -0.403q0.328 -0.327 0.656 -0.654 0.318 -0.317 0.637 -0.635l0.04 -0.04 0.428 -0.427 0.038 -0.038 0.15 -0.15q0.22 -0.22 0.44 -0.439 0.154 -0.154 0.309 -0.308l0.127 -0.126q0.086 -0.086 0.173 -0.172l0.051 -0.051 0.046 -0.046 0.04 -0.04c0.033 -0.033 0.033 -0.033 0.054 -0.081h0.047v-0.047c0.031 -0.031 0.031 -0.031 0.076 -0.069 0.081 -0.068 0.158 -0.139 0.234 -0.212 0.425 -0.394 0.922 -0.71 1.451 -0.942a7.477 7.477 0 0 0 0.114 -0.051c0.66 -0.293 1.327 -0.323 2.038 -0.322M2.438 8.25q0.725 -0.002 1.45 -0.002 0.337 0 0.673 -0.001 0.294 -0.001 0.587 -0.001 0.155 0 0.311 -0.001 0.147 0 0.293 0a22.547 22.547 0 0 0 0.107 0c0.702 -0.003 1.469 0.227 1.984 0.728 0.031 0.033 0.031 0.033 0.079 0.028l0.038 0.048c0.046 0.057 0.087 0.098 0.142 0.145 0.094 0.081 0.183 0.167 0.271 0.255l0.048 0.048q0.077 0.077 0.154 0.155l0.108 0.108q0.141 0.141 0.282 0.283 0.144 0.145 0.289 0.289Q9.538 10.615 9.82 10.898c-0.037 0.091 -0.095 0.148 -0.164 0.216l-0.036 0.036a38.906 38.906 0 0 1 -0.118 0.117l-0.082 0.082c-0.072 0.071 -0.143 0.143 -0.215 0.214q-0.11 0.109 -0.22 0.219A359.508 359.508 0 0 1 8.555 12.211c-0.069 -0.031 -0.117 -0.064 -0.17 -0.118l-0.044 -0.044 -0.047 -0.048 -0.05 -0.051a56.789 56.789 0 0 1 -0.108 -0.109q-0.086 -0.087 -0.172 -0.174a237.234 237.234 0 0 1 -0.49 -0.494q-0.15 -0.152 -0.3 -0.302a33.422 33.422 0 0 1 -0.113 -0.115c-0.432 -0.44 -0.872 -0.788 -1.516 -0.795q-0.115 0.001 -0.23 0.003c-0.087 0.002 -0.173 0.002 -0.26 0.003 -0.11 0.001 -0.219 0.003 -0.329 0.005 -0.089 0.002 -0.179 0.003 -0.268 0.004q-0.051 0.001 -0.101 0.002c-0.263 0.007 -0.263 0.007 -0.357 -0.052 -0.041 -0.041 -0.075 -0.081 -0.108 -0.128l-0.05 -0.056 -0.079 -0.094c-0.033 -0.04 -0.033 -0.04 -0.082 -0.061v-0.047h-0.047v-0.047h-0.047c-0.032 -0.033 -0.032 -0.033 -0.07 -0.079 -0.104 -0.122 -0.217 -0.234 -0.33 -0.347l-0.067 -0.067q-0.087 -0.087 -0.175 -0.174 -0.09 -0.089 -0.179 -0.179Q2.589 8.471 2.414 8.297z"/><path fill="#454644" d="m2.461 8.367 0.047 0.023 -0.023 0.047z"/></svg>