<?xml version="1.0" encoding="UTF-8" standalone="no"?>
<svg
   viewBox="0 0 28 28"
   version="1.1"
   id="svg15"
   sodipodi:docname=":clock:.svg"
   width="28"
   height="28"
   inkscape:version="1.4.2 (ebf0e940, 2025-05-08)"
   xmlns:inkscape="http://www.inkscape.org/namespaces/inkscape"
   xmlns:sodipodi="http://sodipodi.sourceforge.net/DTD/sodipodi-0.dtd"
   xmlns:xlink="http://www.w3.org/1999/xlink"
   xmlns="http://www.w3.org/2000/svg"
   xmlns:svg="http://www.w3.org/2000/svg">
  <sodipodi:namedview
     id="namedview15"
     pagecolor="#ffffff"
     bordercolor="#000000"
     borderopacity="0.25"
     inkscape:showpageshadow="2"
     inkscape:pageopacity="0.0"
     inkscape:pagecheckerboard="0"
     inkscape:deskcolor="#d1d1d1"
     inkscape:zoom="24.011456"
     inkscape:cx="7.2048941"
     inkscape:cy="14.784609"
     inkscape:window-width="1712"
     inkscape:window-height="1043"
     inkscape:window-x="1"
     inkscape:window-y="40"
     inkscape:window-maximized="0"
     inkscape:current-layer="svg15" />
  <style
     id="style1">@font-face{font-family:SanFranciscoDisplay-Light;src:url(https://cdn.rawgit.com/AppleDesignResources/SanFranciscoFont/master/SanFranciscoDisplay-Light.otf) format(&quot;opentype&quot;)}</style>
  <defs
     id="defs1">
    <path
       id="a"
       d="M 233,300 H 67 C 30.15,300 0,269.85 0,233 V 67 C 0,30.15 30.15,0 67,0 h 166 c 36.85,0 67,30.15 67,67 v 166 c 0,36.85 -30.15,67 -67,67 z" />
  </defs>
  <clipPath
     id="b">
    <use
       xlink:href="#a"
       overflow="visible"
       id="use1" />
  </clipPath>
  <circle
     cx="150"
     cy="150"
     r="130.147"
     clip-path="url(#b)"
     fill="#ffffff"
     id="circle1"
     transform="matrix(0.092709,0,0,0.09199757,0.13076343,0.26684205)" />
  <g
     clip-path="url(#b)"
     id="g1"
     transform="matrix(0.092709,0,0,0.09199757,0.13076343,0.26684205)">
    <text
       transform="translate(195.795,75.366)"
       font-family="SanFranciscoDisplay-Light"
       font-size="33.046px"
       letter-spacing="2"
       id="text1">1</text>
  </g>
  <g
     clip-path="url(#b)"
     id="g2"
     transform="matrix(0.092709,0,0,0.09199757,0.13076343,0.26684205)">
    <text
       transform="translate(228.008,112.204)"
       font-family="SanFranciscoDisplay-Light"
       font-size="33.046px"
       letter-spacing="2"
       id="text2">2</text>
  </g>
  <g
     clip-path="url(#b)"
     id="g3"
     transform="matrix(0.092709,0,0,0.09199757,0.13076343,0.26684205)">
    <text
       transform="translate(241.233,159.913)"
       font-family="SanFranciscoDisplay-Light"
       font-size="33.046px"
       letter-spacing="2"
       id="text3">3</text>
  </g>
  <g
     clip-path="url(#b)"
     id="g4"
     transform="matrix(0.092709,0,0,0.09199757,0.13076343,0.26684205)">
    <text
       transform="translate(226.556,212.152)"
       font-family="SanFranciscoDisplay-Light"
       font-size="33.046px"
       letter-spacing="2"
       id="text4">4</text>
  </g>
  <g
     clip-path="url(#b)"
     id="g5"
     transform="matrix(0.092709,0,0,0.09199757,0.13076343,0.26684205)">
    <text
       transform="translate(190.216,247.07)"
       font-family="SanFranciscoDisplay-Light"
       font-size="33.046px"
       letter-spacing="2"
       id="text5">5</text>
  </g>
  <g
     clip-path="url(#b)"
     id="g6"
     transform="matrix(0.092709,0,0,0.09199757,0.13076343,0.26684205)">
    <text
       transform="translate(140.038,262.275)"
       font-family="SanFranciscoDisplay-Light"
       font-size="33.046px"
       letter-spacing="2"
       id="text6">6</text>
  </g>
  <g
     clip-path="url(#b)"
     id="g7"
     transform="matrix(0.092709,0,0,0.09199757,0.13076343,0.26684205)">
    <text
       transform="translate(90.934,247.418)"
       font-family="SanFranciscoDisplay-Light"
       font-size="33.046px"
       letter-spacing="2"
       id="text7">7</text>
  </g>
  <g
     clip-path="url(#b)"
     id="g8"
     transform="matrix(0.092709,0,0,0.09199757,0.13076343,0.26684205)">
    <text
       transform="translate(51.299,212.495)"
       font-family="SanFranciscoDisplay-Light"
       font-size="33.046px"
       letter-spacing="2"
       id="text8">8</text>
  </g>
  <g
     clip-path="url(#b)"
     id="g9"
     transform="matrix(0.092709,0,0,0.09199757,0.13076343,0.26684205)">
    <text
       transform="translate(39.729,160.092)"
       font-family="SanFranciscoDisplay-Light"
       font-size="33.046px"
       letter-spacing="2"
       id="text9">9</text>
  </g>
  <g
     clip-path="url(#b)"
     id="g10"
     transform="matrix(0.092709,0,0,0.09199757,0.13076343,0.26684205)">
    <text
       transform="translate(48.687,112.504)"
       font-family="SanFranciscoDisplay-Light"
       font-size="33.046px"
       letter-spacing="2"
       id="text10">10</text>
  </g>
  <g
     clip-path="url(#b)"
     id="g11"
     transform="matrix(0.092709,0,0,0.09199757,0.13076343,0.26684205)">
    <text
       transform="translate(85.844,75.099)"
       font-family="SanFranciscoDisplay-Light"
       font-size="33.046px"
       letter-spacing="2"
       id="text11">11</text>
  </g>
  <g
     clip-path="url(#b)"
     id="g12"
     transform="matrix(0.092709,0,0,0.09199757,0.13076343,0.26684205)">
    <text
       transform="translate(133.613,60.044)"
       font-family="SanFranciscoDisplay-Light"
       font-size="33.046px"
       letter-spacing="2"
       id="text12">12</text>
  </g>
  <g
     clip-path="url(#b)"
     id="g13"
     transform="matrix(0.092709,0,0,0.09199757,0.13076343,0.26684205)">
    <path
       d="m 149.962,155.869 c -3.236,0 -5.87,-2.633 -5.87,-5.869 0,-3.236 2.633,-5.869 5.87,-5.869 3.237,0 5.869,2.633 5.869,5.869 0,3.236 -2.632,5.869 -5.869,5.869 z"
       fill="#f9a050"
       id="path12" />
    <path
       d="m 149.962,146.131 a 3.869,3.869 0 1 1 0,7.737 3.869,3.869 0 0 1 0,-7.737 m 0,-4 c -4.339,0 -7.869,3.53 -7.869,7.869 0,4.339 3.53,7.869 7.869,7.869 4.339,0 7.869,-3.53 7.869,-7.869 0,-4.339 -3.53,-7.869 -7.869,-7.869 z"
       id="path13" />
  </g>
  <path
     d="m 148.176,33.122 v 134.286 a 1.786,1.786 0 1 0 3.572,0 V 33.122 a 1.786,1.786 0 0 0 -3.572,0 z"
     clip-path="url(#b)"
     fill="#f9a050"
     id="path14"
     transform="matrix(0.092709,0,0,0.09199757,0.13076343,0.26684205)" />
  <path
     d="m 46.553,197.972 98.934,-44.048 a 1.7859436,1.7859436 0 1 0 -1.453,-3.263 L 45.1,194.709 a 1.785,1.785 0 0 0 -0.905,2.358 1.785,1.785 0 0 0 2.358,0.905 z m 32.591,-71.652 63.619,23.786 a 1.792,1.792 0 0 0 2.299,-1.048 1.792,1.792 0 0 0 -1.048,-2.299 L 80.395,122.973 a 1.792,1.792 0 0 0 -2.299,1.048 1.792,1.792 0 0 0 1.048,2.299 z"
     clip-path="url(#b)"
     id="path15"
     transform="matrix(0.092709,0,0,0.09199757,0.13076343,0.26684205)" />
  <rect
     x="0.48329112"
     y="0.53433722"
     width="27.142399"
     height="27.053692"
     ry="5.6936312"
     style="fill:none;fill-opacity:0.75;fill-rule:evenodd;stroke:#000000;stroke-width:0.616908pt"
     id="rect208" />
  <rect
     style="fill:none"
     id="rect1"
     width="3.6628113"
     height="0.92860001"
     x="-7.9446893"
     y="0.67065561"
     ry="0.46430001" />
  <rect
     style="fill:none"
     id="rect2"
     width="5.1073003"
     height="0.36112222"
     x="-4.5914111"
     y="0.41271111"
     ry="0.18056111" />
  <rect
     style="fill:none"
     id="rect3"
     width="3.1985111"
     height="12.690867"
     x="-7.2740335"
     y="-1.0833668"
     ry="0.18056111" />
</svg>
