<svg xmlns="http://www.w3.org/2000/svg" width="28" height="28"><g fill="none" fill-rule="evenodd" transform="matrix(.23063 0 0 .23063 .283 .25)"><rect width="120" height="120" fill="#000" rx="28"/><circle cx="60" cy="60" r="52" fill="#fff"/><path fill="#000" d="M82.678 29h1.497v-9.864h-1.511l-2.598 1.845v1.504l2.577-1.832h.035zm12.065 9.027v.014h1.449v-.02c0-1.026.813-1.805 1.893-1.805 1.026 0 1.819.697 1.819 1.572 0 .773-.315 1.292-1.518 2.543l-3.561 3.63V45h6.747v-1.292h-4.683v-.034l2.468-2.482c1.442-1.476 2.057-2.33 2.057-3.48 0-1.565-1.4-2.76-3.28-2.76-1.963 0-3.391 1.298-3.391 3.075zm6.544 21.509h1.23c1.299 0 2.105.656 2.105 1.723 0 .964-.86 1.647-2.064 1.647-1.244 0-2.023-.65-2.12-1.593H98.97c.096 1.703 1.463 2.872 3.589 2.872 2.058 0 3.623-1.183 3.623-2.906 0-1.38-.957-2.29-2.44-2.392v-.028c1.223-.218 2.03-1.1 2.03-2.33 0-1.518-1.36-2.578-3.227-2.578-1.955 0-3.26 1.114-3.377 2.844h1.443c.089-.97.8-1.586 1.866-1.586 1.169 0 1.798.608 1.798 1.524 0 .93-.732 1.6-1.798 1.6h-1.19zM98.724 87v-1.948h-4.936v-1.34c.848-1.593 1.969-3.363 4.19-6.576h2.215v6.63h1.354v1.286h-1.354V87h-1.47zm-3.507-3.247v.034h3.52v-5.469h-.027c-1.71 2.468-2.707 4.006-3.493 5.435zm-13.502 17.432c2.126 0 3.616-1.402 3.616-3.425 0-1.914-1.36-3.302-3.253-3.302-.964 0-1.771.376-2.202.998h-.034l.274-3.028h4.641v-1.292h-5.872l-.52 5.578h1.402c.383-.65 1.121-1.04 1.976-1.04 1.23 0 2.091.89 2.091 2.127 0 1.237-.86 2.105-2.105 2.105-1.1 0-1.941-.67-2.05-1.647h-1.464c.09 1.722 1.531 2.926 3.5 2.926zm-20.928 7.006c-1.456 0-2.625-.745-3.268-2.078-.403-.786-.608-1.757-.608-2.912 0-3.302 1.477-5.257 3.944-5.257 1.744 0 3.097 1.046 3.398 2.618h-1.531c-.24-.806-.978-1.333-1.88-1.333-1.552 0-2.454 1.409-2.461 3.89h.027c.43-.957 1.477-1.6 2.707-1.6 1.88 0 3.275 1.388 3.275 3.261 0 1.976-1.511 3.411-3.603 3.411zm-.014-1.292a2.07 2.07 0 0 0 2.092-2.07c0-1.197-.868-2.058-2.078-2.058-1.203 0-2.099.86-2.099 2.03 0 1.169.91 2.098 2.085 2.098zM37.532 101h1.607l4.286-8.538v-1.326h-6.713v1.292h5.202v.034zM23.613 87.185c-2.201 0-3.733-1.183-3.733-2.851 0-1.258.889-2.263 2.195-2.536v-.034c-1.094-.301-1.798-1.156-1.798-2.215 0-1.497 1.401-2.598 3.336-2.598 1.941 0 3.329 1.094 3.329 2.605 0 1.046-.697 1.893-1.791 2.208v.034c1.312.273 2.194 1.285 2.194 2.536 0 1.675-1.545 2.85-3.732 2.85zm0-1.23c1.258 0 2.146-.726 2.146-1.73 0-1.019-.888-1.744-2.146-1.744s-2.154.732-2.154 1.744c0 1.004.896 1.73 2.154 1.73zm0-4.704c1.06 0 1.818-.643 1.818-1.538 0-.902-.752-1.545-1.818-1.545-1.074 0-1.819.643-1.819 1.545 0 .895.745 1.538 1.819 1.538zM15.38 64.185c-1.757 0-3.117-1.053-3.41-2.619h1.537c.233.807.985 1.347 1.894 1.347 1.538 0 2.44-1.422 2.44-3.91h-.027c-.397.97-1.436 1.613-2.707 1.613-1.873 0-3.275-1.387-3.275-3.26 0-1.976 1.518-3.412 3.603-3.412 1.463 0 2.639.745 3.274 2.072.404.786.609 1.756.609 2.912 0 3.301-1.463 5.257-3.938 5.257zm.055-4.82c1.21 0 2.112-.868 2.112-2.03a2.065 2.065 0 0 0-2.092-2.085c-1.175 0-2.098.91-2.098 2.058 0 1.182.882 2.057 2.078 2.057zM20.432 45h1.498v-9.864h-1.511L17.82 36.98v1.504l2.577-1.832h.034V45Zm6.267.185c-2.365 0-3.766-1.983-3.766-5.127 0-3.124 1.415-5.107 3.766-5.107 2.359 0 3.753 1.976 3.753 5.1 0 3.144-1.388 5.134-3.753 5.134zm0-1.286c1.408 0 2.208-1.456 2.208-3.841 0-2.352-.813-3.822-2.208-3.822-1.394 0-2.215 1.477-2.215 3.822 0 2.379.807 3.841 2.215 3.841zM35.595 29h1.497v-9.864H35.58l-2.598 1.845v1.504l2.577-1.832h.035V29Zm5.166 0h1.497v-9.864h-1.51l-2.599 1.845v1.504l2.578-1.832h.034zm16.976-7h1.497v-9.864h-1.511l-2.598 1.844v1.504l2.577-1.832h.035zm2.589-6.973v.014h1.449v-.02c0-1.026.813-1.805 1.893-1.805 1.026 0 1.819.697 1.819 1.572 0 .773-.315 1.292-1.518 2.543l-3.561 3.63V22h6.747v-1.292h-4.683v-.034l2.468-2.482c1.442-1.476 2.058-2.33 2.058-3.48 0-1.565-1.402-2.76-3.282-2.76-1.962 0-3.39 1.298-3.39 3.075z"/><g fill="#000" transform="translate(32 36)"><path d="M28.248 24.935 1.193 9.095a.5.5 0 0 1-.18-.681l.002-.003a.497.497 0 0 1 .682-.18L28.75 24.07a.5.5 0 0 1 .18.68l-.002.004a.497.497 0 0 1-.681.18z"/><path d="m28.247 24.069 40.468-22.94a.5.5 0 0 1 .68.184l.002.004a.496.496 0 0 1-.185.68l-40.468 22.94a.5.5 0 0 1-.68-.185l-.002-.004a.496.496 0 0 1 .185-.68z"/><circle cx="28.5" cy="24.5" r="2.5"/></g><g fill="#ffcc51" transform="translate(59 52)"><circle cx="1.5" cy="8.5" r="1.5"/><rect width="1" height="55" x="1" rx=".5"/></g></g></svg>