<svg xml:space="preserve" width="24" height="24" viewBox="0 0 16.646 16.646"><path d="M8.321.331a7.99 7.99 0 1 0 0 15.98 7.99 7.99 0 0 0 0-15.98m0 14.6a6.617 6.617 0 0 1-6.61-6.61 6.617 6.617 0 0 1 6.61-6.61 6.617 6.617 0 0 1 6.61 6.61 6.617 6.617 0 0 1-6.61 6.61"/><path d="M8.321 2.153a6.169 6.169 0 1 0 0 12.337 6.169 6.169 0 0 0 0-12.337m-.44.91h.88v1.528h-.88ZM4.59 8.762H3.063V7.88h1.528zm4.17 4.817h-.88v-1.527h.88zm.098-5.353-.371 2.909L7.7 7.62h-.001v-.005h.007l3.112-2.184zm3.193.536V7.88h1.527v.88z"/></svg>