<svg width="24" height="24" viewBox="0 0 24 24" version="1.1" xmlns="http://www.w3.org/2000/svg">
   <path id="path3" style="fill:#000000;fill-rule:evenodd;stroke-width:1.65805"
      d="M 12.007662,0.46812462 A 11.754822,11.3461 0 0 0 0.25351344,11.813865 11.754822,11.3461 0 0 0 12.007662,23.159605 11.754822,11.3461 0 0 0 23.764171,11.813865 11.754822,11.3461 0 0 0 12.007662,0.46812462 Z m 1.437693,0.61143288 h 0.0024 0.0024 v 0.00236 0.00236 l 0.0024,0.00236 v 0.00236 c 9.25e-4,0.00906 -0.0011,0.023854 -0.0047,0.042493 -0.03543,0.1796524 -0.5981,8.5694922 -0.576021,8.5883892 0.01396,0.01197 0.909372,-0.373756 1.990108,-0.8569499 1.080741,-0.4831804 1.971306,-0.8747319 1.978304,-0.8687541 0.0072,0.006 -1.426491,3.2536013 -3.184645,7.2144363 -1.758189,3.960805 -3.202501,7.1954 -3.210614,7.188469 -0.0083,-0.0071 0.27133,-2.087803 0.620877,-4.622339 0.750624,-5.442655 0.9782,-4.79536 -1.3644919,-3.883436 C 8.6256529,14.310025 7.7384162,14.646693 7.7301499,14.639662 7.7151621,14.626728 13.408516,1.1155314 13.443152,1.0819032 h 0.0024 z" />
</svg>