<svg xmlns="http://www.w3.org/2000/svg" width="24" height="24" fill="none"><path d="M11.6 5.512c-.785.32-1.41 1.174-1.861 2.545-.169.514-.419 1.655-.419 1.912v.131l.284-.311c.676-.74 1.481-1.109 2.42-1.109 1.021 0 1.761.326 2.478 1.092.333.356.343.363.322.228l-.102-.6c-.327-1.901-1.094-3.342-2.022-3.798-.353-.173-.805-.21-1.1-.09M7.798 6.534c-.548.148-.948.659-1.164 1.486-.086.329-.094.44-.092 1.28.001.705.018 1.013.073 1.32.171.952.421 1.812.785 2.697.22.535.617 1.344.677 1.381.022.014.071-.026.109-.087.258-.416.447-.681.621-.871l.2-.219-.082-.25c-.138-.421-.176-.761-.154-1.346.016-.419.042-.61.113-.825.068-.208.09-.355.083-.572-.017-.524.244-1.818.574-2.84l.171-.533-.186-.135c-.417-.303-1.043-.542-1.406-.537a1.602 1.602 0 0 0-.322.051m7.693-.014c-.201.042-.931.41-1.029.518-.065.072-.059.103.115.638.217.664.391 1.362.502 2.018.093.546.099.678.034.782-.037.06-.022.148.08.457.255.767.26 1.536.015 2.295l-.118.368.225.284c.124.156.299.404.39.552.09.147.18.267.2.265.046-.004.325-.531.559-1.057.272-.612.522-1.337.696-2.02.264-1.036.297-1.294.298-2.32.002-.839-.006-.952-.092-1.28-.248-.952-.737-1.47-1.432-1.517a1.961 1.961 0 0 0-.443.017M4.384 8.626c-.265.081-.622.436-.72.714-.105.301-.127.927-.048 1.35.313 1.658 1.662 3.701 3.561 5.396.219.195.41.354.425.354.016 0 .059-.171.097-.38.038-.209.103-.493.144-.63l.076-.25-.375-.78c-.869-1.808-1.293-3.329-1.422-5.099-.03-.408-.052-.53-.105-.568-.219-.161-1.241-.228-1.633-.107m13.836.025-.319.089-.028.2c-.015.11-.047.471-.071.801-.077 1.051-.377 2.28-.849 3.479-.086.22-.321.738-.521 1.151l-.364.751.084.289c.045.159.113.451.149.649.037.198.074.367.082.376.052.054 1.313-1.152 1.815-1.736 1.659-1.929 2.535-4.064 2.162-5.27a1.231 1.231 0 0 0-.606-.73c-.2-.109-.247-.118-.714-.127-.417-.009-.553.004-.82.078m-6.64.532c-.363.088-.477.128-.746.262-1.38.686-2.002 2.401-1.395 3.847l.118.279-.369.39c-.717.761-1.078 1.601-1.134 2.643-.087 1.594.744 3.101 2.113 3.833 1.115.595 2.34.632 3.464.103a3.68 3.68 0 0 0 1.04-.717c.396-.375.625-.687.856-1.17.576-1.198.572-2.533-.012-3.706-.209-.421-.355-.626-.711-.998-.299-.313-.299-.315-.247-.442.271-.664.296-.783.295-1.387-.002-.646-.06-.902-.314-1.4-.346-.677-1.06-1.275-1.749-1.465-.209-.058-1.058-.108-1.209-.072m-.027 2.112c.122.122.181.386.128.58-.12.446-.633.447-.767.001a.57.57 0 0 1 .15-.588c.118-.118.156-.134.267-.112a.51.51 0 0 1 .222.119m1.484-.077c.253.132.323.628.119.848-.141.151-.256.184-.415.117-.168-.07-.261-.242-.261-.483 0-.208.078-.386.209-.478.111-.077.203-.078.348-.004m-9.997.863c-1.19.073-1.832.642-1.684 1.493.052.303.293.801.555 1.146.234.308.837.908 1.229 1.222.689.552 1.79 1.214 2.682 1.613.74.331 1.936.74 1.994.683.01-.011-.014-.173-.055-.359a6.198 6.198 0 0 1-.102-.644l-.027-.305-.305-.255c-.537-.449-1.702-1.639-2.118-2.162a14.853 14.853 0 0 1-1.349-2.024c-.152-.283-.262-.446-.3-.442l-.52.034m17.099.305a14.667 14.667 0 0 1-1.413 2.134c-.309.392-1.794 1.897-2.152 2.18l-.202.16-.046.46a4.683 4.683 0 0 1-.108.673.93.93 0 0 0-.05.246c.038.103 1.552-.457 2.472-.914 1.818-.904 3.185-2.03 3.759-3.094.353-.653.347-1.221-.017-1.623-.281-.311-.833-.498-1.626-.549l-.425-.028-.192.355m-8.14 1.444c0 .523-.015.973-.033 1.002-.022.034-.119-.144-.285-.52l-.427-.962a3.804 3.804 0 0 1-.174-.43c0-.024.182-.04.46-.04H12l-.001.95m.995-.914c.043.027.005.149-.187.589-.359.828-.595 1.323-.644 1.353-.048.03-.063-1.462-.018-1.792l.026-.186.384.001c.212 0 .409.016.439.035m-11.08 2.783c-.861.301-1.617.859-1.746 1.289-.228.761.256 1.433 1.452 2.014.817.398 1.875.711 2.98.883.772.12 2.917.154 3.619.056.264-.036.486-.073.494-.081.008-.007-.109-.204-.259-.436a94.12 94.12 0 0 1-.354-.548c-.071-.113-.154-.153-.74-.354-1.8-.62-3.371-1.481-4.739-2.597a4.482 4.482 0 0 0-.42-.322 6.744 6.744 0 0 0-.287.096m19.465.226c-1.371 1.117-2.942 1.978-4.739 2.597-.586.201-.669.241-.74.354a94.12 94.12 0 0 1-.354.548c-.15.232-.267.429-.259.436.008.008.217.043.465.077.62.087 2.523.087 3.19.001 3.371-.434 5.423-1.705 4.859-3.008-.212-.491-.985-1.01-1.942-1.305-.062-.019-.177.053-.48.3"/></svg>
