<svg xmlns="http://www.w3.org/2000/svg" width="24" height="24" fill="none"><path fill="#FAFAFA" d="M11.794 5.45c-.178.032-.504.195-.713.359-.658.512-1.272 1.7-1.563 3.028-.144.653-.24 1.274-.192 1.258.013-.006.092-.09.168-.186a3.383 3.383 0 0 1 2.02-1.213c.25-.048.832-.045 1.12.01A3.294 3.294 0 0 1 14.626 9.9c.107.131.196.234.203.227.01-.01-.062-.506-.12-.826-.186-.986-.415-1.674-.813-2.417-.562-1.047-1.327-1.568-2.102-1.434Z"/><path fill="#FAFAFA" d="M7.834 6.516c-.37.083-.72.381-.936.79-.072.142-.144.289-.157.334-.172.573-.227.963-.227 1.642 0 .66.072 1.268.223 1.956.069.314.185.752.22.848.017.045.058.167.089.272.1.324.308.878.48 1.265.178.403.524 1.082.565 1.104.014.007.076-.077.138-.185.15-.272.387-.602.6-.836l.178-.195-.065-.176c-.268-.72-.271-1.703-.007-2.424.096-.265.1-.29.034-.358-.044-.045-.041-.106.014-.468.086-.55.123-.749.192-1.056l.072-.336c.051-.227.236-.855.34-1.15.064-.182.116-.348.116-.37 0-.061-.514-.388-.802-.513-.374-.163-.765-.214-1.067-.144ZM15.507 6.516c-.315.061-1.107.48-1.107.59 0 .022.038.146.086.278a13.62 13.62 0 0 1 .668 2.782c.031.22.028.243-.04.31-.073.07-.073.074-.011.208.1.23.113.266.168.477.096.378.123.583.123.954 0 .439-.058.788-.205 1.188l-.103.297.092.11c.227.265.49.633.593.825.062.115.124.202.138.192.048-.025.394-.71.593-1.168a12.58 12.58 0 0 0 .847-2.753c.188-1.037.181-2.231-.018-2.913-.027-.096-.061-.212-.072-.256a3.58 3.58 0 0 0-.174-.359c-.336-.621-.888-.887-1.578-.762Z"/><path fill="#FAFAFA" d="M4.533 8.58c-.237.062-.336.113-.522.267-.322.262-.445.608-.445 1.232 0 .515.072.87.308 1.527.374 1.034 1.259 2.392 2.26 3.47.487.525 1.399 1.364 1.48 1.364.015 0 .035-.083.045-.186.031-.227.107-.576.179-.806.027-.096.061-.205.068-.24.01-.039-.089-.273-.253-.593a12.714 12.714 0 0 1-.775-1.76c-.497-1.393-.727-2.558-.785-3.938-.007-.195.01-.186-.453-.307-.264-.07-.888-.087-1.107-.03ZM18.669 8.552c-.038.007-.155.032-.258.051a5.836 5.836 0 0 0-.36.093l-.171.051-.038.605c-.037.605-.089 1.04-.15 1.342-.021.086-.059.275-.09.416-.24 1.162-.73 2.484-1.357 3.65-.186.342-.186.358-.083.688.072.227.148.576.179.806.01.103.03.186.044.186.045 0 .429-.327.81-.685 1.522-1.44 2.65-3.134 3.099-4.645.164-.557.199-1.313.075-1.68a1.233 1.233 0 0 0-.764-.807c-.175-.064-.762-.11-.936-.07ZM11.674 9.17c-.977.122-1.892.861-2.266 1.828-.291.768-.264 1.703.075 2.398l.086.176-.236.224c-.758.733-1.173 1.588-1.276 2.634-.14 1.425.5 2.888 1.625 3.707.45.324.85.513 1.478.689.26.073.867.105 1.224.067.374-.042.408-.048.82-.176.901-.282 1.765-.999 2.231-1.86.68-1.252.703-2.73.062-3.96a3.838 3.838 0 0 0-.744-1.018l-.257-.256.123-.279c.21-.483.24-.637.24-1.226 0-.528-.024-.672-.168-1.072a2.981 2.981 0 0 0-1.6-1.69c-.392-.167-.957-.24-1.417-.186Zm-.202 2.049c.302.173.319.768.024.947-.192.119-.432.042-.549-.176-.089-.166-.078-.47.021-.62.134-.202.315-.257.504-.151Zm1.553-.016c.298.147.357.675.1.915a.362.362 0 0 1-.504 0c-.227-.211-.216-.63.02-.851.127-.119.23-.138.384-.064ZM12 13.91c0 .564-.014 1.024-.027 1.024-.014 0-.048-.054-.072-.121a9.706 9.706 0 0 0-.117-.263c-.069-.147-.322-.72-.442-1.008a4.612 4.612 0 0 0-.151-.327 2.318 2.318 0 0 1-.103-.25l-.02-.08H12v1.025Zm1.063-.999c0 .016-.196.47-.436 1.012-.387.864-.514 1.101-.504.931l.007-1.008.007-.96h.463c.254 0 .463.012.463.025Z"/><path fill="#FAFAFA" d="M2.606 12.121c-1.142.24-1.543.958-1.094 1.953.576 1.271 2.561 2.792 4.83 3.704.54.215 1.458.512 1.492.48.01-.006-.02-.156-.068-.333a3.723 3.723 0 0 1-.107-.653l-.024-.336-.209-.176c-.421-.352-1.35-1.242-1.67-1.6-.809-.91-1.43-1.784-1.906-2.683l-.226-.423-.363.003c-.223 0-.477.026-.655.064ZM20.133 12.4c-.474.916-1.2 1.937-1.996 2.81a22.692 22.692 0 0 1-1.563 1.486l-.21.176-.02.352c-.02.346-.079.663-.161.897-.024.064-.034.125-.024.134.027.023.449-.096.926-.266.576-.201.696-.253 1.326-.547 1.142-.531 2.205-1.23 2.97-1.943 1.131-1.063 1.532-2.036 1.131-2.737-.243-.426-.977-.708-1.841-.708h-.357l-.181.346Z"/><path fill="#FAFAFA" d="M1.95 15.684c-.815.273-1.508.743-1.74 1.188a1.2 1.2 0 0 0-.07.775c.268.91 1.75 1.713 3.957 2.151.175.035.33.058 1.063.154.528.067 2.331.077 2.846.016.363-.045.737-.106.737-.122 0-.003-.082-.115-.178-.243a5.91 5.91 0 0 1-.354-.544l-.171-.31-.36-.116c-.39-.125-.658-.218-.874-.307l-.36-.141a19.788 19.788 0 0 1-.669-.295c-1.313-.614-2.393-1.3-3.343-2.119-.103-.087-.202-.16-.223-.16-.017 0-.137.032-.26.073ZM21.566 15.771c-.947.816-2.044 1.511-3.343 2.12-.247.111-.545.246-.669.294l-.325.128c-.299.118-.504.192-.861.304-.22.067-.401.128-.405.134-.003.003-.089.154-.188.33-.1.176-.257.416-.35.538-.092.118-.168.22-.168.23 0 .02.322.07.737.119.487.054 2.205.054 2.692 0 2.153-.24 3.812-.804 4.663-1.582.582-.534.71-1.127.356-1.642-.223-.323-.682-.663-1.22-.893-.244-.102-.652-.243-.707-.243a1.81 1.81 0 0 0-.212.163Z"/></svg>