<svg xmlns="http://www.w3.org/2000/svg" xml:space="preserve" width="24" height="24" viewBox="0 0 15.36 15.36"><path d="M15.129.266S7.405 4.836 7.024 4.65c-.621-.303.151-1.721.151-1.721L1.681 7.56q-.121.105-.236.22a4.362 4.362 0 1 0 6.17 6.17c.185-.185.495-.59.495-.59l5.149-6.86s-1.077.176-1.229-.335C11.864 5.61 15.129.266 15.129.266M4.699 7.624a3.067 3.067 0 0 1 3.066 3.066 3.067 3.067 0 0 1-3.066 3.067A3.067 3.067 0 0 1 1.63 10.69 3.067 3.067 0 0 1 4.7 7.624" style="fill:#e9573f;stroke-width:.0292234"/></svg>