<svg xmlns="http://www.w3.org/2000/svg"
     xmlns:xlink="http://www.w3.org/1999/xlink"
     viewBox="0 0 24 24">
  <path d="M 7.179 19.144 L 7.143 19.11 C 2.992 14.972 3.022 8.295 7.215 4.194 C 9.226 2.225 11.95 1.126 14.784 1.139 C 17.619 1.152 20.332 2.275 22.325 4.262 L 22.359 4.298 C 22.454 4.391 22.454 4.542 22.359 4.636 C 22.314 4.681 22.252 4.706 22.188 4.706 C 22.124 4.706 22.062 4.681 22.017 4.636 L 21.946 4.567 C 20.205 2.848 17.842 1.881 15.378 1.881 C 12.913 1.881 10.55 2.848 8.81 4.567 C 5.182 8.151 5.182 13.952 8.81 17.536 C 9.359 18.079 9.941 18.594 10.552 19.076 C 10.593 19.11 10.637 19.141 10.683 19.168 C 10.729 19.195 10.782 19.209 10.836 19.208 C 10.89 19.204 10.942 19.184 10.985 19.151 C 11.028 19.119 11.068 19.084 11.105 19.045 L 13.717 16.469 C 13.776 16.411 13.816 16.365 13.842 16.33 C 13.881 16.281 13.903 16.22 13.904 16.158 C 13.898 16.095 13.871 16.037 13.827 15.991 C 13.785 15.945 13.739 15.902 13.691 15.863 C 13.115 15.385 12.561 14.883 12.028 14.358 C 9.399 11.759 9.399 7.553 12.028 4.955 C 13.291 3.708 15.004 3.007 16.791 3.007 C 18.578 3.007 20.292 3.708 21.554 4.955 L 21.623 5.023 C 21.718 5.117 21.718 5.269 21.623 5.363 C 21.578 5.407 21.516 5.433 21.452 5.433 C 21.387 5.433 21.326 5.407 21.28 5.363 L 21.211 5.294 C 20.2 4.296 18.828 3.735 17.397 3.735 C 15.966 3.735 14.594 4.296 13.584 5.294 C 11.478 7.375 11.478 10.743 13.584 12.824 C 14.129 13.363 14.693 13.884 15.275 14.387 C 15.329 14.435 15.372 14.468 15.405 14.488 C 15.459 14.521 15.513 14.537 15.562 14.535 C 15.61 14.535 15.663 14.516 15.718 14.479 C 15.763 14.446 15.805 14.409 15.843 14.368 L 18.005 12.235 C 18.049 12.194 18.089 12.149 18.125 12.102 C 18.163 12.054 18.185 11.996 18.187 11.936 C 18.184 11.875 18.16 11.817 18.119 11.771 C 18.08 11.724 18.038 11.681 17.992 11.641 C 17.434 11.135 16.887 10.618 16.352 10.09 C 15.119 8.872 15.119 6.9 16.352 5.682 C 16.943 5.097 17.747 4.769 18.584 4.769 C 19.422 4.769 20.226 5.097 20.817 5.682 C 21.136 5.995 21.446 6.316 21.749 6.646 C 22.229 7.168 23.047 7.207 23.575 6.734 C 24.079 6.282 24.143 5.525 23.723 4.996 C 19.18 -0.691 10.827 -1.668 5.063 2.815 C -0.7 7.296 -1.69 15.543 2.851 21.233 C 3.665 22.254 4.63 23.151 5.712 23.892 C 5.826 23.969 5.919 24.005 5.99 23.999 C 6.061 23.993 6.146 23.941 6.245 23.845 L 8.9 21.222 C 8.947 21.178 8.991 21.13 9.03 21.079 C 9.071 21.028 9.093 20.965 9.093 20.901 C 9.084 20.836 9.054 20.776 9.006 20.732 C 8.961 20.687 8.913 20.645 8.861 20.607 C 8.27 20.155 7.708 19.667 7.179 19.144 Z" />
</svg>