<?xml version="1.0" encoding="UTF-8" standalone="no"?>
<svg
   viewBox="0 0 768 768"
   width="24"
   height="24"
   version="1.1"
   id="svg1"
   sodipodi:docname=":conductor:.svg"
   inkscape:version="1.4.3 (0d15f75, 2025-12-25)"
   xmlns:inkscape="http://www.inkscape.org/namespaces/inkscape"
   xmlns:sodipodi="http://sodipodi.sourceforge.net/DTD/sodipodi-0.dtd"
   xmlns="http://www.w3.org/2000/svg"
   xmlns:svg="http://www.w3.org/2000/svg">
  <defs
     id="defs1" />
  <sodipodi:namedview
     id="namedview1"
     pagecolor="#505050"
     bordercolor="#ffffff"
     borderopacity="1"
     inkscape:showpageshadow="0"
     inkscape:pageopacity="0"
     inkscape:pagecheckerboard="1"
     inkscape:deskcolor="#505050"
     inkscape:zoom="8.6611641"
     inkscape:cx="9.9293812"
     inkscape:cy="20.840155"
     inkscape:window-width="968"
     inkscape:window-height="1044"
     inkscape:window-x="742"
     inkscape:window-y="40"
     inkscape:window-maximized="0"
     inkscape:current-layer="svg1" />
  <g
     transform="matrix(0.16020746,0,0,-0.16020746,-227.28898,993.59833)"
     fill="currentColor"
     id="g1">
    <path
       d="m 4455,2296 309,-1 22,-32 c 20,-30 22,-48 29,-315 8,-305 3,-351 -39,-393 l -23,-23 -849,-1 c -467,0 -883,3 -924,7 -109,10 -105,-1 -113,372 -5,255 -4,308 9,338 28,68 -24,64 653,56 339,-4 755,-7 926,-8 z"
       id="path7" />
    <path
       d="m 5247,3263 c 7,-3 23,-23 34,-45 19,-37 20,-55 17,-348 -3,-294 -4,-310 -24,-336 -11,-15 -31,-31 -45,-34 -13,-3 -212,-4 -441,-1 l -418,6 -27,28 -28,27 -3,298 c -3,320 -1,348 27,384 l 19,23 394,6 c 379,5 464,4 495,-8 z"
       id="path6" />
    <path
       d="m 3277,3274 c 49,-6 77,-35 94,-96 16,-60 8,-606 -9,-636 -28,-50 -50,-52 -489,-52 -305,0 -414,3 -433,13 -52,26 -58,58 -66,357 -7,295 -3,337 39,386 14,16 38,29 61,33 46,7 743,3 803,-5 z"
       id="path5" />
    <path
       d="m 3341,4213 c 29,-29 38,-121 38,-427 1,-226 0,-240 -21,-277 -12,-23 -33,-42 -50,-48 -43,-15 -850,-16 -878,-1 -46,24 -50,58 -50,382 0,268 2,307 18,338 30,61 24,60 494,58 424,-3 428,-3 449,-25 z"
       id="path4" />
    <path
       d="m 3335,5190 c 41,-34 45,-66 45,-381 0,-292 -1,-302 -22,-340 -12,-22 -32,-42 -44,-45 -12,-3 -208,-4 -436,-2 -381,3 -416,4 -442,21 -52,34 -56,61 -56,364 0,344 8,379 86,392 21,4 222,6 445,6 346,0 409,-2 424,-15 z"
       id="path3" />
    <path
       d="m 5216,5204 c 42,-6 72,-41 82,-95 5,-25 7,-173 4,-328 -5,-279 -5,-283 -28,-311 -33,-38 -98,-63 -149,-56 -22,3 -192,8 -379,11 -361,6 -390,10 -419,57 -19,30 -27,140 -28,409 -1,197 0,220 19,262 21,48 30,53 102,60 50,4 759,-3 796,-9 z"
       id="path2" />
    <path
       d="m 5258,6155 c 46,-33 55,-101 50,-405 -5,-265 -6,-279 -27,-313 -12,-20 -31,-39 -42,-42 -19,-6 -685,-18 -819,-15 -36,1 -387,2 -781,3 -782,2 -733,-2 -766,61 -14,27 -16,72 -15,325 3,392 1,387 157,394 39,2 554,4 1145,5 956,2 1078,0 1098,-13 z"
       id="path1" />
  </g>
</svg>
