<svg xmlns="http://www.w3.org/2000/svg" width="24" height="24" fill="none" viewBox="0 0 24 24"><path fill="#000" d="m20.3 15.8.3.2.2.2v.8l-.3.3-.2.2h-.7l-.2-.2-.2-.3v-1l.3-.2.2-.1h.6M9.7 8.6h-1l.5-1.8zM13.4 6.7h.2l.1.2.1.2v.7l-.3.3-.3.1h-1V6.6h1.2"/><path fill="#000" fill-rule="evenodd" d="M17.5 0C21.1 0 24 2.9 24 6.5v11c0 3.6-2.9 6.5-6.5 6.5h-11A6.5 6.5 0 0 1 0 17.5v-.7h1.3l.3 1 .2.2h.4l.1-.1v-.2l-1.3-4-.1-.2H.3l-.1.1-.2.6V6.5C0 2.9 2.9 0 6.5 0zm-1.7 13.5-.4.2-.3.3-.1.3-.1.2v.2h.5l.2-.2v-.2l.3-.2h.7l.3.2.1.1v.6l-.2.2-.1.2h-.8l-.1.1v.4h.8l.2.1.2.2.1.1v.2l.1.1v.5l-.2.2-.3.1h-1l-.3-.4v-.2h-.6v.5l.3.2.2.3.3.1.4.2h1l.4-.3.3-.3v-.2l.2-.3v-.7l-.2-.2-.2-.2h-.2l-.3-.2.2-.1.2-.1.2-.3V15l.2-.3v-.2l-.2-.4-.1-.1-.3-.3-.4-.2h-1m4.2.1-.7.8-.6.9-.2.4v.4l-.1.3v.6l.2.3.2.3.3.2.3.2h1.1l.4-.2.3-.3.2-.3.1-.4v-.5l-.1-.4-.2-.3-.4-.4h-1.1l-.3.2 1.2-1.7v-.1zm-18.3 0v.2l1.4 2.4V18l.1.1h.5v-1.8l.1-.1 1.3-2.4v-.1h-.7l-1 1.9-1-1.8v-.1zm7.5 0v.5h2.3v.1L9.6 18l.1.1h.5l.1-.1 2-3.8v-.4l-.2-.1H9.2m4.2 2.8a.6.6 0 1 0 0 1.2.6.6 0 0 0 0-1.2m0-2.4a.6.6 0 1 0 0 1.2.6.6 0 0 0 0-1.2m5.2-7.8v.3h.9V10h-.8v.5H21v-.5h-.8V6.6h.8V6h-2.4m-14.8 0zl.6 4 .2.1H5v-.1l.6-2.5.6 2.5.1.1h.5v-.1l.8-4.1-.2-.2H7v.2l-.5 3.3-.6-2.4h-.5v.1l-.6 2.3-.5-3.4h-.5m5 0-1.3 4v.1l.1.1h.6l.3-1.1h1.4l.3 1 .1.1h.6v-.2l-1.2-4-.2-.2H9zm2.7 0v4.2h.6V8.7h.9l.8 1.6h.6v-.2l-.7-1.5.3-.3.2-.2.2-.3v-1l-.1-.3-.3-.3-.3-.2-.4-.1h-1.7zm3.6 0v4.2h.5V7.1h.1l1.7 3.2h.6V6h-.5v3.3h-.1L15.7 6h-.6m6.6 0v4.2h.5V7.2h.1l1.6 3V9l-1.6-2.9h-.6" clip-rule="evenodd"/><path fill="#000" d="m.6 14.4.5 1.7v.1h-1v-.3z"/></svg>