<svg width="24" height="24" viewBox="0 0 1.44 1.44"><title>contacts-solid</title><g data-name="Layer 2"><path fill="none" d="M-.07-.064h1.595v1.595H-.07z" data-name="invisible box"/><g data-name="Q3 icons" transform="translate(-.07 -.064) scale(.03323)"><path d="M14 31.7V34h14v-2.3a15.3 15.3 0 0 0-14 0"/><circle cx="21" cy="17" r="3"/><path d="M36 3H6a2 2 0 0 0-2 2v38a2 2 0 0 0 2 2h30a2 2 0 0 0 2-2V5a2 2 0 0 0-2-2m-15 7a7 7 0 1 1-7 7 7 7 0 0 1 7-7m11 26a2 2 0 0 1-2 2H12a2 2 0 0 1-2-2v-6.6l.9-.6a19.6 19.6 0 0 1 20.2 0l.9.6zM42 19h-2v10h2a2 2 0 0 0 2-2v-6a2 2 0 0 0-2-2M42 31h-2v10h2a2 2 0 0 0 2-2v-6a2 2 0 0 0-2-2M42 7h-2v10h2a2 2 0 0 0 2-2V9a2 2 0 0 0-2-2"/></g></g></svg>