<svg viewBox="0 0 24 24" width="24" height="24" xmlns="http://www.w3.org/2000/svg">
  <path d="M16.8 7.2H7.2v9.6h9.6V7.2z"></path>
  <path
    d="M22.8 13.2c.7 0 1.2-.5 1.2-1.2 0-.6-.5-1.2-1.2-1.2h-1.2V8.4h1.2c.7 0 1.2-.5 1.2-1.2 0-.6-.5-1.2-1.2-1.2h-1.2V4.8c0-1.3-1-2.4-2.4-2.4H18V1.2a1.2 1.2 0 00-2.4 0v1.2h-2.4V1.2C13.2.6 12.7 0 12 0s-1.2.5-1.2 1.2v1.2H8.4V1.2C8.4.6 7.9 0 7.2 0S6 .5 6 1.2v1.2H4.8c-1.3 0-2.4 1-2.4 2.4V6H1.2C.5 6 0 6.5 0 7.2c0 .6.5 1.2 1.2 1.2h1.2v2.4H1.2c-.7 0-1.2.5-1.2 1.2 0 .6.5 1.2 1.2 1.2h1.2v2.4H1.2c-.7 0-1.2.5-1.2 1.2 0 .6.5 1.2 1.2 1.2h1.2v1.2c0 1.3 1 2.4 2.4 2.4H6v1.2c0 .6.5 1.2 1.2 1.2s1.2-.5 1.2-1.2v-1.2h2.4v1.2c0 .6.5 1.2 1.2 1.2s1.2-.5 1.2-1.2v-1.2h2.4v1.2a1.2 1.2 0 002.4 0v-1.2h1.2c1.3 0 2.4-1 2.4-2.4V18h1.2c.7 0 1.2-.5 1.2-1.2 0-.6-.5-1.2-1.2-1.2h-1.2v-2.4h1.2zm-3.6 6H4.8V4.8h14.4v14.4z">
  </path>
</svg>