<svg version="1.1" id="svg1" width="24" height="24" viewBox="0 0 24 24" xmlns="http://www.w3.org/2000/svg">
   <defs id="defs1" />
   <g id="g1">
      <path style="fill:#000000;stroke-width:0.107994"
         d="M 9.4450548,23.835127 C 4.5104391,23.061759 0.59863799,18.917606 0.08587726,13.920034 0.02355206,13.312588 0.04152076,13.209589 0.24531933,13.006086 0.47307392,12.778663 0.51814895,12.776736 5.6133786,12.776736 h 5.1383764 l 0.265269,0.264886 0.26527,0.264884 v 5.081862 5.081863 l -0.26527,0.264884 c -0.298374,0.297942 -0.305961,0.298424 -1.5719692,0.100012 z m 3.6155312,-0.100012 -0.265271,-0.264884 v -5.112104 -5.112104 l 0.264182,-0.247827 c 0.236523,-0.221877 0.329876,-0.24008 0.891602,-0.173849 4.956249,0.584366 8.993008,4.278568 9.853497,9.017333 0.266072,1.465279 0.264111,1.594791 -0.02857,1.887045 L 23.504359,24 H 18.415107 13.325855 Z M 0.30109358,11.013361 1.2915135e-7,10.754748 0.1348856,9.7423172 C 0.79774629,4.7669817 4.7839398,0.79588377 9.7823854,0.13135242 L 10.770387,4.4999998e-8 11.029376,0.3006563 l 0.25899,0.30065624 -0.03005,5.11268926 c -0.02786,4.7401482 -0.04411,5.1267262 -0.222966,5.3053202 -0.178855,0.178596 -0.565995,0.194819 -5.3130354,0.222643 l -5.12012359,0.03001 z M 13.053966,10.994418 12.795315,10.736143 V 5.6737393 c 0,-4.95809159 0.0046,-5.06826271 0.22399,-5.34674714 l 0.22399,-0.2843434 h 5.171812 5.171812 l 0.223321,0.28349423 c 0.188997,0.23992153 0.21292,0.3767606 0.155648,0.89030701 -0.185933,1.6672277 -0.907404,3.6453931 -1.846382,5.0625006 -0.540301,0.8154253 -1.751975,2.0837072 -2.62367,2.7462462 -1.420902,1.0799692 -3.756666,1.9914762 -5.550268,2.1659332 -0.567614,0.05521 -0.659649,0.0349 -0.891602,-0.196712 z"
         id="path1" />
   </g>
</svg>