<?xml version="1.0" encoding="UTF-8" standalone="no"?>
<svg
   id="svg"
   version="1.1"
   width="24"
   height="24"
   viewBox="0 0 24 24"
   sodipodi:docname="image2vector.svg"
   inkscape:version="1.4.3 (0d15f75, 2025-12-25)"
   xmlns:inkscape="http://www.inkscape.org/namespaces/inkscape"
   xmlns:sodipodi="http://sodipodi.sourceforge.net/DTD/sodipodi-0.dtd"
   xmlns="http://www.w3.org/2000/svg"
   xmlns:svg="http://www.w3.org/2000/svg">
  <defs
     id="defs1" />
  <sodipodi:namedview
     id="namedview1"
     pagecolor="#505050"
     bordercolor="#ffffff"
     borderopacity="1"
     inkscape:showpageshadow="0"
     inkscape:pageopacity="0"
     inkscape:pagecheckerboard="1"
     inkscape:deskcolor="#505050"
     inkscape:zoom="22.223737"
     inkscape:cx="15.568938"
     inkscape:cy="16.356385"
     inkscape:window-width="1710"
     inkscape:window-height="1044"
     inkscape:window-x="0"
     inkscape:window-y="40"
     inkscape:window-maximized="0"
     inkscape:current-layer="svg" />
  <g
     id="svgg"
     transform="matrix(0.09388791,0,0,0.09388791,-6.7034175,-6.6138994)">
    <path
       id="path0"
       d="m 194.363,92.99 c -2.163,1.193 -5.603,3.142 -7.644,4.331 -4.688,2.731 -12.044,6.987 -20.313,11.752 -3.545,2.043 -9.17,5.295 -12.5,7.228 -5.879,3.411 -9.073,5.254 -36.718,21.188 -7.198,4.148 -15.108,8.717 -17.579,10.154 -2.47,1.436 -8.711,5.042 -13.867,8.013 -9.894,5.701 -10.992,6.459 -11.587,8.003 -0.55,1.425 -0.431,71.622 0.123,72.838 0.382,0.84 3.399,3.347 4.027,3.347 0.137,0 1.21,0.615 2.385,1.367 1.176,0.752 2.217,1.367 2.314,1.367 0.097,0 1.544,0.814 3.215,1.809 1.671,0.994 3.83,2.254 4.797,2.799 2.634,1.484 16.314,9.357 21.875,12.588 2.685,1.561 8.925,5.165 13.867,8.008 4.941,2.844 11.797,6.798 15.234,8.787 13.301,7.696 16.505,9.542 19.336,11.144 1.611,0.911 7.061,4.069 12.11,7.017 5.048,2.948 10.058,5.84 11.132,6.429 1.075,0.588 4.502,2.549 7.618,4.358 7.529,4.373 7.796,4.391 13.671,0.933 3.76,-2.212 9.436,-5.492 13.868,-8.014 2.363,-1.345 5.391,-3.125 6.728,-3.956 1.338,-0.831 2.511,-1.511 2.607,-1.511 0.096,0 3.199,-1.758 6.895,-3.906 3.696,-2.149 6.874,-3.907 7.061,-3.907 0.188,0 0.341,-0.176 0.341,-0.39 0,-0.215 0.155,-0.391 0.345,-0.391 0.189,0 2.759,-1.406 5.71,-3.125 2.951,-1.719 5.43,-3.125 5.508,-3.125 0.077,0 1.103,-0.615 2.278,-1.367 1.176,-0.752 2.228,-1.367 2.338,-1.367 0.11,0 1.795,-0.967 3.743,-2.149 1.949,-1.181 3.611,-2.148 3.694,-2.148 0.083,0 1.703,-0.905 3.6,-2.01 3.801,-2.215 18.278,-10.542 20.441,-11.758 0.752,-0.423 1.543,-0.902 1.757,-1.065 0.397,-0.302 2.561,-1.523 6.446,-3.638 1.181,-0.644 2.426,-1.409 2.765,-1.701 0.339,-0.292 0.724,-0.531 0.854,-0.531 0.131,0 3.249,-1.758 6.928,-3.907 3.679,-2.148 6.762,-3.906 6.852,-3.906 0.09,0 1.125,-0.615 2.301,-1.367 1.175,-0.752 2.252,-1.367 2.393,-1.367 0.596,0 3.367,-2.518 3.895,-3.539 0.996,-1.926 0.845,-71.598 -0.158,-73.244 -0.86,-1.41 -1.642,-1.913 -13.916,-8.96 -5.156,-2.96 -10.342,-5.958 -11.524,-6.663 -1.181,-0.705 -8.388,-4.872 -16.015,-9.262 -7.627,-4.389 -15.625,-9.001 -17.774,-10.248 -2.148,-1.247 -4.644,-2.681 -5.547,-3.185 -0.902,-0.505 -5.385,-3.089 -9.961,-5.743 -12.631,-7.323 -12.666,-7.337 -15.376,-6.139 -1.91,0.845 -15.601,8.695 -21.85,12.528 -2.363,1.45 -8.955,5.319 -14.648,8.599 -5.694,3.279 -13.165,7.59 -16.602,9.579 -7.691,4.449 -36.741,21.225 -45.508,26.279 -7.732,4.457 -18.175,10.506 -19.535,11.314 -2.583,1.535 -2.523,1.149 -2.651,17.278 -0.123,15.476 0.027,17.198 1.624,18.698 0.777,0.73 14.172,8.645 14.63,8.645 0.114,0 0.484,0.239 0.823,0.531 0.339,0.293 1.584,1.054 2.765,1.692 1.182,0.638 2.852,1.598 3.711,2.134 0.86,0.535 1.826,1.089 2.149,1.23 0.322,0.141 1.289,0.688 2.148,1.216 0.86,0.528 2.617,1.523 3.906,2.212 1.29,0.69 2.956,1.668 3.704,2.174 0.749,0.506 1.583,0.921 1.856,0.921 0.272,0 0.495,0.135 0.495,0.301 0,0.166 0.659,0.648 1.465,1.07 0.806,0.423 3.325,1.869 5.599,3.214 2.274,1.345 4.339,2.446 4.59,2.446 0.25,0 0.456,0.176 0.456,0.391 0,0.214 0.144,0.39 0.32,0.39 0.314,0 9.652,5.251 10.422,5.86 3.523,2.789 9.649,5.036 10.409,3.817 0.765,-1.226 0.944,-13.326 0.235,-15.836 -0.447,-1.58 -1.123,-2.029 -15.702,-10.432 -41.32,-23.815 -37.078,-20.572 -37.22,-28.462 -0.122,-6.751 0.141,-7.182 6.536,-10.688 2.957,-1.622 5.026,-2.813 6.64,-3.822 1.207,-0.754 5.203,-3.051 9.353,-5.376 4.218,-2.362 25.484,-14.612 26.975,-15.538 0.967,-0.601 2.417,-1.46 3.223,-1.909 3.528,-1.968 4.418,-2.481 4.785,-2.759 0.215,-0.164 1.27,-0.79 2.344,-1.393 1.074,-0.603 2.832,-1.59 3.906,-2.194 2.684,-1.509 4.781,-1.246 8.984,1.125 1.719,0.97 4.092,2.296 5.274,2.948 1.182,0.651 2.588,1.486 3.125,1.855 0.537,0.369 1.68,1.05 2.539,1.514 0.859,0.464 2.09,1.181 2.734,1.594 1.822,1.167 6.19,3.524 6.53,3.524 0.169,0 0.306,0.176 0.306,0.391 0,0.215 0.17,0.391 0.377,0.391 0.207,-10e-4 2.144,1.061 4.304,2.358 2.16,1.298 4.202,2.464 4.537,2.593 0.336,0.129 2.134,1.178 3.997,2.331 1.863,1.153 3.738,2.251 4.168,2.439 0.43,0.189 2.803,1.528 5.274,2.977 2.47,1.448 5.634,3.247 7.031,3.997 11.979,6.436 11.834,6.266 11.742,13.73 -0.088,7.172 -0.283,7.377 -14.281,15.08 -2.764,1.521 -35.02,20.126 -45.556,26.277 -7.865,4.591 -7.138,2.489 -7.374,21.319 l -0.195,15.562 -0.922,0.747 c -0.508,0.41 -1.211,0.744 -1.563,0.742 -0.956,-0.007 -8.761,-4.446 -62.164,-35.357 -4.189,-2.425 -13.154,-7.606 -19.922,-11.512 -13.589,-7.845 -14.614,-8.608 -15.195,-11.317 -0.598,-2.792 -0.574,-43.776 0.027,-45.784 0.783,-2.612 3.981,-4.803 19.465,-13.332 1.182,-0.651 3.379,-1.916 4.883,-2.812 4.464,-2.659 10.437,-6.098 15.234,-8.773 1.29,-0.718 3.909,-2.246 5.821,-3.395 1.912,-1.149 3.53,-2.089 3.596,-2.089 0.066,0 1.05,-0.554 2.187,-1.23 1.138,-0.677 6.023,-3.509 10.857,-6.294 4.834,-2.785 9.317,-5.368 9.961,-5.74 5.643,-3.255 25.925,-14.853 29.454,-16.843 5.381,-3.033 6.461,-3.656 11.887,-6.853 2.328,-1.371 4.393,-2.493 4.59,-2.493 0.197,0 0.358,-0.148 0.358,-0.328 0,-0.181 0.418,-0.518 0.928,-0.751 3.966,-1.807 0.77,-4.582 -15.311,-13.291 -3.682,-1.994 -4.854,-1.906 -9.613,0.719 m 42.08,45.096 c 1.119,0.578 2.737,1.468 3.596,1.977 0.859,0.51 2.301,1.3 3.203,1.755 0.902,0.455 1.846,1.076 2.098,1.38 0.253,0.303 0.588,0.552 0.745,0.552 0.357,0 14.669,8.04 16.085,9.036 0.57,0.401 1.134,0.73 1.252,0.73 0.119,0 1.146,0.552 2.283,1.226 2.946,1.747 4.503,2.633 6.951,3.955 1.182,0.639 2.764,1.551 3.516,2.027 1.325,0.839 6.177,3.624 9.766,5.605 0.966,0.534 2.197,1.274 2.734,1.645 0.537,0.372 1.855,1.143 2.93,1.714 9.248,4.915 8.41,1.866 8.296,30.187 l -0.093,23.367 -0.907,1.271 c -0.954,1.338 -2.719,2.428 -20.382,12.595 -5.694,3.277 -12.637,7.278 -15.43,8.891 -2.793,1.614 -6.572,3.766 -8.398,4.783 -1.827,1.017 -3.936,2.204 -4.688,2.638 -0.752,0.434 -6.465,3.73 -12.695,7.325 -14.483,8.356 -14.559,8.396 -15.87,8.396 -1.702,0 -2.36,-1.376 -2.59,-5.426 -0.404,-7.086 0.387,-9.035 4.644,-11.433 1.88,-1.059 15.801,-9.099 21.042,-12.153 1.826,-1.064 5.781,-3.344 8.789,-5.065 5.176,-2.963 10.31,-5.93 23.828,-13.771 9.08,-5.266 8.407,-3.485 8.377,-22.15 -0.03,-18.484 1.714,-15.686 -15.973,-25.622 -0.956,-0.537 -2.626,-1.505 -3.711,-2.152 -1.086,-0.647 -5.226,-3.053 -9.2,-5.346 -19.985,-11.53 -23.656,-13.654 -28.711,-16.612 -8.731,-5.109 -8.695,-6.171 0.365,-10.91 3.823,-2 4.969,-2.058 8.148,-0.415 m -38.688,34.582 c -0.483,0.194 -4.79,2.621 -9.57,5.393 -10.951,6.348 -14.315,8.289 -25.685,14.809 -13.924,7.985 -13.881,7.816 -3.516,13.681 0.752,0.426 2.598,1.473 4.102,2.327 1.504,0.854 3.525,2.001 4.492,2.547 0.967,0.547 7.471,4.288 14.453,8.313 18.413,10.615 17.649,10.339 21.875,7.904 0.752,-0.433 4.268,-2.463 7.813,-4.511 6.157,-3.557 14.672,-8.449 18.3,-10.514 0.935,-0.532 2.517,-1.473 3.516,-2.091 0.999,-0.618 2.344,-1.377 2.988,-1.687 3.242,-1.56 10.194,-6.088 11.048,-7.195 l 0.97,-1.258 -1.374,-1.267 c -0.756,-0.697 -5.043,-3.364 -9.525,-5.927 -4.482,-2.563 -13.599,-7.812 -20.259,-11.665 -16.88,-9.763 -17.114,-9.869 -19.628,-8.859"
       stroke="none"
       fill="#fcfcfc"
       fill-rule="evenodd" />
  </g>
</svg>
