<?xml version="1.0" encoding="UTF-8" standalone="no"?>
<!-- Generator: Adobe Illustrator 23.0.6, SVG Export Plug-In . SVG Version: 6.00 Build 0)  -->

<svg
   version="1.0"
   x="0px"
   y="0px"
   viewBox="0 0 401.49999 486.29999"
   xml:space="preserve"
   id="svg154"
   width="401.5"
   height="486.29999"
   sodipodi:docname="Cubase_logo.svg"
   inkscape:version="1.4.2 (ebf0e940, 2025-05-08)"
   xmlns:inkscape="http://www.inkscape.org/namespaces/inkscape"
   xmlns:sodipodi="http://sodipodi.sourceforge.net/DTD/sodipodi-0.dtd"
   xmlns="http://www.w3.org/2000/svg"
   xmlns:svg="http://www.w3.org/2000/svg"><sodipodi:namedview
   id="namedview1"
   pagecolor="#ffffff"
   bordercolor="#000000"
   borderopacity="0.25"
   inkscape:showpageshadow="2"
   inkscape:pageopacity="0.0"
   inkscape:pagecheckerboard="0"
   inkscape:deskcolor="#d1d1d1"
   inkscape:zoom="0.4810917"
   inkscape:cx="865.73932"
   inkscape:cy="243.19688"
   inkscape:window-width="1888"
   inkscape:window-height="985"
   inkscape:window-x="2576"
   inkscape:window-y="230"
   inkscape:window-maximized="0"
   inkscape:current-layer="g7" /><defs
   id="defs154" />
<style
   type="text/css"
   id="style1">
	.st0{fill:#707070;}
	.st1{fill-rule:evenodd;clip-rule:evenodd;fill:#C90526;}
	.st2{display:none;}
	.st3{display:inline;}
	.st4{display:inline;fill-rule:evenodd;clip-rule:evenodd;}
	.st5{display:inline;fill-rule:evenodd;clip-rule:evenodd;fill:#C90526;}
	.st6{fill-rule:evenodd;clip-rule:evenodd;}
</style>

<g
   id="Cubase_Family"
   transform="translate(-977,-7.1)">
	<g
   id="g7">
		
		<path
   class="st1"
   d="m 1220.1,7.1 80.2,80.2 c -82.2,5.6 -147.1,74.1 -147.1,157.7 0,87.1 70.3,157.7 157.3,158.1 L 1220.2,493.4 977,250.3 Z m 24,238 c 0,-37.1 30.1,-67.2 67.2,-67.2 37.1,0 67.2,30.1 67.2,67.2 0,37.1 -30.1,67.2 -67.2,67.2 -37.2,-0.1 -67.2,-30.1 -67.2,-67.2 z"
   id="path7" />
	</g>
	<g
   class="st2"
   id="g14">
		<g
   class="st3"
   id="g13">
			<path
   d="m 1710.4,356.1 c 0,50.9 -16.4,104.2 -90.1,104.2 -81.9,0 -87.8,-65.5 -87.8,-98.3 V 154.8 c 0,-49.2 7.6,-117 92.5,-117 68.5,0 85.4,45.1 85.4,101.2 v 52.7 H 1656 v -63.8 c 0,-17 -2.3,-42.7 -33.9,-42.7 -27.5,0 -34.5,21.1 -34.5,45.1 v 235.3 c 0,38 8.8,47.4 33.4,47.4 31.6,0 34.5,-24 34.5,-48.6 v -80.2 h 55 v 71.9 z"
   id="path8" />
			<path
   d="m 1805.2,41.8 v 326.6 c 0,37.5 11.1,48 32.8,48 31,0 33.4,-24 33.4,-58.5 v -316 h 53.8 V 355 c 0,77.8 -32.8,106.5 -89,106.5 -63.8,0 -84.3,-41.6 -84.3,-97.1 V 41.8 Z"
   id="path9" />
			<path
   d="m 2070.3,41.8 c 57.4,0 62.6,22.2 62.6,82.5 v 51.5 c 0,31 -1.8,57.4 -45.1,60.9 36.9,2.9 45.1,18.1 45.1,56.8 v 74.9 c 0,62.6 -5.9,86.6 -73.7,86.6 h -86.6 V 41.8 Z m -45.1,173.3 h 24 c 24.6,0 30.4,-7 30.4,-43.9 v -41 c 0,-24.6 -2.9,-39.2 -26.9,-39.2 h -27.5 z m 0,189 h 28.1 c 26.3,0 27.5,-3.5 27.5,-39.2 v -65.5 c 0,-24.6 -2.9,-39.2 -26.9,-39.2 h -28.7 z"
   id="path10" />
			<path
   d="M 2305.5,455 2295,378.9 h -62 l -9.4,76.1 h -53.3 l 58.5,-413.2 h 66.1 l 63.8,413.2 z m -43.9,-341.2 -22.8,214.8 h 49.2 z"
   id="path11" />
			<path
   d="m 2431.3,304 v 75.5 c 0,26.3 7,39.8 28.1,39.8 25.8,0 26.3,-29.8 26.3,-51.5 0,-48 -25.2,-78.4 -45.7,-109.4 l -22.2,-33.9 c -16.4,-25.2 -33.4,-55 -33.4,-105.3 0,-43.3 22.8,-85.4 83.7,-85.4 60.3,0 69.6,38.6 69.6,70.8 v 73.2 H 2488 V 107 c 0,-11.1 -1.8,-30.4 -21.7,-30.4 -26.3,0 -26.9,22.8 -26.9,42.1 0,42.1 17,67.3 36.3,96 L 2505,258 c 25.2,36.9 36.3,70.2 36.3,101.8 0,24.6 -1.2,103 -81.9,103 -33.4,0 -50.9,-14 -60.3,-24.6 -17,-19.9 -18.1,-41.6 -18.1,-65.5 V 304 Z"
   id="path12" />
			<path
   d="M 2570,455 V 41.8 h 136.4 V 93.3 H 2625 v 121.1 h 72.6 V 266 h -72 v 136.9 h 80.8 V 455 Z"
   id="path13" />
		</g>
		<path
   class="st4"
   d="m 1220.1,7.1 80.2,80.2 c -82.2,5.6 -147.1,74.1 -147.1,157.7 0,87.1 70.3,157.7 157.3,158.1 L 1220.2,493.4 977,250.3 Z m 24,238 c 0,-37.1 30.1,-67.2 67.2,-67.2 37.1,0 67.2,30.1 67.2,67.2 0,37.1 -30.1,67.2 -67.2,67.2 -37.2,-0.1 -67.2,-30.1 -67.2,-67.2 z"
   id="path14" />
	</g>
	<g
   class="st2"
   id="g22">
		<g
   class="st3"
   id="g21">
			<path
   class="st0"
   d="m 1681.1,356.1 c 0,50.9 -16.4,104.2 -90.1,104.2 -81.9,0 -87.8,-65.5 -87.8,-98.3 V 154.8 c 0,-49.2 7.6,-117 92.5,-117 68.5,0 85.4,45.1 85.4,101.2 v 52.7 h -54.4 v -63.8 c 0,-17 -2.3,-42.7 -33.9,-42.7 -27.5,0 -34.5,21.1 -34.5,45.1 v 235.3 c 0,38 8.8,47.4 33.4,47.4 31.6,0 34.5,-24 34.5,-48.6 v -80.2 h 55 v 71.9 z"
   id="path15" />
			<path
   class="st0"
   d="m 1775.9,41.8 v 326.6 c 0,37.5 11.1,48 32.8,48 31,0 33.4,-24 33.4,-58.5 v -316 h 53.8 V 355 c 0,77.8 -32.8,106.5 -89,106.5 -63.8,0 -84.3,-41.6 -84.3,-97.1 V 41.8 Z"
   id="path16" />
			<path
   class="st0"
   d="m 2041,41.8 c 57.4,0 62.6,22.2 62.6,82.5 v 51.5 c 0,31 -1.8,57.4 -45.1,60.9 36.9,2.9 45.1,18.1 45.1,56.8 v 74.9 c 0,62.6 -5.9,86.6 -73.7,86.6 h -86.6 V 41.8 Z m -45.1,173.3 h 24 c 24.6,0 30.4,-7 30.4,-43.9 v -41 c 0,-24.6 -2.9,-39.2 -26.9,-39.2 h -27.5 z m 0,189 h 28.1 c 26.3,0 27.5,-3.5 27.5,-39.2 v -65.5 c 0,-24.6 -2.9,-39.2 -26.9,-39.2 h -28.7 z"
   id="path17" />
			<path
   class="st0"
   d="m 2276.2,455 -10.5,-76.1 h -62 l -9.4,76.1 H 2141 l 58.5,-413.2 h 66.1 l 63.8,413.2 z m -43.9,-341.2 -22.8,214.8 h 49.2 z"
   id="path18" />
			<path
   class="st0"
   d="m 2402,304 v 75.5 c 0,26.3 7,39.8 28.1,39.8 25.8,0 26.3,-29.8 26.3,-51.5 0,-48 -25.2,-78.4 -45.7,-109.4 l -22.2,-33.9 c -16.4,-25.2 -33.4,-55 -33.4,-105.3 0,-43.3 22.8,-85.4 83.7,-85.4 60.3,0 69.6,38.6 69.6,70.8 v 73.2 h -49.7 V 107 c 0,-11.1 -1.8,-30.4 -21.7,-30.4 -26.3,0 -26.9,22.8 -26.9,42.1 0,42.1 17,67.3 36.3,96 l 29.3,43.3 c 25.2,36.9 36.3,70.2 36.3,101.8 0,24.6 -1.2,103 -81.9,103 -33.4,0 -50.9,-14 -60.3,-24.6 -17,-19.9 -18.1,-41.6 -18.1,-65.5 V 304 Z"
   id="path19" />
			<path
   class="st0"
   d="M 2540.7,455 V 41.8 h 136.4 v 51.5 h -81.3 v 121.1 h 72.6 V 266 h -72 v 136.9 h 80.8 V 455 Z"
   id="path20" />
			<path
   class="st0"
   d="m 2735.7,253.9 v -26"
   id="path21" />
		</g>
		<path
   class="st5"
   d="m 1190.8,7.1 80.2,80.2 c -82.2,5.6 -147.1,74.1 -147.1,157.7 0,87.1 70.3,157.7 157.3,158.1 l -90.3,90.3 -243.2,-243.1 z m 23.9,238 c 0,-37.1 30.1,-67.2 67.2,-67.2 37.1,0 67.2,30.1 67.2,67.2 0,37.1 -30.1,67.2 -67.2,67.2 -37.1,-0.1 -67.2,-30.1 -67.2,-67.2 z"
   id="path22" />
	</g>
	<g
   class="st2"
   id="g34">
		<g
   class="st3"
   id="g33">
			<path
   class="st0"
   d="m 1227.9,356.1 c 0,50.9 -16.4,104.2 -90.1,104.2 -81.9,0 -87.8,-65.5 -87.8,-98.3 V 154.8 c 0,-49.2 7.6,-117 92.5,-117 68.5,0 85.4,45.1 85.4,101.2 v 52.7 h -54.4 v -63.8 c 0,-17 -2.3,-42.7 -33.9,-42.7 -27.5,0 -34.5,21.1 -34.5,45.1 v 235.3 c 0,38 8.8,47.4 33.4,47.4 31.6,0 34.5,-24 34.5,-48.6 v -80.2 h 55 v 71.9 z"
   id="path23" />
			<path
   class="st0"
   d="m 1322.7,41.8 v 326.6 c 0,37.5 11.1,48 32.8,48 31,0 33.4,-24 33.4,-58.5 v -316 h 53.8 V 355 c 0,77.8 -32.8,106.5 -89,106.5 -63.8,0 -84.3,-41.6 -84.3,-97.1 V 41.8 Z"
   id="path24" />
			<path
   class="st0"
   d="m 1587.8,41.8 c 57.4,0 62.6,22.2 62.6,82.5 v 51.5 c 0,31 -1.8,57.4 -45.1,60.9 36.9,2.9 45.1,18.1 45.1,56.8 v 74.9 c 0,62.6 -5.9,86.6 -73.7,86.6 H 1490 V 41.8 Z m -45.1,173.3 h 24 c 24.6,0 30.4,-7 30.4,-43.9 v -41 c 0,-24.6 -2.9,-39.2 -26.9,-39.2 h -27.5 z m 0,189 h 28.1 c 26.3,0 27.5,-3.5 27.5,-39.2 v -65.5 c 0,-24.6 -2.9,-39.2 -26.9,-39.2 h -28.7 z"
   id="path25" />
			<path
   class="st0"
   d="m 1823,455 -10.5,-76.1 h -62 l -9.4,76.1 h -53.3 l 58.5,-413.2 h 66.1 l 63.8,413.2 z m -43.9,-341.2 -22.8,214.8 h 49.2 z"
   id="path26" />
			<path
   class="st0"
   d="m 1948.8,304 v 75.5 c 0,26.3 7,39.8 28.1,39.8 25.8,0 26.3,-29.8 26.3,-51.5 0,-48 -25.2,-78.4 -45.7,-109.4 l -22.2,-33.9 c -16.4,-25.2 -33.4,-55 -33.4,-105.3 0,-43.3 22.8,-85.4 83.7,-85.4 60.3,0 69.6,38.6 69.6,70.8 v 73.2 h -49.7 V 107 c 0,-11.1 -1.8,-30.4 -21.7,-30.4 -26.3,0 -26.9,22.8 -26.9,42.1 0,42.1 17,67.3 36.3,96 l 29.3,43.3 c 25.2,36.9 36.3,70.2 36.3,101.8 0,24.6 -1.2,103 -81.9,103 -33.4,0 -50.9,-14 -60.3,-24.6 -17,-19.9 -18.1,-41.6 -18.1,-65.5 V 304 Z"
   id="path27" />
			<path
   class="st0"
   d="M 2087.5,455 V 41.8 h 136.4 v 51.5 h -81.3 v 121.1 h 72.6 V 266 h -72 V 402.9 H 2224 V 455 Z"
   id="path28" />
			<path
   class="st0"
   d="m 2444.5,41.8 c 45.1,0 56.2,19.3 56.2,61.4 V 191 c 0,55 -2.3,76.7 -55,76.7 h -54.4 V 455 H 2338 V 41.8 Z m -52.7,176.8 h 34.5 c 14.6,0 19.3,-4.1 19.3,-18.1 v -87.8 c 0,-15.2 -3.5,-20.5 -20.5,-20.5 h -33.4 v 126.4 z"
   id="path29" />
			<path
   class="st0"
   d="m 2642.9,455 c -7,-38.6 -8.2,-47.4 -8.2,-86.6 V 331 c 0,-26.9 0,-66.1 -26.3,-66.1 h -25.7 V 455 h -54.4 V 41.8 h 89.5 c 51.5,0 73.7,8.8 73.7,80.2 v 51.5 c 0,67.9 -24,69.1 -49.7,72 38.6,1.8 47.4,22.8 47.4,73.7 v 54.4 c 0,46.8 1.2,55.6 10.5,81.3 h -56.8 z m -59.7,-235.8 h 27.5 c 23.4,0 26.9,-19.9 26.9,-45.6 v -41 c 0,-25.8 0,-41 -19.3,-41 h -35.1 z"
   id="path30" />
			<path
   class="st0"
   d="m 2908,362.6 c 0,80.2 -43.3,96.6 -90.1,96.6 -46.8,0 -83.1,-19.3 -83.1,-96.6 V 146 c 0,-37.5 4.7,-107.1 89,-107.1 73.7,0 84.3,53.3 84.3,108.3 v 215.4 z m -53.9,-214.8 c 0,-43.3 -4.1,-61.4 -31.6,-61.4 -33.4,0 -33.4,29.3 -33.4,48.6 v 235.9 c 0,22.2 3.5,43.3 31.6,43.3 32.2,0 33.4,-25.7 33.4,-49.2 z"
   id="path31" />
			<path
   class="st0"
   d="M 3003.6,455 V 253.9 h -29.4 v -26 c 6.8,-0.8 34,-3.4 40,-38.1 h 23 V 455 Z"
   id="path32" />
			<path
   class="st0"
   d="m 3188.9,397.7 c 0,26.8 -3.8,37.3 -14.7,47.2 -11.3,9.8 -26.4,12.8 -40.7,12.8 -8.3,0 -41.9,-0.4 -51.3,-31.7 -2.6,-8.3 -2.6,-15.8 -2.6,-32.1 V 240 c 0,-23 6.4,-54.7 55.5,-54.7 49.4,0 53.9,32.4 53.9,56.6 v 155.8 z m -32.5,-158.5 c 0,-15.5 -2.3,-28.3 -22.3,-28.3 -16.2,0 -22.3,9.1 -22.3,23.8 v 170.1 c 0,14 2.3,25.3 22.3,25.3 14.7,0 22.3,-6.4 22.3,-24.1 z"
   id="path33" />
		</g>
		<path
   class="st5"
   d="m 737.6,7.1 80.2,80.2 C 735.6,92.9 670.7,161.4 670.7,245 670.7,332.1 741,402.7 828,403.1 L 737.7,493.4 494.5,250.3 Z m 24,238 c 0,-37.1 30.1,-67.2 67.2,-67.2 37.1,0 67.2,30.1 67.2,67.2 0,37.1 -30.1,67.2 -67.2,67.2 -37.1,-0.1 -67.2,-30.1 -67.2,-67.2 z"
   id="path34" />
	</g>
	<g
   class="st2"
   id="g46">
		<g
   class="st3"
   id="g45">
			<path
   d="m 1227.9,356.1 c 0,50.9 -16.4,104.2 -90.1,104.2 -81.9,0 -87.8,-65.5 -87.8,-98.3 V 154.8 c 0,-49.2 7.6,-117 92.5,-117 68.5,0 85.4,45.1 85.4,101.2 v 52.7 h -54.4 v -63.8 c 0,-17 -2.3,-42.7 -33.9,-42.7 -27.5,0 -34.5,21.1 -34.5,45.1 v 235.3 c 0,38 8.8,47.4 33.4,47.4 31.6,0 34.5,-24 34.5,-48.6 v -80.2 h 55 v 71.9 z"
   id="path35" />
			<path
   d="m 1322.7,41.8 v 326.6 c 0,37.5 11.1,48 32.8,48 31,0 33.4,-24 33.4,-58.5 v -316 h 53.8 V 355 c 0,77.8 -32.8,106.5 -89,106.5 -63.8,0 -84.3,-41.6 -84.3,-97.1 V 41.8 Z"
   id="path36" />
			<path
   d="m 1587.8,41.8 c 57.4,0 62.6,22.2 62.6,82.5 v 51.5 c 0,31 -1.8,57.4 -45.1,60.9 36.9,2.9 45.1,18.1 45.1,56.8 v 74.9 c 0,62.6 -5.9,86.6 -73.7,86.6 H 1490 V 41.8 Z m -45.1,173.3 h 24 c 24.6,0 30.4,-7 30.4,-43.9 v -41 c 0,-24.6 -2.9,-39.2 -26.9,-39.2 h -27.5 z m 0,189 h 28.1 c 26.3,0 27.5,-3.5 27.5,-39.2 v -65.5 c 0,-24.6 -2.9,-39.2 -26.9,-39.2 h -28.7 z"
   id="path37" />
			<path
   d="m 1823,455 -10.5,-76.1 h -62 l -9.4,76.1 h -53.3 l 58.5,-413.2 h 66.1 l 63.8,413.2 z m -43.9,-341.2 -22.8,214.8 h 49.2 z"
   id="path38" />
			<path
   d="m 1948.8,304 v 75.5 c 0,26.3 7,39.8 28.1,39.8 25.8,0 26.3,-29.8 26.3,-51.5 0,-48 -25.2,-78.4 -45.7,-109.4 l -22.2,-33.9 c -16.4,-25.2 -33.4,-55 -33.4,-105.3 0,-43.3 22.8,-85.4 83.7,-85.4 60.3,0 69.6,38.6 69.6,70.8 v 73.2 h -49.7 V 107 c 0,-11.1 -1.8,-30.4 -21.7,-30.4 -26.3,0 -26.9,22.8 -26.9,42.1 0,42.1 17,67.3 36.3,96 l 29.3,43.3 c 25.2,36.9 36.3,70.2 36.3,101.8 0,24.6 -1.2,103 -81.9,103 -33.4,0 -50.9,-14 -60.3,-24.6 -17,-19.9 -18.1,-41.6 -18.1,-65.5 V 304 Z"
   id="path39" />
			<path
   d="M 2087.5,455 V 41.8 h 136.4 v 51.5 h -81.3 v 121.1 h 72.6 V 266 h -72 V 402.9 H 2224 V 455 Z"
   id="path40" />
			<path
   d="m 2444.5,41.8 c 45.1,0 56.2,19.3 56.2,61.4 V 191 c 0,55 -2.3,76.7 -55,76.7 h -54.4 V 455 H 2338 V 41.8 Z m -52.7,176.8 h 34.5 c 14.6,0 19.3,-4.1 19.3,-18.1 v -87.8 c 0,-15.2 -3.5,-20.5 -20.5,-20.5 h -33.4 v 126.4 z"
   id="path41" />
			<path
   d="m 2642.9,455 c -7,-38.6 -8.2,-47.4 -8.2,-86.6 V 331 c 0,-26.9 0,-66.1 -26.3,-66.1 h -25.7 V 455 h -54.4 V 41.8 h 89.5 c 51.5,0 73.7,8.8 73.7,80.2 v 51.5 c 0,67.9 -24,69.1 -49.7,72 38.6,1.8 47.4,22.8 47.4,73.7 v 54.4 c 0,46.8 1.2,55.6 10.5,81.3 h -56.8 z m -59.7,-235.8 h 27.5 c 23.4,0 26.9,-19.9 26.9,-45.6 v -41 c 0,-25.8 0,-41 -19.3,-41 h -35.1 z"
   id="path42" />
			<path
   d="m 2908,362.6 c 0,80.2 -43.3,96.6 -90.1,96.6 -46.8,0 -83.1,-19.3 -83.1,-96.6 V 146 c 0,-37.5 4.7,-107.1 89,-107.1 73.7,0 84.3,53.3 84.3,108.3 v 215.4 z m -53.9,-214.8 c 0,-43.3 -4.1,-61.4 -31.6,-61.4 -33.4,0 -33.4,29.3 -33.4,48.6 v 235.9 c 0,22.2 3.5,43.3 31.6,43.3 32.2,0 33.4,-25.7 33.4,-49.2 z"
   id="path43" />
			<path
   d="M 3003.6,455 V 253.9 h -29.4 v -26 c 6.8,-0.8 34,-3.4 40,-38.1 h 23 V 455 Z"
   id="path44" />
			<path
   d="m 3188.9,397.7 c 0,26.8 -3.8,37.3 -14.7,47.2 -11.3,9.8 -26.4,12.8 -40.7,12.8 -8.3,0 -41.9,-0.4 -51.3,-31.7 -2.6,-8.3 -2.6,-15.8 -2.6,-32.1 V 240 c 0,-23 6.4,-54.7 55.5,-54.7 49.4,0 53.9,32.4 53.9,56.6 v 155.8 z m -32.5,-158.5 c 0,-15.5 -2.3,-28.3 -22.3,-28.3 -16.2,0 -22.3,9.1 -22.3,23.8 v 170.1 c 0,14 2.3,25.3 22.3,25.3 14.7,0 22.3,-6.4 22.3,-24.1 z"
   id="path45" />
		</g>
		<path
   class="st4"
   d="m 737.6,7.1 80.2,80.2 C 735.6,92.9 670.7,161.4 670.7,245 670.7,332.1 741,402.7 828,403.1 L 737.7,493.4 494.5,250.3 Z m 24,238 c 0,-37.1 30.1,-67.2 67.2,-67.2 37.1,0 67.2,30.1 67.2,67.2 0,37.1 -30.1,67.2 -67.2,67.2 -37.1,-0.1 -67.2,-30.1 -67.2,-67.2 z"
   id="path46" />
	</g>
	<g
   class="st2"
   id="g61">
		<g
   class="st3"
   id="g60">
			<path
   class="st0"
   d="m 990.9,356.2 c 0,50.9 -16.4,104.2 -90.1,104.2 -81.9,0 -87.8,-65.5 -87.8,-98.3 V 154.8 c 0,-49.2 7.6,-117 92.5,-117 68.5,0 85.4,45.1 85.4,101.2 v 52.7 h -54.4 v -63.8 c 0,-17 -2.3,-42.7 -33.9,-42.7 -27.5,0 -34.5,21.1 -34.5,45.1 v 235.3 c 0,38 8.8,47.4 33.4,47.4 31.6,0 34.5,-24 34.5,-48.6 v -80.2 h 55 v 72 z"
   id="path47" />
			<path
   class="st0"
   d="m 1085.7,41.9 v 326.6 c 0,37.5 11.1,48 32.8,48 31,0 33.4,-24 33.4,-58.5 V 42 h 53.8 v 313 c 0,77.8 -32.8,106.5 -89,106.5 -63.8,0 -84.3,-41.6 -84.3,-97.1 V 41.9 Z"
   id="path48" />
			<path
   class="st0"
   d="m 1350.8,41.9 c 57.4,0 62.6,22.2 62.6,82.5 v 51.5 c 0,31 -1.8,57.4 -45.1,60.9 36.9,2.9 45.1,18.1 45.1,56.8 v 74.9 c 0,62.6 -5.9,86.6 -73.7,86.6 h -86.6 V 41.9 Z m -45,173.2 h 24 c 24.6,0 30.4,-7 30.4,-43.9 v -41 c 0,-24.6 -2.9,-39.2 -26.9,-39.2 h -27.5 z m 0,189 h 28.1 c 26.3,0 27.5,-3.5 27.5,-39.2 v -65.5 c 0,-24.6 -2.9,-39.2 -26.9,-39.2 h -28.7 z"
   id="path49" />
			<path
   class="st0"
   d="M 1580.2,455.1 1569.7,379 h -62 l -9.4,76.1 H 1445 l 58.5,-413.2 h 66.1 l 63.8,413.2 z m -43.9,-341.2 -22.8,214.8 h 49.2 z"
   id="path50" />
			<path
   class="st0"
   d="m 1711.9,304.1 v 75.5 c 0,26.3 7,39.8 28.1,39.8 25.8,0 26.3,-29.8 26.3,-51.5 0,-48 -25.2,-78.4 -45.7,-109.4 l -22.2,-33.9 c -16.4,-25.2 -33.4,-55 -33.4,-105.3 0,-43.3 22.8,-85.4 83.7,-85.4 60.3,0 69.6,38.6 69.6,70.8 v 73.1 h -49.7 V 107 c 0,-11.1 -1.8,-30.4 -21.7,-30.4 -26.3,0 -26.9,22.8 -26.9,42.1 0,42.1 17,67.3 36.3,96 l 29.3,43.3 c 25.2,36.9 36.3,70.2 36.3,101.8 0,24.6 -1.2,103 -81.9,103 -33.4,0 -50.9,-14 -60.3,-24.6 -17,-19.9 -18.1,-41.6 -18.1,-65.5 v -68.5 h 50.3 z"
   id="path51" />
			<path
   class="st0"
   d="M 1856.4,455.1 V 41.9 h 136.4 v 51.5 h -81.3 v 121.1 h 72.6 V 266 h -72 v 137 h 80.8 v 52.1 z"
   id="path52" />
			<path
   class="st0"
   d="M 2250.8,455.1 2240.3,379 h -62 l -9.4,76.1 h -53.3 l 58.5,-413.2 h 66.1 l 63.8,413.2 z m -43.9,-341.2 -22.8,214.8 h 49.2 z"
   id="path53" />
			<path
   class="st0"
   d="m 2457.4,455.1 c -7,-38.6 -8.2,-47.4 -8.2,-86.6 V 331 c 0,-26.9 0,-66.1 -26.3,-66.1 h -25.7 v 190.2 h -54.4 V 41.9 h 89.5 c 51.5,0 73.7,8.8 73.7,80.2 v 51.5 c 0,67.9 -24,69.1 -49.7,72 38.6,1.8 47.4,22.8 47.4,73.7 v 54.4 c 0,46.8 1.2,55.6 10.5,81.3 h -56.8 z m -59.7,-235.9 h 27.5 c 23.4,0 26.9,-19.9 26.9,-45.6 v -41 c 0,-25.8 0,-41 -19.3,-41 h -35.1 z"
   id="path54" />
			<path
   class="st0"
   d="m 2638.8,90.5 v 364.6 h -55.6 V 90.5 h -62.6 V 41.9 h 182.6 v 48.6 z"
   id="path55" />
			<path
   class="st0"
   d="M 2724.8,455.1 V 41.9 h 53.8 v 413.2 z"
   id="path56" />
			<path
   class="st0"
   d="m 2870,304.1 v 75.5 c 0,26.3 7,39.8 28.1,39.8 25.8,0 26.3,-29.8 26.3,-51.5 0,-48 -25.2,-78.4 -45.7,-109.4 l -22.2,-33.9 c -16.4,-25.2 -33.4,-55 -33.4,-105.3 0,-43.3 22.8,-85.4 83.7,-85.4 60.3,0 69.6,38.6 69.6,70.8 v 73.1 h -49.7 V 107 c 0,-11.1 -1.8,-30.4 -21.7,-30.4 -26.3,0 -26.9,22.8 -26.9,42.1 0,42.1 17,67.3 36.3,96 l 29.3,43.3 c 25.2,36.9 36.3,70.2 36.3,101.8 0,24.6 -1.2,103 -81.9,103 -33.4,0 -50.9,-14 -60.3,-24.6 -17,-19.9 -18.1,-41.6 -18.1,-65.5 v -68.5 h 50.3 z"
   id="path57" />
			<path
   class="st0"
   d="m 3108.7,90.5 v 364.6 h -55.6 V 90.5 h -62.6 V 41.9 h 182.6 v 48.6 z"
   id="path58" />
			<path
   class="st0"
   d="M 3216.1,455.1 V 254 h -29.4 v -26 c 6.8,-0.8 34,-3.4 40,-38.1 h 23 v 265.2 z"
   id="path59" />
			<path
   class="st0"
   d="m 3401.3,397.7 c 0,26.8 -3.8,37.3 -14.7,47.2 -11.3,9.8 -26.4,12.8 -40.7,12.8 -8.3,0 -41.9,-0.4 -51.3,-31.7 -2.6,-8.3 -2.6,-15.8 -2.6,-32.1 V 240 c 0,-23 6.4,-54.7 55.5,-54.7 49.4,0 53.9,32.4 53.9,56.6 v 155.8 z m -32.4,-158.4 c 0,-15.5 -2.3,-28.3 -22.3,-28.3 -16.2,0 -22.3,9.1 -22.3,23.8 v 170.1 c 0,14 2.3,25.3 22.3,25.3 14.7,0 22.3,-6.4 22.3,-24.1 z"
   id="path60" />
		</g>
		<path
   class="st5"
   d="m 525.2,7.1 80.2,80.2 c -82.2,5.6 -147.1,74.1 -147.1,157.7 0,87.1 70.3,157.7 157.3,158.1 L 525.3,493.4 282,250.3 Z m 23.9,238 c 0,-37.1 30.1,-67.2 67.2,-67.2 37.1,0 67.2,30.1 67.2,67.2 0,37.1 -30.1,67.2 -67.2,67.2 -37.1,-0.1 -67.2,-30.1 -67.2,-67.2 z"
   id="path61" />
	</g>
	<g
   class="st2"
   id="g76">
		<g
   class="st3"
   id="g75">
			<path
   d="m 990.9,356.2 c 0,50.9 -16.4,104.2 -90.1,104.2 -81.9,0 -87.8,-65.5 -87.8,-98.3 V 154.8 c 0,-49.2 7.6,-117 92.5,-117 68.5,0 85.4,45.1 85.4,101.2 v 52.7 h -54.4 v -63.8 c 0,-17 -2.3,-42.7 -33.9,-42.7 -27.5,0 -34.5,21.1 -34.5,45.1 v 235.3 c 0,38 8.8,47.4 33.4,47.4 31.6,0 34.5,-24 34.5,-48.6 v -80.2 h 55 v 72 z"
   id="path62" />
			<path
   d="m 1085.7,41.9 v 326.6 c 0,37.5 11.1,48 32.8,48 31,0 33.4,-24 33.4,-58.5 V 42 h 53.8 v 313 c 0,77.8 -32.8,106.5 -89,106.5 -63.8,0 -84.3,-41.6 -84.3,-97.1 V 41.9 Z"
   id="path63" />
			<path
   d="m 1350.8,41.9 c 57.4,0 62.6,22.2 62.6,82.5 v 51.5 c 0,31 -1.8,57.4 -45.1,60.9 36.9,2.9 45.1,18.1 45.1,56.8 v 74.9 c 0,62.6 -5.9,86.6 -73.7,86.6 h -86.6 V 41.9 Z m -45,173.2 h 24 c 24.6,0 30.4,-7 30.4,-43.9 v -41 c 0,-24.6 -2.9,-39.2 -26.9,-39.2 h -27.5 z m 0,189 h 28.1 c 26.3,0 27.5,-3.5 27.5,-39.2 v -65.5 c 0,-24.6 -2.9,-39.2 -26.9,-39.2 h -28.7 z"
   id="path64" />
			<path
   d="M 1580.2,455.1 1569.7,379 h -62 l -9.4,76.1 H 1445 l 58.5,-413.2 h 66.1 l 63.8,413.2 z m -43.9,-341.2 -22.8,214.8 h 49.2 z"
   id="path65" />
			<path
   d="m 1711.9,304.1 v 75.5 c 0,26.3 7,39.8 28.1,39.8 25.8,0 26.3,-29.8 26.3,-51.5 0,-48 -25.2,-78.4 -45.7,-109.4 l -22.2,-33.9 c -16.4,-25.2 -33.4,-55 -33.4,-105.3 0,-43.3 22.8,-85.4 83.7,-85.4 60.3,0 69.6,38.6 69.6,70.8 v 73.1 h -49.7 V 107 c 0,-11.1 -1.8,-30.4 -21.7,-30.4 -26.3,0 -26.9,22.8 -26.9,42.1 0,42.1 17,67.3 36.3,96 l 29.3,43.3 c 25.2,36.9 36.3,70.2 36.3,101.8 0,24.6 -1.2,103 -81.9,103 -33.4,0 -50.9,-14 -60.3,-24.6 -17,-19.9 -18.1,-41.6 -18.1,-65.5 v -68.5 h 50.3 z"
   id="path66" />
			<path
   d="M 1856.4,455.1 V 41.9 h 136.4 v 51.5 h -81.3 v 121.1 h 72.6 V 266 h -72 v 137 h 80.8 v 52.1 z"
   id="path67" />
			<path
   d="M 2250.8,455.1 2240.3,379 h -62 l -9.4,76.1 h -53.3 l 58.5,-413.2 h 66.1 l 63.8,413.2 z m -43.9,-341.2 -22.8,214.8 h 49.2 z"
   id="path68" />
			<path
   d="m 2457.4,455.1 c -7,-38.6 -8.2,-47.4 -8.2,-86.6 V 331 c 0,-26.9 0,-66.1 -26.3,-66.1 h -25.7 v 190.2 h -54.4 V 41.9 h 89.5 c 51.5,0 73.7,8.8 73.7,80.2 v 51.5 c 0,67.9 -24,69.1 -49.7,72 38.6,1.8 47.4,22.8 47.4,73.7 v 54.4 c 0,46.8 1.2,55.6 10.5,81.3 h -56.8 z m -59.7,-235.9 h 27.5 c 23.4,0 26.9,-19.9 26.9,-45.6 v -41 c 0,-25.8 0,-41 -19.3,-41 h -35.1 z"
   id="path69" />
			<path
   d="m 2638.8,90.5 v 364.6 h -55.6 V 90.5 h -62.6 V 41.9 h 182.6 v 48.6 z"
   id="path70" />
			<path
   d="M 2724.8,455.1 V 41.9 h 53.8 v 413.2 z"
   id="path71" />
			<path
   d="m 2870,304.1 v 75.5 c 0,26.3 7,39.8 28.1,39.8 25.8,0 26.3,-29.8 26.3,-51.5 0,-48 -25.2,-78.4 -45.7,-109.4 l -22.2,-33.9 c -16.4,-25.2 -33.4,-55 -33.4,-105.3 0,-43.3 22.8,-85.4 83.7,-85.4 60.3,0 69.6,38.6 69.6,70.8 v 73.1 h -49.7 V 107 c 0,-11.1 -1.8,-30.4 -21.7,-30.4 -26.3,0 -26.9,22.8 -26.9,42.1 0,42.1 17,67.3 36.3,96 l 29.3,43.3 c 25.2,36.9 36.3,70.2 36.3,101.8 0,24.6 -1.2,103 -81.9,103 -33.4,0 -50.9,-14 -60.3,-24.6 -17,-19.9 -18.1,-41.6 -18.1,-65.5 v -68.5 h 50.3 z"
   id="path72" />
			<path
   d="m 3108.7,90.5 v 364.6 h -55.6 V 90.5 h -62.6 V 41.9 h 182.6 v 48.6 z"
   id="path73" />
			<path
   d="M 3216.1,455.1 V 254 h -29.4 v -26 c 6.8,-0.8 34,-3.4 40,-38.1 h 23 v 265.2 z"
   id="path74" />
			<path
   d="m 3401.3,397.7 c 0,26.8 -3.8,37.3 -14.7,47.2 -11.3,9.8 -26.4,12.8 -40.7,12.8 -8.3,0 -41.9,-0.4 -51.3,-31.7 -2.6,-8.3 -2.6,-15.8 -2.6,-32.1 V 240 c 0,-23 6.4,-54.7 55.5,-54.7 49.4,0 53.9,32.4 53.9,56.6 v 155.8 z m -32.4,-158.4 c 0,-15.5 -2.3,-28.3 -22.3,-28.3 -16.2,0 -22.3,9.1 -22.3,23.8 v 170.1 c 0,14 2.3,25.3 22.3,25.3 14.7,0 22.3,-6.4 22.3,-24.1 z"
   id="path75" />
		</g>
		<path
   class="st4"
   d="m 525.2,7.1 80.2,80.2 c -82.2,5.6 -147.1,74.1 -147.1,157.7 0,87.1 70.3,157.7 157.3,158.1 L 525.3,493.4 282,250.3 Z m 23.9,238 c 0,-37.1 30.1,-67.2 67.2,-67.2 37.1,0 67.2,30.1 67.2,67.2 0,37.1 -30.1,67.2 -67.2,67.2 -37.1,-0.1 -67.2,-30.1 -67.2,-67.2 z"
   id="path76" />
	</g>
	<g
   class="st2"
   id="g94">
		<g
   class="st3"
   id="g93">
			<g
   id="g92">
				<path
   class="st0"
   d="m 727.6,356.2 c 0,50.9 -16.4,104.2 -90.1,104.2 -81.9,0 -87.8,-65.5 -87.8,-98.3 V 154.8 c 0,-49.2 7.6,-117 92.5,-117 68.5,0 85.4,45.1 85.4,101.2 v 52.7 h -54.4 v -63.8 c 0,-17 -2.3,-42.7 -33.9,-42.7 -27.5,0 -34.5,21.1 -34.5,45.1 v 235.3 c 0,38 8.8,47.4 33.4,47.4 31.6,0 34.5,-24 34.5,-48.6 v -80.2 h 55 v 72 z"
   id="path77" />
				<path
   class="st0"
   d="m 822.4,41.9 v 326.6 c 0,37.5 11.1,48 32.8,48 31,0 33.4,-24 33.4,-58.5 V 42 h 53.8 v 313 c 0,77.8 -32.8,106.5 -89,106.5 -63.8,0 -84.3,-41.6 -84.3,-97.1 V 41.9 Z"
   id="path78" />
				<path
   class="st0"
   d="m 1087.5,41.9 c 57.4,0 62.6,22.2 62.6,82.5 v 51.5 c 0,31 -1.8,57.4 -45.1,60.9 36.9,2.9 45.1,18.1 45.1,56.8 v 74.9 c 0,62.6 -5.9,86.6 -73.7,86.6 H 989.8 V 41.9 Z m -45.1,173.2 h 24 c 24.6,0 30.4,-7 30.4,-43.9 v -41 c 0,-24.6 -2.9,-39.2 -26.9,-39.2 h -27.5 z m 0,189 h 28.1 c 26.3,0 27.5,-3.5 27.5,-39.2 v -65.5 c 0,-24.6 -2.9,-39.2 -26.9,-39.2 h -28.7 z"
   id="path79" />
				<path
   class="st0"
   d="M 1322.7,455.1 1312.2,379 h -62 l -9.4,76.1 h -53.3 L 1246,41.9 h 66.1 l 63.8,413.2 z M 1278.8,113.9 1256,328.6 h 49.2 z"
   id="path80" />
				<path
   class="st0"
   d="m 1448.5,304.1 v 75.5 c 0,26.3 7,39.8 28.1,39.8 25.8,0 26.3,-29.8 26.3,-51.5 0,-48 -25.2,-78.4 -45.7,-109.4 L 1435,224.6 c -16.4,-25.2 -33.4,-55 -33.4,-105.3 0,-43.3 22.8,-85.4 83.7,-85.4 60.3,0 69.6,38.6 69.6,70.8 v 73.2 h -49.7 v -70.8 c 0,-11.1 -1.8,-30.4 -21.7,-30.4 -26.3,0 -26.9,22.8 -26.9,42.1 0,42.1 17,67.3 36.3,96 l 29.3,43.3 c 25.2,36.9 36.3,70.2 36.3,101.8 0,24.6 -1.2,103 -81.9,103 -33.4,0 -50.9,-14 -60.3,-24.6 -17,-19.9 -18.1,-41.6 -18.1,-65.5 v -68.5 h 50.3 z"
   id="path81" />
				<path
   class="st0"
   d="M 1587.2,455.1 V 41.9 h 136.4 v 51.5 h -81.3 v 121.1 h 72.6 V 266 h -72 v 137 h 80.8 v 52.1 z"
   id="path82" />
				<path
   class="st0"
   d="M 1844.1,455.1 V 41.9 h 136.4 v 51.5 h -81.3 v 121.1 h 72.6 V 266 h -72 v 137 h 80.8 v 52.1 z"
   id="path83" />
				<path
   class="st0"
   d="M 2022.6,455.1 V 41.9 h 54.4 v 362.3 h 90.1 v 50.9 z"
   id="path84" />
				<path
   class="st0"
   d="M 2193.5,455.1 V 41.9 h 136.4 v 51.5 h -81.3 v 121.1 h 72.6 V 266 h -72 v 137 h 80.8 v 52.1 z"
   id="path85" />
				<path
   class="st0"
   d="m 2561.6,455.1 c 0,0 0,-263.4 -2.3,-332.4 -11.1,76.7 -45.1,332.4 -45.1,332.4 H 2468 l -46.8,-332.4 v 332.4 h -50.9 V 41.9 h 77.8 l 43.3,273.9 40.4,-273.9 h 80.2 v 413.2 z"
   id="path86" />
				<path
   class="st0"
   d="M 2668.6,455.1 V 41.9 H 2805 v 51.5 h -81.3 v 121.1 h 72.6 V 266 h -72 v 137 h 80.8 v 52.1 z"
   id="path87" />
				<path
   class="st0"
   d="M 2957.2,455.1 2889.9,152 c 0.6,58.5 5.9,303.1 5.9,303.1 h -50.9 V 41.9 h 58.5 l 66.1,281.5 c 0,0 -2.9,-255.7 -3.5,-281.5 h 51.5 v 413.2 z"
   id="path88" />
				<path
   class="st0"
   d="m 3159,90.5 v 364.6 h -55.6 V 90.5 h -62.6 V 41.9 h 182.6 v 48.6 z"
   id="path89" />
				<path
   class="st0"
   d="m 3298.9,304.1 v 75.5 c 0,26.3 7,39.8 28.1,39.8 25.8,0 26.3,-29.8 26.3,-51.5 0,-48 -25.2,-78.4 -45.7,-109.4 l -22.2,-33.9 c -16.4,-25.2 -33.4,-55 -33.4,-105.3 0,-43.3 22.8,-85.4 83.7,-85.4 60.3,0 69.6,38.6 69.6,70.8 v 73.2 h -49.7 v -70.8 c 0,-11.1 -1.8,-30.4 -21.7,-30.4 -26.3,0 -26.9,22.8 -26.9,42.1 0,42.1 17,67.3 36.3,96 l 29.3,43.3 c 25.2,36.9 36.3,70.2 36.3,101.8 0,24.6 -1.2,103 -81.9,103 -33.4,0 -50.9,-14 -60.3,-24.6 -17,-19.9 -18.1,-41.6 -18.1,-65.5 v -68.5 h 50.3 z"
   id="path90" />
				<path
   class="st0"
   d="M 3479.4,455.1 V 254 H 3450 v -26 c 6.8,-0.8 34,-3.4 40,-38.1 h 23 v 265.2 z"
   id="path91" />
				<path
   class="st0"
   d="m 3664.7,397.7 c 0,26.8 -3.8,37.3 -14.7,47.2 -11.3,9.8 -26.4,12.8 -40.7,12.8 -8.3,0 -41.9,-0.4 -51.3,-31.7 -2.6,-8.3 -2.6,-15.8 -2.6,-32.1 V 240 c 0,-23 6.4,-54.7 55.5,-54.7 49.4,0 53.9,32.4 53.9,56.6 v 155.8 z m -32.5,-158.4 c 0,-15.5 -2.3,-28.3 -22.3,-28.3 -16.2,0 -22.3,9.1 -22.3,23.8 v 170.1 c 0,14 2.3,25.3 22.3,25.3 14.7,0 22.3,-6.4 22.3,-24.1 z"
   id="path92" />
			</g>
			<path
   class="st1"
   d="M 261.8,7.1 342,87.3 c -82.2,5.6 -147.1,74.1 -147.1,157.7 0,87.1 70.3,157.7 157.3,158.1 L 261.9,493.4 18.7,250.3 Z m 24,238 c 0,-37.1 30.1,-67.2 67.2,-67.2 37.1,0 67.2,30.1 67.2,67.2 0,37.1 -30.1,67.2 -67.2,67.2 -37.1,-0.1 -67.2,-30.1 -67.2,-67.2 z"
   id="path93" />
		</g>
	</g>
	<g
   class="st2"
   id="g111">
		<g
   class="st3"
   id="g110">
			<g
   id="g109">
				<path
   d="m 727.6,356.2 c 0,50.9 -16.4,104.2 -90.1,104.2 -81.9,0 -87.8,-65.5 -87.8,-98.3 V 154.8 c 0,-49.2 7.6,-117 92.5,-117 68.5,0 85.4,45.1 85.4,101.2 v 52.7 h -54.4 v -63.8 c 0,-17 -2.3,-42.7 -33.9,-42.7 -27.5,0 -34.5,21.1 -34.5,45.1 v 235.3 c 0,38 8.8,47.4 33.4,47.4 31.6,0 34.5,-24 34.5,-48.6 v -80.2 h 55 v 72 z"
   id="path94" />
				<path
   d="m 822.4,41.9 v 326.6 c 0,37.5 11.1,48 32.8,48 31,0 33.4,-24 33.4,-58.5 V 42 h 53.8 v 313 c 0,77.8 -32.8,106.5 -89,106.5 -63.8,0 -84.3,-41.6 -84.3,-97.1 V 41.9 Z"
   id="path95" />
				<path
   d="m 1087.5,41.9 c 57.4,0 62.6,22.2 62.6,82.5 v 51.5 c 0,31 -1.8,57.4 -45.1,60.9 36.9,2.9 45.1,18.1 45.1,56.8 v 74.9 c 0,62.6 -5.9,86.6 -73.7,86.6 H 989.8 V 41.9 Z m -45.1,173.2 h 24 c 24.6,0 30.4,-7 30.4,-43.9 v -41 c 0,-24.6 -2.9,-39.2 -26.9,-39.2 h -27.5 z m 0,189 h 28.1 c 26.3,0 27.5,-3.5 27.5,-39.2 v -65.5 c 0,-24.6 -2.9,-39.2 -26.9,-39.2 h -28.7 z"
   id="path96" />
				<path
   d="M 1322.7,455.1 1312.2,379 h -62 l -9.4,76.1 h -53.3 L 1246,41.9 h 66.1 l 63.8,413.2 z M 1278.8,113.9 1256,328.6 h 49.2 z"
   id="path97" />
				<path
   d="m 1448.5,304.1 v 75.5 c 0,26.3 7,39.8 28.1,39.8 25.8,0 26.3,-29.8 26.3,-51.5 0,-48 -25.2,-78.4 -45.7,-109.4 L 1435,224.6 c -16.4,-25.2 -33.4,-55 -33.4,-105.3 0,-43.3 22.8,-85.4 83.7,-85.4 60.3,0 69.6,38.6 69.6,70.8 v 73.2 h -49.7 v -70.8 c 0,-11.1 -1.8,-30.4 -21.7,-30.4 -26.3,0 -26.9,22.8 -26.9,42.1 0,42.1 17,67.3 36.3,96 l 29.3,43.3 c 25.2,36.9 36.3,70.2 36.3,101.8 0,24.6 -1.2,103 -81.9,103 -33.4,0 -50.9,-14 -60.3,-24.6 -17,-19.9 -18.1,-41.6 -18.1,-65.5 v -68.5 h 50.3 z"
   id="path98" />
				<path
   d="M 1587.2,455.1 V 41.9 h 136.4 v 51.5 h -81.3 v 121.1 h 72.6 V 266 h -72 v 137 h 80.8 v 52.1 z"
   id="path99" />
				<path
   d="M 1844.1,455.1 V 41.9 h 136.4 v 51.5 h -81.3 v 121.1 h 72.6 V 266 h -72 v 137 h 80.8 v 52.1 z"
   id="path100" />
				<path
   d="M 2022.6,455.1 V 41.9 h 54.4 v 362.3 h 90.1 v 50.9 z"
   id="path101" />
				<path
   d="M 2193.5,455.1 V 41.9 h 136.4 v 51.5 h -81.3 v 121.1 h 72.6 V 266 h -72 v 137 h 80.8 v 52.1 z"
   id="path102" />
				<path
   d="m 2561.6,455.1 c 0,0 0,-263.4 -2.3,-332.4 -11.1,76.7 -45.1,332.4 -45.1,332.4 H 2468 l -46.8,-332.4 v 332.4 h -50.9 V 41.9 h 77.8 l 43.3,273.9 40.4,-273.9 h 80.2 v 413.2 z"
   id="path103" />
				<path
   d="M 2668.6,455.1 V 41.9 H 2805 v 51.5 h -81.3 v 121.1 h 72.6 V 266 h -72 v 137 h 80.8 v 52.1 z"
   id="path104" />
				<path
   d="M 2957.2,455.1 2889.9,152 c 0.6,58.5 5.9,303.1 5.9,303.1 h -50.9 V 41.9 h 58.5 l 66.1,281.5 c 0,0 -2.9,-255.7 -3.5,-281.5 h 51.5 v 413.2 z"
   id="path105" />
				<path
   d="m 3159,90.5 v 364.6 h -55.6 V 90.5 h -62.6 V 41.9 h 182.6 v 48.6 z"
   id="path106" />
				<path
   d="m 3298.9,304.1 v 75.5 c 0,26.3 7,39.8 28.1,39.8 25.8,0 26.3,-29.8 26.3,-51.5 0,-48 -25.2,-78.4 -45.7,-109.4 l -22.2,-33.9 c -16.4,-25.2 -33.4,-55 -33.4,-105.3 0,-43.3 22.8,-85.4 83.7,-85.4 60.3,0 69.6,38.6 69.6,70.8 v 73.2 h -49.7 v -70.8 c 0,-11.1 -1.8,-30.4 -21.7,-30.4 -26.3,0 -26.9,22.8 -26.9,42.1 0,42.1 17,67.3 36.3,96 l 29.3,43.3 c 25.2,36.9 36.3,70.2 36.3,101.8 0,24.6 -1.2,103 -81.9,103 -33.4,0 -50.9,-14 -60.3,-24.6 -17,-19.9 -18.1,-41.6 -18.1,-65.5 v -68.5 h 50.3 z"
   id="path107" />
				<path
   d="M 3479.4,455.1 V 254 H 3450 v -26 c 6.8,-0.8 34,-3.4 40,-38.1 h 23 v 265.2 z"
   id="path108" />
				<path
   d="m 3664.7,397.7 c 0,26.8 -3.8,37.3 -14.7,47.2 -11.3,9.8 -26.4,12.8 -40.7,12.8 -8.3,0 -41.9,-0.4 -51.3,-31.7 -2.6,-8.3 -2.6,-15.8 -2.6,-32.1 V 240 c 0,-23 6.4,-54.7 55.5,-54.7 49.4,0 53.9,32.4 53.9,56.6 v 155.8 z m -32.5,-158.4 c 0,-15.5 -2.3,-28.3 -22.3,-28.3 -16.2,0 -22.3,9.1 -22.3,23.8 v 170.1 c 0,14 2.3,25.3 22.3,25.3 14.7,0 22.3,-6.4 22.3,-24.1 z"
   id="path109" />
			</g>
			<path
   class="st6"
   d="M 261.8,7.1 342,87.3 c -82.2,5.6 -147.1,74.1 -147.1,157.7 0,87.1 70.3,157.7 157.3,158.1 L 261.9,493.4 18.7,250.3 Z m 24,238 c 0,-37.1 30.1,-67.2 67.2,-67.2 37.1,0 67.2,30.1 67.2,67.2 0,37.1 -30.1,67.2 -67.2,67.2 -37.1,-0.1 -67.2,-30.1 -67.2,-67.2 z"
   id="path110" />
		</g>
	</g>
	<g
   class="st2"
   id="g121">
		<g
   class="st3"
   id="g120">
			<path
   class="st0"
   d="m 1359,356.1 c 0,50.9 -16.4,104.2 -90.1,104.2 -81.9,0 -87.8,-65.5 -87.8,-98.3 V 154.8 c 0,-49.2 7.6,-117 92.5,-117 68.5,0 85.4,45.1 85.4,101.2 v 52.7 h -54.4 v -63.8 c 0,-17 -2.3,-42.7 -33.9,-42.7 -27.5,0 -34.5,21.1 -34.5,45.1 v 235.3 c 0,38 8.8,47.4 33.4,47.4 31.6,0 34.5,-24 34.5,-48.6 v -80.2 h 55 v 71.9 z"
   id="path111" />
			<path
   class="st0"
   d="m 1453.8,41.9 v 326.6 c 0,37.5 11.1,48 32.8,48 31,0 33.4,-24 33.4,-58.5 V 42 h 53.8 v 313 c 0,77.8 -32.8,106.5 -89,106.5 -63.8,0 -84.3,-41.6 -84.3,-97.1 V 41.9 Z"
   id="path112" />
			<path
   class="st0"
   d="m 1718.9,41.9 c 57.4,0 62.6,22.2 62.6,82.5 v 51.5 c 0,31 -1.8,57.4 -45.1,60.9 36.9,2.9 45.1,18.1 45.1,56.8 v 74.9 c 0,62.6 -5.9,86.6 -73.7,86.6 h -86.6 V 41.9 Z m -45.1,173.2 h 24 c 24.6,0 30.4,-7 30.4,-43.9 v -41 c 0,-24.6 -2.9,-39.2 -26.9,-39.2 h -27.5 z m 0,189 h 28.1 c 26.3,0 27.5,-3.5 27.5,-39.2 v -65.5 c 0,-24.6 -2.9,-39.2 -26.9,-39.2 h -28.7 z"
   id="path113" />
			<path
   class="st0"
   d="m 1954.1,455 -10.5,-76.1 h -62 l -9.4,76.1 H 1819 l 58.5,-413.2 h 66.1 l 63.8,413.2 z m -43.9,-341.1 -22.8,214.8 h 49.2 z"
   id="path114" />
			<path
   class="st0"
   d="m 2080,304.1 v 75.5 c 0,26.3 7,39.8 28.1,39.8 25.8,0 26.3,-29.8 26.3,-51.5 0,-48 -25.2,-78.4 -45.7,-109.4 l -22.2,-33.9 c -16.4,-25.2 -33.4,-55 -33.4,-105.3 0,-43.3 22.8,-85.4 83.7,-85.4 60.3,0 69.6,38.6 69.6,70.8 v 73.2 h -49.7 v -70.8 c 0,-11.1 -1.8,-30.4 -21.7,-30.4 -26.3,0 -26.9,22.8 -26.9,42.1 0,42.1 17,67.3 36.3,96 l 29.3,43.3 c 25.2,36.9 36.3,70.2 36.3,101.8 0,24.6 -1.2,103 -81.9,103 -33.4,0 -50.9,-14 -60.3,-24.6 -17,-19.9 -18.1,-41.6 -18.1,-65.5 v -68.5 h 50.3 z"
   id="path115" />
			<path
   class="st0"
   d="M 2218.6,455 V 41.9 H 2355 v 51.5 h -81.3 v 121.1 h 72.6 V 266 h -72 v 137 h 80.8 v 52 z"
   id="path116" />
			<path
   class="st0"
   d="M 2476.1,455 V 41.9 h 54.4 v 362.3 h 90.1 V 455 Z"
   id="path117" />
			<path
   class="st0"
   d="M 2638.2,455 V 41.9 h 136.4 v 51.5 h -81.3 v 121.1 h 72.6 V 266 h -72 v 137 h 80.8 v 52 z"
   id="path118" />
			<path
   class="st0"
   d="M 2848,455 V 254 h -29.4 v -26 c 6.8,-0.8 34,-3.4 40,-38.1 h 23 V 455 Z"
   id="path119" />
			<path
   class="st0"
   d="m 3033.2,397.7 c 0,26.8 -3.8,37.3 -14.7,47.2 -11.3,9.8 -26.4,12.8 -40.7,12.8 -8.3,0 -41.9,-0.4 -51.3,-31.7 -2.6,-8.3 -2.6,-15.8 -2.6,-32.1 V 240 c 0,-23 6.4,-54.7 55.5,-54.7 49.4,0 53.9,32.4 53.9,56.6 v 155.8 z m -32.4,-158.4 c 0,-15.5 -2.3,-28.3 -22.3,-28.3 -16.2,0 -22.3,9.1 -22.3,23.8 v 170.1 c 0,14 2.3,25.3 22.3,25.3 14.7,0 22.3,-6.4 22.3,-24.1 z"
   id="path120" />
		</g>
		<path
   class="st5"
   d="m 893.2,7.1 80.2,80.2 c -82.2,5.6 -147.1,74.1 -147.1,157.7 0,87.1 70.3,157.7 157.3,158.1 L 893.3,493.4 650.1,250.3 Z m 24,238 c 0,-37.1 30.1,-67.2 67.2,-67.2 37.1,0 67.2,30.1 67.2,67.2 0,37.1 -30.1,67.2 -67.2,67.2 -37.1,-0.1 -67.2,-30.1 -67.2,-67.2 z"
   id="path121" />
	</g>
	<g
   class="st2"
   id="g132">
		<g
   class="st3"
   id="g131">
			<path
   d="m 1359,356.1 c 0,50.9 -16.4,104.2 -90.1,104.2 -81.9,0 -87.8,-65.5 -87.8,-98.3 V 154.8 c 0,-49.2 7.6,-117 92.5,-117 68.5,0 85.4,45.1 85.4,101.2 v 52.7 h -54.4 v -63.8 c 0,-17 -2.3,-42.7 -33.9,-42.7 -27.5,0 -34.5,21.1 -34.5,45.1 v 235.3 c 0,38 8.8,47.4 33.4,47.4 31.6,0 34.5,-24 34.5,-48.6 v -80.2 h 55 v 71.9 z"
   id="path122" />
			<path
   d="m 1453.8,41.9 v 326.6 c 0,37.5 11.1,48 32.8,48 31,0 33.4,-24 33.4,-58.5 V 42 h 53.8 v 313 c 0,77.8 -32.8,106.5 -89,106.5 -63.8,0 -84.3,-41.6 -84.3,-97.1 V 41.9 Z"
   id="path123" />
			<path
   d="m 1718.9,41.9 c 57.4,0 62.6,22.2 62.6,82.5 v 51.5 c 0,31 -1.8,57.4 -45.1,60.9 36.9,2.9 45.1,18.1 45.1,56.8 v 74.9 c 0,62.6 -5.9,86.6 -73.7,86.6 h -86.6 V 41.9 Z m -45.1,173.2 h 24 c 24.6,0 30.4,-7 30.4,-43.9 v -41 c 0,-24.6 -2.9,-39.2 -26.9,-39.2 h -27.5 z m 0,189 h 28.1 c 26.3,0 27.5,-3.5 27.5,-39.2 v -65.5 c 0,-24.6 -2.9,-39.2 -26.9,-39.2 h -28.7 z"
   id="path124" />
			<path
   d="m 1954.1,455 -10.5,-76.1 h -62 l -9.4,76.1 H 1819 l 58.5,-413.2 h 66.1 l 63.8,413.2 z m -43.9,-341.1 -22.8,214.8 h 49.2 z"
   id="path125" />
			<path
   d="m 2080,304.1 v 75.5 c 0,26.3 7,39.8 28.1,39.8 25.8,0 26.3,-29.8 26.3,-51.5 0,-48 -25.2,-78.4 -45.7,-109.4 l -22.2,-33.9 c -16.4,-25.2 -33.4,-55 -33.4,-105.3 0,-43.3 22.8,-85.4 83.7,-85.4 60.3,0 69.6,38.6 69.6,70.8 v 73.2 h -49.7 v -70.8 c 0,-11.1 -1.8,-30.4 -21.7,-30.4 -26.3,0 -26.9,22.8 -26.9,42.1 0,42.1 17,67.3 36.3,96 l 29.3,43.3 c 25.2,36.9 36.3,70.2 36.3,101.8 0,24.6 -1.2,103 -81.9,103 -33.4,0 -50.9,-14 -60.3,-24.6 -17,-19.9 -18.1,-41.6 -18.1,-65.5 v -68.5 h 50.3 z"
   id="path126" />
			<path
   d="M 2218.6,455 V 41.9 H 2355 v 51.5 h -81.3 v 121.1 h 72.6 V 266 h -72 v 137 h 80.8 v 52 z"
   id="path127" />
			<path
   d="M 2476.1,455 V 41.9 h 54.4 v 362.3 h 90.1 V 455 Z"
   id="path128" />
			<path
   d="M 2638.2,455 V 41.9 h 136.4 v 51.5 h -81.3 v 121.1 h 72.6 V 266 h -72 v 137 h 80.8 v 52 z"
   id="path129" />
			<path
   d="M 2848,455 V 254 h -29.4 v -26 c 6.8,-0.8 34,-3.4 40,-38.1 h 23 V 455 Z"
   id="path130" />
			<path
   d="m 3033.2,397.7 c 0,26.8 -3.8,37.3 -14.7,47.2 -11.3,9.8 -26.4,12.8 -40.7,12.8 -8.3,0 -41.9,-0.4 -51.3,-31.7 -2.6,-8.3 -2.6,-15.8 -2.6,-32.1 V 240 c 0,-23 6.4,-54.7 55.5,-54.7 49.4,0 53.9,32.4 53.9,56.6 v 155.8 z m -32.4,-158.4 c 0,-15.5 -2.3,-28.3 -22.3,-28.3 -16.2,0 -22.3,9.1 -22.3,23.8 v 170.1 c 0,14 2.3,25.3 22.3,25.3 14.7,0 22.3,-6.4 22.3,-24.1 z"
   id="path131" />
		</g>
		<path
   class="st4"
   d="m 893.2,7.1 80.2,80.2 c -82.2,5.6 -147.1,74.1 -147.1,157.7 0,87.1 70.3,157.7 157.3,158.1 L 893.3,493.4 650.1,250.3 Z m 24,238 c 0,-37.1 30.1,-67.2 67.2,-67.2 37.1,0 67.2,30.1 67.2,67.2 0,37.1 -30.1,67.2 -67.2,67.2 -37.1,-0.1 -67.2,-30.1 -67.2,-67.2 z"
   id="path132" />
	</g>
	<g
   class="st2"
   id="g143">
		<g
   class="st3"
   id="g142">
			<path
   class="st0"
   d="m 1366.3,356.1 c 0,50.9 -16.4,104.2 -90.1,104.2 -81.9,0 -87.8,-65.5 -87.8,-98.3 V 154.8 c 0,-49.2 7.6,-117 92.5,-117 68.5,0 85.4,45.1 85.4,101.2 v 52.7 h -54.4 v -63.8 c 0,-17 -2.3,-42.7 -33.9,-42.7 -27.5,0 -34.5,21.1 -34.5,45.1 v 235.3 c 0,38 8.8,47.4 33.4,47.4 31.6,0 34.5,-24 34.5,-48.6 v -80.2 h 55 v 71.9 z"
   id="path133" />
			<path
   class="st0"
   d="m 1461.1,41.9 v 326.6 c 0,37.5 11.1,48 32.8,48 31,0 33.4,-24 33.4,-58.5 V 42 h 53.8 v 313 c 0,77.8 -32.8,106.5 -89,106.5 -63.8,0 -84.3,-41.6 -84.3,-97.1 V 41.9 Z"
   id="path134" />
			<path
   class="st0"
   d="m 1726.2,41.9 c 57.4,0 62.6,22.2 62.6,82.5 v 51.5 c 0,31 -1.8,57.4 -45.1,60.9 36.9,2.9 45.1,18.1 45.1,56.8 v 74.9 c 0,62.6 -5.9,86.6 -73.7,86.6 h -86.6 V 41.9 Z m -45.1,173.2 h 24 c 24.6,0 30.4,-7 30.4,-43.9 v -41 c 0,-24.6 -2.9,-39.2 -26.9,-39.2 h -27.5 z m 0,189 h 28.1 c 26.3,0 27.5,-3.5 27.5,-39.2 v -65.5 c 0,-24.6 -2.9,-39.2 -26.9,-39.2 h -28.7 z"
   id="path135" />
			<path
   class="st0"
   d="M 1961.5,455 1951,378.9 h -62 l -9.4,76.1 h -53.3 l 58.5,-413.2 h 66.1 l 63.8,413.2 z m -43.9,-341.1 -22.8,214.8 h 49.2 z"
   id="path136" />
			<path
   class="st0"
   d="m 2087.3,304.1 v 75.5 c 0,26.3 7,39.8 28.1,39.8 25.8,0 26.3,-29.8 26.3,-51.5 0,-48 -25.2,-78.4 -45.7,-109.4 l -22.2,-33.9 c -16.4,-25.2 -33.4,-55 -33.4,-105.3 0,-43.3 22.8,-85.4 83.7,-85.4 60.3,0 69.6,38.6 69.6,70.8 v 73.1 H 2144 V 107 c 0,-11.1 -1.8,-30.4 -21.7,-30.4 -26.3,0 -26.9,22.8 -26.9,42.1 0,42.1 17,67.3 36.3,96 L 2161,258 c 25.2,36.9 36.3,70.2 36.3,101.8 0,24.6 -1.2,103 -81.9,103 -33.4,0 -50.9,-14 -60.3,-24.6 -17,-19.9 -18.1,-41.6 -18.1,-65.5 v -68.5 h 50.3 z"
   id="path137" />
			<path
   class="st0"
   d="M 2226,455 V 41.9 h 136.4 V 93.4 H 2281 v 121.1 h 72.6 V 266 h -72 v 137 h 80.8 v 52 z"
   id="path138" />
			<path
   class="st0"
   d="m 2608.7,455 -10.5,-76.1 h -62 l -9.4,76.1 h -53.3 L 2532,41.9 h 66.1 l 63.8,413.2 h -53.2 z M 2564.8,113.9 2542,328.6 h 49.2 z"
   id="path139" />
			<path
   class="st0"
   d="M 2698.2,455 V 41.9 H 2752 V 455 Z"
   id="path140" />
			<path
   class="st0"
   d="M 2840.7,455 V 254 h -29.4 v -26 c 6.8,-0.8 34,-3.4 40,-38.1 h 23 V 455 Z"
   id="path141" />
			<path
   class="st0"
   d="m 3025.9,397.7 c 0,26.8 -3.8,37.3 -14.7,47.2 -11.3,9.8 -26.4,12.8 -40.7,12.8 -8.3,0 -41.9,-0.4 -51.3,-31.7 -2.6,-8.3 -2.6,-15.8 -2.6,-32.1 V 240 c 0,-23 6.4,-54.7 55.5,-54.7 49.4,0 53.9,32.4 53.9,56.6 v 155.8 z m -32.4,-158.5 c 0,-15.5 -2.3,-28.3 -22.3,-28.3 -16.2,0 -22.3,9.1 -22.3,23.8 v 170.1 c 0,14 2.3,25.3 22.3,25.3 14.7,0 22.3,-6.4 22.3,-24.1 z"
   id="path142" />
		</g>
		<path
   class="st5"
   d="m 900.6,7.1 80.2,80.2 C 898.6,92.9 833.7,161.4 833.7,245 833.7,332.1 904,402.7 991,403.1 L 900.7,493.4 657.4,250.3 Z m 23.9,238 c 0,-37.1 30.1,-67.2 67.2,-67.2 37.1,0 67.2,30.1 67.2,67.2 0,37.1 -30.1,67.2 -67.2,67.2 -37.1,-0.1 -67.2,-30.1 -67.2,-67.2 z"
   id="path143" />
	</g>
	<g
   class="st2"
   id="g154">
		<g
   class="st3"
   id="g153">
			<path
   d="m 1366.3,356.1 c 0,50.9 -16.4,104.2 -90.1,104.2 -81.9,0 -87.8,-65.5 -87.8,-98.3 V 154.8 c 0,-49.2 7.6,-117 92.5,-117 68.5,0 85.4,45.1 85.4,101.2 v 52.7 h -54.4 v -63.8 c 0,-17 -2.3,-42.7 -33.9,-42.7 -27.5,0 -34.5,21.1 -34.5,45.1 v 235.3 c 0,38 8.8,47.4 33.4,47.4 31.6,0 34.5,-24 34.5,-48.6 v -80.2 h 55 v 71.9 z"
   id="path144" />
			<path
   d="m 1461.1,41.9 v 326.6 c 0,37.5 11.1,48 32.8,48 31,0 33.4,-24 33.4,-58.5 V 42 h 53.8 v 313 c 0,77.8 -32.8,106.5 -89,106.5 -63.8,0 -84.3,-41.6 -84.3,-97.1 V 41.9 Z"
   id="path145" />
			<path
   d="m 1726.2,41.9 c 57.4,0 62.6,22.2 62.6,82.5 v 51.5 c 0,31 -1.8,57.4 -45.1,60.9 36.9,2.9 45.1,18.1 45.1,56.8 v 74.9 c 0,62.6 -5.9,86.6 -73.7,86.6 h -86.6 V 41.9 Z m -45.1,173.2 h 24 c 24.6,0 30.4,-7 30.4,-43.9 v -41 c 0,-24.6 -2.9,-39.2 -26.9,-39.2 h -27.5 z m 0,189 h 28.1 c 26.3,0 27.5,-3.5 27.5,-39.2 v -65.5 c 0,-24.6 -2.9,-39.2 -26.9,-39.2 h -28.7 z"
   id="path146" />
			<path
   d="M 1961.5,455 1951,378.9 h -62 l -9.4,76.1 h -53.3 l 58.5,-413.2 h 66.1 l 63.8,413.2 z m -43.9,-341.1 -22.8,214.8 h 49.2 z"
   id="path147" />
			<path
   d="m 2087.3,304.1 v 75.5 c 0,26.3 7,39.8 28.1,39.8 25.8,0 26.3,-29.8 26.3,-51.5 0,-48 -25.2,-78.4 -45.7,-109.4 l -22.2,-33.9 c -16.4,-25.2 -33.4,-55 -33.4,-105.3 0,-43.3 22.8,-85.4 83.7,-85.4 60.3,0 69.6,38.6 69.6,70.8 v 73.1 H 2144 V 107 c 0,-11.1 -1.8,-30.4 -21.7,-30.4 -26.3,0 -26.9,22.8 -26.9,42.1 0,42.1 17,67.3 36.3,96 L 2161,258 c 25.2,36.9 36.3,70.2 36.3,101.8 0,24.6 -1.2,103 -81.9,103 -33.4,0 -50.9,-14 -60.3,-24.6 -17,-19.9 -18.1,-41.6 -18.1,-65.5 v -68.5 h 50.3 z"
   id="path148" />
			<path
   d="M 2226,455 V 41.9 h 136.4 V 93.4 H 2281 v 121.1 h 72.6 V 266 h -72 v 137 h 80.8 v 52 z"
   id="path149" />
			<path
   d="m 2608.7,455 -10.5,-76.1 h -62 l -9.4,76.1 h -53.3 L 2532,41.9 h 66.1 l 63.8,413.2 h -53.2 z M 2564.8,113.9 2542,328.6 h 49.2 z"
   id="path150" />
			<path
   d="M 2698.2,455 V 41.9 H 2752 V 455 Z"
   id="path151" />
			<path
   d="M 2840.7,455 V 254 h -29.4 v -26 c 6.8,-0.8 34,-3.4 40,-38.1 h 23 V 455 Z"
   id="path152" />
			<path
   d="m 3025.9,397.7 c 0,26.8 -3.8,37.3 -14.7,47.2 -11.3,9.8 -26.4,12.8 -40.7,12.8 -8.3,0 -41.9,-0.4 -51.3,-31.7 -2.6,-8.3 -2.6,-15.8 -2.6,-32.1 V 240 c 0,-23 6.4,-54.7 55.5,-54.7 49.4,0 53.9,32.4 53.9,56.6 v 155.8 z m -32.4,-158.5 c 0,-15.5 -2.3,-28.3 -22.3,-28.3 -16.2,0 -22.3,9.1 -22.3,23.8 v 170.1 c 0,14 2.3,25.3 22.3,25.3 14.7,0 22.3,-6.4 22.3,-24.1 z"
   id="path153" />
		</g>
		<path
   class="st4"
   d="m 900.6,7.1 80.2,80.2 C 898.6,92.9 833.7,161.4 833.7,245 833.7,332.1 904,402.7 991,403.1 L 900.7,493.4 657.4,250.3 Z m 23.9,238 c 0,-37.1 30.1,-67.2 67.2,-67.2 37.1,0 67.2,30.1 67.2,67.2 0,37.1 -30.1,67.2 -67.2,67.2 -37.1,-0.1 -67.2,-30.1 -67.2,-67.2 z"
   id="path154" />
	</g>
</g>
</svg>
