<svg width="24" height="24" viewBox="0 0 0.72 0.72"><path d="m.19.176.012.05h-.2s.003.017.005.018q.007.015.017.025C.056.305.11.32.155.329a1 1 0 0 0 .095.01l.037.099h.02l.012.03H.3L.274.56h.278L.524.468H.507L.519.436h.02S.555.334.606.288C.656.242.72.234.72.234V.176zm.28.252C.457.436.442.436.432.443.425.446.422.456.422.456A.04.04 0 0 0 .396.433C.386.43.368.43.344.41A.05.05 0 0 1 .327.363V.36L.329.354Q.333.338.356.328s-.01.015 0 .033Q.368.378.388.37a.03.03 0 0 0 .01-.015Q.404.336.391.324C.376.308.373.29.383.278c0 0 .003.015.018.014q.013 0 .007-.007C.406.281.385.25.418.226c0 0 .02-.013.042-.011C.447.217.432.224.427.238V.24Q.42.26.435.28q.012.013.018.032Q.446.311.443.316a.02.02 0 0 0-.005.015q.003.006.01.007h.004Q.46.333.458.323q.006.01.004.018T.457.354L.45.364l-.003.01.001.012c.007.01.02 0 .024-.008Q.479.362.468.346s.012.007.02.03A.05.05 0 0 1 .47.428" style="stroke-width:.0298475"/></svg>