<svg xmlns="http://www.w3.org/2000/svg" viewBox="0 0 24 24" width="24" height="24"><path d="M11.809 13.281c-.2.473-.496.899-.86 1.25a3.81 3.81 0 0 1-2.64 1.055c-2.09 0-3.786-1.672-3.786-3.73 0-2.063 1.696-3.731 3.786-3.731a3.779 3.779 0 0 1 2.558.98c.403.364.727.817.942 1.325l-2.008.695c-.254-.578-.801-.98-1.43-.98-.875 0-1.582.765-1.582 1.71 0 .942.707 1.707 1.582 1.707.629 0 1.176-.398 1.43-.976Zm0 0" style="stroke:none;fill-rule:evenodd;fill:#1b1e2e;fill-opacity:1"/><path d="M11.809 13.281c-.2.473-.496.899-.86 1.25a3.81 3.81 0 0 1-2.64 1.055c-2.09 0-3.786-1.672-3.786-3.73 0-2.063 1.696-3.731 3.786-3.731a3.779 3.779 0 0 1 2.558.98c.403.364.727.817.942 1.325l-2.008.695c-.254-.578-.801-.98-1.43-.98-.875 0-1.582.765-1.582 1.71 0 .942.707 1.707 1.582 1.707.629 0 1.176-.398 1.43-.976Zm0 0" style="stroke:none;fill-rule:evenodd;fill:#1b1e2e;fill-opacity:1"/><path d="M3 12c0-4.969 4.031-9 9-9a8.994 8.994 0 0 1 9 9 8.996 8.996 0 0 1-4.316 7.688l-1.497 3.882A11.997 11.997 0 0 0 24 12c0-6.629-5.371-12-12-12S0 5.371 0 12s5.371 12 12 12c.18 0 .363-.004.543-.012.555-.023 1.023-.398 1.223-.918l5.71-14.82H17.29l-1.707 4.828-1.734-4.828H11.53l2.895 7.465-2.047 5.277a9.259 9.259 0 0 1-1.582-.07C6.395 20.332 3 16.562 3 12Zm0 0" style="stroke:none;fill-rule:nonzero;fill:#1b1e2e;fill-opacity:1"/></svg>
