<svg xmlns="http://www.w3.org/2000/svg" width="24" height="24" viewBox="0 0 24 24"><path d="m3.683-3.19-.009.036.21-.012.085-.004a5 5 0 0 0-.286-.02m-3.631.32a8 8 0 0 1-.251.115.9.9 0 0 0-.194.108q.222-.11.445-.224m-.907 1.319-.047.026a1.1 1.1 0 0 0-.23.199 1 1 0 0 0-.137.178c.14-.14.293-.29.414-.403M-3.056.176l-.069.142.057-.088zM12.399.19a9.5 9.5 0 0 0-1.266.031C4.713.832.055 6.013.233 12.344c.167 5.917 4.464 10.609 10.468 11.43.472.065 2.278.065 2.686 0l.564-.088c4.187-.653 7.864-3.748 9.25-7.788.938-2.732.83-6.047-.276-8.497-1.389-3.075-3.572-5.199-6.57-6.39A12.4 12.4 0 0 0 12.399.19m2.125.9c.09.002.274.051.647.163.365.11.781.256 1.109.39.683.281 2.216 1.16 2.422 1.388.01.012.083.069.16.127l.142.105-.064.11c-.036.06-.1.148-.143.194s-.117.14-.164.208c-.109.154-.184.153-.39-.003-.98-.748-2.29-1.401-3.428-1.707-.536-.145-.527-.14-.52-.277a2.6 2.6 0 0 1 .144-.656c.01-.029.03-.044.085-.042m-3.597 1.16c.406-.057 1.775-.05 2.235.012 1.808.241 3.887 1.102 4.855 2.01.122.114.128.104-.617 1.015-.026.03-.501.622-1.056 1.314-.933 1.162-1.104 1.346-1.168 1.25-.113-.168-1.055-.661-1.584-.83-.95-.302-2.093-.317-3.03-.04-.336.1-.348.095-.455-.197l-.31-.85-.11-.29a184.134 184.134 0 0 0-.592-1.634 70 70 0 0 1-.403-1.119c-.05-.171.978-.466 2.235-.64m-4.586.107c.02 0 .068.046.109.103.07.098.187.298.292.495.064.12.07.115-.391.423a11 11 0 0 0-1.348 1.064c-.316.297-.3.298-.616-.007-.353-.34-.39-.266.543-1.083.319-.279 1.335-.995 1.411-.995m-10.146.809c-.006.08-.011.224-.017.423l.016-.074v-.35m10.826.449c.111-.001.18.126.356.423l.77 1.305c.18.314.929 1.588 1.16 1.975.092.156.097.148-.239.375-.545.367-1.218 1.089-1.53 1.641-.138.243-.137.243-.605-.004l-.87-.455c-.27-.14-.624-.327-.79-.415-.366-.194-1.172-.616-1.568-.82-.344-.176-.349-.193-.14-.536a3 3 0 0 0 .15-.264c0-.009.082-.138.182-.287a10.4 10.4 0 0 1 2.721-2.72c.206-.138.317-.217.403-.218M19.21 5.452c.067.003.137.085.298.273.246.287.664.856.773 1.054.032.057.119.208.194.335.475.803.962 2.103 1.097 2.93.027.16-.008.18-.447.255-.206.036-.544.098-.751.137a92 92 0 0 1-.995.185l-.395.074-.394.074-.395.073c-.124.022-.4.075-.615.118-.457.093-.431.108-.547-.324a5.1 5.1 0 0 0-.995-1.95c-.18-.224-.184-.252-.05-.358a6 6 0 0 0 .273-.239c.093-.086.456-.417.807-.734a440 440 0 0 0 1.953-1.778c.088-.081.137-.127.189-.125m1.854.072c.047.001.079.04.132.11.446.584 1.398 2.522 1.328 2.703-.023.061-.684.309-.736.276-.02-.012-.099-.186-.176-.388a11.3 11.3 0 0 0-.92-1.793c-.315-.477-.316-.447.039-.71.187-.138.272-.199.333-.198m-9.036 1.837q.306.003.622.05c.808.118 2.12.699 2.21.978.011.034-.247.387-.546.747-.035.041-.122.151-.194.244a6 6 0 0 1-.197.242c-.037.04-.103.127-.148.193-.146.212-.177.214-.485.03a2.6 2.6 0 0 0-.41-.205c-.659-.198-1.069-.197-1.73 0-.716.214-1.405 1.034-1.573 1.874-.366 1.823 1.52 3.456 3.238 2.803.257-.097.254-.1.533.52l.4.88c.203.44.206.424-.086.542-2.358.957-5.145-.347-5.99-2.803-1.041-3.024 1.292-6.125 4.356-6.094M3.031 8.387h.012a.5.5 0 0 1 .155.05c.088.04 1.013.41 2.057.823 1.577.624 1.896.763 1.892.82a4 4 0 0 1-.105.408c-.214.72-.228.934-.161 2.423l.008.17-.187.045c-.102.025-.432.097-.732.159a136 136 0 0 0-1.617.34c-.806.17-1.12.236-1.258.267-.602.135-.594.136-.65-.124-.304-1.43-.213-3.122.251-4.672.162-.541.218-.705.335-.71m12.387.532c.067 0 .103.08.201.198.423.508 1.031 1.877.895 2.014-.027.027-1.55.333-1.868.375-.18.024-.185.022-.208-.083a2.7 2.7 0 0 0-.409-.897c-.167-.233-.167-.246.006-.396.078-.067.344-.311.592-.542.527-.49.692-.667.79-.669m-14.041.052c.07.002.18.031.365.085.357.104.36.112.25.562-.212.871-.248 1.218-.247 2.354 0 .823.014 1.121.07 1.465.113.702.113.704.034.726-.633.181-.74.163-.781-.135l-.06-.403c-.231-1.48-.151-3.038.231-4.517.025-.096.048-.14.138-.137m21.645 1.888c.034.004.066.064.082.156.099.552.052 2.139-.066 2.237-.033.027-.154.024-.397-.01l-.35-.05.005-1.127c.003-.92.013-1.128.055-1.136a7 7 0 0 1 .67-.07m-1.474.137c.064.004.127.014.136.03.127.205.087 2.013-.046 2.064-.05.02-.49-.022-1.546-.144l-2.54-.295c-.372-.043-.352-.007-.352-.624 0-.644-.045-.594.582-.653.248-.023.62-.059.826-.08.207-.02.545-.054.752-.073l.751-.074.826-.08c.248-.023.458-.048.467-.057.014-.013.08-.017.144-.014m-5.425.53c.052 0 .12 0 .193.003l.264.011.026.169c.028.19-.002.72-.046.791-.023.037-.138.034-.55-.016l-.857-.102a13 13 0 0 1-.489-.065l-.15-.026-.011-.29c-.012-.331-.04-.308.406-.346.714-.06 1.108-.103 1.124-.119a.3.3 0 0 1 .09-.01m-1.595.916c.123.004.386.059.943.17 1.021.201 1.064.217 1.03.37-.182.832-.704 1.734-1.366 2.363-.316.3-.214.37-1.025-.697-.588-.773-.558-.705-.381-.875.293-.281.691-.97.691-1.198 0-.09-.016-.137.108-.133m2.657.507h.002a69.887 69.887 0 0 1 1.534.301c.083.017.26.051.395.074.134.024.312.058.394.076.083.019.514.102.958.187 1.144.217 1.068.196 1.083.298.014.093-.008.186-.19.83-.116.411-.315.963-.374 1.038-.035.045-.225-.02-.699-.235a2 2 0 0 0-.214-.09c-.01 0-.106-.04-.215-.09a226 226 0 0 0-2.284-.97c-.586-.248-.75-.327-.75-.36 0-.018.039-.149.087-.292a6 6 0 0 0 .137-.467c.043-.183.094-.297.136-.3m-10.139.666c.025.01.065.078.09.154.154.481.639 1.276 1.032 1.693.133.141.242.28.242.31s-.526.61-1.17 1.291-1.323 1.403-1.511 1.605c-.189.2-.362.365-.386.366-.11 0-1.003-1.025-1.39-1.596-.54-.8-1.263-2.316-1.154-2.424.054-.055 4.194-1.418 4.247-1.399m15.215.313c.074.002.188.02.354.055.341.072.354.084.3.297-.024.094-.062.252-.085.35-.142.607-.53 1.7-.602 1.7-.061 0-.61-.233-.662-.28-.039-.036-.03-.092.043-.286.17-.455.287-.83.401-1.287.063-.252.122-.479.13-.505.01-.03.046-.045.12-.044m-5.641.613c.043-.001.092.028.175.074l.499.268c.299.16.682.365 1.474.794l1.005.54c.592.316.77.42.77.45 0 .037-.254.46-.463.77-.652.97-1.97 2.298-2.104 2.12-.024-.032-.648-.81-1.387-1.73-.738-.92-1.342-1.69-1.342-1.711 0-.02.191-.23.426-.466.254-.255.52-.57.658-.776.163-.243.217-.331.289-.333m-14.525.674c.12.003.162.112.27.4a10.6 10.6 0 0 0 2.192 3.487l.363.386-.25.28c-.306.341-.24.348-.644-.067a11 11 0 0 1-2.397-3.71c-.212-.542-.209-.56.132-.683.161-.059.262-.095.334-.093m6.834.965c.014 0 .144.078.288.172 1.285.833 3.02 1.041 4.477.537.54-.187.477-.205.666.197.09.193.312.681.492 1.084s.393.874.474 1.046.146.32.146.325c0 .007.059.14.131.297.516 1.118.492.977.188 1.115-2.776 1.258-6.426.93-9.092-.819-.5-.328-.494-.31-.217-.682.241-.323.468-.632.888-1.207 1.19-1.63 1.52-2.066 1.559-2.065m12.19.767c.058-.003.147.05.336.157.17.096.315.18.322.186.04.034-.52.91-.911 1.425a12 12 0 0 1-1.69 1.776l-.258.213-.137-.155a4 4 0 0 1-.248-.313l-.11-.16.224-.19c.858-.725 1.608-1.621 2.308-2.758.074-.12.104-.179.163-.181m-4.89 4.464c.07.001.117.083.225.31.189.4.193.392-.275.574-1.574.612-3.778.958-4.969.78l-.18-.027.028-.364c.033-.449-.056-.403.745-.389 1.47.025 3.389-.35 4.308-.841a.3.3 0 0 1 .118-.043m9.758 2.794-.013.02.012-.008zm-29.056.138c.043.087.088.174.128.245a.4.4 0 0 1 .036-.054zm14.16 2.766c.165.028.331.04.498.048h.012q-.172-.025-.346-.048zm-4.208.102-.144.022a8 8 0 0 1 .31.021z"/></svg>