<svg version="1.1" id="svg1" width="24" height="24" viewBox="0 0 24 24" xmlns="http://www.w3.org/2000/svg">
   <defs id="defs1" />
   <g id="g1">
      <path style="fill:#000000;stroke-width:0.176082"
         d="M 4.7481533,23.899619 C 1.0656023,23.395416 -0.18698567,21.083234 0.02208633,15.175663 0.43701933,3.4512527 0.42473633,3.5609197 1.4814513,2.1465947 c 1.271181,-1.70136797 1.849052,-1.84577797 7.841963,-1.95970997 2.6654107,-0.05067 5.7658117,-0.129689 6.8897807,-0.175594 4.219265,-0.172321 7.919716,1.65472097 7.37629,3.64193097 -0.01519,0.05551 0.03251,0.174116 0.105981,0.263572 0.343141,0.417806 0.424781,13.5690953 0.09712,15.6446483 -0.320714,2.031549 -1.80685,3.645174 -3.852676,4.183181 -0.861594,0.226581 -13.7114007,0.357684 -15.1917567,0.154996 z m 8.7167747,-5.82538 c 5.971098,-1.669178 6.593049,-10.1047663 0.903396,-12.2528763 -0.622682,-0.235092 -0.928678,-0.254193 -4.7237167,-0.294874 -4.057905,-0.0435 -4.057905,-0.0435 -3.043164,1.664512 1.014742,1.708009 1.014742,1.708009 3.5324137,1.751746 2.318064,0.04027 2.563847,0.06501 3.100096,0.312002 2.650635,1.2208833 1.916912,5.1998683 -1.020549,5.5344443 -0.565502,0.06441 -0.66923,-0.521856 -0.670716,-3.79083 -5.26e-4,-1.1682063 -5.26e-4,-1.1682063 -1.069455,-1.0915343 -0.5879067,0.04217 -1.3498697,0.07667 -1.6932507,0.07667 -0.933192,0 -1.001757,8.0764133 -0.06964,8.2033083 0.305077,0.04153 0.607235,0.097 0.671461,0.123267 0.305123,0.124769 3.4410867,-0.05636 4.0831267,-0.235837 z"
         id="path1" />
   </g>
</svg>