<?xml version="1.0" encoding="UTF-8" standalone="no"?>
<svg
   version="1.1"
   id="svg1"
   width="24"
   height="24"
   viewBox="0 0 24 24"
   sodipodi:docname=":dash:.svg"
   inkscape:version="1.4.3 (0d15f75, 2025-12-25)"
   xmlns:inkscape="http://www.inkscape.org/namespaces/inkscape"
   xmlns:sodipodi="http://sodipodi.sourceforge.net/DTD/sodipodi-0.dtd"
   xmlns="http://www.w3.org/2000/svg"
   xmlns:svg="http://www.w3.org/2000/svg">
  <sodipodi:namedview
     id="namedview1"
     pagecolor="#505050"
     bordercolor="#ffffff"
     borderopacity="1"
     inkscape:showpageshadow="0"
     inkscape:pageopacity="0"
     inkscape:pagecheckerboard="1"
     inkscape:deskcolor="#505050"
     inkscape:zoom="7.2760879"
     inkscape:cx="0.41230948"
     inkscape:cy="25.08216"
     inkscape:window-width="968"
     inkscape:window-height="1044"
     inkscape:window-x="742"
     inkscape:window-y="40"
     inkscape:window-maximized="0"
     inkscape:current-layer="svg1" />
  <defs
     id="defs1" />
  <g
     id="g1"
     transform="matrix(1.823523,0,0,1.823523,-10.09072,-9.9020318)">
    <path
       style="fill:#000000;stroke-width:0.176082"
       d="m 13.464928,18.074239 c 5.971098,-1.669178 6.593049,-10.1047663 0.903396,-12.2528763 -0.622682,-0.235092 -0.928678,-0.254193 -4.7237167,-0.294874 -4.057905,-0.0435 -4.057905,-0.0435 -3.043164,1.664512 1.014742,1.708009 1.014742,1.708009 3.5324137,1.751746 2.318064,0.04027 2.563847,0.06501 3.100096,0.312002 2.650635,1.2208833 1.916912,5.1998683 -1.020549,5.5344443 -0.565502,0.06441 -0.66923,-0.521856 -0.670716,-3.79083 -5.26e-4,-1.1682063 -5.26e-4,-1.1682063 -1.069455,-1.0915343 -0.5879067,0.04217 -1.3498697,0.07667 -1.6932507,0.07667 -0.933192,0 -1.001757,8.0764133 -0.06964,8.2033083 0.305077,0.04153 0.607235,0.097 0.671461,0.123267 0.305123,0.124769 3.4410867,-0.05636 4.0831267,-0.235837 z"
       id="path1" />
  </g>
</svg>
