<svg version="1.1" xmlns="http://www.w3.org/2000/svg" xmlns:xlink="http://www.w3.org/1999/xlink" x="0px" y="0px"
	 viewBox="0 0 72 72" style="enable-background:new 0 0 72 72;" xml:space="preserve">
	<path d="M27.7,22.6L27.7,22.6c0-1.2-0.1-2.2-0.5-3.2c-0.4-1-1-1.9-1.8-2.7s-1.7-1.4-2.7-1.8c-1-0.4-2.1-0.6-3.2-0.5H15v16.3h4.6
		c1.1,0.1,2.2-0.1,3.2-0.5c1-0.4,1.9-1,2.7-1.7c0.8-0.8,1.4-1.7,1.8-2.7C27.6,24.7,27.7,23.7,27.7,22.6z M27.7,22.6L27.7,22.6
		c0-1.2-0.1-2.2-0.5-3.2c-0.4-1-1-1.9-1.8-2.7s-1.7-1.4-2.7-1.8c-1-0.4-2.1-0.6-3.2-0.5H15v16.3h4.6c1.1,0.1,2.2-0.1,3.2-0.5
		c1-0.4,1.9-1,2.7-1.7c0.8-0.8,1.4-1.7,1.8-2.7C27.6,24.7,27.7,23.7,27.7,22.6z M0,0v72h72V0H0z M9,9h10.5c8.5,0,14.3,5.8,14.3,13.4
		v0.1C33.9,30.1,28,36,19.5,36H9V9z M36,62.9H9v-4.5h27V62.9z M57.5,28.1c0,5.4-4.1,8.4-10,8.4c-4.2,0-8.4-1.5-11.5-4.3l0,0l3.5-4.2
		c2.2,2,5.1,3.2,8.1,3.3c2.4,0,3.9-1,3.9-2.6v-0.1c0-1.5-0.9-2.3-5.5-3.5c-5.5-1.4-9-2.9-9-8.3v-0.1c0-4.9,4-8.2,9.5-8.2
		c3.7-0.1,7.2,1.2,10.1,3.5l-3.1,4.5c-2-1.6-4.5-2.5-7.1-2.7c-2.3,0-3.5,1-3.5,2.4v0.1c0,1.8,1.2,2.4,5.9,3.6
		C54.4,21.3,57.5,23.3,57.5,28.1L57.5,28.1z M22.7,30.2c1-0.4,1.9-1,2.7-1.7c0.8-0.8,1.4-1.7,1.8-2.7c0.4-1,0.6-2.1,0.5-3.2v-0.1
		c0-1.1-0.1-2.2-0.5-3.2c-0.4-1-1-1.9-1.8-2.7s-1.7-1.4-2.7-1.8c-1-0.4-2.1-0.6-3.2-0.5H15v16.3h4.6C20.6,30.7,21.7,30.5,22.7,30.2z
		"/>
</svg>
