<svg xmlns="http://www.w3.org/2000/svg" viewBox="0 0 24 24"><path d="M10.809 1.157 C 9.526 1.492,8.405 2.338,7.754 3.460 C 7.380 4.106,7.183 4.741,7.121 5.503 C 7.012 6.854,7.410 7.972,8.594 9.640 C 9.559 10.999,11.394 12.899,11.883 13.046 C 12.126 13.118,12.269 13.017,13.100 12.182 C 15.276 9.995,16.499 8.168,16.816 6.632 C 16.944 6.013,16.881 5.151,16.656 4.433 C 16.408 3.640,16.008 3.004,15.375 2.397 C 14.944 1.984,14.525 1.694,13.984 1.437 C 13.297 1.110,13.111 1.072,12.120 1.054 C 11.273 1.040,11.253 1.041,10.809 1.157 M4.820 13.105 C 4.754 13.113,4.556 13.139,4.380 13.162 C 3.957 13.218,3.389 13.369,3.032 13.521 C 2.014 13.954,0.934 15.092,0.518 16.171 C 0.275 16.800,0.222 17.109,0.221 17.900 C 0.220 18.682,0.257 18.951,0.446 19.534 C 0.766 20.522,1.471 21.430,2.391 22.041 C 3.909 23.048,5.895 23.131,7.470 22.255 C 8.717 21.562,9.774 19.885,10.682 17.160 C 11.261 15.423,11.419 14.646,11.246 14.374 C 11.196 14.295,11.073 14.203,10.913 14.125 C 10.227 13.792,7.852 13.256,6.647 13.163 C 6.040 13.116,4.988 13.082,4.820 13.105 M17.120 13.182 C 15.765 13.352,13.542 13.864,13.040 14.121 C 12.561 14.366,12.571 14.684,13.116 16.489 C 13.883 19.026,14.895 20.944,15.917 21.795 C 17.176 22.842,19.025 23.125,20.683 22.522 C 22.127 21.997,23.246 20.707,23.668 19.081 C 23.918 18.116,23.798 16.904,23.355 15.922 C 23.033 15.211,22.322 14.381,21.650 13.931 C 20.742 13.323,20.090 13.158,18.520 13.137 C 17.869 13.128,17.439 13.142,17.120 13.182 " stroke="none" fill-rule="evenodd"></path></svg>