<svg xmlns="http://www.w3.org/2000/svg" viewBox="0 0 24 24"><path d="M12.367 24.007h-.711a.27.27 0 0 0-.1-.015c-.38-.019-.757-.049-1.131-.1a11.638 11.638 0 0 1-2.056-.458 12.061 12.061 0 0 1-3.21-1.583 11.889 11.889 0 0 1-2.442-2.261 11.845 11.845 0 0 1-1.948-3.379 11.795 11.795 0 0 1-.736-3.407.702.702 0 0 0-.033-.19v-1.239a.545.545 0 0 0 .033-.169 11.85 11.85 0 0 1 1.273-4.649c.422-.829.934-1.6 1.537-2.312a11.964 11.964 0 0 1 2.008-1.887A11.895 11.895 0 0 1 10.998.033c.129-.012.265-.003.394-.033h1.218c.094.027.19.012.284.021.482.042.962.103 1.438.196 1.498.296 2.888.856 4.172 1.685a12.001 12.001 0 0 1 2.647 2.318 11.844 11.844 0 0 1 1.571 2.361 11.754 11.754 0 0 1 1.073 3.162c.108.585.19 1.176.193 1.773 0 .039.009.081.012.12v.712c-.012.045-.012.093-.015.141 0 .115 0 .23-.009.344a11.886 11.886 0 0 1-2.029 5.879 11.992 11.992 0 0 1-4.544 4 11.791 11.791 0 0 1-3.319 1.1c-.446.079-.895.13-1.347.157-.12.014-.246.011-.37.038Zm-4.851-5.729a2.7 2.7 0 0 0 .646-.066c.66-.145 1.221-.446 1.652-.979.262-.326.482-.679.672-1.049.224-.438.41-.893.573-1.354.199-.558.368-1.127.498-1.703.072-.323-.009-.525-.365-.636a16.52 16.52 0 0 0-1.372-.371c-.769-.169-1.543-.277-2.334-.251a4.969 4.969 0 0 0-.666.073 2.869 2.869 0 0 0-1.625.874c-.757.796-1.058 1.745-.871 2.828.268 1.546 1.637 2.647 3.192 2.634ZM8.791 7.19c-.008.226.034.474.103.721.133.47.353.901.612 1.308.591.926 1.336 1.719 2.144 2.454a.892.892 0 0 0 .229.151.295.295 0 0 0 .256.006.665.665 0 0 0 .224-.154c.28-.277.557-.555.823-.841a13.96 13.96 0 0 0 1.052-1.275c.293-.407.555-.836.748-1.3.192-.461.286-.937.223-1.438-.106-.826-.458-1.525-1.089-2.074-.745-.648-1.613-.907-2.59-.763-1.589.236-2.741 1.635-2.735 3.205Zm7.833 11.071c.078-.003.22 0 .361-.021.953-.142 1.707-.604 2.238-1.411a3.155 3.155 0 0 0 .506-2.098 3.125 3.125 0 0 0-.844-1.851c-.422-.453-.926-.766-1.535-.899a5.184 5.184 0 0 0-1.015-.108 8.054 8.054 0 0 0-1.203.084c-.796.112-1.574.302-2.34.543a.643.643 0 0 0-.214.111.314.314 0 0 0-.126.254c0 .09.009.181.03.271.048.181.09.362.139.54.223.814.494 1.61.865 2.37.214.437.461.85.778 1.221.241.28.522.509.856.669.458.219.934.337 1.504.325Z" class="st0"/></svg>