<svg viewBox="0 0 24 24" xmlns="http://www.w3.org/2000/svg"><path d="m 76.519114,0.81261613 c -1.04205,0.0115151 -2.090626,0.0524968 -3.14284,0.12229738 C 64.493167,2.3725675 56.404193,5.622068 49.106557,10.689005 32.190926,23.892431 20.48785,40.622484 13.996096,60.864671 A 40.863339,39.721456 0 0 0 12.37589,76.906007 c 0.590279,3.399256 2.156442,6.28547 4.69372,8.650891 -3.168311,-0.977607 -5.599126,-2.918421 -7.2845091,-5.818011 a 258.35547,251.136 0 0 0 -9.0562094,18.559735 1.3751263,1.3366999 0 0 0 0,1.255445 217.45928,211.38259 0 0 0 6.3087908,7.233183 c 9.5930197,9.93964 21.1382137,16.96075 34.6226027,21.07563 a 1.2357732,1.2012408 0 0 0 0.811386,-0.62896 67.929403,66.031184 0 0 1 2.588223,-8.49115 154.46903,150.15255 0 0 1 11.328605,-21.704602 20.68474,20.106726 0 0 0 1.294111,-3.778834 C 58.602867,87.168788 58.063244,81.194093 56.064972,75.333572 A 49.467738,48.085414 0 0 1 52.824558,64.321533 c 9.803363,8.880235 21.182543,15.119698 34.145015,18.714475 8.668819,2.260633 15.082397,-0.413325 19.252467,-8.016924 a 56.719361,55.134398 0 0 0 5.49997,-20.132165 12.431354,12.083971 0 0 1 1.61764,4.088333 42.741978,41.547598 0 0 1 -1.12978,16.198581 l 0.32353,0.474226 a 67.621772,65.732154 0 0 1 4.52938,-3.30461 44.67846,43.429968 0 0 0 4.04667,-4.877045 72.872495,70.836147 0 0 0 6.30621,-14.156913 c -0.34969,-8.415075 -2.61349,-16.283123 -6.79408,-23.591523 -1.98119,5.381304 -5.00702,10.14809 -9.05875,14.316651 -2.83441,1.861924 -5.85486,2.176651 -9.06393,0.943462 -7.097805,-2.056167 -12.761162,-5.990073 -16.98777,-11.800754 -1.346204,-3.299579 -0.431532,-5.871183 2.752553,-7.702439 1.617024,-0.89454 3.235895,-1.782373 4.852917,-2.675636 a 55.921367,54.358703 0 0 1 7.95725,-2.316221 55.921367,54.358703 0 0 1 8.22428,-1.143135 5.9251382,5.7595663 0 0 1 1.94115,-0.474227 A 57.731644,56.118392 0 0 0 97.645988,4.8684965 v 0.00253 C 90.856795,2.0833847 83.81346,0.73228373 76.519114,0.81261613 Z M 58.011273,17.190907 c 0.477602,-0.0011 0.953226,0.02492 1.425063,0.07738 0.471837,0.05242 0.941032,0.131182 1.407089,0.237111 0.466056,0.105921 0.928854,0.237425 1.389116,0.396855 0.460261,0.159428 0.916688,0.346152 1.37114,0.559086 0.454452,0.212937 0.90711,0.452383 1.355736,0.718828 0.299084,0.334974 0.608242,0.650416 0.926932,0.945959 0.31869,0.295543 0.647672,0.572566 0.98599,0.828647 0.338317,0.256084 0.684513,0.492253 1.042479,0.708845 0.357964,0.216591 0.726468,0.411968 1.104101,0.589039 0.377634,0.177072 0.765837,0.334209 1.163159,0.471731 0.397324,0.137521 0.805185,0.256482 1.222216,0.35442 0.417033,0.09795 0.841942,0.17629 1.278706,0.234619 0.436763,0.05833 0.883814,0.09613 1.340329,0.114803 a 117.53518,114.25078 0 0 0 -13.269774,5.506017 132.42493,128.72445 0 0 0 -8.576052,6.763969 0.79799398,0.77569486 0 0 1 -0.159195,-0.628975 c 0.093,-0.415481 0.168763,-0.82808 0.223387,-1.23798 0.05463,-0.4099 0.08906,-0.818675 0.105276,-1.223005 0.01622,-0.404331 0.01197,-0.804262 -0.01029,-1.203038 -0.02224,-0.398778 -0.06253,-0.794824 -0.123249,-1.188062 -0.06072,-0.39324 -0.139563,-0.785372 -0.238794,-1.173088 -0.09925,-0.387713 -0.219151,-0.770911 -0.356926,-1.153116 -0.13777,-0.382207 -0.293542,-0.761432 -0.469884,-1.138145 -0.176344,-0.376712 -0.373054,-0.751935 -0.588,-1.123169 -0.09266,-0.405035 -0.156759,-0.799738 -0.195143,-1.18307 -4.16e-4,-0.0042 -0.0021,-0.0083 -0.0025,-0.01253 v -0.0025 c -0.038,-0.386343 -0.04802,-0.761343 -0.03082,-1.125663 0.01726,-0.365115 0.0608,-0.717722 0.133518,-1.060769 0.07271,-0.343051 0.174808,-0.674841 0.302987,-0.995876 0.128179,-0.321037 0.283677,-0.631903 0.467318,-0.930983 0.178158,-0.290148 0.383318,-0.569096 0.613677,-0.838631 0.0071,-0.0083 0.01337,-0.01663 0.02054,-0.02496 v -0.0025 c 0.0091,-0.0104 0.02165,-0.01946 0.03082,-0.02995 0.221864,-0.25402 0.468184,-0.498247 0.736924,-0.733802 0.01196,-0.0104 0.02127,-0.02194 0.03338,-0.03246 0.01371,-0.01188 0.02984,-0.02312 0.04364,-0.03494 0.283236,-0.242391 0.588174,-0.476266 0.921797,-0.698861 0.494803,-0.161496 0.987331,-0.29632 1.476415,-0.404339 0.489085,-0.108022 0.975094,-0.190063 1.458444,-0.244603 0.483351,-0.05455 0.962867,-0.08132 1.440468,-0.08237 z m -35.52129,61.003005 c 0.102094,0.547244 0.244593,1.06978 0.431371,1.567442 -0.186578,-0.497608 -0.329463,-1.020233 -0.431371,-1.567442 z m 92.631627,0.284535 c -6.5693,7.59082 -14.97943,11.052815 -25.240288,10.378075 a 72.835684,70.800367 0 0 0 1.453307,11.955498 10.2464,9.9600755 0 0 0 1.781971,3.29962 c 2.583292,0.67857 5.120776,0.52371 7.60547,-0.46923 a 57.251796,55.651954 0 0 0 5.33565,-13.52794 33.116093,32.190699 0 0 1 -1.94118,11.79575 l 0.32353,0.47425 c 1.36723,-0.4345 2.39246,-1.2725 3.07608,-2.515908 a 115.98257,112.74156 0 0 0 7.60546,-21.390115 z m -92.177147,1.340314 c 0.192759,0.502802 0.428823,0.980824 0.708678,1.432664 -0.279668,-0.451798 -0.516108,-0.929894 -0.708678,-1.432664 z m 0.726653,1.465111 c 0.280958,0.449198 0.608235,0.871822 0.975719,1.270428 -0.367872,-0.399009 -0.69459,-0.820709 -0.975719,-1.270428 z m 1.032207,1.330329 c 0.367265,0.39116 0.775695,0.758856 1.227352,1.100706 -0.451582,-0.341774 -0.860158,-0.709647 -1.227352,-1.100706 z m 9.117834,4.337925 a 35.140657,34.158688 0 0 0 4.60385,0.806187 c -3.92e-4,2.91e-4 3.93e-4,0.0022 0,0.0025 a 35.140657,34.158688 0 0 1 -0.0025,0 35.140657,34.158688 0 0 1 -4.601283,-0.80868 z" /></svg>
