<svg xmlns="http://www.w3.org/2000/svg" widht="24" height="24" viewBox="0 0 24 24"><path d="M14.3702.0006a10.804 10.804 0 0 0-.5946.0231c-1.6807.2716-3.2112.8854-4.592 1.8426-3.2004 2.494-5.4147 5.6543-6.643 9.478a7.7315 7.5032 0 0 0-.3065 3.0301c.1117.6421.408 1.1873.888 1.6341-.5994-.1846-1.0593-.5512-1.3782-1.099a48.8817 47.4387 0 0 0-1.7134 3.506.2602.2525 0 0 0 0 .237A41.144 39.9295 0 0 0 1.224 20.019C3.0391 21.8965 5.2235 23.2227 7.7748 24a.2338.227 0 0 0 .1535-.1188 12.8525 12.473 0 0 1 .4897-1.604 29.226 28.3633 0 0 1 2.1434-4.0999 3.9136 3.798 0 0 0 .2449-.7138c.1741-1.1505.072-2.279-.306-3.3861a9.3594 9.0832 0 0 1-.6132-2.0801c1.8549 1.6774 4.0078 2.856 6.4604 3.535 1.6401.427 2.8536-.078 3.6426-1.5143a10.7315 10.4147 0 0 0 1.0406-3.803 2.352 2.2826 0 0 1 .306.7724 8.087 7.8482 0 0 1-.2137 3.0598l.0612.0896a12.7942 12.4166 0 0 1 .857-.6242 8.4533 8.2038 0 0 0 .7656-.9213A13.7877 13.3807 0 0 0 24 9.9171c-.0662-1.5896-.4945-3.0758-1.2855-4.4563-.3748 1.0165-.9473 1.9169-1.714 2.7043-.5362.3517-1.1077.4112-1.7148.1782-1.343-.3884-2.4145-1.1315-3.2142-2.229-.2547-.6234-.0816-1.1091.5208-1.455.306-.169.6123-.3367.9182-.5055a10.5805 10.2682 0 0 1 1.5055-.4375 10.5805 10.2682 0 0 1 1.5561-.216 1.121 1.088 0 0 1 .3673-.0895 10.923 10.6006 0 0 0-2.572-2.644v.0005c-1.2844-.5266-2.617-.7818-3.9972-.7667Zm-3.5017 3.0938a2.3943 2.3943 0 0 1 .5358.0594c.0882.02.1758.0449.2629.075.087.0301.1734.0654.2594.1056.086.0402.1716.0855.2565.1358a2.625 2.625 0 0 0 .1754.1787c.0603.0558.1225.1082.1865.1565.064.0484.1295.093.1973.134a2.2594 2.2594 0 0 0 .429.2004c.0751.0259.1523.0483.2312.0668a2.535 2.535 0 0 0 .242.0444 2.776 2.776 0 0 0 .2535.0217 22.238 21.5816 0 0 0-2.5107 1.04 25.0552 24.3156 0 0 0-1.6226 1.2777.151.1465 0 0 1-.0301-.1188 2.507 2.507 0 0 0 .0622-.4649 2.3569 2.3569 0 0 0-.0704-.6732 2.5304 2.5304 0 0 0-.1564-.4328 2.7514 2.7514 0 0 0-.1113-.2122 1.8087 1.8087 0 0 1-.037-.2235c0-.0008-.0003-.0016-.0004-.0024v-.0004a1.4613 1.4613 0 0 1-.0058-.2127 1.2462 1.2462 0 0 1 .0252-.2003 1.1507 1.1507 0 0 1 .1457-.364 1.2538 1.2538 0 0 1 .1162-.1584c.0013-.0016.0025-.0032.0039-.0047v-.0005c.0017-.002.004-.0037.0058-.0057.042-.048.0886-.094.1394-.1386.0023-.002.004-.0041.0063-.0061.0026-.0023.0056-.0044.0083-.0066a1.827 1.827 0 0 1 .1744-.132 2.957 2.957 0 0 1 .2794-.0764 2.6687 2.6687 0 0 1 .276-.0462 2.479 2.479 0 0 1 .2725-.0156zM4.1477 14.6177zm17.5262.0538c-1.2429 1.4338-2.8341 2.0878-4.7755 1.9603a13.7807 13.374 0 0 0 .275 2.2584 1.9387 1.8814 0 0 0 .3371.6233c.4888.1282.9689.0989 1.439-.0887a10.8322 10.5125 0 0 0 1.0095-2.5553 6.2657 6.0807 0 0 1-.3673 2.2281l.0612.0896c.2587-.082.4527-.2404.582-.4752a21.9443 21.2965 0 0 0 1.439-4.0406zm-17.4402.2531zm.1375.2768zm.1953.2513zm1.7251.8194a6.6487 6.4525 0 0 0 .871.1523s.0002.0004 0 .0005a6.6487 6.4525 0 0 1-.0004 0 6.6487 6.4525 0 0 1-.8706-.1528Z"/></svg>