<svg xmlns="http://www.w3.org/2000/svg" xml:space="preserve" width="24" height="24" viewBox="0 0 24 24"><path d="M20.137 4.803 12.741.583a1.74 1.74 0 0 0-1.633 0l-7.396 4.22c-.5.272-.817.817-.817 1.407v8.62c0 .59.318 1.135.817 1.407l12.75 7.35V18.37l3.675-2.133c.5-.272.817-.816.817-1.406V6.21c.045-.59-.318-1.135-.817-1.407m-9.347 9.483a1.53 1.53 0 0 1-1.542 1.543 1.53 1.53 0 0 1-1.543-1.543c0-.862.68-1.542 1.543-1.542.408 0 .725.136.998.363l2.722-1.543c.136.317.318.635.5.907l-2.723 1.543c.045.09.045.182.045.272m4.719-2.042a1.53 1.53 0 0 1-1.543-1.542c0-.091 0-.182.046-.272l-3.72-2.133a1.6 1.6 0 0 1-1 .363A1.53 1.53 0 0 1 7.75 7.117c0-.862.68-1.542 1.543-1.542s1.543.68 1.543 1.542c0 .091 0 .182-.046.273l3.72 2.132c.273-.227.636-.408 1.044-.408.863 0 1.543.68 1.543 1.542-.045.863-.726 1.588-1.588 1.588" style="fill:#000;fill-opacity:1;stroke-width:.453734"/></svg>