<svg xmlns="http://www.w3.org/2000/svg"  viewBox="0 0 50 50" width="50px" height="50px"><path d="M 34.300781 7.1308594 C 33.92527 7.1800592 33.560376 7.3649971 33.363281 7.5664062 C 33.099665 7.8357925 33.004455 8.0652998 32.939453 8.1816406 A 1.0001 1.0001 0 0 0 32.935547 8.1894531 C 32.213097 9.5097128 31.941305 10.954896 31.966797 12.369141 A 1.0001 1.0001 0 0 0 31.966797 12.371094 C 32.025027 15.410638 33.378526 17.989716 35.855469 19.769531 C 35.784239 19.998001 35.705952 20.244534 35.626953 20.484375 C 34.654277 20.002701 33.736177 19.435228 32.939453 18.654297 A 1.0001 1.0001 0 0 0 32.933594 18.650391 C 31.268374 17.039609 29.69445 15.170733 27.640625 13.648438 A 1.0001 1.0001 0 0 0 27.638672 13.646484 C 27.214845 13.333749 26.786548 13.04303 26.347656 12.761719 C 26.005663 12.418326 25.897854 12.171118 25.875 12.011719 C 25.85127 11.846178 25.88521 11.704925 25.990234 11.521484 C 26.095262 11.338044 26.278891 11.140731 26.457031 10.996094 C 26.633945 10.852453 26.85276 10.751724 26.78125 10.777344 L 26.783203 10.775391 C 27.122355 10.652291 27.559893 10.344465 27.65625 9.7910156 C 27.75281 9.2364061 27.432766 8.7810367 27.144531 8.5507812 C 26.568063 8.0902707 25.881457 7.9758814 24.880859 7.9804688 C 22.916806 7.9894787 21.195632 8.6332569 19.154297 9.4140625 A 1.0001 1.0001 0 0 0 19.144531 9.4179688 C 18.934582 9.5007419 18.689869 9.5674791 18.427734 9.6269531 C 16.584746 9.3093664 14.685609 9.202393 12.705078 9.4257812 L 12.703125 9.4257812 C 8.6829603 9.8741723 5.3679607 11.834985 3.0097656 15.076172 C 0.18164957 18.9643 -0.48681736 23.44977 0.31445312 27.984375 C 1.1613733 32.78429 3.6423256 36.800838 7.3828125 39.888672 C 11.265759 43.092416 15.8328 44.696591 20.953125 44.394531 C 23.855973 44.227116 27.360845 43.727625 31.115234 40.728516 C 32.045302 41.088369 32.967459 41.348085 34.349609 41.466797 C 35.761104 41.597968 37.069059 41.398447 38.056641 41.193359 A 1.0001 1.0001 0 0 0 38.060547 41.193359 C 40.118778 40.758207 40.870828 38.208416 39.115234 37.386719 A 1.0001 1.0001 0 0 0 39.021484 37.349609 C 37.386574 36.776881 36.560421 36.403924 35.988281 36.126953 C 38.10676 33.741545 41.05081 30.629943 42.242188 22.580078 C 42.339908 21.917132 42.27832 21.5065 42.25 21.095703 C 43.288228 20.933468 44.326459 20.686461 45.287109 20.158203 C 48.383496 18.466341 49.702836 15.536414 49.986328 12.335938 A 1.0001 1.0001 0 0 0 49.986328 12.330078 C 50.010488 12.038832 50.023912 11.679776 49.888672 11.267578 C 49.753439 10.85538 49.406841 10.409012 48.941406 10.177734 A 1.0001 1.0001 0 0 0 48.935547 10.175781 C 48.404898 9.9156799 47.632514 10.074973 47.300781 10.326172 C 46.969049 10.577371 46.834158 10.76985 46.841797 10.763672 L 46.863281 10.746094 C 46.645847 10.912367 46.529482 11.062754 46.462891 11.134766 L 46.466797 11.128906 C 45.840166 11.798549 45.308477 12.112203 44.505859 12.068359 C 43.055562 11.987419 41.732403 12.49712 40.529297 13.316406 C 39.97581 12.185596 39.166989 11.255148 38.037109 10.751953 A 1.0001 1.0001 0 0 0 38.033203 10.75 C 37.329076 10.438944 36.842681 10.200226 36.533203 9.7773438 C 36.345079 9.5113251 36.261996 9.1213783 36.0625 8.5078125 A 1.0001 1.0001 0 0 0 36.056641 8.4902344 C 36.002826 8.3340527 35.938391 8.0961539 35.742188 7.8066406 C 35.546816 7.5183566 35.12842 7.199767 34.673828 7.1308594 C 34.552028 7.1124464 34.425952 7.1144594 34.300781 7.1308594 z M 34.503906 9.9648438 C 34.611689 10.296258 34.637732 10.569076 34.90625 10.945312 A 1.0001 1.0001 0 0 0 34.912109 10.953125 C 35.588753 11.882309 36.5244 12.269889 37.226562 12.580078 C 38.364257 13.087646 38.923337 13.663581 39.138672 14.929688 A 1.0001 1.0001 0 0 0 40.835938 15.464844 C 41.9193 14.367635 42.976822 13.984931 44.394531 14.064453 A 1.0001 1.0001 0 0 0 44.396484 14.064453 C 45.848975 14.143793 47.038921 13.424722 47.896484 12.519531 C 47.594488 15.11917 46.691946 17.112566 44.326172 18.404297 A 1.0001 1.0001 0 0 0 44.322266 18.40625 C 43.496167 18.860518 42.583306 19.122498 41.615234 19.236328 C 41.3143 19.266268 40.887985 19.349076 40.566406 19.734375 C 40.244828 20.119674 40.248059 20.517587 40.253906 20.767578 A 1.0001 1.0001 0 0 0 40.253906 20.773438 C 40.272396 21.421751 40.344972 21.737235 40.263672 22.289062 C 39.004257 30.795511 35.996115 33.086695 33.707031 35.794922 A 1.0001 1.0001 0 0 0 33.744141 37.128906 C 33.744141 37.128906 33.899195 37.274342 34.050781 37.376953 C 34.202368 37.479564 34.418424 37.608075 34.744141 37.773438 C 35.321397 38.066502 36.442784 38.524665 37.949219 39.070312 C 37.959219 39.110372 37.995549 39.162532 37.646484 39.236328 C 36.756609 39.420942 35.640282 39.579263 34.535156 39.476562 A 1.0001 1.0001 0 0 0 34.527344 39.476562 C 32.933601 39.340081 32.11472 39.173435 31.330078 38.783203 A 1.0001 1.0001 0 0 0 30.238281 38.914062 C 30.146068 38.992108 30.058226 39.048587 29.966797 39.123047 C 29.522127 38.820436 29.055288 38.457872 28.486328 37.980469 C 26.515328 36.315469 24.966344 34.284344 23.527344 32.152344 C 22.174344 30.144344 20.860047 28.091094 19.123047 26.371094 C 16.080047 23.352094 12.4505 21.445266 8.1875 20.822266 C 7.1775 20.674266 6.1379062 20.713391 5.1289062 20.900391 C 4.3629062 21.040391 4.1367813 21.313984 4.1757812 22.083984 C 4.3247812 25.273984 5.2224844 28.262828 6.7714844 31.048828 C 8.3754844 33.942828 10.651047 36.059109 13.373047 37.662109 C 13.483047 37.717109 15.822969 38.829094 17.167969 37.996094 C 17.777969 37.623094 17.621531 37.126016 17.394531 36.791016 C 17.066531 36.286016 16.832344 35.8885 16.652344 35.3125 C 16.480344 34.7295 16.339094 33.834109 17.121094 33.787109 C 17.958094 33.741109 19.983156 34.823422 24.160156 38.107422 C 25.780611 39.388732 28.025866 39.49018 29.640625 39.375 C 26.373091 41.911639 23.588794 42.239785 20.837891 42.398438 A 1.0001 1.0001 0 0 0 20.835938 42.398438 C 16.192308 42.672378 12.205303 41.273959 8.65625 38.345703 C 5.2327369 35.519537 3.0502361 31.972804 2.2851562 27.636719 C 1.5544268 23.501324 2.1350692 19.677825 4.6269531 16.251953 C 6.6963758 13.407665 9.4068742 11.804136 12.925781 11.412109 A 1.0001 1.0001 0 0 0 12.927734 11.412109 C 14.833542 11.196968 16.646304 11.272053 18.394531 11.603516 A 1.0001 1.0001 0 0 0 18.792969 11.597656 C 19.146404 11.520586 19.510705 11.423576 19.876953 11.279297 C 21.817884 10.537018 23.245579 10.055461 24.703125 10.009766 C 24.549899 10.183253 24.382956 10.301947 24.253906 10.527344 C 23.983559 10.999528 23.797985 11.621556 23.894531 12.294922 C 23.991081 12.968287 24.361293 13.634777 24.970703 14.226562 A 1.0001 1.0001 0 0 0 25.134766 14.355469 C 25.582674 14.637556 26.014968 14.933991 26.451172 15.255859 C 28.26041 16.597386 29.78288 18.385342 31.542969 20.087891 C 32.623846 21.14657 33.871107 22.04283 35.326172 22.650391 A 1.0001 1.0001 0 0 0 35.333984 22.652344 C 35.625589 22.771117 36.044431 22.914657 36.542969 22.697266 C 37.041507 22.479876 37.234227 22.033117 37.324219 21.740234 C 37.485197 21.21612 37.681775 20.672278 37.855469 20.082031 L 37.855469 20.080078 C 37.941039 19.807409 37.978811 19.417999 37.837891 19.060547 C 37.696702 18.70241 37.438789 18.468717 37.207031 18.310547 A 1.0001 1.0001 0 0 0 37.203125 18.306641 C 35.025766 16.836991 34.016603 14.931923 33.966797 12.332031 C 33.951537 11.485568 34.226369 10.724205 34.503906 9.9648438 z M 27.455078 22.146484 C 27.065953 22.125984 26.682172 22.193984 26.326172 22.396484 C 26.264172 22.443484 25.998359 22.707406 25.943359 22.816406 C 25.771359 23.151406 25.952875 23.42225 26.171875 23.53125 C 26.304875 23.60125 26.483687 23.6875 26.679688 23.6875 C 27.203687 23.6875 27.680641 23.774938 28.056641 24.085938 C 28.517641 24.466938 28.674203 24.885063 28.533203 25.539062 C 28.471203 25.842062 28.431953 26.372844 28.501953 26.714844 C 28.665953 27.515844 29.057469 27.773422 29.605469 28.232422 C 29.957469 28.528422 30.606172 28.769281 31.201172 28.738281 C 31.584172 28.722281 31.983812 28.582922 32.382812 28.419922 C 32.844813 28.224922 33.015813 27.904625 32.882812 27.515625 C 32.663812 26.893625 32.342234 26.349312 31.990234 25.820312 C 31.544234 25.143313 31.403094 24.893234 30.621094 23.990234 C 29.854094 23.243234 29.323141 22.715734 28.619141 22.427734 C 28.239641 22.276234 27.844203 22.166984 27.455078 22.146484 z M 26.78125 24.613281 C 26.43725 24.613281 26.164062 24.886516 26.164062 25.228516 C 26.164063 25.571516 26.429438 25.84375 26.773438 25.84375 C 27.117438 25.84375 27.392578 25.570516 27.392578 25.228516 C 27.392578 25.065516 27.330703 24.909781 27.220703 24.800781 C 27.157703 24.730781 27.078187 24.683344 26.992188 24.652344 C 26.930187 24.628344 26.85925 24.613281 26.78125 24.613281 z"/></svg>
