<svg width="24" height="24" version="1.1" viewBox="0 0 24 24" xmlns="http://www.w3.org/2000/svg">
 <g transform="translate(-98.16 -141.55)">
  <path d="m118.29 145.21c0.22205-1.287 0.54785-2.0963 0.90876-2.0979h7.7e-4c0.67301 2e-3 1.2186 2.809 1.2186 6.2743 0 3.4652-0.54635 6.2742-1.2201 6.2742-0.27619 0-0.53104-0.47696-0.73629-1.2762-0.3243 2.9257-0.99731 4.937-1.7764 4.937-0.6028 0-1.1438-1.2082-1.507-3.1136-0.24802 3.6237-0.87215 6.1946-1.6017 6.1946-0.4578 0-0.87521-1.0188-1.1842-2.6776-0.37161 3.4243-1.23 5.8236-2.2312 5.8236-1.0011 0-1.861-2.3986-2.2311-5.8236-0.30675 1.6588-0.72408 2.6776-1.1842 2.6776-0.72946 0-1.3521-2.5709-1.6016-6.1946-0.36321 1.9054-0.90267 3.1136-1.507 3.1136-0.7783 0-1.452-2.0105-1.7764-4.937-0.20372 0.80161-0.4601 1.2762-0.73633 1.2762-0.67376 0-1.2201-2.809-1.2201-6.2742 0-3.4653 0.54634-6.2743 1.2201-6.2743 0.36169 0 0.68521 0.81162 0.90955 2.0979 0.35939-2.2192 0.94313-3.6616 1.6031-3.6616 0.78365 0 1.4628 2.0399 1.784 5.0019 0.31434-2.1558 0.79124-3.5302 1.3254-3.5302 0.7485 0 1.3849 2.7031 1.6207 6.4737 0.4433-1.9333 1.085-3.146 1.7954-3.146 0.7104 0 1.3521 1.2136 1.7947 3.146 0.23654-3.7706 0.87215-6.4737 1.6207-6.4737 0.53335 0 1.0095 1.3743 1.3254 3.5302 0.32045-2.962 0.99954-5.0019 1.7832-5.0019 0.65776 0 1.2438 1.4432 1.6032 3.6616zm-20.129 3.5593c0-1.549 0.3098-2.8052 0.69208-2.8052s0.69208 1.2561 0.69208 2.8052c0 1.549-0.3098 2.8051-0.69208 2.8051s-0.69208-1.2561-0.69208-2.8051zm22.616 0c0-1.549 0.30975-2.8052 0.69206-2.8052 0.3823 0 0.69211 1.2561 0.69211 2.8052 0 1.549-0.30981 2.8051-0.69211 2.8051-0.38231 0-0.69206-1.2561-0.69206-2.8051z" clip-rule="evenodd" fill-rule="evenodd" stroke-width=".5"/>
 </g>
</svg>
