<svg xmlns="http://www.w3.org/2000/svg" xml:space="preserve" width="24" height="24" viewBox="0 0 24 24"><path fill="#fcfcfd" d="M19.6 21.208c-.174.134-.325.24-.494.376-.201.141-.384.253-.593.39-1.791 1.074-3.71 1.399-5.746 1.374-3.958-.049-7.918-.014-11.878-.014H.2c-.01-.255-.027-.448-.027-.641V1.323c0-.757.003-.76.748-.761C5.024.561 9.128.549 13.232.565c4.477.018 8.041 2.382 9.664 6.568 1.7 4.38 1.196 8.54-1.617 12.403-.004.037 0 .041-.035.05-.242.257-.449.506-.656.754-.049.041-.098.083-.157.145-.276.246-.542.47-.831.723m-1.883-10.802c0-.506.007-1.013-.004-1.519-.016-.722-.347-1.045-1.08-1.047-1.718-.006-3.436-.002-5.154-.002h-1.003c-.228-1.023-.42-1.178-1.41-1.178q-1.464-.002-2.93 0c-.922.002-1.244.315-1.246 1.23-.003 2.894.011 5.787-.013 8.68-.004.506.219.627.64.626q.84 0 1.681.002h9.603c.916-.001.916-.004.916-.933z" style="fill:#000;fill-opacity:1;stroke-width:.108545"/></svg>