<svg xmlns="http://www.w3.org/2000/svg" xml:space="preserve" width="24" height="24" viewBox="76.53 1 24 24"><path d="M88.324 1.244 81.74 11.3c-4.218 6.44.218 13.41 6.58 13.41 6.361 0 10.792-6.965 6.579-13.41zM86.457 9.74c1.762.061 3.333 1.28 4.21 3.198-3.593-1.467-5.482 2.278-4.88 4.028 1.306 3.806 6.227 4.76 9.857-1.583 0 0 .037.764.08 1.13.485 4.625-3.404 7.565-7.344 7.51s-5.144-1.588-6.306-3.348c-1.885-2.857-1.417-7.514 1.115-9.695 1.086-.896 2.211-1.276 3.268-1.24zm.163 1.188c-1.374-.064-2.79.73-3.634 2.302-1.223 2.292-1.07 5.033.694 6.996 2.56 2.857 6.334 2.329 8.172.329-3.218 1.023-5.57.49-7.12-2.274-1.117-1.99-.353-6.63 3.675-6.727a3.33 3.33 0 0 0-1.787-.626z" style="clip-rule:evenodd;fill:#000;fill-opacity:1;fill-rule:evenodd;stroke:#000;stroke-width:.147718;stroke-opacity:1"/></svg>