<svg xmlns="http://www.w3.org/2000/svg" width="24" height="24" viewBox="0 0 24 24"><path d="M11.003 0.202 C 8.226 0.469,5.701 1.657,3.739 3.619 C 0.911 6.447,-0.280 10.460,0.546 14.378 C 1.354 18.214,4.112 21.470,7.760 22.895 C 12.750 24.843,18.378 23.215,21.557 18.905 C 21.975 18.338,22.300 17.797,22.641 17.100 C 23.228 15.900,23.570 14.762,23.766 13.360 C 23.837 12.852,23.838 11.027,23.767 10.520 C 23.557 9.003,23.077 7.509,22.412 6.300 C 21.858 5.294,21.226 4.458,20.384 3.616 C 19.466 2.697,18.587 2.054,17.462 1.475 C 16.190 0.822,15.048 0.461,13.600 0.257 C 13.090 0.185,11.522 0.152,11.003 0.202 M11.200 1.530 C 11.199 1.682,10.377 4.668,10.306 4.776 C 10.218 4.910,10.018 5.011,9.840 5.011 C 9.535 5.011,9.280 4.766,9.280 4.472 C 9.280 4.344,9.979 1.650,10.025 1.602 C 10.053 1.573,10.846 1.448,11.030 1.444 C 11.181 1.440,11.200 1.450,11.200 1.530 M14.551 1.660 C 14.756 1.709,14.930 1.757,14.939 1.765 C 14.972 1.799,14.632 2.939,14.558 3.043 C 14.514 3.104,14.400 3.184,14.303 3.221 C 14.154 3.278,14.103 3.281,13.973 3.239 C 13.703 3.152,13.560 2.963,13.560 2.692 C 13.560 2.571,13.736 1.813,13.822 1.566 C 13.843 1.504,13.978 1.521,14.551 1.660 M18.790 3.750 C 18.998 3.921,19.214 4.099,19.270 4.146 L 19.371 4.231 19.295 4.383 C 19.184 4.607,19.035 4.700,18.787 4.700 C 18.522 4.700,18.351 4.585,18.260 4.345 C 18.196 4.178,18.197 4.155,18.283 3.806 C 18.332 3.604,18.381 3.440,18.392 3.440 C 18.402 3.440,18.581 3.579,18.790 3.750 M6.335 4.175 C 6.407 4.205,6.505 4.279,6.552 4.339 C 6.725 4.559,6.717 4.619,6.279 6.251 C 6.053 7.092,5.834 7.837,5.793 7.906 C 5.522 8.364,4.760 8.151,4.760 7.617 C 4.760 7.407,5.551 4.485,5.643 4.356 C 5.793 4.145,6.082 4.070,6.335 4.175 M16.438 4.753 C 16.594 4.837,16.720 5.044,16.720 5.219 C 16.720 5.321,16.133 7.590,16.095 7.636 C 16.088 7.644,15.942 7.561,15.771 7.450 C 15.600 7.340,15.375 7.200,15.270 7.141 C 15.165 7.081,15.080 7.026,15.080 7.019 C 15.080 6.948,15.620 5.036,15.665 4.950 C 15.795 4.700,16.163 4.606,16.438 4.753 M12.783 6.922 C 13.589 7.031,14.456 7.316,15.100 7.683 C 16.491 8.476,17.303 9.556,17.918 11.430 C 18.003 11.689,18.489 13.457,18.998 15.360 C 19.508 17.263,19.941 18.873,19.963 18.937 C 19.999 19.050,19.984 19.071,19.584 19.464 C 18.076 20.945,16.239 21.916,14.137 22.341 C 13.869 22.396,13.622 22.440,13.589 22.440 C 13.545 22.440,13.520 22.380,13.500 22.230 C 13.418 21.607,12.608 17.287,12.440 16.572 C 12.341 16.151,12.217 15.891,12.085 15.824 C 12.015 15.789,11.737 15.763,11.260 15.748 C 9.133 15.681,7.499 15.101,6.535 14.069 C 5.846 13.334,5.571 12.575,5.611 11.524 C 5.635 10.876,5.720 10.518,5.978 9.973 C 6.524 8.821,7.473 7.966,8.840 7.395 C 9.466 7.133,10.208 6.952,10.958 6.879 C 11.367 6.839,12.341 6.862,12.783 6.922 M3.072 6.936 C 3.131 6.967,3.223 7.038,3.275 7.094 C 3.459 7.291,3.442 7.412,3.001 9.040 C 2.778 9.865,2.564 10.594,2.526 10.660 C 2.387 10.903,2.017 10.991,1.770 10.840 C 1.619 10.749,1.617 10.726,1.699 10.218 C 1.864 9.201,2.222 8.110,2.704 7.151 C 2.848 6.866,2.890 6.842,3.072 6.936 M20.291 6.984 C 20.439 7.094,20.520 7.250,20.520 7.426 C 20.520 7.511,20.334 8.269,20.106 9.111 C 19.753 10.420,19.676 10.659,19.582 10.757 C 19.454 10.891,19.235 10.956,19.047 10.917 C 18.821 10.869,18.600 10.603,18.600 10.379 C 18.600 10.302,19.242 7.852,19.423 7.234 C 19.448 7.150,19.636 6.961,19.740 6.916 C 19.866 6.861,20.178 6.899,20.291 6.984 M12.099 8.856 C 11.929 8.930,11.729 9.172,11.697 9.342 C 11.573 10.002,12.248 10.479,12.805 10.125 C 13.407 9.744,13.132 8.796,12.422 8.802 C 12.311 8.802,12.166 8.827,12.099 8.856 M22.201 10.794 C 22.398 10.899,22.529 11.136,22.503 11.340 C 22.476 11.554,21.735 14.305,21.660 14.470 C 21.493 14.838,20.894 14.861,20.678 14.508 C 20.635 14.438,20.600 14.310,20.600 14.224 C 20.600 14.012,21.391 11.086,21.483 10.956 C 21.641 10.733,21.954 10.663,22.201 10.794 M4.708 11.478 C 4.867 11.575,4.960 11.749,4.960 11.948 C 4.959 12.143,4.189 15.004,4.093 15.167 C 3.934 15.437,3.550 15.512,3.288 15.326 C 3.135 15.216,3.026 14.949,3.060 14.766 C 3.111 14.494,3.842 11.817,3.900 11.690 C 4.023 11.419,4.435 11.312,4.708 11.478 M6.704 14.963 C 6.852 15.075,7.069 15.221,7.187 15.287 C 7.304 15.353,7.400 15.419,7.400 15.434 C 7.399 15.555,6.662 18.162,6.608 18.236 C 6.293 18.664,5.595 18.444,5.592 17.916 C 5.591 17.734,6.372 14.760,6.421 14.760 C 6.429 14.760,6.557 14.852,6.704 14.963 M12.027 17.798 C 12.182 17.892,12.234 17.982,12.264 18.208 C 12.283 18.347,12.210 18.668,11.882 19.878 C 11.660 20.703,11.446 21.431,11.407 21.498 C 11.313 21.659,11.023 21.781,10.824 21.743 C 10.633 21.708,10.412 21.487,10.377 21.296 C 10.355 21.180,10.434 20.834,10.760 19.625 C 10.985 18.786,11.196 18.050,11.227 17.988 C 11.356 17.735,11.765 17.638,12.027 17.798 M8.821 19.201 C 8.967 19.291,9.080 19.494,9.080 19.666 C 9.080 19.781,8.543 21.830,8.502 21.871 C 8.442 21.931,7.434 21.467,7.459 21.390 C 7.468 21.363,7.586 20.927,7.721 20.422 C 7.856 19.916,7.993 19.452,8.025 19.390 C 8.158 19.134,8.558 19.038,8.821 19.201 " fill="currentColor" stroke="none" fill-rule="evenodd"></path></svg>