<svg width="24" height="24" viewBox="0 0 24 24" xmlns="http://www.w3.org/2000/svg">
  <path fill="currentColor"
    d="M22 12c0-5.523-4.477-10-10-10S2 6.477 2 12s4.477 10 10 10s10-4.477 10-10M7.063 5.382c.256.069.41.33.347.587l-.003.011l-.664 2.461l-.003.012a.488.488 0 0 1-.943-.254l.003-.012l.664-2.461l.004-.012a.49.49 0 0 1 .595-.332m8.532.465c.257.07.41.33.348.587l-.003.012l-.522 1.933l-.043-.032a5.5 5.5 0 0 0-.825-.502l.447-1.654L15 6.18a.49.49 0 0 1 .595-.332m-4.343-2.775a.5.5 0 0 1-.002.22l-.003.012l-.665 2.461l-.003.012a.488.488 0 0 1-.942-.254l.003-.012l.619-2.295l.065-.013a9 9 0 0 1 .928-.13m6.11 1.7l.058.043q.402.3.77.643l-.015.052l-.003.012a.488.488 0 0 1-.943-.254l.003-.012zM13.5 3.152l.07.012q.447.075.885.197l-.248.919l-.003.011a.488.488 0 0 1-.942-.254l.003-.012zm-1.668 13.763a.5.5 0 0 1 .306.246l.014.072l.023.114l.016.08l-.002.019l-.01.055l-.003.012l-.664 2.461l-.003.012a.488.488 0 0 1-.943-.254l.003-.012l.664-2.461l.003-.012a.49.49 0 0 1 .596-.332M7.203 14.38q.372.326.846.576l-.602 2.232l-.003.012a.488.488 0 0 1-.943-.255l.003-.012l.664-2.46l.005-.017zM5.62 11.55c.256.07.41.33.347.587l-.003.012l-.664 2.46l-.003.012a.488.488 0 0 1-.943-.254l.003-.012l.664-2.46l.003-.012a.49.49 0 0 1 .596-.333m14.89-.559c.256.07.41.33.347.587l-.003.012l-.664 2.46l-.004.013a.488.488 0 0 1-.942-.255l.003-.011l.664-2.462l.003-.011a.49.49 0 0 1 .596-.333M4.174 7.705a.488.488 0 0 1 .463.604l-.004.012l-.664 2.46l-.003.012a.488.488 0 0 1-.835.184a8.9 8.9 0 0 1 1.043-3.272m14.654.017c.256.07.41.33.347.587l-.003.012l-.664 2.46l-.003.012a.488.488 0 0 1-.943-.254l.003-.012l.664-2.46l.003-.013a.49.49 0 0 1 .596-.332M9.11 18.106c.257.069.41.33.347.587l-.003.011l-.475 1.762l-.066-.025a9 9 0 0 1-.84-.364l.438-1.627l.004-.012a.49.49 0 0 1 .595-.332m2.554-10.424c1.399 0 2.599.387 3.543 1.125c1.174.918 1.617 2.182 1.997 3.553l1.522 5.679a9.05 9.05 0 0 1-5.482 2.888a61 61 0 0 0-.454-2.569l-.024-.13l-.095-.495v-.003c-.17-.894-.35-1.851-.426-2.06c-.09-.248-.168-.433-.443-.427c-3.226.069-5.308-1.304-5.308-3.454c0-2.277 2.262-4.107 5.17-4.107" />
  <path fill="currentColor" d="M12.29 9.326a.625.625 0 1 1 0 1.25a.625.625 0 0 1 0-1.25" />
</svg>