<svg xmlns="http://www.w3.org/2000/svg" width="24" height="24" fill="none" viewBox="0 0 24 24"><path d="M8.125 1.325c-1.578 0-3.126.588-4.364 1.444-1.232.853-2.232 2.024-2.645 3.264l-.01.035C.403 8.172-.356 10.454.397 13.47c.376 1.506 1.118 2.983 1.844 4.16.721 1.173 1.46 2.103 1.863 2.508.155.155.365.291.564.407.21.12.456.242.72.363q1.747.764 3.578 1.29c.262.075.504.137.707.182.187.04.394.077.564.077.057 0 .177.01.4.025l.024.003c.203.014.46.032.76.05.62.033 1.418.055 2.289.01 1.713-.09 3.825-.452 5.404-1.637 2.36-1.77 3.926-4.166 4.433-5.179l.303-.608-7.843-4.279c.575-2.182.478-4.938-.957-7.09-.813-1.22-1.85-1.84-3.057-2.141-1.141-.286-2.448-.286-3.809-.286Zm0 1.408c1.434 0 2.572.006 3.528.245.907.226 1.63.662 2.226 1.555 1.25 1.877 1.278 4.442.627 6.411l-.06.163c-.3.686-1.067 1.237-2.015 1.631-.992.415-1.955.562-2.193.562-.204 0-.93-.13-1.593-.644-.623-.483-1.225-1.336-1.225-2.878 0-1.18.477-1.848 1.03-2.246.587-.422 1.313-.572 1.788-.572.083 0 .31.073.592.355.263.263.482.619.578.974.095.35.06.64-.08.856-.138.218-.464.493-1.227.646l.275 1.382c.999-.2 1.726-.628 2.138-1.269s.422-1.367.253-1.987a3.7 3.7 0 0 0-.941-1.598c-.4-.4-.967-.768-1.588-.768-.7 0-1.733.204-2.614.837-.916.659-1.612 1.751-1.612 3.39 0 1.979.805 3.24 1.769 3.99.923.718 1.958.94 2.457.94.467 0 1.615-.205 2.735-.67q.536-.222 1.032-.52l.003.167c.027 1.042.35 2.235 1.417 2.98.44.423 1.582 1.348 3.04 1.64.44.087.914.118 1.401.058q-.744.77-1.599 1.417c-1.238.928-3 1.27-4.633 1.356-.803.043-1.544.022-2.136-.01a38 38 0 0 1-.737-.047l-.039-.003h-.008a7 7 0 0 0-.473-.028s-.021 0-.069-.008a3 3 0 0 1-.2-.038 11 11 0 0 1-.62-.157 27 27 0 0 1-3.379-1.22 8 8 0 0 1-.602-.302 1.6 1.6 0 0 1-.27-.182c-.302-.301-.972-1.132-1.66-2.248-.684-1.113-1.348-2.45-1.675-3.764-.651-2.6-.015-4.539.688-6.65.291-.874 1.052-1.816 2.11-2.549 1.051-.728 2.323-1.197 3.56-1.197m7.46 9.483 6.282 3.425c-.49.58-.974.925-1.42 1.118a2.8 2.8 0 0 1-1.706.165c-1.127-.226-2.062-.996-2.37-1.305l-.049-.05-.058-.038c-.576-.384-.826-1.05-.847-1.88h-.003c-.011-.494.065-.999.17-1.435" style="fill:#000;fill-opacity:1;stroke-width:1.40885"/></svg>
