<svg width="24" height="24" viewBox="0 0 24 24" fill="none" xmlns="http://www.w3.org/2000/svg">
    <path fill="black"
        d="m23 1.542-.02-.104-.168-.209-.145-.146-.25-.083h-9.875l-1.125.042-.5.041-1.167.167-.375.125-.458.125-.667.167-.667.291-.583.25-.542.292-.666.417-.5.375-.542.416-.583.542-.625.75-.584.75-.583.958-.458.875-.334.875L1.292 9.5l-.209 1.042-.083.833v1.458l.083.834.209.958.25.833L2 16.625l.375.792.75 1.166.708.834.75.791.834.625 1.416.917L8 22.292l1 .375.875.166.583.125.625.042h1.792l1.167-.167.75-.125.75-.25.75-.291.708-.334.708-.375.584-.375.5-.375.666-.541.584-.625.541-.625.417-.5.5-.792.417-.792.416-.916.209-.625.291-1.167.125-.917.042-.333V1.542Z" />
    <path fill="white" d="M19.333 12.042a7.333 7.333 0 1 1-14.666 0 7.333 7.333 0 0 1 14.666 0Z" />
    <path fill="black" d="M17.833 12.042a5.833 5.833 0 1 1-11.666 0 5.833 5.833 0 0 1 11.666 0Z" />
</svg>