<svg xmlns="http://www.w3.org/2000/svg" width="24" height="24" fill="none"><path d="M10.960 2.863 C 10.905 2.872,10.698 2.899,10.500 2.923 C 8.881 3.120,7.221 3.751,5.770 4.720 C 3.045 6.541,1.296 9.328,0.814 12.620 C 0.715 13.290,0.715 14.830,0.814 15.500 C 1.059 17.173,1.634 18.729,2.546 20.184 C 2.951 20.831,3.252 21.065,3.803 21.160 C 4.173 21.224,4.460 21.164,5.150 20.875 C 7.098 20.062,8.808 19.591,10.540 19.392 C 11.108 19.327,12.892 19.327,13.460 19.392 C 15.193 19.591,16.908 20.063,18.850 20.876 C 19.531 21.161,19.837 21.225,20.203 21.161 C 20.748 21.065,21.077 20.804,21.486 20.140 C 22.382 18.687,22.944 17.153,23.186 15.500 C 23.285 14.830,23.285 13.290,23.186 12.620 C 22.826 10.163,21.793 8.033,20.124 6.309 C 19.476 5.640,18.964 5.211,18.230 4.720 C 16.820 3.778,15.396 3.223,13.653 2.936 C 13.280 2.875,11.224 2.819,10.960 2.863 " stroke="none" fill-rule="evenodd"></path></svg>