<svg xmlns="http://www.w3.org/2000/svg" xml:space="preserve" width="24" height="24" viewBox="0 0 12.74 12.74"><path d="M7.297 6.872a.4.4 0 0 0-.376.32v.633a.39.39 0 0 0 .376.307c.291 0 .458-.231.458-.635 0-.147-.033-.625-.458-.625M3.629 7.178h.522l-.27-.936z"/><path d="M2.267.065 1.168 1.68v11.028h8.888v-.011l.028.002 1.637-1.252V.065Zm2.342 8.86-.279-.927h-.877l-.258.927H2.13l1.167-3.82h1.226l1.185 3.82zm3.781-.327a1.24 1.24 0 0 1-.9.386 1 1 0 0 1-.717-.27l-.019.21h-.87V4.912h1.024V6.26c.182-.145.422-.222.7-.222.307 0 .58.112.791.324.258.26.398.652.395 1.104 0 .464-.14.856-.404 1.133m2.438 2.408-.772.59V1.682H2.254l.488-.723h8.086z"/></svg>