<svg xmlns="http://www.w3.org/2000/svg" width="27" height="28" fill="none" viewBox="0 0 27 28"><path fill="#000" d="m19.25 16.62-.18.18c-.32.32-.91.55-1.4.55-.42 0-.84-.17-1.09-.43l-.15-.17-.07-.2c-.17-.57.01-1.1.47-1.41.34-.22.86-.4 1.9-.62l.44-.08h.08zM9.05 9.45c.06-.18.07-.18.3.45l.97 2.78.3.84c.05.16.1.3.08.32a41 41 0 0 1-3.15 0c-.01-.02.07-.28.68-2.02z"/><path fill="#000" fill-rule="evenodd" d="m15 0-.02 5.58.04.16.07.12.12.1.16.08.13.03h.13l.05-.02.64-.37 1.09-.61s.85-.58.95-.58 1.04.6 1.04.61l.56.33.4.23.47.3.15.08.11.03h.13l.15-.03.17-.09.11-.14.07-.2.01-.18V.29l-.09-.02h.03a6 6 0 0 1 3.26 1.74c.78.78 1.25 1.51 1.58 2.48.24.7.37 1.44.45 2.68l.05.59v11.51l-.05.58c-.04.63-.11 1.28-.17 1.59-.16.87-.5 1.76-.93 2.42a7 7 0 0 1-2.02 2.02 7 7 0 0 1-2.27.9c-.57.12-1.12.18-2.1.24-.55.03-11.35.03-11.9 0-1.4-.08-2.2-.2-2.95-.46a8 8 0 0 1-1.66-.82c-1-.73-1.82-1.7-2.26-2.7a9 9 0 0 1-.65-3.26L0 19.11v-5.33c0-2.94-.02-5.9 0-6.3A8 8 0 0 1 .67 4.1q.16-.33.02.07A6 6 0 0 0 .36 5.3c.01 0 .07-.15.14-.36a6.82 6.82 0 0 1 2.34-3.3l.15-.12A7 7 0 0 1 6.15.22L6.12.2 6.08.16l.13.02q.14.01.16-.02.02-.04.12-.01.08 0 .14-.02A188.34 188.34 0 0 0 8.38.01h3.51zm4.94 11.43c-.54-.46-1.45-.65-2.53-.54-.79.09-1.61.44-1.97.84-.19.22-.27.42-.29.68l-.01.22.05.15c.1.26.39.44.71.45.49 0 .8-.29.8-.73 0-.24-.04-.33-.2-.5l-.14-.15.04-.04c.14-.11.53-.2 1-.22l.43-.02.26.06q.93.2 1.11 1.06c.05.21.07 1.12.03 1.12l-1.31.28c-.83.2-1.09.26-1.36.36-.37.14-.72.32-.96.5-.63.46-.85 1.4-.51 2.13l.1.22.23.23c.42.41.88.58 1.58.58a2.9 2.9 0 0 0 2.1-.79q.17-.16.2-.16l.1.23q.2.39.6.58l.18.09h.95l.23-.1c.12-.04.26-.11.31-.15l.1-.06v-.44l-.1.03c-.18.04-.5.02-.62-.03a1 1 0 0 1-.38-.33l-.06-.1-.04-4.3-.06-.21c-.11-.41-.28-.69-.57-.94m-9.85-3.49c0-.02-1.18 0-1.2.03l-.24.66-1.03 2.78-1.15 3.14c-.8 2.18-.88 2.35-1.14 2.6-.17.15-.35.22-.68.28l-.25.04-.02.5 3.27-.01v-.45l-.05-.03-.32-.07a2 2 0 0 1-.43-.13l-.15-.08-.15-.3.05-.24c.03-.2.5-1.64.67-2.07l.03-.1 3.66.02.16.43c.52 1.47.58 1.66.58 1.9 0 .31-.2.47-.71.56l-.33.07q-.04 0-.04.26v.25h3.97l-.02-.51-.24-.04c-.46-.08-.65-.2-.85-.5-.19-.29-.3-.56-.9-2.22l-.68-1.85-1.23-3.33z" clip-rule="evenodd"/></svg>