<svg xmlns="http://www.w3.org/2000/svg" width="24" height="24" fill="none"><path fill="#000" d="M14.27 4.51C9.91 2.93 3.53.02 3.53.02 3.08-.1 3 .34 3 .34c-.14 1.76.97 4.63 1.55 5.27.57.65 9.2 3.28 9.2 3.28S7.13 7.55 5.53 7.1c-1.6-.46-1.1.52-1.1.52.33 1.78 1.87 3.8 3.1 3.99 1.21.19 6.34.11 6.34.11s-1.02.12-2.69.35c-1.23.16-2.8.36-3.2.51-.95.36.7 1.8.7 1.8 2.44 2.22 3.73 1.46 3.73 1.46.96-.3 1.77-.53 2.46-.7l-.85 3.54h2.44L15.12 24l5.92-7.84h-3.1l.64-1.12.01.02s2.2-3.52 3.05-5.32l.01-.02c.14-.32.25-.57.29-.75.49-2.06-3.3-2.87-7.67-4.46Z"/></svg>