<svg xmlns="http://www.w3.org/2000/svg" width="24" height="24" viewBox="0 0 24 24"><path d="M11.740 0.680 C 11.420 0.733,10.482 1.158,10.038 1.453 C 9.932 1.523,9.696 1.666,9.513 1.771 C 9.330 1.876,9.153 1.979,9.120 1.999 C 9.087 2.019,8.943 2.102,8.800 2.183 C 8.114 2.572,6.628 3.431,6.363 3.592 C 6.199 3.691,5.985 3.796,5.887 3.826 C 5.789 3.855,5.681 3.902,5.647 3.930 C 5.595 3.972,5.590 3.970,5.618 3.920 C 5.636 3.887,5.584 3.927,5.502 4.009 C 5.420 4.090,5.364 4.174,5.376 4.194 C 5.389 4.214,5.368 4.255,5.330 4.285 C 5.265 4.336,5.264 4.334,5.320 4.260 C 5.376 4.185,5.375 4.184,5.308 4.236 C 5.269 4.267,5.246 4.317,5.257 4.346 C 5.268 4.375,5.264 4.395,5.249 4.391 C 5.233 4.387,5.181 4.405,5.133 4.431 C 5.063 4.470,5.035 4.469,4.989 4.423 C 4.910 4.344,4.871 3.910,4.924 3.700 C 4.948 3.605,4.959 3.431,4.948 3.313 C 4.878 2.545,4.826 2.165,4.777 2.064 C 4.746 2.000,4.720 1.887,4.720 1.812 C 4.720 1.449,4.391 1.223,4.016 1.326 C 3.913 1.355,3.767 1.461,3.573 1.649 C 3.414 1.804,3.287 1.942,3.292 1.956 C 3.306 2.000,2.995 2.358,2.951 2.349 C 2.929 2.344,2.902 2.367,2.892 2.400 C 2.876 2.453,2.879 2.453,2.920 2.400 C 2.961 2.347,2.964 2.347,2.950 2.400 C 2.941 2.433,2.911 2.460,2.884 2.460 C 2.818 2.460,2.682 2.642,2.681 2.732 C 2.680 2.772,2.664 2.795,2.645 2.783 C 2.611 2.762,2.523 2.845,2.458 2.960 C 2.428 3.013,2.433 3.013,2.499 2.960 C 2.572 2.902,2.572 2.903,2.502 3.010 C 2.430 3.121,2.374 3.162,2.421 3.070 C 2.435 3.042,2.409 3.062,2.363 3.114 C 2.317 3.166,2.280 3.233,2.280 3.263 C 2.280 3.330,1.975 3.808,1.942 3.792 C 1.920 3.781,1.760 4.019,1.760 4.063 C 1.760 4.075,1.780 4.072,1.804 4.058 C 1.834 4.039,1.834 4.057,1.802 4.116 C 1.777 4.164,1.740 4.192,1.721 4.181 C 1.681 4.156,1.619 4.311,1.635 4.394 C 1.641 4.424,1.626 4.436,1.603 4.422 C 1.579 4.407,1.557 4.419,1.554 4.448 C 1.551 4.476,1.544 4.518,1.539 4.540 C 1.533 4.562,1.527 4.607,1.524 4.640 C 1.520 4.686,1.511 4.688,1.486 4.649 C 1.456 4.601,1.249 4.992,1.121 5.336 C 1.083 5.438,1.085 5.446,1.139 5.401 C 1.216 5.337,1.216 5.357,1.138 5.525 C 1.095 5.618,1.082 5.630,1.096 5.563 C 1.113 5.482,1.108 5.476,1.063 5.523 C 0.981 5.612,0.921 5.825,0.966 5.870 C 0.991 5.895,0.984 5.930,0.946 5.969 C 0.895 6.020,0.760 6.294,0.760 6.347 C 0.760 6.357,0.778 6.354,0.800 6.340 C 0.822 6.326,0.840 6.334,0.840 6.358 C 0.840 6.381,0.814 6.400,0.783 6.400 C 0.705 6.400,0.667 6.535,0.695 6.713 C 0.709 6.804,0.706 6.831,0.686 6.783 C 0.656 6.710,0.652 6.710,0.626 6.778 C 0.611 6.818,0.619 6.874,0.643 6.904 C 0.668 6.933,0.678 6.980,0.667 7.009 C 0.655 7.039,0.645 7.028,0.643 6.983 C 0.640 6.895,0.590 6.929,0.573 7.031 C 0.559 7.122,0.364 7.992,0.330 8.120 C 0.315 8.175,0.302 8.549,0.302 8.950 C 0.301 9.352,0.286 9.680,0.270 9.680 C 0.227 9.680,0.233 9.832,0.279 9.918 C 0.304 9.965,0.304 10.109,0.279 10.325 C 0.183 11.149,0.563 12.981,1.087 14.220 C 1.359 14.866,1.425 15.003,1.690 15.480 C 2.602 17.121,3.671 18.331,5.200 19.453 C 5.409 19.606,5.672 19.818,5.785 19.923 C 5.897 20.028,6.055 20.142,6.136 20.176 C 6.329 20.256,6.684 20.633,6.836 20.918 C 7.025 21.274,7.075 21.536,7.105 22.345 C 7.120 22.751,7.148 23.092,7.166 23.104 C 7.185 23.115,7.203 23.047,7.207 22.952 C 7.213 22.788,7.214 22.790,7.237 23.000 C 7.258 23.204,7.268 23.221,7.380 23.245 C 7.446 23.259,9.590 23.273,12.144 23.275 L 16.789 23.280 17.022 23.162 C 17.150 23.098,17.270 23.054,17.288 23.065 C 17.305 23.076,17.320 23.060,17.320 23.031 C 17.320 22.998,17.276 22.977,17.210 22.978 C 17.119 22.980,17.098 22.961,17.087 22.870 C 17.078 22.791,17.093 22.760,17.137 22.760 C 17.172 22.760,17.200 22.732,17.200 22.698 C 17.200 22.663,17.218 22.646,17.240 22.660 C 17.262 22.674,17.280 22.652,17.280 22.612 C 17.280 22.573,17.305 22.493,17.335 22.436 C 17.364 22.379,17.400 22.262,17.413 22.176 C 17.431 22.067,17.427 22.044,17.402 22.100 C 17.371 22.167,17.365 22.169,17.363 22.111 C 17.361 22.073,17.422 21.927,17.498 21.786 C 17.574 21.645,17.628 21.521,17.618 21.511 C 17.607 21.500,17.626 21.440,17.659 21.376 C 17.692 21.312,17.720 21.223,17.720 21.177 C 17.720 21.131,17.765 21.052,17.820 21.000 C 17.875 20.948,17.920 20.881,17.920 20.851 C 17.920 20.820,17.935 20.805,17.954 20.816 C 17.973 20.828,18.030 20.793,18.081 20.739 C 18.132 20.684,18.194 20.640,18.219 20.640 C 18.268 20.640,18.491 20.424,18.484 20.384 C 18.472 20.312,18.484 20.278,18.515 20.297 C 18.534 20.308,18.581 20.283,18.620 20.240 C 18.659 20.197,18.705 20.171,18.722 20.182 C 18.754 20.201,18.823 20.047,18.808 19.990 C 18.804 19.973,18.821 19.960,18.846 19.960 C 18.921 19.960,19.240 19.598,19.240 19.513 C 19.240 19.470,19.258 19.446,19.280 19.460 C 19.302 19.474,19.320 19.442,19.320 19.389 C 19.320 19.228,19.549 19.085,19.620 19.201 C 19.664 19.271,19.720 19.200,19.720 19.076 C 19.720 18.999,19.745 18.947,19.793 18.929 C 19.833 18.913,20.068 18.684,20.316 18.420 C 20.564 18.156,20.877 17.823,21.013 17.680 C 21.149 17.537,21.291 17.366,21.330 17.300 C 21.388 17.199,21.550 16.981,21.721 16.772 C 21.742 16.745,21.760 16.713,21.760 16.700 C 21.760 16.687,21.798 16.637,21.843 16.588 C 21.889 16.540,21.964 16.428,22.009 16.340 C 22.054 16.252,22.129 16.127,22.175 16.062 C 22.491 15.621,23.139 14.224,23.317 13.600 C 23.364 13.435,23.418 13.272,23.437 13.238 C 23.456 13.203,23.492 13.068,23.518 12.938 C 23.543 12.807,23.581 12.664,23.601 12.620 C 23.661 12.492,23.774 11.800,23.841 11.160 C 23.867 10.916,23.912 10.699,23.948 10.643 C 23.998 10.566,24.005 10.487,23.981 10.243 C 23.965 10.077,23.948 9.634,23.944 9.260 C 23.939 8.873,23.918 8.545,23.893 8.500 C 23.870 8.456,23.838 8.312,23.822 8.180 C 23.781 7.841,23.774 7.793,23.748 7.680 C 23.736 7.625,23.696 7.445,23.660 7.280 C 23.624 7.115,23.571 6.899,23.542 6.800 C 23.363 6.192,23.307 6.016,23.281 5.980 C 23.264 5.958,23.239 5.890,23.224 5.829 C 23.210 5.768,23.156 5.624,23.105 5.509 C 23.011 5.299,22.952 5.157,22.941 5.120 C 22.910 5.007,22.657 4.533,22.615 4.508 C 22.585 4.490,22.560 4.450,22.560 4.418 C 22.560 4.336,22.427 4.040,22.391 4.040 C 22.374 4.040,22.360 4.006,22.360 3.965 C 22.360 3.924,22.333 3.867,22.300 3.840 C 22.267 3.813,22.240 3.757,22.240 3.717 C 22.240 3.676,22.196 3.602,22.142 3.552 C 22.088 3.501,21.999 3.359,21.945 3.235 C 21.846 3.010,21.602 2.761,21.481 2.759 C 21.432 2.759,21.431 2.752,21.474 2.725 C 21.540 2.683,21.443 2.567,20.794 1.905 C 20.485 1.591,20.311 1.441,20.278 1.461 C 20.245 1.482,20.238 1.476,20.257 1.445 C 20.275 1.415,20.234 1.377,20.144 1.339 C 19.962 1.263,19.876 1.265,19.682 1.348 C 19.559 1.402,19.512 1.452,19.466 1.578 C 19.387 1.797,19.337 2.413,19.359 2.900 C 19.386 3.482,19.382 3.702,19.342 4.060 C 19.322 4.236,19.309 4.416,19.312 4.460 C 19.343 4.833,19.347 4.819,19.228 4.833 C 19.135 4.844,19.120 4.860,19.140 4.933 C 19.161 5.009,19.158 5.011,19.120 4.950 C 19.096 4.911,19.087 4.862,19.100 4.840 C 19.114 4.818,19.106 4.800,19.082 4.800 C 19.059 4.800,19.040 4.760,19.040 4.710 C 19.040 4.647,18.986 4.586,18.859 4.506 C 18.667 4.384,18.600 4.296,18.600 4.163 C 18.600 4.117,18.579 4.080,18.554 4.080 C 18.528 4.080,18.344 3.974,18.144 3.845 C 17.944 3.715,17.688 3.558,17.575 3.495 C 17.194 3.281,16.942 3.136,15.626 2.366 C 14.903 1.943,14.225 1.553,14.119 1.500 C 14.013 1.446,13.857 1.355,13.773 1.297 C 13.563 1.153,12.776 0.777,12.580 0.727 C 12.335 0.665,11.962 0.644,11.740 0.680 M13.345 3.980 C 13.358 4.013,13.387 4.028,13.411 4.013 C 13.461 3.983,13.422 4.559,13.372 4.597 C 13.354 4.609,13.337 4.638,13.332 4.660 C 13.320 4.723,13.042 5.224,13.041 5.184 C 13.040 5.165,12.986 5.217,12.920 5.300 C 12.769 5.490,12.440 5.704,12.183 5.781 C 11.939 5.854,11.939 5.854,11.864 5.779 C 11.776 5.690,11.806 5.300,11.917 5.098 C 12.229 4.535,12.389 4.375,12.921 4.099 C 13.305 3.900,13.314 3.898,13.345 3.980 M1.454 4.822 C 1.441 4.856,1.422 4.875,1.411 4.864 C 1.401 4.854,1.404 4.826,1.418 4.803 C 1.458 4.739,1.481 4.751,1.454 4.822 M1.374 4.982 C 1.361 5.016,1.342 5.035,1.331 5.024 C 1.321 5.014,1.324 4.986,1.338 4.963 C 1.378 4.899,1.401 4.911,1.374 4.982 M4.878 6.488 L 4.857 7.500 4.855 6.220 C 4.854 5.516,4.863 5.061,4.876 5.208 C 4.889 5.356,4.890 5.932,4.878 6.488 M4.947 5.088 C 4.935 5.119,4.925 5.110,4.923 5.063 C 4.921 5.021,4.931 4.998,4.944 5.011 C 4.957 5.024,4.959 5.059,4.947 5.088 M1.265 5.226 C 1.231 5.289,1.202 5.327,1.202 5.312 C 1.199 5.264,1.292 5.079,1.310 5.096 C 1.319 5.105,1.299 5.164,1.265 5.226 M19.227 5.367 C 19.215 5.399,19.205 5.390,19.203 5.343 C 19.201 5.301,19.211 5.278,19.224 5.291 C 19.237 5.304,19.239 5.339,19.227 5.367 M19.229 5.889 C 19.221 5.983,19.214 5.916,19.214 5.740 C 19.214 5.564,19.220 5.487,19.229 5.569 C 19.238 5.651,19.238 5.795,19.229 5.889 M13.601 5.882 C 13.999 5.932,14.289 6.053,14.568 6.286 C 14.883 6.550,14.885 6.599,14.600 6.910 C 14.316 7.219,14.136 7.562,14.075 7.909 C 14.039 8.115,14.044 8.212,14.099 8.463 C 14.178 8.814,14.264 9.040,14.321 9.040 C 14.342 9.040,14.360 9.062,14.360 9.089 C 14.360 9.144,14.719 9.520,14.771 9.520 C 14.790 9.520,14.831 9.543,14.861 9.570 C 14.892 9.598,14.945 9.643,14.979 9.672 C 15.072 9.750,15.053 9.934,14.920 10.226 C 14.854 10.372,14.800 10.507,14.800 10.527 C 14.800 10.591,14.200 11.379,13.990 11.591 C 13.851 11.731,13.497 11.847,13.200 11.849 C 12.988 11.851,12.892 11.828,12.680 11.726 C 12.443 11.611,12.385 11.600,12.029 11.600 C 11.695 11.600,11.601 11.615,11.389 11.706 C 11.101 11.829,10.612 11.877,10.395 11.804 C 10.173 11.729,9.821 11.363,9.449 10.818 C 9.139 10.363,8.899 9.784,8.759 9.154 C 8.659 8.706,8.650 7.853,8.742 7.498 C 9.070 6.226,10.114 5.641,11.360 6.032 C 11.930 6.211,11.950 6.212,12.347 6.076 C 12.654 5.970,13.095 5.853,13.221 5.843 C 13.244 5.841,13.415 5.859,13.601 5.882 M0.627 7.208 C 0.615 7.239,0.605 7.230,0.603 7.183 C 0.601 7.141,0.611 7.118,0.624 7.131 C 0.637 7.144,0.639 7.179,0.627 7.208 M0.587 7.367 C 0.575 7.399,0.565 7.390,0.563 7.343 C 0.561 7.301,0.571 7.278,0.584 7.291 C 0.597 7.304,0.599 7.339,0.587 7.367 M19.430 9.092 C 19.423 9.361,19.417 9.130,19.417 8.580 C 19.417 8.030,19.423 7.811,19.430 8.092 C 19.437 8.374,19.437 8.824,19.430 9.092 M0.507 7.768 C 0.495 7.799,0.485 7.790,0.483 7.743 C 0.481 7.701,0.491 7.678,0.504 7.691 C 0.517 7.704,0.519 7.739,0.507 7.768 M0.427 8.328 C 0.415 8.359,0.405 8.350,0.403 8.303 C 0.401 8.261,0.411 8.238,0.424 8.251 C 0.437 8.264,0.439 8.299,0.427 8.328 M0.347 9.248 C 0.335 9.279,0.325 9.270,0.323 9.223 C 0.321 9.181,0.331 9.158,0.344 9.171 C 0.357 9.184,0.359 9.219,0.347 9.248 M0.348 10.450 C 0.339 10.500,0.331 10.459,0.331 10.360 C 0.331 10.261,0.339 10.220,0.348 10.270 C 0.358 10.320,0.358 10.400,0.348 10.450 M19.230 10.829 C 19.222 10.956,19.215 10.862,19.215 10.620 C 19.215 10.378,19.221 10.274,19.229 10.389 C 19.237 10.503,19.238 10.701,19.230 10.829 M19.389 11.370 C 19.381 11.486,19.375 11.391,19.375 11.160 C 19.375 10.929,19.381 10.835,19.389 10.950 C 19.398 11.066,19.398 11.255,19.389 11.370 M19.183 11.725 C 19.159 11.905,18.873 12.560,18.819 12.560 C 18.808 12.560,18.837 12.485,18.884 12.393 C 19.015 12.135,19.160 11.729,19.160 11.619 C 19.160 11.565,19.171 11.520,19.185 11.520 C 19.199 11.520,19.198 11.612,19.183 11.725 M19.400 11.800 C 19.400 11.822,19.382 11.840,19.360 11.840 C 19.338 11.840,19.320 11.822,19.320 11.800 C 19.320 11.778,19.338 11.760,19.360 11.760 C 19.382 11.760,19.400 11.778,19.400 11.800 M5.095 12.160 C 5.121 12.193,5.172 12.283,5.207 12.360 C 5.242 12.437,5.384 12.635,5.522 12.800 C 5.660 12.965,5.723 13.055,5.662 13.000 C 5.347 12.714,4.956 12.098,4.964 11.900 C 4.966 11.854,4.984 11.879,5.007 11.960 C 5.029 12.037,5.068 12.127,5.095 12.160 M0.547 12.088 C 0.535 12.119,0.525 12.110,0.523 12.063 C 0.521 12.021,0.531 11.998,0.544 12.011 C 0.557 12.024,0.559 12.059,0.547 12.088 M19.250 12.231 C 19.236 12.269,19.191 12.335,19.152 12.378 C 19.082 12.453,19.081 12.451,19.149 12.292 C 19.215 12.137,19.307 12.082,19.250 12.231 M0.627 12.447 C 0.615 12.479,0.605 12.470,0.603 12.423 C 0.601 12.381,0.611 12.358,0.624 12.371 C 0.637 12.384,0.639 12.419,0.627 12.447 M19.033 12.580 C 19.008 12.635,18.979 12.673,18.970 12.664 C 18.952 12.645,19.033 12.480,19.061 12.480 C 19.070 12.480,19.058 12.525,19.033 12.580 M18.538 12.911 C 18.517 12.927,18.446 12.986,18.380 13.040 L 18.260 13.140 18.377 13.010 C 18.442 12.938,18.513 12.880,18.535 12.880 C 18.561 12.880,18.562 12.892,18.538 12.911 M6.300 13.412 C 6.322 13.435,6.250 13.403,6.140 13.341 C 6.030 13.280,5.922 13.211,5.900 13.188 C 5.878 13.165,5.950 13.197,6.060 13.259 C 6.170 13.320,6.278 13.389,6.300 13.412 M18.200 13.175 C 18.200 13.184,18.151 13.221,18.090 13.258 L 17.980 13.325 18.074 13.242 C 18.167 13.162,18.200 13.144,18.200 13.175 M18.400 13.296 C 18.400 13.304,18.372 13.322,18.338 13.335 C 18.302 13.349,18.286 13.342,18.300 13.320 C 18.324 13.282,18.400 13.263,18.400 13.296 M17.938 13.355 C 17.876 13.412,17.520 13.609,17.520 13.587 C 17.520 13.567,17.922 13.323,17.958 13.321 C 17.968 13.320,17.959 13.336,17.938 13.355 M18.240 13.395 C 18.240 13.415,18.200 13.441,18.150 13.453 C 18.063 13.475,18.063 13.474,18.138 13.418 C 18.228 13.350,18.240 13.348,18.240 13.395 M6.040 13.464 C 6.040 13.473,6.013 13.480,5.980 13.480 C 5.947 13.480,5.920 13.463,5.920 13.441 C 5.920 13.420,5.947 13.413,5.980 13.426 C 6.013 13.438,6.040 13.456,6.040 13.464 M6.440 13.480 C 6.440 13.502,6.432 13.520,6.422 13.520 C 6.413 13.520,6.394 13.502,6.380 13.480 C 6.366 13.458,6.374 13.440,6.398 13.440 C 6.421 13.440,6.440 13.458,6.440 13.480 M6.840 13.699 C 6.873 13.725,6.986 13.795,7.090 13.855 C 7.195 13.915,7.280 13.973,7.280 13.985 C 7.280 13.997,7.221 13.971,7.150 13.929 C 7.079 13.886,6.935 13.801,6.830 13.741 C 6.725 13.681,6.640 13.626,6.640 13.617 C 6.640 13.593,6.775 13.648,6.840 13.699 M17.480 13.619 C 17.480 13.630,17.408 13.675,17.320 13.720 C 17.232 13.765,17.160 13.793,17.160 13.782 C 17.160 13.771,17.227 13.726,17.310 13.683 C 17.480 13.593,17.480 13.593,17.480 13.619 M6.520 13.744 C 6.520 13.753,6.493 13.760,6.460 13.760 C 6.427 13.760,6.400 13.743,6.400 13.721 C 6.400 13.700,6.427 13.693,6.460 13.706 C 6.493 13.718,6.520 13.736,6.520 13.744 M17.560 13.779 C 17.560 13.789,17.520 13.817,17.470 13.841 C 17.384 13.883,17.383 13.882,17.458 13.822 C 17.539 13.757,17.560 13.748,17.560 13.779 M17.120 13.819 C 17.120 13.829,17.066 13.866,17.000 13.900 C 16.850 13.978,16.840 13.944,16.990 13.863 C 17.116 13.795,17.120 13.793,17.120 13.819 M17.340 13.920 C 17.326 13.942,17.294 13.960,17.268 13.959 C 17.239 13.959,17.244 13.943,17.280 13.920 C 17.357 13.870,17.371 13.870,17.340 13.920 M6.981 14.032 C 6.969 14.045,6.936 14.032,6.909 14.005 C 6.870 13.965,6.875 13.961,6.932 13.983 C 6.971 13.998,6.993 14.020,6.981 14.032 M16.840 13.979 C 16.840 13.989,16.800 14.017,16.750 14.041 C 16.664 14.083,16.663 14.082,16.738 14.022 C 16.819 13.957,16.840 13.948,16.840 13.979 M17.160 14.020 C 17.133 14.053,17.091 14.080,17.067 14.080 C 17.044 14.080,17.060 14.054,17.102 14.021 C 17.203 13.945,17.222 13.945,17.160 14.020 M16.920 14.155 C 16.920 14.174,16.868 14.212,16.804 14.238 C 16.741 14.265,16.651 14.322,16.604 14.365 C 16.558 14.408,16.520 14.433,16.520 14.420 C 16.520 14.408,16.480 14.418,16.430 14.444 C 16.260 14.532,16.405 14.422,16.652 14.274 C 16.944 14.101,16.920 14.111,16.920 14.155 M7.742 14.271 C 7.729 14.284,7.687 14.263,7.649 14.223 C 7.583 14.154,7.584 14.153,7.673 14.199 C 7.725 14.225,7.756 14.257,7.742 14.271 M16.360 14.259 C 16.360 14.269,16.306 14.306,16.240 14.340 C 16.090 14.418,16.080 14.384,16.230 14.303 C 16.356 14.235,16.360 14.233,16.360 14.259 M8.040 14.423 C 8.040 14.434,8.004 14.424,7.960 14.400 C 7.916 14.376,7.880 14.348,7.880 14.337 C 7.880 14.326,7.916 14.336,7.960 14.360 C 8.004 14.384,8.040 14.412,8.040 14.423 M16.058 14.433 C 15.992 14.491,15.640 14.684,15.640 14.662 C 15.640 14.651,15.735 14.587,15.850 14.521 C 16.062 14.400,16.128 14.372,16.058 14.433 M8.320 14.583 C 8.320 14.594,8.284 14.584,8.240 14.560 C 8.196 14.536,8.160 14.508,8.160 14.497 C 8.160 14.486,8.196 14.496,8.240 14.520 C 8.284 14.544,8.320 14.572,8.320 14.583 M16.166 14.601 C 16.114 14.645,16.051 14.680,16.026 14.680 C 16.001 14.680,16.034 14.645,16.100 14.603 C 16.256 14.503,16.284 14.502,16.166 14.601 M8.520 14.703 C 8.520 14.714,8.484 14.704,8.440 14.680 C 8.396 14.656,8.360 14.628,8.360 14.617 C 8.360 14.606,8.396 14.616,8.440 14.640 C 8.484 14.664,8.520 14.692,8.520 14.703 M8.880 14.902 C 8.880 14.913,8.826 14.894,8.760 14.860 C 8.694 14.826,8.640 14.789,8.640 14.778 C 8.640 14.767,8.694 14.786,8.760 14.820 C 8.826 14.854,8.880 14.891,8.880 14.902 M15.711 14.855 C 15.672 14.884,15.654 14.921,15.669 14.936 C 15.685 14.952,15.668 14.953,15.633 14.939 C 15.597 14.926,15.556 14.934,15.542 14.957 C 15.527 14.981,15.494 14.999,15.468 14.999 C 15.441 14.998,15.492 14.953,15.580 14.899 C 15.752 14.793,15.824 14.769,15.711 14.855 M15.300 14.880 C 15.286 14.902,15.254 14.920,15.228 14.919 C 15.199 14.919,15.204 14.903,15.240 14.880 C 15.317 14.830,15.331 14.830,15.300 14.880 M15.360 15.080 C 15.336 15.124,15.289 15.160,15.254 15.160 C 15.207 15.160,15.216 15.140,15.286 15.081 C 15.405 14.982,15.413 14.982,15.360 15.080 M9.340 15.161 C 9.354 15.183,9.321 15.181,9.263 15.154 C 9.206 15.128,9.160 15.091,9.160 15.072 C 9.160 15.031,9.304 15.102,9.340 15.161 M14.920 15.096 C 14.920 15.104,14.892 15.122,14.858 15.135 C 14.822 15.149,14.806 15.142,14.820 15.120 C 14.844 15.082,14.920 15.063,14.920 15.096 M14.760 15.179 C 14.760 15.189,14.720 15.217,14.670 15.241 C 14.584 15.283,14.583 15.282,14.658 15.222 C 14.739 15.157,14.760 15.148,14.760 15.179 M15.120 15.200 C 15.120 15.222,15.101 15.240,15.078 15.240 C 15.054 15.240,15.046 15.222,15.060 15.200 C 15.074 15.178,15.093 15.160,15.102 15.160 C 15.112 15.160,15.120 15.178,15.120 15.200 M9.640 15.342 C 9.640 15.353,9.586 15.334,9.520 15.300 C 9.454 15.266,9.400 15.229,9.400 15.218 C 9.400 15.207,9.454 15.226,9.520 15.260 C 9.586 15.294,9.640 15.331,9.640 15.342 M14.900 15.320 C 14.886 15.342,14.854 15.360,14.828 15.359 C 14.799 15.359,14.804 15.343,14.840 15.320 C 14.917 15.270,14.931 15.270,14.900 15.320 M14.458 15.355 C 14.397 15.411,14.040 15.609,14.040 15.588 C 14.040 15.577,14.107 15.526,14.190 15.475 C 14.404 15.342,14.537 15.282,14.458 15.355 M10.180 15.650 C 10.202 15.673,10.112 15.633,9.980 15.560 C 9.848 15.487,9.722 15.410,9.700 15.388 C 9.678 15.365,9.768 15.406,9.900 15.478 C 10.032 15.550,10.158 15.628,10.180 15.650 M14.640 15.478 C 14.640 15.499,14.572 15.547,14.490 15.585 C 14.408 15.623,14.322 15.662,14.300 15.673 C 14.208 15.718,14.334 15.618,14.471 15.536 C 14.653 15.428,14.640 15.432,14.640 15.478 M14.000 15.619 C 14.000 15.629,13.960 15.657,13.910 15.681 C 13.824 15.723,13.823 15.722,13.898 15.662 C 13.979 15.597,14.000 15.588,14.000 15.619 M10.400 15.763 L 10.500 15.845 10.370 15.781 C 10.298 15.746,10.240 15.709,10.240 15.699 C 10.240 15.659,10.304 15.685,10.400 15.763 M13.640 15.819 C 13.640 15.829,13.600 15.857,13.550 15.881 C 13.464 15.923,13.463 15.922,13.538 15.862 C 13.619 15.797,13.640 15.788,13.640 15.819 M10.940 16.049 C 11.006 16.088,11.046 16.120,11.029 16.120 C 10.985 16.120,10.600 15.923,10.600 15.900 C 10.600 15.876,10.786 15.958,10.940 16.049 M13.909 15.944 C 13.896 15.957,13.861 15.959,13.832 15.947 C 13.801 15.935,13.810 15.925,13.857 15.923 C 13.899 15.921,13.922 15.931,13.909 15.944 M13.644 16.056 C 13.601 16.107,13.440 16.172,13.440 16.138 C 13.440 16.123,13.644 16.005,13.675 16.002 C 13.683 16.001,13.669 16.025,13.644 16.056 M13.240 16.280 C 13.207 16.301,13.162 16.319,13.140 16.319 C 13.118 16.319,13.127 16.301,13.160 16.280 C 13.193 16.259,13.238 16.241,13.260 16.241 C 13.282 16.241,13.273 16.259,13.240 16.280 M11.589 16.304 C 11.576 16.317,11.541 16.319,11.513 16.307 C 11.481 16.295,11.490 16.285,11.537 16.283 C 11.579 16.281,11.602 16.291,11.589 16.304 M12.535 16.319 C 12.373 16.385,12.078 16.409,11.850 16.375 L 11.620 16.340 12.020 16.318 C 12.691 16.280,12.632 16.280,12.535 16.319 M7.230 22.230 C 7.222 22.357,7.215 22.253,7.215 22.000 C 7.215 21.747,7.222 21.643,7.230 21.770 C 7.237 21.896,7.237 22.104,7.230 22.230 M20.900 22.560 C 20.823 22.593,20.823 22.594,20.908 22.597 C 20.956 22.599,21.006 22.582,21.020 22.560 C 21.049 22.513,21.010 22.513,20.900 22.560 " stroke="none" fill-rule="evenodd" fill="#000"></path></svg>