<svg width="24" height="17" viewBox="0 0 24 17" fill="none" xmlns="http://www.w3.org/2000/svg">
<path d="M13.7532 0.0135236L11.7572 0L11.7692 1.99699L13.7572 2L13.7532 0.0135236Z" fill="black"/>
<path d="M7.94385 2.66485L5.94784 2.65133L5.9598 4.64832L7.94784 4.65133L7.94385 2.66485Z" fill="black"/>
<path d="M16.7218 5.35269L14.7258 5.33916L14.7377 7.33616L16.7258 7.33916L16.7218 5.35269Z" fill="black"/>
<path d="M13.7989 5.38899L11.8029 5.37547L11.8149 7.37246L13.8029 7.37547L13.7989 5.38899Z" fill="black"/>
<path d="M5.92347 5.36126L7.91948 5.37478L7.92347 7.36126L5.93543 7.35825L5.92347 5.36126Z" fill="black"/>
<path d="M8.84155 5.37356L10.8376 5.38708L10.8416 7.37356L8.85351 7.37055L8.84155 5.37356Z" fill="black"/>
<path d="M4.99601 5.39251L3 5.37899L3.01196 7.37598L5 7.37899L4.99601 5.39251Z" fill="black"/>
<path d="M11.7799 2.68661L13.776 2.70014L13.7799 4.68661L11.7919 4.68361L11.7799 2.68661Z" fill="black"/>
<path d="M8.86988 2.66296L10.8659 2.67648L10.8699 4.66296L8.88184 4.65995L8.86988 2.66296Z" fill="black"/>
<path d="M20.7227 6.26523C22.9057 5.91123 23.9677 6.91424 23.9677 6.91424C23.9677 6.91424 23.3187 9.45126 20.2507 9.21525C18.1857 14.1713 13.8196 16.8853 7.97859 16.8853C-0.163467 16.8853 -0.163468 9.45126 0.131534 8.33025H16.3566C17.2416 8.33025 17.8317 8.09425 18.1857 7.91725C16.9466 5.61623 18.6577 3.55122 18.6577 3.55122C18.6577 3.55122 20.4867 4.55422 20.7227 6.26523Z" fill="black"/>
</svg>
