<?xml version="1.0" encoding="UTF-8" standalone="no"?>
<!DOCTYPE svg PUBLIC "-//W3C//DTD SVG 1.1//EN" "http://www.w3.org/Graphics/SVG/1.1/DTD/svg11.dtd">
<svg width="100%" height="100%" viewBox="0 0 24 24" version="1.1" xmlns="http://www.w3.org/2000/svg" xmlns:xlink="http://www.w3.org/1999/xlink" xml:space="preserve" xmlns:serif="http://www.serif.com/" style="fill-rule:evenodd;clip-rule:evenodd;stroke-miterlimit:1.5;">
    <g transform="matrix(0.974344,0,0,0.961228,9.30309,8.52883)">
        <path d="M4.925,1.669L6.427,1.678L6.43,3L4.934,2.998L4.925,1.669Z" style="stroke:black;stroke-width:1.03px;"/>
    </g>
    <g transform="matrix(0.974344,0,0,0.961228,6.3802,8.56513)">
        <path d="M4.925,1.669L6.427,1.678L6.43,3L4.934,2.998L4.925,1.669Z" style="stroke:black;stroke-width:1.03px;"/>
    </g>
    <g transform="matrix(0.974344,0,0,0.961228,0.500776,8.55092)">
        <path d="M4.925,1.669L6.427,1.678L6.43,3L4.934,2.998L4.925,1.669Z" style="stroke:black;stroke-width:1.03px;"/>
    </g>
    <g transform="matrix(0.974344,0,0,0.961228,0.525147,5.84099)">
        <path d="M4.925,1.669L6.427,1.678L6.43,3L4.934,2.998L4.925,1.669Z" style="stroke:black;stroke-width:1.03px;"/>
    </g>
    <g transform="matrix(0.974344,0,0,0.961228,3.41886,8.56322)">
        <path d="M4.925,1.669L6.427,1.678L6.43,3L4.934,2.998L4.925,1.669Z" style="stroke:black;stroke-width:1.03px;"/>
    </g>
    <g transform="matrix(0.974344,0,0,0.961228,-2.42269,8.56865)">
        <path d="M4.925,1.669L6.427,1.678L6.43,3L4.934,2.998L4.925,1.669Z" style="stroke:black;stroke-width:1.03px;"/>
    </g>
    <g transform="matrix(0.974344,0,0,0.961228,6.35725,5.87628)">
        <path d="M4.925,1.669L6.427,1.678L6.43,3L4.934,2.998L4.925,1.669Z" style="stroke:black;stroke-width:1.03px;"/>
    </g>
    <g transform="matrix(0.974344,0,0,0.961228,6.33453,3.18966)">
        <path d="M4.925,1.669L6.427,1.678L6.43,3L4.934,2.998L4.925,1.669Z" style="stroke:black;stroke-width:1.03px;"/>
    </g>
    <g transform="matrix(0.974344,0,0,0.961228,3.44719,5.85262)">
        <path d="M4.925,1.669L6.427,1.678L6.43,3L4.934,2.998L4.925,1.669Z" style="stroke:black;stroke-width:1.03px;"/>
    </g>
    <g transform="matrix(0.0590004,0,0,0.0590004,-3.88049,-2.53785)">
        <path d="M472,228C472,228 454,211 417,217C413,188 382,171 382,171C382,171 353,206 374,245C368,248 358,252 343,252L68,252C63,271 63,397 201,397C300,397 374,351 409,267C461,271 472,228 472,228" style="fill-rule:nonzero;"/>
    </g>
</svg>
