<?xml version="1.0" encoding="UTF-8" standalone="no"?>
<!-- Generator: Adobe Illustrator 24.2.1, SVG Export Plug-In . SVG Version: 6.00 Build 0)  -->

<svg
   version="1.1"
   id="Layer_2"
   x="0px"
   y="0px"
   viewBox="0 0 24 23.999999"
   xml:space="preserve"
   sodipodi:docname="Dolphin - icon.svg"
   width="24"
   height="24"
   inkscape:version="1.4.3 (0d15f75, 2025-12-25)"
   xmlns:inkscape="http://www.inkscape.org/namespaces/inkscape"
   xmlns:sodipodi="http://sodipodi.sourceforge.net/DTD/sodipodi-0.dtd"
   xmlns="http://www.w3.org/2000/svg"
   xmlns:svg="http://www.w3.org/2000/svg"><defs
   id="defs18" /><sodipodi:namedview
   id="namedview18"
   pagecolor="#505050"
   bordercolor="#ffffff"
   borderopacity="1"
   inkscape:showpageshadow="0"
   inkscape:pageopacity="0"
   inkscape:pagecheckerboard="1"
   inkscape:deskcolor="#505050"
   inkscape:zoom="22.616645"
   inkscape:cx="15.696404"
   inkscape:cy="16.691247"
   inkscape:window-width="1710"
   inkscape:window-height="1044"
   inkscape:window-x="0"
   inkscape:window-y="40"
   inkscape:window-maximized="0"
   inkscape:current-layer="g18" />
<style
   type="text/css"
   id="style1">
	.st0{fill:#0057AB;}
	.st1{fill:url(#SVGID_1_);}
	.st2{fill:#FFFFFF;}
</style>
<g
   id="g18">
	<g
   id="g2"
   style="fill:#000000;fill-opacity:1"
   transform="matrix(0.06276623,0,0,0.06276623,-0.20502864,5.4700863)">
		<path
   class="st0"
   d="m 382.57,206.76 c -1.25,-4.19 -9.05,-29.48 -22.19,-53.72 -17.31,-31.94 -32.2,-54.77 -57,-77.96 -7.98,-7.46 -15.53,-14.12 -23.4,-20.11 h 0.01 c 0,0 -0.06,-0.04 -0.17,-0.12 -0.15,-0.11 -0.29,-0.22 -0.44,-0.33 -2.94,-2.27 -15.3,-12.69 -10.9,-24.2 1.47,-3.86 5.04,-7.06 9.27,-9.65 l 22.79,-0.19 v -8.45 h -0.01 c 0,0 0,0 0,0 0,0 -13.34,-4.53 -36.69,-3.03 -21.91,1.41 -41.6,14.22 -45.28,16.02 -11.8,-3.38 -25.27,-6.36 -41.01,-9.03 C 123.08,6.75 76.99,21.48 53.86,37.53 23.54,58.58 24.38,78.18 21.88,87.99 20.33,94.07 6.56,105.3 6.73,113.18 v 8.3 l 2.84,2.93 10.72,-3.64 1.28,-4.47 c 4.41,-1.58 9.24,-3.77 13.63,-5.57 10.95,-4.5 11.79,-6.95 41.71,-11.42 13.76,-2.05 28.25,-2.64 39.03,-2.73 4.2,8.86 14.63,27.08 32.71,35.82 11.76,5.68 24.93,8.59 35.42,10.08 l -1.38,6.92 20.87,3.09 v -8.44 l -0.02,-0.01 c 0,0 0.01,0 0.01,0 0,0 -17.52,-7.28 -28.31,-18.06 -7.34,-7.34 -9.09,-18.48 -9.47,-24.85 l 0.07,0.01 c 17.66,3.36 33.09,5.78 69.99,19.91 6.82,2.61 13.19,5.48 18.99,8.37 l -1.09,0.62 16.63,13.41 19.87,16.44 v -8.44 l -0.07,-0.06 C 289.87,151.03 267.24,123 229.23,104.25 197.81,88.75 172.01,81.1 136.27,79.36 97.2,77.47 68.42,82.48 68.42,82.48 c 0,0 0.81,-17.36 30.3,-31.19 25.65,-12.03 65.99,-14.04 112.3,-2.23 65.42,16.69 87.73,45.11 115.87,74.47 17.85,18.63 34.27,44.85 44.61,62.99 l -1.74,-0.78 5.36,13.84 7.67,16.36 v -8.5 z"
   id="path1"
   style="fill:#000000;fill-opacity:1" />
		
			<linearGradient
   id="SVGID_1_"
   gradientUnits="userSpaceOnUse"
   x1="194.7453"
   y1="750.8725"
   x2="194.7453"
   y2="552.19318"
   gradientTransform="matrix(1,0,0,-1,0,768)">
			<stop
   offset="0"
   style="stop-color:#46D4FF"
   id="stop1" />
			<stop
   offset="1"
   style="stop-color:#1792FF"
   id="stop2" />
		</linearGradient>
		<path
   class="st1"
   d="m 360.39,161.47 c -17.31,-31.94 -32.2,-54.77 -57,-77.96 -7.98,-7.46 -15.54,-14.12 -23.4,-20.11 H 280 c 0,0 -0.06,-0.04 -0.18,-0.13 -0.14,-0.11 -0.28,-0.22 -0.43,-0.32 -2.92,-2.25 -15.32,-12.69 -10.91,-24.2 4.83,-12.64 32.05,-18.29 32.05,-18.29 0,0 -13.34,-4.53 -36.69,-3.04 -21.91,1.41 -41.6,14.22 -45.28,16.02 -11.8,-3.38 -25.27,-6.36 -41.01,-9.03 C 123.08,15.17 76.99,29.9 53.86,45.95 23.54,67.01 24.38,86.62 21.88,96.42 c -1.8,7.06 -20.09,21.08 -13.87,28.71 3.88,4.77 16.79,-1.71 27.2,-5.99 10.95,-4.5 11.79,-6.95 41.71,-11.42 13.76,-2.05 28.25,-2.64 39.03,-2.73 4.2,8.86 14.63,27.08 32.71,35.82 24.41,11.8 54.91,11.65 54.91,11.65 0,0 -17.52,-7.28 -28.31,-18.06 -7.34,-7.34 -9.09,-18.48 -9.47,-24.85 l 0.07,0.01 c 17.66,3.36 33.09,5.78 69.99,19.91 32.28,12.36 54.34,30.35 54.34,30.35 0,0 -22.67,-28.28 -60.94,-47.15 C 197.83,97.17 172.03,89.52 136.29,87.78 97.22,85.89 68.44,90.9 68.44,90.9 c 0,0 0.81,-17.36 30.3,-31.19 25.65,-12.03 65.99,-14.04 112.3,-2.23 65.42,16.69 87.73,45.11 115.87,74.47 29.95,31.26 55.85,83.86 55.85,83.86 0,0 -7.99,-27.8 -22.37,-54.34 z"
   id="path2"
   style="fill:#000000;fill-opacity:1" />
	</g>
	
	
</g>
</svg>
