<svg xmlns="http://www.w3.org/2000/svg" width="24" height="24" viewBox="0 0 24 24"><path d="M23.753 2.436V1.312a.56.56 0 0 0-.563-.563h-2.25c-.222 0-.4.015-.562.057V.749a.56.56 0 0 0-.562-.562h-3.374c-.975 0-1.328.553-1.535 1.125h-.456c-.131-.175-.258-.402-.258-.563a.56.56 0 0 0-.563-.562H9.694a.567.567 0 0 0-.56.506c-.013.118-.252.619-.623.619H6.97a1 1 0 0 1-.135-.227.56.56 0 0 0-.515-.336H.696a.56.56 0 0 0-.562.563V5.81c0 1.588.464 3.598.562 4.003l-.005.852-.381.36a.56.56 0 0 0-.176.409v2.25c0 .149.059.292.165.397l.397.398v2.487l-.533 1.6a.55.55 0 0 0-.012.315l.523 2.091-.51 1.532a.56.56 0 0 0 .532.74H8.57a.56.56 0 0 0 .398-.165l.05-.051c.299.408.715.778 1.24.778h1.686c.414 0 .776-.18 1.095-.34.218-.11.444-.223.592-.223h2.812a.56.56 0 0 0 .398-.164l.136-.137.103.132c.276.36.56.732 1.05.732h2.812a.56.56 0 0 0 .562-.563v-.404l1.551.387a.561.561 0 0 0 .698-.55c0-.055-.035-5.572 0-8.424a.56.56 0 0 0-.164-.404l-.398-.397v-2.58a.56.56 0 0 0-.165-.397l-.275-.276.34-.68.498-.498a.56.56 0 0 0 .165-.398l-.009-2.817a.6.6 0 0 0-.016-.135l-.504-2.043.47-.939a.6.6 0 0 0 .059-.252m-6.699 2.25 1.712 1.124-.57 3.375L13.63 5.81zM6.32 19.306 4.07 17.62l1.125-3.937 4.499 4.5Zm11.922-.561h-2.625L4.07 5.206l2.1-.52 13.646 10.413Z" style="stroke-width:.56235"/></svg>