<svg version="1.1" id="svg1" width="24" height="24" viewBox="0 0 24 24" xmlns="http://www.w3.org/2000/svg">
   <defs id="defs1" />
   <g id="g1">
      <path style="fill:#000000;stroke-width:0.0291709"
         d="m 5.7217638,23.995088 c -1.97422,-0.0839 -3.15925,-0.54433 -4.21069,-1.63588 -0.80851003,-0.83937 -1.24335003,-1.80848 -1.41385003,-3.151 -0.0315,-0.24804 -0.0519,-0.82474 -0.0697,-1.97194 -0.028500003,-1.83571 -0.0389,-17.11897022 -0.0117,-17.19007022 0.01,-0.0254 0.0496,-0.046200002222 0.0886,-0.046200002222 0.0826,0 8.48321003,2.7087400222222 8.53743003,2.7528600222222 0.0266,0.0216 0.0364,0.16644 0.0364,0.5373 v 0.50766 h 3.3205702 3.32058 v -0.50766 c 0,-0.37086 0.01,-0.51566 0.0364,-0.5373 0.0542,-0.0441 8.45481,-2.7528600222222 8.53743,-2.7528600222222 0.039,0 0.0789,0.020800002222 0.0886,0.046200002222 0.0307,0.0801 0.0196,17.80088022 -0.0115,18.40245022 -0.0609,1.17832 -0.22822,1.93411 -0.5886,2.65848 -0.74244,1.49229 -2.08438,2.47875 -3.75138,2.75762 -0.77971,0.13044 -0.66768,0.12839 -7.32566,0.13381 -3.5084602,0.003 -6.4707602,0.001 -6.5829002,-0.003 z m 6.3986102,-4.20948 c 0.60565,-0.49953 5.65481,-4.84691 5.66733,-4.87962 0.009,-0.0242 0.004,-0.0652 -0.0128,-0.0911 -0.0263,-0.0418 -0.16752,-0.0488 -1.23529,-0.0618 l -1.20564,-0.0146 -0.007,-3.34216 c -0.005,-2.4107702 -0.0165,-3.3531402 -0.04,-3.3815302 -0.0485,-0.0586 -6.5270402,-0.0586 -6.5755302,0 -0.0235,0.0284 -0.0346,0.97076 -0.04,3.3815302 l -0.008,3.34216 -1.20564,0.0146 c -1.06777,0.0129 -1.20904,0.02 -1.23529,0.0618 -0.0163,0.0259 -0.0221,0.0669 -0.0128,0.0911 0.009,0.0242 1.26639,1.11403 2.79363,2.42184 3.1156702,2.66805 2.9618202,2.5377 2.9952502,2.5377 0.0136,0 0.0683,-0.036 0.12156,-0.0799 z"
         id="path1" />
   </g>
</svg>