<svg xmlns="http://www.w3.org/2000/svg" width="24" height="24"><path fill="#000" fill-rule="nonzero" d="M22.259 15.25h-3.364l-3.561-6.564c.791-.171 1.385-.943 1.385-1.844V1.887C16.719.837 15.947 0 14.978 0H9.042c-.97 0-1.741.836-1.741 1.887v4.955c0 .922.593 1.673 1.365 1.844l-3.561 6.585H1.74c-.97 0-1.741.836-1.741 1.887v4.955C0 23.163.772 24 1.741 24h5.936c.97 0 1.741-.836 1.741-1.887v-4.955c0-1.05-.772-1.887-1.741-1.887h-.574l3.522-6.52h2.75l3.542 6.52h-.594c-.97 0-1.741.836-1.741 1.887v4.955c0 1.05.772 1.887 1.741 1.887h5.936c.97 0 1.741-.836 1.741-1.887v-4.955c0-1.05-.772-1.909-1.741-1.909Z"/></svg>