<svg xmlns="http://www.w3.org/2000/svg" width="24" height="24" viewBox="0 0 24 24"><path d="M18.963-5.327c.024.008.43.023.902.032.395.008.67.004.687-.007v-.002l-.021-.006c-.186-.03-1.655-.047-1.568-.017m-13.702 0c.078-.027-1.414-.01-1.59.019-.094.015.215.02.688.012.472-.009.878-.022.902-.03M6.968-2.79c-.815.002-.857.005.023.007l-.016-.005zm17.528 1.068q.06.044.124.093l.016-.032zM11.992.105a2 2 0 0 0-.546.062c-.118.03-.311.104-.43.166-.24.125-.278.157-1.59 1.299l-2.11 1.832c-.484.42-.615.51-.923.635l-.488.2c-.07.031-.283.116-.472.189-.19.072-.383.15-.43.172a3 3 0 0 1-.21.086c-.068.025-.114.055-.103.066.022.022 1.421-.531 1.919-.759.156-.07.468-.203.692-.293a7612.922 7612.922 0 0 1 5.563-2.246c.378-.153.793-.313.922-.355.13-.043.341-.124.47-.18.128-.058.34-.132.473-.166q.167-.042.176-.05V.761a1 1 0 0 0-.12.007c-.102.01-.368.089-.593.176l-.409.158-.31-.315C13.04.35 12.53.118 11.991.105m3.191.616a.5.5 0 0 0-.126.009v.001a.767.767 0 0 0 .245.007q.017-.003.02-.006V.73h-.001a.5.5 0 0 0-.138-.01m.215.03.236.063c.185.049.25.066.26.059V.871q0-.01-.027-.034c-.024-.024-.139-.053-.256-.065zm-.362.044c-.113 0-.217.01-.303.028a4 4 0 0 0-.429.153c-.178.072-.468.184-.646.25-.177.065-.612.238-.966.383s-1.572.64-2.706 1.097-2.352.95-2.706 1.096a368 368 0 0 1-2.685 1.09c-.508.205-.962.39-1.01.411-.046.022-.307.13-.58.239-.616.248-1.065.569-1.34.95.176-.274.419-.513.715-.69.12-.072.2-.133.201-.15V5.65H2.58l-.006-.002c-.034 0-.178.08-.32.176-.453.306-.72.644-.865 1.099-.095.297-.11 1.055-.025 1.194q.03.049.037.051h.002v-.001a.3.3 0 0 0-.017-.093 2 2 0 0 1-.042-.705q-.03.425.14.906c.146.41.476 1.231 2.274 5.662l.6 1.482c.211.524.801 1.958.883 2.148.02.047.126.308.235.58s.214.532.236.58c.02.047.1.24.173.43.074.188.152.381.172.429s.126.308.235.58.214.532.236.58.1.24.174.429c.075.189.164.411.199.494l.095.236c.32.852.904 1.374 1.67 1.492q.047.008.092.013c-.155.004-.258.012-.268.022v.003l.005.003c.32.127 1.063.003 1.684-.282.133-.06.196-.094.201-.103v-.002c-.017-.006-.197.058-.48.176-.364.151-.426.174-.764.179.401-.055.997-.28 2.46-.876l1.01-.408c.33-.134.64-.26.687-.283.047-.021.28-.115.516-.207a163 163 0 0 0 3.2-1.295c.413-.168.79-.323.838-.344s.24-.098.429-.173.382-.152.43-.173.308-.126.58-.234.532-.214.58-.235c.046-.021.24-.1.429-.174s.382-.151.43-.172l.472-.193c.81-.327 1.333-.85 1.52-1.46a2.02 2.02 0 0 1-1.003 1.253c-.19.098-.295.164-.299.18h.001v.001h.001q.015.008.2-.076c1.098-.5 1.48-1.613.993-2.885l-.076-.197.19-.169c.833-.736 1.072-1.156 1.071-1.883 0-.573-.196-.987-.784-1.66-.362-.414-1.094-1.255-2.989-3.433-.659-.757-.7-.815-.866-1.224l-.213-.515a25 25 0 0 1-.172-.43 16 16 0 0 0-.173-.43 32 32 0 0 1-.236-.58 45 45 0 0 0-.235-.58c-.02-.047-.098-.24-.172-.429a14 14 0 0 0-.174-.43c-.022-.047-.099-.24-.17-.429-.073-.189-.15-.382-.172-.43s-.109-.258-.194-.468c-.203-.499-.305-.698-.463-.898-.143-.182-.694-.588-.798-.588q-.004 0-.006.002h-.001v.002c-.004.016.076.077.197.15.56.335.711.559 1.194 1.76 1.382 3.441 1.759 4.367 1.935 4.754.056.124.218.516.36.87.266.668.945 2.349 1.907 4.726.563 1.388.904 2.267 1.074 2.773l-.047-.11a46 46 0 0 1-.317-.795 353 353 0 0 0-.953-2.384L20.07 9.514c-.32-.791-.619-1.536-.665-1.654-.078-.199-.199-.482-.293-.687-.021-.047-.098-.24-.17-.43-.073-.189-.15-.382-.172-.43a61 61 0 0 1-.408-1.009 59 59 0 0 0-.408-1.009 84 84 0 0 1-.494-1.218c-.623-1.558-.777-1.783-1.432-2.098-.238-.114-.655-.186-.992-.184m14.237.784a.5.5 0 0 0-.01.139c0 .074.004.12.01.126h.001a.1.1 0 0 0 .007-.03.8.8 0 0 0 0-.215q-.003-.018-.007-.02zm-34.415.413q.001.096.008.107h.002q.004-.002.007-.027a1 1 0 0 0 .007-.078zM29.36 3.18a2 2 0 0 0-.009.278c0 .167.004.268.009.278h.001a.3.3 0 0 0 .006-.052 4 4 0 0 0 0-.451.3.3 0 0 0-.006-.052zM4.63 4.831c-.042-.001-.191.049-.38.13-.153.066-.327.14-.386.162-.643.255-.807.32-.88.355-.048.021-.142.06-.21.084-.069.025-.115.055-.103.067.02.02 1.917-.734 1.962-.778q.018-.02-.004-.02m10.177.586c.106 0 .173.035.273.085.463.233.53.901.124 1.223-.085.068-.834.394-1.718.75a2819 2819 0 0 0-6.121 2.471c-1.154.504-1.584.494-1.808-.04-.213-.507.009-.85.734-1.136.212-.084.918-.368 1.568-.632l2.384-.965 2.555-1.034c1.359-.552 1.776-.722 2.009-.722m-20.06 2.05c-.006-1.296-.012-.249-.012 2.326s.006 3.635.012 2.355.006-3.387 0-4.682m2.51.304-.002.004.002.007zm32.154.143c-.006-2.18-.011-.396-.011 3.962 0 4.36.005 6.142.01 3.963.007-2.18.007-5.746 0-7.925m-13.49.276a.5.5 0 0 1 .24.062c.305.154.43.354.43.69 0 .492-.142.585-1.988 1.302l-1.203.484c-.555.225-1.56.632-2.234.903-1.267.512-1.423.575-1.568.636-.253.107-1.749.707-1.932.775-.546.204-1.053-.12-1.053-.671 0-.428.175-.583 1.074-.947l2.019-.815c1.356-.547 3.005-1.213 4.897-1.979.788-.319 1.112-.437 1.318-.44m-14.494.034q-.011 0-.012.047c0 .025.021.084.046.13.04.075-.01.14-.4.524-1.08 1.063-1.057 2.031.08 3.32l1.09 1.246.822.941C4.78 16.4 4.697 16.28 5.04 17.262c.016.045.039.072.051.06.013-.013-.086-.282-.22-.598a534 534 0 0 1-2.232-5.47c-.219-.544-.547-1.356-.73-1.805a22 22 0 0 1-.392-1.02c-.04-.134-.074-.207-.09-.205m15.645 2.741c.113.001.196.032.284.084a.746.746 0 0 1 .323.885c-.118.306-.25.393-1.17.763-1.093.439-1.69.681-1.8.728-.046.021-.5.204-1.009.406s-.962.386-1.009.408a68 68 0 0 1-1.01.408c-.507.203-.962.386-1.009.407-.047.022-.24.1-.43.174-.188.074-.382.152-.429.172-1.383.598-1.793.61-2.023.059-.239-.57-.015-.852.999-1.262l1.969-.795c.685-.277 1.739-.702 2.34-.943l1.16-.466 1.268-.519c.903-.369 1.296-.51 1.546-.509m-2.296 4.115c.11-.002.173.036.279.086.435.207.54.816.199 1.164-.122.124-.286.213-.675.367-.282.111-.997.398-1.587.637-.591.24-1.528.62-2.084.844-.555.225-1.081.426-1.17.447-.608.144-1.097-.508-.807-1.076.114-.222.216-.279 1.29-.712l2.148-.869c1.688-.684 2.164-.883 2.407-.888m-19.986 1.081c-.007-.667-.012-.121-.012 1.213s.005 1.881.012 1.214.007-1.76 0-2.427m27.963.122q.012.051.018.089.007.047.01.094a2 2 0 0 0-.028-.183M5.116 17.37h-.002q-.003.004-.003.019c0 .056.315.8.332.783.006-.017-.056-.193-.14-.397-.12-.29-.17-.4-.187-.405zm.335.841.028.108c.015.059.045.125.066.148q.027.027.034.02c.011-.013-.013-.084-.064-.168zm.136.318q-.004.005-.004.018c0 .06.296.765.328.787h.002c.009-.016-.053-.193-.138-.399-.119-.288-.17-.4-.186-.406zm15.757.09q-.053 0-.437.16c-.194.08-.348.154-.359.17v.002c.016.016.757-.277.796-.314q.008-.01.008-.014v-.002h-.001zm-.87.345a.4.4 0 0 0-.158.066l-.107.065.107-.028a.4.4 0 0 0 .148-.066q.026-.026.021-.033-.003-.004-.01-.004m-.29.128c-.036 0-.178.052-.439.157-.196.08-.352.155-.359.171v.001c.018.018.756-.272.798-.312q.017-.017 0-.017M5.93 19.39zq-.003.004-.003.019c0 .056.315.8.332.783.007-.015-.055-.191-.14-.397-.119-.287-.17-.4-.186-.405zm13.394.047q-.053 0-.437.159c-.194.08-.348.154-.358.17v.002c.016.017.756-.277.795-.314q.01-.01.008-.014v-.002h-.001zm-.865.345h-.003c-.047.005-.22.07-.58.22-.29.121-.52.227-.51.236.017.017 1.05-.391 1.09-.432q.014-.013.013-.02v-.001h-.001q-.002-.003-.006-.002zm10.902.269c-.005.012-.009.14-.009.352 0 .206.004.328.008.337h.001a.4.4 0 0 0 .007-.07c.008-.161.008-.412 0-.56a.3.3 0 0 0-.007-.059zm-12.074.205a2.6 2.6 0 0 0-.387.15 69 69 0 0 1-1.331.553c-1.638.664-4.312 1.745-4.747 1.918-.195.078-.332.145-.337.162v.001h.001q.003.003.006.002c.043.001.169.09.28.199.38.37.756.512 1.364.512h.518l.362-.182c.253-.128.505-.308.837-.602.261-.23.696-.61.967-.843l.749-.649.643-.559c.232-.201.49-.38.645-.448.344-.151.442-.197.444-.21l-.001-.001q-.003-.003-.013-.003m-11.003.005h-.001v.001h-.002v.001q-.01.01.01.075c.017.06.05.127.074.15q.044.045.012-.064a.4.4 0 0 0-.074-.15q-.013-.012-.019-.013zm.118.288v.001q-.004.003-.004.017c0 .059.312.805.33.788.008-.016-.054-.193-.14-.4-.118-.288-.168-.399-.184-.406zm.444 1.114za.2.2 0 0 0 .008.049c.189.738.844 1.492 1.434 1.651q.014.004.018.003v-.002a1 1 0 0 0-.216-.124 2 2 0 0 1-.953-.98c-.208-.444-.278-.592-.29-.598zm22.087 2.349-.013.006.002.001q.006 0 .011-.007M-3.35 26.61c-.008 0 .075.09.202.221l-.008-.045a2 2 0 0 0-.194-.176m11.489.194h-.08l.042.01h.04zm-10.793.488-.02.012.085.079.02.002zm28.888.482h-.005v.001l.009.005zm-24.86 1.337h-.037q.004.015.004.026c.037.003.079.001.108-.006q.015-.005.017-.008v-.003a.3.3 0 0 0-.092-.009m21.434 0a.3.3 0 0 0-.093.01v.001q.002.005.018.008c.04.011.108.011.15 0q.015-.003.017-.007v-.003a.3.3 0 0 0-.092-.01m-20.64.087a.3.3 0 0 0-.1.009v.002q.005.004.026.008c.053.01.13.01.172 0l.014-.007v-.003a.3.3 0 0 0-.112-.01m19.845 0a.3.3 0 0 0-.1.009v.002q.004.004.025.008c.054.01.13.01.172 0l.015-.007v-.003a.3.3 0 0 0-.112-.01m-19.286.047c-.14 0-.223.003-.232.008v.001q.006.004.05.007c.113.01.287.009.387 0a.2.2 0 0 0 .04-.006v-.001a2 2 0 0 0-.245-.009m18.727 0c-.14 0-.222.003-.231.008v.001q.006.004.05.007c.113.01.287.009.387 0a.2.2 0 0 0 .04-.006v-.001a2 2 0 0 0-.246-.009m-9.364.049c-4.394 0-6.185.005-3.98.01 2.205.007 5.8.007 7.99 0 2.189-.005.385-.01-4.01-.01"/></svg>