<svg xmlns="http://www.w3.org/2000/svg" width="24" height="24" viewBox="0 0 24 24"><title>Synology-dsm SVG Icon</title><path fill="currentColor" d="M3.811 23.727A3.98 3.98 0 0 1 .42 20.655c-.085-.328-.091-.91-.091-8.679V3.65l.118-.43A3.97 3.97 0 0 1 3.352.313l.43-.118h8.198c7.527 0 8.225.007 8.535.087a4 4 0 0 1 2.79 2.315c.354.831.327.163.327 9.378v8.327l-.118.43a3.98 3.98 0 0 1-2.873 2.913l-.412.118h-8.043c-4.424 0-8.192-.012-8.375-.035zm8.434-8.041a2.35 2.35 0 0 0 1.876-1.791 2.015 2.015 0 0 0-1.11-2.233 14 14 0 0 0-1.414-.438c-1.477-.39-1.752-.537-1.835-.98a.87.87 0 0 1 .647-.993 3.4 3.4 0 0 1 1.23-.011 1.14 1.14 0 0 1 .76.59 1.4 1.4 0 0 1 .125.377c0 .23.118.275.716.275.74 0 .77-.022.683-.496a2.604 2.604 0 0 0-2.816-1.979A2.72 2.72 0 0 0 8.519 9.33a1.6 1.6 0 0 0-.165.79 1.65 1.65 0 0 0 .436 1.338 3.65 3.65 0 0 0 1.951.88c1.532.4 1.684.466 1.898.772a1.34 1.34 0 0 1 .013.925q-.311.603-1.446.59a1.89 1.89 0 0 1-1.296-.4 1.47 1.47 0 0 1-.426-.824c0-.323-.046-.344-.718-.344-.755 0-.757 0-.676.525.226 1.46 1.532 2.324 3.353 2.22a5 5 0 0 0 .807-.118zm-7.235-.133a3.04 3.04 0 0 0 1.842-1.259 5.07 5.07 0 0 0 .166-4.478A3 3 0 0 0 5.72 8.5c-.62-.303-.953-.342-2.889-.342-1.624 0-1.698 0-1.749.099-.074.138-.074 7.139 0 7.277.05.095.126.1 1.808.1a11.3 11.3 0 0 0 2.121-.084zM2.468 11.9V9.347h.815a3.4 3.4 0 0 1 1.708.258c.765.388 1.045 1.004 1.045 2.295a2.53 2.53 0 0 1-.579 1.984c-.446.447-.892.567-2.098.567h-.891Zm13.991 3.653c.018-.045.033-1.246.036-2.668a22 22 0 0 1 .051-2.483c.027.056.462 1.251.967 2.655l.916 2.552.55.014c.523.015.552.01.624-.102.041-.065.472-1.231.962-2.593.49-1.36.906-2.51.93-2.552s.045 1.037.048 2.527c0 1.431.021 2.632.043 2.669.023.036.2.062.657.051l.615-.014V8.185l-.877-.013a6 6 0 0 0-.943.031c-.036.025-.489 1.272-1.005 2.772s-.959 2.729-.983 2.729c-.023 0-.47-1.219-.998-2.71-.526-1.492-.977-2.737-1.006-2.772-.03-.036-.275-.063-.96-.052l-.909.014-.015 3.664c-.007 2.013 0 3.69.01 3.725s.196.065.64.065c.513 0 .62-.015.646-.083z" style="stroke-width:1.17841"/></svg>