<svg viewBox="0 0 24 24"><path d="m2.31 1.878-.305 2.548 2.27.002h.533c1.46 0 2.35 1.167 2.103 3.24-.27 2.258-1.545 3.24-2.9 3.24H3.5l.661-5.537h-2.27l-.965 8.085h3.22c2.42 0 4.722-2.54 5.127-5.79.074-.596.064-2.085-.119-2.973a1 1.46 0 0 0-.026-.131c-.007-.03-.013-.162.025-.19.021-.016.06.066.065.09l.034.171L11.3 16.138 16.515 4.43l2.21-.004h.532c1.46 0 2.358 1.168 2.11 3.241-.269 2.257-1.552 3.24-2.907 3.24h-.51l.662-5.54h-2.27l-.966 8.089h3.22c2.42 0 4.738-2.535 5.127-5.79s-1.313-5.788-3.744-5.788h-4.803s-1.272 2.996-1.509 3.563c-1.267 3.036-1.492 3.85-1.53 4.06.005-.212-.04-1.034-.581-4.103-.144-.817-.607-3.52-.607-3.52Zm9.072 14.311c-6.127 0-11.094 1.4-11.094 3.126 0 1.727 4.967 3.127 11.094 3.127s11.094-1.4 11.094-3.127-4.967-3.126-11.094-3.126m-.401 2.146c1.399 0 2.533.467 2.533 1.043s-1.134 1.042-2.533 1.042-2.534-.467-2.534-1.042c0-.577 1.135-1.043 2.534-1.043"/></svg>