<svg xmlns="http://www.w3.org/2000/svg" xml:space="preserve" width="24" height="24" viewBox="0 0 24 24"><path d="M11.300 0.023 C 11.212 0.032,10.942 0.059,10.700 0.083 C 6.062 0.552,2.020 3.902,0.666 8.400 C 0.290 9.650,0.182 10.421,0.182 11.840 C 0.182 13.023,0.222 13.443,0.426 14.360 C 1.420 18.840,4.861 22.328,9.320 23.377 C 10.242 23.593,10.818 23.655,11.960 23.657 C 13.102 23.660,13.385 23.634,14.380 23.434 C 18.043 22.699,21.246 20.129,22.797 16.680 C 23.488 15.145,23.812 13.619,23.817 11.880 C 23.820 10.858,23.782 10.452,23.596 9.520 C 22.605 4.548,18.516 0.747,13.460 0.097 C 13.025 0.041,11.609 -0.007,11.300 0.023 M13.953 7.315 C 13.946 7.335,13.724 7.695,13.460 8.115 L 12.980 8.880 9.647 8.880 C 7.813 8.880,6.319 8.865,6.327 8.848 C 6.334 8.830,6.554 8.470,6.816 8.048 L 7.292 7.280 10.629 7.280 C 12.552 7.280,13.961 7.295,13.953 7.315 M18.029 11.330 C 19.480 13.536,20.681 15.363,20.696 15.390 C 20.719 15.429,20.517 15.440,19.742 15.440 L 18.760 15.440 18.221 14.620 L 17.683 13.800 16.142 13.800 C 15.294 13.800,14.600 13.787,14.601 13.770 C 14.601 13.753,14.815 13.389,15.077 12.960 L 15.551 12.180 16.074 12.160 L 16.596 12.140 16.021 11.263 L 15.446 10.386 15.363 10.523 C 15.318 10.598,14.601 11.731,13.770 13.040 L 12.259 15.420 7.969 15.430 C 4.856 15.438,3.680 15.428,3.680 15.396 C 3.680 15.372,4.130 14.643,4.680 13.777 C 5.230 12.911,5.680 12.192,5.680 12.181 C 5.680 12.169,5.355 12.160,4.957 12.160 C 4.559 12.160,4.239 12.144,4.247 12.125 C 4.254 12.106,4.485 11.737,4.760 11.305 L 5.259 10.520 8.393 10.520 C 10.160 10.520,11.521 10.535,11.513 10.555 C 11.506 10.574,11.275 10.943,11.000 11.375 L 10.501 12.160 9.140 12.160 L 7.780 12.160 7.270 12.953 C 6.990 13.390,6.760 13.759,6.760 13.773 C 6.760 13.788,7.775 13.800,9.015 13.800 L 11.270 13.800 13.305 10.560 C 14.424 8.778,15.351 7.320,15.365 7.320 C 15.379 7.320,16.577 9.124,18.029 11.330 " fill="#ff4747" stroke="none" fill-rule="evenodd"></path></svg>