<svg xmlns="http://www.w3.org/2000/svg" width="24" height="24" viewBox="0 0 24 24"><path d="M10.660 0.226 C 9.972 0.325,9.192 0.474,8.693 0.601 C 7.312 0.952,5.929 1.597,4.735 2.446 C 3.039 3.651,1.420 5.603,0.546 7.496 C 0.381 7.853,0.368 7.913,0.475 7.835 C 1.025 7.431,1.636 7.074,2.257 6.794 C 2.621 6.630,3.287 6.396,3.315 6.422 C 3.323 6.430,3.213 6.586,3.071 6.768 C 1.812 8.381,1.007 10.430,0.875 12.355 C 0.755 14.114,1.048 15.804,1.761 17.466 C 2.244 18.592,2.887 19.529,3.818 20.464 C 5.190 21.843,6.762 22.768,8.760 23.373 C 10.518 23.905,12.634 23.998,14.383 23.620 C 16.323 23.201,17.910 22.417,19.380 21.151 C 20.042 20.581,20.923 19.627,20.852 19.556 C 20.834 19.538,20.615 19.397,20.365 19.241 C 19.058 18.430,18.017 17.420,17.189 16.160 C 16.811 15.584,16.319 14.570,16.102 13.917 C 15.580 12.351,15.443 10.691,15.704 9.120 C 15.966 7.549,16.610 6.059,17.596 4.742 C 17.888 4.352,18.921 3.275,19.275 2.993 L 19.450 2.853 19.055 2.540 C 17.590 1.380,16.058 0.700,14.040 0.316 C 13.630 0.237,13.428 0.227,12.180 0.218 C 11.410 0.213,10.726 0.216,10.660 0.226 M20.154 3.990 C 19.826 4.235,19.035 5.020,18.749 5.384 C 17.926 6.433,17.322 7.729,17.062 9.006 C 16.953 9.541,16.853 10.346,16.890 10.384 C 16.903 10.397,17.082 10.331,17.287 10.239 C 18.090 9.875,19.175 9.576,20.140 9.452 L 20.660 9.385 21.108 9.669 C 21.883 10.161,22.284 10.490,23.186 11.373 L 23.591 11.770 23.635 11.575 C 23.734 11.125,23.776 10.260,23.726 9.650 C 23.551 7.500,22.700 5.680,21.280 4.420 C 20.947 4.124,20.512 3.800,20.449 3.800 C 20.426 3.800,20.294 3.885,20.154 3.990 " stroke="none" fill-rule="evenodd"></path></svg>