<svg width="24" height="24" viewBox="0 0 24 24" fill="none" xmlns="http://www.w3.org/2000/svg">
<path d="M12 24C15.1826 24 18.2348 22.7357 20.4853 20.4853C22.7357 18.2348 24 15.1826 24 12C24 8.8174 22.7357 5.76516 20.4853 3.51472C18.2348 1.26428 15.1826 0 12 0C8.8174 0 5.76516 1.26428 3.51472 3.51472C1.26428 5.76516 0 8.8174 0 12C0 15.1826 1.26428 18.2348 3.51472 20.4853C5.76516 22.7357 8.8174 24 12 24V24ZM9.8 5.6C9.8 5.1 10.2 4.7 10.7 4.7C11.4879 4.7 12.2681 4.85519 12.9961 5.15672C13.7241 5.45825 14.3855 5.90021 14.9426 6.45736C15.4998 7.01451 15.9417 7.67595 16.2433 8.4039C16.5448 9.13185 16.7 9.91207 16.7 10.7C16.7 10.9387 16.6052 11.1676 16.4364 11.3364C16.2676 11.5052 16.0387 11.6 15.8 11.6C15.5613 11.6 15.3324 11.5052 15.1636 11.3364C14.9948 11.1676 14.9 10.9387 14.9 10.7C14.9 8.3 13 6.5 10.7 6.5C10.5729 6.50079 10.4471 6.47465 10.3308 6.4233C10.2146 6.37195 10.1105 6.29656 10.0255 6.20209C9.94044 6.10761 9.87639 5.99621 9.83753 5.87519C9.79866 5.75418 9.78588 5.62631 9.8 5.5V5.6ZM19.3 10.6V10.6C19.3 12.1913 18.6679 13.7174 17.5426 14.8426C16.4174 15.9679 14.8913 16.6 13.3 16.6C13.0613 16.6 12.8324 16.5052 12.6636 16.3364C12.4948 16.1676 12.4 15.9387 12.4 15.7C12.4 15.4613 12.4948 15.2324 12.6636 15.0636C12.8324 14.8948 13.0613 14.8 13.3 14.8C15.6 14.8 17.5 13 17.5 10.6C17.5 10.3613 17.5948 10.1324 17.7636 9.9636C17.9324 9.79482 18.1613 9.7 18.4 9.7C18.6387 9.7 18.8676 9.79482 19.0364 9.9636C19.2052 10.1324 19.3 10.3613 19.3 10.6ZM14.3 18.4C14.3 18.9 13.8 19.3 13.3 19.3C11.7087 19.3 10.1826 18.6679 9.05736 17.5426C7.93214 16.4174 7.3 14.8913 7.3 13.3C7.3 13.0613 7.39482 12.8324 7.5636 12.6636C7.73239 12.4948 7.9613 12.4 8.2 12.4C8.43869 12.4 8.66761 12.4948 8.8364 12.6636C9.00518 12.8324 9.1 13.0613 9.1 13.3C9.1 15.7 11.1 17.5 13.3 17.5C13.8 17.5 14.3 17.9 14.3 18.5V18.4ZM4.7 13.4V13.4C4.7 11.8087 5.33214 10.2826 6.45736 9.15736C7.58258 8.03214 9.1087 7.4 10.7 7.4C10.9387 7.4 11.1676 7.49482 11.3364 7.6636C11.5052 7.83239 11.6 8.06131 11.6 8.3C11.6 8.5387 11.5052 8.76761 11.3364 8.9364C11.1676 9.10518 10.9387 9.2 10.7 9.2C8.4 9.2 6.5 11 6.5 13.4C6.5 13.6387 6.40518 13.8676 6.2364 14.0364C6.06761 14.2052 5.83869 14.3 5.6 14.3C5.36131 14.3 5.13239 14.2052 4.9636 14.0364C4.79482 13.8676 4.7 13.6387 4.7 13.4Z" fill="black"/>
</svg>
