<svg xmlns="http://www.w3.org/2000/svg" width="24" height="24" fill="none" viewBox="0 0 24 24"><path fill="#0dbd8b" fill-rule="evenodd" d="M8.712 1.589c0-.787.638-1.425 1.424-1.425a9.497 9.497 0 0 1 9.497 9.497 1.425 1.425 0 0 1-2.849 0 6.65 6.65 0 0 0-6.648-6.648A1.425 1.425 0 0 1 8.712 1.59M15.358 22.482c0 .786-.637 1.424-1.424 1.424a9.497 9.497 0 0 1-9.497-9.497 1.425 1.425 0 1 1 2.85 0 6.65 6.65 0 0 0 6.647 6.648c.787 0 1.424.638 1.424 1.425M1.589 15.36a1.425 1.425 0 0 1-1.425-1.425 9.497 9.497 0 0 1 9.497-9.497 1.425 1.425 0 0 1 0 2.849 6.65 6.65 0 0 0-6.648 6.648c0 .786-.637 1.424-1.424 1.424M22.482 8.711c.786 0 1.424.638 1.424 1.425a9.497 9.497 0 0 1-9.497 9.497 1.425 1.425 0 1 1 0-2.85 6.65 6.65 0 0 0 6.648-6.647c0-.787.638-1.425 1.425-1.425" clip-rule="evenodd" style="stroke-width:.439664;fill:#000;fill-opacity:1"/></svg>
