<svg xmlns="http://www.w3.org/2000/svg" width="24" height="24"><path d="M7.809 18.305h-.02a.298.298 0 0 0-.281.402h-.004c1.008 2.809 2.652 4.54 4.504 4.54a4.42 4.42 0 0 0 3.562-2.517l.012-.023a.302.302 0 0 0-.258-.457.3.3 0 0 0-.258.145 3.87 3.87 0 0 1-3.039 2.246l-.02.004c-1.534 0-3.003-1.543-3.933-4.141a.3.3 0 0 0-.265-.2h-.004Zm13.125-1.282c.464 0 .84.375.84.84a.839.839 0 0 1-1.391.633l-.008-.012a.25.25 0 0 0-.086-.082l-.004-.004a.839.839 0 0 1 .648-1.375m-17.868 0c.465 0 .84.375.84.84s-.375.84-.84.84a.841.841 0 0 1-.722-1.265l-.004.003a.84.84 0 0 1 .726-.418M5 13.258h-.012a.3.3 0 0 0-.304.3q.002.12.082.204a18.9 18.9 0 0 0 4.402 3.5l.09.047c4.137 2.39 8.535 3.082 10.836 1.726a1.447 1.447 0 0 0 2.285-1.176 1.444 1.444 0 1 0-2.695.723l-.004-.008c-2.106 1.137-6.215.469-10.121-1.785a18.5 18.5 0 0 1-4.34-3.422l-.008-.012a.3.3 0 0 0-.207-.097Zm7-1.73a1.044 1.044 0 0 0 .008 2.085c.578 0 1.047-.465 1.047-1.043a1 1 0 0 0-.028-.226l.004.008a1.05 1.05 0 0 0-1.023-.825zm2.7-5.848q-.035.001-.063.008c-2.032.472-3.825 1.203-5.457 2.18l.086-.052c-4.282 2.473-7.118 6.086-6.899 8.786a1.44 1.44 0 1 0 .703-.184h-.004a1 1 0 0 0-.105.008c-.094-2.403 2.574-5.758 6.605-8.086a17.9 17.9 0 0 1 5.075-2.04l.125-.023A.3.3 0 0 0 15 5.984c0-.168-.133-.3-.3-.3Zm2.527-.274a.304.304 0 0 0-.008.606 3.866 3.866 0 0 1 3.508 1.512l.007.011c.77 1.328.168 3.367-1.609 5.469a.3.3 0 0 0 .227.5.31.31 0 0 0 .234-.11c1.922-2.273 2.594-4.558 1.672-6.16A4.44 4.44 0 0 0 17.21 5.41h.016Zm-10.36-.015a4.475 4.475 0 0 0-4.102 1.813l-.011.015a4.4 4.4 0 0 0-.387 1.828c0 .996.324 1.918.875 2.664l-.008-.012a.3.3 0 0 0 .258.145c.168 0 .301-.133.301-.301a.3.3 0 0 0-.035-.145 3.944 3.944 0 0 1-.469-3.906l-.012.028c.77-1.332 2.844-1.832 5.559-1.336q.03.004.059.003c.168 0 .3-.132.3-.3a.3.3 0 0 0-.25-.297 10.8 10.8 0 0 0-2.074-.195h-.004Zm5.145-4.036a.841.841 0 1 1-.727.418l-.004.004a.84.84 0 0 1 .73-.422m0-.601h-.004a1.443 1.443 0 1 0 1.277 2.113l.004-.008c2.082 1.188 3.606 5.13 3.606 9.711 0 .04.003.09.003.137 0 1.879-.285 3.691-.808 5.398l.031-.128c-.004.027-.012.054-.012.085a.305.305 0 0 0 .59.098v-.004c.508-1.629.801-3.504.801-5.449v-.145.008c0-4.867-1.66-9.078-4.05-10.312q.002-.03.003-.063c0-.797-.644-1.441-1.445-1.441Zm0 0" style="stroke:none;fill-rule:nonzero;fill:#000;fill-opacity:1"/></svg>