<svg xmlns="http://www.w3.org/2000/svg" width="24" height="24" viewBox="0 0 24 24"><path d="M15.960 0.282 C 15.453 0.343,10.949 1.479,10.433 1.676 L 10.340 1.711 10.440 1.734 C 10.495 1.746,11.458 1.765,12.580 1.776 C 14.606 1.796,15.240 1.830,15.700 1.943 C 16.002 2.018,16.274 2.183,16.372 2.352 C 16.619 2.774,15.922 3.123,14.400 3.338 C 13.344 3.487,10.586 3.772,9.740 3.819 C 7.442 3.948,6.319 4.125,5.702 4.452 C 5.394 4.616,5.023 4.979,4.910 5.227 C 4.772 5.531,4.785 5.907,4.948 6.251 C 5.299 6.992,6.310 8.002,7.496 8.797 C 8.226 9.286,9.371 9.889,10.540 10.400 C 11.153 10.667,11.392 10.760,12.195 11.040 L 12.850 11.268 11.695 11.292 C 11.060 11.305,10.297 11.344,10.000 11.379 C 7.714 11.642,5.737 12.288,4.140 13.294 C 3.044 13.985,2.482 14.542,2.155 15.265 C 1.835 15.970,1.851 16.555,2.208 17.248 C 2.715 18.231,3.913 19.089,5.740 19.779 C 7.489 20.439,8.758 20.778,10.249 20.985 C 10.927 21.079,13.119 21.079,13.975 20.985 C 14.669 20.909,16.872 20.892,17.003 20.961 C 17.125 21.027,17.095 21.137,16.930 21.229 C 16.346 21.557,13.085 22.443,8.883 23.417 C 7.972 23.628,7.216 23.812,7.203 23.826 C 7.161 23.871,9.724 23.803,10.440 23.740 C 13.657 23.457,16.910 22.841,19.200 22.082 C 20.566 21.630,21.306 21.252,21.830 20.740 C 22.092 20.485,22.120 20.442,22.120 20.301 C 22.120 19.826,21.744 19.549,20.757 19.299 C 19.902 19.083,19.130 19.027,15.724 18.939 C 13.280 18.876,12.574 18.841,11.680 18.737 C 9.645 18.501,7.970 17.867,7.661 17.216 C 7.550 16.984,7.588 16.562,7.749 16.236 C 8.096 15.532,8.947 14.824,10.200 14.197 C 11.040 13.777,11.719 13.543,13.560 13.039 C 14.162 12.874,17.767 11.970,18.060 11.910 C 18.151 11.891,17.631 11.633,15.160 10.472 C 10.751 8.399,10.617 8.332,10.111 7.960 C 9.494 7.506,9.367 7.033,9.755 6.645 C 10.096 6.304,10.658 6.086,11.774 5.862 C 13.085 5.599,14.226 5.470,16.020 5.381 C 17.616 5.302,17.977 5.262,18.419 5.115 C 18.886 4.959,19.168 4.796,19.445 4.520 C 19.933 4.035,20.097 3.398,19.938 2.608 C 19.767 1.758,19.188 1.040,18.339 0.626 C 17.894 0.409,17.564 0.324,16.987 0.280 C 16.407 0.236,16.339 0.236,15.960 0.282 " stroke="none" fill-rule="evenodd"></path></svg>