<svg xmlns="http://www.w3.org/2000/svg" xml:space="preserve" width="24" height="24" viewBox="0 0 24 24"><path d="M-397.233.01c-32.196 0-44.074-11.908-44.074-44.119V-432.75c0-3.645.142-7.059.464-10.196.733-7.03.876-13.84 7.415-21.596.639-.76 7.322-5.7 7.322-5.7 3.591-1.762 6.053-3.098 10.103-4.728l195.573-81.936c10.154-4.655 14.406-6.449 21.781-6.303h.047c7.375-.146 11.627 1.648 21.782 6.303l195.618 81.936c4.051 1.63 6.511 2.966 10.103 4.727 0 0 6.638 4.94 7.276 5.7 6.54 7.758 6.682 14.566 7.415 21.597.322 3.137.464 6.55.464 10.196V-44.11C44.056-11.898 32.178.011-.017.011zm309.44-72.991h15.988c26.705 0 39.578-12.973 39.578-39.81v-44.12h-32.209v42.266c0 8.638-3.991 12.652-12.281 12.652h-5.561c-8.595 0-12.56-4.014-12.56-12.652v-136.344c0-8.64 3.965-12.652 12.56-12.652h6.163c8.285 0 12.282 4.013 12.282 12.652v48.707h32.209v-50.283c0-26.843-13.19-40.088-39.902-40.088h-16.267c-26.706 0-39.903 13.245-39.903 40.088v139.45c0 26.842 13.197 40.134 39.903 40.134m-285.99-1.854h73.085v-29.938h-40.227v-61.082h38.697v-29.938h-38.697v-65.068h40.83v-29.938h-73.688zm89.537 0h51.58c26.712 0 39.95-13.292 39.95-40.134v-57.374c0-26.837-13.238-40.088-39.95-40.088h-18.722v-78.368h-32.858zm106.313 0h32.858V-290.8h-32.858zm-73.455-29.012v-79.619h13.532c8.29 0 12.282 4.013 12.282 12.652v54.315c0 8.638-3.992 12.652-12.282 12.652zm-90.464-238.162h3.8l1.02-.093.973-.093h.88l.881-.092.973-.186.835-.092.88-.186.88-.231.835-.186.788-.185.788-.186.834-.278.788-.185.695-.278.834-.278.788-.325.788-.37.834-.371.788-.464.788-.324.741-.463.788-.464.741-.417.788-.463.695-.557.742-.417.695-.556.695-.556.742-.602.695-.556-.51-.696-.649-.648-.51-.696-.648-.741-.51-.695-.556-.65-.603-.694-.556-.742-.51-.602-.648-.742-.557-.695-.602-.741-.556-.603-.51-.741-.649-.696-.51-.741-.648-.603-.51-.741-.742.556-.695.603-.695.463-.742.556-.695.417-.741.464-.695.463-.788.417-.742.37-.695.372-.741.278-.788.278-.788.232-.834.231-.88.186-.881.185-.88.093-1.02.092-.974.093h-1.853l-.927-.093-.788-.092-.88-.186-.789-.185-.834-.278-.788-.232-.834-.37-.788-.371-.695-.417-.741-.464-.695-.463-.65-.51-.602-.556-.649-.556-.51-.603-.648-.649-.51-.695-.463-.649-.464-.695-.417-.834-.463-.695-.325-.834-.278-.788-.37-.788-.232-.927-.186-.88-.185-.788-.185-1.02-.093-.88-.093-.881v-2.085l.093-.881.092-.834.093-.88.186-.835.185-.788.185-.834.232-.788.278-.695.37-.927.325-.788.464-.834.463-.695.417-.742.556-.695.51-.649.649-.602.51-.649.649-.51.695-.556.741-.51.695-.463.742-.463.788-.371.788-.325.834-.37.88-.278.88-.278.881-.186.927-.185.88-.14.974-.092h2.039l1.02.093.973.139.88.092.881.186.927.185.88.232.788.185.835.371.695.37.788.325.648.371.696.463v8.157h-13.023v13.069h29.474v-29.104l-.602-.603-.741-.556-.603-.417-.741-.556-.695-.463-.742-.51-.695-.464-.742-.463-.787-.417-.788-.464-.834-.463-.788-.324-.788-.464-.927-.37-.788-.325-.88-.37-.788-.372-.834-.278-.788-.231-.835-.325-.88-.231-.788-.279-.88-.185-.835-.185-.88-.186-.88-.231-.928-.093-.973-.093-.88-.092-.974-.093-.926-.093-.974-.093h-3.846l-.88.093-.974.093-.88.093-.881.092-.927.093-.88.185-.881.232-.834.185-.88.186-.789.278-.927.185-.787.278-.788.371-.834.278-.881.37-.788.325-.834.371-.788.37-.788.464-.741.417-.788.464-.695.463-.742.417-.695.556-.741.51-.696.556-.648.556-.603.51-.602.65-.65.509-.648.649-.602.602-.557.649-.51.695-.556.649-.417.741-.556.696-.463.695-.417.741-.464.788-.417.742-.37.787-.371.835-.371.788-.324.834-.279.695-.324.788-.232.834-.231.788-.186.927-.278.788-.185.88-.093.834-.185.88-.093.789-.093.927-.092.88-.093.927v2.966l.093.973v.88l.092.928.093.973.185.88.093.927.185.788.279.88.185.928.232.787.278.881.278.834.37.88.325.835.37.788.371.788.325.834.463.788.464.741.417.695.463.742.464.695.51.741.556.696.51.741.556.603.602.648.556.603.603.649.648.602.603.556.741.65.603.509.741.556.696.464.741.51.695.463.695.463.835.417.787.464.788.463.834.325.788.37.88.464.742.231.88.279.789.37.834.186.788.278.88.185.835.325.88.185.88.093.928.185.88.093.88.092.881.093zm281.355-.047h3.847l.973-.092 1.02-.093h.88l.974-.093.88-.185 1.02-.093.88-.185.788-.185.88-.232.928-.186.787-.185.88-.278.835-.278.788-.185.88-.371.835-.278.788-.371.787-.324.927-.371.788-.464.695-.37.834-.418.788-.463.695-.463.835-.51.695-.464.741-.51.696-.556.695-.556-.51-.695-.464-.741-.51-.695-.555-.742-.51-.788-.464-.741-.556-.696-.51-.741-.463-.695-.51-.742-.556-.695-.463-.741-.51-.788-.556-.695-.51-.742-.464-.695-.51-.742-.74.557-.789.417-.741.463-.695.556-.788.325-.742.463-.788.37-.695.372-.834.324-.695.37-.834.232-.695.371-.974.278-.88.278-.927.232-.88.185-.881.186-.927.185-.88.14-.881.092-.788.093h-1.993l-.973-.186-.88-.231-.835-.186-.695-.324-.602-.371-.835-.742-.51-.787-.37-.788-.093-.927v-.185l.093-1.16.463-.972.325-.556.649-.603.787-.463.742-.464.88-.37.974-.325 1.066-.37.741-.186.695-.278.788-.186.834-.278.88-.185.974-.232.973-.278.974-.278 1.02-.185.88-.278.973-.278.88-.186.927-.278.88-.278.789-.232.927-.324.787-.278.788-.278.973-.37.927-.418.88-.37.881-.464.835-.417.788-.464.695-.463.741-.51.695-.463.742-.65.695-.602.602-.741.65-.603.555-.741.51-.788.464-.741.417-.788.37-.696.279-.834.278-.788.185-.834.185-.88.186-.88.092-.928.093-.973v-2.179l-.185-.972-.093-.88-.093-1.02-.185-.881-.232-.88-.185-.835-.324-.88-.325-.788-.37-.742-.371-.787-.418-.742-.463-.695-.556-.742-.417-.695-.556-.649-.603-.602-.556-.556-.695-.603-.649-.556-.695-.556-.742-.417-.695-.556-.788-.464-.834-.324-.788-.463-.88-.371-.927-.325-.88-.278-.881-.278-.788-.278-.927-.185-.788-.186-.788-.185-.926-.185-.881-.093-.788-.093-.927-.092-.973-.093-.88-.093h-3.754l-.88.093h-.974l-.927.093-.88.092-.974.093-.88.185-.927.093-.88.185-.881.186-.927.185-.88.232-.881.232-.788.185-.927.278-.88.278-.788.37-.927.279-.788.278-.88.324-.835.371-.788.37-.788.418-.834.37-.788.464-.695.417-.834.464-.695.463-.695.464-.742.51-.695.556-.741.51-.696.555-.648.557-.696.602.557.742.602.602.556.742.603.695.556.649.51.695.648.741.51.603.649.741.51.603.649.741.51.695.555.65.603.694.556.742.603.602.556.742.695-.556.834-.51.695-.556.834-.556.696-.417.787-.557.742-.463.788-.324.695-.464.834-.37.788-.325.788-.37.834-.279.788-.37.88-.279.927-.278.788-.278.88-.232.928-.185.88-.185.973-.093.88-.185h.928l.973-.093h1.946l.974.093.927.185.787.185.788.186.742.324.602.325.742.556.51.602.37.742.278.788.093.926v.186l-.093 1.066-.37.88-.417.65-.65.509-.694.556-.742.37-.788.371-.88.325-1.066.463-.65.186-.694.185-.834.278-.788.186-.88.278-.881.231-1.02.278-.88.186-.974.278-.88.185-.927.278-.88.186-.881.278-.788.278-.927.185-.788.232-.788.324-.834.278-.973.325-.88.37-.881.371-.927.371-.788.417-.88.464-.742.463-.788.417-.695.556-.741.464-.603.51-.649.648-.602.603-.556.649-.51.602-.464.649-.463.695-.417.834-.37.603-.233.741-.278.788-.231.742-.186.88-.231.834-.093.88-.093.881-.093.974v2.085l.093.88.093.835.093.88.231.835.186.787.231.788.186.834.37.788.371.834.325.788.463.788.417.834.556.696.556.741.603.695.649.649.602.695.695.649.65.463.694.51.742.556.695.464.834.417.788.37.788.464.834.325.88.324.881.324.834.278.696.186.787.232.835.185.88.185.788.186.88.092.927.093.88.093zm-216.751-.926h16.545l.324-.835.37-.788.372-.787.324-.927.278-.788.37-.834.372-.788.37-.788.325-.834.37-.88.371-.835.325-.788.278-.788.324-.834.37-.788.372-.88.37-.834.325-.788.37-.834.371-.788.232-.835.37-.88.325-.788.37-.834.372-.788.37-.834.325-.788.37-.88.279-.835.37-.788.325-.834.37-.788.371-.787.371-.927.324-.788.371-.788.232-.834.37-.788.371-.834.371-.788.325-.88.37-.835.371-.788.325-.834.278-.788.37-.788.371-.927.37-.787.325-.835.371-.787.37-.788.325-.834.278-.881.325-.834.37-.788.371-.788.37-.834.325-.788.371-.927.37-.788.233-.788.37-.834.371-.788.324-.834.371-.88.371-.788.324-.834.371-.788.278-.834.371-.788.37-.88.325-.835.37-.788.372-.788.324-.834.37-.788.279-.927.37-.787.371-.788.325-.835h-18.445l-.371.835-.232.788-.37.787-.371.927-.232.788-.37.834-.325.788-.278.788-.37.834-.325.788-.278.834-.325.88-.37.789-.279.834-.324.788h-25.628l-.371-.788-.278-.834-.325-.788-.37-.88-.232-.835-.37-.788-.372-.834-.231-.788-.371-.788-.37-.834-.232-.788-.371-.927-.371-.787-.232-.788-.37-.835h-18.028l.37.835.325.788.37.787.371.927.232.788.37.834.372.788.324.788.37.834.371.88.325.789.37.834.279.788.324.834.37.788.372.88.324.834.37.788.372.834.324.788.324.788.325.927.37.788.371.834.325.788.37.788.371.834.325.88.278.835.37.788.325.787.37.835.371.787.325.927.37.788.371.788.232.834.37.788.371.834.325.88.37.789.371.834.325.788.37.834.279.788.324.788.37.927.372.787.324.788.37.834.371.788.325.834.278.881.37.788.371.834.371.788.325.834.37.788.371.88.325.835.278.788.37.834.371.788.37.834.325.88.371.788.37.834.325.788.278.788.371.834.324.88.371.835.37.788.325.788.371.834.37.788.279.927.37.787.325.788zm51.35-.464h18.305l.417-.695.464-.834.556-.695.417-.835.463-.695.464-.788.417-.741.556-.788.417-.742.463-.695.464-.788.417-.741.556-.788.464-.741.417-.788.463-.742.51-.695.463-.788.464-.741.417-.788.463-.742.556-.787.418-.742.463-.788.463-.695.418-.742.556-.787.417-.742.463-.788.464-.741.417-.788.556-.695.417-.834.463-.696.464.696.417.834.556.695.464.788.417.741.463.788.51.742.463.787.464.742.417.695.556.788.417.742.464.787.463.742.51.788.463.741.464.788.417.695.463.742.51.788.463.741.464.788.417.741.556.788.417.695.464.742.463.788.51.741.463.788.464.695.417.835.556.695.417.834.463.695h18.306v-65.253h-17.239v38.605l-.464-.741-.51-.788-.463-.742-.51-.695-.464-.834-.556-.695-.417-.742-.463-.788-.51-.741-.463-.695-.557-.742-.417-.788-.556-.741-.417-.695-.463-.834-.556-.696-.418-.741-.556-.788-.417-.741-.556-.696-.463-.834-.417-.695-.557-.742-.417-.787-.556-.742-.463-.695-.51-.742-.463-.787-.418-.742-.556-.695-.463-.788-.51-.741-.463-.696-.51-.834-.464-.695h-.37l-.51.788-.464.741-.556.788-.417.695-.556.835-.463.695-.51.834-.464.695-.51.834-.463.695-.51.835-.463.695-.556.834-.417.695-.556.834-.417.696-.557.834-.556.695-.417.834-.556.695-.417.834-.556.696-.464.834-.51.695-.463.834-.51.695-.463.788-.556.742-.417.834-.556.695-.418.788-.556.741-.463.788-.51.742v-38.42h-16.961v65.253m81.426 0h51.627v-14.783h-34.573v-10.659h31.097v-13.904h-31.097v-11.123h35.036v-14.784h-52.09v65.253m-124.712-20.113-.371-.788-.232-.834-.37-.88-.371-.835-.232-.788-.37-.788-.325-.927-.37-.788-.279-.834-.37-.788-.372-.834-.231-.88-.371-.788-.37-.834-.232-.788-.371-.834-.325-.88-.37-.835-.278-.788-.325-.834-.37-.88-.279-.835-.324-.788h15.061l-.416.788-.278.834-.371.88-.37.835-.279.788-.324.834-.371.88-.278.835-.37.788-.325.834-.325.788-.324.88-.278.834-.371.788-.324.834-.278.788-.325.927-.37.788-.279.788-.324.834-.37.88-.233.835zm-27.065-122.488h188.018L-204.21-517.7z" style="fill:#000;fill-opacity:1;fill-rule:evenodd;stroke:none" transform="matrix(.04214 0 0 -.04214 20.407 .145)"/></svg>