<svg xmlns="http://www.w3.org/2000/svg" width="24" height="24" viewBox="0 0 24 24"><path d="M8.211 5.989 C 6.164 9.262,4.495 11.945,4.500 11.952 C 4.505 11.958,6.182 11.242,8.227 10.361 L 11.944 8.759 15.478 10.360 C 17.421 11.241,19.019 11.954,19.029 11.945 C 19.051 11.922,12.009 0.064,11.965 0.049 C 11.947 0.042,10.257 2.715,8.211 5.989 M8.300 10.582 C 6.320 11.449,4.649 12.182,4.586 12.211 C 4.474 12.262,4.545 12.305,8.146 14.327 C 10.167 15.462,11.856 16.408,11.900 16.429 C 11.967 16.461,12.566 16.121,15.496 14.384 C 17.430 13.238,19.009 12.282,19.006 12.260 C 18.998 12.214,12.050 9.002,11.960 9.004 C 11.927 9.005,10.280 9.715,8.300 10.582 M4.520 13.897 C 4.520 13.954,11.932 23.923,11.966 23.911 C 12.011 23.896,19.044 13.910,19.024 13.890 C 19.016 13.883,17.421 14.842,15.478 16.023 C 12.015 18.127,11.943 18.168,11.843 18.109 C 11.786 18.076,10.174 17.145,8.260 16.041 C 6.346 14.936,4.721 13.997,4.650 13.953 C 4.579 13.909,4.520 13.884,4.520 13.897 " fill="#828384" stroke="none" fill-rule="evenodd"></path></svg>