<svg version="1.1" id="svg1" width="24" height="24" viewBox="0 0 24 24" xmlns="http://www.w3.org/2000/svg">
   <defs id="defs1" />
   <g id="g1">
      <path style="fill:#000000;stroke-width:0.0436977"
         d="m 4.7210812,23.971525 c -2.385353,-0.308521 -4.177581,-2.017368 -4.656392,-4.439759 -0.05883,-0.297625 -0.09216,-14.1487182 -0.0354,-14.7107322 0.260853,-2.582844 2.356391,-4.60290004 4.970381,-4.79134804 0.549001,-0.03958 13.4580598,-0.03958 14.0070608,0 2.205354,0.158989 4.062644,1.61242704 4.732548,3.70349404 0.07756,0.242109 0.131951,0.475316 0.226529,0.971333 0.03719,0.195073 0.04837,14.0468972 0.01164,14.4323482 -0.242256,2.542447 -2.172746,4.520621 -4.71926,4.835828 -0.300224,0.03716 -14.2494318,0.03605 -14.5371118,-0.0012 z m 8.5202938,-5.23862 c 0.561591,-0.09103 0.739111,-0.126298 0.968651,-0.192453 1.903942,-0.548731 3.389957,-1.735171 4.285933,-3.421906 0.204069,-0.384172 0.229685,-0.402483 0.06528,-0.04666 -0.250807,0.54281 -0.64587,1.16383 -1.019435,1.602502 -0.163774,0.192317 -0.182021,0.153096 0.323111,0.694488 0.202921,0.217488 0.182462,0.216613 0.368919,0.01577 0.117654,-0.126728 0.130096,-0.101588 -0.257757,-0.520842 -0.267403,-0.289053 -0.267403,-0.289053 -0.148252,-0.4244 0.06553,-0.07444 0.193498,-0.244786 0.284365,-0.378542 0.190017,-0.279704 0.167233,-0.268385 0.317626,-0.157797 0.942753,0.69323 2.381514,-0.03471 2.399805,-1.214189 0.0023,-0.147548 -0.483685,-0.09164 -0.506386,0.05826 -0.05433,0.358739 -0.314999,0.54757 -0.595508,0.431392 -0.194824,-0.08069 -0.19161,-0.05407 -0.211178,-1.749532 -0.01499,-1.298927 -0.02487,-1.553471 -0.06555,-1.68955 -0.02635,-0.08812 -0.06784,-0.337181 -0.09221,-0.553473 C 18.800654,6.2319948 13.611334,3.3586128 9.2050042,5.5637168 c -3.106339,1.554537 -4.613267,5.1690462 -3.565394,8.5519362 0.126284,0.407685 0.128394,0.382222 -0.055,0.663536 -0.253529,0.388906 -0.529961,0.566673 -0.961051,0.618031 -0.139983,0.01668 -0.139983,0.01668 -0.1311,0.306388 0.0089,0.289711 0.0089,0.289711 0.99942,0.288558 0.544795,-6.33e-4 1.004701,-8.3e-4 1.022015,-4.37e-4 0.01731,3.94e-4 0.07548,0.06298 0.129256,0.139088 0.703703,0.995821 1.850145,1.930723 2.883709,2.351609 0.104152,0.04241 0.231699,0.09644 0.283439,0.120067 0.145229,0.06631 0.3361228,0.130142 0.3494258,0.11684 0.0066,-0.0066 -0.03807,-0.0281 -0.09923,-0.0478 -0.06116,-0.01971 -0.1243118,-0.04509 -0.1403348,-0.0564 -0.01602,-0.01131 -0.107794,-0.05113 -0.203935,-0.08849 -1.388777,-0.53959 -2.946941,-2.062604 -3.52401,-3.444511 -0.07468,-0.178828 -0.029,-0.12439 0.08555,0.101955 1.210662,2.392281 4.3206618,3.977208 6.9636098,3.548816 z m 1.045812,-0.30778 c 0.0304,-0.02317 0.06645,-0.03523 0.08012,-0.02678 0.01366,0.0084 0.02484,0.0047 0.02484,-0.0084 0,-0.01306 0.04261,-0.04218 0.09468,-0.06472 0.05208,-0.02254 0.153679,-0.08106 0.225784,-0.130041 0.07211,-0.04898 0.134846,-0.0857 0.139424,-0.0816 0.0046,0.0041 0.02858,-0.0128 0.05333,-0.03755 0.02475,-0.02475 0.06034,-0.03623 0.07908,-0.0255 0.01874,0.01073 0.02459,0.009 0.013,-0.0038 -0.02373,-0.02625 0.15461,-0.132231 0.18859,-0.112072 0.01202,0.0071 0.02185,-0.0017 0.02185,-0.01961 0,-0.01791 0.0122,-0.02503 0.02712,-0.01581 0.01492,0.0092 0.03456,0.0047 0.04365,-0.01 0.0091,-0.01471 0.05633,-0.04061 0.104978,-0.05757 0.06797,-0.02369 0.08355,-0.02267 0.0673,0.0044 -0.01581,0.02634 -0.0099,0.02611 0.02353,-9.13e-4 0.02458,-0.01989 0.05332,-0.02754 0.06386,-0.01699 0.01054,0.01054 0.01917,0.0023 0.01917,-0.01838 0,-0.02969 0.01032,-0.02918 0.04929,0.0024 0.02711,0.02199 0.04037,0.02509 0.02947,0.0069 -0.01208,-0.02016 0.0085,-0.03849 0.05267,-0.04694 0.242589,-0.04637 -0.420668,0.343543 -0.852033,0.500889 -0.09239,0.0337 -0.194197,0.07345 -0.226244,0.08834 -0.132175,0.06141 -0.382014,0.118332 -0.323459,0.0737 z m -2.313895,-0.02395 c -0.0076,-0.0068 -0.118669,-0.02015 -0.246856,-0.02965 -1.351758,-0.100176 -2.7666878,-0.790277 -3.8674628,-1.886271 -0.431555,-0.429681 -0.47913,-0.492798 -0.371451,-0.492798 0.175227,0 0.06952,-0.577191 -0.10925,-0.596558 -0.458814,-0.0497 -0.439744,-0.0365 -0.66259,-0.458794 -0.190498,-0.360997 -0.195379,-0.28927 0.06893,-1.01289 0.26802,-0.733783 2.943001,-0.607988 3.2463548,0.152665 0.438349,1.099148 0.382766,1.255923 -0.4676858,1.31913 -0.269484,0.02003 -0.269484,0.02003 -0.269484,0.308238 0,0.288209 0,0.288209 2.0830398,0.288209 2.083041,0 2.083041,0 2.083041,-0.289205 0,-0.289206 0,-0.289206 -0.167518,-0.307882 -0.495156,-0.05521 -0.706122,-0.205601 -0.940685,-0.670608 C 12.195631,14.415414 12.109954,14.209492 11.697419,13.152265 11.59114,12.879898 11.460094,12.545629 11.406206,12.409446 11.275472,12.07906 10.645075,10.467261 10.546018,10.210119 10.502818,10.097968 10.411277,9.8620138 10.3426,9.6857758 10.27392,9.5095378 10.182389,9.2735838 10.13919,9.1614328 10.09599,9.0492818 9.9423222,8.6560238 9.7977032,8.2875278 c -0.144619,-0.368496 -0.319163,-0.817465 -0.387875,-0.997708 -0.124931,-0.327714 -0.124931,-0.327714 -0.422815,-0.327714 -0.368643,0 -0.293126,-0.105379 -0.699318,0.97586 -0.08561,0.227897 -0.277689,0.733175 -0.553673,1.456508 -0.122259,0.320432 -0.27958,0.7333522 -0.349602,0.9176012 -0.07002,0.184248 -0.227482,0.597168 -0.349914,0.9176 -0.12243,0.320431 -0.246697,0.648146 -0.276149,0.728253 -0.02945,0.08011 -0.09171,0.243966 -0.138343,0.364128 -0.04664,0.120162 -0.16099,0.421659 -0.254118,0.669993 -0.208521,0.556043 -0.199111,0.546181 -0.258379,0.27078 -0.767937,-3.5683952 1.477058,-7.0614092 5.0216858,-7.8133022 3.17513,-0.673514 6.363111,1.177378 7.446146,4.323118 0.08378,0.2433352 0.24508,0.9057562 0.24508,1.0064672 0,0.01604 -0.06256,-0.0025 -0.139013,-0.04128 -0.865096,-0.438329 -2.800449,-0.389849 -3.616603,0.09059 -0.981211,0.577606 -1.009532,1.72305 -0.04268,1.72603 0.460937,0.0014 0.649985,-0.168112 0.754187,-0.676332 0.150088,-0.732016 0.854075,-1.066689 1.580363,-0.7513 0.425912,0.184952 0.69394,1.221821 0.338259,1.30856 -2.485052,0.606025 -3.51524,1.318862 -3.519854,2.43556 -0.0059,1.438099 2.303079,1.734905 3.676537,0.472588 0.277595,-0.255133 -0.177062,0.412458 -0.644365,0.946146 -1.177701,1.345004 -2.760599,2.070035 -4.607601,2.110468 -0.336919,0.0074 -0.618785,0.0078 -0.626368,0.001 z m 1.45745,-0.235069 c 0.449974,-0.104132 0.504766,-0.120568 0.598942,-0.179659 0.09,-0.05647 0.321497,-0.273629 0.245928,-0.230697 -0.03885,0.02207 -0.03885,0.01854 0,-0.03174 0.06138,-0.07946 0.126543,-0.126647 0.152629,-0.110528 0.01219,0.0075 0.02217,-1.74e-4 0.02217,-0.01715 0,-0.01697 0.01639,-0.02757 0.03642,-0.02357 0.02003,0.004 0.03642,-0.01113 0.03642,-0.03364 0,-0.05569 -0.09028,-0.06667 -0.248811,-0.03027 -0.106465,0.02445 -0.149101,0.0216 -0.2185,-0.01458 -0.04742,-0.02473 -0.106982,-0.04504 -0.132352,-0.04514 -0.02537,-8.8e-5 -0.0555,-0.0096 -0.06696,-0.02101 -0.0191,-0.0191 -0.188119,-0.07129 -0.367612,-0.113504 -0.218571,-0.05141 -1.137603,-0.01693 -1.442105,0.0541 -0.08012,0.01869 -0.152222,0.03534 -0.160234,0.037 -0.210197,0.04353 -0.370079,0.08682 -0.391845,0.106105 -0.01522,0.01349 -0.04676,0.02452 -0.07008,0.02452 -0.02332,0 -0.08343,0.03128 -0.133557,0.06952 -0.07719,0.05887 -0.116886,0.06783 -0.259222,0.05853 -0.128179,-0.0084 -0.162918,-0.0024 -0.146359,0.02516 0.01291,0.02148 5.29e-4,0.01894 -0.03052,-0.0063 -0.06898,-0.05602 -0.124043,-0.06231 -0.124043,-0.01417 0,0.02133 0.0076,0.03673 0.01699,0.03422 0.0093,-0.0025 0.04649,0.01178 0.08254,0.03177 0.03605,0.01999 0.06555,0.02959 0.06555,0.02133 0,-0.02345 0.26743,0.130454 0.35912,0.206675 0.04529,0.03765 0.104945,0.06846 0.132557,0.06846 0.02761,0 0.06335,0.01314 0.07942,0.02921 0.0306,0.03059 0.458221,0.160375 0.608808,0.184772 0.236269,0.03828 1.052966,-0.0096 1.354706,-0.07944 z M 6.3727472,15.945911 c -0.0096,-0.0096 -0.01023,-0.03613 -0.0015,-0.059 0.01694,-0.04414 0.09656,-0.0022 0.09656,0.05085 0,0.02887 -0.06851,0.03475 -0.0951,0.0082 z M 16.440995,15.205219 c -1.035907,-0.20968 -0.567978,-1.418152 0.74796,-1.931682 0.186157,-0.07264 0.612418,-0.223229 0.631901,-0.223229 0.0055,0 0.0065,0.369973 0.0022,0.822162 -0.0094,1.004093 -0.52927,1.505365 -1.382066,1.332749 z m 2.234657,-0.450797 c 0,-0.01602 0.01271,-0.04879 0.02824,-0.07282 0.01553,-0.02403 0.02824,-0.03059 0.02824,-0.01457 0,0.01602 -0.01271,0.04879 -0.02824,0.07283 -0.01553,0.02403 -0.02824,0.03059 -0.02824,0.01456 z M 7.2082602,12.871466 c -0.0063,-0.01024 0.0138,-0.08234 0.04475,-0.160216 0.03095,-0.07788 0.127731,-0.331667 0.215071,-0.56398 0.08734,-0.232313 0.250458,-0.664896 0.362485,-0.961296 0.112027,-0.296399 0.273625,-0.725469 0.359107,-0.953489 0.08548,-0.228019 0.16374,-0.4049852 0.173907,-0.3932572 0.01017,0.01173 0.07186,0.158964 0.137092,0.3271902 0.20751,0.535141 0.791952,2.012816 0.926033,2.341337 0.07111,0.174234 0.129295,0.331537 0.129299,0.349562 8e-6,0.03559 -2.325799,0.04961 -2.347742,0.01415 z m 8.9318908,5.095084 c 0.05608,-0.03444 0.226273,-0.155162 0.378204,-0.268261 0.151929,-0.113099 0.294412,-0.216984 0.316627,-0.230856 0.02939,-0.01835 0.130606,0.06473 0.371529,0.304939 0.331138,0.330161 0.331138,0.330161 0.448125,0.215939 0.151375,-0.147798 0.155407,-0.132867 -0.11816,-0.437617 -0.436528,-0.486285 -0.363816,-0.462111 -0.643283,-0.213867 -0.263168,0.233765 -0.618734,0.506612 -0.862292,0.661686 -0.08412,0.05356 -0.152951,0.102908 -0.152951,0.10966 0,0.01281 0.08916,-0.03534 0.262201,-0.141623 z M 11.697276,2.7473858 c 0.253984,-0.587272 0.254973,-0.591763 0.130264,-0.591763 -0.07135,0 -0.08863,0.02404 -0.188504,0.262172 -0.13427,0.320158 -0.127589,0.319964 -0.251074,0.0073 -0.09516,-0.240968 -0.105775,-0.255388 -0.194278,-0.264018 -0.124413,-0.01213 -0.122617,0.0013 0.05728,0.42775 0.152013,0.360361 0.152013,0.360361 0.100626,0.495212 -0.09494,0.249136 -0.09523,0.242148 0.0097,0.231666 0.0929,-0.0093 0.09792,-0.01777 0.336014,-0.568302 z m -4.7385038,0.250163 c 0.07449,-0.02596 0.09175,-0.04789 0.09175,-0.116521 0,-0.09635 -0.0183,-0.101907 -0.135054,-0.04103 -0.242384,0.126398 -0.453933,-0.09457 -0.360767,-0.376838 0.05278,-0.159908 0.216857,-0.211039 0.379288,-0.118195 0.105117,0.06008 0.116533,0.05471 0.116533,-0.05486 0,-0.115892 -0.03961,-0.133475 -0.302045,-0.134085 -0.258566,-6.03e-4 -0.397348,0.143271 -0.396728,0.411279 8.61e-4,0.371991 0.255786,0.552677 0.607025,0.430248 z m 0.698053,-0.06115 c 0.0086,-0.07424 0.0036,-0.07768 -0.08961,-0.06255 -0.162304,0.02633 -0.200118,-0.0375 -0.190067,-0.320886 0.0084,-0.237117 0.0084,-0.237117 0.146794,-0.245996 0.126142,-0.0081 0.138384,-0.01538 0.138384,-0.08231 0,-0.06934 -0.0077,-0.07297 -0.138384,-0.06519 -0.138384,0.0082 -0.138384,0.0082 -0.138384,-0.107037 0,-0.10877 -0.0053,-0.115798 -0.09468,-0.124411 -0.09279,-0.0089 -0.09468,-0.0068 -0.09468,0.109238 0,0.0858 -0.01203,0.118366 -0.0437,0.118366 -0.02913,0 -0.0437,0.02913 -0.0437,0.08739 0,0.05826 0.01457,0.08739 0.0437,0.08739 0.03579,0 0.0437,0.05032 0.0437,0.278061 0,0.379125 0.420196,0.678266 0.460638,0.327932 z m 1.032493,-0.01727 c 0.105131,-0.105119 0.142683,-0.355346 0.08126,-0.541451 -0.09396,-0.284662 -0.575816,-0.316298 -0.715117,-0.04695 -0.235192,0.45476 0.284782,0.937442 0.633861,0.588402 z m -0.414452,-0.09277 c -0.108458,-0.108445 -0.114815,-0.356881 -0.01204,-0.470436 0.07133,-0.07881 0.231606,-0.07267 0.284533,0.01089 0.177524,0.280291 -0.05671,0.675304 -0.272495,0.459541 z m 2.0313148,0.173769 c 0.16789,0.0035 0.197638,-0.600392 0.03746,-0.760549 -0.127201,-0.127187 -0.5633358,-0.119799 -0.5782768,0.0098 -0.0091,0.07918 -0.0091,0.07918 0.181385,0.0614 0.2579178,-0.02408 0.4093608,0.08407 0.1700618,0.121451 -0.3238198,0.05058 -0.4442848,0.139175 -0.4442848,0.326741 0,0.178892 0.137587,0.282235 0.3435798,0.258067 0.09144,-0.01073 0.221973,-0.01833 0.290072,-0.0169 z M 9.9114242,2.8489208 c -0.109506,-0.109492 0.01563,-0.256345 0.2184268,-0.256345 0.123843,0 0.123884,3.6e-5 0.106869,0.09467 -0.02931,0.163046 -0.226106,0.260852 -0.3252958,0.161672 z m 5.7407418,0.149946 c 0.09473,-0.02631 0.109251,-0.04177 0.109251,-0.116359 0,-0.09865 -0.01267,-0.102097 -0.15574,-0.04233 -0.199922,0.08352 -0.426929,-0.01079 -0.426929,-0.17737 0,-0.06955 0.0029,-0.07024 0.291334,-0.07024 0.291335,0 0.291335,0 0.291335,-0.133327 0,-0.369982 -0.573173,-0.438675 -0.739311,-0.0886 -0.196945,0.414984 0.150478,0.761393 0.63006,0.628221 z m -0.473418,-0.551942 c 0,-0.124737 0.26805,-0.193588 0.359653,-0.09238 0.08922,0.09857 0.05982,0.12151 -0.155719,0.12151 -0.116534,0 -0.203934,-0.01248 -0.203934,-0.02913 z m 1.181025,0.540317 c 0.273834,-0.114402 0.196615,-0.391845 -0.132989,-0.477823 -0.153281,-0.03999 -0.190318,-0.06116 -0.197775,-0.113076 -0.01174,-0.08175 0.107329,-0.116639 0.255049,-0.07472 0.05705,0.01619 0.123081,0.03462 0.146736,0.04096 0.06565,0.01759 0.07598,-0.122463 0.01246,-0.168908 -0.109812,-0.08029 -0.442085,-0.04921 -0.542001,0.0507 -0.169502,0.169483 -0.09744,0.328178 0.183996,0.405209 0.201059,0.05503 0.26433,0.113794 0.202599,0.188167 -0.0482,0.05807 -0.176867,0.05907 -0.312421,0.0024 -0.146111,-0.06104 -0.160654,-0.05622 -0.150303,0.04983 0.01334,0.136628 0.310844,0.19073 0.534652,0.09723 z m 0.821899,0.01288 c 0.157322,0.0033 0.198945,-0.626381 0.05117,-0.774139 -0.114003,-0.11399 -0.578141,-0.09659 -0.59187,0.02219 -0.009,0.07799 -0.009,0.07799 0.208069,0.06158 0.269237,-0.02036 0.404807,0.08435 0.157513,0.121655 -0.364853,0.05504 -0.429401,0.101689 -0.429401,0.310319 0,0.216123 0.09891,0.300913 0.320468,0.274727 0.08813,-0.01042 0.215951,-0.01776 0.284051,-0.01633 z m -0.384746,-0.155412 c -0.126691,-0.09263 0.02082,-0.252139 0.233166,-0.252139 0.0954,0 0.100596,0.0052 0.100596,0.101208 0,0.152777 -0.204656,0.245325 -0.333762,0.150931 z m 1.229615,0.155412 c 0.123817,0.0026 0.123817,0.0026 0.123817,-0.422795 0,-0.591492 -0.177533,-0.667233 -0.203934,-0.087 -0.02668,0.586425 -0.32923,0.590964 -0.343257,0.0052 -0.01048,-0.437776 -0.185895,-0.541653 -0.204963,-0.121377 -0.02371,0.522458 0.05728,0.675974 0.339111,0.642857 0.09098,-0.01069 0.221127,-0.01826 0.289226,-0.01683 z m 1.398405,0.0014 c 0.123817,0.0012 0.123817,0.0012 0.128187,-0.37865 0.0024,-0.208923 0.0057,-0.396245 0.0073,-0.416272 0.0016,-0.0206 -0.0382,-0.04038 -0.09177,-0.04554 -0.09468,-0.0091 -0.09468,-0.0091 -0.09468,0.312401 0,0.321529 0,0.321529 -0.08937,0.36774 -0.216494,0.111941 -0.293841,0.0046 -0.284231,-0.394276 0.0067,-0.276737 0.0067,-0.276737 -0.07935,-0.276737 -0.08601,0 -0.08601,0 -0.08601,0.359431 0,0.443984 0.04874,0.518821 0.317722,0.487807 0.08163,-0.0094 0.204131,-0.01657 0.27223,-0.0159 z m 0.732157,-0.0043 c 0.289135,-0.100782 0.219285,-0.40084 -0.11357,-0.487862 -0.136906,-0.03579 -0.191176,-0.06401 -0.19875,-0.103332 -0.02039,-0.105885 0.171305,-0.141774 0.326098,-0.06105 0.09901,0.05163 0.135351,0.03579 0.135351,-0.05898 0,-0.160072 -0.436314,-0.19382 -0.58491,-0.04524 -0.148163,0.148146 -0.09142,0.35195 0.110751,0.397781 0.04447,0.01008 0.119108,0.02735 0.165859,0.03838 0.11028,0.02602 0.158178,0.09841 0.106393,0.160802 -0.0482,0.05807 -0.176867,0.05907 -0.312422,0.0024 -0.14611,-0.06104 -0.160654,-0.05622 -0.150302,0.04983 0.01278,0.130953 0.284991,0.187572 0.515502,0.107225 z M 5.7011722,2.9437618 c 0.601613,-0.27311 0.307415,-1.058909 -0.398059,-1.063208 -0.277366,-0.0017 -0.277366,-0.0017 -0.285279,0.559066 -0.0083,0.585488 0.18693,0.729493 0.683338,0.504142 z m -0.479574,-0.504119 c 0.0081,-0.415105 0.0081,-0.415105 0.151557,-0.407531 0.583226,0.03079 0.563539,0.8224 -0.02046,0.82259 -0.139184,4.4e-5 -0.139184,4.4e-5 -0.1311,-0.415059 z m 1.04669,0.182063 c 0.0024,-0.208281 0.0057,-0.395078 0.0073,-0.415105 0.0017,-0.02169 -0.03243,-0.03641 -0.08449,-0.03641 -0.0874,0 -0.0874,0 -0.09548,0.415105 -0.0081,0.415104 -0.0081,0.415104 0.08012,0.415104 0.0882,0 0.0882,0 0.09257,-0.378692 z m 1.631472,0 c 0.0024,-0.208281 0.0057,-0.395078 0.0073,-0.415105 0.0017,-0.02169 -0.03243,-0.03641 -0.08449,-0.03641 -0.0874,0 -0.0874,0 -0.09548,0.415105 -0.0081,0.415104 -0.0081,0.415104 0.08012,0.415104 0.0882,0 0.0882,0 0.09257,-0.378692 z m 1.160967,0.07448 c 0,-0.334209 0.03145,-0.394908 0.20459,-0.394908 0.127754,0 0.145011,0.04576 0.145011,0.384518 0,0.314605 0,0.314605 0.101967,0.314605 0.157556,0 0.145083,-0.730212 -0.01393,-0.815302 -0.07167,-0.03835 -0.309135,-0.03793 -0.38129,6.82e-4 -0.03982,0.02131 -0.05635,0.02077 -0.05635,-0.0018 0,-0.01856 -0.03978,-0.02817 -0.09468,-0.02287 -0.156252,0.01506 -0.16419,0.839338 -0.0081,0.839338 0.102767,0 0.102767,0 0.102767,-0.304215 z m 1.6314718,0.01623 c 0,-0.322865 0.06786,-0.407766 0.290378,-0.363268 0.09077,0.01815 0.09246,0.01652 0.08322,-0.08021 -0.01133,-0.118642 -0.100789,-0.142867 -0.268631,-0.07275 -0.0936,0.0391 -0.10497,0.03908 -0.10497,-2.18e-4 0,-0.03216 -0.02558,-0.04159 -0.09468,-0.03493 -0.156253,0.01506 -0.164191,0.839338 -0.0081,0.839338 0.102767,0 0.102767,0 0.102767,-0.287983 z m 3.010948,0.02134 c 0.01041,-0.146656 0.01893,-0.369502 0.01893,-0.495213 0,-0.228566 0,-0.228566 0.191394,-0.228566 0.181818,0 0.190928,-0.0033 0.182084,-0.06554 -0.01542,-0.108537 -0.970713,-0.102262 -0.970713,0.0064 0,0.069 0.0077,0.07196 0.189367,0.07283 0.189368,9.04e-4 0.189368,9.04e-4 0.197355,0.488836 0.01004,0.61337 0.152102,0.777453 0.191584,0.221284 z m 0.659865,-0.03757 c 0,-0.334209 0.03145,-0.394908 0.20459,-0.394908 0.127754,0 0.145011,0.04576 0.145011,0.384518 0,0.314605 0,0.314605 0.101967,0.314605 0.160707,0 0.146664,-0.729366 -0.01572,-0.816259 -0.0702,-0.03756 -0.308162,-0.03654 -0.379501,0.0016 -0.05304,0.02838 -0.05635,0.01897 -0.05635,-0.160216 0,-0.190371 0,-0.190371 -0.103734,-0.190371 -0.10216,0 -0.141707,0.535095 -0.07804,1.055968 0.0363,0.296983 0.181778,0.140941 0.181778,-0.194977 z m 4.020414,0.02705 c 0,-0.319016 0.07306,-0.415454 0.286022,-0.377531 0.09472,0.01687 0.09647,0.01529 0.0874,-0.07915 -0.01107,-0.115224 -0.113384,-0.143181 -0.25871,-0.07069 -0.07686,0.03834 -0.09069,0.0386 -0.10475,0.002 -0.0879,-0.229049 -0.184764,-0.02974 -0.184764,0.380183 0,0.422388 0,0.422388 0.0874,0.422388 0.0874,0 0.0874,0 0.0874,-0.277165 z m -5.59362,-0.218048 c 0,-0.0534 -0.01942,-0.05826 -0.233067,-0.05826 -0.213645,0 -0.233067,0.0049 -0.233067,0.05826 0,0.05341 0.01942,0.05826 0.233067,0.05826 0.213645,0 0.233067,-0.0049 0.233067,-0.05826 z m -6.5021028,-0.54619 c -0.0078,-0.06754 -0.02293,-0.08011 -0.09662,-0.08011 -0.07369,0 -0.08885,0.01257 -0.09662,0.08011 -0.0086,0.07438 -0.0017,0.08011 0.09662,0.08011 0.09827,0 0.105178,-0.0057 0.09662,-0.08011 z m 1.631472,0 c -0.0078,-0.06754 -0.02293,-0.08011 -0.09662,-0.08011 -0.07369,0 -0.08885,0.01257 -0.09662,0.08011 -0.0086,0.07438 -0.0017,0.08011 0.09662,0.08011 0.09827,0 0.105178,-0.0057 0.09662,-0.08011 z"
         id="path1" />
   </g>
</svg>