<svg xmlns="http://www.w3.org/2000/svg" width="24" height="24" viewBox="0 0 24 24"><path d="M10.864.125a5 5 0 0 0-.571.059 1.517 1.517 0 0 0-1.367 1.559v3.894a3.3 3.3 0 0 1 0 .52 1.2 1.2 0 0 1-.972 1.093 4 4 0 0 1-.832.109H3.377a1.2 1.2 0 0 0-.753.232 1.67 1.67 0 0 0-.71 1.629 24 24 0 0 0 .71 3.648 5.47 5.47 0 0 0 1.94 3.102 7.33 7.33 0 0 0 5.003 1.503 1.85 1.85 0 0 0 1.572-.889 7.1 7.1 0 0 0 .875-1.844c.096-.315.19-.602.273-.903a2.64 2.64 0 0 0 1.257 1.818 4.9 4.9 0 0 0 2.08.697 3.23 3.23 0 0 1 2.404 1.49 2.487 2.487 0 0 1-1.695 3.923 1.78 1.78 0 0 1-1.641-.547 1 1 0 0 1-.26-1.012.93.93 0 0 1 .794-.627h.218a.9.9 0 0 0 .737-.958.875.875 0 0 0-.915-.82 3 3 0 0 0-.505 0 2.88 2.88 0 0 0-2.365 2.173 2.73 2.73 0 0 0 1.025 3.035 4.32 4.32 0 0 0 3.363.886 5.47 5.47 0 0 0 4.1-2.58 7.8 7.8 0 0 0 1.106-3.364c.123-1.148.205-2.309.218-3.457 0-1.367.002-2.733-.08-4.1a34.5 34.5 0 0 0-.574-4.866 3.27 3.27 0 0 0-1.505-2.282 5.1 5.1 0 0 0-1.818-.67l-4.21-.724a.27.27 0 0 1-.245-.205A1.91 1.91 0 0 0 12.562.363a4.7 4.7 0 0 0-1.698-.238m7.242 10.117a1.64 1.64 0 0 1 1 .398 1.12 1.12 0 0 1 .329.656c0 .233 0 .315-.246.329h-.274a8.4 8.4 0 0 1-1.941-.275c-.219 0-.258-.15-.176-.369a1.07 1.07 0 0 1 .464-.547 1.64 1.64 0 0 1 .844-.192M2.72 6.758c.218 0 .382-.095.533-.109h3.99a.9.9 0 0 0 1.025-.765 1 1 0 0 0 0-.301V1.77c0-.437 0-.533.096-.82z" style="stroke-width:1.36666"/></svg>
