<svg xmlns="http://www.w3.org/2000/svg" width="24" height="24" class="icon" viewBox="0 0 1024 1024"><path fill="#2c2c2c" d="M772.095 353.442c-2.668.144-3.317-1.082-3.606-3.605-.288-2.668-.144-5.841-1.442-7.932-2.524-3.966-1.803-8.653-3.966-12.764a22.6 22.6 0 0 1-2.524-6.994c-.144-1.442.217-3.461-.793-4.255-2.307-1.658-1.442-4.326-2.884-6.49-1.587-2.307-1.659-5.696-2.885-8.508-1.225-2.957-2.74-6.13-3.028-9.374-.144-1.587-1.947-1.659-1.875-3.245.144-2.668-1.803-4.832-2.452-7.356-.865-3.389-2.74-6.634-4.038-9.95-1.01-2.669-2.09-5.409-3.317-7.788-1.803-3.606-3.317-7.283-5.408-10.817-2.019-3.1-2.596-7.139-4.76-10.528a59 59 0 0 1-4.614-8.869c-2.091-4.903-5.12-9.158-7.5-13.845a191 191 0 0 0-7.427-13.629c-2.524-4.254-4.759-8.725-7.715-12.835-1.154-1.659-3.029-3.317-3.317-5.192-.433-2.74-2.524-4.687-3.822-6.273-1.803-2.164-1.875-5.985-5.408-6.779 0 0-.145-.36-.072-.504.288-2.885-3.75-3.678-3.39-6.634-3.1-1.082-2.235-5.625-5.768-6.49 0 0-.145-.289-.072-.433.288-2.884-2.524-4.47-3.75-6.345a48.7 48.7 0 0 0-5.408-6.779c-.938-1.01-2.524-1.875-2.885-3.1-1.225-4.327-5.336-6.49-7.427-10.24-1.947-3.461-5.336-5.769-8.004-8.653a27.7 27.7 0 0 0-9.374-7.21c-3.39-1.299-6.057-4.039-10.095-4.255-4.183-.217-8.149-2.668-12.547-2.524 0-.938-.289-1.659-1.443-1.659H182.026c-1.153 0-1.442.721-1.442 1.659-2.884-.216-4.47 2.163-5.408 3.894-2.163 3.822.937 10.816 5.12 12.475 1.73.649 2.668 1.874 3.894 3.028.649.65 1.226 1.659 2.163 1.515 1.73-.145 2.524 1.081 3.029 2.09.649 1.37 1.874 1.876 2.884 2.38a36.6 36.6 0 0 1 8.365 5.985c3.75 3.462 7.932 6.274 11.97 9.23 3.389 2.452 6.129 5.697 9.807 7.716 2.812 1.442 4.326 4.687 6.994 5.985 3.75 1.875 5.84 5.48 9.446 7.355 2.236 1.154 3.966 3.029 5.553 4.904 1.442 1.658 4.038 1.73 5.192 3.389 3.389 5.047 9.157 7.355 13.123 11.898 3.894 4.398 9.375 7.066 13.413 11.681 4.759 5.553 11.249 9.519 16.44 14.71 3.606 3.606 7.284 6.995 10.961 10.456 2.885 2.668 5.769 5.336 8.51 8.149 2.018 2.019 4.614 3.605 6.489 5.408 4.687 4.543 10.095 8.58 13.34 14.422l.721.865c3.606 3.39 7.211 6.778 10.672 10.24 4.327 4.326 8.51 8.941 13.196 13.051a17.7 17.7 0 0 1 4.76 5.336c.937 2.164 2.595 3.606 4.038 4.976 3.966 3.894 8.292 7.5 11.104 12.403 1.154 2.019 3.534 2.74 4.76 4.687 1.586 2.451 3.966 4.182 5.552 6.778 2.307 3.822 6.273 6.49 8.941 10.456 2.596 3.894 6.058 7.643 9.375 10.96 3.75 3.75 6.345 8.365 10.311 11.754 2.091 1.73 2.308 5.048 4.976 6.13 1.37.576 1.802 1.73 2.163 2.667 1.442 3.101 4.11 5.264 5.769 8.149s4.47 4.687 6.345 7.499a113.5 113.5 0 0 0 11.754 15.143c1.37 1.586 1.226 4.038 3.245 4.831 3.029 1.226 3.533 4.471 5.12 6.634 2.019 2.813 4.759 5.192 6.273 8.293 1.587 3.317 4.327 5.769 6.057 8.797 1.587 2.74 3.606 5.192 5.264 7.932 1.226 2.091 2.38 4.47 4.183 6.274 1.947 1.947 2.524 4.903 4.759 6.706 2.019 1.658 2.452 4.326 4.326 6.201 1.947 2.163 2.74 5.336 4.904 7.427 1.875 1.803 2.812 4.255 4.11 6.346.937 1.442 2.884 2.307 3.1 4.254.217 2.164 1.876 3.462 2.957 5.048 1.659 2.452 3.822 4.903 4.76 7.21 1.73 4.327 4.687 7.645 6.778 11.538 2.451 4.327 5.48 8.653 7.932 13.124 1.875 3.245 3.75 6.49 5.768 9.519.866 1.514.721 3.533 2.38 4.687 2.019 1.442 2.452 3.894 3.605 5.913 1.01 1.802 1.731 3.966 3.173 5.192 1.154 1.009 1.154 1.946 1.37 3.1 1.73.721 2.596-.649 3.606-1.586l8.076-8.004 16.657-16.441c4.76-4.687 9.158-9.663 14.061-14.206 8.654-7.932 16.586-16.44 25.239-24.445 5.624-5.264 10.672-11.032 16.873-15.72 5.408-4.182 9.951-9.374 14.855-14.205l10.888-10.816c3.75-3.75 8.653-6.202 12.114-10.24a3 3 0 0 1 1.082-.937c3.605-1.442 6.13-4.399 9.158-6.634 3.533-2.524 7.067-5.048 10.528-7.716 1.73-1.37 3.966-2.019 5.48-3.533 4.327-4.327 10.095-6.274 15.143-9.302 5.336-3.173 10.816-6.274 16.44-8.942 3.967-1.875 7.5-4.903 11.827-5.768 4.975-1.01 8.653-4.4 13.34-5.841 1.442-.433 3.245-.577 4.543-1.587 2.74-2.163 6.417-2.163 9.518-3.605 1.442-.721 3.029-1.659 4.687-1.875 3.75-.505 7.067-2.235 10.672-3.173 1.01-.216 1.803-.793.938-2.019" style="stroke-width:1.12672;fill:#000;fill-opacity:1"/><path fill="#2c2c2c" d="M875.932 617.65c-1.082-.721-1.73.216-2.38.865-1.947 1.73-3.317 4.038-4.975 6.057l-8.293 9.663c-5.696 6.273-11.826 12.258-18.027 17.883-4.831 4.398-10.24 8.148-15.431 12.114-1.947 1.442-3.894 3.029-5.913 4.327-2.164 1.514-4.11 3.533-6.49 4.543-4.543 1.947-8.581 4.759-12.763 7.21a188 188 0 0 1-22.787 10.6c-4.399 1.803-8.725 3.75-13.268 5.192-3.605 1.154-7.139 2.668-10.816 3.606-1.226.288-2.524.144-3.678.577-3.605 1.37-7.427 2.163-11.177 3.1-3.245.866-6.778.145-9.59 1.443-4.327 2.019-9.23.144-13.268 2.884-6.274-.072-12.547.649-18.82 1.154-11.106.865-22.21-.721-33.315-1.01-5.048-.144-9.807-2.668-14.927-1.947-.288 0-.577-.072-.793-.288-1.659-1.298-3.605-1.226-5.48-1.226-3.894 0-7.644-.865-11.321-1.587-3.606-.72-7.283-2.09-10.817-3.317-2.09-.72-4.326-.288-6.201-1.225a32.2 32.2 0 0 0-8.653-2.74c-6.923-1.443-13.34-4.327-20.335-5.48-4.615-.794-8.653-3.39-13.268-4.327-3.245-.721-6.418-1.875-9.518-2.885-3.966-1.298-7.932-2.668-11.97-3.677-6.418-1.73-12.331-4.471-18.605-6.49-7.499-2.452-14.782-5.408-22.281-7.932-4.399-1.442-8.365-4.11-13.124-4.831a16.4 16.4 0 0 1-5.769-2.164c-3.533-2.019-7.5-2.74-11.105-4.47-3.028-1.443-6.417-2.164-9.374-3.606-4.903-2.524-10.6-3.317-15.07-6.85-.29-.217-.722-.289-1.082-.289-3.606-.36-6.85-2.019-9.951-3.605-6.85-3.317-14.206-5.553-20.912-9.23-5.336-2.957-11.249-4.615-16.585-7.5-1.226-.288-2.308-.072-3.606-.72-2.235-1.082-4.326-2.885-6.634-3.462-4.398-1.226-7.715-4.398-12.042-5.696-2.452-.721-4.326-2.885-6.634-3.462-2.884-.72-5.264-2.163-7.571-3.46-3.822-2.164-7.932-3.606-11.754-5.986-2.091-1.298-4.831-1.73-6.634-3.245-2.74-2.307-6.995-2.163-8.87-5.624-4.614-.36-7.715-3.894-11.681-5.553-4.687-1.947-8.942-4.903-13.412-7.427-1.875-1.082-3.606-3.029-5.409-3.39-4.903-1.009-8.22-4.47-12.258-6.633a140 140 0 0 1-13.7-8.22c-.722-.433-1.804-.361-2.308-.938-2.885-3.245-6.995-4.903-10.528-7.067a478 478 0 0 1-10.456-6.345c-4.255-2.668-8.653-5.336-12.691-8.22-2.668-1.948-6.057-3.101-8.365-5.337-1.73-1.586-3.822-2.163-5.552-3.605-3.173-2.596-6.85-4.687-10.312-7.067-1.586-1.082-3.678-2.091-4.76-3.245-2.09-2.307-4.903-3.461-7.138-5.336-3.317-2.812-7.5-4.759-10.816-7.716-1.947-1.73-4.832-2.019-6.274-4.47-.505-.938-1.442-1.587-2.74-1.947-2.163-.577-3.678-2.38-5.48-3.606-2.668-1.802-5.048-4.254-7.788-6.129-3.317-2.235-6.201-5.192-9.59-7.21-3.678-2.236-6.274-5.697-9.952-7.789-2.235-1.37-3.605-3.894-5.768-4.903-3.894-1.73-6.202-5.12-9.735-7.21-2.74-1.732-4.615-4.976-7.5-6.49-3.388-1.803-5.408-4.976-8.436-7.067-.865-.65-1.875-.722-2.668-1.731-1.947-2.38-4.615-4.11-6.85-6.201-2.38-2.164-5.337-3.606-7.5-6.202-1.73-1.875-3.605-4.398-5.769-5.264-3.317-1.226-4.759-4.182-7.355-6.057-3.245-2.307-5.624-5.624-8.797-8.148-2.02-1.587-4.327-2.885-5.913-4.904-2.38-3.028-5.408-5.552-8.148-8.148-3.606-3.533-7.067-7.21-10.817-10.6-2.884-2.596-5.552-5.48-8.509-8.076-2.74-2.452-5.191-5.192-7.931-7.644-3.606-3.317-6.923-7.066-10.384-10.6-3.39-3.605-7.067-6.922-10.384-10.6-2.884-3.245-5.769-7.21-11.393-5.985-2.74.577-4.038 2.308-5.048 4.543-2.812.288-1.658 2.452-1.658 3.678V764.03c0 1.659.144 3.245.072 4.831 0 1.226.432 1.803 1.586 1.875-.72 3.75 1.803 6.778 2.38 10.24.36 2.451 1.947 4.543 2.884 6.85 1.37 3.173 4.038 5.84 5.913 8.87a24.6 24.6 0 0 0 6.346 6.561c2.596 1.875 5.264 3.894 8.076 5.553 3.317 1.875 6.49 4.254 9.59 6.418.938.576 2.02.72 3.029 1.658 2.884 2.596 6.562 4.543 10.095 6.346 2.38 1.225 4.615 2.884 7.211 3.966 5.769 2.38 10.672 6.706 16.585 9.013 3.317 1.226 5.841 3.606 9.23 4.615.793.289 1.73.36 2.38.793 4.759 3.317 10.167 5.192 15.287 7.788 1.082.577 2.452.577 3.317 1.298a21.2 21.2 0 0 0 9.374 4.182c.577.145 1.154.217 1.803.722 1.442 1.081 3.245 1.874 4.903 2.812 1.875 1.081 4.327.432 6.057 2.307.65.721 2.164 1.659 3.39 1.875 5.047.938 9.734 3.317 14.421 5.192 1.443.577 3.317 0 4.327 1.082 1.875 1.947 4.543 1.874 6.706 2.884 3.173 1.37 6.49 2.452 10.023 3.317 1.515.36 3.606.072 4.543 1.082 1.803 2.019 4.543 2.163 6.49 2.668 5.192 1.226 10.24 2.884 15.287 4.615 4.038 1.442 8.581 1.73 12.835 3.028 3.606 1.01 7.211 2.164 10.817 2.813 1.658.288 4.11-.361 5.047.504 2.74 2.74 6.49 1.154 9.591 2.668 3.029 1.442 7.21 2.02 11.105 1.73.72-.071 1.802-.215 2.163.145 2.884 2.884 7.355 0 10.095 2.957 6.49.576 12.98.865 19.326 2.74 4.11 1.226 8.653.577 12.98 1.586 5.263 1.226 10.96.865 16.44 1.442 3.605.289 7.139.145 10.672.217 0 1.153.65 1.586 1.803 1.514h77.878c1.153 0 1.802-.36 1.802-1.514 8.653.432 17.162-1.587 25.743-1.298h4.76c1.153.072 1.802-.36 1.73-1.587a88 88 0 0 0 11.538-1.442c6.057-1.226 12.402-.937 18.46-2.884 3.028-1.01 6.49-.866 9.734-1.659 3.75-.865 7.716-1.875 11.826-1.586.433 0 1.154 0 1.37-.216 2.02-2.669 5.408-1.443 8.076-2.669a20.84 20.84 0 0 1 9.375-1.658c.432 0 1.01 0 1.442-.216a23.1 23.1 0 0 1 9.23-2.957 61.3 61.3 0 0 0 12.763-3.317 56.3 56.3 0 0 1 9.446-2.524c.721-.144 1.515-.144 1.875-.577 1.803-1.874 4.47-1.946 6.49-2.523 4.182-1.082 8.148-2.668 12.258-3.894 1.37-.36 2.957.072 4.11-.721a25.4 25.4 0 0 1 10.673-4.327c.649-.072 1.226-.144 1.803-.577 1.874-1.153 3.605-2.524 5.985-2.812 3.317-.36 6.49-2.02 9.374-3.461 2.451-1.226 5.192-2.164 7.715-3.461 1.947-1.01 4.039-2.236 6.418-2.669 3.39-.576 5.625-3.533 9.086-4.254a25.6 25.6 0 0 0 7.355-3.1c3.678-2.092 7.5-3.822 11.249-5.625 2.38-1.226 5.12-2.236 7.067-3.678a54 54 0 0 1 9.374-5.192c4.182-1.874 7.86-4.542 12.042-6.345 3.606-1.659 6.85-4.327 10.456-6.346 1.803-1.01 3.461-2.596 5.192-3.461a72 72 0 0 0 5.769-3.39c2.451-1.658 5.336-2.667 7.427-4.758 1.875-1.875 4.398-2.524 6.345-4.255 2.308-1.947 5.409-2.884 7.572-5.047.72-.721 1.154-1.443 2.163-1.443a3.46 3.46 0 0 0 2.668-1.802 6.2 6.2 0 0 1 2.884-2.452c3.39-1.226 5.192-4.47 8.365-6.057 1.947-.938 3.606-2.74 5.408-4.038 3.101-2.164 6.057-4.471 9.014-6.778 1.658-1.298 3.1-3.534 4.76-4.039 3.605-1.153 4.686-5.047 8.075-6.49a11.2 11.2 0 0 0 3.101-2.307c2.596-2.884 5.769-5.192 8.653-8.004 1.803-1.875 4.255-2.74 5.985-4.76a52 52 0 0 1 6.778-6.85c2.164-1.73 4.183-3.75 6.058-5.768l10.816-10.745c3.605-3.46 6.994-6.994 10.6-10.383a45.4 45.4 0 0 0 5.769-6.778 36.3 36.3 0 0 1 6.49-6.85c1.874-1.515 2.451-3.823 4.182-5.409a30.6 30.6 0 0 0 6.562-7.427c1.947-3.317 5.264-5.408 7.066-8.798 1.298-2.451 3.822-4.038 5.336-6.49 1.515-2.595 3.606-4.903 5.553-7.21 2.163-2.596 4.615-5.336 6.057-8.22 1.514-3.101 4.254-5.048 5.769-8.149a49 49 0 0 1 5.552-8.004c1.442-1.803 2.308-3.822 3.534-5.697 1.874-2.884 3.893-5.696 5.912-8.509.794-1.225.938-2.523 2.02-3.75 1.946-2.018 4.11-4.47 3.605-7.787" style="stroke-width:1.12672;fill:#000;fill-opacity:1"/><path fill="#2c2c2c" d="M1020.15 372.118c-.433-.504-.865-.504-1.442-.649-1.587-.504-3.39-.865-4.832-1.73a29.7 29.7 0 0 0-5.047-2.885c-2.668-1.081-5.769-1.442-8.004-3.028-3.101-2.38-6.995-2.308-10.312-4.038a25.7 25.7 0 0 0-7.5-2.668c-2.018-.36-4.11-1.298-6.056-1.875-2.668-.865-5.48-1.803-8.22-2.524a162 162 0 0 1-12.764-3.678 22.5 22.5 0 0 0-9.086-1.514c-.72-2.956-3.1-1.226-4.759-1.586-2.163 0-4.182-1.082-6.201-1.442-6.562-1.154-13.268-1.37-19.903-2.885-5.263-1.153-10.96-.505-16.44-1.298-3.245-.432-6.49-.144-9.807-.216 0-1.298-.65-1.586-1.803-1.586h-31.656c-1.154 0-1.803.36-1.803 1.586-8.076-.433-16.008 1.37-24.084 1.298h-4.76c-1.153-.072-1.658.433-1.73 1.514-4.615-.432-8.941 1.587-13.556 1.298a1.44 1.44 0 0 0-.793.217c-3.534 2.451-7.86 1.586-11.682 2.884-3.029 1.01-6.706.865-9.59 1.947-2.308.793-4.904 1.442-7.212 2.38a21 21 0 0 1-9.013 1.802c.072.577.216 1.298-.577 1.37-1.803.144-3.461 1.082-5.048 1.442-4.759 1.226-9.23 3.029-13.845 4.615-4.038 1.443-7.787 3.606-11.753 4.543-4.543 1.082-7.716 4.687-12.475 5.264a8 8 0 0 0-4.11 1.442 14.8 14.8 0 0 1-4.4 2.668 29.7 29.7 0 0 0-7.21 3.534c-3.317 2.163-6.923 3.605-10.095 5.768-1.226.866-3.245.505-3.822 1.443-2.308 4.038-7.067 4.11-10.312 6.634-3.46 2.668-7.571 4.687-11.032 7.283-2.885 2.163-5.913 4.182-8.653 6.49-3.606 3.1-7.5 5.912-11.322 8.653-2.019 1.442-3.244 4.11-5.336 4.759-3.317 1.154-5.047 3.894-7.21 5.913-2.164 2.163-4.616 4.398-6.779 6.706-3.317 3.389-6.85 6.562-10.311 9.879-2.596 2.452-4.832 5.552-7.716 7.427-4.327 2.884-7.5 6.706-11.105 10.095a365 365 0 0 0-10.672 10.456c-4.038 4.11-8.509 7.788-12.33 12.042-3.318 3.75-7.14 6.995-10.673 10.456-3.605 3.534-6.994 7.283-10.816 10.672a176 176 0 0 0-10.672 10.672c-2.74 2.885-5.625 5.697-8.51 8.437s-5.335 5.985-8.94 7.932c-.361 1.73-1.803 2.452-3.101 3.317-3.75 2.38-6.707 5.625-9.951 8.653-2.164 1.947-3.894 4.543-6.346 5.913-4.038 2.164-6.922 5.769-10.528 8.365-4.326 3.173-8.797 6.418-12.619 10.24-1.875 1.802-4.76 2.09-5.985 4.47-1.01 2.02-3.606 1.587-4.831 3.173-2.524 3.39-6.634 4.76-9.663 7.5-1.803 1.658-4.327 3.028-6.49 4.326-1.37.72-2.884 1.226-4.038 2.307a47 47 0 0 1-9.302 6.49c-1.442.865-3.39 1.442-4.47 2.668-2.02 2.163-4.832 3.173-7.14 5.048a29 29 0 0 1-7.643 4.615c-3.606 1.37-6.346 3.894-9.663 5.552-4.47 2.163-8.653 4.831-13.051 6.995-1.154.577-3.101.937-3.75 2.524 0 1.01.433 1.298 1.298 1.802 1.947 1.154 4.11 1.442 6.057 2.236 3.173 1.442 6.201 3.245 9.374 4.543 3.029 1.225 5.553 3.317 9.158 3.605a9 9 0 0 1 4.399 2.163c2.163 1.875 4.903 2.596 7.21 3.462 2.02.72 3.967 2.019 6.274 2.451 1.442.289 3.39.217 4.543 1.082 2.019 1.586 4.326 2.452 6.49 3.75 1.442.865 3.389-.289 4.254 1.01 1.226 1.802 3.461 2.09 4.832 2.595 4.11 1.442 7.931 3.1 11.97 4.76 3.46 1.441 6.994 2.45 10.383 4.326 2.813 1.514 6.562 1.586 9.807 2.956 1.226.577 1.875 1.73 3.245 1.875a20.3 20.3 0 0 1 8.87 2.668c.865.577 1.802 1.586 2.884 1.803 3.173.649 6.273 1.442 9.374 2.74 2.884 1.154 5.913 2.452 8.942 2.884 1.658.217 2.019 1.875 3.605 1.875 2.812 0 5.048 1.803 7.716 2.38 3.605.865 7.138 2.163 10.672 3.245.793.216 2.163-.145 2.524.288 2.163 2.884 5.768 1.442 8.653 2.884 3.1 1.587 7.21 2.308 10.816 3.534 3.245 1.154 6.49 2.38 9.951 2.524.577 0 1.082.144 1.586.504 2.308 1.443 4.976 2.236 7.644 2.885a57 57 0 0 0 3.822.649c2.307.36 4.182 1.947 6.418 2.09 3.317.145 6.129 2.164 9.59 2.308 1.298.072 3.461-.144 4.543.938 2.235 2.235 5.408 2.09 7.932 2.74 5.48 1.442 11.321 1.082 16.946 2.956 3.244 1.154 6.922.721 10.527 1.587 5.77 1.298 12.043.865 18.172 1.226a191 191 0 0 0 33.963-.866c2.885-.36 5.553-.504 8.365-1.226a70.3 70.3 0 0 1 12.258-2.019c3.534-.288 6.779-1.802 10.384-1.442a1.37 1.37 0 0 0 .721-.216c3.101-1.947 6.706-1.947 9.951-3.029 2.308-.72 5.048-.649 6.995-1.802a19.9 19.9 0 0 1 6.562-2.524c3.605-.577 6.13-3.606 9.807-3.317.144 0 .288-.217.432-.289 2.452-1.874 5.48-2.884 8.22-3.821a77 77 0 0 0 8.726-3.606c3.75-1.875 7.355-4.326 11.033-6.49 1.081-.649 2.668.289 3.46-1.442.578-1.442 1.948-2.163 3.606-2.524 1.875-.504 4.038-1.226 4.832-3.389.36-.937 1.081-1.01 1.802-.937a2.74 2.74 0 0 0 2.452-1.37c2.308-3.462 6.274-5.048 9.446-7.355 3.317-2.308 5.913-5.409 9.375-7.5 4.11-2.38 7.066-6.201 10.383-9.518 2.812-2.885 5.48-5.841 8.437-8.437 2.307-2.019 3.39-4.76 5.697-6.778 1.586-1.442 4.11-2.885 4.759-5.048 1.01-3.389 3.75-4.759 6.057-6.85a13.2 13.2 0 0 1 3.533-4.543l.866-1.37c1.225-.721.576-2.524 1.874-3.317 2.308-1.514 3.173-4.327 4.183-6.49 1.586-3.317 3.533-6.562 5.408-9.663 2.019-3.389 3.245-7.138 5.769-10.311 1.875-2.452 3.1-5.697 4.47-8.581 2.452-5.048 4.976-10.023 7.644-14.927a129 129 0 0 0 4.47-8.941c1.37-3.173 3.174-6.13 4.616-9.158 1.442-3.173 3.461-6.057 4.615-9.158 1.442-3.822 3.605-7.067 5.264-10.744.504-1.298.36-2.885 1.298-3.822a18.46 18.46 0 0 0 4.038-7.067c1.442-3.821 4.687-6.778 5.047-11.032l.289-.145c1.442-1.081 1.947-2.884 2.74-4.398 1.298-2.38 1.875-5.192 3.461-7.355 2.452-3.462 3.894-7.355 5.769-11.033 1.226-2.308 2.163-4.903 3.461-6.995 2.163-3.389 3.606-7.21 5.625-10.6a43.3 43.3 0 0 0 3.605-7.571c.65-1.73 1.875-3.461 2.957-5.048 1.947-3.028 3.317-6.49 5.84-9.158 1.082-1.153 1.01-2.74 2.308-4.038 2.163-2.163 3.317-5.047 5.048-7.571 1.298-1.875 2.163-4.182 3.677-5.625 2.884-2.74 5.048-6.129 6.995-9.23 1.947-3.1 4.47-5.913 6.706-8.58 3.677-4.471 7.643-8.87 11.681-13.197a5242 5242 0 0 0 10.961-11.681c2.163-2.236 1.586-2.74 0-4.327" style="stroke-width:1.12672;fill:#000;fill-opacity:1"/></svg>