<svg xmlns="http://www.w3.org/2000/svg" width="24" height="24" fill="none" viewBox="0 0 24 24"><path fill="#000" stroke="#000" stroke-width=".07" d="M12.122 6.035c.346 0 .578.078.723.154a.8.8 0 0 1 .19.138l.008.009.002.002 9.894 9.895.005.008.02.032q.027.042.065.12c.05.105.108.252.138.426.06.347.008.802-.437 1.233-.443.43-.914.454-1.276.373a1.8 1.8 0 0 1-.603-.263l-.008-.006-.002-.002-5.86-5.898c.078-.268.103-.582.103-.87 0-1.633-1.36-2.956-2.993-2.956a2.96 2.96 0 0 0-2.958 2.957c0 .32.043.583.137.869L3.33 18.19l-.007.005-.04.02a2.174 2.174 0 0 1-.645.218c-.395.065-.883.013-1.264-.45-.383-.464-.382-.91-.287-1.239a1.6 1.6 0 0 1 .278-.536l.007-.007.001-.002h-.001l9.823-9.857.003-.003v-.001l.002-.002.008-.009.035-.033a1 1 0 0 1 .155-.105c.145-.076.377-.154.723-.154Zm-2.002 7.547a2.95 2.95 0 0 0 2.006.763c.768 0 1.477-.282 2.004-.762l2.03 2.063-2.027 1.993-1.172-1.206-.026.024.028-.026-.012-.005-.227-.103a1.6 1.6 0 0 0-.598-.138 1.5 1.5 0 0 0-.599.133l-.227.107-.008.007-1.243 1.208-1.993-1.994zm2.041-3.392a1.198 1.198 0 1 1 0 2.395 1.198 1.198 0 0 1 0-2.395Z"/></svg>