<svg xmlns="http://www.w3.org/2000/svg" width="24" height="24" fill="none" viewBox="0 0 24 24"><path d="M7.174 0.219 C 5.728 0.484,4.606 1.572,4.296 3.010 C 4.205 3.434,4.214 4.104,4.317 4.537 C 4.636 5.878,5.685 6.912,7.055 7.233 C 7.313 7.294,7.784 7.300,11.980 7.300 C 17.118 7.300,16.777 7.316,17.467 7.040 C 18.536 6.612,19.378 5.609,19.629 4.466 C 19.720 4.049,19.710 3.301,19.608 2.920 C 19.440 2.292,19.248 1.911,18.860 1.432 C 18.452 0.928,17.719 0.465,17.020 0.270 L 16.700 0.181 12.080 0.173 C 8.412 0.168,7.401 0.177,7.174 0.219 M6.898 8.618 C 6.302 8.772,5.783 9.062,5.325 9.498 C 4.083 10.680,3.871 12.612,4.824 14.046 C 5.284 14.739,5.979 15.245,6.828 15.508 L 7.180 15.617 9.270 15.631 L 11.360 15.645 11.360 12.082 L 11.360 8.520 9.310 8.522 C 7.293 8.524,7.254 8.525,6.898 8.618 M15.260 8.602 C 14.598 8.768,13.883 9.208,13.441 9.722 C 12.524 10.788,12.304 12.276,12.878 13.541 C 13.315 14.505,14.193 15.244,15.240 15.528 C 15.526 15.605,15.672 15.619,16.160 15.616 C 16.669 15.613,16.784 15.599,17.098 15.504 C 18.665 15.030,19.686 13.689,19.689 12.100 C 19.690 11.798,19.666 11.511,19.625 11.326 C 19.380 10.228,18.662 9.331,17.637 8.843 C 17.121 8.597,16.905 8.551,16.200 8.535 C 15.681 8.524,15.528 8.535,15.260 8.602 M7.040 16.918 C 5.539 17.235,4.400 18.507,4.247 20.037 C 4.108 21.419,4.779 22.753,5.975 23.474 C 6.511 23.797,6.977 23.925,7.700 23.948 C 8.205 23.964,8.299 23.955,8.658 23.863 C 10.043 23.506,11.095 22.368,11.320 20.982 C 11.342 20.847,11.360 19.875,11.360 18.790 L 11.360 16.840 9.370 16.843 C 7.615 16.845,7.340 16.854,7.040 16.918 " fill="currentColor" stroke="none" fill-rule="evenodd"></path></svg>