<?xml version="1.0" encoding="UTF-8" standalone="no"?>
<svg
   version="1.1"
   width="271.97461"
   height="274.96213"
   id="svg3062"
   sodipodi:docname=":filezilla:.svg"
   inkscape:version="1.4.2 (ebf0e940, 2025-05-08)"
   xmlns:inkscape="http://www.inkscape.org/namespaces/inkscape"
   xmlns:sodipodi="http://sodipodi.sourceforge.net/DTD/sodipodi-0.dtd"
   xmlns:xlink="http://www.w3.org/1999/xlink"
   xmlns="http://www.w3.org/2000/svg"
   xmlns:svg="http://www.w3.org/2000/svg">
  <sodipodi:namedview
     id="namedview1"
     pagecolor="#ffffff"
     bordercolor="#000000"
     borderopacity="0.25"
     inkscape:showpageshadow="2"
     inkscape:pageopacity="0.0"
     inkscape:pagecheckerboard="0"
     inkscape:deskcolor="#d1d1d1"
     inkscape:zoom="2.1894693"
     inkscape:cx="138.3897"
     inkscape:cy="134.27912"
     inkscape:window-width="1888"
     inkscape:window-height="985"
     inkscape:window-x="2576"
     inkscape:window-y="230"
     inkscape:window-maximized="0"
     inkscape:current-layer="svg3062" />
  <defs
     id="defs3064">
    <linearGradient
       x1="187.94679"
       y1="123.8594"
       x2="187.94679"
       y2="258.86539"
       id="XMLID_2_"
       gradientUnits="userSpaceOnUse">
      <stop
         id="stop2308"
         style="stop-color:#bf0000;stop-opacity:1"
         offset="0" />
      <stop
         id="stop2310"
         style="stop-color:#8f0000;stop-opacity:1"
         offset="1" />
    </linearGradient>
    <linearGradient
       x1="187.94679"
       y1="123.8594"
       x2="187.94679"
       y2="258.86539"
       id="linearGradient3060"
       xlink:href="#XMLID_2_"
       gradientUnits="userSpaceOnUse"
       gradientTransform="matrix(2.1744399,0,0,2.1743699,-218.68699,-223.17198)" />
  </defs>
  <path
     d="M 271.9746,96.13107 H 82.35257 L 92.24844,49.83221 H 207.81992 L 218.42249,0 H 52.30833 L 0,246.69096 H 50.18825 L 73.15686,138.8944 h 120.37917 l -104.60144,103.55437 18.37837,32.51335 c 8.48032,-5.65336 22.26409,-6.36221 31.80771,-6.36221 16.96715,0 33.5777,5.65771 50.89059,5.65771 15.87558,0 32.12735,-1.06109 58.63812,-13.7855 l 9.26311,-43.47 c -18.02828,7.41895 -44.70214,14.49 -67.90123,14.49 -9.5371,0 -18.37402,-2.12001 -27.5632,-3.53335 l 101.39631,-98.60333 z"
     id="path2314"
     style="fill:#000000" />
</svg>
