<svg xmlns="http://www.w3.org/2000/svg" width="24" height="24" viewBox="1.97 3.97 24 24"><path d="M3.936 4.26c-.924 0-1.668.743-1.668 1.666v20.005c0 .924.744 1.668 1.668 1.668H23.94c.923 0 1.667-.744 1.667-1.668V5.926c0-.923-.744-1.667-1.667-1.667zm9.241 3.219c1.533 0 1.703.098 1.505.87-.092.354-.202.509-.34.473-.57-.148-1.503-.164-1.844-.033-.625.242-1.068 1.137-1.303 2.634l-.093.593h1.134c1.24 0 1.315.066 1.001.892-.126.332-.2.354-1.281.393l-1.147.04-.962 4.747c-1.08 5.33-1.306 5.983-2.316 6.693-.523.367-.748.43-1.674.471-.677.03-1.128-.012-1.226-.113-.091-.093-.118-.342-.064-.604.087-.432.116-.447.943-.515.958-.078 1.356-.34 1.678-1.1.16-.382 1.995-9.147 1.995-9.537 0-.061-.316-.111-.702-.111-.78 0-.894-.122-.719-.768.107-.395.158-.42.906-.46.733-.04.799-.07.876-.42.5-2.27.924-3.165 1.775-3.755.517-.359.667-.39 1.858-.39m4.375.03c.34-.01.705.063.756.196.065.169-.83 4.796-1.106 5.718-.076.253.022.194.458-.28 1.108-1.201 2.672-1.718 3.844-1.27 1.173.447 1.608 1.298 1.594 3.113-.033 4.399-3.068 7.465-6.018 6.08-.37-.175-.788-.445-.927-.602-.295-.332-.488-.269-.488.16 0 .167-.073.375-.161.464-.157.157-1.073.23-1.207.096-.126-.127 2.572-13.45 2.746-13.561.111-.07.306-.107.51-.113m2.62 5.511c-1-.01-2.342.958-3.09 2.488-.185.38-.46 1.26-.613 1.957l-.276 1.266.376.4c.207.221.558.515.78.654.548.34 1.615.334 2.185-.013 1.52-.926 2.515-4.49 1.702-6.095-.225-.446-.61-.653-1.064-.657" style="fill:#000;fill-opacity:1;stroke-width:.277849"/></svg>