<svg version="1.1" id="svg1" width="24" height="24" viewBox="0 0 24 24" xmlns="http://www.w3.org/2000/svg">
   <defs id="defs1" />
   <g id="g1">
      <path style="fill:#000000;stroke-width:0.0239032"
         d="m 11.509877,23.99185 c -1.12916,-0.0562 -2.3990004,-0.28325 -3.3263104,-0.59471 -1.34119,-0.45046 -2.31469,-0.96678 -3.5342,-1.87442 -0.53786,-0.40031 -1.58825,-1.42519 -2.02195,-1.97284 -0.44525,-0.56225 -1.05427,-1.49201 -1.31827,-2.01254 C 0.82650656,16.58567 0.43185656,15.45569 0.21799656,14.413 0.04273656,13.55856 -3.2344078e-4,13.08336 -1.3440782e-5,12.00724 2.8655922e-4,10.97162 0.01348656,10.81033 0.17374656,9.87942 0.49790656,7.99678 1.3932466,6.00629 2.5663466,4.56033 c 0.2505,-0.30877 0.85398,-0.99099 1.01175,-1.14376 0.47119,-0.45628 1.31683,-1.14744 1.44207,-1.17865 0.16659,-0.0415 0.21046,0.0152 0.62027,0.80232 0.2169,0.41658 0.50026,0.95331 0.62969,1.19273 0.25251,0.46706 0.29279,0.5836 0.23729,0.68658 -0.0195,0.0362 -0.19725,0.20057 -0.39502,0.36538 -0.4926,0.4105 -1.16644,1.10549 -1.50284,1.55003 -0.94848,1.25335 -1.49862,2.52046 -1.77118,4.07949 -0.0835,0.47739 -0.0884,0.55955 -0.089,1.48977 -6.8e-4,0.96521 10e-4,0.99576 0.10066,1.55814 0.32851,1.85938 1.10248,3.40439 2.41397,4.81882 0.91715,0.98913 2.2764,1.8808 3.59408,2.35772 0.7929,0.28698 1.6628904,0.47312 2.4439204,0.52289 0.29025,0.0185 0.56188,0.0411 0.60362,0.0502 0.17223,0.0375 1.47155,-0.0891 1.99213,-0.19422 1.80049,-0.36344 3.43297,-1.23402 4.72965,-2.52226 0.77562,-0.77057 1.30583,-1.49093 1.76429,-2.39705 0.58563,-1.15743 0.89153,-2.28178 0.98829,-3.63245 0.0552,-0.77027 -0.0256,-1.80968 -0.19907,-2.56255 -0.27577,-1.19658 -0.71596,-2.18973 -1.42874,-3.22348 -0.34794,-0.50462 -0.70434,-0.90971 -1.32904,-1.51058 -0.48549,-0.46699 -0.59645,-0.58974 -0.59645,-0.6599 0,-0.0978 0.0827,-0.26832 0.47972,-0.98949 0.15387,-0.27948 0.38392,-0.70107 0.51123,-0.93688 0.25939,-0.48048 0.32957,-0.57165 0.44001,-0.57165 0.10974,0 0.18261,0.0445 0.48798,0.29823 1.13295,0.94123 2.32047,2.45665 2.98913,3.81449 0.67117,1.36295 1.09232,2.80437 1.21567,4.1608 0.0714,0.78551 0.065,1.94246 -0.0147,2.63463 -0.25706,2.2326 -1.1802,4.4045 -2.6326,6.19379 -0.37869,0.46653 -1.40343,1.48319 -1.81325,1.79895 -1.67569,1.29109 -3.41952,2.06661 -5.45323,2.42516 -0.6478,0.11421 -1.85353,0.18786 -2.52672,0.15435 z m -0.43178,-4.35082 C 9.3996866,19.41497 7.9118466,18.66187 6.7762066,17.46356 c -1.06446,-1.12321 -1.71195,-2.48357 -1.96973,-4.13835 -0.0597,-0.38353 -0.0499,-1.51162 0.0169,-1.93726 0.25583,-1.63045 1.06529,-3.21415 2.1862,-4.27729 0.31342,-0.29726 0.41888,-0.35828 0.5313,-0.30742 0.0839,0.0379 0.48937,0.78465 1.1014,2.02815 0.15904,0.32314 0.39421,0.77332 0.5226,1.00039 0.28517,0.50439 0.29614,0.5912 0.11294,0.89416 -0.13287,0.21973 -0.28306,0.57559 -0.36117,0.8558 -0.08,0.28679 -0.0965,1.00674 -0.0316,1.37747 0.12857,0.73477 0.65776,1.57588 1.2868904,2.04544 0.40031,0.29878 0.71646,0.45313 1.15164,0.56226 0.33026,0.0828 0.42209,0.0926 0.87329,0.0926 0.61231,0 0.97471,-0.0771 1.41719,-0.30139 0.74371,-0.37704 1.13002,-0.76451 1.47799,-1.48246 0.24877,-0.51325 0.28424,-0.69762 0.2862,-1.48727 0.002,-0.80388 -0.0272,-0.94484 -0.32491,-1.56825 -0.17564,-0.36782 -0.17923,-0.38081 -0.14277,-0.51617 0.0335,-0.12421 0.25357,-0.54576 0.88497,-1.69484 0.11035,-0.20087 0.3278,-0.60103 0.48319,-0.88924 0.1554,-0.28821 0.31473,-0.55617 0.35407,-0.59547 0.12483,-0.1247 0.21959,-0.0949 0.45442,0.14304 0.8673,0.87868 1.53239,2.06264 1.84369,3.28205 0.20491,0.80266 0.28896,1.83328 0.20969,2.5712 -0.12736,1.18553 -0.57077,2.43612 -1.19294,3.36452 -0.88873,1.32617 -2.21939,2.34458 -3.70734,2.8374 -0.99409,0.32924 -2.18879,0.44955 -3.16222,0.31845 z M 11.017497,9.0934 C 10.961297,9.0409 10.717087,8.60059 10.405517,7.98979 10.120397,7.43084 9.8759466,6.95923 9.8623066,6.94176 c -0.0136,-0.0175 -0.31929,-0.61056 -0.67922,-1.31798 -0.35993,-0.70742 -0.80916,-1.57919 -0.99829,-1.93727 -0.73988,-1.40083 -1.2326,-2.38311 -1.2326,-2.45733 0,-0.0465 0.0367,-0.10839 0.0915,-0.15415 0.30759,-0.25699002 2.14094,-0.81069002 3.1708404,-0.95764002 0.88307,-0.126 2.0992,-0.15366 2.99048,-0.068 1.16528,0.11197 2.51563,0.45947 3.51822,0.90536 0.10554,0.0469 0.26194,0.11271002 0.34754,0.14616002 0.0856,0.0335 0.19714,0.0987 0.24787,0.14501 0.14266,0.13023 0.12487,0.23767 -0.10964,0.66213 -0.11098,0.20087 -0.31443,0.57959 -0.45212,0.8416 -0.24994,0.47561 -0.41325,0.77362 -0.81797,1.49265 -0.11799,0.2096 -0.30501,0.55259 -0.41562,0.7622 -0.34116,0.64652 -1.02183,1.89057 -1.19897,2.19134 -0.0926,0.1572 -0.27633,0.4859 -0.40832,0.73044 -0.132,0.24454 -0.29199,0.53531 -0.35555,0.64616 -0.0636,0.11085 -0.11556,0.20964 -0.11556,0.21953 0,0.01 -0.0432,0.0848 -0.096,0.16655 -0.14286,0.22106 -0.19755,0.23568 -0.5961,0.15931 -0.42993,-0.0824 -0.86572,-0.0824 -1.24129,9e-5 -0.36663,0.0805 -0.38233,0.0797 -0.49399,-0.0245 z"
         id="path1" />
   </g>
</svg>