<svg width="24" height="24" viewBox="0 0 24 24" fill="none" xmlns="http://www.w3.org/2000/svg">
<path fill-rule="evenodd" clip-rule="evenodd" d="M0 4.22222C0 2.99492 0.976833 2 2.18182 2H12.6376C12.2372 2 11.8517 2.22533 11.6605 2.61478L11.6595 2.61679L11.6574 2.62124L11.6501 2.63615L11.6245 2.68946C11.6027 2.73522 11.5717 2.80114 11.5328 2.88546C11.4551 3.05404 11.3461 3.29654 11.2177 3.59873C10.9613 4.20205 10.6252 5.04872 10.3061 6.0238C9.68252 7.92906 9.06409 10.4985 9.37469 12.7129C9.45146 13.2602 9.91174 13.6668 10.4546 13.6668H12.7068L12.7202 13.8716L6.722 13.8716C6.23241 13.5179 5.55372 13.6335 5.20396 14.1311C4.85325 14.6301 4.96607 15.3242 5.45596 15.6814L5.4574 15.6824L5.45906 15.6836L5.46302 15.6865L5.4735 15.694L5.50468 15.7158C5.52999 15.7333 5.56432 15.7566 5.60746 15.7848C5.69371 15.8411 5.81536 15.9173 5.97074 16.0064C6.28126 16.1846 6.728 16.4156 7.29738 16.6447C8.43588 17.1027 10.0723 17.5557 12.091 17.5557C12.3889 17.5557 12.6785 17.5458 12.9595 17.5276L13.1843 20.963C13.2223 21.5429 13.6907 21.9892 14.2509 22H2.18182C0.976844 22 0 21.0051 0 19.7778V4.22222ZM14.2926 22H21.8182C23.0232 22 24 21.0051 24 19.7778V4.22222C24 2.99493 23.0232 2 21.8182 2H12.6376C12.8014 2 12.9678 2.03775 13.1243 2.11746C13.6631 2.39183 13.8814 3.05938 13.6122 3.60817L13.6116 3.60939L13.6072 3.6185L13.5874 3.65976C13.5695 3.69729 13.5425 3.75452 13.5079 3.8297C13.4385 3.98013 13.3387 4.20204 13.22 4.48145C12.9821 5.04132 12.6704 5.8266 12.3759 6.72653C11.8817 8.23656 11.4755 9.95303 11.4732 11.4446H13.7274C14.3017 11.4446 14.7776 11.8981 14.8158 12.4818L14.9068 13.8716H17.46L17.4565 13.874L14.9069 13.8734L14.9774 14.9496C15.3938 14.8354 15.7637 14.7063 16.0831 14.5779C16.5494 14.3902 16.9063 14.2046 17.1404 14.0703C17.2573 14.0032 17.3433 13.9491 17.3965 13.9143C17.4231 13.8969 17.4415 13.8844 17.4515 13.8775L17.4565 13.874L17.4582 13.8728L17.46 13.8716C17.9496 13.5179 18.6283 13.6335 18.978 14.1311C19.3287 14.6301 19.2159 15.3242 18.726 15.6814L18.091 14.7779C18.726 15.6814 18.7246 15.6824 18.7246 15.6824L18.7229 15.6836L18.719 15.6865L18.7085 15.694L18.6773 15.7158C18.652 15.7333 18.6177 15.7566 18.5745 15.7848C18.4883 15.8411 18.3666 15.9173 18.2112 16.0064C17.9007 16.1846 17.454 16.4156 16.8846 16.6447C16.3891 16.844 15.7994 17.0424 15.1249 17.2029L15.3613 20.8151C15.4014 21.4274 14.9465 21.9569 14.3454 21.9977C14.3277 21.9989 14.3101 21.9997 14.2926 22ZM6.722 13.8716L12.7202 13.8729L12.8143 15.3102C12.5805 15.3253 12.3393 15.3335 12.091 15.3335C10.3954 15.3335 9.03184 14.9532 8.0989 14.5779C7.63256 14.3902 7.27573 14.2046 7.04161 14.0703C6.92466 14.0032 6.83872 13.9491 6.78547 13.9143C6.75885 13.8969 6.74044 13.8844 6.73046 13.8775L6.722 13.8716ZM11.6605 2.61478L12.6364 3.11127C11.6607 2.61437 11.6605 2.61478 11.6605 2.61478ZM17.5455 6.4446C18.148 6.4446 18.6364 6.94206 18.6364 7.55571V8.66682C18.6364 9.28047 18.148 9.77793 17.5455 9.77793C16.943 9.77793 16.4546 9.28047 16.4546 8.66682V7.55571C16.4546 6.94206 16.943 6.4446 17.5455 6.4446ZM7.72736 7.55571C7.72736 6.94206 7.23894 6.4446 6.63645 6.4446C6.03395 6.4446 5.54554 6.94206 5.54554 7.55571V8.66682C5.54554 9.28047 6.03395 9.77793 6.63645 9.77793C7.23894 9.77793 7.72736 9.28047 7.72736 8.66682V7.55571Z" fill="black"/>
</svg>
