<svg xmlns="http://www.w3.org/2000/svg" width="24" height="24" viewBox="0 0 24 24"><title>Flaresolverr SVG Icon</title><path fill="currentColor" d="m11.718 14.951-.207-.027a2 2 0 0 0-.174-.444l.128-.159a.32.32 0 0 0-.018-.422l-.227-.227a.32.32 0 0 0-.423-.03l-.153.114a2 2 0 0 0-.464-.201l-.02-.2a.32.32 0 0 0-.314-.285h-.322a.32.32 0 0 0-.32.278l-.025.199a2 2 0 0 0-.48.196l-.16-.13a.32.32 0 0 0-.42.019l-.233.227a.32.32 0 0 0-.029.422l.136.176a1.8 1.8 0 0 0-.182.445l-.227.023a.32.32 0 0 0-.285.313v.323a.32.32 0 0 0 .278.32l.236.03a1.8 1.8 0 0 0 .169.411l-.153.189a.32.32 0 0 0 .02.422l.226.226a.32.32 0 0 0 .424.028l.188-.145a1.8 1.8 0 0 0 .423.184l.025.244a.32.32 0 0 0 .314.286h.322a.32.32 0 0 0 .32-.277l.029-.232a1.8 1.8 0 0 0 .454-.178l.178.143a.32.32 0 0 0 .422-.019l.227-.226a.32.32 0 0 0 .03-.423l-.136-.177a1.8 1.8 0 0 0 .193-.446l.21-.022a.32.32 0 0 0 .287-.313v-.323a.32.32 0 0 0-.267-.312m-2.07 1.283a.839.839 0 1 1 .847-.829.84.84 0 0 1-.848.829m6.851-4.526-.317-.01a2.3 2.3 0 0 0-.267-.525l.17-.26a.32.32 0 0 0-.058-.42l-.4-.34a.32.32 0 0 0-.424.01l-.227.209a2.3 2.3 0 0 0-.59-.192l-.063-.306a.32.32 0 0 0-.34-.254l-.523.044a.32.32 0 0 0-.291.307l-.01.31a2.3 2.3 0 0 0-.568.298l-.265-.176a.32.32 0 0 0-.419.06l-.34.404a.32.32 0 0 0 .011.423l.227.246a2.3 2.3 0 0 0-.17.567l-.331.068a.32.32 0 0 0-.254.34l.044.525a.32.32 0 0 0 .307.292l.358.011a2.3 2.3 0 0 0 .253.484l-.2.302a.32.32 0 0 0 .06.419l.401.339a.32.32 0 0 0 .423-.011l.263-.246a2.3 2.3 0 0 0 .538.176l.072.36a.32.32 0 0 0 .34.253l.523-.044a.32.32 0 0 0 .292-.306l.011-.352a2.3 2.3 0 0 0 .54-.272l.288.19a.32.32 0 0 0 .42-.058l.34-.402a.32.32 0 0 0-.012-.422l-.232-.248a2.3 2.3 0 0 0 .182-.567l.32-.066a.32.32 0 0 0 .253-.34l-.044-.523a.32.32 0 0 0-.29-.297m-2.441 1.807a1.029 1.029 0 1 1 .939-1.111 1.03 1.03 0 0 1-.944 1.11zm7.774-3.36a4.04 4.04 0 0 0-2.95-1.139.47.47 0 0 1-.416-.297 6.03 6.03 0 0 0-5.362-3.662 6.04 6.04 0 0 0-5.438 3.83c-.131.298-.326.314-.61.306h-.089a4.39 4.39 0 0 0-4.079 3.34.57.57 0 0 1-.322.368 3.17 3.17 0 0 0-1.84 3.095 2.986 2.986 0 0 0 2.837 3.035h15.394a4.2 4.2 0 0 0 2.988-1.303 5.44 5.44 0 0 0-.113-7.572m-.454 7.019a3.4 3.4 0 0 1-2.425 1.067H7.368a2.84 2.84 0 0 1-1.189-2.259 2.78 2.78 0 0 1 1.596-2.718.95.95 0 0 0 .552-.62 4.01 4.01 0 0 1 3.701-3.065.95.95 0 0 0 1.057-.538 6.36 6.36 0 0 1 2.166-2.667 5.72 5.72 0 0 1 2.496 2.68 1.25 1.25 0 0 0 1.162.748 3.26 3.26 0 0 1 2.372.926 4.654 4.654 0 0 1 .097 6.446" style="stroke-width:1.13522"/></svg>