<svg xmlns="http://www.w3.org/2000/svg" width="24" height="24" viewBox="0 0 24 24">
  <path d="M23.08 4.849 l-7.628 3.307 0.974 1.983 7.032-2.374 v-2.669 c0 -0.192 -0.199 -0.322 -0.377 -0.247"/>
  <path d="M17.572 12.471 l1.036 2.113 h4.589 c0.151 0 0.268-0.123 0.268-0.268 v-3.032 l-5.893 1.194 Z"/>
  <path d="M16.426 10.139 L17.572 12.471 L23.457 11.277 L23.457 7.765 Z"/>
  <path d="M12.44 2.003 v23.914 l9.94-2.902 c0.158-0.048 0.24-0.226 0.165-0.377 l-10.105-20.635 Z"/>
  <path d="M12.44 2.003 v23.914 l-9.94-2.902 c-0.158-0.048 -0.24-0.226 -0.165-0.377 l10.105-20.635 Z"/>
  <path d="M5.409 16.374 L12.44 18.343 L12.44 16.422 L6.28 14.591 Z"/>
  <path d="M7.041 13.033 L12.44 14.577 L12.44 12.745 L7.81 11.462 Z"/>
  <path d="M6.616 13.898 L6.28 14.591 L12.44 16.422 L12.44 14.577 L7.041 13.033 Z"/>
</svg>
