<svg xmlns="http://www.w3.org/2000/svg"  viewBox="0 0 50 50" width="50px" height="50px"><path d="M 35.363281 1.2304688 C 32.295727 3.7605941 29.828178 6.6978892 28.306641 10.195312 C 26.765715 7.6179436 23.852781 6.0019531 20.998047 6.0019531 C 18.124852 6.0019531 15.647919 7.1100663 13.882812 8.6367188 C 12.117707 10.163371 10.998047 12.098942 10.998047 14.001953 C 10.998047 14.614756 11.267478 15.220183 11.693359 15.564453 C 12.119241 15.908723 12.595526 16.001953 12.998047 16.001953 C 13.244038 16.001953 13.469504 15.985105 13.697266 15.970703 C 11.04079 20.190914 9.9980469 26.782579 9.9980469 33 C 9.9980469 35.844113 10.350567 39.661993 11.462891 42.894531 C 12.019053 44.510801 12.76335 45.989567 13.824219 47.117188 C 14.885088 48.244807 16.320769 49 17.998047 49 C 19.8457 49 21.746181 47.869404 23.775391 46.191406 C 25.8046 44.513408 27.92351 42.215454 29.869141 39.603516 C 33.206143 35.123711 36.056745 29.766214 36.802734 24.945312 C 36.84738 24.987703 36.886004 25.039122 36.931641 25.080078 C 37.481961 25.573951 38.161758 26.001953 38.998047 26.001953 C 39.751614 26.001953 40.264566 25.521281 40.599609 25.064453 C 40.934653 24.607625 41.171291 24.077115 41.371094 23.503906 C 41.770698 22.357488 41.998047 21.059156 41.998047 20.001953 C 41.998047 17.213392 40.439827 14.886945 38.193359 13.355469 C 35.994887 11.856712 33.126753 11.042137 30.132812 11.007812 C 31.501402 7.8509683 33.738676 5.1601842 36.634766 2.7714844 L 35.363281 1.2304688 z M 20.998047 8.0019531 C 22.616041 8.0019531 24.416153 8.8168295 25.685547 10.083984 C 25.11921 10.03333 24.552619 10.001953 23.998047 10.001953 C 22.507541 10.001953 21.483226 11.142645 20.886719 12.320312 C 20.774082 12.542688 20.682813 12.77578 20.591797 13.007812 C 16.744082 13.111161 15.120063 14.001953 12.998047 14.001953 C 12.998047 12.948964 13.764262 11.382784 15.191406 10.148438 C 16.618551 8.9140894 18.640241 8.0019531 20.998047 8.0019531 z M 23.998047 12.001953 C 26.132153 12.001953 28.533913 12.460489 30.296875 13.246094 C 31.178356 13.638896 31.894495 14.113435 32.349609 14.59375 C 32.804723 15.074065 32.998047 15.515758 32.998047 16.001953 C 32.998047 17.512437 32.088401 19.323483 30.705078 20.707031 C 29.321756 22.09058 27.509552 23.001953 25.998047 23.001953 C 24.365681 23.001953 23.529787 22.173111 22.886719 20.794922 C 22.24365 19.416733 21.998047 17.526132 21.998047 16.001953 C 21.998047 15.215905 22.248132 14.061192 22.671875 13.224609 C 23.095618 12.388027 23.569553 12.001953 23.998047 12.001953 z M 34.140625 13.636719 C 35.229001 13.976186 36.226979 14.437506 37.066406 15.009766 C 38.909189 16.266039 39.998047 17.941514 39.998047 20.001953 C 39.998047 20.73975 39.797817 21.940872 39.482422 22.845703 C 39.324724 23.298119 39.13316 23.680656 38.986328 23.880859 C 38.935119 23.950683 38.922191 23.95753 38.904297 23.974609 C 38.763459 23.947137 38.566254 23.861588 38.265625 23.591797 C 37.905008 23.268169 37.477223 22.746861 37.019531 22.146484 C 36.257602 21.147025 35.420116 19.930441 34.314453 18.988281 C 34.741487 18.03423 34.998047 17.026821 34.998047 16.001953 C 34.998047 15.11835 34.655889 14.314243 34.140625 13.636719 z M 20.066406 15.025391 C 20.023292 15.359519 19.998047 15.688572 19.998047 16.001953 C 19.998047 17.721775 20.229287 19.829814 21.074219 21.640625 C 21.91915 23.451436 23.582413 25.001953 25.998047 25.001953 C 28.257541 25.001953 30.447166 23.795295 32.121094 22.121094 C 32.542925 21.699193 32.93485 21.243586 33.285156 20.763672 C 33.859924 21.325346 34.427559 22.061333 34.990234 22.798828 C 34.902673 27.308168 31.940088 33.47537 28.265625 38.408203 C 26.400631 40.911889 24.362822 43.109982 22.5 44.650391 C 20.637178 46.190799 18.907894 47 17.998047 47 C 16.887825 47 16.055537 46.5691 15.28125 45.746094 C 14.506963 44.923088 13.850479 43.686417 13.353516 42.242188 C 12.359589 39.353726 11.998047 35.671887 11.998047 33 C 11.998047 26.081679 13.644709 18.641916 16.546875 15.517578 C 17.531856 15.31095 18.621153 15.105559 20.066406 15.025391 z"/></svg>
