<svg xmlns="http://www.w3.org/2000/svg" fill="none" viewBox="0 0 24 24"><path d="M6.340 2.560 C 4.787 2.690,3.301 3.339,2.316 4.318 C 1.291 5.336,0.709 6.511,0.440 8.100 C 0.307 8.887,0.388 9.286,0.768 9.701 C 1.113 10.078,1.570 10.280,2.080 10.280 C 2.607 10.280,3.054 10.070,3.469 9.626 C 3.757 9.318,3.955 8.943,4.115 8.408 C 4.333 7.674,4.616 7.221,5.101 6.829 C 5.625 6.405,6.249 6.197,7.000 6.195 C 7.619 6.193,7.959 6.272,8.500 6.540 C 9.013 6.793,9.477 7.119,10.239 7.759 C 10.541 8.013,11.011 8.408,11.284 8.638 C 12.270 9.468,13.255 10.151,13.997 10.522 C 15.894 11.469,18.203 11.474,20.198 10.535 C 21.827 9.769,23.030 8.251,23.497 6.372 C 23.641 5.793,23.733 5.140,23.703 4.911 C 23.588 4.044,22.795 3.427,21.880 3.491 C 21.497 3.518,21.207 3.630,20.880 3.876 C 20.442 4.205,20.160 4.647,19.920 5.380 C 19.775 5.823,19.651 6.089,19.466 6.360 C 19.065 6.945,18.527 7.319,17.820 7.503 C 17.450 7.598,16.655 7.600,16.260 7.505 C 15.617 7.351,14.896 6.891,13.571 5.791 C 11.570 4.129,10.142 3.206,9.018 2.846 C 8.231 2.593,7.225 2.486,6.340 2.560 M6.162 12.763 C 5.090 12.884,3.957 13.287,3.109 13.849 C 2.376 14.336,1.525 15.314,1.103 16.156 C 0.654 17.049,0.289 18.576,0.392 19.128 C 0.508 19.751,0.987 20.255,1.618 20.418 C 2.278 20.589,2.893 20.400,3.421 19.865 C 3.743 19.538,3.978 19.107,4.121 18.580 C 4.169 18.404,4.282 18.107,4.372 17.920 C 4.596 17.457,5.073 16.973,5.549 16.727 C 6.519 16.226,7.715 16.261,8.700 16.820 C 9.134 17.066,9.801 17.573,10.706 18.341 C 11.701 19.187,11.964 19.398,12.560 19.823 C 14.033 20.876,15.065 21.282,16.579 21.406 C 18.035 21.525,19.738 21.102,20.909 20.330 C 21.998 19.613,22.904 18.413,23.338 17.113 C 23.675 16.105,23.780 15.156,23.604 14.709 C 23.471 14.370,23.147 14.038,22.768 13.850 C 22.470 13.703,22.456 13.700,22.000 13.700 C 21.544 13.700,21.530 13.703,21.232 13.850 C 20.858 14.035,20.578 14.282,20.346 14.632 C 20.140 14.943,20.084 15.069,19.896 15.639 C 19.550 16.686,18.933 17.336,17.997 17.637 C 17.271 17.871,16.260 17.793,15.580 17.450 C 15.164 17.241,14.471 16.726,13.199 15.680 C 11.054 13.916,9.660 13.116,8.253 12.839 C 7.751 12.740,6.703 12.702,6.162 12.763 " stroke="none" fill-rule="evenodd" fill="#000"></path></svg>