<?xml version="1.0" encoding="UTF-8" standalone="no"?>
<!-- Created with Inkscape (http://www.inkscape.org/) -->

<svg
   width="29.172503mm"
   height="35.540314mm"
   viewBox="0 0 29.172503 35.540314"
   version="1.1"
   id="svg1"
   xml:space="preserve"
   inkscape:version="1.4.2 (ebf0e940, 2025-05-08)"
   sodipodi:docname="fmod.svg"
   xmlns:inkscape="http://www.inkscape.org/namespaces/inkscape"
   xmlns:sodipodi="http://sodipodi.sourceforge.net/DTD/sodipodi-0.dtd"
   xmlns="http://www.w3.org/2000/svg"
   xmlns:svg="http://www.w3.org/2000/svg"><sodipodi:namedview
     id="namedview1"
     pagecolor="#ffffff"
     bordercolor="#000000"
     borderopacity="0.25"
     inkscape:showpageshadow="2"
     inkscape:pageopacity="0.0"
     inkscape:pagecheckerboard="0"
     inkscape:deskcolor="#d1d1d1"
     inkscape:document-units="mm"
     inkscape:zoom="0.89887065"
     inkscape:cx="71.756709"
     inkscape:cy="133.50085"
     inkscape:window-width="1888"
     inkscape:window-height="985"
     inkscape:window-x="2576"
     inkscape:window-y="230"
     inkscape:window-maximized="0"
     inkscape:current-layer="layer1" /><defs
     id="defs1" /><g
     inkscape:label="Layer 1"
     inkscape:groupmode="layer"
     id="layer1"
     transform="translate(-86.017755,-113.32611)"><path
       style="fill:#000000"
       d="m 98.238328,148.7594 c -3.98354,-0.62098 -8.29869,-3.05743 -10.44761,-5.89902 -1.94379,-2.57032 -2.17746,-4.67742 -0.51871,-4.67742 0.58474,0 1.03594,0.43944 1.60574,1.56388 1.39952,2.76182 4.87212,5.28397 8.55883,6.21626 2.10275,0.53174 5.162172,0.41965 7.057702,-0.25857 3.14196,-1.1242 5.78652,-3.36197 7.0338,-5.95185 2.37242,-4.92615 0.62518,-9.67922 -4.5585,-12.40066 -1.1944,-0.62706 -3.07948,-1.23881 -4.36562,-1.41674 -0.74966,-0.10371 -0.74966,-0.10371 -0.74966,6.42476 0,6.52848 0,6.52848 -1.5434,6.52466 -2.872642,-0.007 -6.405412,-1.07955 -8.773372,-2.66334 -3.67712,-2.45941 -5.83304,-6.60649 -5.4827,-10.5464 0.14104,-1.58605 0.88511,-3.86405 1.71213,-5.24174 1.71976,-2.86486 4.98675,-5.36393 8.61929,-6.59328 1.41892,-0.4802 4.918502,-0.66937 6.842172,-0.36985 3.54441,0.55187 7.68904,2.84588 9.82898,5.44023 1.02342,1.24073 1.92144,2.81739 2.10824,3.70141 0.16548,0.78316 -0.5271,1.50776 -1.36393,1.42698 -0.51196,-0.0494 -0.65067,-0.19947 -1.35542,-1.46616 -1.56132,-2.80631 -4.24343,-4.91376 -7.76976,-6.10509 -1.49598,-0.50539 -1.89326,-0.56658 -3.70417,-0.57053 -2.404942,-0.005 -3.689232,0.24162 -5.439882,1.04565 -4.45356,2.04541 -7.13034,5.99974 -6.85583,10.12788 0.27489,4.13363 3.23789,7.30267 8.16208,8.72964 2.80077,0.81163 2.54613,1.39218 2.54613,-5.8048 0,-3.43605 0.0482,-6.37293 0.10706,-6.52638 0.0764,-0.19922 0.34128,-0.27872 0.926052,-0.27797 1.13808,0.001 4.16811,0.47352 5.22869,0.81463 2.50221,0.80477 5.6083,2.82077 6.99255,4.53852 0.40227,0.49919 1.09605,1.66167 1.54172,2.58331 0.81031,1.67569 0.81031,1.67569 0.87316,4.09332 0.0706,2.7171 -0.0547,3.2972 -1.21169,5.60806 -0.96695,1.93131 -2.01564,3.24749 -3.60962,4.53037 -1.56455,1.25918 -4.37031,2.73174 -5.99723,3.14754 -1.31241,0.33541 -4.582642,0.47321 -5.997222,0.2527 z"
       id="path2" /></g></svg>
