<svg width="110.26" height="134.33" viewBox="0 0 29.17 35.54" xml:space="preserve" xmlns="http://www.w3.org/2000/svg">
  <path style="fill:#000"
    d="M98.24 148.76c-3.99-.62-8.3-3.06-10.45-5.9-1.94-2.57-2.18-4.68-.52-4.68.59 0 1.04.44 1.6 1.57 1.4 2.76 4.88 5.28 8.57 6.21 2.1.53 5.16.42 7.05-.26 3.15-1.12 5.8-3.36 7.04-5.95 2.37-4.92.62-9.68-4.56-12.4a15.5 15.5 0 0 0-4.37-1.41c-.75-.1-.75-.1-.75 6.42 0 6.53 0 6.53-1.54 6.52-2.87 0-6.4-1.07-8.77-2.66-3.68-2.46-5.84-6.6-5.49-10.55.15-1.58.89-3.86 1.72-5.24 1.72-2.86 4.98-5.36 8.62-6.59 1.42-.48 4.91-.67 6.84-.37 3.54.55 7.69 2.85 9.83 5.44 1.02 1.24 1.92 2.82 2.1 3.7.17.78-.52 1.5-1.36 1.43-.51-.05-.65-.2-1.35-1.47-1.57-2.8-4.25-4.91-7.77-6.1a8.7 8.7 0 0 0-3.7-.57c-2.41 0-3.7.24-5.45 1.04-4.45 2.05-7.13 6-6.85 10.13.27 4.13 3.23 7.3 8.16 8.73 2.8.81 2.54 1.4 2.54-5.8 0-3.44.05-6.38.11-6.53.08-.2.34-.28.93-.28 1.14 0 4.17.47 5.23.82 2.5.8 5.6 2.82 6.99 4.53.4.5 1.1 1.67 1.54 2.59.81 1.67.81 1.67.87 4.1.07 2.7-.05 3.29-1.2 5.6a12.67 12.67 0 0 1-3.62 4.53 19.83 19.83 0 0 1-6 3.15c-1.3.33-4.58.47-6 .25z"
    transform="translate(-86.02 -113.33)" />
</svg>