<svg xmlns="http://www.w3.org/2000/svg" viewBox="0 0 24 24"><path d="m9.586 14.617-.188.61-.328.492-.398.328-.586.211-.586.023-.656-.211-.328-.328-.164-.445v-.445l.14-.422.258-.282.492-.21.563-.094 1.828-.024ZM2.648 2.32l-.679.774-.399.703-.234.656-.141.844v12.797l.117.75.258.75.305.562.445.586.774.68.703.398.656.235.844.14h12.797l.75-.117.75-.258.562-.304.586-.446.469-.492.445-.656.328-.75.141-.539-2.953-.024v-3.211l3.023-.023v-3.75l-3.023-.023V7.898l3.023-.023V5.297l-.07-.539-.305-.961-.304-.563-.446-.586-.773-.679-.703-.399-.656-.234-.844-.141H5.297l-.75.117-.75.258-.563.305Zm3.141 8.571 1.383-.375 1.312-.024.563.117.492.211.656.586.305.586.188.891-.024 4.148H9.656l-.023-.937-.516.586-.305.211-.445.187-.656.117-.75-.023-.516-.141L6 16.773l-.328-.328-.328-.656-.071-.891.071-.398.211-.492.422-.469.585-.328.75-.188 2.321-.046-.047-.516-.234-.492-.375-.328-.375-.164-.516-.094-.984.047-.797.211-.539.257Z"/></svg>
