<svg xmlns="http://www.w3.org/2000/svg" viewBox="0 0 24 24"><path d="M4.434 0.360 C 3.285 0.552,2.320 1.094,1.531 1.989 C 0.886 2.722,0.548 3.426,0.376 4.399 L 0.280 4.938 0.280 12.034 C 0.280 19.915,0.267 19.517,0.547 20.380 C 0.824 21.233,1.273 21.901,1.991 22.531 C 2.713 23.164,3.457 23.529,4.340 23.683 C 4.763 23.756,5.067 23.759,12.030 23.760 C 20.069 23.760,19.647 23.773,20.449 23.496 C 21.750 23.046,22.796 22.082,23.348 20.824 C 23.495 20.488,23.680 19.937,23.680 19.835 C 23.680 19.821,22.942 19.796,22.040 19.780 L 20.400 19.750 20.400 17.955 L 20.400 16.160 22.080 16.160 L 23.760 16.160 23.760 14.060 L 23.760 11.960 22.866 11.960 C 22.375 11.960,21.619 11.948,21.186 11.934 L 20.400 11.907 20.400 9.860 L 20.400 7.813 21.547 7.786 C 22.177 7.772,22.934 7.760,23.229 7.760 L 23.765 7.760 23.751 6.070 L 23.737 4.380 23.544 3.782 C 23.230 2.811,22.841 2.211,22.100 1.555 C 21.344 0.886,20.651 0.552,19.660 0.379 L 19.100 0.281 11.980 0.285 C 5.359 0.289,4.830 0.294,4.434 0.360 M8.762 10.755 C 9.311 10.875,9.573 11.009,9.979 11.371 C 10.465 11.807,10.638 12.123,10.792 12.860 L 10.900 13.380 10.889 15.690 L 10.877 18.000 10.319 18.000 L 9.760 18.000 9.760 17.726 C 9.760 17.575,9.749 17.343,9.735 17.210 L 9.710 16.969 9.430 17.286 C 9.276 17.460,9.074 17.655,8.981 17.719 C 8.524 18.034,7.974 18.172,7.220 18.163 C 6.653 18.156,6.282 18.068,5.907 17.852 C 5.546 17.644,5.381 17.466,5.151 17.040 C 4.949 16.662,4.947 16.656,4.900 16.123 C 4.862 15.695,4.863 15.538,4.904 15.343 C 5.086 14.479,5.723 13.870,6.700 13.625 C 7.070 13.532,7.199 13.523,8.415 13.496 L 9.730 13.468 9.703 13.169 C 9.666 12.763,9.482 12.397,9.190 12.147 C 8.775 11.792,8.311 11.673,7.474 11.707 C 6.859 11.732,6.231 11.875,5.727 12.104 C 5.563 12.180,5.420 12.233,5.410 12.224 C 5.401 12.214,5.406 11.964,5.422 11.668 L 5.450 11.130 6.155 10.935 C 6.889 10.732,6.918 10.728,8.182 10.688 C 8.315 10.684,8.576 10.714,8.762 10.755 M8.320 14.441 C 7.344 14.469,7.151 14.497,6.761 14.666 C 6.433 14.808,6.247 15.010,6.130 15.353 C 6.012 15.696,6.015 15.954,6.140 16.281 C 6.293 16.681,6.535 16.899,6.987 17.045 C 7.476 17.203,7.784 17.201,8.265 17.036 C 9.143 16.734,9.636 15.986,9.705 14.848 L 9.732 14.400 9.476 14.408 C 9.335 14.412,8.815 14.427,8.320 14.441 " stroke="none" fill-rule="evenodd" fill="black"></path></svg>