<svg width="24mm" height="24mm" viewBox="0 0 24 24"><path d="M7.613.672c-1.467 2.55-3 4.833-3.934 8.95a8.3 8.3 0 0 0 0 3.601c.534 3.167 5.068 7.434 8.351 10.168v0c3.3-2.734 7.835-7.001 8.368-10.168a8.3 8.3 0 0 0 0-3.6c-.9-4.134-2.45-6.418-3.884-8.951l-2.917 4.05H10.53ZM5.796 9.056c1 0 2.3.833 3.334 2.1 1.4 1.75 1.834 3.734.95 4.45-.867.7-2.717-.116-4.134-1.866s-1.833-3.734-.95-4.434a1.17 1.17 0 0 1 .834-.25m12.551 0a1.17 1.17 0 0 1 .833.25c.867.7.45 2.684-.966 4.434-1.417 1.75-3.267 2.567-4.167 1.867-.884-.717-.45-2.7.966-4.45 1.017-1.268 2.334-2.101 3.334-2.101M9.497 19.54l2.233-2.517a.5.5 0 0 1 .284-.166h.05a.5.5 0 0 1 .35.166l2.233 2.517m-2.583-2.667" style="fill:none;stroke:#000;stroke-width:.582706;stroke-linecap:round;stroke-linejoin:round"/></svg>