<?xml version="1.0" encoding="UTF-8" standalone="no"?>
<svg
   width="24mm"
   height="24mm"
   viewBox="0 0 24 24"
   version="1.1"
   id="svg1"
   sodipodi:docname=":foobar2000:.svg"
   inkscape:version="1.4.3 (0d15f75, 2025-12-25)"
   xmlns:inkscape="http://www.inkscape.org/namespaces/inkscape"
   xmlns:sodipodi="http://sodipodi.sourceforge.net/DTD/sodipodi-0.dtd"
   xmlns="http://www.w3.org/2000/svg"
   xmlns:svg="http://www.w3.org/2000/svg">
  <defs
     id="defs1" />
  <sodipodi:namedview
     id="namedview1"
     pagecolor="#505050"
     bordercolor="#ffffff"
     borderopacity="1"
     inkscape:showpageshadow="0"
     inkscape:pageopacity="0"
     inkscape:pagecheckerboard="1"
     inkscape:deskcolor="#505050"
     inkscape:document-units="mm"
     inkscape:zoom="2.8873749"
     inkscape:cx="41.560242"
     inkscape:cy="73.249926"
     inkscape:window-width="968"
     inkscape:window-height="1044"
     inkscape:window-x="742"
     inkscape:window-y="40"
     inkscape:window-maximized="0"
     inkscape:current-layer="svg1" />
  <path
     d="M 7.2561963,0.34797063 C 7.1066505,0.42930266 5.7867118,2.7055481 5.0749259,4.1094427 c -0.78,1.5387484 -1.394449,3.2170728 -1.838889,5.0223799 -0.2193345,0.8912404 -0.2983056,1.4959834 -0.2977802,2.2809684 7.874e-4,1.313117 0.2445206,2.460422 0.7500911,3.531381 1.003794,2.125912 3.5004219,4.952853 7.1194322,8.061047 0.394591,0.33897 0.77108,0.649606 0.836407,0.690272 0.277841,0.172371 0.414007,0.101534 1.348799,-0.699456 3.602482,-3.087203 6.049,-5.847505 7.101593,-8.012247 0.549646,-1.130514 0.806235,-2.433662 0.760584,-3.864317 -0.0244,-0.762684 -0.07031,-1.072795 -0.309848,-2.0852467 C 20.196899,7.5610663 19.689755,6.0973533 19.033328,4.671158 18.552681,3.6261734 16.82346,0.53582122 16.631149,0.37761743 16.489736,0.26112902 16.199302,0.25483243 16.058939,0.36502371 16.005154,0.40752618 15.33797,1.3087369 14.576074,2.3681512 l -1.384743,1.925731 -1.269303,-0.00158 -1.269304,-0.00131 L 9.2842489,2.3846804 C 8.5315351,1.3362852 7.8653999,0.43559926 7.803744,0.38338938 7.6736094,0.27293528 7.424108,0.25666892 7.2561963,0.34797058 m 1.436953,2.88518582 c 1.3655897,1.8966089 1.3697867,1.9023809 1.4768297,1.9619368 0.134332,0.075298 3.363208,0.0711 3.509082,-0.0042 0.06638,-0.03437 0.581917,-0.7144095 1.353783,-1.7858926 0.685813,-0.9515838 1.260383,-1.7163667 1.276912,-1.6995757 0.07819,0.078971 1.008517,1.7541468 1.426982,2.5690407 0.660889,1.2876686 1.119758,2.4016541 1.483653,3.6011694 0.1422,0.4698888 0.336872,1.1772146 0.336872,1.2262761 0,0.01548 -0.113606,-0.057719 -0.252654,-0.1629262 -0.294894,-0.2235317 -0.536791,-0.3164076 -0.906195,-0.3489404 -1.13996,-0.09996 -2.619676,0.7451057 -3.829949,2.1878295 -1.363229,1.624803 -1.923894,3.551583 -1.356931,4.662944 0.311947,0.611826 1.048919,0.947911 1.828132,0.834047 0.910917,-0.133276 1.848072,-0.662987 2.736689,-1.547407 0.704964,-0.701292 1.134975,-1.268778 1.537174,-2.029363 0.208052,-0.393017 0.455985,-1.022421 0.503472,-1.277961 0.04461,-0.24006 0.08684,-0.0934 0.07031,0.244258 -0.03726,0.766357 -0.171847,1.570494 -0.35655,2.129585 -0.683188,2.068193 -3.139938,4.985912 -6.997959,8.31029 -0.306437,0.263935 -0.582441,0.489828 -0.613401,0.501634 -0.09602,0.037 -1.838889,-1.501492 -3.1068808,-2.742985 C 6.4722637,17.571719 4.9778537,15.618177 4.3518603,14.031417 4.0637877,13.301266 3.8709519,11.955091 3.9202761,11.017413 l 0.023086,-0.436307 0.07399,0.416367 c 0.2387485,1.340928 0.9953977,2.650634 2.1996364,3.807909 0.5108172,0.490878 0.9382026,0.804924 1.4477085,1.064137 1.2905553,0.656166 2.366497,0.545449 2.927688,-0.301978 C 11.424591,14.311094 10.463033,11.679874 8.5417668,9.9553744 7.2273368,8.7760609 5.8557132,8.3095827 4.9521409,8.7353949 4.7312329,8.839552 4.4384375,9.088533 4.2804968,9.3065551 4.2183169,9.3923477 4.1674126,9.4498043 4.1674126,9.434063 c 0,-0.068738 0.2106749,-0.8461148 0.3767499,-1.3899896 C 4.897301,6.8867983 5.410217,5.6062135 5.9346774,4.5719857 6.3602261,3.7326924 7.5130418,1.6763055 7.5579052,1.6763055 c 0.00782,0 0.5186881,0.7007666 1.1352372,1.5568511 M 6.1647676,9.6326704 C 7.2000452,9.9002787 8.5136878,11.06936 9.2789953,12.404516 9.7869265,13.289985 10.029347,14.267018 9.8774405,14.81404 9.7173997,15.390973 9.0877329,15.477289 8.1936062,15.045181 7.1701349,14.55063 6.0194192,13.35164 5.4193993,12.154224 4.9489859,11.215233 4.8248896,10.229542 5.1237178,9.8032052 5.2853333,9.5725896 5.6814985,9.5077865 6.1647676,9.6326704 m 12.4810464,0.026237 c 0.210938,0.1435116 0.294893,0.3505146 0.309061,0.7634706 0.03464,1.005106 -0.611302,2.309041 -1.714007,3.45897 -0.665609,0.694469 -1.277174,1.117396 -1.934651,1.337517 -0.325852,0.109408 -0.696568,0.134071 -0.892814,0.05982 -0.291746,-0.11045 -0.446538,-0.394852 -0.447851,-0.821977 -0.0047,-1.583874 1.616408,-3.861956 3.313884,-4.6561229 0.360747,-0.1689605 0.584016,-0.2232693 0.933481,-0.227467 0.25108,-0.00288 0.323492,0.01155 0.432897,0.085793 m -6.991132,6.7101449 c -0.08159,0.02912 -0.190212,0.08029 -0.241373,0.113866 -0.105732,0.06926 -2.4008669,2.645388 -2.4745897,2.777881 -0.1204229,0.215659 -0.00713,0.518688 0.2376991,0.634651 0.3310992,0.157154 0.3562866,0.137214 1.6153586,-1.285308 0.617597,-0.697618 1.135235,-1.263531 1.15019,-1.257497 0.01521,0.006 0.528658,0.575096 1.141533,1.264582 0.720445,0.810695 1.157801,1.271664 1.237558,1.304721 0.346842,0.143511 0.741695,-0.239798 0.618124,-0.60002 -0.05352,-0.15558 -2.243451,-2.644339 -2.480626,-2.81907 -0.138788,-0.102317 -0.405872,-0.189163 -0.576145,-0.187589 -0.04381,5.25e-4 -0.146134,0.02466 -0.227729,0.05379"
     stroke="none"
     fill-rule="evenodd"
     fill="#000000"
     id="path1"
     style="stroke-width:0.262361" />
</svg>
