<svg width="24" height="24" version="1.1" viewBox="0 0 24 24" xmlns="http://www.w3.org/2000/svg">
 <g transform="translate(-93,-136.5)">
  <circle cx="105" cy="148.5" r="11.878" fill="none" stroke="#000" stroke-width=".24357"/>
  <path d="m104.58 137.65c-4.2282-5e-4 -8.0784 2.9858-9.6074 6.8663-1.4658 3.4465-0.94573 7.6378 1.3674 10.589 1.6895 2.229 4.2635 3.6973 6.9884 4.2149 7e-3 -1.3959 0.42179-3.126-0.7905-4.1641-0.84561-0.60064-1.3082-1.5599-1.2844-2.5928-0.0298-2.7282 0.42265-5.4605 0.54686-8.1358 0.14678-1.2753-0.0434-2.4914 0.36588-3.5815 0.86089-0.40957 0.40577 1.058 0.49391 4.5249l-0.0345 5.1486c-0.1793 0.76618 1.1503 0.89251 0.96687-0.046 0.15327-3.2579-0.0339-9.3818 0.33422-9.6086 0.82244-0.52819 0.46635 1.7134 0.52389 2.568 0.0181 2.3272 0.0848 4.6927-0.0196 7.0182-0.0989 0.90951 1.2764 0.94291 1.1164-0.0217-0.0232-1.7466-0.0319-3.4979 0.0376-5.2466 0.0636-1.2655 2e-3 -2.535 0.0306-3.7975 0.17069-0.9237 0.68262-0.70551 0.65868 0.16625 0.27728 2.9614-0.0191 5.9584 0.12719 8.9219-0.10481 0.9189 1.0677 0.91056 0.92771 7e-3l-0.13263-8.8595c-0.16311-0.92102 0.73727-1.3005 0.77522-0.16253 0.0248 1.7189 0.25156 4.8702 0.25156 4.8702s0.42566 4.9231 0.18842 7.4262c-0.38461 1.1377-1.7031 1.5951-1.7626 2.9043-0.0255 0.80084-0.19804 2.1656 0.18255 2.628 2.9335-0.52518 5.6457-2.2387 7.2591-4.7706 2.1194-3.0911 2.3358-7.3186 0.60267-10.634-1.8584-3.7692-5.9028-6.3341-10.114-6.2325z"/>
 </g>
</svg>
