<svg width="100%" height="100%" viewBox="0 0 24 24" version="1.1" xmlns="http://www.w3.org/2000/svg"
    xmlns:xlink="http://www.w3.org/1999/xlink" xml:space="preserve" xmlns:serif="http://www.serif.com/"
    style="fill-rule:evenodd;clip-rule:evenodd;stroke-linejoin:round;stroke-miterlimit:2;">
    <g transform="matrix(0.024,0,0,0.024,0,0)">
        <path
            d="M170,5C172,8.333 173.333,10.667 174,12L178,20L184,34L199,67L246,164C259.333,192.667 274.333,224.667 291,260L367,423C377.667,444.333 387,464 395,482L411,518C416.333,530 422,539 428,545C434.667,552.333 443.333,558.667 454,564C471.333,567.333 489.667,566.333 509,561C519.086,558.118 535.753,551.118 559,540L720,463C734,456.333 745,452.333 753,451C763.667,449 775.333,450 788,454C798,462 806.667,471.667 814,483C817.333,487.667 823.667,499.333 833,518L838,528C844,540.667 848,552.167 850,562.5C852,572.833 852,584.333 850,597C844,607 836.667,615.333 828,622C822.139,626.262 812.139,631.596 798,638L628,715C570.667,741.667 532.333,759.333 513,768C484.333,780.667 462.667,789 448,793C436,796.333 423,797.333 409,796C398.333,795.333 386,792 372,786C351.333,777.333 331.667,762.333 313,741C299,725 285.333,704 272,678C264.667,663.333 254.333,640 241,608C233.625,589.897 226.958,574.564 221,562L175,465L32,164C30.882,161.646 26.548,154.979 19,144C15.667,139.333 12.667,134.667 10,130C10.667,117.333 15.333,105 24,93C31.778,83.278 40.778,73.945 51,65L59,58C74.333,44.667 91.833,33.5 111.5,24.5C130.5,15.5 150,9 170,5ZM1,421C11.128,433.829 18.795,445.829 24,457L154,736C165.333,760 174.667,778.333 182,791C190.782,807.214 202.782,823.88 218,841L226,850C247.333,874 273.667,892.667 305,906C337.667,919.333 369.333,927 400,929C434.667,931 478.667,923.333 532,906C548.833,900.613 589.833,882.28 655,851L705,827C768.727,797.087 817.393,774.754 851,760C878.333,748 901.667,737 921,727L958,710C967.333,705.333 975.5,701.833 982.5,699.5C986.167,698.5 992,698 1000,698C998.667,746 995.333,799.333 990,858C988.667,871.333 983.667,885.667 975,901C961,925 940,946.333 912,965C880.667,985.667 853.667,996.667 831,998C801,999.333 784,1000 780,1000L249,998C248.333,998 207.333,998.333 126,999C90.667,994.333 66.667,987 54,977C18,949.667 0,899.333 0,826L0,779L1,421ZM619,120C627.667,126.667 635,134.333 641,143C646.333,150.333 651.667,159.333 657,170L733,330C742.333,350.667 747.667,363.833 749,369.5C750.333,375.167 750.333,384.333 749,397C744.333,406.333 739.333,413.667 734,419C728.667,424.333 721,429.333 711,434L536,515C518,523 506.333,528 501,530C493.667,532.667 487.333,533.667 482,533C478,532.333 470.667,530.667 460,528C454,524 448.667,518.667 444,512C441.333,508 438,501.333 434,492L345,308C339.667,298 336.333,289.333 335,282C333,272.667 332.667,263.333 334,254C338,243.333 343.667,235 351,229C356.333,225 365,220 377,214L555,132C567,126 577.333,122.333 586,121C596.667,118.333 607.667,118 619,120ZM309,0L562,0C564.667,0 569,0.5 575,1.5C578.333,1.833 582,3 586,5C588.667,9 590.667,15.667 592,25L594,39C595.333,47.667 595.5,55.167 594.5,61.5C593.5,67.167 589.833,73.833 583.5,81.5C577.167,89.167 569.333,96 560,102C556.182,104.546 546.848,109.212 532,116L462,148C408.667,172 381.333,184.333 380,185C362.667,192.333 350.333,197 343,199C337.667,200.333 330,201.333 320,202C308.667,198 299.333,192.333 292,185C282.719,175.719 276.053,166.719 272,158L239,87C228.333,64.333 221.333,49.833 218,43.5C214,35.833 209.667,28.333 205,21L202,15L196,4C210.667,2.667 230.667,1.667 256,1C267.333,0.333 285,0 309,0Z"
            style="fill-rule:nonzero;" />
    </g>
</svg>