<svg xmlns="http://www.w3.org/2000/svg" width="24" height="24" viewBox="0 0 24 24"><path d="M11.578.152c-4.63 0-8.845 3.27-10.52 7.52-1.605 3.773-1.035 8.363 1.498 11.594 1.85 2.44 4.668 4.049 7.652 4.615.008-1.528.462-3.423-.866-4.56-.926-.657-1.432-1.707-1.406-2.838-.033-2.988.463-5.98.599-8.91.16-1.396-.048-2.727.4-3.92.943-.45.445 1.158.541 4.954l-.038 5.638c-.196.839 1.26.977 1.06-.05.167-3.568-.038-10.274.365-10.522.9-.579.51 1.876.574 2.812.02 2.548.093 5.138-.022 7.685-.108.996 1.398 1.032 1.223-.024-.026-1.913-.035-3.83.04-5.745.07-1.386.003-2.776.034-4.158.187-1.012.748-.773.722.182.303 3.242-.021 6.524.139 9.77-.115 1.005 1.17.996 1.016.007L14.444 4.5c-.179-1.009.807-1.424.848-.178.028 1.882.276 5.333.276 5.333s.466 5.39.206 8.131c-.42 1.246-1.865 1.747-1.93 3.18-.028.878-.217 2.372.2 2.878 3.212-.575 6.182-2.451 7.949-5.224 2.32-3.384 2.558-8.013.66-11.644C20.618 2.85 16.189.041 11.578.152z"/></svg>
