<svg xmlns="http://www.w3.org/2000/svg"  viewBox="0 0 48 48" width="48px" height="48px"><path d="M 9.5 6 C 7.57 6 6 7.57 6 9.5 L 6 38.5 C 6 40.43 7.57 42 9.5 42 L 38.5 42 C 40.43 42 42 40.43 42 38.5 L 42 9.5 C 42 7.57 40.43 6 38.5 6 L 9.5 6 z M 9.5 9 L 38.5 9 C 38.775 9 39 9.224 39 9.5 L 39 38.5 C 39 38.775 38.775 39 38.5 39 L 9.5 39 C 9.225 39 9 38.775 9 38.5 L 9 9.5 C 9 9.224 9.225 9 9.5 9 z M 26 11 C 19.38 11 13 17.87 13 25 C 13 32.13 17.38 36.929688 24 36.929688 C 34.16 36.929688 37 25 34 21 C 33.97 21.06 34.000547 24.000937 32.560547 25.210938 C 32.000547 23.000938 31.119141 22.349609 31.119141 22.349609 L 30.490234 24.689453 C 30.420234 24.979453 29 28 25 28 C 26 30 27.000703 31.000703 30.470703 30.470703 C 28.620703 33.240703 24.000469 34.160625 21.230469 31.390625 C 18.880469 29.040625 19.150078 23.640703 22.580078 20.470703 C 22.810078 20.260703 23.039297 20.059141 23.279297 19.869141 C 23.299297 19.849141 23.329609 19.830313 23.349609 19.820312 C 23.929609 19.310313 24.549453 18.920391 25.189453 18.650391 C 27.929453 17.270391 30.820078 17.279375 32.580078 18.859375 C 32.000078 16.999375 30 16 27 15 C 35 14 37 21 37 21 C 36 16 32 11 26 11 z"/></svg>
