<svg xmlns="http://www.w3.org/2000/svg" width="48" height="48" viewBox="0 0 48 48"><path d="M25.000 0.048 C 22.259 0.321,20.641 0.690,18.686 1.490 C 15.626 2.743,12.967 4.514,10.412 7.000 C 5.850 11.439,2.978 16.994,2.120 23.040 C 1.965 24.132,1.939 27.679,2.077 28.880 C 2.623 33.633,4.207 37.751,6.677 40.840 C 7.295 41.613,8.711 43.037,9.480 43.657 C 12.697 46.252,16.808 47.716,21.368 47.890 C 25.557 48.050,29.565 47.051,32.809 45.039 C 35.056 43.646,37.290 41.455,38.867 39.097 C 42.213 34.096,43.612 27.320,42.360 22.172 C 42.117 21.173,41.622 19.881,41.235 19.235 C 40.754 18.432,40.756 18.431,40.651 19.495 C 40.345 22.574,39.545 24.860,38.380 25.982 L 38.108 26.245 37.729 25.102 C 37.263 23.699,36.761 22.656,36.163 21.852 C 35.672 21.191,35.477 20.995,35.414 21.097 C 35.392 21.133,35.140 22.026,34.853 23.081 C 34.567 24.137,34.256 25.207,34.161 25.460 C 33.754 26.547,32.376 28.244,31.165 29.152 C 29.472 30.421,27.573 31.135,25.280 31.364 C 24.774 31.414,24.312 31.470,24.253 31.488 C 24.175 31.511,24.228 31.667,24.447 32.060 C 25.045 33.137,25.483 33.734,26.195 34.443 C 26.779 35.026,27.052 35.231,27.600 35.500 C 28.540 35.962,29.408 36.161,30.720 36.215 C 31.699 36.255,33.485 36.152,33.984 36.027 L 34.183 35.977 34.031 36.241 C 33.948 36.386,33.502 36.888,33.040 37.356 C 31.536 38.881,29.861 39.823,27.623 40.403 C 24.383 41.243,20.792 40.576,18.320 38.675 C 17.639 38.151,16.459 36.900,16.062 36.280 C 13.881 32.877,13.790 27.459,15.837 22.873 C 16.927 20.431,18.580 18.344,20.960 16.403 C 22.203 15.389,22.976 14.897,24.420 14.202 C 25.927 13.476,26.924 13.102,28.320 12.739 C 29.374 12.464,29.445 12.457,31.295 12.420 C 32.541 12.395,33.372 12.414,33.722 12.475 C 34.973 12.692,36.240 13.217,37.394 13.996 C 37.734 14.226,38.029 14.398,38.048 14.378 C 38.130 14.297,37.335 12.879,36.939 12.399 C 36.402 11.750,35.515 10.978,34.680 10.435 C 33.472 9.649,31.235 8.614,29.142 7.872 C 28.580 7.673,28.089 7.480,28.052 7.443 C 27.802 7.196,32.268 7.251,33.760 7.512 C 38.171 8.285,41.735 10.637,44.289 14.457 C 44.576 14.888,45.098 15.813,45.447 16.514 C 45.796 17.214,46.098 17.804,46.118 17.824 C 46.193 17.899,45.677 16.088,45.369 15.195 C 43.789 10.613,40.931 6.560,37.420 3.917 C 35.155 2.214,32.424 0.964,29.840 0.448 C 28.325 0.146,25.972 -0.048,25.000 0.048 " stroke="none" fill-rule="evenodd"></path></svg>