<svg xmlns="http://www.w3.org/2000/svg" width="24" height="24" viewBox="0 0 24 24"><path style="stroke:none;fill-rule:evenodd;fill:#000;fill-opacity:1" d="M4.707 0c.898 0 1.629.73 1.629 1.629V24H4.098a4.1 4.1 0 0 1-2.899-1.2A4.1 4.1 0 0 1 0 19.903V1.63C0 .73.73 0 1.629 0ZM24 0v1.941a4.396 4.396 0 0 1-4.395 4.395H9.004c-.89 0-1.613-.723-1.613-1.613v-3.11A1.613 1.613 0 0 1 9.004 0Zm-6.781 11.734a.62.62 0 0 1 0 1.11l-8.903 4.41a.64.64 0 0 1-.62-.031.64.64 0 0 1-.305-.543V7.895a.646.646 0 0 1 .925-.575Zm0 0"/></svg>