<svg xmlns="http://www.w3.org/2000/svg" width="24" height="24" xml:space="preserve" style="fill-rule:evenodd;clip-rule:evenodd;stroke-linejoin:round;stroke-miterlimit:2" >
  <path d="M21.603 9.23v4.21a1.83 1.83 0 0 1-1.828 1.827h-3.572c-.874 3.598-4.12 6.272-7.985 6.272A8.222 8.222 0 0 1 0 13.32c0-3.867 2.678-7.114 6.278-7.986V1.827A1.83 1.83 0 0 1 8.105 0h11.67a1.83 1.83 0 0 1 1.828 1.827v7.25c-.319.145-.63.328-.936.536-1.222.829-2.297 2.037-3.057 2.56a5.389 5.389 0 0 1-.116-.483c-.108-.607-.182-1.395-.343-2.088-.17-.739-.488-1.353-.899-1.707-.55-.473-1.41-.356-2.32.417-.86.73-1.882 2.104-2.75 3.067-.121.135-.256.313-.378.461-.028-.137-.054-.286-.089-.404-.348-1.188-.637-2.474-1.062-3.551-.22-.56-.5-.753-.791-1.015a1.64 1.64 0 0 0-1.053-.442c-.316-.013-.698.077-1.102.329-.504.312-1.137.71-1.769 1.514-.889 1.13-1.82 2.196-2.481 3.318-.564.957-.925 1.662-.925 1.662a.963.963 0 0 0 1.676.95s1.132-1.87 2.385-3.637c.615-.867 1.463-2.728 2.005-2.493.23.1.294.371.35.543.484 1.477.71 3.66 1.235 4.562.41.703.965.967 1.496.928.266-.021.574-.115.892-.33.277-.188.596-.48.922-.857.557-.644 1.179-1.538 1.777-2.321.28-.366.675-1.214 1.13-1.196.305.012.463.732.617 1.264.29 1.004.54 2.002.877 2.325.309.294.658.415 1.088.07.71-.572 1.682-2.09 2.872-3.212a6.78 6.78 0 0 1 .749-.616Z"/>
</svg>
