<svg xmlns="http://www.w3.org/2000/svg" xml:space="preserve" width="24" height="24" style="fill-rule:evenodd;clip-rule:evenodd;stroke-linejoin:round;stroke-miterlimit:2"><path d="M8.471 0.062 C 7.738 0.241,7.174 0.802,6.980 1.545 C 6.930 1.737,6.920 2.129,6.920 3.827 L 6.920 5.877 6.750 5.921 C 5.893 6.141,4.807 6.630,4.060 7.133 C 2.251 8.349,0.927 10.150,0.348 12.180 C 0.077 13.127,-0.019 13.910,0.011 14.920 C 0.079 17.234,0.953 19.312,2.558 20.973 C 3.975 22.441,5.773 23.352,7.860 23.662 C 8.398 23.742,9.585 23.753,10.120 23.683 C 12.130 23.420,13.889 22.584,15.323 21.210 C 16.113 20.453,16.672 19.689,17.178 18.673 C 17.434 18.159,17.840 17.071,17.840 16.899 C 17.840 16.848,18.106 16.840,19.873 16.840 C 21.149 16.840,21.994 16.824,22.143 16.797 C 22.930 16.654,23.596 16.013,23.758 15.240 C 23.791 15.084,23.801 14.320,23.792 12.605 L 23.780 10.190 23.560 10.363 C 22.883 10.894,22.350 11.459,21.130 12.940 C 19.763 14.598,19.429 14.827,18.854 14.497 C 18.434 14.255,18.280 13.913,17.718 11.971 C 17.259 10.387,17.151 10.220,16.723 10.439 C 16.532 10.536,16.347 10.748,16.017 11.249 C 15.703 11.725,14.428 13.433,13.978 13.980 C 13.601 14.438,13.067 14.966,12.790 15.155 C 11.812 15.819,10.840 15.626,10.203 14.640 C 9.897 14.167,9.700 13.524,9.324 11.777 C 8.745 9.084,8.565 8.688,8.048 8.962 C 7.764 9.113,7.499 9.468,6.751 10.700 C 6.497 11.118,6.077 11.766,5.817 12.140 C 5.307 12.873,4.393 14.270,3.819 15.193 C 3.402 15.863,3.223 16.048,2.893 16.144 C 2.699 16.200,2.624 16.204,2.446 16.167 C 1.896 16.052,1.560 15.648,1.560 15.103 C 1.560 14.865,1.674 14.606,2.180 13.700 C 3.010 12.212,3.338 11.744,4.962 9.720 C 5.944 8.497,6.337 8.117,7.180 7.581 C 7.975 7.074,8.622 6.965,9.244 7.234 C 9.489 7.339,9.866 7.632,10.154 7.940 C 10.455 8.262,10.640 8.637,10.916 9.480 C 11.116 10.093,11.799 12.534,11.867 12.878 L 11.902 13.056 12.141 12.770 C 14.694 9.717,15.381 9.008,16.138 8.639 C 17.022 8.209,17.736 8.361,18.252 9.088 C 18.716 9.742,18.891 10.299,19.123 11.860 C 19.257 12.765,19.354 13.285,19.401 13.362 C 19.443 13.429,19.735 13.194,20.740 12.282 C 22.002 11.138,22.909 10.447,23.560 10.135 L 23.799 10.020 23.799 5.878 C 23.800 2.285,23.792 1.706,23.739 1.501 C 23.575 0.872,23.120 0.380,22.460 0.116 L 22.220 0.020 15.460 0.013 C 9.796 0.007,8.663 0.015,8.471 0.062 " stroke="none" fill-rule="evenodd" fill="black"></path></svg>