<svg xmlns="http://www.w3.org/2000/svg" id="svg4" version="1.1" viewBox="0 0 480 480"><defs><style>.st1{fill-rule:evenodd}</style></defs><path id="path8-4" d="m440 80-80 80H200v60h80v80h-80v100l-80 80h81.01c6.07 0 11.44-3.91 13.31-9.67l14.48-44.57c1.38-4.26 4.73-7.6 8.99-8.98l11.13-3.62c4.26-1.39 8.93-.65 12.56 1.98l37.9 27.54a14.02 14.02 0 0 0 16.46 0l33.97-24.69c4.91-3.56 6.96-9.88 5.08-15.65l-14.48-44.57a14.01 14.01 0 0 1 1.99-12.56l6.88-9.47c2.63-3.63 6.84-5.78 11.32-5.78h46.86c6.07.01 11.44-3.91 13.31-9.67l12.98-39.94c1.87-5.77-.18-12.09-5.08-15.66l-37.91-27.54a13.972 13.972 0 0 1-5.77-11.32v-11.71c0-4.48 2.14-8.69 5.77-11.33l43.46-31.57a13.99 13.99 0 0 0 5.77-11.33V79.97Z" class="st1"/><path id="path7-7" d="m360 0-80 80h80v80l80-80V0h-80ZM120 320l-80 80v80h80l80-80h-80v-80Z" class="st1"/><path id="path3-1" d="M120 0 40 80v320l80-80V80h160l80-80H120Z" class="st1"/><path id="path9-4" d="M120 400h80V300h80v-80h-80v-60h160V80H120v320Z" style="fill-rule:evenodd;fill:#fff"/></svg>