<svg xmlns="http://www.w3.org/2000/svg" baseProfile="tiny" version="1.2" viewBox="0 0 24 24"><path d="M4.010 2.010 L 2.000 4.020 2.000 14.010 L 2.000 24.000 6.090 23.999 C 9.985 23.998,10.188 23.995,10.343 23.924 C 10.433 23.883,10.546 23.800,10.594 23.739 C 10.643 23.677,10.858 23.085,11.083 22.393 C 11.559 20.931,11.540 20.960,12.127 20.764 C 12.541 20.627,12.783 20.609,12.964 20.702 C 13.031 20.736,13.516 21.079,14.043 21.464 C 15.015 22.175,15.190 22.281,15.389 22.279 C 15.579 22.278,15.790 22.149,16.716 21.474 C 17.672 20.776,17.763 20.681,17.767 20.372 C 17.768 20.281,17.610 19.725,17.381 19.019 C 16.910 17.564,16.910 17.576,17.249 17.096 C 17.505 16.734,17.614 16.623,17.773 16.563 C 17.844 16.536,18.353 16.520,19.153 16.520 C 19.912 16.520,20.480 16.503,20.571 16.478 C 20.654 16.455,20.784 16.374,20.860 16.298 C 20.982 16.176,21.040 16.030,21.359 15.048 C 21.557 14.436,21.720 13.878,21.720 13.807 C 21.720 13.639,21.633 13.434,21.514 13.323 C 21.462 13.274,20.983 12.918,20.448 12.532 C 19.914 12.145,19.442 11.784,19.399 11.729 C 19.276 11.573,19.232 11.337,19.247 10.923 C 19.269 10.323,19.225 10.373,20.625 9.352 C 21.660 8.597,21.852 8.441,21.920 8.300 C 21.998 8.138,22.000 8.053,22.000 4.067 L 22.000 0.000 14.010 0.000 L 6.020 0.000 4.010 2.010 M18.000 6.000 L 18.000 8.000 14.000 8.000 L 10.000 8.000 10.000 9.500 L 10.000 11.000 12.000 11.000 L 14.000 11.000 14.000 13.000 L 14.000 15.000 12.000 15.000 L 10.000 15.000 10.000 17.500 L 10.000 20.000 8.000 20.000 L 6.000 20.000 6.000 12.000 L 6.000 4.000 12.000 4.000 L 18.000 4.000 18.000 6.000 " stroke="none" fill-rule="evenodd" fill="black"></path></svg>