<svg version="1.1" id="svg1" width="24" height="24" viewBox="0 0 24 24" xmlns="http://www.w3.org/2000/svg">
   <defs id="defs1" />
   <g id="g1">
      <path style="fill:#000000;stroke-width:0.0527274"
         d="m 12.031554,23.93671 c -0.32295,-0.11768 -0.48745,-0.23622 -0.7114,-0.51263 -0.3228,-0.39841 -0.42205,-0.69602 -0.42205,-1.26554 0,-0.36745 0.0243,-0.53888 0.10505,-0.74101 0.14756,-0.36933 0.45565,-0.72815 0.79142,-0.92171 l 0.28641,-0.1651 h 2.89189 c 2.84959,0 2.89523,0.002 3.12039,0.12021 1.0801,0.56818 1.30842,2.18504 0.43528,3.08248 -0.11372,0.11689 -0.3096,0.26662 -0.43528,0.33274 -0.22409,0.11788 -0.28297,0.12042 -3.04624,0.1314 -2.17721,0.009 -2.86268,-0.005 -3.01547,-0.0608 z M 1.372134,17.26463 C 0.83902403,17.16215 0.37725403,16.77201 0.14009403,16.2237 c -0.10262,-0.23726 -0.12099,-0.36085 -0.12099,-0.81402 0,-0.45317 0.0184,-0.57675 0.12099,-0.81402 0.15433,-0.35679 0.45649,-0.70057 0.77011,-0.87614 L 1.156084,13.58187 h 2.94132 2.94132 l 0.24717,0.13793 c 0.56907,0.31758 0.91453,0.95702 0.91453,1.69278 0,0.95998 -0.56137,1.69546 -1.41557,1.85461 -0.34265,0.0638 -5.07896,0.0616 -5.41272,-0.003 z m 10.59851,-0.10846 c -0.44401,-0.1827 -0.77767,-0.5309 -0.97022,-1.01251 -0.14539,-0.36366 -0.14401,-1.10767 0.003,-1.47499 0.14809,-0.37066 0.47236,-0.74852 0.79895,-0.93099 l 0.27861,-0.15581 h 5.36359 5.36358 l 0.23114,0.12153 c 0.32777,0.17233 0.65863,0.54095 0.81759,0.91088 0.1163,0.27064 0.13637,0.38772 0.13637,0.7954 0,0.40768 -0.0201,0.52476 -0.13637,0.7954 -0.15902,0.37007 -0.48493,0.73323 -0.81541,0.9086 l -0.23332,0.12382 -5.28943,0.0126 c -5.08031,0.012 -5.29966,0.008 -5.54808,-0.0939 z M 1.365264,10.51466 C 0.58521403,10.36538 0.04042403,9.6643899 0.00235403,8.7609799 c -0.0413,-0.97884 0.46373,-1.72495 1.30466997,-1.92762 0.51199,-0.12339 10.01217,-0.12339 10.52415,0 0.84094,0.20267 1.34593,0.94878 1.30468,1.92762 -0.0392,0.92878 -0.57919,1.6030101 -1.4076,1.7573601 -0.35152,0.0655 -10.01948,0.0621 -10.36299,-0.004 z m 15.53704,-0.11165 c -0.69772,-0.2878 -1.13536,-1.0527301 -1.07684,-1.8821701 0.0465,-0.65924 0.3941,-1.23804 0.91997,-1.53193 l 0.27895,-0.1559 h 2.89189 2.89188 l 0.27895,0.1559 c 0.3258,0.18207 0.64976,0.55897 0.80017,0.93091 0.1503,0.3717 0.1503,1.11031 0,1.48201 -0.15041,0.37194 -0.47437,0.7488401 -0.80017,0.9309101 l -0.27895,0.1559 -2.81773,0.0129 c -2.70144,0.0124 -2.8289,0.008 -3.08812,-0.0986 z M 1.379124,3.7598699 c -0.54523997,-0.10276 -1.00065997,-0.48277 -1.23902997,-1.03388 -0.10262,-0.23726 -0.12099,-0.36085 -0.12099,-0.81402 0,-0.45317 0.0184,-0.57676 0.12099,-0.81402 0.24194,-0.55934995 0.70245,-0.93776995 1.26985997,-1.04348995 0.39022,-0.0727 14.87147,-0.0727 15.26169,0 0.56596,0.10545 1.0045,0.45572 1.24409,0.99368995 0.1321,0.29662 0.14676,0.38291 0.14676,0.86382 0,0.45317 -0.0184,0.57676 -0.12099,0.81402 -0.24706,0.57119 -0.69224,0.93026 -1.28787,1.03877 -0.40649,0.074 -14.88024,0.0694 -15.27451,-0.005 z"
         id="path1" />
   </g>
</svg>