<svg xmlns="http://www.w3.org/2000/svg" xml:space="preserve" width="28" height="28"><path d="M118.147 24.542 100.865 7.261c-14.302 5.559-32.461 14.922-47.679 30.14a232.209 232.209 0 0 0-7.042 7.351c-6.99 7.583-13.064 15.179-18.03 22.389l30.153 30.153c9.544-6.577 19.745-15.076 29.74-25.071 15.218-15.219 24.582-33.378 30.14-47.681zM82.204 43.204c-5.223-5.223-5.236-13.696-.013-18.919 5.223-5.223 13.709-5.223 18.932 0 5.223 5.223 5.21 13.696-.013 18.92-5.223 5.224-13.683 5.222-18.906-.001zM125.408 0s-7.686 1.315-18.881 5.184l13.696 13.696C124.092 7.686 125.408 0 125.408 0ZM98.743 40.834a10.018 10.018 0 0 1-14.172 0c-3.915-3.915-3.925-10.267-.01-14.182 3.915-3.915 10.276-3.915 14.192 0 3.916 3.915 3.906 10.266-.01 14.182zM2.592 67.205l29.456-29.456 11.762 4.669c-6.99 7.583-13.064 15.179-18.03 22.389Zm57.967 32.379c7.209-4.965 14.805-11.04 22.389-18.03l4.669 11.762-29.457 29.457ZM24.491 128l-3.869-3.869L50.5 94.253l3.869 3.869ZM7.725 111.234l-3.869-3.869 29.878-29.878 3.869 3.869zm20.419-4.943-3.869-3.869 17.196-17.196 3.869 3.869zM13.958 92.105l-3.869-3.869L27.285 71.04l3.869 3.869z" style="fill:#262626" transform="matrix(.20931 0 0 .20931 .84 .61)"/></svg>