<svg version="1.1" xmlns="http://www.w3.org/2000/svg" xmlns:xlink="http://www.w3.org/1999/xlink" viewBox="0 0 33.0586 32.2702">
 <g>
  <path d="M16.3477 30.3441C16.7344 30.3441 17.1211 30.3323 17.5078 30.2972L18.293 31.7738C18.4922 32.1488 18.7852 32.2894 19.1953 32.2308C19.6055 32.1605 19.8164 31.9144 19.875 31.5042L20.1211 29.8519C20.8711 29.6409 21.5859 29.3714 22.2891 29.055L23.5195 30.1683C23.8242 30.4613 24.1758 30.473 24.5273 30.2855C24.8906 30.0863 25.0195 29.7698 24.9258 29.3597L24.5742 27.7191C25.207 27.2855 25.793 26.7816 26.3438 26.2542L27.8906 26.8753C28.2891 27.0277 28.6055 26.9339 28.8867 26.6292C29.1562 26.3245 29.168 25.9847 28.9453 25.6214L28.0547 24.2034C28.4883 23.5706 28.875 22.9144 29.2031 22.223L30.8672 22.2816C31.2891 22.2933 31.5703 22.1058 31.7109 21.7073C31.8633 21.3323 31.7695 21.0042 31.4414 20.7464L30.1055 19.7269C30.3047 18.9886 30.4453 18.2386 30.5156 17.4534L32.0977 16.9378C32.5078 16.8089 32.707 16.5394 32.707 16.1292C32.707 15.7191 32.5078 15.4378 32.0977 15.3089L30.5156 14.805C30.4453 14.0198 30.3047 13.2581 30.1055 12.5198L31.4297 11.5003C31.7695 11.2425 31.8398 10.9261 31.7227 10.5277C31.5703 10.1292 31.2773 9.96516 30.8672 9.97688L29.2031 10.0238C28.875 9.33235 28.4883 8.66438 28.0547 8.03157L28.9336 6.62532C29.168 6.27375 29.1211 5.93391 28.8867 5.6175C28.6055 5.28938 28.2656 5.23078 27.9023 5.37141L26.3438 6.00422C25.793 5.44172 25.1953 4.96125 24.5742 4.51594L24.9258 2.89875C25.0078 2.47688 24.8789 2.17219 24.5391 1.96125C24.1641 1.76203 23.8242 1.80891 23.5312 2.07844L22.2773 3.19172C21.5859 2.8636 20.8594 2.6175 20.1094 2.40657L19.875 0.754222C19.8164 0.332347 19.582 0.109691 19.1953 0.015941C18.7852-0.0543715 18.4805 0.109691 18.293 0.472972L17.4961 1.94953C17.1211 1.9261 16.7344 1.90266 16.3477 1.90266C15.9609 1.90266 15.5859 1.9261 15.1992 1.94953L14.4141 0.472972C14.2148 0.0979723 13.9102-0.030934 13.5117 0.015941C13.1016 0.0862535 12.8789 0.344066 12.8203 0.742504L12.5742 2.40657C11.8242 2.6175 11.1094 2.88703 10.4062 3.20344L9.1875 2.07844C8.87109 1.79719 8.53125 1.77375 8.16797 1.96125C7.81641 2.17219 7.6875 2.4886 7.76953 2.88703L8.12109 4.53938C7.48828 4.97297 6.90234 5.46516 6.36328 6.00422L4.81641 5.37141C4.42969 5.21907 4.08984 5.31282 3.82031 5.6175C3.55078 5.93391 3.53906 6.27375 3.76172 6.62532L4.65234 8.04328C4.20703 8.6761 3.83203 9.34407 3.49219 10.0355L1.83984 9.96516C1.40625 9.95344 1.125 10.1527 0.984375 10.5394C0.84375 10.9261 0.949219 11.2425 1.27734 11.5003L2.60156 12.5316C2.39062 13.2698 2.26172 14.0198 2.19141 14.805L0.597656 15.3089C0.199219 15.4378 0 15.7191 0 16.1292C0 16.5394 0.199219 16.8089 0.597656 16.9378L2.19141 17.4534C2.26172 18.2386 2.39062 18.9886 2.60156 19.7269L1.27734 20.7581C0.949219 21.0159 0.867188 21.3323 0.984375 21.7191C1.13672 22.1175 1.40625 22.2816 1.82812 22.2698L3.49219 22.223C3.83203 22.9261 4.20703 23.5823 4.65234 24.2152L3.76172 25.6214C3.53906 25.9847 3.57422 26.3245 3.82031 26.6409C4.10156 26.9573 4.42969 27.0277 4.80469 26.8753L6.36328 26.2425C6.90234 26.7933 7.5 27.2855 8.12109 27.7308L7.78125 29.3597C7.69922 29.7816 7.82812 30.0863 8.16797 30.2972C8.54297 30.4964 8.87109 30.4613 9.17578 30.18L10.4297 29.055C11.1211 29.3831 11.8359 29.6409 12.5859 29.8519L12.8203 31.5042C12.8789 31.9144 13.1133 32.1488 13.5117 32.2308C13.9219 32.3011 14.2148 32.1488 14.4141 31.7855L15.1992 30.2972C15.5859 30.3323 15.9609 30.3441 16.3477 30.3441ZM16.3477 28.2113C9.67969 28.2113 4.26562 22.7972 4.26562 16.1292C4.26562 9.44953 9.67969 4.03547 16.3477 4.03547C23.0273 4.03547 28.4414 9.44953 28.4414 16.1292C28.4414 22.7972 23.0273 28.2113 16.3477 28.2113ZM13.9102 13.8323L15.4688 12.8714L10.3711 4.1175L8.75391 5.01985ZM19.582 16.9964L29.7305 16.9964L29.7305 15.18L19.582 15.18ZM15.5273 19.4105L13.9922 18.4261L8.64844 27.1917L10.2422 28.1292ZM16.3711 19.8792C18.4453 19.8792 20.1211 18.2034 20.1211 16.1292C20.1211 14.055 18.4453 12.3675 16.3711 12.3675C14.2969 12.3675 12.6094 14.055 12.6094 16.1292C12.6094 18.2034 14.2969 19.8792 16.3711 19.8792ZM16.3711 17.9339C15.3633 17.9339 14.5664 17.1253 14.5664 16.1292C14.5664 15.1331 15.3633 14.3245 16.3711 14.3245C17.3672 14.3245 18.1758 15.1331 18.1758 16.1292C18.1758 17.1253 17.3672 17.9339 16.3711 17.9339Z" fill="black" fill-opacity="0.85"/>
 </g>
</svg>
