<svg xmlns="http://www.w3.org/2000/svg" width="24" height="24" data-name="Layer 1" viewBox="0 0 24 24"><path fill-rule="evenodd" d="M15.08.681a7.6 7.6 0 0 0-2.62.756 8.16 8.16 0 0 0-3.04 2.489 10 10 0 0 0-.327.449c-.03.054-.09.05-.534-.041-.405-.083-.565-.098-.846-.079-.509.035-.756.14-1.077.461-.319.32-.462.603-.63 1.25-.205.791-.505 1.266-1.097 1.738-.535.426-1.391.804-2.391 1.056a6 6 0 0 0-.697.218C1.305 9.206.804 9.621.54 10.04c-.268.425-.471 1.222-.472 1.86-.002.694.175 1.167.732 1.956.181.255.343.474.361.485.018.01.044-.057.059-.151.159-.988.344-1.699.463-1.772.019-.012.061.041.093.118s.135.223.229.324c.308.335.622.47 1.483.639l.618.122c.121.026.099-.07-.053-.231a7.5 7.5 0 0 1-.602-.81c-.047-.09-.109-.42-.079-.42.011 0 .114.063.228.14.254.171.558.264.867.265.214 0 1.256-.117 1.286-.146.007-.006-.204-.176-.47-.377-.381-.287-.483-.385-.483-.46 0-.209.02-.214.371-.093.409.142.651.13 1.011-.047.394-.194.562-.42.842-1.137.042-.108.12-.225.174-.26.094-.062.097-.062.066.015a1.6 1.6 0 0 0-.052.32c-.032.389.07.724.451 1.483.433.861.452.973.358 2.057l-.099 1.145c-.036.419-.11.633-.232.671-.371.116-1.028.107-2.35-.033a8 8 0 0 0-.528-.048c-.026.025 1.06 1.249 1.31 1.477.377.344.918.717 1.29.887.345.159 1.126.381 1.339.381a1 1 0 0 0 .36-.103c.255-.127.438-.366.647-.846.085-.193.274-.612.42-.931.263-.572 1.344-3.243 1.726-4.265l.196-.525.265-.003c.51-.005 1.04-.258 1.509-.721.493-.487.809-1.051 1.003-1.791.054-.206.081-.214.712-.214 1.311-.002 2.498.498 3.006 1.264.62.937.816 2.784.479 4.535a8.8 8.8 0 0 1-.66 1.94c-.52 1.036-1.085 1.667-2.092 2.334-1.287.854-2.641 1.389-4.026 1.591-.592.086-2.044.099-2.656.023-.692-.086-1.557-.278-2.477-.549-.769-.227-4.144-1.352-4.723-1.574-.152-.059-.343-.193-.616-.435-.672-.594-.672-.594-.394-.19 1.781 2.591 4.176 4.494 6.463 5.136.843.237 1.071.264 2.227.264 1.146 0 1.616-.039 2.717-.223 2.429-.406 5.002-1.397 6.16-2.373 1.698-1.429 3.213-3.023 3.675-3.864.066-.121.196-.472.287-.78.092-.308.346-1.141.565-1.852l.399-1.292-.116-.368c-.111-.352-.114-.385-.078-.768.047-.507.011-1.699-.07-2.321a12.4 12.4 0 0 0-1.613-4.732l-.28-.472-.433.053a5 5 0 0 1-.553.043l-.12-.011.148-.113a1.7 1.7 0 0 1 .4-.201c.139-.049.258-.106.265-.127.014-.042-.373-.571-.621-.849-.151-.169-.155-.171-.527-.211-.487-.053-1.73-.052-2.165.002a14.2 14.2 0 0 0-3.2.807c-.359.142-1.042.48-1.207.597-.112.08-.187.082-.138.004.026-.042.606-.449.64-.449.012 0 .011.03-.004.068-.022.058-.006.055.112-.016.164-.1 1.11-.575 1.337-.671a8.6 8.6 0 0 1 4.558-.542c.13.022.242.034.248.028s-.15-.172-.348-.369l-.36-.358h-.949c-.96.001-1.431.047-2.069.205l-.32.078c-.199.048.318-.193.644-.3.465-.152.878-.203 1.655-.204.342 0 .644-.015.673-.033q.15-.094-.892-.496c-.778-.3-1.123-.402-1.66-.49a8.8 8.8 0 0 0-1.8-.059M7.842 6.577l.013.438-.608.25c-.334.137-.607.243-.607.234s.089-.132.197-.275a6 6 0 0 0 .343-.509c.158-.27.461-.955.546-1.238L7.78 5.3l.025.42c.014.231.031.617.037.857m-5.174 3.569c-.028.028-.743.1-.859.086-.083-.009.002-.059.372-.22l.479-.208.013.162a.6.6 0 0 1-.005.18m16.959 2.262q-.02.046-.024-.025c-.002-.042.008-.065.021-.052s.015.048.003.077m.039.322c-.011.028-.02.005-.02-.05s.009-.077.02-.05a.14.14 0 0 1 0 .1m-13.506.081c-.144.071-.251.31-.218.485.072.383.507.475.678.145.12-.234.043-.541-.159-.633-.131-.06-.176-.059-.301.003m.287.175c.146.132.054.534-.123.534-.117 0-.222-.151-.222-.318 0-.256.178-.367.345-.216m13.262.403c-.008.083-.016.025-.016-.129s.007-.222.016-.151.009.197 0 .28m-14.678.383c-.079.035-.1.063-.074.104a.084.084 0 0 0 .097.032c.054-.021.065.029.075.343.009.313.021.37.081.381.063.013.07-.03.07-.449 0-.509-.006-.519-.249-.411m14.677.218c-.01.038-.019.007-.019-.07s.009-.108.019-.07a.3.3 0 0 1 0 .14m-15.69.181c-.136.117-.177.398-.084.577.086.166.266.238.428.171.373-.154.273-.839-.122-.839a.4.4 0 0 0-.222.091m-1.067.017c-.185.204-.177.509.017.672.13.11.218.123.366.056.208-.095.274-.458.121-.664-.106-.143-.399-.18-.504-.064m.393.195c.063.151.046.272-.055.387-.081.093-.114.089-.231-.028-.173-.173-.09-.502.126-.502.077 0 .114.033.16.143m1.055-.066c.099.187.022.483-.127.483-.133 0-.232-.115-.232-.269 0-.2.063-.291.2-.291.075 0 .132.028.159.077m-1.442 1c-.226.226-.128.679.161.742.18.04.349-.068.407-.259.131-.437-.272-.779-.568-.483m1.095-.057c-.286.2-.157.779.176.788.214.007.354-.117.372-.328.017-.201-.002-.276-.104-.397a.32.32 0 0 0-.444-.063m-3.201.021c-.112.045-.081.174.034.137.069-.022.075.002.075.319 0 .316.006.343.08.343.075 0 .08-.027.08-.42 0-.41-.002-.42-.09-.417a.6.6 0 0 0-.179.038m.995.061a.5.5 0 0 0-.086.478c.122.368.572.339.675-.045.043-.158-.013-.381-.117-.465-.134-.108-.375-.092-.472.032m2.5.037c.18.126.119.541-.079.541-.117 0-.178-.067-.211-.229-.024-.12.033-.283.12-.34.061-.041.075-.039.17.028m-2.129.044c.038.038.063.132.063.237 0 .313-.22.408-.354.153-.141-.269.096-.586.291-.39m1.121.026c.087.125.079.334-.018.431-.044.044-.098.08-.12.08-.156 0-.258-.336-.159-.523.057-.105.22-.098.297.012m-.358.968a.465.465 0 0 0 .024.681c.14.117.197.124.352.044.147-.076.22-.258.192-.473-.043-.315-.363-.458-.568-.252m-2.11-.029c-.097.025-.088.132.01.132.074 0 .08.027.08.34s.006.34.08.34c.075 0 .08-.027.08-.42 0-.41-.002-.42-.09-.415a1 1 0 0 0-.16.023m1.14-.002c-.087.035-.059.146.03.122.076-.019.08-.001.08.336 0 .329.006.356.08.356.075 0 .08-.027.08-.42v-.42l-.11.003a.6.6 0 0 0-.16.023m1.349.171a.5.5 0 0 1 .041.203c0 .177-.066.28-.179.28-.117 0-.221-.137-.221-.292q0-.267.2-.268c.075 0 .132.028.159.077m-1.482.946c-.078.083-.097.146-.097.317 0 .274.118.42.34.42.202 0 .326-.138.35-.391.016-.166.004-.21-.089-.321-.142-.169-.359-.179-.504-.025m.381.106c.13.186.04.511-.142.511-.097 0-.196-.151-.196-.3 0-.151.099-.3.2-.3.042 0 .103.04.138.089"/></svg>