<svg xmlns="http://www.w3.org/2000/svg" width="27" height="32" fill="black"><path d="M12.127 2.887a10.762 10.762 0 0 0-3.376 1.002 10.536 10.536 0 0 0-5.784 7.676c-.165.946-.182 1.769-.167 8.28l.014 6.277.101.36c.299 1.057.979 1.885 1.922 2.34.551.265.926.352 1.508.347.797-.005 1.39-.205 2.126-.714.506-.351.85-.469 1.365-.471.575-.003.831.09 1.481.536.434.299.716.429 1.205.556a3.796 3.796 0 0 0 1.616.017c.411-.099 1.017-.376 1.319-.604.667-.503 1.361-.645 2.094-.427.126.037.417.197.648.354.541.369.786.492 1.272.634.999.292 2.184.066 3.019-.575.512-.394.968-1.001 1.176-1.565.262-.711.245-.287.263-6.93.016-6.182-.005-7.414-.147-8.28a10.67 10.67 0 0 0-3.847-6.586 10.78 10.78 0 0 0-5.409-2.232c-.515-.055-1.885-.053-2.399.005m-4.764 7.305c.17.086 1.16.649 2.2 1.252 1.565.907 1.914 1.127 2.032 1.282a1.026 1.026 0 0 1-.092 1.374c-.125.122-.885.585-2.169 1.322-1.087.623-2.052 1.165-2.144 1.203-.338.141-.774.066-1.066-.185-.473-.404-.493-1.159-.043-1.572.083-.076.673-.439 1.31-.805.638-.367 1.159-.681 1.159-.698 0-.018-.508-.324-1.128-.68-.62-.356-1.21-.717-1.311-.802-.478-.405-.474-1.184.009-1.589.366-.308.771-.341 1.243-.102m13.129 2.157a.97.97 0 0 1 .631.529c.273.549.053 1.184-.508 1.464-.151.075-.361.08-3.02.08-2.844 0-2.858 0-3.038-.097-.735-.397-.819-1.351-.161-1.823.091-.066.236-.14.321-.164.094-.027 1.221-.046 2.86-.049 2.211-.003 2.742.008 2.915.06" fill-rule="evenodd"/></svg>
