<svg xmlns="http://www.w3.org/2000/svg" width="27" height="32"><path d="M11.678 0.294 C 10.305 0.511,9.018 0.915,7.853 1.496 C 4.245 3.293,1.755 6.622,1.040 10.599 C 0.844 11.692,0.835 12.150,0.846 20.281 L 0.856 27.984 0.970 28.376 C 1.218 29.232,1.589 29.849,2.219 30.448 C 3.119 31.306,4.156 31.673,5.424 31.584 C 6.150 31.533,6.721 31.322,7.531 30.806 C 8.298 30.317,8.649 30.196,9.302 30.195 C 9.878 30.195,10.221 30.325,11.018 30.848 C 11.736 31.317,12.249 31.505,13.039 31.587 C 14.056 31.691,15.053 31.406,16.053 30.725 C 16.234 30.601,16.529 30.436,16.708 30.359 C 17.021 30.223,17.055 30.217,17.662 30.217 C 18.276 30.217,18.300 30.221,18.592 30.359 C 18.757 30.438,19.121 30.649,19.402 30.830 C 19.683 31.010,20.047 31.215,20.211 31.284 C 21.287 31.736,22.524 31.710,23.601 31.213 C 24.820 30.650,25.770 29.375,25.970 28.035 C 26.005 27.802,26.027 25.543,26.042 20.729 C 26.064 13.629,26.038 11.847,25.899 10.928 C 25.572 8.762,24.618 6.587,23.237 4.860 C 22.796 4.308,21.696 3.226,21.172 2.829 C 19.492 1.553,17.715 0.769,15.570 0.355 C 15.111 0.266,14.884 0.253,13.567 0.242 C 12.453 0.233,11.981 0.246,11.678 0.294 M6.187 8.927 C 6.440 9.043,9.107 10.568,10.201 11.221 C 11.128 11.775,11.313 11.920,11.459 12.209 C 11.702 12.688,11.570 13.355,11.169 13.673 C 10.909 13.878,9.972 14.441,8.243 15.429 C 5.966 16.731,5.993 16.718,5.623 16.715 C 4.662 16.707,4.071 15.687,4.534 14.837 C 4.683 14.563,4.876 14.429,6.412 13.531 C 7.031 13.170,7.576 12.846,7.623 12.812 C 7.717 12.743,7.738 12.757,5.715 11.566 C 4.787 11.020,4.542 10.800,4.429 10.412 C 4.225 9.710,4.627 8.999,5.332 8.815 C 5.541 8.760,5.938 8.812,6.187 8.927 M22.061 11.574 C 22.357 11.708,22.538 11.880,22.679 12.161 C 22.951 12.707,22.832 13.324,22.377 13.724 C 22.265 13.824,22.089 13.929,21.987 13.958 C 21.853 13.997,20.889 14.012,18.473 14.014 L 15.143 14.018 14.887 13.892 C 14.420 13.663,14.161 13.249,14.162 12.736 C 14.163 12.388,14.242 12.181,14.467 11.931 C 14.756 11.612,14.905 11.546,15.412 11.515 C 15.660 11.500,17.219 11.490,18.877 11.492 C 21.611 11.497,21.908 11.505,22.061 11.574 " stroke="none" fill-rule="evenodd" fill="black"></path></svg>