<svg width="27" height="32" fill="none" xmlns="http://www.w3.org/2000/svg"><path d="M12.307.043c-2.432.22-4.496.953-6.48 2.301A13.63 13.63 0 0 0 1.914 6.48a13.4 13.4 0 0 0-1.848 5.557c-.061.585-.068 1.601-.055 7.583l.014 6.907.119.478c.324 1.305.898 2.303 1.851 3.222.9.866 1.904 1.392 3.18 1.664.535.114 1.8.112 2.34-.004a7.106 7.106 0 0 0 2.124-.822l.211-.126.171.102c.66.392 1.331.657 2.089.826.619.138 1.832.148 2.425.021a7.522 7.522 0 0 0 2.174-.845l.172-.104.166.103c.36.223 1.095.549 1.531.679a6.283 6.283 0 0 0 4.642-.401c1.757-.883 2.928-2.428 3.384-4.463l.103-.465v-7.11c0-7.076 0-7.112-.097-7.718-.412-2.568-1.288-4.605-2.808-6.529-.454-.575-1.493-1.617-2.067-2.073-1.999-1.589-4.16-2.507-6.71-2.852-.604-.081-2.141-.119-2.718-.067m2.219 2.839c2.276.247 4.484 1.285 6.167 2.897 1.359 1.303 2.422 3.131 2.884 4.958.356 1.412.372 1.813.352 9.243-.018 6.643-.001 6.219-.263 6.93-.208.564-.664 1.171-1.176 1.565-.835.642-2.024.869-3.019.576-.487-.144-.732-.266-1.272-.635-.231-.157-.522-.317-.648-.354-.733-.218-1.427-.076-2.094.427-.304.23-.908.506-1.326.605a3.702 3.702 0 0 1-1.609-.018c-.493-.128-.771-.257-1.223-.567-.495-.341-.778-.466-1.157-.514-.611-.076-1.099.057-1.667.456-.726.51-1.321.713-2.108.718-.605.005-.972-.078-1.53-.347-.943-.455-1.623-1.283-1.922-2.34l-.101-.36-.014-6.277c-.015-6.511.002-7.334.167-8.28a10.536 10.536 0 0 1 5.784-7.676 10.762 10.762 0 0 1 3.376-1.002c.514-.058 1.884-.06 2.399-.005m-8.085 7.215c-.718.26-.92 1.249-.36 1.766.083.077.673.439 1.31.805.638.366 1.159.68 1.159.697 0 .018-.329.221-.731.452-1.508.866-1.698.987-1.832 1.173-.348.48-.226 1.181.26 1.503.236.156.607.228.841.164.195-.054 4.083-2.274 4.342-2.479.476-.378.5-1.211.045-1.594-.135-.113-3.52-2.084-4.086-2.378-.358-.186-.645-.219-.948-.109m8.276 2.241a1.229 1.229 0 0 0-.583.423c-.359.524-.165 1.251.417 1.562l.186.099h2.858c2.659 0 2.869-.005 3.02-.08.561-.28.781-.915.508-1.464a1.2 1.2 0 0 0-.268-.351c-.315-.24-.353-.242-3.278-.238-1.639.003-2.766.022-2.86.049" fill="#000000" fill-rule="evenodd"/></svg>
