<svg xmlns="http://www.w3.org/2000/svg" xml:space="preserve" id="Camada_1" width="28" height="28" version="1.1" viewBox="0 0 1.12 1.12"><style id="style1" type="text/css">.st0{fill:#030708}</style><g id="g5" transform="matrix(.0407 0 0 .0407 -.073 -.116)"><path id="path1" d="M17.3 24.5c-4.7 0-7.7-1.1-9.6-2.6.4-.1.8-.3 1.2-.6.8-.8 1-1.9.9-2.9 0-.2-.1-.4-.1-.6.2 0 .4.1.6.1.9 0 1.7-.4 2.3-1 .6 1.1 1.8 1.9 3.2 1.9 1.7 0 3.2-1.2 3.5-2.9 0-.2.1-.5.1-.7 0-.4-.1-.8-.2-1.2-.5-1.4-1.8-2.4-3.4-2.4-.9 0-1.8.3-2.4.9-.2.2-.4.4-.6.7-.2-.2-.4-.5-.6-.6-.5-.4-1.2-.7-1.9-.7-1.5 0-2.8 1.1-3 2.6-.3-.2-.5-.4-.8-.5.2-.8.7-1.6 1.3-2.1V8.1c0-.3.3-.4.4-.1v.1c.4.9.9 2.1 2 3 .9 0 1.8.3 2.4.9.8-.7 1.9-1.2 3-1.2 1.2 0 2.3.5 3.1 1.2 3.8-1.1 5.8-3.6 6.8-5.6.1-.3.7-.2.7.1.6 5.9.3 12-2.5 15.4-1-.7-2-1.2-2.7-1.6-.1 0-.1-.1-.2-.1V20c-.2-.6-.7-1.2-1.4-1.4-.2-.1-.5 0-.5.3-.1.2 0 .5.3.5h.1c-1.7 1.1-3.7 1.6-5.8 1.5H13c-.2 0-.4.2-.5.4 0 .2.2.4.4.5h.5c1.8.1 3.7-.2 5.3-1 .1.1.2.3.3.4.2.2.5.5.9.8.5.5 1.2 1 2 1.6-1.2.5-2.7.9-4.6.9z" class="st0"/><path id="path2" d="M22.5 23c-1.2-.9-2.2-1.7-2.8-2.2l-.2-.2c-.1-.2-.2-.3-.3-.4v-.1s.1-.1.2 0c.1 0 .2.1.3.1.1 0 .1.1.2.1.7.3 2 1 3.3 1.9.2.1.4.3.6.4 1.1.7 2 1.5 2.7 2 1.2-1.3 2.7 2.2 2.7 2.2s-3.8.4-3.1-1.4c-.8-.4-1.8-1.1-2.9-1.8-.2-.2-.5-.4-.7-.6Z" class="st0"/><path id="path3" d="m8.5 20.4-.3.3c-1.1 1-3.2.5-4.7-1.2s-1.9-3.8-.8-4.8c.9-.7 2.3-.6 3.6.2.3.2.7.5 1 .8l.3.3c.4.5.8 1 1 1.5.3.7.4 1.4.4 2-.1.3-.2.6-.5.9zm-3.3-4.2c0 .8-.5 1.4-1.2 1.4s-1.2-.6-1.2-1.4c0-.8.5-1.4 1.2-1.4s1.2.6 1.2 1.4z" style="fill-rule:evenodd;clip-rule:evenodd;fill:#030708"/><path id="path4" d="M10.9 16.8c1 0 1.7-.8 1.7-1.7 0-1-.8-1.7-1.7-1.7h-.4c.4.1.7.5.7 1 0 .6-.5 1-1 1-.4 0-.8-.3-1-.7v.4c0 .9.8 1.7 1.7 1.7z" class="st0"/><path id="path5" d="M16.4 17.6c1.1 0 2-.9 2-2s-.9-2-2-2h-.3c.5.1.9.6.9 1.1 0 .6-.5 1.2-1.2 1.2-.6 0-1.2-.5-1.2-1.2v-.2c-.2.3-.3.7-.3 1.1.1 1.1 1 2 2.1 2z" class="st0"/></g></svg>