<svg xmlns="http://www.w3.org/2000/svg" width="24" height="24"><path fill="#149287" d="M23.138 6.283a.475.475 0 0 0-.625-.273.46.46 0 0 0-.287.43.8.8 0 0 0 .026.17 10.9 10.9 0 0 1 .69 3.845c0 5.54-4.131 10.117-9.476 10.82V16.18a8 8 0 0 0 .952-.248v4.276c4.393-1.07 7.652-5.032 7.652-9.751a10.04 10.04 0 0 0-5.188-8.787.47.47 0 0 0-.652.209.4.4 0 0 0-.052.208.48.48 0 0 0 .248.417 9.089 9.089 0 0 1-1.069 16.412V15.12a1.46 1.46 0 0 0 1.03-1.38c0-.535-.273-1.005-.717-1.252.34-3.272 1.839-2.412 1.839-3.455V8.42c0-1.564-3.624-6.66-5.319-6.778h-.313C10.183 1.759 6.56 6.856 6.56 8.42v.613c0 1.043 1.5.183 1.838 3.455-.45.248-.717.717-.717 1.25 0 .653.45 1.2 1.03 1.382v3.794a9.09 9.09 0 0 1-5.762-8.46c0-3.429 1.89-6.4 4.693-7.952.222-.118.3-.385.195-.626a.46.46 0 0 0-.43-.26.34.34 0 0 0-.222.064 10 10 0 0 0-5.188 8.787c0 4.72 3.26 8.682 7.652 9.75v-4.281c.313.104.626.195.952.248v5.097a10.91 10.91 0 0 1-9.477-10.82 11 11 0 0 1 .692-3.846.467.467 0 0 0-.261-.6.5.5 0 0 0-.183-.039.475.475 0 0 0-.45.313 12 12 0 0 0-.755 4.171c0 6.388 5.045 11.602 11.38 11.85v-6.002c.17.013.482.013.482.013s.313 0 .481-.013v6.01c6.336-.248 11.38-5.462 11.38-11.85a12.3 12.3 0 0 0-.755-4.185ZM14.21 13.05a.96.96 0 0 1 .69-.286c.274 0 .51.104.692.286a.96.96 0 0 1 .286.691.96.96 0 0 1-.286.691.96.96 0 0 1-.691.287.96.96 0 0 1-.691-.287.96.96 0 0 1-.287-.69 1.1 1.1 0 0 1 .287-.692M9.842 14.43a.96.96 0 0 1-.691.287.96.96 0 0 1-.691-.287.96.96 0 0 1-.287-.691c0-.274.104-.509.287-.691a.96.96 0 0 1 .69-.287c.274 0 .51.104.692.287a.96.96 0 0 1 .286.69 1 1 0 0 1-.286.692" style="fill:#000;fill-opacity:1;stroke-width:.642334"/></svg>