<svg height="24" viewBox="0 0 24 24" xmlns="http://www.w3.org/2000/svg"><g transform="matrix(.066923 0 0 .066923 -3.4265 -2.8106)"><path d="m194.04 52.215c-16.382 3.641-32.588 8.713-47.781 16.36 0.348 13.416 1.215 26.27 2.973 39.327-5.9 3.78-12.101 7.025-17.612 11.45-5.6 4.308-11.32 8.429-16.39 13.467-10.129-6.7-20.849-12.997-31.894-18.554-11.905 12.812-23.038 26.641-32.131 42.116 7.147 11.218 14.812 22.493 21.91 31.286v94.975c0.174 1e-3 0.349 6e-3 0.521 0.023l58.225 5.614c3.05 0.295 5.44 2.75 5.652 5.806l1.796 25.702 50.79 3.626 3.498-23.723c0.453-3.076 3.093-5.357 6.204-5.357h61.429c3.109 0 5.748 2.281 6.202 5.357l3.498 23.723 50.792-3.626 1.793-25.702c0.214-3.056 2.603-5.51 5.653-5.806l58.202-5.614c0.172-0.016 0.345-0.022 0.518-0.023v-7.58l0.025-6e-3v-87.389c8.199-10.322 15.962-21.707 21.911-31.286-9.09-15.475-20.228-29.304-32.134-42.116-11.041 5.557-21.766 11.854-31.895 18.554-5.069-5.038-10.778-9.159-16.386-13.467-5.509-4.425-11.719-7.67-17.608-11.45 1.753-13.057 2.622-25.911 2.971-39.327-15.195-7.647-31.4-12.719-47.79-16.36-6.544 10.998-12.528 22.909-17.739 34.552-6.181-1.033-12.389-1.416-18.607-1.49v-0.01c-0.043 0-0.084 0.01-0.121 0.01-0.038 0-0.08-0.01-0.118-0.01v0.01c-6.229 0.074-12.433 0.457-18.615 1.49-5.209-11.643-11.188-23.554-17.742-34.552zm-46.064 138.94c19.38 0 35.089 15.697 35.089 35.071 0 19.387-15.709 35.092-35.089 35.092-19.371 0-35.083-15.705-35.083-35.092 0-19.374 15.712-35.071 35.083-35.071zm165.08 0c19.369 0 35.079 15.697 35.079 35.071 0 19.387-15.71 35.092-35.079 35.092-19.384 0-35.092-15.705-35.092-35.092 0-19.374 15.708-35.071 35.092-35.071zm-82.546 20.523c6.238 0 11.307 4.602 11.307 10.265v32.302c0 5.667-5.069 10.264-11.307 10.264s-11.293-4.597-11.293-10.264v-32.302c0-5.663 5.055-10.265 11.293-10.265z"/></g><g transform="matrix(.071385 0 0 .071385 -3.4265 -2.8106)"><path d="m314.67 281.49-1.69 24.224c-0.204 2.92-2.526 5.244-5.446 5.453l-58.144 4.149c-0.142 0.011-0.283 0.015-0.424 0.015-2.889 0-5.382-2.12-5.809-5.022l-3.334-22.612h-47.442l-3.335 22.612c-0.448 3.044-3.168 5.232-6.233 5.007l-58.143-4.149c-2.92-0.209-5.242-2.533-5.446-5.453l-1.691-24.224-49.083-4.732c0.023 5.275 0.091 11.054 0.091 12.205 0 51.838 65.759 76.754 147.46 77.041h0.201c81.701-0.287 147.44-25.203 147.44-77.041 0-1.172 0.071-6.927 0.095-12.205l-49.065 4.732z"/></g><g transform="matrix(.071385 0 0 .071385 -3.4265 -2.8106)"><path d="m163.7 214.03c0 12.055-9.77 21.826-21.835 21.826-12.059 0-21.835-9.771-21.835-21.826 0-12.056 9.776-21.836 21.835-21.836 12.065 0 21.835 9.78 21.835 21.836"/></g><g transform="matrix(.071385 0 0 .071385 -3.4265 -2.8106)"><path d="m268.5 214.03c0 12.055 9.768 21.826 21.823 21.826 12.068 0 21.836-9.771 21.836-21.826 0-12.056-9.768-21.836-21.836-21.836-12.055 0-21.823 9.78-21.823 21.836"/></g></svg>