<svg xmlns="http://www.w3.org/2000/svg" xml:space="preserve" width="24" height="24"><path d="M7.741 13.05H5.29a.347.347 0 0 0-.347.351v1.751c0 .192.154.35.347.35H7.74v1.166h-3.06v-.002a.904.904 0 0 1-.904-.905v-2.974a.904.904 0 0 1 .905-.901H7.74zM8.626 9.802a.917.917 0 0 1-.918.918H3.774V9.538H7.09c.195 0 .352-.16.352-.354v-3.91a.35.35 0 0 0-.352-.352H5.308a.35.35 0 0 0-.352.353v1.779a.35.35 0 0 0 .352.353h1.425V8.59H4.69a.916.916 0 0 1-.917-.917V4.656a.917.917 0 0 1 .917-.918h3.017a.92.92 0 0 1 .918.918zM20.22 16.666h-1.166V13.05h-.819a.347.347 0 0 0-.347.348v3.267h-1.166V13.05h-.82a.347.347 0 0 0-.347.348v3.27H14.39v-3.882a.903.903 0 0 1 .905-.901h4.926zM20.223 9.802a.917.917 0 0 1-.917.918h-3.935V9.538h3.318c.195 0 .353-.16.353-.354v-3.91a.353.353 0 0 0-.353-.352h-1.783a.35.35 0 0 0-.35.353v1.779c0 .195.157.353.35.353h1.424V8.59h-2.041a.917.917 0 0 1-.918-.917V4.656a.92.92 0 0 1 .918-.918h3.017c.506 0 .917.41.917.918zM13.24 5.278v1.775a.35.35 0 0 1-.35.354h-1.782a.353.353 0 0 1-.352-.354V5.275c0-.195.156-.353.352-.353h1.782c.196 0 .35.158.35.352zm.268-1.54H10.49a.917.917 0 0 0-.917.918v3.017a.916.916 0 0 0 .917.917h3.018a.92.92 0 0 0 .917-.917V4.656a.92.92 0 0 0-.917-.918M12.29 13.401v1.75c0 .192-.154.349-.346.349l-.004-.002v.002h-1.749v-.002l-.004.002a.35.35 0 0 1-.347-.35V13.4c0-.193.155-.35.347-.35h1.757a.347.347 0 0 1 .346.35zm.262-1.515H9.579a.903.903 0 0 0-.905.901v2.974a.904.904 0 0 0 .905.904h2.973a.904.904 0 0 0 .903-.904v-2.974a.904.904 0 0 0-.903-.901" style="fill:#303031;fill-opacity:1;fill-rule:evenodd;stroke:none;stroke-width:.372742"/><path d="M22.088 18.697c0 .3-.121.57-.318.768a1.08 1.08 0 0 1-.767.317H2.994a1.084 1.084 0 0 1-1.085-1.085V1.71a1.08 1.08 0 0 1 .319-.767 1.08 1.08 0 0 1 .766-.318h18.01a1.08 1.08 0 0 1 .766.318 1.08 1.08 0 0 1 .318.766zM22.086.625a1.53 1.53 0 0 0-1.083-.449H2.994a1.53 1.53 0 0 0-1.083.449 1.53 1.53 0 0 0-.45 1.083v16.99c0 .422.173.807.45 1.083a1.53 1.53 0 0 0 1.083.45h18.01a1.53 1.53 0 0 0 1.082-.45 1.53 1.53 0 0 0 .45-1.084V1.71a1.53 1.53 0 0 0-.45-1.084M3.64 23.797a1.9 1.9 0 0 1-.568.082 1.8 1.8 0 0 1-.66-.113 1.45 1.45 0 0 1-.503-.318 1.4 1.4 0 0 1-.32-.49q-.114-.286-.113-.628 0-.348.11-.633a1.4 1.4 0 0 1 .309-.49 1.4 1.4 0 0 1 .49-.316q.286-.112.642-.112a2 2 0 0 1 .334.026q.156.026.286.077a1.3 1.3 0 0 1 .453.28l-.117.186a.12.12 0 0 1-.07.054q-.045.012-.096-.02L3.7 21.31a1 1 0 0 0-.16-.082 1.3 1.3 0 0 0-.222-.066 1.5 1.5 0 0 0-.304-.028 1.2 1.2 0 0 0-.463.084 1 1 0 0 0-.353.239q-.147.156-.225.377a1.5 1.5 0 0 0-.078.496q0 .285.082.511.08.225.232.383t.367.24q.216.082.485.082a1.4 1.4 0 0 0 .375-.047q.084-.022.162-.055a2 2 0 0 0 .16-.075V22.7h-.473a.1.1 0 0 1-.064-.023.08.08 0 0 1-.025-.057v-.233h.932v1.164a1.7 1.7 0 0 1-.488.246M6.136 22.72h1.132l-.476-1.235a1 1 0 0 1-.045-.126l-.046-.155-.044.155a1 1 0 0 1-.045.128zm1.987 1.125h-.317a.13.13 0 0 1-.09-.028.2.2 0 0 1-.05-.07l-.284-.732h-1.36l-.284.733a.15.15 0 0 1-.049.067.14.14 0 0 1-.088.03h-.318l1.213-3.032h.414ZM9.8 23.5h1.313v.345h-1.72v-3.032H9.8zM13.074 22.72h1.132l-.476-1.235a1 1 0 0 1-.046-.126l-.046-.155a3 3 0 0 1-.043.155 1 1 0 0 1-.045.128zm1.987 1.125h-.318a.13.13 0 0 1-.088-.028.2.2 0 0 1-.051-.07l-.284-.732h-1.36l-.284.733a.15.15 0 0 1-.049.067.14.14 0 0 1-.089.03h-.317l1.213-3.032h.414zM17.198 22.288l-1.001-1.475h.408q.045 0 .066.014a.14.14 0 0 1 .038.043l.791 1.214a.6.6 0 0 1 .045-.097l.746-1.109a.2.2 0 0 1 .04-.047.1.1 0 0 1 .056-.018h.391l-1.005 1.455 1.04 1.577h-.407a.1.1 0 0 1-.073-.025.2.2 0 0 1-.044-.053l-.812-1.272a.5.5 0 0 1-.038.084l-.792 1.188a.4.4 0 0 1-.045.053.1.1 0 0 1-.067.025h-.38zM21.41 22.637v1.208H21v-1.208l-1.11-1.824h.359q.054 0 .086.026a.2.2 0 0 1 .056.069l.693 1.178.07.14q.03.063.053.127.023-.064.053-.128.03-.065.068-.139l.692-1.178a.2.2 0 0 1 .053-.066.13.13 0 0 1 .086-.03h.362z" style="fill:#303031;fill-opacity:1;fill-rule:nonzero;stroke:none;stroke-width:.372742"/></svg>