<svg xmlns="http://www.w3.org/2000/svg" width="24" height="24"><path d="M0.000 12.000 L 0.000 24.000 12.000 24.000 L 24.000 24.000 24.000 12.000 L 24.000 0.000 12.000 0.000 L 0.000 0.000 0.000 12.000 M7.635 2.982 C 8.546 3.116,9.402 3.399,9.988 3.760 C 10.310 3.958,10.760 4.334,10.760 4.404 C 10.760 4.424,10.460 4.796,10.094 5.230 C 9.727 5.665,9.422 6.026,9.416 6.034 C 9.410 6.042,9.264 5.946,9.092 5.822 C 8.744 5.568,7.996 5.190,7.720 5.127 C 7.128 4.993,6.311 5.042,5.897 5.235 C 4.967 5.671,4.213 6.646,4.018 7.665 C 3.846 8.562,4.030 9.304,4.632 10.140 C 5.116 10.812,5.884 11.119,7.080 11.119 C 7.884 11.119,8.335 10.995,8.699 10.676 L 8.840 10.552 8.840 9.896 L 8.840 9.240 7.840 9.240 L 6.840 9.240 6.840 8.320 L 6.840 7.400 8.920 7.400 L 11.000 7.400 11.000 9.431 L 11.000 11.462 10.730 11.728 C 9.228 13.206,7.035 13.762,5.144 13.142 C 3.103 12.474,1.728 10.744,1.517 8.580 C 1.464 8.041,1.512 7.466,1.660 6.877 C 2.035 5.378,3.027 4.150,4.433 3.443 C 4.786 3.265,5.445 3.051,5.844 2.984 C 6.302 2.908,7.120 2.907,7.635 2.982 M18.400 3.136 C 19.606 3.413,20.637 4.064,21.377 5.016 C 23.020 7.128,22.840 10.069,20.955 11.955 C 19.070 13.839,16.127 14.019,14.020 12.380 C 12.360 11.089,11.636 8.921,12.185 6.884 C 12.735 4.839,14.459 3.333,16.580 3.043 C 17.039 2.980,17.918 3.025,18.400 3.136 M16.860 5.283 C 15.814 5.409,14.832 6.173,14.468 7.146 C 14.293 7.612,14.264 7.764,14.264 8.240 C 14.264 8.595,14.284 8.771,14.352 9.012 C 14.640 10.023,15.375 10.794,16.353 11.110 C 16.777 11.246,17.427 11.277,17.864 11.182 C 18.269 11.093,18.834 10.824,19.139 10.574 C 19.644 10.160,20.040 9.510,20.182 8.864 C 20.279 8.419,20.246 7.777,20.104 7.340 C 19.658 5.966,18.307 5.110,16.860 5.283 M11.320 20.260 L 11.320 21.000 6.800 21.000 L 2.280 21.000 2.280 20.260 L 2.280 19.520 6.800 19.520 L 11.320 19.520 11.320 20.260"></path></svg>