<svg xmlns="http://www.w3.org/2000/svg" width="24" height="24" fill="none"><path fill="#000" d="M0 0h24v24H0z"/><path fill="#fff" d="M2.3 19.5h9V21h-9z"/><circle cx="17.25" cy="8.25" r="5.25" fill="#fff"/><circle cx="17.25" cy="8.25" r="3" fill="#000"/><path fill="#fff" d="M11 7.4v4.05a5.86 5.86 0 0 1-3.28 1.86 5.25 5.25 0 1 1-.26-10.36c1.21.16 2.5.55 3.33 1.45L9.4 6.05s-.52-.42-.9-.6c-.54-.27-.8-.4-1.5-.4s-.98.06-1.5.4c-.47.3-.7.57-1 1.04-.32.52-.47.86-.53 1.46-.07.8.07 1.34.53 2 .3.43.37.6 1 .9.3.14 1.01.28 1.35.28.8 0 1.41 0 2-.58v-1.3h-2V7.4H11Z"/></svg>