<svg xmlns="http://www.w3.org/2000/svg" width="24" height="24"><path d="M37.334 24.724c-1.546 0-3.01.322-4.366.859 3.039-.517 6.031.963 8.995 3.686 2.38 1.762 5.35 5.988 6.98 4.607-1.273-5.253-5.987-9.152-11.61-9.152m-6.19 1.739q-.144.085-.282.176.141-.09.287-.174zm.411 1.757a8.7 8.7 0 0 0-3.066.465 12 12 0 0 0-2.91 5.933c2.2-2.507 5.94-.852 7.795.037 10.377 6.23 14.272 7.014 15.459 5.3a12 12 0 0 0 .44-3.645q0 .12-.002.238c-1.418 1.9-3.899-.873-6.027-2.097-3.768-2.726-7.41-6.091-11.689-6.23m-5.993 6.484c-.073.43-.129.866-.155 1.31q.045-.588.155-1.31m1.492 4.718c-.577.009-.98.18-1.214.578a12.02 12.02 0 0 0 6.592 7.648c-.019-.043-.487-1.129-.13-1.674.558-.85 2.744-.256 2.744-.256 3.874.644 7.446.597 10.597-.407-.204.204-.412.406-.632.605a12 12 0 0 0 3.063-3.932c-3.95 2.443-10.286-.036-14.613-.952-3.02-.86-5.136-1.628-6.407-1.61m11.16 9.264v.002z" style="fill:#f2f2f2;fill-opacity:1;fill-rule:evenodd;stroke:none;stroke-width:.0518639" transform="translate(-25.387 -24.663)"/></svg>