<svg xmlns="http://www.w3.org/2000/svg" width="50" height="50" viewBox="0 0 50 50"><path d="M10.000 0.724 C 6.010 1.164,2.615 3.775,1.165 7.516 C 1.071 7.759,0.892 8.333,0.769 8.792 L 0.544 9.625 0.518 25.000 C 0.490 41.974,0.467 41.148,1.011 42.792 C 1.567 44.473,2.432 45.839,3.744 47.109 C 5.049 48.372,6.389 49.157,8.208 49.724 L 8.958 49.958 25.208 49.958 L 41.458 49.958 42.208 49.724 C 44.028 49.157,45.368 48.372,46.673 47.109 C 47.984 45.839,48.849 44.473,49.406 42.792 C 49.949 41.148,49.926 41.974,49.898 25.000 L 49.873 9.625 49.648 8.792 C 49.071 6.653,48.085 4.970,46.582 3.556 C 45.168 2.226,43.526 1.357,41.542 0.890 C 40.793 0.714,40.763 0.714,25.542 0.703 C 17.154 0.696,10.160 0.706,10.000 0.724 M41.083 3.198 C 41.948 3.405,43.017 3.836,42.970 3.959 C 42.949 4.013,42.478 4.795,41.924 5.696 L 40.917 7.334 40.917 8.194 L 40.917 9.054 41.813 9.730 C 43.073 10.682,44.914 11.815,46.347 12.522 L 47.570 13.125 47.577 14.235 L 47.583 15.345 47.396 15.286 C 46.967 15.151,45.672 14.556,44.623 14.011 C 43.324 13.337,41.641 12.243,40.768 11.506 C 40.434 11.224,40.127 11.015,40.086 11.040 C 39.919 11.143,36.522 17.107,35.254 19.521 L 34.652 20.667 23.347 20.668 C 12.321 20.670,12.033 20.674,11.684 20.833 C 11.237 21.036,10.959 21.569,11.049 22.051 C 11.130 22.486,11.508 22.878,11.953 22.990 C 12.217 23.056,15.368 23.083,22.870 23.083 C 28.671 23.083,33.417 23.097,33.417 23.115 C 33.417 23.132,33.148 23.722,32.820 24.427 C 32.492 25.132,32.030 26.158,31.794 26.708 L 31.363 27.708 21.577 27.750 C 12.141 27.790,11.783 27.797,11.558 27.950 C 10.882 28.408,10.910 29.494,11.608 29.920 C 11.869 30.079,12.098 30.083,21.146 30.083 C 27.836 30.083,30.417 30.109,30.417 30.175 C 30.417 30.226,30.308 30.647,30.174 31.113 C 29.761 32.553,29.649 33.171,29.603 34.245 L 29.560 35.283 29.193 35.674 C 28.745 36.154,27.947 36.584,26.955 36.881 C 26.358 37.060,26.025 37.107,25.292 37.115 C 24.185 37.127,23.970 37.044,22.454 36.016 C 21.907 35.644,21.196 35.237,20.875 35.111 C 20.353 34.906,20.186 34.881,19.292 34.881 C 18.397 34.881,18.230 34.906,17.711 35.111 C 17.391 35.237,16.735 35.577,16.252 35.868 C 14.678 36.815,14.014 37.058,12.797 37.135 C 11.813 37.196,11.545 37.285,11.275 37.640 C 11.004 37.995,10.968 38.603,11.197 38.952 C 11.469 39.368,11.802 39.499,12.583 39.499 C 13.981 39.497,15.498 39.043,16.919 38.201 C 19.171 36.867,19.491 36.848,21.119 37.956 C 22.305 38.763,22.743 38.996,23.542 39.248 C 24.677 39.606,26.494 39.547,27.895 39.107 C 28.319 38.974,28.338 38.975,28.520 39.141 C 29.091 39.661,29.769 39.612,30.261 39.017 C 30.369 38.886,30.679 38.331,30.949 37.785 C 31.435 36.801,31.444 36.790,31.907 36.564 C 32.579 36.237,33.247 35.709,34.281 34.687 C 37.279 31.723,41.493 25.947,46.391 18.088 C 47.004 17.105,47.524 16.282,47.546 16.259 C 47.569 16.236,47.577 21.747,47.562 28.505 L 47.537 40.792 47.350 41.500 C 47.091 42.479,46.372 43.904,45.728 44.711 C 44.827 45.842,43.567 46.744,42.184 47.249 C 40.727 47.781,41.647 47.755,24.916 47.730 L 9.708 47.708 9.069 47.526 C 7.532 47.087,6.334 46.407,5.302 45.387 C 4.275 44.371,3.453 42.941,3.067 41.496 L 2.879 40.792 2.851 25.917 C 2.831 15.010,2.849 10.830,2.920 10.250 C 3.375 6.515,6.359 3.526,10.073 3.085 C 10.377 3.049,17.337 3.026,25.542 3.034 C 39.571 3.048,40.496 3.058,41.083 3.198 M11.931 13.665 C 11.567 13.752,11.186 14.125,11.084 14.493 C 10.920 15.087,11.305 15.741,11.922 15.918 C 12.102 15.970,16.171 16.000,22.919 16.000 L 33.631 16.000 33.997 15.813 C 34.838 15.381,34.880 14.268,34.074 13.792 C 33.796 13.627,33.630 13.625,23.000 13.612 C 17.065 13.605,12.083 13.629,11.931 13.665 " stroke="none" fill-rule="evenodd" fill="black"></path></svg>