<svg version="1.1" id="svg1" width="24" height="24" viewBox="0 0 24 24" xmlns="http://www.w3.org/2000/svg">
   <defs id="defs1" />
   <g id="g1">
      <path style="fill:#000000;stroke-width:0.0291403"
         d="m 5.6391775,23.974603 c -3.40495,-0.14654 -5.25092,-1.73393 -5.5514,-4.77375 -0.0943,-0.95398 -0.12309,-12.7668405 -0.034,-13.9303005 0.24342,-3.17719 1.8525,-4.90067997 4.84217,-5.18646997 0.95934,-0.0917 12.5914995,-0.11773 13.8143595,-0.0309 2.98947,0.21226 4.78183,1.71690997 5.15641,4.32871997 0.12939,0.90218 0.13326,1.12465 0.13326,7.6628505 0,8.5097 0.002,8.48753 -1.07469,9.90555 -1.06208,1.39825 -2.24786,1.92096 -4.59386,2.02503 -0.75154,0.0333 -11.9156395,0.0327 -12.6922995,-7.2e-4 z m 3.35264,-4.92486 c 3.4819195,-1.55332 2.5479295,-1.5538 6.0317995,0.003 3.27545,1.46377 3.15962,1.43216 3.63691,0.99233 0.30404,-0.28017 0.27507,0.50088 0.287,-7.73821 0.012,-8.2701905 0.0375,-7.4442805 -0.23904,-7.7467405 -0.29859,-0.32662 0.42303,-0.29487 -6.7013,-0.29487 -7.0720995,0 -6.4097195,-0.0304 -6.7143095,0.30826 -0.26121,0.29046 -0.23794,-0.50499 -0.22625,7.7333505 0.0116,8.16777 -0.0119,7.4334 0.24625,7.70119 0.47363,0.4913 0.36698,0.51908 3.67894,-0.95841 z m 0.15699,-3.55011 c -0.11885,-0.11882 -0.11751,-0.1347 0.1334,-1.58537 0.12022,-0.69508 0.21885,-1.31485 0.21919,-1.37726 5.9e-4,-0.11087 -0.0233,-0.13706 -1.03544,-1.13326 -1.47737,-1.4541605 -1.50568,-1.3648 0.5248,-1.6564605 1.6746495,-0.24054 1.3815095,-0.0296 2.1420995,-1.54153 0.69186,-1.37532 0.68335,-1.36184 0.86034,-1.36184 0.21362,0 0.23087,0.0265 0.89866,1.38112 0.54641,1.1084 0.63085,1.26315 0.70589,1.29371 0.0469,0.0191 0.70059,0.12454 1.45269,0.23433 2.00115,0.2921205 1.97302,0.1989 0.49811,1.6506705 -0.97492,0.95963 -1.03599,1.02582 -1.03549,1.12239 2.9e-4,0.0564 0.0988,0.67267 0.219,1.3694 0.26624,1.54378 0.26633,1.5456 0.0736,1.64526 -0.14957,0.0773 -0.24937,0.0539 -0.63715,-0.14949 -0.2029,-0.10643 -0.60498,-0.31774 -0.89351,-0.46959 -0.28853,-0.15185 -0.64918,-0.3416 -0.80146,-0.42166 -0.15228,-0.0801 -0.28933,-0.1572 -0.30456,-0.17141 -0.0604,-0.0563 -0.27612,-0.0266 -0.41632,0.0573 -0.12183,0.073 -0.70857,0.38278 -1.8438095,0.97361 -0.18434,0.0959 -0.34762,0.18586 -0.36285,0.19983 -0.0695,0.0637 -0.30979,0.0276 -0.39715,-0.0598 z"
         id="path1" />
   </g>
</svg>