<svg xmlns="http://www.w3.org/2000/svg"  viewBox="0 0 50 50" width="50px" height="50px"><path d="M 13 4 C 8.0414839 4 4 8.0414839 4 13 L 4 37 C 4 41.958516 8.0414839 46 13 46 L 37 46 C 41.958516 46 46 41.958516 46 37 L 46 13 C 46 8.0414839 41.958516 4 37 4 L 13 4 z M 13 6 L 37 6 C 38.131143 6 39.194802 6.2714581 40.138672 6.7441406 L 38.337891 9.6816406 L 38.337891 11.095703 C 39.348926 12.009139 42.125484 13.812936 44 14.589844 L 44 16.466797 C 42.471626 15.945496 39.59128 14.509475 37.654297 12.734375 C 36.571516 14.552087 34.743335 17.668472 33.019531 21 L 14 21 A 1.0001 1.0001 0 1 0 14 23 L 32.033203 23 C 31.369019 24.359903 30.742002 25.709888 30.222656 27 L 14 27 A 1.0001 1.0001 0 1 0 14 29 L 29.478516 29 C 28.907632 30.721475 28.604596 32.219208 28.740234 33.28125 L 28.648438 33.464844 C 27.949799 34.46645 26.135501 34.982551 25.009766 34.988281 C 24.027967 34.992981 23.571673 34.668783 22.904297 34.1875 C 22.236921 33.706217 21.333333 33 20 33 C 18.666667 33 17.768418 33.672995 16.986328 34.142578 C 16.204238 34.612161 15.46928 35 14 35 A 1.0001 1.0001 0 1 0 14 37 C 15.86872 37 17.132215 36.387839 18.015625 35.857422 C 18.899035 35.327005 19.333333 35 20 35 C 20.666667 35 21.019251 35.29483 21.734375 35.810547 C 22.449499 36.326264 23.50333 36.995565 25.019531 36.988281 C 25.792806 36.984355 26.743552 36.863238 27.667969 36.533203 A 1.0001165 1.0001165 0 0 0 29.400391 36.435547 L 30.279297 34.675781 C 34.043084 33.54361 43.099827 18.649383 44 17.158203 L 44 37 C 44 40.877484 40.877484 44 37 44 L 13 44 C 9.1225161 44 6 40.877484 6 37 L 6 13 C 6 9.1225161 9.1225161 6 13 6 z M 14 15 A 1.0001 1.0001 0 1 0 14 17 L 32 17 A 1.0001 1.0001 0 1 0 32 15 L 14 15 z"/></svg>
