<svg xmlns="http://www.w3.org/2000/svg" width="24" height="24" viewBox="0 0 24 24"><path d="m19.973 8.478-3.456-5.987a2.47 2.47 0 0 0-.898-.898L11.878 8.07l4.394 7.619h7.47c0-.422-.109-.844-.327-1.225zm-3.7 7.211h-8.79l-3.741 6.476c.367.218.789.327 1.224.327H18.79c.436 0 .858-.123 1.225-.327zm-4.395-7.62 3.741-6.476a2.4 2.4 0 0 0-1.224-.326H9.36c-.436 0-.857.122-1.225.326zm8.136 14.096a2.47 2.47 0 0 0 .898-.898l.435-.748 2.082-3.606c.218-.38.327-.802.327-1.224h-7.484l1.592 3.13zM11.878 8.07 8.136 1.593a2.47 2.47 0 0 0-.898.898L.327 14.464A2.47 2.47 0 0 0 0 15.69h7.483ZM1.796 19.458l1.048 1.81c.217.38.53.68.898.897l3.741-6.476H0c0 .422.109.844.327 1.224z" style="stroke-width:.272114"/></svg>