<svg xmlns="http://www.w3.org/2000/svg" width="24" height="24" viewBox="0 0 24 24"><path d="M6.000 0.239 C 3.147 0.268,2.558 0.294,2.362 0.399 C 2.223 0.473,1.882 0.886,1.839 1.032 C 1.752 1.328,1.717 5.592,1.741 12.980 C 1.763 19.755,1.801 22.834,1.866 23.140 C 1.901 23.304,2.458 23.853,2.656 23.919 C 2.748 23.949,2.877 23.958,2.987 23.941 C 3.541 23.858,4.967 23.262,9.020 21.420 C 11.158 20.448,11.601 20.311,12.310 20.401 C 12.901 20.476,13.202 20.592,15.343 21.572 C 18.885 23.194,20.521 23.875,21.043 23.944 C 21.294 23.977,21.504 23.877,21.851 23.560 C 22.044 23.382,22.122 23.279,22.159 23.151 C 22.280 22.730,22.323 1.522,22.204 1.070 C 22.148 0.859,21.836 0.482,21.631 0.375 C 21.543 0.330,21.283 0.306,20.587 0.279 C 19.272 0.230,9.546 0.203,6.000 0.239 M12.301 4.178 C 12.377 4.259,12.703 4.856,13.081 5.608 C 13.911 7.256,14.225 7.844,14.319 7.924 C 14.417 8.008,14.788 8.078,16.400 8.319 C 18.413 8.620,18.733 8.700,18.787 8.912 C 18.840 9.125,18.682 9.318,17.293 10.729 C 16.540 11.493,15.879 12.179,15.823 12.252 L 15.721 12.386 15.819 13.043 C 15.873 13.404,15.998 14.195,16.097 14.800 C 16.418 16.762,16.418 16.766,16.140 16.897 C 15.878 17.021,15.845 17.007,13.608 15.831 C 12.346 15.167,12.202 15.100,12.020 15.100 C 11.836 15.100,11.683 15.172,10.160 15.976 C 9.247 16.458,8.464 16.876,8.421 16.906 C 8.228 17.038,7.805 16.925,7.719 16.718 C 7.657 16.568,7.664 16.510,8.000 14.440 C 8.152 13.505,8.288 12.654,8.303 12.550 L 8.329 12.360 7.995 12.010 C 7.811 11.817,7.147 11.138,6.518 10.500 C 5.377 9.342,5.222 9.151,5.247 8.931 C 5.275 8.694,5.584 8.616,7.640 8.320 C 9.216 8.094,9.307 8.076,9.550 7.935 C 9.816 7.781,9.989 7.508,10.651 6.200 C 11.696 4.134,11.756 4.040,12.028 4.040 C 12.139 4.040,12.199 4.071,12.301 4.178 " stroke="none" fill-rule="evenodd"></path></svg>