<svg xmlns="http://www.w3.org/2000/svg" width="24" height="24" viewBox="0 0 24 24"><path fill-rule="evenodd" d="M10.28.245c-.128.018-.861.283-1.76.636-.847.334-1.927.75-2.4.927-.854.319-3.71 1.327-3.94 1.391-.165.046-1.252.432-1.301.462-.08.049-.034.093.127.12.471.08 1.241.421 1.734.77 1.364.964 2.607 2.92 3.318 5.222.403 1.304.606 2.228.922 4.194.336 2.093.572 3.173.923 4.223.785 2.352 2.004 3.92 3.677 4.729.641.311 1.175.465 2.14.618.127.02.224-.03 1.04-.541.495-.31.954-.593 1.02-.63.066-.036.3-.18.52-.319 1.667-1.054 2.104-1.327 2.127-1.327.014 0 .055-.028.09-.062.056-.054 1.211-.808 2.843-1.857.903-.58 2.323-1.531 2.308-1.546a3 3 0 0 0-.342-.076c-.751-.143-2.033-.703-2.526-1.105-.667-.543-2.04-2.042-2.04-2.226 0-.023-.014-.047-.031-.055-.044-.019-.329-.512-.545-.945-.708-1.414-1.169-3.03-1.425-4.997-.183-1.409-.434-2.294-.941-3.311q-.712-1.43-1.698-2.42C12.836.832 11.329.096 10.28.245"/></svg>