<svg xmlns="http://www.w3.org/2000/svg" viewBox="0 0 40 40"><path d="M28.657 3.075 C 26.914 3.216,25.302 4.316,24.255 6.078 C 23.968 6.562,23.525 6.967,22.340 7.827 C 21.749 8.256,20.723 9.283,19.736 10.433 C 17.752 12.746,14.205 17.510,13.011 19.467 C 11.973 21.167,10.561 22.966,9.726 23.649 C 9.492 23.841,9.055 24.171,8.756 24.382 C 8.456 24.594,7.892 25.033,7.501 25.357 C 6.645 26.070,4.761 27.887,4.849 27.916 C 4.884 27.928,5.224 27.832,5.606 27.704 L 6.300 27.471 6.047 27.677 C 5.657 27.996,5.055 28.894,4.905 29.382 L 4.859 29.530 5.279 29.371 C 5.511 29.284,5.858 29.150,6.052 29.073 L 6.403 28.934 6.167 29.284 C 5.943 29.615,5.938 29.635,6.070 29.655 C 6.323 29.695,7.148 29.238,7.731 28.736 C 8.041 28.469,8.303 28.277,8.314 28.310 C 8.325 28.343,8.214 28.728,8.067 29.165 C 7.920 29.603,7.800 29.991,7.800 30.029 C 7.800 30.067,8.204 29.695,8.698 29.202 L 9.596 28.306 9.614 29.087 L 9.633 29.867 10.087 29.045 C 10.580 28.151,11.217 27.136,11.810 26.299 C 12.270 25.649,13.090 24.694,13.272 24.597 C 13.346 24.558,13.780 24.423,14.238 24.298 C 15.202 24.033,16.586 23.526,17.500 23.101 L 18.139 22.805 19.480 24.069 C 20.217 24.764,20.846 25.333,20.877 25.333 C 20.908 25.333,20.935 24.726,20.937 23.983 L 20.940 22.633 21.108 23.199 C 21.441 24.327,22.060 25.640,22.811 26.812 L 23.167 27.366 23.200 25.733 L 23.233 24.100 23.358 24.467 C 23.705 25.489,24.518 26.895,25.140 27.548 L 25.476 27.900 25.442 25.273 L 25.409 22.646 25.636 23.323 C 26.182 24.951,27.227 26.611,28.539 27.935 C 28.835 28.234,29.089 28.467,29.102 28.453 C 29.141 28.414,28.580 26.530,28.054 24.933 C 27.794 24.145,27.567 23.455,27.549 23.400 C 27.531 23.345,27.667 23.525,27.852 23.801 C 28.994 25.507,30.740 26.805,32.900 27.552 C 33.851 27.881,35.335 28.205,35.332 28.084 C 35.332 28.056,34.684 27.148,33.894 26.067 C 33.103 24.985,32.398 24.019,32.326 23.920 C 32.200 23.745,32.212 23.748,32.815 24.029 C 33.519 24.356,35.322 25.033,35.368 24.987 C 35.419 24.937,34.630 23.818,33.947 22.974 C 33.156 21.994,31.625 20.243,30.338 18.845 C 29.467 17.898,29.309 17.689,28.810 16.812 C 28.504 16.274,28.240 15.800,28.223 15.759 C 28.207 15.719,28.355 15.520,28.552 15.318 C 29.348 14.503,30.026 12.616,30.405 10.167 C 30.486 9.639,30.491 9.630,30.865 9.289 C 31.751 8.480,32.404 7.222,32.726 5.705 C 32.904 4.866,33.057 4.553,33.551 4.025 C 34.010 3.534,34.061 3.560,32.879 3.671 L 32.124 3.742 31.645 3.543 C 30.695 3.149,29.688 2.991,28.657 3.075 M0.067 6.901 C 0.067 6.932,9.843 21.925,9.911 21.997 C 9.979 22.071,11.336 20.265,11.919 19.323 C 12.908 17.726,15.576 14.020,17.361 11.767 C 18.993 9.706,20.715 7.823,21.589 7.143 L 21.945 6.867 11.006 6.867 C 4.989 6.867,0.067 6.882,0.067 6.901 M33.423 6.983 C 33.100 7.941,32.474 9.022,31.855 9.694 L 31.410 10.177 31.272 10.938 C 30.888 13.046,30.345 14.608,29.666 15.551 L 29.421 15.892 29.789 16.529 C 30.057 16.994,30.400 17.433,31.056 18.149 L 31.956 19.131 32.235 18.715 C 32.955 17.639,39.933 6.931,39.933 6.901 C 39.933 6.882,38.477 6.867,36.698 6.867 C 33.676 6.867,33.460 6.874,33.423 6.983 M17.133 24.339 C 16.432 24.638,14.692 25.231,14.025 25.398 C 13.803 25.454,13.675 25.557,13.358 25.936 C 13.143 26.194,12.957 26.450,12.945 26.503 C 12.921 26.614,19.938 37.406,20.018 37.382 C 20.046 37.373,21.266 35.536,22.728 33.300 L 25.386 29.233 24.809 28.661 L 24.233 28.089 24.200 29.260 L 24.167 30.430 23.158 29.022 C 22.604 28.247,22.034 27.426,21.893 27.197 L 21.636 26.781 21.568 27.060 L 21.500 27.339 19.733 25.671 C 18.762 24.754,17.952 24.005,17.933 24.008 C 17.915 24.010,17.555 24.159,17.133 24.339 " stroke="none" fill-rule="evenodd" fill="black"></path></svg>