<svg xmlns="http://www.w3.org/2000/svg" viewBox="0 0 40 40"><path d="M4.75 27.96c.82-.87 2.84-2.86 4.4-3.86s3.44-3.86 4.18-5.16c2.26-3.33 7.34-10.29 9.51-11.47.39-.3.96-.78 1.2-.98.82-1.81 3.59-4.89 8.15-2.72.39-.13 1.36-.16 1.79-.16-.34.24-1.07.92-1.2 1.79-.35 2.39-1.67 3.79-2.28 4.18-.43 2.77-1.03 5.22-2.34 6.09l1.2 2.12c1.79 1.9 5.51 6.01 6.03 7.23-1.74-.57-2.86-1.1-3.21-1.3l3.21 4.4c-1.88-.14-6.12-1.37-7.99-5.11.74 2 1.47 4.49 1.74 5.49-1.01-.83-3.2-3.25-3.8-6.25.17 2.91.14 4.98.11 5.65-.49-.45-1.62-1.86-2.23-3.86v3.37c-.73-1.01-2.2-3.48-2.33-5.34.12 2.11.05 3.09 0 3.33l-2.77-2.61c-.74.4-2.74 1.3-4.78 1.74-1.39 1.17-3.08 4.11-3.75 5.43v-1.68l-1.85 1.85.65-1.96-1.2 1.03c-.27.16-.9.49-1.25.49.13-.3.38-.63.49-.76l-1.58.6c.18-.53.75-1.68 1.58-2.12-1.13.43-1.59.54-1.68.54Z"/><path d="m28.62 20.53 1.77 1.01.44-.67c-.72-.8-1.47-1.62-2.2-2.4l-.14-.19-1.66-2.93.78-.52c1.19-.79 1.71-4.15 1.91-5.41l.07-.45.38-.24c.27-.17.92-.81 1.39-1.91H25s-.03.05-.04.07l-.09.21-.31.26c-.29.24-.76.63-1.1.9l-.13.09c-1.64.89-5.94 6.41-9.16 11.15-.04.08-1.46 2.54-3.1 4.26l.66 1.01c.32-.39.65-.74.98-1.01l.19-.16.24-.05c2.02-.44 3.94-1.33 4.52-1.64l.64-.34 1.66 1.56c0-.3-.02-.63-.05-1l2-.13c.03.43.15.91.33 1.42v-6.08l1.96 6.41c.08.26.17.51.26.75-.02-.65-.05-1.38-.1-2.19l1.98-.25c.08.42.2.82.35 1.21l1.63-.71c.2.41.45.77.71 1.11l.9-1.38-1.29-1.76ZM12.46 18.45c.31-.46 6.48-9.51 9.54-11.62H0l9.93 15.2c.98-1.12 1.98-2.61 2.53-3.59Z"/><path d="M33.47 6.83c-.5 1.62-1.37 2.73-2.05 3.3-.37 2.27-.89 4.46-2 5.74l.75 1.32c.34.36 1.01 1.08 1.79 1.95L40 6.83h-6.53ZM25.39 29.21l-.62-.57c-.15-.14-.34-.34-.55-.6v2.46l-1.81-2.51s-.37-.52-.78-1.22l-.12.58-3.56-3.36c-.96.45-2.51 1.07-4.13 1.45-.3.28-.62.66-.94 1.09l7.13 10.92 5.39-8.25Z"/></svg>