<svg xmlns="http://www.w3.org/2000/svg" width="24" height="24"><path d="M18.209 3.202 C 17.982 3.318,17.772 3.571,17.699 3.816 C 17.610 4.116,17.610 19.884,17.699 20.184 C 17.817 20.582,18.194 20.880,18.578 20.880 C 19.001 20.880,19.283 20.705,19.467 20.329 L 19.580 20.100 19.591 12.180 C 19.598 7.107,19.588 4.168,19.563 4.003 C 19.482 3.477,19.142 3.154,18.645 3.129 C 18.434 3.118,18.345 3.133,18.209 3.202 M9.020 4.623 C 8.496 4.704,7.996 4.857,7.530 5.079 C 6.024 5.798,5.116 7.095,4.953 8.764 C 4.795 10.380,5.475 11.977,6.720 12.915 C 7.157 13.245,7.491 13.424,7.999 13.603 C 8.718 13.857,8.967 13.891,10.120 13.898 C 10.822 13.902,11.196 13.920,11.319 13.956 C 12.110 14.185,12.600 14.831,12.599 15.640 C 12.598 16.165,12.429 16.570,12.056 16.945 C 11.081 17.923,9.065 17.901,7.552 16.895 C 7.227 16.678,6.716 16.181,6.520 15.890 C 6.443 15.776,6.365 15.682,6.348 15.681 C 6.311 15.680,4.440 17.354,4.440 17.389 C 4.440 17.473,4.966 18.114,5.286 18.418 C 6.341 19.422,7.735 19.995,9.431 20.124 C 10.613 20.214,11.971 19.976,12.887 19.518 C 13.862 19.030,14.680 18.199,15.043 17.326 C 15.546 16.118,15.509 14.785,14.940 13.616 C 14.766 13.256,14.666 13.109,14.418 12.845 C 14.249 12.666,14.005 12.454,13.876 12.374 C 13.746 12.294,13.640 12.215,13.640 12.198 C 13.640 12.181,13.768 12.044,13.924 11.894 C 14.409 11.425,14.709 10.891,14.889 10.171 C 15.014 9.671,15.013 8.762,14.887 8.300 C 14.733 7.737,14.335 7.011,14.021 6.720 L 13.913 6.620 14.142 6.600 L 14.370 6.580 14.865 5.640 C 15.136 5.123,15.359 4.669,15.359 4.630 C 15.360 4.564,15.193 4.560,12.370 4.564 C 10.033 4.567,9.301 4.580,9.020 4.623 M10.550 7.060 C 11.349 7.248,12.018 7.890,12.219 8.662 C 12.290 8.937,12.298 9.427,12.236 9.728 C 12.133 10.231,11.763 10.777,11.332 11.063 C 10.299 11.750,8.819 11.537,8.114 10.600 C 7.801 10.184,7.676 9.789,7.675 9.214 C 7.672 8.184,8.292 7.369,9.300 7.076 C 9.602 6.988,10.211 6.980,10.550 7.060 " stroke="none" fill-rule="evenodd" fill="black"></path></svg>