<svg xmlns="http://www.w3.org/2000/svg" viewBox="0 0 40 40"><path d="M20 37.47 40 6.83H0l20 30.63Z"/><path d="M4.75 27.96c.82-.87 2.84-2.86 4.4-3.86 1.56-1 3.44-3.86 4.18-5.16 2.26-3.33 7.34-10.29 9.51-11.47.39-.3.96-.78 1.2-.98.82-1.81 3.59-4.89 8.15-2.72.39-.13 1.36-.16 1.79-.16-.34.24-1.07.92-1.2 1.79-.35 2.39-1.67 3.79-2.28 4.18-.43 2.77-1.03 5.22-2.34 6.09l1.2 2.12c1.79 1.9 5.51 6.01 6.03 7.23-1.74-.57-2.86-1.1-3.21-1.3l3.21 4.4c-1.88-.14-6.12-1.37-7.99-5.11.74 2 1.47 4.49 1.74 5.49-1.01-.83-3.2-3.25-3.8-6.25.17 2.91.14 4.98.11 5.65-.49-.45-1.62-1.86-2.23-3.86v3.37c-.73-1.01-2.2-3.48-2.33-5.34.12 2.11.05 3.09 0 3.33l-2.77-2.61c-.74.4-2.74 1.3-4.78 1.74-1.39 1.17-3.08 4.11-3.75 5.43v-1.68l-1.85 1.85.65-1.96-1.2 1.03c-.27.16-.9.49-1.25.49.13-.3.38-.63.49-.76l-1.58.6c.18-.53.75-1.68 1.58-2.12-1.13.43-1.59.54-1.68.54Z" style="stroke:#fff;stroke-miterlimit:10"/></svg>