<svg xmlns="http://www.w3.org/2000/svg" width="24" height="24"><path d="M20.420 0.066 C 20.227 0.167,19.922 0.484,19.810 0.700 L 19.706 0.900 19.676 2.320 C 19.660 3.101,19.646 7.457,19.646 12.000 C 19.646 16.543,19.660 20.899,19.676 21.680 C 19.706 23.100,19.706 23.100,19.809 23.300 C 19.934 23.544,20.200 23.814,20.421 23.920 C 20.550 23.983,20.668 24.000,20.965 24.000 C 21.292 24.000,21.373 23.986,21.550 23.897 C 21.805 23.770,21.960 23.598,22.141 23.238 L 22.281 22.960 22.270 12.010 L 22.260 1.060 22.167 0.829 C 22.026 0.480,21.853 0.279,21.565 0.130 C 21.331 0.009,21.286 0.000,20.927 0.002 C 20.655 0.003,20.504 0.022,20.420 0.066 M8.540 1.962 C 7.849 1.996,7.439 2.069,6.820 2.268 C 4.868 2.896,3.430 4.239,2.781 6.040 C 2.487 6.856,2.354 7.903,2.433 8.778 C 2.619 10.839,3.686 12.577,5.420 13.641 C 5.785 13.865,6.084 13.999,6.665 14.201 C 7.529 14.501,7.655 14.518,9.260 14.562 C 10.052 14.584,10.808 14.619,10.940 14.641 C 11.072 14.662,11.331 14.752,11.517 14.841 C 12.312 15.223,12.799 16.020,12.799 16.940 C 12.799 18.191,11.943 19.161,10.500 19.547 C 10.135 19.644,10.034 19.654,9.360 19.654 C 8.747 19.655,8.550 19.640,8.214 19.568 C 7.433 19.399,6.611 19.060,5.982 18.646 C 5.626 18.411,4.902 17.715,4.593 17.310 C 4.463 17.140,4.346 17.000,4.333 17.000 C 4.299 17.000,3.976 17.277,3.148 18.014 C 2.195 18.864,1.760 19.278,1.760 19.338 C 1.760 19.408,2.087 19.831,2.492 20.285 C 4.111 22.102,6.728 23.123,9.520 23.026 C 11.906 22.944,13.683 22.236,15.020 20.835 C 15.633 20.192,15.989 19.620,16.257 18.846 C 16.509 18.118,16.574 17.717,16.576 16.900 C 16.578 16.058,16.518 15.662,16.282 14.956 C 15.900 13.815,15.329 13.032,14.452 12.450 C 14.335 12.372,14.240 12.290,14.240 12.268 C 14.240 12.246,14.398 12.064,14.592 11.864 C 15.018 11.422,15.236 11.132,15.462 10.704 C 15.825 10.016,15.995 9.354,16.029 8.499 C 16.069 7.481,15.918 6.776,15.474 5.911 C 15.273 5.521,14.899 4.977,14.727 4.825 C 14.610 4.721,14.651 4.680,14.872 4.679 C 15.240 4.678,15.116 4.853,16.065 3.005 C 16.435 2.284,16.554 2.018,16.521 1.985 C 16.468 1.932,9.537 1.912,8.540 1.962 M10.260 5.373 C 11.171 5.671,11.915 6.395,12.229 7.288 C 12.314 7.527,12.335 7.674,12.350 8.100 C 12.372 8.741,12.307 9.087,12.079 9.549 C 11.672 10.376,11.007 10.918,10.098 11.166 C 9.843 11.235,9.669 11.253,9.220 11.253 C 8.724 11.253,8.619 11.241,8.301 11.144 C 7.442 10.883,6.810 10.372,6.440 9.640 C 6.007 8.782,6.044 7.533,6.526 6.689 C 6.723 6.344,7.181 5.889,7.546 5.676 C 8.173 5.309,8.475 5.237,9.320 5.255 C 9.858 5.267,9.982 5.282,10.260 5.373 " stroke="none" fill-rule="evenodd" fill="black"></path></svg>