<svg version="1.1" id="svg1" width="24" height="24" viewBox="0 0 24 24" xmlns="http://www.w3.org/2000/svg">
   <defs id="defs1" />
   <g id="g1">
      <path style="fill:#000000;stroke-width:0.037841"
         d="m 21.122161,23.917819 c -1.45878,-0.31878 -3.03076,-1.50373 -4.02199,-3.03176 -0.63746,-0.98266 -1.00021,-2.12113 -0.95261,-2.98963 0.0168,-0.30679 0.0112,-0.34788 -0.0559,-0.41001 -0.28051,-0.25987 -1.32703,-1.46586 -1.94092,-2.23667 -0.40296,-0.50598 -0.90927,-1.11969 -1.12512,-1.3638 -0.93024,-1.05202 -3.07407,-3.25812 -5.58783,-5.7501299 -0.65281,-0.64717 -1.30387,-1.2929 -1.44679,-1.43497 l -0.25986,-0.25829 -0.21514,0.15043 c -0.35329,0.24704 -0.58812,0.28123 -1.12969,0.16447 -0.26054,-0.0562 -0.33255,-0.0587 -0.48233,-0.0172 -0.34371,0.0954 -0.47362,0.2139 -1.11626,1.01816 -0.048,0.0601 -0.0381,0.0844 0.097,0.23681 0.21913,0.24728 0.28093,0.39262 0.28112,0.6611 1.9e-4,0.27919 -0.0829,0.47926 -0.28273,0.68103 -0.25963,0.2621 -0.68581,0.33263 -0.99733,0.16506 -0.18885,-0.10159 -1.66560998,-1.68487 -1.78460998,-1.91333 -0.17171,-0.32969 -0.12371,-0.68041 0.13496,-0.98609 0.26466,-0.31277 0.63878,-0.40426 0.98497998,-0.24089 l 0.16456,0.0777 0.0868,-0.10745 c 0.21933,-0.27144 0.41326,-0.60684 0.59441,-1.02797 0.38338,-0.89131 0.63084,-1.20499 2.33413,-2.95871 0.95101,-0.97917 1.33281,-1.34617004 1.57156,-1.51063004 0.81697,-0.56274 1.50763,-0.78979 2.52295,-0.8294 0.86151,-0.0336 1.59393,0.08 2.5733,0.39932 l 0.43992,0.14342 -0.0171,0.18573 c -0.009,0.10215 -0.027,0.19598 -0.0391,0.20852 -0.0121,0.0125 -0.11048,-4.2e-4 -0.21871,-0.0288 -0.27723,-0.0727 -0.98305,-0.0626 -1.35691,0.0195 -1.21857,0.26756004 -2.22292,0.92793004 -2.59167,1.70405004 -0.1288,0.27111 -0.14279,0.32987 -0.14119,0.5934 0.001,0.2395 0.0239,0.34842 0.12362,0.60124 0.10633,0.26947 0.11964,0.34069 0.10457,0.55963 -0.009,0.13797 -0.0469,0.31463 -0.0832,0.39257 l -0.0659,0.14171 1.55412,1.69153 c 1.94482,2.11678 4.74234,5.0523699 5.52481,5.7974999 0.3265,0.31092 0.92756,0.85012 1.33568,1.19824 0.8575,0.73143 0.90569,0.77574 1.73602,1.5963 l 0.62294,0.61562 0.36026,0.0108 c 1.8612,0.0555 4.09179,1.74784 5.11343,3.87956 0.72696,1.51685 0.70422,2.91785 -0.0601,3.70063 -0.51088,0.52324 -1.34891,0.707 -2.28819,0.50174 z m 2.32685,-3.83364 c -0.1099,-0.33229 -0.41922,-0.92352 -0.6986,-1.33531 -0.30167,-0.44464 -1.06091,-1.24796 -1.49168,-1.57828 -0.58368,-0.44757 -1.42207,-0.88026 -1.83656,-0.94782 -0.11934,-0.0194 -0.0903,0.001 0.14841,0.10629 1.67405,0.73593 2.99421,2.02595 3.78819,3.70172 0.0776,0.16377 0.14609,0.29253 0.15223,0.28615 0.006,-0.006 -0.0218,-0.11112 -0.062,-0.23275 z m -5.58567,-4.22559 c -0.8257,-0.83797 -1.4698,-1.44437 -2.29067,-2.1566 -0.53558,-0.46469 -1.20752,-1.07127 -1.49321,-1.34796 -0.76463,-0.74053 -3.63494,-3.7617499 -5.39456,-5.6781599 -0.99076,-1.07904 -1.54772,-1.65849 -1.57093,-1.63434 -0.0208,0.0216 -0.0226,0.0621 -0.004,0.0959 0.10501,0.19408 5.11893,5.5730899 6.19684,6.6480599 1.00737,1.00463 1.22617,1.2076 2.31868,2.15088 0.48285,0.4169 1.17112,1.0537 1.5295,1.41512 0.5234,0.52813 0.67142,0.65712 0.75376,0.65712 h 0.10245 z M 2.916171,8.2751991 c -0.0254,-0.10519 -0.19563,-0.33283 -0.24893,-0.33283 -0.073,0 -0.0274,0.13527 0.10021,0.29725 0.14221,0.18054 0.18624,0.19107 0.14872,0.0356 z m 4.17406,-4.41132 c -0.0437,-0.0782 -0.0543,-0.0532 -0.0185,0.0439 0.0127,0.0345 0.031,0.0546 0.0405,0.0446 0.01,-0.01 -3.3e-4,-0.0498 -0.022,-0.0885 z m 4.20657,-3.25449004 c -0.0126,-0.0212 -0.0386,-0.0386 -0.0579,-0.0386 -0.0192,0 -0.0349,0.0174 -0.0349,0.0386 0,0.0212 0.026,0.0386 0.0578,0.0386 0.0318,0 0.0475,-0.0174 0.0349,-0.0386 z"
         id="path1" />
   </g>
</svg>