<svg width="428.91" height="450.45" viewBox="0 0 113.48 119.18" xml:space="preserve" xmlns="http://www.w3.org/2000/svg">
  <path style="fill:#000;stroke-width:2.6829"
    d="M87.08 204.6c.37-.24-1.35-.51-4.24-.67-7.87-.43-13.39-2.65-15.09-6.07-.45-.91-.83-1.33-.83-.94-.02.55-.18.5-.7-.2-.52-.69-.55-1.07-.15-1.56.4-.48.39-.96-.01-1.85-2.73-6.06 2.83-12.53 13.1-15.22 3.73-.98 3.81-1.15 2.6-5.24-1.1-3.74-2.96-5.64-6.2-6.35-22.57-4.91-29.08-29.63-10.95-41.52 2-1.3 2.22-1.61 1.78-2.44a6.64 6.64 0 0 1-.5-2.54c0-1.58-.03-1.6-1.71-1.38-3.5.47-5.54-1-6.37-4.62-.43-1.88 1.85-4.31 5.33-5.68 2.57-1 3.46-2.3 1.58-2.3-4.47 0-6.23-7.16-2.35-9.55 5.1-3.15 11.34 4.85 6.36 8.15-.53.35.04 1.95.58 1.61 1.15-.72 7.52-.79 8.58-.1.94.64 2.22 3.5 2.22 4.99 0 .7-2.42 3.27-3.7 3.93-1.1.56-1.1.56-.11 1.62.56.61.98 1.7.98 2.55 0 1.5 0 1.5 8.38 1.5s8.38 0 9.65-3.93c1.56-4.87 1.57-4.74-.17-4.49-1.1.17-1.65-.04-2.3-.9a2.9 2.9 0 0 0-2.07-1.1c-.78 0-1.3-.33-1.49-.96-.16-.52-.7-.95-1.18-.95s-1-.43-1.17-.95c-.17-.52-.5-.95-.75-.95-.67 0 .08-2.53.94-3.19 1.17-.89 5.14-1.22 8.74-.72 2.73.37 3.38.32 3.8-.26.7-.96 2.5-.34 3.02 1.03.22.6 1.85 1.96 3.62 3.05 5.3 3.25 6.14 4.3 5.87 7.35-.04.45-.39.83-.77.83-.4 0-.71.24-.71.53 0 .33-.46.4-1.22.21-.7-.17-1.5-.07-1.9.26-.52.44-.85.39-1.53-.24-.7-.63-1.12-.69-2.18-.28-1.1.42-1.48.34-2.37-.5-1.6-1.52-2.63-.66-3.87 3.22-1.29 4.05-1.29 3.94.06 3.94 3.19 0 15.92 9.97 15.74 12.32-.28 3.81.5 3.24 4.77-3.52 1.94-3.06 3.48-4.24 6.25-4.76.96-.19 1.99-.63 2.29-1 .3-.36 1.15-.66 1.9-.66 1.82 0 1.71-.43-.75-3.1-1.8-1.97-2.5-3.67-1.16-2.83 1.03.64.3-.76-1.44-2.76-2.18-2.5-2.22-2.62-.92-2.82.9-.14.84-.3-.7-2-1.97-2.17-1.98-2.2-.66-2.2 1.3 0 3.9 2.81 6.2 6.7 1 1.68 1.65 2.52 1.47 1.87-.76-2.65-3.99-9.7-4.9-10.68-2.05-2.21-.35-2.37 2.1-.2 1.68 1.5 1.68 1.5.72-.97a25.96 25.96 0 0 0-1.69-3.59c-.53-.81-.57-1.18-.17-1.31.54-.19-.06-1.67-1.56-3.81-.31-.45-.42-.96-.25-1.14.54-.54 2.53 1.06 3.69 2.96.6.97 1.16 1.54 1.25 1.26.23-.7-2.05-6.28-3.01-7.36-.43-.48-.63-1.02-.45-1.2 1.02-1.04 4.42 3.33 6.15 7.91.7 1.85 1.43 3.47 1.62 3.59.99.6-1.4-11.26-2.83-14.12-1.7-3.38-.07-3.21 2.16.22.9 1.37 2.27 3.36 3.05 4.4a29.15 29.15 0 0 1 2.36 3.81c.51 1.05.94 1.62.94 1.28.02-1.23 2.11-.36 2.89 1.2.75 1.53.75 1.53 2.82-2.62 2.17-4.36 3.35-5.25 3.64-2.72.08.79.47 1.62.87 1.84.56.32.64.94.39 3-.32 2.6-.32 2.6 1.66.43 2.84-3.12 4.51-2.87 3.26.48-.48 1.26-.44 1.25 1.37-.4 2.18-2 3.65-2.98 5.1-3.42 1.58-.48 1.34.62-.46 2.2-1.53 1.34-1.53 1.34-.12.63 3.2-1.6 4.03-.57 1.16 1.45-1.4.97-1.74 1.44-1.3 1.74.46.3.26.7-.8 1.58-.99.82-1.18 1.18-.65 1.18.43 0 1.06-.35 1.42-.79.68-.84 4.95-3 5.93-3.01 1.3-.01.38 1.3-2.32 3.33a43.43 43.43 0 0 0-5.96 5.95c-2.36 2.88-2.72 3.48-1.48 2.49 2.84-2.27 6.3-4.15 7.65-4.15 1.89-.01 1.59.53-1.19 2.1-1.93 1.1-2.26 1.45-1.52 1.6 1.73.35 1.76.95.08 1.76-1.08.52-1.58 1.04-1.4 1.47.13.38-.04.68-.4.68-.83 0-6.3 4.19-8.4 6.43-1.64 1.76-1.64 1.76 2.74-.45 4.23-2.14 7.56-2.94 7.93-1.92.1.28-.63.78-1.6 1.12-1.97.7-7.71 3.97-9.53 5.44-.92.74-.97.87-.24.58 2.03-.79 5.2-1.52 5.76-1.33 1.2.4.53 1.02-1.88 1.75-3.78 1.14-4.09 1.45-2.57 2.66.7.56 1.28 1.3 1.28 1.67 0 .35.79 1.4 1.75 2.32 1.47 1.4 1.76 2 1.8 3.71.03 1.13.18 2.59.35 3.24 1.47 5.73 1.87 20.96.6 23-.34.57-.76 2.39-.91 4.03-.29 2.97-.87 4.66-1.95 5.57-2.34 2-2.52 3.81-.38 3.83 3.82.02 5.62 4.2 4.36 10.12-.92 4.33-2.44 4.71-20.7 5.23-12.2.34-12.2.34-14.27 2.73-3.37 3.9-10.5 6.92-18.07 7.65-1.74.16-3.78.6-4.53.96-1.52.73-16.09.97-14.95.25zm11.67-28.3c7.4.08 9.84.25 10.17.72.28.4.33.13.13-.8a6.44 6.44 0 0 0-1.34-2.54c-.77-.84-1.1-1.98-1.36-4.76-.83-8.89-.44-8.4-4.76-6.05a44.51 44.51 0 0 1-6.66 2.92c-3.58 1.08-3.74 1.21-5.14 4.2-1.18 2.52-2.24 8.36-1.27 6.94.42-.6 2.04-.7 10.23-.62z"
    transform="translate(-54.13 -85.85)" />
</svg>