<?xml version="1.0" encoding="UTF-8" standalone="no"?>
<!-- Created with Inkscape (http://www.inkscape.org/) -->

<svg
   width="113.48257mm"
   height="119.18259mm"
   viewBox="0 0 113.48257 119.18259"
   version="1.1"
   id="svg1"
   xml:space="preserve"
   inkscape:version="1.4.2 (ebf0e940, 2025-05-08)"
   sodipodi:docname="handbrake.svg"
   xmlns:inkscape="http://www.inkscape.org/namespaces/inkscape"
   xmlns:sodipodi="http://sodipodi.sourceforge.net/DTD/sodipodi-0.dtd"
   xmlns="http://www.w3.org/2000/svg"
   xmlns:svg="http://www.w3.org/2000/svg"><sodipodi:namedview
     id="namedview1"
     pagecolor="#ffffff"
     bordercolor="#000000"
     borderopacity="0.25"
     inkscape:showpageshadow="2"
     inkscape:pageopacity="0.0"
     inkscape:pagecheckerboard="0"
     inkscape:deskcolor="#d1d1d1"
     inkscape:document-units="mm"
     showgrid="false"
     inkscape:zoom="0.77949635"
     inkscape:cx="193.07339"
     inkscape:cy="237.33273"
     inkscape:window-width="1888"
     inkscape:window-height="985"
     inkscape:window-x="2576"
     inkscape:window-y="230"
     inkscape:window-maximized="0"
     inkscape:current-layer="layer1" /><defs
     id="defs1" /><g
     inkscape:label="Layer 1"
     inkscape:groupmode="layer"
     id="layer1"
     transform="translate(-54.130186,-85.853977)"><path
       style="fill:#000000;stroke-width:2.6829"
       d="m 87.078797,204.59685 c 0.36957,-0.23692 -1.34685,-0.50721 -4.23473,-0.66655 -7.876626,-0.43459 -13.392773,-2.65327 -15.089372,-6.06913 -0.452479,-0.91098 -0.82975,-1.33508 -0.838382,-0.94242 -0.012,0.54782 -0.174591,0.50151 -0.698546,-0.19887 -0.514863,-0.68829 -0.55204,-1.07229 -0.151117,-1.56096 0.395567,-0.48214 0.393527,-0.95491 -0.008,-1.84628 -2.731924,-6.06514 2.831753,-12.53201 13.099314,-15.22581 3.731093,-0.97888 3.814133,-1.14566 2.607603,-5.23645 -1.10295,-3.73963 -2.961834,-5.63826 -6.214296,-6.34723 -22.55681,-4.91688 -29.072495,-29.63677 -10.943719,-41.51945 1.996183,-1.30839 2.221663,-1.61633 1.786194,-2.4394 -0.274108,-0.51811 -0.498379,-1.6648 -0.498379,-2.54821 0,-1.57305 -0.03548,-1.60146 -1.717417,-1.37577 -3.501218,0.46978 -5.538143,-1.00651 -6.369008,-4.61613 -0.43272,-1.87988 1.853521,-4.31678 5.328797,-5.6799 2.574077,-1.00963 3.464505,-2.31328 1.580047,-2.31328 -4.470449,0 -6.23025,-7.146421 -2.349254,-9.540111 5.102893,-3.14737 11.338049,4.845831 6.357713,8.150301 -0.527096,0.34971 0.04668,1.94675 0.57971,1.61353 1.155964,-0.72267 7.527844,-0.79439 8.580683,-0.0966 0.946014,0.62701 2.218579,3.48358 2.218579,4.98013 0,0.70117 -2.41829,3.27444 -3.690798,3.92735 -1.102909,0.56593 -1.102909,0.56593 -0.117639,1.62681 0.566813,0.61031 0.985278,1.69366 0.985278,2.55074 0,1.48986 0,1.48986 8.379709,1.49366 8.37972,0.003 8.37972,0.003 9.64576,-3.92865 1.56572,-4.86329 1.57035,-4.74295 -0.17237,-4.4842 -1.10137,0.16352 -1.64096,-0.0469 -2.30272,-0.8979 -0.50014,-0.64318 -1.36756,-1.11145 -2.0588,-1.11145 -0.78127,0 -1.29785,-0.3293 -1.4932,-0.95192 -0.16426,-0.52353 -0.69361,-0.95189 -1.17631,-0.95189 -0.4827,0 -1.01204,-0.42836 -1.17631,-0.95192 -0.16427,-0.52356 -0.50018,-0.95192 -0.74646,-0.95192 -0.66903,0 0.0784,-2.52775 0.94203,-3.18577 1.16482,-0.88751 5.13251,-1.21698 8.74021,-0.72574 2.727313,0.37134 3.376723,0.3272 3.800053,-0.25851 0.69455,-0.96079 2.49416,-0.3408 3.01233,1.03784 0.22114,0.58853 1.85002,1.95797 3.61961,3.04321 5.29998,3.25031 6.14556,4.3072 5.87849,7.34723 -0.0403,0.4581 -0.39079,0.83292 -0.77898,0.83292 -0.38818,0 -0.70577,0.23746 -0.70577,0.52756 0,0.33025 -0.45679,0.41157 -1.22134,0.21748 -0.70089,-0.17809 -1.50663,-0.0704 -1.89091,0.25203 -0.5246,0.44039 -0.85722,0.39039 -1.53603,-0.23098 -0.69716,-0.63819 -1.12295,-0.69447 -2.17951,-0.28813 -1.10743,0.42591 -1.47926,0.34709 -2.37403,-0.50321 -1.59559,-1.51628 -2.63132,-0.6509 -3.867423,3.23139 -1.2868,4.04152 -1.28856,3.93321 0.0637,3.93321 3.181543,0 15.912443,9.96988 15.736703,12.32377 -0.28468,3.81311 0.49331,3.23876 4.76623,-3.51855 1.93834,-3.06534 3.47916,-4.24049 6.24868,-4.7657 0.96122,-0.18241 1.99289,-0.6303 2.29259,-0.99558 0.2997,-0.36527 1.15419,-0.66414 1.89887,-0.66414 1.81963,0 1.71736,-0.42504 -0.74628,-3.10112 -1.80838,-1.96431 -2.50887,-3.67071 -1.16091,-2.82802 1.03292,0.64576 0.29711,-0.76215 -1.4441,-2.7631 -2.17381,-2.4981 -2.21099,-2.61296 -0.91201,-2.81661 0.88995,-0.1395 0.83166,-0.30445 -0.70578,-1.99677 -1.96885,-2.16714 -1.97902,-2.20095 -0.66197,-2.20095 1.30835,0 3.91064,2.80918 6.20249,6.69563 0.99294,1.68382 1.65326,2.52602 1.46741,1.87159 -0.75099,-2.64426 -3.98296,-9.70053 -4.89094,-10.67819 -2.05224,-2.20972 -0.35393,-2.3744 2.0912,-0.20264 1.68209,1.49393 1.68209,1.49393 0.72301,-0.96736 -0.52748,-1.3537 -1.28755,-2.96839 -1.68904,-3.58822 -0.5263,-0.81253 -0.57483,-1.17923 -0.17392,-1.31442 0.54551,-0.18402 -0.0606,-1.667301 -1.55742,-3.811371 -0.31104,-0.44558 -0.42083,-0.95648 -0.24381,-1.13538 0.53105,-0.53722 2.52467,1.06438 3.68123,2.95735 0.59628,0.97593 1.16004,1.5441 1.25279,1.26261 0.23207,-0.70465 -2.0515,-6.28311 -3.01139,-7.35603 -0.42996,-0.48057 -0.6317,-1.02553 -0.44836,-1.21098 1.02436,-1.03619 4.42486,3.33922 6.15532,7.92008 0.6989,1.850061 1.42805,3.462131 1.62035,3.582371 0.98115,0.61338 -1.40582,-11.259981 -2.83768,-14.115181 -1.69402,-3.37799 -0.0712,-3.21396 2.16663,0.21911 0.89592,1.37432 2.26901,3.35549 3.0513,4.40261 0.78231,1.04709 1.84177,2.76054 2.35437,3.80765 0.51257,1.04709 0.93663,1.62119 0.94231,1.27578 0.0213,-1.23007 2.11245,-0.3547 2.88353,1.20643 0.75588,1.530301 0.75588,1.530301 2.82317,-2.61777 2.17663,-4.36748 3.35659,-5.24992 3.6373,-2.7202 0.0872,0.78535 0.47928,1.61137 0.87138,1.83563 0.56682,0.32423 0.64717,0.94002 0.39205,3.00541 -0.32086,2.597661 -0.32086,2.597661 1.65881,0.42518 2.83906,-3.11556 4.51641,-2.86715 3.25744,0.48243 -0.47224,1.256431 -0.43753,1.246101 1.3728,-0.40828 2.18538,-1.99718 3.65288,-2.97889 5.11087,-3.41904 1.56769,-0.47329 1.33356,0.62418 -0.47052,2.20549 -1.5292,1.3404 -1.5292,1.3404 -0.11764,0.63254 3.20534,-1.60735 4.03356,-0.57483 1.15659,1.441941 -1.38942,0.97396 -1.73804,1.44329 -1.29394,1.74183 0.45657,0.30691 0.25661,0.70141 -0.80368,1.5849 -0.98499,0.8208 -1.18015,1.17701 -0.64579,1.17866 0.42121,0.001 1.0564,-0.353 1.41159,-0.78732 0.68758,-0.84083 4.95418,-3.00555 5.93917,-3.01332 1.29003,-0.0108 0.37994,1.29245 -2.32441,3.32705 -1.5658,1.17799 -4.24974,3.85525 -5.96439,5.94946 -2.35802,2.88005 -2.71678,3.48744 -1.47264,2.49324 2.84104,-2.27022 6.29961,-4.14999 7.64408,-4.15463 1.89121,-0.005 1.58783,0.53462 -1.18308,2.11042 -1.9333,1.09947 -2.26096,1.44232 -1.52245,1.59308 1.73172,0.35348 1.75858,0.95332 0.0787,1.75964 -1.07937,0.5181 -1.57577,1.03689 -1.41007,1.47364 0.14272,0.37655 -0.0267,0.6761 -0.38279,0.67863 -0.83547,0.005 -6.29977,4.18801 -8.40217,6.43047 -1.64683,1.75654 -1.64683,1.75654 2.72972,-0.45249 4.23219,-2.13616 7.56737,-2.94197 7.93034,-1.91606 0.0966,0.27326 -0.62135,0.77664 -1.59559,1.11862 -1.96918,0.69124 -7.71205,3.9661 -9.535,5.43732 -0.91387,0.73754 -0.96634,0.86776 -0.23527,0.5836 2.03015,-0.78903 5.20549,-1.52303 5.76391,-1.33239 1.19074,0.4065 0.52567,1.02464 -1.88208,1.74925 -3.78092,1.13784 -4.08678,1.45465 -2.56978,2.66167 0.7017,0.55834 1.27583,1.3074 1.27583,1.66458 0,0.35718 0.78808,1.40152 1.7513,2.32073 1.46675,1.39977 1.75919,2.004 1.79979,3.71866 0.0267,1.12602 0.18539,2.58275 0.35278,3.2372 1.46472,5.72758 1.86611,20.95984 0.60625,23.00615 -0.3487,0.56632 -0.76281,2.37818 -0.92027,4.02635 -0.28356,2.96825 -0.87189,4.65089 -1.94771,5.57056 -2.33903,1.99958 -2.51722,3.8076 -0.37668,3.82185 3.81445,0.0243 5.61264,4.20153 4.35775,10.12047 -0.91822,4.33086 -2.44432,4.71645 -20.69626,5.22914 -12.20339,0.34277 -12.20339,0.34277 -14.27255,2.73552 -3.37364,3.90123 -10.50322,6.91714 -18.07125,7.64431 -1.74049,0.1673 -3.77938,0.60103 -4.5308,0.96398 -1.51924,0.73382 -16.085416,0.97421 -14.951196,0.24663 z M 98.7487,176.30611 c 7.39818,0.0696 9.83866,0.24096 10.16967,0.71393 0.28391,0.40577 0.32822,0.12547 0.12724,-0.80543 -0.16939,-0.78532 -0.76892,-1.92659 -1.33201,-2.53611 -0.77852,-0.84275 -1.10527,-1.98307 -1.36388,-4.75958 -0.82758,-8.88549 -0.43922,-8.39213 -4.76367,-6.05172 -2.10992,1.14188 -5.106623,2.45794 -6.659363,2.92456 -3.57662,1.07483 -3.73943,1.20778 -5.13649,4.19503 -1.17795,2.51871 -2.24456,8.36005 -1.26755,6.94177 0.41386,-0.60081 2.03445,-0.69943 10.225973,-0.62245 z"
       id="path1" /></g></svg>
