<svg version="1.1" id="svg1" width="24" height="24" viewBox="0 0 24 24" xmlns="http://www.w3.org/2000/svg">
   <defs id="defs1" />
   <g id="g1">
      <path style="fill:#000000;stroke-width:0.0603333"
         d="m 12.969159,23.952127 c -0.570129,-0.07124 -1.126116,-0.205807 -1.75778,-0.425442 l -0.61276,-0.213061 -0.6142324,0.138821 c -1.125518,0.254376 -1.647383,0.308961 -2.963046,0.309921 -1.69515,0.0012 -3.115146,-0.180755 -3.257533,-0.417499 -0.03704,-0.06159 -0.131698,-0.124464 -0.210342,-0.139715 -0.119007,-0.02308 -0.07912,-0.05627 0.237847,-0.197884 0.209459,-0.09359 0.390082,-0.193519 0.401384,-0.222073 0.0113,-0.02855 -0.538688,-0.187311 -1.222201,-0.352792 -1.636664,-0.396244 -2.61977305,-0.706109 -2.72200405,-0.857947 -0.04338,-0.06442 -0.133433,-0.146676 -0.200127,-0.182788 -0.107124,-0.058 -0.06125,-0.08775 0.393433,-0.255134 0.283082,-0.104212 0.63541305,-0.263838 0.78295605,-0.354723 L 1.4930156,20.616564 1.0494696,20.45487 C 0.76496855,20.351155 0.59670555,20.256407 0.58021555,20.190635 c -0.01414,-0.0564 -0.07439,-0.1289 -0.1339,-0.161119 -0.08925,-0.04832 -0.01455,-0.09193 0.42653,-0.24902 0.58514105,-0.208399 1.68877605,-0.73681 1.90020305,-0.909801 0.124376,-0.101765 0.125533,-0.115436 0.01727,-0.204017 -0.06382,-0.05222 -0.116037,-0.132663 -0.116037,-0.178766 0,-0.0461 -0.0629,-0.116447 -0.139782,-0.15632 -0.159348,-0.08265 -0.116826,-0.141059 0.102685,-0.141059 0.08243,0 0.291934,-0.06671 0.465567,-0.148248 0.505554,-0.237404 1.059727,-0.93247 1.511583,-1.895889 0.792935,-1.690644 1.930229,-2.622541 3.838288,-3.145085 l 0.484745,-0.132753 0.587729,-1.557276 c 0.46437,-1.23042 0.6201604,-1.5757595 0.7422474,-1.6453415 l 0.154519,-0.08807 -0.01459,-2.092451 c -0.01591,-2.282264 -0.07817,-2.893841 -0.4455944,-4.376802 -0.232949,-0.940215 -0.250504,-1.227179 -0.101061,-1.652023 0.135839,-0.386171 0.3307454,-0.66465102 0.6460594,-0.92308502 0.935454,-0.766708 2.356874,-0.699034 3.179269,0.151365 0.555298,0.57420602 0.688196,1.29164402 0.418833,2.26101202 -0.342411,1.232249 -0.427971,1.881677 -0.489965,3.719051 -0.07541,2.234805 -0.03227,3.011191 0.167301,3.011191 0.06281,0 0.294607,0.5260185 0.704611,1.5989925 l 0.611007,1.598992 0.361444,0.09395 c 0.57447,0.149317 1.29115,0.430432 1.71922,0.674359 1.07467,0.612374 1.70275,1.367651 2.35743,2.834845 0.36874,0.826373 0.76652,1.324479 1.24273,1.556163 0.2039,0.0992 0.38645,0.188719 0.40567,0.198934 0.0192,0.01021 -0.015,0.04587 -0.076,0.07923 -0.23968,0.130993 -0.2202,0.320119 0.0616,0.597802 0.35642,0.351239 0.71275,0.555624 1.37416,0.788197 0.45332,0.159404 0.52649,0.20085 0.40499,0.229405 -0.0816,0.01917 -0.18855,0.09688 -0.23777,0.172695 -0.0546,0.08409 -0.17922,0.156869 -0.3196,0.186631 -0.12657,0.02683 -0.21887,0.0744 -0.20512,0.105696 0.0508,0.115586 0.87162,0.56175 1.37061,0.74499 0.46928,0.172325 0.50331,0.195172 0.38563,0.258888 -0.071,0.03844 -0.13301,0.09224 -0.13783,0.119566 -0.005,0.02733 -0.0127,0.06992 -0.0175,0.09465 -0.005,0.02473 -0.22174,0.115362 -0.48203,0.201402 -0.60455,0.199829 -2.37424,0.68814 -2.49389,0.68814 -0.0501,0 -0.1478,0.03072 -0.21715,0.06827 -0.11779,0.06378 -0.10907,0.08163 0.13237,0.271197 0.14424,0.113244 0.22302,0.211671 0.17827,0.222716 -0.0441,0.01089 -0.10776,0.0735 -0.14147,0.139155 -0.0739,0.143884 -0.38492,0.201687 -1.54921,0.287898 -1.14639,0.08488 -2.55732,-0.01673 -3.63898,-0.262069 -0.595935,-0.135172 -0.802603,-0.130851 -1.160029,0.02425 -0.344709,0.149585 -0.428733,0.266852 -0.278992,0.389372 0.13264,0.108527 0.135692,0.157134 0.0099,0.157134 -0.05335,0 -0.113495,0.04673 -0.133664,0.103834 -0.03072,0.08697 -0.09182,0.102843 -0.376275,0.09773 -0.186782,-0.0034 -0.486921,-0.02451 -0.666976,-0.04701 z"
         id="path1" />
   </g>
</svg>