<svg width="100%" height="100%" viewBox="0 0 755 755" version="1.1" xmlns="http://www.w3.org/2000/svg" xmlns:xlink="http://www.w3.org/1999/xlink" xml:space="preserve" xmlns:serif="http://www.serif.com/" style="fill-rule:evenodd;clip-rule:evenodd;stroke-linejoin:round;stroke-miterlimit:2;"><path d="M46.272 1.957 C 24.853 7.149,7.573 24.304,1.927 45.981 C 0.221 52.531,0.000 90.453,0.000 376.871 C 0.000 663.288,0.221 701.222,1.927 707.863 C 7.391 729.124,22.440 745.121,42.783 751.295 C 50.847 753.742,55.599 753.773,380.646 753.445 L 710.329 753.112 720.119 748.438 C 733.137 742.222,742.222 733.137,748.438 720.119 L 753.112 710.329 753.481 380.646 C 753.821 76.626,753.687 50.347,751.758 43.062 C 746.393 22.787,727.274 5.307,706.062 1.284 C 701.557 0.430,591.197 0.035,376.385 0.105 C 105.462 0.193,52.319 0.491,46.272 1.957 M419.025 86.260 C 461.784 92.433,503.029 108.238,539.825 132.552 C 591.650 166.797,632.488 218.970,653.686 278.018 C 665.735 311.579,669.988 337.315,670.022 376.871 C 670.051 409.798,668.368 423.953,661.128 451.708 C 633.158 558.930,544.744 642.872,436.642 664.843 C 415.105 669.220,399.990 670.692,376.558 670.692 C 329.981 670.692,289.902 661.317,247.142 640.421 C 170.782 603.105,113.537 532.607,92.545 450.034 C 85.950 424.088,83.856 406.886,83.793 378.129 C 83.707 338.326,88.650 310.225,102.165 273.688 C 115.892 236.576,137.344 202.850,166.093 173.180 C 213.732 124.015,275.239 93.245,341.008 85.673 C 347.583 84.916,354.944 84.065,357.367 83.782 C 366.570 82.707,405.155 84.257,419.025 86.260 M364.917 227.930 C 276.896 233.829,212.063 319.172,229.784 405.813 C 244.762 479.045,309.346 529.988,383.162 526.795 C 413.370 525.488,443.722 514.935,466.212 497.918 C 473.906 492.097,490.330 475.839,496.334 468.100 C 525.958 429.921,535.000 376.434,519.602 330.473 C 502.938 280.735,463.841 244.469,412.772 231.377 C 400.954 228.347,380.587 226.880,364.917 227.930 M402.710 261.113 C 445.238 270.059,480.437 303.977,492.241 347.384 C 496.290 362.277,496.269 392.064,492.197 407.071 C 486.464 428.203,475.207 447.070,459.114 462.519 C 444.157 476.879,429.611 485.378,409.321 491.616 C 399.195 494.729,396.511 495.015,377.500 495.004 C 353.229 494.990,343.961 493.021,325.279 483.913 C 292.599 467.979,268.990 438.111,260.914 402.482 C 257.758 388.558,258.053 363.584,261.542 349.342 C 273.233 301.623,312.656 266.148,361.736 259.185 C 371.587 257.788,391.313 258.716,402.710 261.113 " stroke="none" fill-rule="evenodd" fill="black"></path></svg>