<svg xmlns="http://www.w3.org/2000/svg" xml:space="preserve" style="fill-rule:evenodd;clip-rule:evenodd;stroke-linejoin:round;stroke-miterlimit:2" viewBox="0 0 755 755"><path d="M347.814 6.238 C 244.369 15.606,151.362 67.491,86.064 152.258 C 50.828 198.000,24.577 260.473,15.738 319.617 C 12.630 340.413,11.855 393.097,14.351 413.883 C 29.412 539.288,103.038 645.313,214.561 702.196 C 318.168 755.041,440.869 755.509,544.955 703.455 C 586.360 682.748,620.039 657.049,653.852 620.358 C 697.995 572.458,726.794 515.931,742.963 445.450 C 750.591 412.200,750.363 337.548,742.518 299.483 C 729.298 235.347,697.858 173.738,653.899 125.831 C 637.271 107.709,616.125 88.495,599.596 76.486 C 548.612 39.448,484.795 14.030,426.575 7.574 C 410.410 5.781,361.938 4.959,347.814 6.238 M405.813 187.477 C 448.368 191.988,493.258 215.757,521.732 248.855 C 541.339 271.647,554.681 296.696,563.442 327.167 C 566.801 338.849,566.879 339.878,566.864 372.467 C 566.850 404.932,566.757 406.162,563.341 419.025 C 553.953 454.384,539.112 479.977,512.650 506.439 C 484.979 534.109,456.708 549.504,418.582 557.662 C 401.040 561.416,362.141 561.728,346.042 558.244 C 293.476 546.869,252.333 519.416,224.339 477.036 C 210.619 456.265,199.454 428.718,195.502 405.886 C 192.624 389.263,193.706 344.285,197.304 330.942 C 207.338 293.732,222.800 266.493,248.424 240.882 C 280.291 209.032,319.103 190.396,360.512 187.062 C 371.946 186.141,395.222 186.355,405.813 187.477 M341.008 233.506 C 302.184 245.165,268.914 271.757,250.590 305.775 C 244.625 316.848,237.251 338.208,235.384 349.817 C 232.193 369.661,234.421 400.991,240.329 419.382 C 252.498 457.254,280.622 489.140,317.729 507.134 C 340.276 518.067,345.637 519.070,381.275 519.017 L 412.104 518.972 424.570 514.282 C 464.751 499.162,492.732 474.529,510.688 438.465 C 520.682 418.395,523.839 406.536,525.416 383.145 C 529.284 325.801,496.881 270.102,444.192 243.521 C 438.309 240.553,428.683 236.536,422.800 234.595 C 412.461 231.182,411.096 231.051,381.904 230.679 C 352.592 230.305,351.390 230.388,341.008 233.506 " stroke="none" fill-rule="evenodd"></path></svg>