<svg xmlns="http://www.w3.org/2000/svg" width="24" height="24" viewBox="0 0 24 24"><path d="M13.218 23.107c1.137-.838 1.143-.843 1.125-.948-.036-.2-1.023-7.892-1.014-7.9.005-.005 1.456 1.093 3.225 2.44l3.216 2.449 1.282-.557a37 37 0 0 0 1.315-.588c.035-.033-.267-2.815-.31-2.853-.013-.012-1.69-.715-3.727-1.562s-3.701-1.549-3.701-1.558 1.67-.712 3.713-1.561c2.042-.85 3.719-1.555 3.727-1.567.037-.059.326-2.818.297-2.845-.017-.016-.61-.28-1.316-.587l-1.284-.557-3.214 2.448a328 328 0 0 1-3.224 2.44c-.007-.008.954-7.523 1.011-7.901.016-.107.007-.114-1.125-.949C12.586.488 12.059.11 12.042.11s-.545.38-1.174.843c-1.137.837-1.144.843-1.125.948.036.2 1.023 7.892 1.014 7.9-.005.005-1.456-1.093-3.225-2.44l-3.216-2.45-1.282.558c-.706.307-1.297.571-1.315.588-.035.033.267 2.815.31 2.853.013.012 1.69.715 3.726 1.562s3.702 1.548 3.702 1.558-1.671.712-3.713 1.561c-2.042.85-3.719 1.555-3.727 1.567-.037.059-.326 2.818-.298 2.845.018.016.61.28 1.317.587l1.284.557 3.214-2.448a328 328 0 0 1 3.224-2.44c.005.005-.217 1.753-.492 3.885a855 855 0 0 0-.512 4.003l-.011.128 1.125.835c.618.459 1.143.835 1.166.837s.555-.376 1.184-.84" style="fill:#000;stroke-width:.0335779"/></svg>
