<svg xmlns="http://www.w3.org/2000/svg" fill="currentColor" viewBox="0 0 24 24">
  <path d="M 10.75 1.25
          A 1.25 1.25 0 1 1 13.25 1.25
          L 13.25 22.75
          A 1.25 1.25 0 1 1 10.75 22.75
          Z"/>

  <path d="M 1.25 10.75
          L 22.75 10.75
          A 1.25 1.25 0 1 1 22.75 13.25
          L 1.25 13.25
          A 1.25 1.25 0 1 1 1.25 10.75
          Z"/>

  <path d="M 2.1161 3.8839
          A 1.25 1.25 0 1 1 3.8839 2.1161
          L 21.8839 20.1161
          A 1.25 1.25 0 1 1 20.1161 21.8839
          Z"/>

  <path d="M 20.1161 2.1161
          A 1.25 1.25 0 1 1 21.8839 3.8839
          L 3.8839 21.8839
          A 1.25 1.25 0 1 1 2.1161 20.1161
          Z"/>
</svg>

