<svg xmlns="http://www.w3.org/2000/svg" width="26" height="25" fill="none" viewBox="0 0 26 25"><path fill="#000" d="M9.8 23.3v.2h.1l-.2.2-.5.2-.4.3q-.5.5-1 .5l-.3.1-.3-.1v-.2l.2-.2v-.1l-.7.2v-.1q-.3 0-.2-.2l.6-.7h2.7m8-22.6 1 .1q-.9.7-1.6 2.2l-.3.4h-.2v.4l-.4 1-.3.6h-.2c-.3 0-.6.6-.3.8v.1l-.4 1-1 2-.7 1.6-.2.4h-.4v.9l-.6 1.3h-.7.6v.3l-.3.2q-.2 0 0 .2v.2l-.2.2q0 0 0 .1l-.3.7-.3.5h-.6l.2.2q.5 0 0 .2-.4 0-.4.3 0 .1.3.3l-.8 1.8v-.9q-.2-.2-.3.3v.2h-.3V18q0-.7-.2 0v.5h.6v.4q0 .1-.3.8l-.9 1.9-.5 1.2-.5.5H4.8A5 5 0 0 1 0 18.5v-13C0 3 2.2.7 4.8.7zm2.7.9q1.1.7 1.6 1.9v1l.5.8v13.2c0 2.7-2.2 4.8-4.8 4.8h-8l1.1-2.2h.2v-.7l.2-.2V20l.1-.2v.2q0 .3.5.3h.3v.7h.1v-1.2l-.5-.1h-.3v-.3q.2 0 .2-.2l.3-.2.2-.2h.2v-1l.3-.7.1-.2h.4q.5 0 .5-.4 0-.3-.5-.3-.1 0 0 0v-.3h.1v-.2l.3-.3V15l.2-.2v-.2l.1-.1.1-.3q0 0 0-.1l.2-.2.1-.2.1-.3.2-.4.1-.3.1-.1v-.1l.1-.1v-.2l.2-.2V12l.2-.2v-.3h.1l.1-.2q0-.2 0-.2h.1v-.1l.1-.2h.2l.2-.1q.2-.2 0-.2h-.2v-.2l.2-.2.2-.3.2-.6.2-.4.1-.4.1-.2q.3 0 .3.2v.2q.2 0 .2-1v-.3q0-.2 0-.2l.2-.4.3-.5V6v.1q0 .4.5.3l.4-.1v-.6q0-.6-.2-.7t0-.1v-.2l.1-.4.2-.3v-.1h.1l.1-.4q.2-.4.6-.4h.2v.2l-.1.3h-.2v.7q.2 0 .2-.3l.1-.3.2-.2V3h-.7l.1-.1.3-.3.4-.5.2-.3zm-6.9 18.9q-.1-.5-.7-.4l-.1.1v.6l.2.3h.3q.6-.1 0-.2-.8 0 0-.3h.3zm-9-.7c-.1-.1-.7-.2-.8 0v.5h.5v.8h.3v-1.3m.5-.1v.9h.5v.5l.1-.3v-.3H6h-.1V20l-.2-.2v.2q0 .4-.2.3h-.2v-.7m14.6 0h-.4q-.2.2.3.2h.3v.4h-.2q-.6-.1-.5.4v.4h.9v-.2h-.7v-.4h.6v-.8zM6.6 20l-.2.1-.1.4v.2l.2.1q.1.2.4.1.5 0 0-.1-.4 0-.4-.4 0-.3.4-.3h.3l-.3-.1zm9.5 0h-.5l.2.1q.4.1 0 .2-.4 0-.4.4 0 .3.5.2h.3v-.9m1.4-.3c-.1-.1-.7-.2-.8 0v.5h.6v.7h.2v-1.2m-15-.1v.2H3v.1q0 .2-.2.3l-.1.2v.3q0 .4.1 0l.2-.4.2-.2v-.5zm15.7.4q0-.5-.2-.4v.9h.5v.2q.1.4.2 0l-.1-1v.3l-.1.3h-.3zm-2.4.5h.2q.1.2-.3.3h-.1v-.3zm-2.6-.4q.3 0 .2.3h-.2q-.3 0-.2-.2zm-8.8-.3v.2h-.5V20zm7.7 0v.2h-.4V20zm5.2 0v.2h-.5V20zm-12-2.3H5v.1l.3.1v1h-.1q-.4 0 .2.1h.4v-.5.2l-.2.2v-1.2zm1.3 0h-.3q0 .2.2.2h.1v1h-.1q-.3 0 .2.1h.5v-.2l-.1-.3v.3h-.2v-1.1zm12.2 0H18v.3q-.1.4.4.3h.3l-.1.8h.2v-1.3m-15 .2h.6v.1q0 .1-.2.3l-.1.2v.6l.1-.3v-.2l.4-.4v-.5h-.9zm9.8-.1c-.1-.1-.7-.2-.8 0h.7v.5H13l.2.2h.3v.4h-.7v.2h.4l.4-.1v-1.2m3.4.3-.2.1-.1.4v.2l.1.1q.3.2.4.1.4 0 0-.1-.4 0-.4-.3.1-.4.5-.4h.2l-.3-.1zm-.9 0h-.5l.2.1.2.1v.2h-.2q-.4 0-.4.3t.5.2h.3V18m-13.6-.4v1.3h.2q.6.1.6-.4l-.1-.4L3 18h-.4v-.2zm17 .2q-.1-.4-.2-.1v1.2h.7V18l-.4-.1h-.2zm-7.4.7v.2zv-.1zm4 0-.1.1-.2.1h-.2v-.2zm-13.4-.3H3v.2q0 .4-.3.3t0-.5m16.8 0q.4-.2.4.3v.2h-.1q-.5 0-.3-.5m-.9-.4v.2h-.5v-.2zm-15.9-2-.1.2q-.3.4 0 .7l.1.2H3q.4-.1 0-.2c-.6-.1-.6-.6 0-.6q.6-.1 0-.2zm1.8-.2c0-.1-.6-.2-.7 0h.6v.5h-.2q-.4 0 0 .2h.2v.4h-.6v.2H4l.4-.1zM7 16q-.3-.3-.6 0v.7l.5.2h.3v-.1l-.3-.1h-.1l-.3-.2h.7v-.2zm-1.5-.5H5q-.1.3.4.2h.3v.1q0 .2-.2.4l-.2.1v.3q.2.5.2 0v-.3l.3-.2v-.6zm4.1.5c0-.2-.6-.2-.5 0h.2q.5.1 0 .3-.5 0-.4.3t.6.2h.2V16m9.8-.3q0-.3-.1-.1v1.2h.7V16l-.4-.1h-.2zm-3.9-.2h-.1v1.3h.8v-.5h-.7v-.8m2.7.4q0-.5-.2-.4v.9h.5v.2l.1.2c.2 0 .2-1 0-1.1v.6h-.4zm-1-.4h-.5q-.1.3.3.2h.3v.1l-.1.3-.2.2v.3q.1.4.2 0 0-.2.2-.4l.1-.2v-.5zm-8 1q0 0 .2 0 .4 0 0 .1H9zm1.4-.1h.2q0 .3-.3.3h-.1v-.3zm2.8 0v.3h-.2q-.5 0 0-.3zm2.4 0 .3.1v.2h-.5v-.3zm3.7-.3h.4v.5h-.1q-.5-.1-.3-.5m-12.8 0H7q0 .3-.3.2h-.2v-.2zM3 13.4h-.4v.1H3v.5l-.3.2v.6l.1-.3.2-.4.2-.2v-.5zm6.8 0-.1.2v.2H9l-.1.1q-.3.3 0 .7v.2h.7zm-5.5 0h-.4v.1h.6v.2q0 .1-.2.3l-.1.2v.6l.1-.3v-.2l.4-.4v-.5zm6.8.4q.1-.5-.5-.4t0 .2h.4v.4h-.3q-.5-.1-.4.4v.4h.8v-.1l-.3-.1h-.3v-.4h.6zm6.4-.3h-.7v.5h.6v.8h.2v-1.3m2.7.7c0-.4-.5-.6-.7-.3q-.3.3 0 .7v.2h.7v-.1h-.3q-.4 0-.4-.3h.7zm-1.3-.7H18v1.2h.8v-1.2m-13 0q.1-.1-.4 0h-.2v.7h.5v.4H5q0 .1.5.1h.3V14h-.4v-.4h.2zm1.3 0v.3h-.7l-.1.5q0 .6.5.4h.4v-.6zm9 0v.3h-.6l-.1.5q0 .5.5.4h.3v-1.3m-7 .5h.4v.5l-.2.1h-.1Q9 14.3 9 14m-2.4 0q.3 0 .3.3t-.4.3l-.1-.3V14zm9 0q.4 0 .4.3-.1.3-.4.3h-.1V14zm3-.4-.1 1h-.5v-1zm.8.4.4.1v.1h-.2q-.5 0-.2-.2m-2.2-.4v.2h-.5v-.2zm-1.2-2.2h-.5v.2l-.2.1v.1q.2 0 .2.5v.3h.2V12q.3-.1 0-.2-.1-.1.2-.2zm-12.4 0v1.2h.8v-.5H4v-.8zm5.4.1q0-.3-.2 0v1.1h.7q.3-.5 0-.9h-.5zm11 .6q-.2-.7-.7-.3-.3.4 0 .7c0 .2.7.2.7 0h-.6v-.2h.5zm-17.3-.7h-.4zH3v.5h-.6v.8h.4q.8-.1 0-.2h-.3V12h.7v-.7zm2.5 0-.2.3v.1h.2v.9-.8h.2q.2-.1 0-.2-.1-.1 0-.2.6-.1 0-.2zm1.6.3-.4.1-.2.1v.3q0 .5.6.5l.3-.1h-.3q-.4-.1-.4-.5 0-.2.4-.2.5-.1 0-.2m11.5-.4-.4.1h.6v.5h-.2l-.3.1h.3l.2.1v.4H18l.4.2h.4v-1.4zm-8 0v.8h.5v.4h-.7q0 .1.5.1h.3V12l-.5-.1v-.4h.3q.5-.1-.1-.2zm1.2 0v.9h.4v.2l.1.2q.2 0 .1-.8 0-.6-.2 0v.3h-.3v-.8m5.1.1v1.2h.8v-1.2zm-7.6.5h.5v.3q0 .1-.2.3h-.2q-.3-.3 0-.6m8.2-.4v1h-.5v-1zm-12.9.7v.3h-.2q-.4 0-.3-.2l.3-.1zm15-.3.5.1v.1h-.2q-.5 0-.2-.2m-6.4-.4q0 0 0 .1 0 .3 0 0zM4.1 9.2l-.4.1h.7v.5h-.7v.8h.4l.4-.1H4V10h.6v-.7zm1.3 0H5v.6h.7v.8h.1V9.3zm4.3.1h-.5v.2l-.2.1H9l.2.2v.8l.2-.4v-.4q.5-.1 0-.2-.1-.1.2-.2zm.9 0h-.4zl.4.1v.4h-.7v.8h.4l.4-.1h-.6V10h.6v-.7zm1.1 0h-.2zh.1v1.1h-.3l.4.2h.4V10l-.1.2-.1.2V9.2zm6.4 0v.7h.5v.4H18q0 .2.5.2t.3-.4q0-.4-.3-.4h-.2v-.4h.5l-.4-.2zm-11.7 0v.9h.5v.1q0 .5.1 0v-1l-.1.4v.2h-.4v-.7m-3.1.6q0-.8-.2-.6v.4l-.3-.2-.3.2v.4q-.1.6.4.4h.4zm9.7-.3q0-.5-.2-.3v.8h.5v.2q.1.5.2 0v-.9q-.2 0-.2.3v.3H13zm4-.3h-.3v1.2h.8V10h-.7v-.6zm2.2 0v1.2h.8V10h-.6v-.8zm-16.6.5H3v.5l-.2.1h-.1q-.2-.3 0-.6m14.7.3v.3h-.2q-.3 0-.3-.2h.5m2.2 0h.4v.3h-.5zM5.7 9.4v.2h-.5v-.2zM9 7v.5l.1.1h.6v.8h.1V7zm-4.4.1H4v.2l-.2.1.1.2v.4l.1.4v-.8h.2q.3-.1 0-.2h-.1v-.1l.3-.1zm.7.4q-.6.8.4.9l.2-.1h-.2q-.4 0-.4-.4 0-.3.4-.3.5-.1 0-.2h-.2zm13.2-.5H18q-.2.3.3.2h.3v.4l-.3.2v.6l.1-.3V8l.4-.4v-.5zm1.6.5s-.5-.2-.5 0h.2l.2.2h-.2q-.5 0-.5.4 0 .3.5.2h.4v-.8M12 7.2h-.4zh.3v.5H12q-.5.1 0 .2h.2v.4h-.3l-.3.1h.8V7.2zm1.3 0h-.4zh.4v.5h-.2q-.6 0-.1.2h.2v.4h-.3l-.3.1h.8V7.1zM6.3 8.3h.3q.7.1.6-.4v-.3L7 7.6h-.3q-.3 0-.2-.2l-.1-.2h-.1zm4.7-.8s-.5-.2-.6 0h.2q.2 0 .2.2h-.5l-.2.4.2.2h.7v-.8m-8.1-.5h-.3v.4l-.1.3v.6h.8v-.6h-.1L3 7.4v-.3zM3 8v.4h-.5V8l.3-.1zm16.6.2q.4 0 .1.2l-.4-.1v-.1zm-9.1 0q.5 0 .2.2l-.4-.1v-.1zm-4-.3q.4-.3.4.2-.1.6-.5.1V8m10.6-.2v.2l-.1-.1m-14.4 0v-.3l.1.2v.2zm6.8-.3v.3H9v-.3zM19.8 0h1.8q.8.3 1.4.9l.5.9.3.6.8.7.1.5.4 1.1.2.7-.5.4L24 5l-.4-.7v.4l.2.9v.5l-.3.3h-.3l-.5-1-.2-.2q0-1-.5-1.8v-.8q-.7-1.1-1.3-1.2h-.3q-.7-.5-1.8-.7zm-9.5 5zv1.2h.8v-.5h-.6V5m9 0v1.2h.8V5.2zm-16.6.3-.1.2-.2.3q0 .2.2.3l.1.2H3l.3-.1H3q-.4 0-.4-.4 0-.3.4-.3h.3q0-.2-.3-.2zm1-.4v1.4h.8v-.2q.1-.4-.3-.4h-.3V5zm1.6 0-.3.1h.2l.2.1v1h-.2q-.4.1.2.2h.4v-.6.2q0 .3-.2.2V5zm7.9.4-.3.1-.1.4v.4h.8-.3L13 6l.6-.1v-.2q0-.4-.4-.4M6.5 5v.8H7v.4h-.4q-.5 0-.1.1H7v-.6h-.5v-.5H7Q7.4 5 7 5zm3.2.5H9h.2q.5.2 0 .3h-.2l-.1.1v.4h.7v-.8m2-.5v.8h.4v.4h-.6l.4.1h.4v-.6h-.5v-.5h.3q.5-.1 0-.2zm7 .2v1H18v-.4l.2-.4v-.1h.3M4.3 6v.2h-.5V6zm6.5 0v.2h-.5V6zm9-.8v1h-.5v-1zM9.3 6q.5 0 .2.2L9 6V6zm6.3-.3q.2-.2.3 0l-.3.4zm-2.6 0q.3-.2.4 0v.1h-.2q-.4 0-.2-.2m.6-2.7h-.8v1.2h.9v-.6zM5.2 3v.7h.5v.4H5l.7.2h.2v-.7h-.5v-.4h.2l.2-.2zM3.9 3v.7h.5v.4h-.7q.3.3.7.2l.2-.1v-.3q0-.4-.3-.4H4v-.4h.4q0-.2-.3-.2zm-1 0h-.4v1.3h.7V3zm6.5 0H9v.2l-.1.5v.5h.7v-.6l-.1-.4V3zm6.7.4h-.6q-.2.4 0 .7l.4.2q.6-.1 0-.2h-.3v-.2h.6v-.2zM11.7 3l-.2.1.2.1.1 1h-.2l-.1.1h.8V4q0-.5-.1 0L12 4V3zM7.1 3v.5h-.3q-.5-.1-.5.4t.4.5h.5v-.7zm3.5 0-.4.1q0 .2.3.1h.4q0 .3-.2.5l-.2.1V4q.1.5.2 0 0-.2.2-.3l.1-.2V3zM3 3.1H3v1h-.5v-1zm3.8.4.3.3-.3.3q-.3-.2-.2-.5zm2.4.2h.5v.4H9v-.4m4-.6h.3v1H13v-1zm2.5.4h.4q.1.3-.2.2t-.2-.2m-6.3-.4v.4-.4"/></svg>