<svg version="1.1" id="svg1" width="24" height="24" viewBox="0 0 24 24" xmlns="http://www.w3.org/2000/svg">
   <defs id="defs1" />
   <g id="g1">
      <path style="fill:#000000;stroke-width:0.0164435"
         d="m 2.6617548,23.989425 c -0.1982,-0.029 -0.34232,-0.10256 -0.46632,-0.23799 -0.0936,-0.10223 -0.15446,-0.22427 -0.17969,-0.36041 -0.0115,-0.0618 -0.0165,-2.10011 -0.016,-6.39402 l 8.3e-4,-6.30334 -0.71628,-0.006 c -0.77913999,-0.007 -0.76561999,-0.005 -0.94380999,-0.10793 -0.0814,-0.047 -0.22138,-0.19901 -0.26548,-0.28829 -0.0883,-0.17867 -0.0991,-0.3896096 -0.03,-0.5825496 0.0392,-0.10953 0.0756,-0.16949 0.15747,-0.25935 0.10369,-0.11387 11.33869019,-9.30813999 11.44518019,-9.36627999 0.24746,-0.13509 0.51607,-0.10519 0.76619,0.0853 0.0522,0.0397 1.57857,1.28061999 3.39191,2.75747999 1.81335,1.47685 3.30736,2.68519 3.32003,2.68519 0.0196,0 0.0239,-0.13641 0.0289,-0.9066 0.006,-0.98695 0.003,-0.95483 0.10341,-1.13298 0.10672,-0.19022 0.2886,-0.31871 0.49906,-0.35255 0.15962,-0.0257 1.19557,-0.009 1.27841,0.02 0.26005,0.0925 0.45274,0.31816 0.49405,0.57867 0.009,0.0573 0.0157,0.85238 0.016,1.93554 l 5.8e-4,1.83827 1.10176,0.90242 c 0.60596,0.49633 1.13328,0.93858 1.17182,0.98277 0.0911,0.10451 0.14956,0.23013 0.17194,0.36965 0.0601,0.3744696 -0.21387,0.7673896 -0.57772,0.8286196 -0.0534,0.009 -0.40834,0.0164 -0.78877,0.0164 l -0.69169,10e-5 v 6.26375 c 0,4.44318 -0.005,6.29235 -0.0176,6.36214 -0.0401,0.22403 -0.19212,0.43047 -0.39192,0.53219 -0.14028,0.0714 -0.26223,0.10576 -0.45609,0.12839 -0.17327,0.0202 -18.2692802,0.0315 -18.4061602,0.0115 z m 17.3309702,-1.64376 c 0.26694,-0.10569 0.382,-0.22773 0.47068,-0.49923 l 0.0382,-0.11698 0.004,-6.13033 c 0.005,-6.7193896 0.0105,-6.2885396 -0.0907,-6.5999596 -0.0743,-0.22857 -0.16729,-0.38227 -0.33414,-0.55246 -0.22322,-0.22769 -7.52406,-6.16877 -7.65735,-6.23119 -0.0562,-0.0263 -0.16562,-0.0635 -0.24312,-0.0827 -0.26245,-0.0649 -0.57626,-0.0176 -0.7434,0.11219 -0.22942,0.17811 -7.5180202,6.12585 -7.5736402,6.18034 -0.20353,0.19941 -0.34649,0.48228 -0.41049,0.81225 -0.0171,0.088 -0.0211,1.2767896 -0.0211,6.2751796 0,5.98429 9e-4,6.17002 0.0304,6.28354 0.062,0.23844 0.18914,0.41681 0.35768,0.50198 0.18774,0.0949 -0.3751,0.089 8.1872002,0.0858 l 7.89578,-0.003 z M 6.5788448,19.838375 c -0.17404,-0.0279 -0.32571,-0.10971 -0.44278,-0.23898 -0.0928,-0.10249 -0.1524,-0.23027 -0.1735,-0.37211 -0.01,-0.0659 -0.0139,-1.73167 -0.0111,-4.48326 l 0.004,-4.37842 0.0377,-0.13369 c 0.0519,-0.18419 0.13872,-0.3473896 0.25043,-0.4707296 0.12366,-0.13653 5.2695202,-4.3239 5.4036602,-4.39714 0.18575,-0.10143 0.40454,-0.10885 0.59836,-0.0203 0.0943,0.0431 0.15068,0.0865 0.8452,0.6516 0.32036,0.26065 1.47075,1.19609 2.55642,2.07877 1.08567,0.88268 2.01399,1.64675 2.06293,1.69795 0.10634,0.11123 0.17904,0.2464096 0.22966,0.4269996 l 0.0373,0.13311 v 4.44527 c 0,4.88421 0.008,4.51625 -0.099,4.70507 -0.10511,0.18594 -0.28685,0.317 -0.48637,0.35075 -0.0892,0.0151 -10.7196302,0.0201 -10.8133402,0.005 z m 9.5748302,-1.61877 c 0.12901,-0.0396 0.21324,-0.11509 0.27871,-0.24985 l 0.0566,-0.11658 0.005,-3.45133 c 0.005,-3.8696 0.0129,-3.60036 -0.11077,-3.79165 -0.0351,-0.0542 -0.10193,-0.13187 -0.14862,-0.17255 -0.30465,-0.26547 -3.75215,-3.0737696 -3.82694,-3.1173896 -0.13155,-0.0767 -0.29204,-0.10992 -0.49383,-0.10213 -0.1402,0.005 -0.1762,0.0128 -0.2392,0.0493 -0.0996,0.0576 -3.9497202,3.1429396 -4.0486502,3.2444296 -0.0874,0.0896 -0.14904,0.21395 -0.17325,0.3492 -0.0106,0.0594 -0.0148,1.28033 -0.012,3.53272 l 0.004,3.44192 0.0352,0.0887 c 0.0632,0.15918 0.16475,0.26172 0.29873,0.30154 0.0343,0.0102 1.57374,0.0167 4.1732502,0.0177 3.64772,10e-4 4.12839,-0.001 4.20201,-0.024 z m -6.11695,-2.06318 c -0.2860402,-0.0531 -0.5324702,-0.30617 -0.5779802,-0.59353 -0.0219,-0.13852 -0.0215,-3.39996 4.5e-4,-3.5196 0.0224,-0.12227 0.0963,-0.27981 0.17179,-0.36651 0.0793,-0.0911 1.9084202,-1.5102 2.0302802,-1.57519 0.13408,-0.0715 0.30128,-0.0927 0.44408,-0.0563 0.061,0.0155 0.14071,0.0432 0.1772,0.0614 0.10741,0.0537 1.95032,1.48924 2.02849,1.5801 0.0865,0.10052 0.14359,0.22329 0.16415,0.35293 0.0207,0.13029 0.0205,3.30731 -1.8e-4,3.43769 -0.0496,0.31276 -0.29328,0.56835 -0.5835,0.61198 -0.0575,0.009 -0.75254,0.027 -1.54454,0.0408 -0.79201,0.0138 -1.61839,0.0286 -1.83642,0.0328 -0.21802,0.004 -0.43124,0.001 -0.47382,-0.007 z m 2.88973,-1.60731 c 0.0761,-0.0419 0.0747,-0.0239 0.0753,-0.95454 4e-4,-0.70701 -0.004,-0.89287 -0.0215,-0.93649 -0.0141,-0.0348 -0.14404,-0.16759 -0.36,-0.3679 -0.32938,-0.3055 -0.3426,-0.31565 -0.51914,-0.39837 l -0.18115,-0.0849 -0.0696,0.056 c -0.17563,0.14112 -0.8497,0.71644 -0.87863,0.74991 -0.0314,0.0363 -0.0325,0.0645 -0.0368,0.96277 -0.004,0.90991 -0.004,0.9259 0.0283,0.95917 0.0321,0.0332 0.0505,0.0338 0.98034,0.0338 0.68938,0 0.95721,-0.005 0.98292,-0.0194 z"
         id="path1" />
   </g>
</svg>