<svg viewBox="0 0 24 24" width="24" height="24" xmlns="http://www.w3.org/2000/svg">
  <path
    d="M.235 3.058c0-.729.591-1.319 1.319-1.319h20.892c.728 0 1.319.59 1.319 1.319v17.884c0 .729-.591 1.319-1.319 1.319H1.554c-.728 0-1.319-.59-1.319-1.319V3.058Zm.66 0v17.884c0 .364.295.66.659.66h20.892a.66.66 0 0 0 .659-.66V3.058a.66.66 0 0 0-.659-.66H1.554a.66.66 0 0 0-.659.66Zm5.26 4.558L3.04 10.415l.97-2.449-1.369-.923 3.115-2.798L4.702 6.85l1.453.766Zm1.079 1.78h3.538v.687H7.234v-.687Z"
    style="stroke:#000;stroke-width:.4px" />
</svg>