<svg xmlns="http://www.w3.org/2000/svg" width="24" height="24" viewBox="0 0 24 24"><path d="M8.537 3.828 C 7.547 4.694,6.793 5.367,3.348 8.457 L 0.355 11.140 0.512 11.280 C 0.598 11.357,1.351 11.881,2.184 12.444 C 3.018 13.008,3.803 13.539,3.928 13.624 C 4.096 13.739,4.157 13.805,4.158 13.874 C 4.160 13.997,3.850 14.814,2.705 17.699 L 1.769 20.058 2.074 20.272 C 2.242 20.390,2.443 20.519,2.520 20.559 L 2.660 20.631 3.400 19.970 C 5.709 17.907,11.230 12.936,11.474 12.700 L 11.609 12.570 10.954 12.210 C 10.594 12.012,9.697 11.531,8.960 11.140 C 8.223 10.750,7.594 10.407,7.563 10.377 C 7.489 10.307,7.495 10.294,8.967 6.643 C 10.056 3.942,10.115 3.781,10.052 3.711 C 9.964 3.614,9.352 3.200,9.297 3.200 C 9.273 3.200,8.931 3.482,8.537 3.828 M13.090 18.430 L 13.100 19.900 18.430 19.910 L 23.760 19.920 23.760 18.440 L 23.760 16.960 18.420 16.960 L 13.079 16.960 13.090 18.430 " stroke="none" fill-rule="evenodd"></path></svg>