<svg xmlns="http://www.w3.org/2000/svg" width="24" height="24" viewBox="0 0 24 24">
  <g transform="translate(12.6, 10) scale(1.45) translate(-12, -12)">
    <path d="M11.328 5.352a7.63 7.63 0 0 0-.973.144c-.648.133-1.722.559-2.128.844a.33.33 0 0 1-.079.043c-.066 0-.773.531-1.093.824-.477.434-1.32 1.445-1.32 1.59a.51.51 0 0 1-.067.113c-.063.09-.344.652-.441.883a8.374 8.374 0 0 0-.45 1.582 5.335 5.335 0 0 0-.086.914 7.106 7.106 0 0 0 .254 2.219c.012.055.035.129.047.168.008.039.051.172.094.289.086.242.09.176-.043.66-.125.453-.152.594-.156.828l-.004.238.117.153c.066.082.188.207.273.273.157.125.18.192.102.293a.515.515 0 0 0-.031.086c-.008.031-.024.102-.04.156-.1.387-.12.63-.05.766l.047.09-.09.09c-.106.097-.145.136-.457.398a9.609 9.609 0 0 0-.242.203 4.049 4.049 0 0 1-.168.145l-.168.144c-.008.008-.164.145-.348.301-.398.34-.394.336-.394.363a4.05 4.05 0 0 0 2.469 1.375l.312.051c.191.04 4.36.055 7.668.035l2.754-.02-.102-.097a6.215 6.215 0 0 0-.586-.473c-.113-.078-.156-.113-.156-.144 0-.008.059-.031.133-.055.16-.05.242-.129.32-.293.031-.066.067-.136.078-.16a.209.209 0 0 0 .02-.078c0-.02.008-.055.02-.078.038-.074.07-.207.085-.344.024-.18.024-.18.266-.215.48-.066.7-.191.824-.468l.055-.114a.235.235 0 0 0 .023-.09c0-.023.008-.05.02-.058.011-.008.027-.043.035-.078.008-.04.035-.153.062-.258.059-.227.098-.524.078-.633-.015-.121-.05-.133-.37-.14-.575-.005-.883-.036-1.301-.122-.239-.05-.297-.062-.606-.152-.05-.016-.12-.031-.156-.04-.04-.007-.074-.023-.082-.034-.004-.012-.031-.02-.059-.02a.235.235 0 0 1-.09-.023c-.023-.012-.093-.047-.16-.078-.32-.149-.77-.602-1.191-1.207-.09-.133-.207-.297-.254-.364l-.215-.297-.125-.175.078-.145c.219-.39.305-.738.305-1.234 0-.34-.016-.43-.102-.719-.062-.21-.058-.215.106-.395.082-.085.312-.332.508-.55l1.011-1.114c.145-.16.274-.3.286-.316.015-.012.117-.129.23-.25l.48-.527.493-.54c.12-.132.285-.316.37-.406.083-.093.165-.18.177-.195.015-.012.109-.113.207-.226a4.15 4.15 0 0 1 .246-.266c.414-.399.004-1.172-.633-1.192-.152-.003-.168-.011-.266-.101a8.344 8.344 0 0 0-1.097-.8 7.534 7.534 0 0 0-2.172-.845c-.16-.03-.258-.046-.64-.105-.216-.035-1.153-.05-1.462-.027M9.191 14.98c0 .043-.004.043-.035.02-.02-.016-.035-.043-.035-.063 0-.019.016-.027.035-.019.02.008.035.035.035.062m.145.137c0 .012-.012.028-.031.035-.02.004-.012.024.023.059.055.047.074.101.04.101-.044-.003-.106-.124-.09-.167.015-.047.058-.067.058-.028m-2.102 4.305c.621.207.688.242.512.265a4.17 4.17 0 0 0-.234.04c-.074.011-.223.039-.336.058-.114.024-.227.047-.258.055-.043.012-.05.008-.04-.024.009-.023.005-.039-.01-.039-.016 0-.028-.027-.028-.054a.157.157 0 0 0-.024-.082c-.011-.012-.027-.059-.027-.102-.004-.043-.02-.09-.039-.102-.016-.015-.023-.035-.016-.046.008-.012 0-.024-.011-.024-.016 0-.028-.02-.028-.047s-.011-.047-.027-.043c-.016.004-.031-.007-.035-.023-.016-.04-.078-.055.601.168" style="stroke:none;fill-rule:evenodd;fill:#000;fill-opacity:1"/>
    <path d="M11.719 5.297c.101.004.27.004.37 0 .102-.004.02-.008-.187-.008-.203 0-.285.004-.183.008m-.371.023a.19.19 0 0 0 .093 0c.024-.004 0-.011-.054-.011-.051 0-.07.007-.04.011m1.055 0a.206.206 0 0 0 .098 0c.02-.004-.004-.011-.055-.011-.054 0-.074.007-.043.011m-1.367.024a.19.19 0 0 0 .094 0c.023-.004 0-.012-.055-.008-.05 0-.07.004-.039.008m1.68 0a.19.19 0 0 0 .094 0c.023-.004 0-.012-.051-.008-.055 0-.074.004-.043.008m-2.324.105c-.024.02-.016.02.039.008.086-.02.105-.031.043-.031a.199.199 0 0 0-.082.023m2.93-.015a.466.466 0 0 0 .081.023c.055.012.063.012.04-.008-.036-.023-.145-.039-.122-.015m1.848.625c0 .007.043.035.098.062.05.027.093.043.093.035 0-.008-.043-.035-.093-.058-.055-.028-.098-.047-.098-.04m-6.895.196c-.09.047-.082.07.008.023.04-.023.07-.043.07-.05 0-.016-.003-.016-.078.027m-.761.516c-.082.074-.082.074-.008.023a.473.473 0 0 0 .094-.074c.023-.04.004-.028-.086.05m-.301.247-.07.078.078-.07c.07-.067.09-.087.07-.087a.634.634 0 0 0-.078.079m-.203.171a.45.45 0 0 0-.094.11c.008 0 .059-.05.117-.11a.45.45 0 0 0 .094-.109c-.004 0-.059.05-.117.11m9.754-.043c.039.046.066.054.191.05l.149-.004-.145-.007c-.09-.008-.164-.028-.191-.051-.051-.04-.051-.04-.004.012M6.539 7.66l-.094.106.102-.098c.094-.086.113-.11.094-.11-.004 0-.051.047-.102.102m-.207.23c-.102.114-.148.173-.137.173.008 0 .059-.051.114-.118.109-.129.125-.168.023-.054m11.48.129c-.007.203-.109.351-.652.933-.258.277-.351.379-.562.61-.133.148-.297.324-.364.398-.066.07-.359.39-.644.707l-.625.684c-.215.238-.578.636-.621.683-.64.695-.867.961-.864 1.004 0 .031.032.156.067.281.16.567.074 1.27-.23 1.852-.044.082-.067.152-.055.168.011.02.058.082.101.14.043.06.102.133.125.168.024.032.09.125.149.204.058.078.195.27.304.425.243.34.586.711.836.899.215.16.703.367.645.273-.012-.015-.043-.023-.074-.023-.032 0-.063-.012-.07-.028-.008-.011-.04-.023-.063-.023a.232.232 0 0 1-.09-.02c-.023-.011-.074-.035-.11-.054-.19-.09-.175-.375.032-.68.055-.078.062-.21.023-.316-.047-.125-.035-.215.043-.305.094-.105.125-.219.13-.426 0-.32.089-.441.37-.496.524-.098.559-.332.133-.906-.09-.117-.242-.336-.34-.48-.101-.145-.226-.329-.285-.41-.144-.208-.148-.286-.035-.524.152-.32.144-.508-.04-1.043-.108-.32-.105-.293-.054-.356.09-.097.43-.472.5-.546.04-.04.176-.188.301-.325.125-.14.277-.304.34-.37.062-.067.148-.165.191-.216.043-.05.13-.144.188-.207.058-.058.23-.246.383-.414.32-.36.277-.34.394-.156.16.254.125.414-.152.68-.14.133-.262.289-.203.258a.733.733 0 0 0 .093-.07c.477-.45.641-.45 1.086-.013.227.223.332.297.184.133-.313-.355-.453-.59-.434-.722.02-.118.258-.438.325-.438.039 0 .507.95.507 1.031 0 .012.012.043.024.067.09.16.285.906.36 1.375.167 1.047.089 2.277-.204 3.21-.02.063-.047.15-.063.196-.019.07-.105.309-.187.516-.242.629-.848 1.578-1.324 2.09-.063.066-.149.16-.196.21l-.085.09-.258-.011c-.192-.008-.235-.008-.16.007.058.012.324.028.59.032.406.004.495.011.566.05l.086.043.18-.187c1.19-1.238 1.859-3.195 1.73-5.078a6.928 6.928 0 0 0-.102-.887c-.207-1.324-.863-2.652-1.707-3.45-.101-.1-.113-.12-.12-.241l-.009-.133-.003.137m.148.539c.21.324.207.312.059.433-.293.227-.438.23-.684.02-.113-.098-.11-.11.164-.395.105-.113.21-.23.23-.258.051-.078.051-.078.23.2M5.7 8.762c-.02.039-.032.07-.024.07a.24.24 0 0 0 .047-.07c.023-.043.035-.075.027-.075-.008 0-.031.032-.05.075m-.438.828c-.043.086-.035.105.008.027.023-.039.035-.074.027-.078-.004-.008-.024.016-.035.05m-.473 1.415c-.008.035-.012.07-.004.074.004.008.016-.015.024-.05.011-.036.011-.071.007-.075-.007-.008-.02.016-.027.05m-.094.544c-.008.055-.011.105-.008.11.008.007.02-.036.028-.09a.295.295 0 0 0 .008-.11c-.008-.004-.02.035-.028.09m-.03.355c0 .063.003.086.007.055a.24.24 0 0 0 0-.105c-.004-.032-.008-.008-.008.05m-.023.254c0 .078.004.11.007.067a.448.448 0 0 0 0-.145c-.003-.035-.007 0-.007.078m0 .805c0 .098.004.137.007.09a.692.692 0 0 0 0-.18c-.003-.05-.007-.012-.007.09m.023.285c0 .063.004.086.008.055a.24.24 0 0 0 0-.106c-.004-.03-.008-.008-.008.051m.168 3.242c0 .086.004.121.008.078a.524.524 0 0 0 0-.156c-.004-.043-.008-.008-.008.078m.27.528c.05.054.097.097.105.097a.645.645 0 0 0-.082-.097.846.846 0 0 0-.105-.094c-.008 0 .027.043.082.094m10.484.507a.526.526 0 0 0 .168.036c.016-.004-.008-.016-.047-.024a.933.933 0 0 1-.113-.039.196.196 0 0 0-.094-.023c-.031.004.008.023.086.05m.242.07c.07.028.156.028.11 0-.02-.015-.067-.023-.098-.023-.055 0-.055.004-.012.024m.203.047c.094.027.168.027.121 0a.268.268 0 0 0-.109-.024c-.07.004-.07.004-.012.024m.23.047c.106.027.231.027.169 0a.478.478 0 0 0-.145-.02c-.094 0-.094.004-.023.02m-11.075.875-.058.074.066-.067c.04-.035.067-.07.059-.074-.004-.004-.035.024-.066.067m-.184.164-.07.078.078-.07c.07-.067.086-.087.07-.087a.634.634 0 0 0-.078.079m-.168.144-.07.078.078-.07c.07-.067.086-.086.07-.086a.634.634 0 0 0-.078.078m12.562.563-.082.09.09-.083c.082-.078.102-.097.082-.097a.826.826 0 0 0-.09.09m-.906.39c0 .047.008.067.012.043a.16.16 0 0 0 0-.086c-.004-.023-.012-.004-.012.043M6.258 21.617a.407.407 0 0 0 .097 0c.024-.008-.003-.012-.054-.012-.055 0-.074.004-.043.012m.433.024c.055.007.141.007.192 0 .05-.004.004-.008-.102-.008-.105 0-.148.004-.09.008m9.696 0a.604.604 0 0 0 .168 0c.047-.004.015-.008-.078-.008-.094 0-.133.004-.09.008m-7.715.023c.535.004 1.418.004 1.953 0 .54 0 .098-.004-.977-.004-1.078 0-1.515.004-.976.004" style="stroke:none;fill-rule:evenodd;fill:#000;fill-opacity:1"/>
    <path d="M11.316 5.328c-.093.004.176.012.598.012.426 0 .688-.008.59-.016-.223-.015-.961-.015-1.188.004m-.41.04C8.437 5.69 6.223 7.39 5.223 9.722a7.821 7.821 0 0 0-.473 1.593c-.012.094-.035.227-.047.301-.11.676-.07 1.727.098 2.488.074.332.086.38.215.766.054.164.097.328.097.375l.004.078.024-.066c.02-.055.007-.11-.055-.29a5.925 5.925 0 0 1-.098-.296 7.263 7.263 0 0 1-.297-2.383c.012-.418.024-.52.086-.914.075-.45.29-1.215.45-1.582.097-.23.378-.793.441-.883a.51.51 0 0 0 .066-.113c0-.145.844-1.156 1.32-1.59.321-.293 1.028-.824 1.094-.824a.33.33 0 0 0 .079-.043c.34-.238 1.238-.617 1.851-.777.168-.043.238-.06.531-.118.059-.011.2-.03.309-.047.113-.011.207-.027.215-.035.012-.011-.113-.008-.227.004m1.91.012c.07.012.204.035.29.047 1.32.215 2.683.863 3.593 1.703.098.09.113.098.266.101.637.02 1.047.793.633 1.192a4.15 4.15 0 0 0-.246.265 3.548 3.548 0 0 1-.207.227c-.012.016-.094.102-.176.195-.086.09-.25.274-.371.407l-.493.539-.48.527c-.113.121-.215.238-.23.25-.012.016-.141.156-.286.316-.55.606-.664.73-1.011 1.114-.196.218-.426.465-.508.55-.164.18-.168.184-.106.395.086.29.102.379.102.719 0 .496-.086.844-.305 1.234l-.078.145.125.175.215.297c.047.067.164.23.254.364.422.605.871 1.058 1.191 1.207.067.03.137.066.16.078a.235.235 0 0 0 .09.023c.028 0 .055.008.059.02.008.011.043.027.082.035l.148.035c.7.207 1.133.27 1.914.277.32.008.356.02.372.141.019.11-.02.406-.079.633a6.764 6.764 0 0 0-.062.258c-.008.035-.024.07-.035.078-.012.008-.02.035-.02.058a.235.235 0 0 1-.023.09l-.055.113c-.125.278-.344.403-.824.47-.242.034-.242.034-.266.214-.015.137-.047.27-.086.344a.209.209 0 0 0-.02.078c0 .02-.007.055-.019.078a7.914 7.914 0 0 0-.078.16c-.078.164-.16.242-.32.293a.426.426 0 0 0-.133.055c0 .031.043.066.156.144.145.098.442.336.586.473l.102.098-2.75.02c-1.516.007-3.825.011-5.133.007-1.309-.004-2.191 0-1.961.008.574.027 9.832.012 9.855-.012.028-.031-.3-.332-.566-.52-.258-.187-.258-.187-.07-.273.21-.097.383-.418.453-.847.015-.09.031-.188.039-.215.008-.047.031-.055.156-.07.758-.079 1.024-.403 1.176-1.458.062-.433.031-.457-.629-.468-.734-.012-1.52-.16-2.113-.403-.317-.125-.79-.574-1.153-1.086-.109-.156-.246-.347-.304-.425-.059-.079-.125-.172-.149-.204-.023-.035-.082-.109-.125-.168-.043-.058-.09-.12-.101-.14-.012-.016.011-.086.054-.168.305-.582.391-1.285.23-1.852a2.053 2.053 0 0 1-.066-.28c-.003-.044.223-.31.864-1.005.043-.047.406-.445.62-.683.056-.059.337-.368.626-.684.285-.316.578-.637.644-.707.098-.11.274-.297.625-.688.016-.011.125-.132.243-.261.699-.762.718-.785.703-1.028-.028-.386-.407-.754-.809-.78l-.183-.013-.215-.18c-1.043-.882-2.575-1.554-3.746-1.644-.168-.012-.168-.012-.036.012m-3.695 9.558c0 .02.016.047.035.063.031.023.035.023.035-.02 0-.027-.015-.054-.035-.062-.02-.008-.035 0-.035.02m.156.207c-.015.043.047.164.09.168.035 0 .016-.055-.039-.102-.035-.035-.043-.055-.023-.059.035-.015.043-.054.008-.054-.012 0-.028.02-.036.047m-4.199.253c-.008.036-.012.07-.004.075.008.007.02-.016.028-.051.007-.035.011-.07.003-.074-.007-.008-.02.015-.027.05m-.074.262a.706.706 0 0 0-.031.168c.007.008.03-.058.054-.144a.534.534 0 0 0 .032-.168c-.008-.008-.032.058-.055.144m-.07.266c-.008.039-.028.113-.04.164-.12.453.036.863.415 1.086.074.047.101.097.07.137-.035.042-.16.507-.195.726-.032.195-.008.395.05.43.043.027.016.058-.308.336-1.246 1.078-1.52 1.316-1.52 1.343 0 .02.078.114.176.211.48.489 1.09.864 1.676 1.04.234.07.472.124.586.136l.12.012-.109-.024c-.84-.187-1.195-.34-1.8-.785-.184-.136-.621-.547-.621-.586 0-.027-.004-.023.394-.363.184-.156.34-.293.348-.3.008-.009.082-.071.168-.145.086-.07.16-.137.168-.145.008-.008.113-.097.242-.203.312-.262.351-.3.457-.398l.09-.09-.047-.09c-.07-.137-.05-.379.05-.766.016-.054.032-.125.04-.156a.515.515 0 0 1 .031-.086c.078-.101.055-.168-.102-.293A2.01 2.01 0 0 1 5 16.844l-.117-.153.004-.226c0-.13.02-.309.043-.406a.59.59 0 0 0 .027-.188c-.004-.008-.016.02-.023.055m1.699 3.328c.004.016.02.027.035.023.016-.004.027.016.027.043 0 .028.012.047.028.047.011 0 .02.012.011.024-.007.011 0 .03.016.047.02.011.035.058.04.101 0 .043.015.09.026.102.012.015.024.05.024.082 0 .027.012.054.027.054.016 0 .02.016.012.04-.012.03-.004.035.039.023.031-.008.144-.031.258-.055.113-.02.261-.047.336-.058a4.17 4.17 0 0 1 .234-.04c.176-.023.11-.058-.512-.265-.68-.223-.617-.207-.601-.168m-.656 2.308c.007.004.082.012.168.02.097.008.128.008.082-.004-.07-.02-.266-.035-.25-.015" style="stroke:none;fill-rule:evenodd;fill:#000;fill-opacity:1"/>
  </g>
</svg>