<svg xmlns="http://www.w3.org/2000/svg" width="24" height="24" fill="none" stroke="#000" stroke-linecap="round" stroke-linejoin="round" stroke-width="1.5" viewBox="0 0 0.48 0.48"><path fill="#000" fill-rule="evenodd" stroke="none" d="M.232.004.128.06c-.11.062-.107.06-.11.07a1 1 0 0 0-.001.11c0 .122-.001.112.007.12l.104.06.103.057a.03.03 0 0 0 .017 0C.254.474.452.363.455.36L.459.354.462.35V.132L.459.127.454.12C.451.117.254.007.248.004a.03.03 0 0 0-.016 0m.081.091.074.042-.148.077L.163.176.088.138l.02-.01.131-.074zm.101.159V.33L.34.372.264.414V.255L.337.216.414.177zM.215.335v.08L.214.414.138.37.065.331V.18L.14.218l.075.038z" style="stroke-width:.0304259"/></svg>