<svg xmlns="http://www.w3.org/2000/svg" width="24" height="24" viewBox="0 0 19.2 19.2"><title>iCloud logo</title><path d="M11.012 3.463a5.16 5.16 0 0 0-4.489 2.639 2.8 2.8 0 0 0-1.234-.286 2.83 2.83 0 0 0-2.785 2.376 3.895 3.895 0 0 0-2.39 3.593 3.895 3.895 0 0 0 3.896 3.891 4 4 0 0 0 .489-.035h10.827a3.625 3.643 0 0 0 .171.008 3.625 3.643 0 0 0 .163-.008h.26v-.02a3.625 3.643 0 0 0 3.2-3.615V12a3.625 3.643 0 0 0-2.95-3.57 5.156 5.156 0 0 0-5.158-4.966" style="opacity:1;fill:#000;fill-opacity:1;stroke:none;stroke-width:0;stroke-miterlimit:4;stroke-dasharray:none;stroke-opacity:1"/></svg>