<svg version="1.1" id="svg1" width="24" height="24" viewBox="0 0 24.000001 24.000001"
   xmlns="http://www.w3.org/2000/svg">
   <defs id="defs1" />
   <g id="g1">
      <path style="fill:#000000;stroke-width:0.0296596"
         d="m 7.3517482,23.917488 c -0.64862,-0.16705 -1.54723,-0.72977 -1.91746,-1.20076 -0.49173,-0.62553 -0.81779,-1.6094 -0.92836,-2.80126 -0.006,-0.0673 -0.0241,-0.40568 -0.0397,-0.75185 -0.0156,-0.34616 -0.0428,-0.63852 -0.0606,-0.64969 -0.0178,-0.0112 -0.16522,-0.0557 -0.32768,-0.099 -1.0705,-0.2851 -2.08025,-0.71375 -2.64807,-1.12411 -0.59351003,-0.42893 -0.89730003,-0.81698 -1.17430003,-1.50002 -0.21929,-0.54073 -0.2573,-0.76097 -0.255549998809,-1.48096 C 0.00102817,13.696328 0.00902817,13.630308 0.11034817,13.332848 c 0.11316,-0.33204 0.35642,-0.81643 0.5307,-1.05676 0.40364003,-0.55659 0.99738003,-1.18724 1.54749003,-1.64369 0.45408,-0.37676 0.44495,-0.31444 0.14475,-0.9882105 -0.2139,-0.48007 -0.45964,-1.21955 -0.59633,-1.79449 -0.11577,-0.48689 -0.14018,-1.24485 -0.054,-1.67778 0.17736,-0.89149 0.66059,-1.64001 1.44771,-2.24248 0.64685,-0.4951 1.27879,-0.64505 2.59538,-0.61585 0.68488,0.0152 0.91173,0.0362 1.36177,0.12636 0.297,0.0595 0.58755,0.1025 0.64568,0.0956 0.0831,-0.01 0.13409,-0.0637 0.23852,-0.25181 0.0731,-0.1316 0.25499,-0.46049 0.40428,-0.73088 0.72694,-1.31659 1.6954798,-2.23194995 2.6227198,-2.47867995 0.0971,-0.0258 0.47719,-0.0566 0.84474,-0.0685 0.83181,-0.0268 1.21319,0.0371 1.66278,0.27858 0.4629,0.2486 0.62335,0.37039 1.00289,0.76125995 0.47277,0.48688 0.90302,1.09984 1.30511,1.85934 0.0755,0.14257 0.183,0.34582 0.23894,0.45169 l 0.1017,0.19248 0.21617,-0.0168 c 0.11889,-0.009 0.48089,-0.0644 0.80443,-0.12254 0.77773,-0.13979 1.9465,-0.15163 2.50809,-0.0254 1.0097,0.22696 1.88871,0.98166 2.39843,2.05925 0.16597,0.35086 0.28867,0.9152 0.28907,1.32943 5.3e-4,0.55775 -0.20307,1.57449 -0.4312,2.15338 -0.0389,0.0987 -0.12742,0.32301 -0.19673,0.49847 -0.0693,0.17546 -0.16799,0.40366 -0.21928,0.50711 -0.14928,0.3010605 -0.13342,0.3494705 0.20841,0.6358505 1.14874,0.9624 1.95071,2.03761 2.21106,2.96441 0.0752,0.2676 0.0752,1.26634 0,1.61504 -0.17281,0.80184 -0.6578,1.57881 -1.29182,2.06957 -0.56457,0.437 -1.78472,0.97012 -2.70551,1.18213 -0.4281,0.0986 -0.42051,0.0834 -0.44967,0.89928 -0.0136,0.38177 -0.0438,0.82871 -0.0671,0.9932 -0.0669,0.47359 -0.34017,1.46898 -0.48742,1.77567 -0.28605,0.59575 -0.8687,1.20771 -1.39,1.45991 -0.837,0.40495 -1.09345,0.47302 -1.78208,0.47302 -0.45998,0 -0.5754,-0.0138 -0.85713,-0.10235 -0.17906,-0.0563 -0.37851,-0.12637 -0.44322,-0.15571 -0.0647,-0.0293 -0.18716,-0.0825 -0.27212,-0.11809 -0.14187,-0.0594 -0.87263,-0.46878 -1.19854,-0.67137 -0.0755,-0.0469 -0.30854,-0.21519 -0.51788,-0.37391 -0.20934,-0.15872 -0.414,-0.30675 -0.45479,-0.32895 -0.0827,-0.045 -0.0402,-0.0716 -0.75649,0.4739 -0.532,0.4052 -0.52804,0.40278 -1.2709798,0.77754 -0.8205,0.41387 -1.13608,0.49988 -1.8182,0.49552 -0.38679,-0.002 -0.61628,-0.0244 -0.82899,-0.0792 z m 1.41143,-1.69181 c 0.33161,-0.11896 0.98003,-0.47248 1.3141898,-0.71649 0.38406,-0.28044 0.47586,-0.38277 0.42484,-0.47357 -0.0887,-0.15786 -1.1033798,-0.85958 -1.7170898,-1.18749 -0.82987,-0.4434 -2.57892,-1.02716 -2.65845,-0.88727 -0.0301,0.0529 0.0431,1.0276 0.10621,1.41558 0.1524,0.93646 0.52755,1.47197 1.25236,1.78769 0.37374,0.1628 0.9221,0.18921 1.27794,0.0616 z m 7.8137198,-0.10746 c 0.68517,-0.33269 1.04232,-0.90588 1.18789,-1.90649 0.0599,-0.41146 0.0878,-1.21927 0.0437,-1.26409 -0.0467,-0.0475 -0.92033,0.18664 -1.47591,0.3955 -1.03269,0.38822 -1.40881,0.60172 -2.60797,1.4804 -0.33816,0.24778 -0.32775,0.29086 0.15687,0.64939 0.41469,0.3068 0.9382,0.60605 1.28286,0.7333 0.16651,0.0615 0.29634,0.0749 0.65841,0.0679 0.43066,-0.008 0.46467,-0.0153 0.75415,-0.15589 z m -4.4095,-2.35924 c 0.0493,0.0104 0.24342,-0.10638 0.24342,-0.14644 0,-0.0214 0.0235,-0.0388 0.0522,-0.0388 0.0287,0 0.13017,-0.0715 0.2255,-0.15895 0.0953,-0.0874 0.19323,-0.1592 0.21755,-0.15951 0.0243,-3.1e-4 0.0638,-0.0246 0.0878,-0.0539 0.024,-0.0294 0.22465,-0.16634 0.446,-0.30442 0.22134,-0.13809 0.44656,-0.28383 0.50048,-0.32389 0.13622,-0.10117 1.06768,-0.56873 1.35301,-0.67916 0.12942,-0.0501 0.25533,-0.10582 0.2798,-0.12384 0.0245,-0.018 0.13918,-0.0605 0.25491,-0.0945 0.48038,-0.14081 0.92719,-0.26258 1.09282,-0.29781 0.0971,-0.0207 0.24302,-0.0644 0.32434,-0.0972 0.0813,-0.0328 0.20044,-0.0596 0.26472,-0.0596 0.0737,0 0.11686,-0.0205 0.11686,-0.0555 0,-0.0305 0.0416,-0.0661 0.0925,-0.0791 0.11506,-0.0294 0.14193,-0.21072 0.14253,-0.96204 4.2e-4,-0.52133 0.0674,-1.27119 0.17631,-1.97393 0.0323,-0.20836 0.0588,-0.43069 0.059,-0.49407 1.5e-4,-0.0634 0.0266,-0.13516 0.0588,-0.15951 0.0322,-0.0244 0.0754,-0.12502 0.096,-0.22372 0.0749,-0.35868 0.1493,-0.62249 0.20854,-0.73899 0.0333,-0.0655 0.0667,-0.15477 0.0742,-0.19846 0.008,-0.0437 0.0231,-0.0884 0.0346,-0.0994 0.0115,-0.011 0.0937,-0.19042 0.18285,-0.39878 0.15316,-0.3582 0.18621,-0.44422 0.20683,-0.53834 0.005,-0.0219 0.0253,-0.0503 0.0456,-0.0631 0.0345,-0.0217 0.072,-0.16603 0.0845,-0.32576 0.003,-0.0384 0.0215,-0.0698 0.0412,-0.0698 0.0196,0 0.0137,-0.0269 -0.0131,-0.0598 -0.0394,-0.0482 -0.0384,-0.06 0.005,-0.0607 0.0296,-5e-4 -0.004,-0.0299 -0.0747,-0.0653 -0.0707,-0.0354 -0.1193,-0.0738 -0.10799,-0.0854 0.0113,-0.0115 -0.0323,-0.0536 -0.0969,-0.0936 -0.0646,-0.04 -0.11751,-0.0877 -0.11751,-0.10616 0,-0.0184 -0.11913,-0.12993 -0.26472,-0.2478 -0.28958,-0.2344205 -0.82047,-0.7420705 -1.1041,-1.0557705 -0.0992,-0.10966 -0.26106,-0.28014 -0.3598,-0.37883 -0.0987,-0.0987 -0.18949,-0.20637 -0.20169,-0.23927 -0.0122,-0.0329 -0.11229,-0.18176 -0.22245,-0.33081 -0.11017,-0.14905 -0.2003,-0.28812 -0.2003,-0.30905 0,-0.0209 -0.0181,-0.038 -0.0402,-0.038 -0.0221,0 -0.0566,-0.044 -0.0767,-0.0978 -0.0201,-0.0538 -0.0854,-0.17489 -0.14509,-0.26917 -0.0597,-0.0943 -0.12829,-0.20731 -0.15242,-0.25117 -0.17638,-0.32058 -0.22747,-0.4062 -0.27492,-0.46068 -0.0297,-0.034 -0.0594,-0.0969 -0.0661,-0.13957 -0.0124,-0.079 -0.17375,-0.41894 -0.30181,-0.63595 -0.0388,-0.0658 -0.0917,-0.1147 -0.11745,-0.10868 -0.0258,0.006 -0.0369,-0.005 -0.0248,-0.0254 0.0405,-0.0666 -0.0896,-0.13569 -0.20232,-0.10743 -0.0594,0.0149 -0.18749,0.0424 -0.28455,0.0612 -0.0971,0.0188 -0.24707,0.0531 -0.33335,0.0763 -0.0863,0.0232 -0.22201,0.0427 -0.30162,0.0432 -0.0796,5.2e-4 -0.154,0.0162 -0.16531,0.0348 -0.0894,0.14703 -2.76674,0.20043 -3.43522,0.0685 -0.18334,-0.0362 -0.43306,-0.0808 -0.5549298,-0.0992 -0.12187,-0.0184 -0.23781,-0.0436 -0.25764,-0.0561 -0.0198,-0.0125 -0.1228,-0.0346 -0.22883,-0.0492 -0.10602,-0.0146 -0.23389,-0.0425 -0.28415,-0.0619 -0.0503,-0.0194 -0.13877,-0.0345 -0.19668,-0.0335 l -0.1053,0.002 0.11765,0.0581 0.11766,0.0581 -0.13825,-0.0201 c -0.10229,-0.0149 -0.15329,-0.002 -0.19609,0.0514 -0.0869,0.10739 -0.35197,0.6378 -0.35197,0.70421 0,0.0319 -0.0221,0.0723 -0.049,0.0899 -0.027,0.0175 -0.0884,0.11264 -0.13648,0.21134 -0.10915,0.22395 -0.30504,0.56947 -0.43845,0.77334 -0.0559,0.0854 -0.11941,0.18408 -0.1412,0.21933 -0.0398,0.0643 -0.23511,0.34219 -0.36271,0.51595 -0.0376,0.0511 -0.12122,0.15135 -0.18593,0.2227 -0.38538,0.42491 -0.49022,0.54921 -0.49022,0.58118 0,0.0197 -0.0349,0.0606 -0.0775,0.0909 -0.0426,0.0303 -0.2362,0.21004 -0.4302,0.39932 -0.19401,0.18928 -0.4018,0.37573 -0.46177,0.4143405 -0.06,0.0386 -0.14658,0.10666 -0.19246,0.15125 -0.0459,0.0446 -0.14931,0.1349 -0.22985,0.2007 -0.41107,0.33581 -0.43097,0.42243 -0.20983,0.91312 0.09,0.19962 0.18765,0.40102 0.21708,0.44754 0.0634,0.10023 0.37663,0.99356 0.48768,1.39088 0.0429,0.15353 0.0884,0.30606 0.10117,0.33896 0.036,0.093 0.0541,0.18701 0.21107,1.09165 0.0507,0.29237 0.10732,1.19164 0.1192,1.89358 0.007,0.39027 0.0235,0.54751 0.0632,0.58788 0.0298,0.0303 0.0441,0.0717 0.0317,0.0921 -0.0203,0.0334 0.0369,0.0544 0.27237,0.0998 0.24448,0.0471 1.6325,0.43881 1.76479,0.49801 0.0863,0.0386 0.2043,0.0823 0.26226,0.097 0.058,0.0147 0.2168,0.0786 0.35296,0.14196 0.13616,0.0633 0.35345,0.16377 0.48287,0.22321 0.34198,0.15706 1.4984398,0.86264 1.6308198,0.99499 0.0342,0.0342 0.0812,0.0621 0.10458,0.0621 0.0233,0 0.0483,0.0142 0.0555,0.0315 0.007,0.0173 0.10132,0.0934 0.20916,0.16916 0.10785,0.0757 0.24612,0.17829 0.30726,0.22796 0.0611,0.0497 0.1261,0.0809 0.14436,0.0695 0.0183,-0.0115 0.0443,-0.003 0.0578,0.0197 0.0135,0.0223 0.0589,0.0405 0.10075,0.0405 0.0419,0 0.0767,0.0224 0.0774,0.0498 6.8e-4,0.0274 0.0279,0.014 0.0605,-0.0299 0.0326,-0.0439 0.0717,-0.0771 0.087,-0.0739 z m -4.4129198,-2.36631 c 0.0381,-0.0101 0.0911,-0.009 0.11765,0.001 0.0265,0.0109 -0.005,0.0192 -0.0694,0.0184 -0.0647,-8.2e-4 -0.0864,-0.01 -0.0483,-0.0199 z m 1.05142,-11.5600705 c 0.002,-0.0465 0.0112,-0.0559 0.0237,-0.0241 0.0113,0.0288 0.01,0.0632 -0.003,0.0764 -0.013,0.0133 -0.0223,-0.0103 -0.0206,-0.0523 z m -4.38817,10.4109205 c -0.0124,-0.54684 -0.069,-1.22189 -0.1271,-1.5178 -0.0218,-0.11124 -0.0489,-0.2548 -0.0601,-0.31902 -0.091,-0.52108 -0.39962,-1.46488 -0.65907,-2.01556 -0.0994,-0.21089 -0.18066,-0.4038 -0.18066,-0.42868 0,-0.16364 -0.36925,0.12544 -0.9741,0.76261 -0.32856,0.34613 -0.43413,0.49185 -0.59434,0.82039 -0.2382,0.48849 -0.24129,1.01653 -0.01,1.65726 0.18423,0.50974 0.69511,0.92659 1.52477,1.24413 0.31009,0.11867 0.94981,0.29363 1.0331,0.28254 0.0484,-0.006 0.0563,-0.0879 0.0472,-0.48587 z m 15.5514798,0.4034 c 0.0813,-0.0306 0.29593,-0.1034 0.4769,-0.16182 0.90625,-0.29255 1.38903,-0.6471 1.66648,-1.22383 0.28029,-0.58267 0.28181,-1.1611 0.005,-1.72901 -0.13344,-0.27328 -0.61147,-0.91899 -0.75794,-1.02377 -0.10906,-0.078 -0.48049,-0.40043 -0.55921,-0.48539 -0.12818,-0.13834 -0.20986,-0.0538 -0.4285,0.44372 -0.53044,1.2069 -0.74259,2.16028 -0.80721,3.62757 l -0.0268,0.60813 h 0.14194 c 0.0781,0 0.20849,-0.025 0.28981,-0.0556 z M 4.3807682,8.7991875 c 0.43298,-0.38344 1.15873,-1.13193 1.37392,-1.41699 0.0956,-0.12668 0.31552,-0.4462 0.48864,-0.71006 0.40228,-0.61312 0.84075,-1.49189 0.74566,-1.49446 -0.005,-1.5e-4 -0.21276,-0.0372 -0.46081,-0.0824 -0.65,-0.11842 -1.43843,-0.14449 -1.76479,-0.0584 -0.4784,0.12626 -0.85527,0.4013 -1.17218,0.85546 -0.29231,0.41891 -0.36716,1.16014 -0.18255,1.80789 0.18012,0.63203 0.4997,1.38569 0.58758,1.38569 0.0334,0 0.20644,-0.12903 0.38453,-0.28674 z m 15.8591698,-0.21183 c 0.32724,-0.76086 0.41473,-1.10895 0.42093,-1.67475 0.005,-0.46259 10e-4,-0.48716 -0.12004,-0.73773 -0.0689,-0.14256 -0.23939,-0.38594 -0.37885,-0.54085 -0.42096,-0.46759 -0.89654,-0.66445 -1.59248,-0.65918 -0.42389,0.003 -1.5092,0.16497 -1.57831,0.23524 -0.096,0.0977 0.73029,1.56562 1.21652,2.16111 0.48073,0.58876 1.65946,1.72399 1.76986,1.70454 0.0311,-0.005 0.14919,-0.22525 0.26237,-0.48838 z m -6.6722,-4.39867 c 0.19412,-0.0438 0.45386,-0.0924 0.5772,-0.10792 0.16951,-0.0214 0.22992,-0.0464 0.24749,-0.10276 0.0548,-0.17564 -0.58586,-1.26106 -0.99122,-1.6793 -0.17597,-0.18155 -0.35315,-0.31583 -0.55248,-0.41871 l -0.29344,-0.15145 h -0.55468 -0.55469 l -0.30426,0.1529 c -0.50994,0.25627 -0.88116,0.68765 -1.3319598,1.54781 -0.24521,0.46788 -0.26991,0.58015 -0.13431,0.61042 0.9603598,0.21433 1.4010998,0.25626 2.5393398,0.24157 0.82216,-0.0106 1.06283,-0.0271 1.35301,-0.0926 z"
         id="path1" />
   </g>
</svg>