<svg xmlns="http://www.w3.org/2000/svg" id="Layer_1" data-name="Layer 1" version="1.1" viewBox="0 0 24 24"><defs><style>.cls-1{fill:#000;stroke-width:0}</style></defs><path d="M14.9 10.5c-.4 0-.8 0-1.1.3-.3.2-.6.4-.8.7-.2.3-.3.8-.3 1.3 0 .4 0 .7.2 1 .1.3.2.5.5.7.2.2.4.3.7.4.3 0 .5.1.8.1h.8v-4.4h-.6Z" class="cls-1"/><path d="M19.8.3H4.2C1.9.3 0 2.2 0 4.5v14.9c0 2.3 1.9 4.2 4.2 4.2h15.5c2.3 0 4.2-1.9 4.2-4.2V4.5c0-2.3-1.9-4.2-4.2-4.2ZM8.7 16.7c0 .1 0 .2-.1.2h-2s-.1 0-.1-.2V6.4s0-.1.1-.1h2s.1 0 .1.1v10.3Zm9-.3c-.5.2-1.1.4-1.6.5-.5 0-1 .1-1.5.1-.7 0-1.5-.1-2.2-.5-.6-.3-1.1-.8-1.5-1.4-.4-.6-.6-1.4-.6-2.3 0-.7.2-1.5.6-2.1.4-.6.9-1.2 1.6-1.5.7-.4 1.5-.6 2.5-.6h.5V5.4s0-.1.1-.1h2.1V16s0 .1-.1.2Z" class="cls-1"/></svg>