<svg xmlns="http://www.w3.org/2000/svg" height="24" width="24" viewBox="0 0 24 24"><path d="M9.448.7613c.593.3014 1.1546.6298 1.7157.9679l.9659.5705.4925.293c.7626.4515 1.5335.8937 2.3035 1.3371a475.7385 475.7385 0 0 1 5.2716 3.094c.2937.1743.5886.3472.8847.5188.7123.417 1.347.797 1.8631 1.3795l.2844.3114c.8985 1.1905.8468 2.567.6561 3.9167-.689 2.097-3.2854 3.2078-5.3696 4.3683-.925.5152-1.8394 1.0417-2.7515 1.5715l-.4572.2652c-.6205.36-1.2405.7202-1.8604 1.0807-6.3983 3.7203-6.3983 3.7203-8.6758 3.4732-.7963-.3263-1.2663-.7646-1.7157-1.3754-.1987-.7255-.2019-1.3234.0635-2.0377 1.1013-1.2724 2.9575-2.0913 4.5246-2.9697 1.1228-.63 2.2289-1.2764 3.3297-1.9309 1.2655-.7515 2.5383-1.4933 3.8254-2.221l.4234-.2394a103.3846 103.3846 0 0 1 2.36-1.2889c-1.6729-1.1152-3.434-2.1254-5.202-3.1402a340.0646 340.0646 0 0 1-1.4775-.8561l-.487-.2833a773.3885 773.3885 0 0 1-.911-.531 69.3 69.3 0 0 0-2.2447-1.2511l-.4915-.2619-.3704-.1969-.0022.3822a522.976 522.976 0 0 1-.0352 3.5758c-.008.6126-.0145 1.2253-.0177 1.838-.003.592-.0101 1.1838-.0198 1.7757-.003.2252-.0046.4504-.0048.6756-.0034 2.2118-.0034 2.2118-.937 3.1636-.8738.5786-1.686.7581-2.8175.7164-.922-.136-1.6784-.635-2.2662-1.2054C.06 15.6763.064 15.2218.0581 14.6189l-.004-.3496c-.004-.382-.0064-.7639-.0084-1.1458l-.0025-.3964a654.7908 654.7908 0 0 1-.0091-2.0788 257.6843 257.6843 0 0 0-.0173-2.1392C.0115 7.9586.0098 7.4081.009 6.8577a73.3048 73.3048 0 0 0-.0071-.788c-.026-1.9258.2-3.4025 1.9183-4.8525C4.075-.3197 6.9985-.3198 9.448.7612z"/></svg>