<svg xmlns="http://www.w3.org/2000/svg" xml:space="preserve" viewBox="0 0 24 24"><path d="M11.87.2c-.74 0-1.47.26-2 .8l-8.81 9.03c-3.34 3.34 2.16 3.06 4.15 4.33.92.6-2.95 1.37-2.16 2.16.77.8 4.65 1.52 5.42 2.3.77.79-1.57 1.62-.8 2.41.75.8 2.55.05 2.87 1.84.24 1.33 3.3.67 4.67-.47.86-.73-1.48-.73-.7-1.52 1.92-1.95 3.64-.88 4.34-2.67.39-.97-2.91-1.65-2.03-2.27 2.1-1.48 9.8-2.23 6.25-5.79L13.93 1a3 3 0 0 0-2.06-.8zm.08.85c.53 0 1.06.2 1.44.59l4.81 4.88c.33.32.33.98.13 1.17L16.6 6.28l-.34 2.08-2.41-2.82-2.37 4.13-.6-3.83-2.64 2.49-3.1-.03c-.6 0-.52-.62.1-1.24 1.22-1.35 4.51-4.63 5.26-5.42a2 2 0 0 1 1.45-.59zm-2.5 13.5c.34 0 .64.04.87.1 1.9.53 4.18 2.05 4.73 3.16.41 2.15-1.88-1.03-4.18-1.4-1.91-.4-4.28.79-4.67-.31-.3-1.1 1.8-1.6 3.25-1.56zm-5 4.99c-1.88.1-4.36 1.8-3.1 2.88 1.57 1.29 4.49-1.51 4.54-2.43a1.6 1.6 0 0 0-1.08-.45h-.36zm16.44.28c-.7-.03-1.48.54-2.25 1.87-.16.81 4.3 1.84 4.2 1-.31-1.76-1.05-2.82-1.95-2.87z"/></svg>