<svg width="22" height="24" viewBox="0 0 22 24" fill="none" xmlns="http://www.w3.org/2000/svg">
<path d="M7.85378 1.81241C8.42298 0.833806 9.47098 0.143406 10.607 0.0204059C11.5459 -0.0811941 12.5215 0.200506 13.2628 0.790806C13.613 1.07074 13.9089 1.41257 14.1358 1.79931C16.3005 5.52051 18.4498 9.25071 20.6068 12.9765C20.9492 13.5708 21.1073 14.2585 21.0819 14.9386C21.0603 15.5177 20.9057 16.0913 20.6187 16.5972C19.5517 18.4594 18.4769 20.3172 17.406 22.1772C16.7685 23.279 15.538 23.9901 14.272 23.9981C12.1027 24.0024 9.93328 23.9981 7.76398 23.9981C6.49558 23.9954 5.26648 23.2871 4.62668 22.1978C3.54498 20.3385 2.47108 18.4746 1.39318 16.6128C0.756976 15.5086 0.757376 14.0857 1.38558 12.9846C3.53388 9.25611 5.69778 5.53641 7.85378 1.81241ZM3.62498 14.1495C3.52198 14.3296 3.4678 14.5335 3.4678 14.741C3.4678 14.9485 3.52198 15.1524 3.62498 15.3325C4.69898 17.1965 5.70998 18.9603 6.79938 20.8153C6.90396 20.9927 7.05289 21.1399 7.23154 21.2424C7.41019 21.3449 7.61242 21.3991 7.81838 21.3998C9.98768 21.4044 12.0378 21.4133 14.2071 21.3998C14.4135 21.3983 14.6159 21.3429 14.7944 21.2392C14.973 21.1356 15.1213 20.9871 15.225 20.8086C16.2996 18.9506 17.3199 17.1974 18.379 15.3305C18.4805 15.151 18.5335 14.9482 18.5328 14.742C18.5321 14.5358 18.4777 14.3333 18.375 14.1545C16.2254 10.4245 14.2027 6.89451 12.0226 3.18211C11.7928 2.79461 11.3566 2.56541 10.9045 2.60121C10.7133 2.6161 10.5286 2.67713 10.3662 2.77907C10.2038 2.88101 10.0686 3.02082 9.97208 3.18651C7.84863 6.83633 5.73286 10.4907 3.62498 14.1495ZM12.0909 18.2132C11.9803 18.4047 11.8213 18.5637 11.6298 18.6743C11.4382 18.7849 11.221 18.8431 10.9999 18.8431C10.7787 18.8431 10.5615 18.7849 10.37 18.6743C10.1785 18.5637 10.0194 18.4047 9.90888 18.2132L7.74498 14.465C7.6344 14.2735 7.57618 14.0563 7.57618 13.8351C7.57618 13.614 7.63439 13.3967 7.74496 13.2052C7.85553 13.0137 8.01456 12.8547 8.20608 12.7441C8.39759 12.6336 8.61484 12.5754 8.83598 12.5754H13.164C13.3851 12.5754 13.6024 12.6336 13.7939 12.7441C13.9854 12.8547 14.1444 13.0137 14.255 13.2052C14.3656 13.3967 14.4238 13.614 14.4238 13.8351C14.4238 14.0563 14.3656 14.2735 14.255 14.465L12.0909 18.2132Z" fill="black"/>
</svg>
