<svg version="1.1" id="svg1" width="24" height="24" viewBox="0 0 24 24" xmlns="http://www.w3.org/2000/svg">
   <defs id="defs1" />
   <g id="g1">
      <path style="fill:#000000;stroke-width:0.0802662"
         d="m -5e-6,23.28111 c 0,-0.3954 0.0396,-0.7189 0.0881,-0.7189 0.0485,0 0.76933,-0.0373 1.60194,-0.0829 2.70303,-0.14811 3.75138,-0.3862 4.21578,-0.95743 0.20025,-0.24631 0.21069,-0.71961 0.21069,-9.54948 V 2.68208 L 5.811075,2.37292 C 5.643085,2.20289 5.345095,2.00951 5.148865,1.94319 4.434495,1.70174 2.969465,1.52837 1.067755,1.46023 L -5e-6,1.42192 V 0.71096 0 h 12 12 V 0.70695 1.4139 l -1.42718,0.0672 c -2.85164,0.13422 -3.83145,0.33214 -4.37636,0.884 l -0.31296,0.31696 v 9.29032 c 0,8.82987 0.0104,9.30317 0.21069,9.54948 0.4644,0.57123 1.51275,0.80932 4.21578,0.95743 0.83261,0.0456 1.55349,0.0829 1.60194,0.0829 0.0485,0 0.0881,0.3235 0.0881,0.7189 V 24 h -12 -12 z"
         id="path1" />
   </g>
</svg>