<svg xmlns="http://www.w3.org/2000/svg" height="44" widht="24" viewBox="0 0 24 44"><path d="M4.906 0C2.2 0 0 2.2609 0 5.0413v33.916C0 41.7375 2.2 44 4.906 44h14.1875C21.7995 44 24 41.7376 24 38.9573V5.0413C24 2.2609 21.7995 0 19.0935 0Zm0 1.4507h14.1875c1.9483 0 3.4946 1.5887 3.4946 3.5906v33.916c0 2.0018-1.5463 3.592-3.4946 3.592H4.906c-1.9483 0-3.4946-1.5902-3.4946-3.592V5.0413c0-2.0019 1.5463-3.5906 3.4946-3.5906zm4.0257.5512c-.6063 0-1.1011.5084-1.1011 1.1314s.4948 1.1334 1.1011 1.1334h6.1346c.6064 0 1.1026-.5104 1.1026-1.1334s-.4962-1.1314-1.1026-1.1314zM6.5 40.4964c-.2769 0-.5073.2368-.5073.5212s.2304.5192.5073.5192h11c.2769 0 .5073-.2347.5073-.5192 0-.2844-.2304-.5212-.5073-.5212z"/></svg>