<svg xmlns="http://www.w3.org/2000/svg" height="24" viewBox="0 0 24 24"><path d="M7.820 0.065 C 6.644 0.208,5.717 0.995,5.354 2.160 L 5.260 2.460 5.260 12.020 L 5.260 21.580 5.354 21.880 C 5.655 22.845,6.361 23.573,7.300 23.886 L 7.580 23.980 11.740 23.991 C 16.443 24.004,16.251 24.015,16.904 23.700 C 17.683 23.324,18.260 22.586,18.485 21.680 C 18.567 21.352,18.567 2.688,18.485 2.360 C 18.328 1.726,18.038 1.232,17.570 0.801 C 17.246 0.502,16.726 0.213,16.340 0.116 C 16.187 0.077,15.175 0.064,12.040 0.058 C 9.785 0.054,7.886 0.057,7.820 0.065 M9.514 1.586 C 9.443 1.725,9.400 1.874,9.400 1.976 C 9.401 2.166,9.547 2.501,9.685 2.628 C 9.913 2.837,9.940 2.840,11.889 2.839 C 13.909 2.838,13.876 2.842,14.148 2.555 C 14.310 2.383,14.360 2.248,14.360 1.980 C 14.360 1.732,14.310 1.578,14.188 1.447 L 14.101 1.355 15.081 1.367 L 16.060 1.380 16.320 1.505 C 16.654 1.665,16.940 1.950,17.097 2.280 L 17.220 2.540 17.220 12.020 L 17.220 21.500 17.096 21.760 C 16.900 22.172,16.566 22.471,16.143 22.613 C 15.998 22.662,15.812 22.679,15.443 22.677 C 15.135 22.676,14.971 22.662,15.020 22.642 C 15.064 22.623,15.152 22.554,15.215 22.487 C 15.445 22.244,15.378 21.867,15.070 21.680 C 14.943 21.602,14.863 21.600,11.909 21.600 C 8.569 21.600,8.677 21.592,8.521 21.848 C 8.365 22.103,8.444 22.450,8.692 22.602 L 8.820 22.680 8.346 22.680 C 7.797 22.680,7.534 22.619,7.250 22.424 C 6.997 22.250,6.750 21.941,6.634 21.654 L 6.540 21.420 6.540 12.020 L 6.540 2.620 6.633 2.390 C 6.817 1.934,7.239 1.538,7.666 1.420 C 7.798 1.384,8.142 1.366,8.744 1.364 L 9.628 1.360 9.514 1.586 " stroke="none" fill-rule="evenodd" fill="black"></path></svg>