<svg height="24" widht="24" viewBox="0 0 24 24" version="1.1" id="svg1" xmlns="http://www.w3.org/2000/svg">
   <path
      d="m 8.1161577,0.3129649 c -1.4400504,0 -2.6108231,1.2031813 -2.6108231,2.6828251 v 18.049058 c 0,1.479537 1.1707727,2.683571 2.6108231,2.683571 h 7.5501543 c 1.44005,0 2.611089,-1.203981 2.611089,-2.683571 V 2.99579 c 0,-1.4796438 -1.171039,-2.6828251 -2.611089,-2.6828251 z m 0,0.7720177 h 7.5501543 c 1.036825,0 1.859719,0.8454574 1.859719,1.9108074 v 18.049058 c 0,1.065297 -0.822894,1.911553 -1.859719,1.911553 H 8.1161577 c -1.0368257,0 -1.8597192,-0.846256 -1.8597192,-1.911553 V 2.99579 c 0,-1.06535 0.8228935,-1.9108074 1.8597192,-1.9108074 z m 2.1423553,0.2933322 c -0.3226551,0 -0.585973,0.2705546 -0.585973,0.6020966 0,0.3315411 0.2633179,0.6031607 0.585973,0.6031607 h 3.264645 c 0.322708,0 0.586771,-0.2716196 0.586771,-0.6031607 0,-0.331542 -0.264063,-0.6020966 -0.586771,-0.6020966 z M 8.9644358,21.86391 c -0.1473578,0 -0.2699696,0.126018 -0.2699696,0.277366 0,0.151349 0.1226118,0.276303 0.2699696,0.276303 H 14.8183 c 0.147357,0 0.269969,-0.1249 0.269969,-0.276303 0,-0.151348 -0.122612,-0.277366 -0.269969,-0.277366 z"
      id="path1" style="stroke-width:0.532169" />
</svg>