<svg xmlns="http://www.w3.org/2000/svg" width="24" height="24" viewBox="0 0 30.72 30.72"><rect width="8.129" height="29.953" x="22.483" y=".481" ry=".01" style="fill:#000;fill-rule:evenodd;stroke:#000;stroke-width:.067999"/><path d="M12.666 14.212 6.303 12.35a1.738 1.738 0 0 1 .49-3.406h3.905c.72 0 1.426.219 2.015.62a.92.92 0 0 0 1.15-.118l2.05-2.004c.418-.406.36-1.084-.107-1.443a8.33 8.33 0 0 0-5.096-1.768V1.403A.945.945 0 0 0 9.767.46H7.882a.945.945 0 0 0-.943.943V4.23h-.147C3.038 4.23.022 7.453.37 11.277c.248 2.716 2.322 4.926 4.938 5.692l6.04 1.767a1.738 1.738 0 0 1-.489 3.406H6.95a3.6 3.6 0 0 1-2.015-.619.92.92 0 0 0-1.15.118l-2.05 2.003c-.418.407-.36 1.084.106 1.444a8.33 8.33 0 0 0 5.097 1.768v2.828c0 .518.424.942.943.942h1.885a.945.945 0 0 0 .943-.942v-2.84c2.745-.053 5.32-1.685 6.228-4.284 1.266-3.63-.86-7.353-4.272-8.349" style="stroke-width:.0589205"/></svg>