<svg width="562.76" height="595.21" viewBox="0 0 148.9 157.48" xml:space="preserve" xmlns="http://www.w3.org/2000/svg">
  <path style="fill:#000"
    d="M106.4 223.48a8.06 8.06 0 0 1-6.04-7.77l-.02-1.8-3.18-2.29c-10.7-7.7-25.77-19.4-33.6-26.11-12.99-11.13-21.37-19.83-26.13-27.14-2.49-3.82-3.48-6.4-3.5-9.14-.01-1.8.1-2.31.7-3.48 2.17-4.13 7.62-6.87 16.14-8.14 3.25-.48 10.22-.94 14.43-.94 1.63 0 2.97-.04 2.97-.09 0-.05-.29-.95-.65-2a36.4 36.4 0 0 1-2.1-11.54c-.02-3.26.02-3.52.72-4.95a6.95 6.95 0 0 1 6.38-3.9c4.05 0 10.16 3.13 17.13 8.74a122.5 122.5 0 0 1 11.14 10.8l1.2 1.42 1.15-.55a10.95 10.95 0 0 1 5.78-1.05c1.74.1 2.44.29 4.07 1.1 3.14 1.54 5.66 4.75 6.2 7.85l.2 1.17 2.9.46c3.02.47 13.2 1.64 17 1.95l2.19.18-.3-.76-1.57-4.2a415.98 415.98 0 0 0-12.34-29.3c-1.69-3.68-3.25-7.1-3.47-7.61-.21-.51-2.6-5.45-5.29-10.98A886.6 886.6 0 0 1 113 81.98l-.62-1.37-1.13.55a7.8 7.8 0 0 1-5.96-.04 9.71 9.71 0 0 1-4.2-4.16c-.67-1.5-.63-4.64.08-6.21a9.08 9.08 0 0 1 4-4.02 8.7 8.7 0 0 1 6.5.06 8.07 8.07 0 0 1 4.52 7.23l.04 1.79 6.33 4.66c32.97 24.3 53.42 43.26 58.77 54.49 2.41 5.07 1.94 8.45-1.64 11.72-4.44 4.06-13.19 6.13-25.95 6.13-2.97 0-5.4.07-5.4.16 0 .08.35 1.19.77 2.44 1.35 4.03 2 7.74 2 11.42.01 3.1-.03 3.4-.74 4.85-1.9 3.84-6.04 4.82-11.42 2.7-6.48-2.57-16.14-10.2-23.06-18.24l-1.35-1.56-1.15.55a11.47 11.47 0 0 1-9.64.1c-3.13-1.47-5.88-4.9-6.37-7.95a3.3 3.3 0 0 0-.36-1.22c-.51-.31-18.9-2.51-21.03-2.51-.37 0-.67.12-.67.27 0 .5 3.42 9.54 5.81 15.35a742.69 742.69 0 0 0 18.12 39.7l4.96 10.22.97-.47c3.22-1.56 7.51-.27 9.5 2.85a7.73 7.73 0 0 1-1 9.86 9.16 9.16 0 0 1-2.25 1.62c-1.3.57-3.85.84-5.02.53zm-8.14-23.5c-10.5-18.95-20.98-40.11-25.87-52.26l-1.67-4.16-1.17-.17c-2.04-.3-15.05.08-18.04.54-3.56.54-7.48 1.75-9.06 2.8-3.18 2.1-3.05 4.49.5 9.47 4.12 5.77 14.38 15.91 26.41 26.12a576.94 576.94 0 0 0 24.21 19.12l8.07 6.02c.44.32.84.55.9.5.05-.05-1.87-3.64-4.28-7.98zm46.89-29.9c.85-.71 1.18-3.3.82-6.45-.36-3.15-1.4-7.78-2.08-9.32l-.5-1.16-3.02-.18c-5.74-.36-16.98-1.67-20.85-2.45l-.91-.18 1.3 1.69c.72.93 2.98 3.4 5.02 5.5 6.5 6.67 12.13 10.9 16.8 12.63 1.33.49 2.76.45 3.42-.09zm13.64-23.36c8.1-.45 12.63-1.46 15.7-3.52 2.43-1.63 2.71-3.25 1.12-6.44-3.87-7.72-22-24.65-46.45-43.4a510.53 510.53 0 0 0-14.28-10.55l-.79-.51.56.92c.31.51 2.23 3.9 4.26 7.54 10.1 18.1 21.73 41.74 25.89 52.58l1.29 3.36 2.78.09 3.97.13c.66.03 3.33-.06 5.95-.2zm-61.25-7.31c0-.34-3.04-3.92-5.48-6.47-6.67-6.94-14-12.27-18.25-13.24-1.19-.27-1.46-.25-2.06.14-.38.25-.82.77-.97 1.16-.42 1.08-.34 5.16.17 8.13.49 2.84 1.84 7.41 2.27 7.68.14.09 1.84.27 3.76.4 4.67.33 12.57 1.2 16.33 1.82 3.4.55 4.23.63 4.23.38z"
    transform="translate(-33.93 -66.13)" />
</svg>