<?xml version="1.0" encoding="UTF-8" standalone="no"?>
<!-- Created with Inkscape (http://www.inkscape.org/) -->

<svg
   width="148.89613mm"
   height="157.48248mm"
   viewBox="0 0 148.89613 157.48248"
   version="1.1"
   id="svg1"
   xml:space="preserve"
   inkscape:version="1.4.2 (ebf0e940, 2025-05-08)"
   sodipodi:docname="izotope.svg"
   xmlns:inkscape="http://www.inkscape.org/namespaces/inkscape"
   xmlns:sodipodi="http://sodipodi.sourceforge.net/DTD/sodipodi-0.dtd"
   xmlns="http://www.w3.org/2000/svg"
   xmlns:svg="http://www.w3.org/2000/svg"><sodipodi:namedview
     id="namedview1"
     pagecolor="#ffffff"
     bordercolor="#000000"
     borderopacity="0.25"
     inkscape:showpageshadow="2"
     inkscape:pageopacity="0.0"
     inkscape:pagecheckerboard="0"
     inkscape:deskcolor="#d1d1d1"
     inkscape:document-units="mm"
     inkscape:zoom="0.89887065"
     inkscape:cx="317.62078"
     inkscape:cy="318.17704"
     inkscape:window-width="1888"
     inkscape:window-height="985"
     inkscape:window-x="2576"
     inkscape:window-y="230"
     inkscape:window-maximized="0"
     inkscape:current-layer="layer1" /><defs
     id="defs1" /><g
     inkscape:label="Layer 1"
     inkscape:groupmode="layer"
     id="layer1"
     transform="translate(-33.931926,-66.130553)"><path
       style="fill:#000000"
       d="m 106.40638,223.48231 c -3.57174,-0.94301 -6.01318,-4.08092 -6.04698,-7.772 l -0.0165,-1.80045 -3.185972,-2.29005 C 86.451427,203.92477 71.38966,192.21909 63.558015,185.50746 50.570928,174.37767 42.192492,165.6765 37.43055,158.37358 c -2.490843,-3.81996 -3.477,-6.3967 -3.497509,-9.13869 -0.01352,-1.80838 0.0888,-2.31599 0.702524,-3.48525 2.165197,-4.12506 7.614323,-6.87425 16.132278,-8.13904 3.252394,-0.48294 10.225687,-0.93771 14.429686,-0.94105 1.63711,-10e-4 2.976563,-0.041 2.976563,-0.0883 0,-0.0473 -0.293849,-0.9499 -0.652998,-2.00585 -1.384222,-4.06978 -2.075249,-7.86344 -2.100999,-11.53425 -0.02285,-3.25702 0.01523,-3.51973 0.717384,-4.94972 1.200737,-2.44537 3.60613,-3.91992 6.378143,-3.90991 4.054569,0.0147 10.161504,3.13393 17.132612,8.75093 2.793815,2.25113 8.96561,8.23178 11.138046,10.79309 l 1.20778,1.42397 1.14783,-0.54918 c 1.83459,-0.87777 3.5168,-1.18449 5.77832,-1.05358 1.73993,0.10073 2.4379,0.28846 4.06836,1.09428 3.13975,1.55175 5.66594,4.75501 6.19527,7.85573 l 0.20066,1.17538 2.90365,0.45393 c 3.0261,0.47307 13.21032,1.64482 16.99937,1.95588 l 2.18948,0.17974 -0.29683,-0.76235 c -0.16325,-0.41929 -0.86763,-2.31016 -1.56529,-4.20194 -3.0715,-8.32863 -7.2073,-18.14708 -12.34156,-29.29901 -1.69258,-3.67637 -3.25402,-7.10104 -3.46988,-7.61036 -0.21586,-0.50932 -2.59676,-5.450419 -5.2909,-10.980209 -2.69414,-5.5298 -5.17554,-10.67094 -5.51424,-11.42478 l -0.6158,-1.3706 -1.13598,0.54918 c -1.60242,0.77468 -4.13261,0.75793 -5.95503,-0.0394 -1.56572,-0.68506 -3.51931,-2.61781 -4.20214,-4.15733 -0.67037,-1.51142 -0.63108,-4.648672 0.0779,-6.218372 0.708,-1.56759 2.43161,-3.29446 4.00905,-4.01664 1.79485,-0.82171 4.75018,-0.79497 6.48427,0.0587 2.77947,1.36827 4.47016,4.06442 4.5342,7.230702 l 0.0362,1.78773 6.33252,4.66744 c 32.96311,24.295749 53.41641,43.258799 58.76396,54.482319 2.41678,5.0724 1.94494,8.45001 -1.63789,11.72452 -4.44391,4.06148 -13.1883,6.12555 -25.95075,6.12555 -2.96775,0 -5.39592,0.0717 -5.39592,0.15941 0,0.0877 0.34492,1.189 0.76649,2.4474 1.35009,4.03007 2.00201,7.73813 2.00708,11.41611 0.004,3.10699 -0.0412,3.40051 -0.75127,4.84655 -1.88588,3.84064 -6.03286,4.81944 -11.41501,2.69424 -6.4803,-2.55881 -16.13642,-10.19181 -23.06197,-18.23008 l -1.34505,-1.56116 -1.15795,0.55408 c -3.0137,1.44207 -6.67211,1.47518 -9.63807,0.0872 -3.12923,-1.46434 -5.87491,-4.89122 -6.362617,-7.94117 -0.09665,-0.60441 -0.261955,-1.15222 -0.367346,-1.21736 -0.511606,-0.31619 -18.899959,-2.51568 -21.031793,-2.51568 -0.367123,0 -0.667497,0.12354 -0.667497,0.27453 0,0.49632 3.425338,9.53637 5.81624,15.35004 4.253468,10.34264 10.529102,24.09662 18.114988,39.70166 l 4.965575,10.21477 0.96358,-0.46536 c 3.22491,-1.55747 7.51639,-0.27363 9.5097,2.84491 2.08205,3.25739 1.68241,7.17904 -1.0055,9.86695 -0.61143,0.61143 -1.62438,1.33848 -2.25099,1.61566 -1.29626,0.5734 -3.84695,0.84384 -5.02505,0.5328 z M 98.264451,199.98069 C 87.758282,181.02703 77.282009,159.86517 72.393674,147.72223 l -1.674071,-4.1585 -1.170085,-0.17546 c -2.042822,-0.30634 -15.047001,0.0806 -18.044176,0.53688 -3.551369,0.54067 -7.473467,1.75518 -9.058452,2.80503 -3.174002,2.10237 -3.045476,4.48592 0.510606,9.46932 4.115343,5.76714 14.375621,15.91465 26.407221,26.11699 6.03531,5.11772 16.427969,13.3279 24.209376,19.12537 4.001823,2.98153 7.633227,5.6879 8.069787,6.01417 0.43657,0.32627 0.83799,0.55154 0.89205,0.50059 0.0541,-0.0509 -1.8681,-3.64011 -4.271479,-7.97593 z m 46.880809,-29.90986 c 0.85792,-0.70281 1.1888,-3.28624 0.82465,-6.43874 -0.36363,-3.14803 -1.39679,-7.78552 -2.07715,-9.32359 l -0.51212,-1.15773 -3.009,-0.18479 c -5.74488,-0.35281 -16.97885,-1.66995 -20.85484,-2.44515 l -0.9106,-0.18212 1.30842,1.69167 c 0.71964,0.93042 2.9753,3.40256 5.01259,5.49364 6.50623,6.67801 12.13606,10.91051 16.80105,12.63101 1.33146,0.49106 2.75768,0.45592 3.417,-0.0842 z m 13.64862,-23.35553 c 8.09687,-0.44284 12.6281,-1.45704 15.69654,-3.51327 2.43148,-1.62938 2.71446,-3.25608 1.11996,-6.43806 -3.87085,-7.72464 -21.99166,-24.65407 -46.44983,-43.395929 -4.62431,-3.54352 -12.88583,-9.65234 -14.28272,-10.56108 l -0.7865,-0.51165 0.56276,0.92604 c 0.30951,0.50932 2.22299,3.9026 4.25217,7.54062 10.09548,18.099719 21.73628,41.740049 25.8899,52.577619 l 1.28971,3.36512 2.78213,0.0844 c 1.53017,0.0464 3.31791,0.10742 3.97276,0.13554 0.65484,0.0281 3.33375,-0.0661 5.95312,-0.20937 z m -61.251037,-7.30687 c 0,-0.33617 -3.039877,-3.92102 -5.486215,-6.46975 -6.662169,-6.94104 -14.001531,-12.26687 -18.243197,-13.23825 -1.193557,-0.27333 -1.461942,-0.25537 -2.062331,0.13802 -0.379616,0.24873 -0.816527,0.77344 -0.970913,1.16601 -0.424694,1.07991 -0.340214,5.15186 0.168507,8.1221 0.486762,2.84203 1.838309,7.41695 2.269969,7.68373 0.144962,0.0896 1.837439,0.27181 3.76106,0.40495 4.66674,0.32298 12.572709,1.19996 16.329786,1.8114 3.402856,0.5538 4.233334,0.62869 4.233334,0.38179 z"
       id="path1"
       sodipodi:nodetypes="sscsssssscsssscsscsssscsscsssssscscssscccsssssscssscscsssssscsssssssscsssssssssssscsscssssssssscssscssssssssssssss" /></g></svg>
