<svg version="1.1" id="svg1" width="24" height="24" viewBox="0 0 24 24" xmlns="http://www.w3.org/2000/svg">
   <defs id="defs1" />
   <g id="g1">
      <path style="fill:#000000;stroke-width:0.0878145"
         d="m 9.1248887,23.700144 c -1.12582,-1.00504 -2.35666,-1.66214 -3.97659,-2.12295 -0.54736,-0.15571 -0.8652,-0.18907 -1.83647,-0.19275 -1.05358,-0.004 -1.22694,0.0158 -1.68309,0.19203 -0.81852997,0.31625 -0.94537997,0.14947 -1.14003997,-1.49879 -0.34759,-2.94328 -0.61991,-11.2147899 -0.42189,-12.8147199 0.0849,-0.68636 0.21801,-1.15835 0.44771,-1.58809 0.63050997,-1.1796 1.81747997,-1.69067 3.42635997,-1.47527 2.277,0.30485 3.70106,1.16493 4.99007,3.01382 0.66869,0.95913 0.88556,1.44066 1.0448,2.31977 0.0511,0.2819 0.1283903,1.8929999 0.3078303,6.4129199 0.1318,3.32004 0.23172,6.20268 0.22204,6.40586 -0.0272,0.57117 -0.20895,1.12917 -0.46019,1.41292 -0.2924003,0.33025 -0.4939503,0.31608 -0.9205403,-0.0648 z m 2.8628903,0.18972 c -0.27162,-0.16229 -0.49933,-0.59762 -0.5939,-1.13534 -0.0646,-0.36757 -0.52546,-12.27177 -0.50806,-13.1243799 0.0128,-0.62854 0.0336,-0.80705 0.14703,-1.26638 0.1646,-0.66626 0.62898,-1.75661 1.00445,-2.35838 0.42067,-0.67422 1.25687,-1.74139 1.84553,-2.35528 1.30108,-1.35684 2.88823,-2.3714 4.77786,-3.05417002 1.14899,-0.41516 1.69032,-0.53112 2.71929,-0.58248 1.07047,-0.0534 1.69837,0.0512 1.99884,0.33302 0.3342,0.31348 0.577,0.99090002 0.62005,1.72992002 0.0295,0.50649 -0.52625,17.6828399 -0.58419,18.0554499 -0.10492,0.67463 -0.38499,1.21168 -0.71411,1.3693 -0.13023,0.0624 -0.31477,0.0526 -0.66194,-0.0351 -1.62736,-0.41097 -3.88405,-0.3377 -5.54788,0.18014 -1.1977,0.37277 -2.68061,1.16458 -3.66303,1.9559 -0.46994,0.37854 -0.60856,0.42603 -0.83994,0.28777 z"
         id="path1" />
   </g>
</svg>