<svg width="24" height="24"><path d="M11.91.224Q10.738.225 9.64.465c.406.473.783.96 1.143 1.453.122.166.236.332.353.5.116.169.234.337.346.507s.22.347.327.52c.062.1.131.201.192.302.043.072.081.144.124.216.069.119.142.233.21.353l.092.166q.114.207.223.414.03.062.062.124c.08.153.163.303.24.457.013.025.02.05.032.075.157.315.313.631.457.951q.028.065.055.13l.044.093c.143.325.271.654.401.982q.007.013.013.025c.017.044.038.085.055.13q.083.21.161.42l.068.185q.066.186.13.371.098.278.191.557.093.28.18.562l.105.34c.022.074.04.148.062.222.038.132.08.258.117.39l.05.173c.04.15.072.301.11.45l.032.118c.095.373.188.74.271 1.113v.012q.237 1.065.415 2.126l.024.136q.066.405.124.81c.003.02.003.046.006.067.056.387.114.766.16 1.15q.073.61.13 1.211.007.05.013.1.052.55.093 1.093l-1.41.847.39.562 2.113 3.028 3.344-7.082-.322.185-1.155.668a46 46 0 0 0-.322-2.429q-.074-.484-.16-.964c-.042-.23-.091-.451-.136-.68l-.037-.198-.044-.216q-.076-.372-.16-.742c-.008-.033-.011-.06-.019-.092l-.018-.074a42 42 0 0 0-.451-1.793c-.005-.015-.002-.034-.007-.05q-.136-.487-.284-.97l-.043-.135-.025-.074-.012-.044q-.152-.482-.315-.958l-.019-.055c-.108-.313-.225-.621-.34-.927a33 33 0 0 0-.97-2.312q-.115-.249-.235-.494l-.006-.012a26 26 0 0 0-.933-1.725A21.5 21.5 0 0 0 13.219.305q-.644-.08-1.31-.08m1.847.155a26 26 0 0 1 1.83 2.806l.092-.062v-.266l.47-.309.723-.173c.319.187.62.397.914.618h-.185l.507.52.148-.155q.078.067.155.136c.089-.328.163-.626.216-.884a10.6 10.6 0 0 0-4.87-2.231m-4.61.204C4.618 1.799 1.286 5.929 1.286 10.842c0 2.99 1.237 5.694 3.226 7.626q.834-.263 1.6-.575l-.068-.154.044-.934-.316-.438-.692-.625-.71-1.285.197-.661-.08-.18.229-.352.321-.84v-.068l-.241-.111-.309.043-.55-.402-.352-.439-.816-.222-.668-.396a9.79 9.79 0 0 1 4.37-8.151l-.025.352-.433.402L5.037 4l.111.408.748.31.117.53.272-.58.433-.18-.043-.259.432-.748.55.31-.08.351.47-.179.197.402-.08.266.278.086.235.223-.08.265-.668.223h-.47l-.66.309h1.05l-.352.525-.699.136-.315.445-.544.223-.284.66-.742.619-.074.89-.432-.538-.587-.13-.075.266h-.47l-.593.445-.074.532.044.488.389.222.272-.136.272-.352h.272c-.04.31-.072.617-.112.927l.47-.05v.489l.155.451c.19.117.454.124.667.185v-.098l.705-.625.667.489.779-.087.309.84.587.13.315.63c.638.329 1.273.652 1.916.97l-.08.662-.464.668.025.315c1.89-1.26 3.134-2.528 3.615-3.195l-.822-.933-.39-.927.353-.532-.192-.216.427-1.026c.259-.323.532-.629.803-.94-.52-1.237-1.32-3.09-2.614-5.098q-.094.031-.192.062l-.389.618-.315.179-.47-.927.359-.358v-.359l-.903-.612.272-.272.383-.105Q9.445.934 9.147.583M7.583 2.047l.031.186.742.093.197.395.433.18-.39.352-.784-.532-.396-.13q-.256.173-.506.353l-.192.444h-.39L6.52 2.9l.315-.265-.018-.18.21-.123.043.08.068-.148c.144-.08.297-.144.445-.217M5.94 2.37h.013c-.01.006-.01.018-.019.025zm12.923.45c-.197 1.006-.606 2.453-1.434 4.302.445 1.244.96 2.914 1.304 4.24a24.5 24.5 0 0 0 2.262-6.026 10.7 10.7 0 0 0-2.132-2.515M7.849 3.03l.395.18v.302H7.93l-.39-.26Zm8.887 0-.427.402-.117.222.117.31-.123.327.185.37.365-.296.043-.223.513-.352c-.184.023-.376.038-.556.087V3.48l.198-.45ZM8.473 5.378l.359.266-.235.359Zm12.719.303c-.081.341-.186.737-.316 1.18.33.742.568 1.53.705 2.355-.074-.068-.147-.141-.222-.21l-.452.074-.408-.47v.575l.353.272.228.266.322-.352c.079.148.15.29.228.439v.445l-.352.395-.649.445-.47.47c.229-.017.46-.045.693-.074v.309l-.476 1.155-.427.488-.346.748v1.242l.105.482-.105.13.112.952 1.328-.717a10.6 10.6 0 0 0 1.49-5.438c0-1.875-.489-3.632-1.341-5.16m-1.595 4.617q-.107.232-.222.47c.103.272.205.546.333.815.142 0 .289-.003.427-.012l-.303-.346.155-.402-.31-.352zm-4.77 1.532c-2.89 4.193-7.572 6.287-9.815 7.095.826.706 1.753 1.29 2.769 1.718.228-.079.453-.154.698-.24a17.93 17.93 0 0 0 7.17-4.704 41 41 0 0 0-.823-3.869m.883 4.543c-1.167 1.226-3.34 3.086-7.02 4.604a10.6 10.6 0 0 0 6.297.043l-.606-.846 1.576-.897a30 30 0 0 0-.247-2.904" style="stroke-width:.197762"/></svg>