<!--***** BEGIN LICENSE BLOCK *****
  - Part of the Jellyfin project (https://jellyfin.media)
  -
  - All copyright belongs to the Jellyfin contributors; a full list can
  - be found in the file CONTRIBUTORS.md
  -
  - This work is licensed under the Creative Commons Attribution-ShareAlike 4.0 International License.
  - To view a copy of this license, visit http://creativecommons.org/licenses/by-sa/4.0/.
- ***** END LICENSE BLOCK *****-->
<svg xmlns="http://www.w3.org/2000/svg" xmlns:cc="http://creativecommons.org/ns#" xmlns:dc="http://purl.org/dc/elements/1.1/" xmlns:inkscape="http://www.inkscape.org/namespaces/inkscape" xmlns:rdf="http://www.w3.org/1999/02/22-rdf-syntax-ns#" xmlns:sodipodi="http://sodipodi.sourceforge.net/DTD/sodipodi-0.dtd" xmlns:xlink="http://www.w3.org/1999/xlink" inkscape:version="1.2.2 (b0a84865, 2022-12-01)" sodipodi:docname="jellyfin.svg" width="24" height="24"><sodipodi:namedview inkscape:current-layer="svg23" inkscape:cx="15.292" inkscape:cy="15.695" inkscape:deskcolor="#d1d1d1" inkscape:pagecheckerboard="false" inkscape:pageopacity="0" inkscape:showpageshadow="true" inkscape:window-height="999" inkscape:window-maximized="0" inkscape:window-width="1212" inkscape:window-x="694" inkscape:window-y="39" inkscape:zoom="14.878" bordercolor="#000000" borderlayer="false" borderopacity=".25" pagecolor="#ffffff" showborder="false" showgrid="false"/><defs><linearGradient id="a" x1="110.25" x2="496.14" y1="213.3" y2="436.09" gradientUnits="userSpaceOnUse" spreadMethod="pad"><stop offset="0" stop-color="#ddd"/><stop offset=".379" stop-color="#999"/></linearGradient><linearGradient xlink:href="#a" id="b" x1="110.25" x2="496.14" y1="213.3" y2="436.09" gradientUnits="userSpaceOnUse"><stop offset="0" stop-color="#ddd"/><stop offset="1" stop-color="#999"/></linearGradient></defs><g fill="url(#b)" style="fill:#000000;fill-opacity:1" transform="scale(.04688)"><path d="M256 201.62c-20.44 0-86.23 119.29-76.2 139.43 10.03 20.14 142.48 19.92 152.4 0 9.92-19.92-55.73-139.42-76.2-139.43z" style="fill:#000000;fill-opacity:1"/><path d="M256 23.3c-61.56 0-259.82 359.43-229.59 420.13 30.23 60.7 429.34 60 459.24 0C515.55 383.43 317.62 23.3 256 23.3Zm150.51 367.46c-19.59 39.33-281.08 39.77-300.89 0-19.81-39.77 110.09-275.28 150.44-275.28 40.35 0 170.04 235.94 150.45 275.28z" style="fill:#000000;fill-opacity:1"/></g><metadata><rdf:RDF><cc:Work><dc:title>icon-solid-monochrome</dc:title></cc:Work></rdf:RDF></metadata></svg>
