<svg xmlns="http://www.w3.org/2000/svg" xmlns:xlink="http://www.w3.org/1999/xlink" width="24" height="24"><path d="M11.501 0.418 C 11.369 0.473,11.135 0.604,10.981 0.708 C 10.623 0.950,9.605 1.963,9.120 2.560 C 6.179 6.178,2.566 12.718,1.042 17.180 C 0.254 19.487,0.110 20.901,0.599 21.519 C 1.746 22.967,7.854 23.838,14.600 23.517 C 19.529 23.282,22.946 22.419,23.434 21.285 C 23.664 20.750,23.621 19.933,23.293 18.661 C 22.391 15.153,19.327 8.998,16.304 4.620 C 15.424 3.347,14.659 2.385,13.921 1.627 C 12.797 0.471,12.146 0.146,11.501 0.418 M12.436 5.089 C 12.743 5.268,13.622 6.156,14.073 6.740 C 15.313 8.348,16.893 11.005,17.962 13.280 C 19.025 15.541,19.560 17.175,19.560 18.157 C 19.560 18.717,19.322 19.015,18.649 19.298 C 17.234 19.894,14.651 20.196,11.361 20.149 C 7.705 20.096,5.224 19.615,4.530 18.825 C 3.967 18.184,4.616 15.886,6.322 12.475 C 7.955 9.210,9.976 6.217,11.168 5.294 C 11.694 4.888,12.007 4.837,12.436 5.089 M11.628 9.363 C 10.539 10.084,8.209 14.318,8.096 15.780 C 8.068 16.142,8.140 16.289,8.425 16.448 C 9.571 17.087,13.972 17.119,15.357 16.498 C 15.736 16.328,15.781 16.259,15.776 15.847 C 15.772 15.597,15.741 15.401,15.666 15.149 C 15.080 13.204,13.143 9.924,12.242 9.353 C 12.012 9.207,11.860 9.209,11.628 9.363 " stroke="none" fill-rule="evenodd" fill="#000"></path></svg>