<svg xmlns="http://www.w3.org/2000/svg" xml:space="preserve" width="24" height="24" viewBox="0 0 24 24"><linearGradient id="a" x1="-2254.016" x2="-2267.51" y1="-2831.433" y2="-2961.618" gradientTransform="matrix(.07123 0 0 -.07123 169.745 -188.465)" gradientUnits="userSpaceOnUse"><stop offset="0" style="stop-color:#502d95"/><stop offset=".1" style="stop-color:#6d37ac"/><stop offset=".57" style="stop-color:#6786d1"/></linearGradient><path d="m9.839 12.84-1.1-.244s-.251 1.612-.35 2.421c-.154 1.307-.341 3.114-.268 4.498.082 1.522.497 2.987.635 2.987.139 0-.073-.932.02-2.983.062-1.368.29-3.012.562-4.497.135-.733.525-2.174.525-2.174H9.84z" style="fill:url(#a);stroke-width:.0407008"/><linearGradient id="b" x1="-2175.81" x2="-2189.303" y1="-2839.483" y2="-2969.721" gradientTransform="matrix(.07123 0 0 -.07123 169.745 -188.465)" gradientUnits="userSpaceOnUse"><stop offset="0" style="stop-color:#502d95"/><stop offset=".1" style="stop-color:#6d37ac"/><stop offset=".57" style="stop-color:#6786d1"/></linearGradient><path d="M14.475 12.726h.338c.451 1.685.537 4.115.44 5.946-.107 2.015-.66 3.957-.84 3.957-.178 0 .098-1.234-.028-3.953-.09-1.81-.472-3.516-.513-5.95z" style="fill:url(#b);stroke-width:.0407008"/><linearGradient id="c" x1="-1831.757" x2="-1831.757" y1="-2576.996" y2="-2695.45" gradientTransform="matrix(.08629 0 0 -.08629 173.805 -209.034)" gradientUnits="userSpaceOnUse"><stop offset="0" style="stop-color:#763dcd"/><stop offset=".22" style="stop-color:#8d61eb"/><stop offset=".37" style="stop-color:#8c86ec"/><stop offset=".64" style="stop-color:#748ce8"/><stop offset=".9" style="stop-color:#6ba1e6"/></linearGradient><path d="M15.492 7.451h.542c.724 2.695 1.062 6.59.903 9.524-.17 3.232-1.054 6.337-1.347 6.337s.155-1.978-.045-6.333c-.134-2.906-.956-5.633-1.021-9.532z" style="fill:url(#c);stroke-width:.0407008"/><linearGradient id="d" x1="-1891.134" x2="-1891.134" y1="-2576.996" y2="-2695.45" gradientTransform="matrix(.08629 0 0 -.08629 173.805 -209.034)" gradientUnits="userSpaceOnUse"><stop offset="0" style="stop-color:#763dcd"/><stop offset=".22" style="stop-color:#8d61eb"/><stop offset=".37" style="stop-color:#8c86ec"/><stop offset=".64" style="stop-color:#748ce8"/><stop offset=".9" style="stop-color:#6ba1e6"/></linearGradient><path d="M10.885 7.39h-.541c-.725 2.695-1.063 6.59-.904 9.524.17 3.232 1.054 6.337 1.347 6.337s-.154-1.978.045-6.333c.134-2.906.956-5.633 1.022-9.532h-.97z" style="fill:url(#d);stroke-width:.0407008"/><linearGradient id="e" x1="-1922.004" x2="-1922.004" y1="-2576.996" y2="-2695.45" gradientTransform="matrix(.08629 0 0 -.08629 173.805 -209.034)" gradientUnits="userSpaceOnUse"><stop offset="0" style="stop-color:#763dcd"/><stop offset=".22" style="stop-color:#8d61eb"/><stop offset=".37" style="stop-color:#8c86ec"/><stop offset=".64" style="stop-color:#748ce8"/><stop offset=".9" style="stop-color:#6ba1e6"/></linearGradient><path d="m9.216 6.165-1.229-.44s-.452 2.878-.623 4.323c-.272 2.332-.814 5.56-.68 8.03.147 2.719.888 5.336 1.132 5.336s-.13-1.665.04-5.332c.115-2.446.864-4.762 1.116-8.034.102-1.298.297-3.887.297-3.887Z" style="fill:url(#e);stroke-width:.0407008"/><linearGradient id="f" x1="-1862.421" x2="-1862.421" y1="-2576.996" y2="-2695.45" gradientTransform="matrix(.08629 0 0 -.08629 173.805 -209.034)" gradientUnits="userSpaceOnUse"><stop offset="0" style="stop-color:#763dcd"/><stop offset=".22" style="stop-color:#8d61eb"/><stop offset=".37" style="stop-color:#8c86ec"/><stop offset=".64" style="stop-color:#748ce8"/><stop offset=".9" style="stop-color:#6ba1e6"/></linearGradient><path d="m13.282 7.451-1.111.187s.147 2.158.147 3.383c0 1.99.077 3.996.073 6.084-.008 2.398.395 6.415.602 6.415.208 0 .883-5.17 1.026-8.262.093-2.064-.212-3.871-.265-5.104a53 53 0 0 0-.203-2.58z" style="fill:url(#f);stroke-width:.0407008"/><linearGradient id="g" x1="-1735.548" x2="-1586.936" y1="-2673.095" y2="-2838.19" gradientTransform="matrix(.07285 0 0 -.07285 135.004 -189.521)" gradientUnits="userSpaceOnUse"><stop offset="0" style="stop-color:#c395fc"/><stop offset="1" style="stop-color:#4f65f5"/></linearGradient><path d="M19.4 8.106c0 2.8-.477 2.972-1.254 4.156-.562.85.574 1.51.118 1.746-.541.28-.37-.228-1.449-.517-.468-.122-1.486.012-1.897.094-.407.077-1.652-.615-1.982-.704-.492-.135-1.701.508-2.438.508-.736 0-1.506-.643-2.487-.378-1.164.313-2.568 1.07-2.78.822-.406-.476.892-.838.408-1.685-.306-.537-1.36-1.95-1.392-3.378C4.149 4.179 7.95.3 12.024.3c4.075 0 7.371 3.533 7.371 7.485" style="fill:url(#g);stroke-width:.0407008"/><linearGradient id="h" x1="-1059.872" x2="-1059.872" y1="-6378.031" y2="-6594.775" gradientTransform="matrix(.02076 0 0 -.02076 30.88 -130.408)" gradientUnits="userSpaceOnUse"><stop offset="0" style="stop-color:#fff;stop-opacity:.4"/><stop offset="1" style="stop-color:#fff;stop-opacity:0"/></linearGradient><path d="M11.772 1.757c-2.226 0-5.336 2.304-5.336 4.53a.446.446 0 1 1-.895 0c0-2.719 3.508-5.421 6.231-5.421a.446.446 0 1 1 0 .891" style="clip-rule:evenodd;fill:url(#h);fill-rule:evenodd;stroke-width:.0407008"/><linearGradient id="i" x1="-1351.382" x2="-1485.195" y1="-3908.894" y2="-4007.24" gradientTransform="matrix(.04151 0 0 -.04151 70.345 -155.924)" gradientUnits="userSpaceOnUse"><stop offset="0" style="stop-color:#f9f9f9"/><stop offset="1" style="stop-color:#f9f9f9;stop-opacity:0"/></linearGradient><path d="M15.065 10.174a2.56 2.56 0 0 1-.936.908q-.244.133-.513.211a4.45 4.45 0 0 1-1.734.379c-2.068.037-3.785-1.286-3.854-2.963-.033-.822.46-1.677.838-2.332.322-.558.875-1.514 1.604-1.897 1.485-.781 3.492.045 4.493 1.856a4.5 4.5 0 0 1 .537 1.673c.045.187.074.378.074.57.008.496-.139.989-.416 1.428q-.041.085-.09.163-.002.005-.003.004" style="fill:url(#i);stroke-width:.0407008"/><linearGradient id="j" x1="-1293.035" x2="-1228.344" y1="-3139.552" y2="-3205.578" gradientTransform="matrix(.0582 0 0 -.0582 85.41 -176.012)" gradientUnits="userSpaceOnUse"><stop offset="0" style="stop-color:#0043a2"/><stop offset="1" style="stop-color:#00133a"/></linearGradient><path d="M11.797 6.06a2.332 2.332 0 1 1-2.23 1.644 1.164 1.164 0 1 0 1.538-1.539c.22-.07.447-.102.692-.106" style="fill:url(#j);stroke-width:.0407008"/></svg>