<svg width="24" height="24" xmlns="http://www.w3.org/2000/svg">
  <path fill="#f3c9bf" fill-rule="evenodd"
    d="M21.293.743c-.47.103-1.917.636-2.903 1.069-3.582 1.571-5.244 3.183-5.654 5.482-.182 1.025-.098 10.476.091 10.14 1.508-2.69 4.195-4.462 8.603-5.67 1.307-.36 1.517-.492 1.714-1.088.096-.288.112-8.254.018-8.674-.196-.876-1.035-1.441-1.869-1.259"
    style="stroke-width:.0395637;fill:#000" />
  <path fill="#ae7a93" fill-rule="evenodd"
    d="M2.126.76c-.632.2-1.041.654-1.147 1.27-.098.574-.034 8.315.071 8.548.206.455.451.591 1.64.912.904.244 1.377.39 1.948.6.862.316.845.251.153.585-1.212.585-1.106.1-1.12 5.11-.013 4.787-.02 4.698.375 5.094.526.525.936.566 2.2.22 2.359-.647 4.594-2.47 5.107-4.167.095-.315.088-10.967-.008-11.63-.38-2.628-2.57-4.483-7.293-6.176C2.937.726 2.496.643 2.126.76m15.953 11.886c-2.472 1.118-4.166 2.565-5.213 4.454-.268.484-.118 1.885.292 2.73.819 1.685 4.768 3.853 6.228 3.42.292-.087.853-.48.853-.598 0-.022.016-.04.036-.04.198 0 .297-8.511.105-9.063-.139-.397-.375-.587-1.193-.957-.563-.255-.407-.262-1.108.054"
    style="stroke-width:.0389108;fill:#000" />
</svg>