<?xml version="1.0" encoding="UTF-8" standalone="no"?>
<svg
   width="24"
   height="24"
   fill="none"
   viewBox="0 0 24 24"
   version="1.1"
   id="svg1"
   sodipodi:docname=":juxtatext:.svg"
   inkscape:version="1.4.3 (0d15f75, 2025-12-25)"
   xmlns:inkscape="http://www.inkscape.org/namespaces/inkscape"
   xmlns:sodipodi="http://sodipodi.sourceforge.net/DTD/sodipodi-0.dtd"
   xmlns="http://www.w3.org/2000/svg"
   xmlns:svg="http://www.w3.org/2000/svg">
  <defs
     id="defs1" />
  <sodipodi:namedview
     id="namedview1"
     pagecolor="#505050"
     bordercolor="#ffffff"
     borderopacity="1"
     inkscape:showpageshadow="0"
     inkscape:pageopacity="0"
     inkscape:pagecheckerboard="1"
     inkscape:deskcolor="#505050"
     inkscape:zoom="15.323774"
     inkscape:cx="14.22626"
     inkscape:cy="26.135859"
     inkscape:window-width="1710"
     inkscape:window-height="1044"
     inkscape:window-x="0"
     inkscape:window-y="40"
     inkscape:window-maximized="0"
     inkscape:current-layer="svg1" />
  <path
     id="path4"
     style="fill:#000000;fill-opacity:1;stroke-width:1.39652"
     d="m 7.3865777,0.38748682 c -0.3956823,0 -0.8030023,0.16238246 -1.2219591,0.48823816 L 1.2767819,5.6244547 H 1.1376749 V 5.9026686 H 0.9985679 L 0.72035391,6.461824 0.5785195,7.0209795 V 7.8583493 H 0.72035391 L 0.9985679,8.2783976 4.9099281,12.047922 H 4.7680938 l 1.1183108,1.118312 A 1.6758297,1.6758297 0 0 0 8.818561,12.18703 h 0.062735 v -0.0028 -0.0028 -0.0028 -0.0028 -0.0028 c -0.00249,-0.02753 0.00342,-0.05484 0.00818,-0.08182 0.00803,-0.04225 0.020512,-0.0816 0.032731,-0.122741 0.00418,-0.01461 0.00883,-0.03129 0.010909,-0.04636 0.00245,-0.01968 0.00701,-0.03785 0.010909,-0.05727 0.0019,-0.0076 0.00423,-0.01652 0.00546,-0.02456 C 8.914649,11.443939 8.7783601,11.048085 8.5403471,10.651398 L 6.5846669,8.8348253 H 21.946439 c 1.210322,0 1.816573,-0.5575186 1.816573,-1.6747389 0,-0.55861 -0.186749,-1.0241181 -0.559155,-1.3965247 H 23.06475 C 22.692345,5.4842567 22.36485,5.343513 22.085546,5.3435132 H 6.5846669 L 8.5403471,3.3905605 c 0.7448132,-0.8379147 0.7448132,-1.6769207 0,-2.51483552 C 8.1679405,0.54986928 7.7822593,0.38748682 7.3865777,0.38748682 Z M 17.2659,10.365001 a 1.6758297,1.6758297 0 0 0 -1.742929,1.682921 h -0.06001 c 8.59e-4,0.0027 0.002,0.0054 0.0028,0.0082 0.0056,0.02308 0.0073,0.0473 0.0082,0.07092 7.08e-4,0.02445 -9.5e-5,0.04917 0,0.07364 8.9e-5,0.02892 -1.4e-5,0.05836 0,0.08728 1.2e-5,0.02788 -4e-6,0.05395 0,0.08182 0.0023,0.03448 -0.004,0.06801 -0.01368,0.100918 -0.0051,0.02777 -0.01932,0.0523 -0.02728,0.0791 -0.0047,0.02885 -0.01033,0.05932 -0.01909,0.08728 -0.01786,0.04946 -0.04762,0.07358 -0.08728,0.106378 -0.0034,0.0028 -0.0079,0.0058 -0.01092,0.0082 0.06813,0.246395 0.184781,0.477348 0.346308,0.692719 L 17.6177,15.26095 H 2.3950927 a 1.6758297,1.6758297 0 0 0 -1.2574178,3.071263 h 0.1391064 c 0.279305,0.279305 0.6067973,0.420048 0.9792038,0.420048 H 17.756865 l -1.95568,1.952954 a 1.7297749,1.7297749 0 0 0 2.375728,2.514835 l 4.887837,-4.748731 h 0.278213 v -0.139106 h 0.139109 v -0.139107 l 0.280941,-0.42005 0.139108,-0.698262 v -0.837368 l -0.42005,-0.559156 -3.769525,-3.630419 h -0.139109 l -1.11831,-1.11831 A 1.6758297,1.6758297 0 0 0 17.2659,10.364974 Z m -8.2809561,1.802936 c -9.074e-4,0.0018 -0.0019,0.0036 -0.00272,0.0054 -0.00182,0.0047 -0.00373,0.0092 -0.00546,0.01368 h 0.00818 c -6.29e-5,-0.0036 5.84e-5,-0.0073 0,-0.01092 -3.93e-5,-0.0027 4.58e-5,-0.0054 0,-0.0082 z" />
  <path
     d="M 1,3 H 23.4 Z"
     id="path2"
     style="fill:#000000;fill-opacity:1" />
</svg>
