<svg xmlns="http://www.w3.org/2000/svg" width="24" height="24" fill="none" viewBox="0 0 24 24"><path fill="#000" fill-rule="evenodd" d="M18.8 0C21.7 0 24 2.3 24 5.2v13.6c0 2.9-2.3 5.2-5.2 5.2H5.2A5 5 0 0 1 0 18.8V5.2C0 2.3 2.3 0 5.2 0zM.8 21v.1h22.4zM9.4 4q-.8-.7-1.7 0L4.2 7.4H.1h4v.2H4l-.2.4-.1.4V9h.1l.2.3L6.8 12H0h6.7l.8.8a1.2 1.2 0 0 0 2.1-.7h4.6q0 .5.3.9l1.4 1.3H5a1.2 1.2 0 0 0-.9 2.2h-4 4.1q.3.3.7.3H16l-1.4 1.4a1.2 1.2 0 0 0 1.7 1.8l3.5-3.4H24h-4v-.1h.1v-.1l.2-.3.1-.5V15l-.3-.4-2.7-2.6h6.6V12h-6.7l-.8-.8a1.2 1.2 0 0 0-2.1.8H9.7q0-.5-.3-1L8 9.7h11q1.3 0 1.3-1.2 0-.6-.4-1h4-4.1q-.4-.3-.7-.3H8l1.4-1.4q.8-.9 0-1.8M1 3h22.4z" clip-rule="evenodd"/></svg>