<svg xmlns="http://www.w3.org/2000/svg" width="24" height="24" fill="none"><path fill="black" d="M0 10.213C0 4.986 5.371.75 11.995.75 18.62.75 24 4.99 24 10.217c0 5.228-5.371 9.463-11.995 9.463-.726 0-1.443-.049-2.132-.148l-.214.149c-1.071.749-4.506 3.149-4.855 3.199 0 0-.158.059-.289-.018-.13-.077-.108-.28-.108-.28l1.217-4.348C2.244 16.554 0 13.593 0 10.213Zm4.668 2.636c0 .365.311.662.694.662.379 0 .69-.301.69-.662V8.735h1.081a.675.675 0 1 0 0-1.352H3.587a.675.675 0 1 0 0 1.352h1.081v4.114Zm6.187.347c.068.19.289.306.577.306.153 0 .307-.027.442-.09.19-.08.374-.329.162-.982l-1.654-4.357c-.112-.334-.473-.694-.923-.685-.451.009-.807.351-.924.685L6.88 12.43c-.212.654-.027.892.162.982.14.059.289.09.442.09.288 0 .509-.117.577-.306l.342-.901h2.109l.342.901ZM9.46 9.104l.689 1.965H8.769l.69-1.965Zm3.028 3.678c0 .347.302.63.662.63l2.222-.013c.365 0 .662-.284.662-.631 0-.347-.302-.63-.662-.63H13.9V8.072a.703.703 0 0 0-.707-.694.7.7 0 0 0-.707.694v4.708Zm3.812.027c0 .378.31.694.694.694v-.014a.7.7 0 0 0 .694-.694v-1.51l.239-.238 1.622 2.15a.698.698 0 0 0 .969.134.642.642 0 0 0 .27-.45.694.694 0 0 0-.135-.514l-1.703-2.253 1.586-1.577a.54.54 0 0 0 .153-.424.64.64 0 0 0-.203-.437.685.685 0 0 0-.477-.203.534.534 0 0 0-.383.153l-1.938 1.938V8.077a.7.7 0 0 0-.694-.694.697.697 0 0 0-.694.694v4.732Z"/></svg>
