<svg viewBox="0 0 24 24" width="24" height="24"><path d="M8.758.012c-1.246.136-2.309.636-3.16 1.48a5.235 5.235 0 0 0-1.52 3.016 6.485 6.485 0 0 0-.031 1.137c.027.265.066.523.117.742.063.273 4.008 14.054 4.078 14.238.086.234.332.734.469.945.855 1.367 2.273 2.242 3.906 2.414a7.961 7.961 0 0 0 1.297-.03 5.276 5.276 0 0 0 3.238-1.821c.356-.426.72-1.051.903-1.563.234-.64.32-1.215.32-2.113v-.453l.094-.02a.91.91 0 0 0 .656-.597c.035-.117.04-.184.04-1.953v-1.832l.136-.04a.95.95 0 0 0 .648-.695c.012-.066.02-.383.02-.87 0-.84-.004-.888-.106-1.095l-.05-.101.058-.117c.094-.192.098-.254.098-1.09 0-.836-.004-.895-.106-1.094a.936.936 0 0 0-.562-.46L19.164 8v-.438c0-.39-.004-.449-.039-.554a.875.875 0 0 0-.617-.578l-.125-.032-.008-.793a19.223 19.223 0 0 0-.035-.984A5.28 5.28 0 0 0 15.582.594a5.66 5.66 0 0 0-1.668-.551c-.18-.031-.406-.031-2.644-.035-1.348 0-2.477 0-2.512.004ZM13.5.824a4.452 4.452 0 0 1 3.914 3.309c.113.445.117.539.129 1.43l.012.832h-.793v-.743c0-.804-.012-.96-.106-1.332a3.642 3.642 0 0 0-3.12-2.707c-.247-.027-4.442-.027-4.677 0-.933.106-1.77.551-2.363 1.258a3.634 3.634 0 0 0-.805 3.008c.043.223 3.985 14.031 4.07 14.25a3.576 3.576 0 0 0 2.075 2.043 3.816 3.816 0 0 0 1.664.219 3.634 3.634 0 0 0 3.234-3.098c.02-.148.028-.352.028-.746V18h.793l-.012.633c-.012.676-.023.82-.129 1.234a4.447 4.447 0 0 1-3.36 3.223c-.34.07-.546.094-.921.094a4.38 4.38 0 0 1-3.898-2.36 5.436 5.436 0 0 1-.204-.441c-.105-.274-4.043-14.047-4.097-14.336-.11-.586-.106-1.2.02-1.774A4.63 4.63 0 0 1 5.87 2.41c.2-.238.535-.558.758-.726A4.48 4.48 0 0 1 8.945.82C9.156.8 13.305.81 13.5.824Zm.094 1.621c.633.125 1.113.375 1.543.813.308.308.535.68.668 1.086.129.39.14.515.14 1.336v.722l-.082.016c-.238.039-.511.254-.62.484-.079.172-.095.274-.095.711v.39l-.085.02a.97.97 0 0 0-.665.622c-.043.117-.043.152-.05.835-.008.84.004.985.097 1.184l.067.137-.067.136c-.093.2-.105.344-.097 1.184.007.684.007.719.05.832a.975.975 0 0 0 .665.625l.085.02v1.797c0 1.242.008 1.828.024 1.898.07.336.348.617.683.687l.106.024-.012.535c-.008.602-.027.758-.136 1.102a2.853 2.853 0 0 1-1.895 1.836 2.96 2.96 0 0 1-1.512.02 2.81 2.81 0 0 1-1.86-1.63c-.085-.203-4.007-13.926-4.054-14.172a3.352 3.352 0 0 1 .012-1.008c.059-.28.14-.503.266-.75a2.809 2.809 0 0 1 2.285-1.519c.11-.008 1.14-.012 2.289-.008 1.867.004 2.11.008 2.25.035Zm4.734 4.801c.024.027.027.113.027.39v.352h-2.378v-.363c0-.36 0-.367.043-.398.035-.024.164-.028 1.16-.024 1.086.008 1.125.008 1.148.043Zm.777 1.606c.036.035.04.058.04.75 0 .687-.004.71-.04.75-.035.035-.062.035-1.949.035h-1.91l-.039-.047c-.035-.05-.039-.074-.039-.738 0-.668.004-.692.039-.743l.04-.046h1.91c1.886 0 1.913 0 1.948.039Zm0 2.398c.036.035.04.063.04.75 0 .688-.004.715-.04.75-.035.04-.062.04-1.949.04h-1.91l-.039-.052c-.035-.047-.039-.07-.039-.738 0-.668.004-.691.039-.738l.04-.051h1.91c1.886 0 1.913 0 1.948.039Zm-.75 4.121c0 1.606 0 1.758-.03 1.79-.028.03-.09.034-1.153.034-.738 0-1.137-.008-1.16-.02-.035-.019-.035-.062-.035-1.792v-1.77h2.378Zm0 0"/></svg>