<svg viewBox="0 0 24 24" width="24" height="24"><path d="M18.93 2.113A5.172 5.172 0 0 0 14.734 0h-3.87a5.23 5.23 0 0 0-5.227 5.223V6.41a.888.888 0 0 0-.797.88v.726a.934.934 0 0 0-.8.921v1.325c0 .203.062.386.17.539a.914.914 0 0 0-.17.539v1.324c0 .469.347.856.8.922v3.523c0 .461.351.836.797.883v.785A5.233 5.233 0 0 0 10.863 24a5.196 5.196 0 0 0 5-3.71L19.73 6.741a5.163 5.163 0 0 0-.8-4.629ZM5.64 7.29c0-.047.04-.09.09-.09h2.22c.05 0 .09.043.09.09V8h-2.4Zm0 9.82v-3.507h2.4v3.507a.09.09 0 0 1-.09.09H5.73c-.05 0-.09-.039-.09-.09Zm-.8-4.445v-1.328c0-.074.062-.137.137-.137h3.726c.074 0 .137.063.137.137v1.328a.138.138 0 0 1-.137.137H4.977a.138.138 0 0 1-.137-.137Zm3.2 5.328a.89.89 0 0 0 .8-.883v-3.523c.45-.066.8-.453.8-.922v-1.328c0-.2-.066-.383-.171-.535a.951.951 0 0 0 .172-.54V8.939a.944.944 0 0 0-.801-.926v-.723a.883.883 0 0 0-.8-.879V5.223a2.828 2.828 0 0 1 2.823-2.825h3.871c.903 0 1.73.418 2.266 1.145.54.723.7 1.637.434 2.508l-3.875 13.57a2.799 2.799 0 0 1-2.696 1.98 2.828 2.828 0 0 1-2.824-2.824Zm-3.2-9.055c0-.074.062-.136.137-.136h3.726c.074 0 .137.062.137.136v1.325a.14.14 0 0 1-.137.14H4.977a.14.14 0 0 1-.137-.14Zm14.125-2.421-3.871 13.546a4.398 4.398 0 0 1-4.23 3.137 4.429 4.429 0 0 1-4.427-4.422V18h.801v.777a3.627 3.627 0 0 0 3.625 3.621 3.585 3.585 0 0 0 3.461-2.55L18.2 6.278a3.577 3.577 0 0 0-.554-3.212 3.583 3.583 0 0 0-2.91-1.464h-3.872c-2 0-3.625 1.625-3.625 3.62v1.176h-.8V5.223A4.429 4.429 0 0 1 10.863.8h3.871c1.414 0 2.711.652 3.551 1.789a4.382 4.382 0 0 1 .68 3.926Zm0 0"/></svg>