<?xml version="1.0" standalone="no"?>
<!DOCTYPE svg PUBLIC "-//W3C//DTD SVG 20010904//EN"
 "http://www.w3.org/TR/2001/REC-SVG-20010904/DTD/svg10.dtd">
<svg version="1.0" xmlns="http://www.w3.org/2000/svg"
 width="1024.000000pt" height="1024.000000pt" viewBox="0 0 1024.000000 1024.000000"
 preserveAspectRatio="xMidYMid meet">

<g transform="translate(0.000000,1024.000000) scale(0.100000,-0.100000)"
fill="#000000" stroke="none">
<path d="M3130 9243 c-626 -26 -913 -75 -1162 -199 -48 -24 -90 -44 -92 -44
-3 0 -17 22 -32 50 -62 114 -168 119 -274 11 -97 -100 -161 -247 -200 -462
-16 -91 -27 -122 -64 -186 -137 -239 -207 -496 -266 -983 -6 -52 -22 -174 -35
-270 -32 -235 -42 -359 -60 -722 -16 -315 -10 -609 16 -823 21 -174 74 -341
150 -476 52 -91 51 -110 -10 -170 -30 -30 -65 -79 -87 -125 -33 -66 -38 -87
-42 -164 -4 -70 0 -103 17 -158 21 -70 79 -168 125 -211 l25 -23 -48 -47 c-65
-63 -96 -151 -95 -271 1 -143 40 -240 125 -313 24 -20 51 -43 61 -51 55 -47
256 -53 338 -11 17 9 37 29 45 46 27 50 11 95 -96 269 -65 107 -93 166 -81
174 5 3 57 -11 116 -30 136 -44 209 -52 256 -27 50 26 73 75 65 142 -6 60 -61
192 -106 256 -20 29 -109 257 -109 280 0 1 24 -6 53 -16 67 -22 242 -35 280
-20 15 6 116 20 225 32 236 25 447 22 642 -12 100 -17 171 -21 352 -23 124 0
224 2 222 6 -4 6 176 21 263 22 23 0 39 4 37 8 -3 4 40 8 96 8 95 0 265 10
475 27 142 11 408 8 413 -6 9 -28 140 -4 264 49 38 16 68 25 66 21 -2 -3 -29
-56 -60 -117 -31 -61 -66 -141 -76 -180 -23 -83 -59 -169 -77 -184 -9 -8 -13
-7 -11 2 3 32 -21 19 -42 -23 -30 -61 -32 -150 -5 -188 16 -21 34 -28 94 -39
100 -18 237 -10 317 18 35 12 66 20 69 17 3 -4 6 -41 6 -84 0 -77 -1 -80 -66
-206 -70 -134 -127 -293 -127 -353 0 -39 30 -75 89 -107 l34 -18 -6 -212 c-25
-822 -20 -1227 18 -1407 9 -41 12 -49 9 -20 -19 159 -23 260 -23 545 2 556 12
884 28 895 9 5 33 1 65 -12 28 -11 80 -30 116 -42 60 -19 65 -24 72 -56 4 -19
5 -109 2 -200 -9 -241 11 -747 35 -905 37 -238 80 -393 148 -530 60 -119 92
-164 187 -263 43 -45 75 -82 70 -82 -5 1 -38 7 -74 15 -36 8 -87 15 -115 15
-109 1 -215 44 -294 118 -50 47 -104 122 -122 170 -5 14 -12 23 -15 20 -7 -8
31 -91 71 -153 47 -74 109 -140 168 -180 31 -21 44 -35 35 -38 -7 -3 25 -5 72
-4 47 0 384 -3 750 -7 708 -10 826 -5 1038 35 59 12 177 25 262 29 170 9 255
21 372 51 420 106 843 519 1019 994 18 50 41 102 51 117 27 39 46 97 78 243
69 307 81 556 71 1440 -6 508 -5 666 5 725 20 116 34 806 34 1645 0 926 -12
1132 -80 1477 -45 225 -105 392 -212 597 -106 201 -142 244 -332 404 -191 159
-334 243 -539 316 -282 99 -479 120 -1317 137 -189 4 -346 11 -360 17 -17 7
-559 10 -1635 11 -885 1 -1635 0 -1665 -1z m1450 -199 l25 -13 -25 0 c-14 0
-43 8 -65 19 l-40 19 40 -6 c22 -3 51 -12 65 -19z m653 -580 c36 -56 82 -135
103 -175 38 -76 144 -358 144 -381 -1 -13 -99 223 -121 290 -14 43 -92 176
-154 265 -24 35 -47 76 -51 92 -9 41 2 29 79 -91z m-1043 -2307 c0 -2 -10 -12
-22 -23 l-23 -19 19 23 c18 21 26 27 26 19z m-576 -548 c-10 -12 -32 -30 -49
-41 -23 -15 -20 -11 12 21 44 42 71 57 37 20z m-227 -153 c-110 -53 -256 -56
-359 -7 -47 23 -49 23 84 -5 77 -16 209 -6 269 20 54 23 59 17 6 -8z m1374
-1269 c-8 -11 -6 -13 11 -13 18 1 22 -6 26 -36 3 -36 2 -37 -20 -29 -30 11
-46 54 -28 75 7 9 15 16 17 16 3 0 0 -6 -6 -13z m445 -336 c-21 -40 -39 -50
-34 -20 3 27 41 75 46 60 2 -5 -4 -23 -12 -40z m1405 -456 c35 -58 101 -165
147 -238 98 -155 86 -150 -21 10 -82 121 -164 256 -197 325 -30 61 -3 24 71
-97z m-521 -1005 c27 -102 56 -205 65 -230 9 -25 21 -58 26 -75 l8 -30 -18 22
c-30 36 -108 288 -135 437 -28 148 -34 235 -9 126 8 -36 37 -148 63 -250z"/>
<path d="M1064 3506 c-112 -49 -131 -245 -32 -332 71 -63 140 -71 226 -28 87
43 171 156 172 231 0 59 -73 100 -204 112 -48 4 -70 10 -68 19 3 16 -54 15
-94 -2z"/>
<path d="M5172 1630 c0 -14 4 -36 8 -50 6 -20 8 -21 8 -5 0 11 -4 34 -8 50 -7
27 -8 27 -8 5z"/>
<path d="M5191 1534 c0 -11 3 -14 6 -6 3 7 2 16 -1 19 -3 4 -6 -2 -5 -13z"/>
<path d="M5201 1504 c-1 -15 30 -106 35 -101 2 2 -5 28 -15 58 -11 30 -20 49
-20 43z"/>
<path d="M5338 1013 c12 -2 32 -2 45 0 12 2 2 4 -23 4 -25 0 -35 -2 -22 -4z"/>
</g>
</svg>
