<svg xmlns="http://www.w3.org/2000/svg" width="24" height="24" viewBox="0 0 24 24"><path d="M8.729 0.210 C 8.533 0.273,8.258 0.536,8.174 0.738 L 8.101 0.916 6.520 0.928 L 4.940 0.940 4.670 1.068 C 4.358 1.216,4.056 1.498,3.929 1.761 C 3.798 2.032,3.760 2.306,3.760 2.981 L 3.760 3.592 3.270 3.606 C 2.809 3.619,2.767 3.627,2.560 3.744 C 2.313 3.883,2.104 4.128,2.041 4.351 C 2.009 4.467,1.520 12.183,1.520 12.584 L 1.520 12.680 12.080 12.680 C 22.361 12.680,22.640 12.678,22.640 12.605 C 22.640 12.564,22.532 10.723,22.400 8.513 C 22.222 5.529,22.145 4.449,22.099 4.315 C 22.015 4.070,21.849 3.880,21.594 3.739 L 21.380 3.620 12.910 3.610 L 4.440 3.599 4.440 2.950 C 4.440 2.592,4.460 2.231,4.483 2.146 C 4.539 1.944,4.813 1.672,5.025 1.609 C 5.142 1.574,5.614 1.560,6.670 1.560 L 8.151 1.560 8.176 1.657 C 8.189 1.710,8.281 1.835,8.380 1.934 C 8.682 2.236,8.745 2.246,10.286 2.232 C 11.575 2.220,11.626 2.217,11.786 2.131 C 12.005 2.014,12.219 1.758,12.280 1.540 C 12.307 1.443,12.322 1.240,12.314 1.087 C 12.294 0.733,12.146 0.477,11.862 0.301 L 11.666 0.180 10.263 0.173 C 9.356 0.169,8.814 0.182,8.729 0.210 M0.859 13.548 C 0.922 13.886,1.155 14.169,1.500 14.328 L 1.700 14.420 6.610 14.431 L 11.520 14.442 11.518 18.371 C 11.517 21.509,11.506 22.330,11.464 22.447 C 11.377 22.691,11.176 22.906,10.912 23.038 L 10.667 23.160 8.901 23.160 C 7.494 23.160,7.121 23.171,7.062 23.213 C 7.014 23.248,6.983 23.336,6.970 23.470 C 6.953 23.650,6.963 23.686,7.053 23.777 L 7.156 23.880 12.109 23.880 C 17.613 23.880,17.209 23.901,17.259 23.608 C 17.285 23.451,17.230 23.244,17.147 23.191 C 17.121 23.175,16.301 23.161,15.325 23.161 C 14.123 23.160,13.501 23.145,13.398 23.115 C 13.157 23.042,12.877 22.805,12.752 22.565 L 12.640 22.351 12.640 18.396 L 12.640 14.442 17.650 14.431 C 23.206 14.419,22.766 14.441,23.120 14.160 C 23.291 14.024,23.480 13.684,23.480 13.512 L 23.480 13.400 12.156 13.400 L 0.831 13.400 0.859 13.548 " stroke="none" fill-rule="evenodd" fill="black"></path></svg>