<svg xmlns="http://www.w3.org/2000/svg" xml:space="preserve" width="24" height="24" viewBox="0 0 24 24"><path fill-rule="evenodd" d="M8.388 10.429c1.419 1.421 3.48 1.775 5.168 1.065l.397.268.745-.103-.692.913.852.854 1.578-.107-.303 1.2.733.759 1.295-.058-.24 1.001.93.932 1.01-.43.542.434-.265.599.064.046 3.165.188.242-1.145L15.889 9c.73-1.686.371-3.593-1.046-5.013-1.842-1.844-4.78-1.891-6.56-.115-1.788 1.785-1.736 4.713.105 6.557m.816-3.65c-.587-.587-.593-1.513-.026-2.079.572-.568 1.496-.56 2.081.027.588.59.604 1.522.034 2.092-.568.567-1.504.55-2.089-.04" clip-rule="evenodd" style="stroke-width:.245162"/><path d="M7.581 11.234a5.9 5.9 0 0 1-1.746-4.086c-.008-.487.065-.96.174-1.419a4.68 4.68 0 0 0-.835 4.421c.608 1.913 2.281 3.172 4.106 3.314l.227.42.71.25-1.032.496.365 1.147 1.452.628-.818.928.304 1.01 1.177.542-.673.78.4 1.255 1.097.08.283.635-.51.41.034.068 2.727 1.62.74-.906-3.08-9.912a6 6 0 0 1-.902.074 5.9 5.9 0 0 1-4.2-1.755"/><path d="M5.802-.02A5 5 0 0 0 .807 4.975c0 2.137 1.366 3.926 3.258 4.635q-.031-.231-.055-.47c-.015-.182-.013-.355-.013-.528-1.349-.667-2.29-2.033-2.29-3.637A4.1 4.1 0 0 1 5.801.88a4.1 4.1 0 0 1 4.095 4.095c0 .272-.034.535-.088.792.035.175.139.348.416.402.25.048.395-.097.479-.262.058-.302.093-.613.093-.932A5 5 0 0 0 5.802-.02"/></svg>