<svg xmlns="http://www.w3.org/2000/svg" id="svg3509" version="1.1" viewBox="0 0 40 40"><defs><style>.st1{fill:#fff}</style></defs><path id="rect3438-4-1-6-9-8-4" d="M2.73 3.13h34.55c.15 0 .28.13.28.29v33.16c0 .16-.12.29-.28.29H2.73c-.15 0-.28-.13-.28-.29V3.42c0-.16.12-.29.28-.29Z" style="stroke:#000;stroke-width:4.85px"/><path id="path3008" d="m11.36 17.11 5.11-6.47c1.04-1.32 1.57-2.3 1.57-2.96 0-.24-.03-.43-.09-.57h8.92c-.68.38-1.53 1.18-2.55 2.4-.27.32-.75.91-1.44 1.76l-6.7 8.34 8 11.01c.49.67 1.1 1.41 1.85 2.24.2.21.49.47.87.77h-9.16c.07-.27.11-.52.11-.73 0-.65-.45-1.6-1.35-2.83l-5.15-7.02v7.11c0 1.65.33 2.81 1 3.47H3.99c.46-.46.76-.99.89-1.59.07-.33.11-.96.11-1.87v-19.6c0-.91-.04-1.54-.11-1.87-.13-.59-.43-1.12-.89-1.59h8.37c-.67.67-1 1.82-1 3.46v6.54" class="st1"/><path d="M35.28 14.15V30.5c0 .86.02 1.41.07 1.67.09.53.34 1.02.75 1.46h-7.84c.4-.44.65-.93.75-1.46.05-.26.07-.82.07-1.67V17.25c0-.85-.02-1.41-.07-1.66a3 3 0 0 0-.73-1.44h7" class="st1"/><path id="path3552-6-3-7" d="M35.79 3.14c0 1.99-1.62 3.61-3.62 3.61s-3.62-1.62-3.62-3.61 1.62-3.61 3.62-3.61 3.62 1.62 3.62 3.61Z" style="stroke:#fff;stroke-miterlimit:10;stroke-width:3px"/></svg>