<svg xmlns="http://www.w3.org/2000/svg" width="21" height="24"><g fill="none" fill-rule="nonzero"><path fill="#FFF" stroke="#000" stroke-width="2" d="M4.502 18.17c-2.292 5.075 2.59 6.349 6.19 3.379 1.058 3.33 5.025.845 6.451-1.738 3.136-5.69 1.87-11.492 1.544-12.69-2.23-8.162-13.375-8.175-15.293.042-.45 1.44-.457 3.074-.706 4.77-.124.859-.221 1.405-.547 2.305-.194.52-.45.977-.865 1.752-.637 1.205-.367 3.524 2.928 2.32l.312-.14h-.014Z"/><path fill="#000" d="M11.12 10.66c-.913 0-1.052-1.095-1.052-1.745 0-.589.104-1.053.305-1.35a.85.85 0 0 1 .748-.395c.318 0 .595.131.789.401.222.305.34.769.34 1.344 0 1.093-.423 1.744-1.122 1.744h-.007ZM14.88 10.66c-.914 0-1.052-1.095-1.052-1.745 0-.589.103-1.053.304-1.35a.85.85 0 0 1 .748-.395c.318 0 .595.131.789.401.222.305.34.769.34 1.344 0 1.093-.423 1.744-1.122 1.744h-.007Z"/></g></svg>