<svg viewBox="0 0 24 24" width="24" height="24" xmlns="http://www.w3.org/2000/svg">
  <path
    d="M4.953 7.994c-1.56-.598-3.2-.83-4.953-.556 1.681-1.066 4.017-.73 5.716.403a3.747 3.747 0 0 1-.075-.508c-1.257-.846-2.643-1.349-4.243-1.556 1.407-.487 3.042-.058 4.251.894.023-.206.062-.405.112-.604-.976-1.214-1.793-3.403-1.319-3.93.449-.527 2.638.105 3.956.923 1.029-.527 2.268-.844 3.614-.844 1.318 0 2.558.317 3.586.844 1.319-.818 3.482-1.424 3.956-.923.475.501-.316 2.716-1.239 3.93.045.182.082.363.105.55 1.202-.914 2.802-1.318 4.182-.84-1.567.202-2.928.689-4.163 1.503a3.74 3.74 0 0 1-.07.505C20.061 6.698 22.347 6.39 24 7.438c-1.753-.274-3.393-.042-4.953.556.269.012.519.082.736.198 1.412-.248 2.829-.013 3.452.908a7.97 7.97 0 0 0-2.879-.383c.031.046.058.095.084.145h.079c.369 0 1.318.528 1.318 1.187 0 .923-.949 1.424-1.819 1.108-.465.674-1.401.795-1.906.255v9.915c0 .4-.329.729-.729.729H6.617a.732.732 0 0 1-.729-.729v-9.915c-.505.54-1.441.419-1.906-.255-.87.316-1.819-.185-1.819-1.108 0-.659.606-1.187 1.318-1.187h.079a1.48 1.48 0 0 1 .084-.145A7.97 7.97 0 0 0 .765 9.1c.623-.921 2.04-1.156 3.452-.908a1.72 1.72 0 0 1 .736-.198Zm6.226 1.838h1.715c.079-.242-.099-.364-.856-.39-.758 0-.959.146-.859.39Zm1.204 8.263a.44.44 0 0 0-.438.438c0 .24.198.438.438.438h3.868a.44.44 0 0 0 .438-.438.44.44 0 0 0-.438-.438h-3.868Zm-4.652-4.722 2.426 2.424-2.426 2.426a.44.44 0 0 0 .321.737c.11 0 .217-.042.298-.118l2.736-2.735a.441.441 0 0 0 0-.619L8.35 12.754a.436.436 0 0 0-.736.32.44.44 0 0 0 .117.299ZM9.532 9.1a1.7 1.7 0 0 0 1.688-1.688 1.7 1.7 0 0 0-1.688-1.688 1.7 1.7 0 0 0-1.687 1.688A1.7 1.7 0 0 0 9.532 9.1Zm-.002-.635c-.195 0-.35-.369-.35-.844s.155-.844.35-.844c.194 0 .349.369.349.844s-.155.844-.349.844Zm4.961.635c.949 0 1.688-.765 1.688-1.688a1.7 1.7 0 0 0-1.688-1.688 1.7 1.7 0 0 0-1.688 1.688A1.7 1.7 0 0 0 14.491 9.1Zm-.059-.635c-.194 0-.35-.369-.35-.844s.156-.844.35-.844c.194 0 .35.369.35.844s-.156.844-.35.844Z" />
</svg>