<svg viewBox="0 0 24 24" xmlns="http://www.w3.org/2000/svg">
    <path
        d="m23.5982 12.7955-3.6573 3.6511c-.4376.4376-.9065.4376-1.3442 0l-3.7698-3.7761c-.4251-.4251-.4251-.894 0-1.3191l3.7886-3.79488c.4126-.40637.894-.40637 1.3066 0l3.6698 3.67608c.5627.5439.5252 1.0378 0 1.5629h.0063ZM11.3134 23.5174l-3.64485-3.6573c-.43762-.4376-.43762-.9002 0-1.3379l3.77615-3.7761c.4188-.4188.894-.4188 1.3128 0l3.7761 3.7761c.4314.4314.4377.9065 0 1.3379l-3.676 3.6886c-.5377.5439-1.0316.4751-1.5442-.0375v.0062ZM7.49976 4.79321c0-.40637.09377-.72521.40011-.98778C9.07521 2.65509 10.3381 1.37347 11.3759.33567c.4376-.43763.9002-.43763 1.3316 0l3.7699 3.76984c.4313.43138.4313.90652 0 1.33789l-8.38997 8.3962c-.48765.2626-.56267-.0938-.57517-.4814-.02501-2.9446.02501-5.82669-.0125-8.56499ZM4.50515 15.8902c.00625.3251-.23132.6815-.48139.4376l-3.8136-3.8136a.64956.64956 0 0 1-.15748-.2181.65037.65037 0 0 1 0-.5265.65094.65094 0 0 1 .15747-.2182l3.7636-3.81357c.34385-.3501.51265.10003.5314.41888v7.73349Z" />
</svg>