<svg xmlns="http://www.w3.org/2000/svg" width="24" height="24" viewBox="0 0 24 24">
  <path
    d="M.707 1.004a.61.61 0 0 0-.496.244c-.348.442-.035.887.36 1.252C.774 2.686 2.327 4.278 3.97 6a11 11 0 0 1 1.802-1.97C3.698 2.745 1.741 1.505 1.51 1.343c-.26-.187-.539-.337-.803-.337ZM5.771 4.03c1.833 1.14 3.755 2.314 4.654 2.817 1.457.815 3.727 2.663 4.06 4.398.531.461 2.163 1.902 2.574 2.395.693-.21 1.506.131 2.045 1.107.856 1.574.225 3.72-1.953 4.948a6 6 0 0 1-.294.268l.294-.268c1.132-1.452-.708-2.417-1.166-3.832a2 2 0 0 1-.109-.77c-.53-.283-2.092-1.441-2.774-1.953-1.785.158-4.173-1.755-5.303-3.053-.694-.795-2.303-2.496-3.83-4.088a10.95 10.95 0 0 0-2.029 6.339 10.965 10.965 0 0 0 18.714 7.752 10.97 10.97 0 0 0 2.378-11.95 10.96 10.96 0 0 0-10.128-6.764A10.96 10.96 0 0 0 5.771 4.03m8.641 7.49c-.512.124-.961.825-1.112 1.298-.036.112-.039.298.065.337.798.588 1.547 1.158 2.383 1.685.16-.388.74-.953 1.085-1.19zM2.974 13.147c.806 1.883 5.75 7.11 11.96 2.673-.004.24.035.481.113.709.457 1.407 2.344 2.407 1.228 3.86-2.115 1.351-4.96 1.189-6.932.522-3.53-1.193-5.866-4.296-6.369-7.764m13.67.694a1 1 0 0 0-.067.05c.024-.015.043-.035.067-.05"
    style="stroke-width:.743908" />
</svg>