<svg xmlns="http://www.w3.org/2000/svg" fill="none" viewBox="0 0 24 24"><g fill="#000"><path fill-rule="evenodd" d="M3.417 2.918h2.33A1.75 1.75 0 0 1 7.5 4.67v6.796h4.554v2.452H6.798a1.75 1.75 0 0 1-1.752-1.751V5.37H3.417zM21.231 4.67V6.49h-2.452v-1.12h-1.927v8.547H14.4V5.37h-1.927v1.121h-2.452V4.67a1.75 1.75 0 0 1 1.751-1.752h7.707a1.75 1.75 0 0 1 1.752 1.752" clip-rule="evenodd"/><path d="M2.28 20.496 0 18.867c.67-.938 1.361-1.663 2.088-2.172.809-.566 1.667-.867 2.555-.867.825 0 1.539.2 2.177.583a5 5 0 0 1 .733.544c.165.145.283.26.533.51.38.38.538.519.727.632.205.123.42.183.735.183.314 0 .531-.06.737-.184.19-.113.35-.253.729-.632l.003-.004c.25-.248.368-.363.533-.509a5 5 0 0 1 .732-.541c.637-.382 1.349-.582 2.17-.582s1.534.2 2.17.582c.257.154.494.331.732.541.165.145.284.26.533.51l.004.003c.38.379.538.519.728.632.206.124.423.184.738.184.28 0 .588-.108.948-.36.44-.308.917-.808 1.414-1.505L24 18.044c-.67.938-1.361 1.664-2.088 2.173-.809.565-1.667.866-2.555.866-.825 0-1.539-.2-2.178-.582a5 5 0 0 1-.734-.544c-.165-.145-.284-.26-.534-.51l-.003-.003c-.38-.378-.538-.518-.726-.63-.204-.123-.419-.183-.73-.183s-.525.06-.73.182c-.188.113-.347.253-.725.63l-.004.004c-.25.25-.369.365-.534.51-.24.211-.476.39-.734.544-.639.382-1.353.582-2.177.582s-1.539-.2-2.177-.583a5 5 0 0 1-.733-.543 11 11 0 0 1-.533-.51c-.38-.38-.538-.52-.726-.633-.205-.123-.422-.183-.736-.183-.28 0-.588.108-.948.36-.44.308-.917.808-1.414 1.505"/></g></svg>