<svg xmlns="http://www.w3.org/2000/svg" width="24" height="24" viewBox="0 0 24 24"><path fill-rule="evenodd" d="M11.72.321a1.21 1.21 0 0 0-.653.759c-.025.088-.05 2.288-.067 5.94-.028 5.958-.034 6.176-.185 6.47-.132.255-.427.078-1.129-.676-.781-.84-1.628-1.538-2.23-1.84-.31-.155-.402-.183-.608-.185-.204-.001-.266.015-.382.103-.245.187-.369.738-.248 1.102.201.604 1.179 1.748 2.171 2.538.259.206.936.824 1.504 1.372 1.259 1.215 1.81 1.721 1.962 1.802.147.078.402.045.705-.091.19-.085.514-.393 2.362-2.247 2.578-2.586 3.02-3.062 3.06-3.3.091-.529-.104-.942-.55-1.164-.248-.124-.675-.144-.891-.042-.229.109-.649.485-1.743 1.563-1.056 1.04-1.207 1.159-1.351 1.069-.098-.062-.165-.319-.207-.791-.023-.258-.04-2.471-.041-5.283-.002-2.662-.017-5.174-.035-5.582-.036-.803-.074-.959-.302-1.229-.279-.33-.781-.457-1.142-.288m6.206 2.64a1.95 1.95 0 0 0-.914.416c-.206.179-.417.591-.443.865-.064.667.56 1.084 1.791 1.199.672.062 1.02.142 1.38.317.599.292.953.767 1.02 1.371.099.88.136 2.963.136 7.571-.001 3.824-.011 4.845-.053 5.02-.157.658-.566 1.07-1.403 1.412-.387.158-.491.173-1.54.23-2.122.114-10.21.113-12.032-.002-.706-.045-.795-.061-1.323-.253-.38-.138-.782-.546-1.04-1.057-.152-.299-.176-.609-.232-2.968-.069-2.919.022-8.289.169-9.882.053-.576.141-.774.496-1.115.435-.418 1.078-.644 1.837-.646.787-.002 1.467-.336 1.722-.847.301-.605-.076-1.22-.909-1.481-.249-.079-.373-.091-.928-.09-.574 0-.681.011-1.04.11-.22.061-.616.216-.88.345-.752.368-1.343.821-1.821 1.394-.553.663-.811 1.238-.877 1.959C.917 8.184.857 16.556.956 18.86c.047 1.099.08 1.372.213 1.76.533 1.558 2.019 2.746 3.791 3.032.405.065 8.773.061 11.18-.005 2.079-.057 3.431-.118 3.75-.167.528-.082 1.431-.587 2.002-1.12.758-.708 1.177-1.533 1.264-2.488.096-1.042.133-3.534.112-7.519-.019-3.759-.056-5.219-.146-5.795-.099-.633-.484-1.289-1.138-1.94-1.156-1.151-2.817-1.83-4.058-1.657"/></svg>