<svg xmlns="http://www.w3.org/2000/svg" width="24" height="24" viewBox="0 0 24 24"><path d="M1.658 0.148 C 1.672 0.186,2.295 1.210,3.042 2.423 L 4.400 4.630 4.399 12.085 L 4.399 19.540 2.948 21.760 L 1.497 23.980 10.197 23.990 C 18.443 24.000,18.901 23.997,18.965 23.930 C 19.002 23.892,20.017 22.564,21.221 20.980 L 23.410 18.100 17.405 18.090 L 11.400 18.080 11.400 9.080 L 11.400 0.080 6.516 0.080 C 1.922 0.080,1.633 0.084,1.658 0.148 M9.400 11.080 L 9.400 20.080 14.383 20.080 C 17.124 20.080,19.361 20.094,19.353 20.111 C 19.346 20.129,19.009 20.579,18.604 21.111 L 17.868 22.080 11.514 22.080 C 8.019 22.080,5.160 22.070,5.160 22.058 C 5.160 22.046,5.439 21.610,5.780 21.088 L 6.399 20.140 6.400 12.100 L 6.400 4.059 5.800 3.085 C 5.470 2.550,5.200 2.104,5.200 2.096 C 5.200 2.087,6.145 2.080,7.300 2.080 L 9.400 2.080 9.400 11.080 M13.409 3.305 L 13.420 4.332 13.760 4.423 C 15.628 4.922,17.387 6.109,18.557 7.659 C 19.492 8.897,20.069 10.278,20.306 11.840 C 20.401 12.470,20.401 13.689,20.305 14.338 C 20.240 14.782,20.022 15.716,19.924 15.970 L 19.882 16.080 20.934 16.080 L 21.987 16.080 22.071 15.730 C 22.597 13.547,22.488 11.479,21.735 9.340 C 21.530 8.759,20.976 7.654,20.611 7.100 C 19.595 5.557,18.205 4.283,16.600 3.421 C 15.614 2.892,14.807 2.600,13.509 2.303 L 13.399 2.278 13.409 3.305 M2.335 6.869 C 1.267 8.537,0.774 9.804,0.493 11.600 C 0.382 12.307,0.393 13.986,0.513 14.718 C 0.769 16.283,1.323 17.747,2.133 18.997 L 2.380 19.378 2.390 16.229 C 2.408 10.662,2.385 6.790,2.335 6.869 " stroke="none" fill-rule="evenodd" fill="black"></path></svg>