<svg xmlns="http://www.w3.org/2000/svg" viewBox="0 0 24 24"><title>Legcord</title><path d="M15.636 0q-.284 0-.567.026c-1.528.152-3.096.987-4.196 2.677a5.7 5.7 0 0 0-.894 2.359 4.3 4.3 0 0 0 1.11 3.493c1.168 1.274 2.843 1.686 4.287 1.368s2.73-1.467 2.873-3.13a.847.847 0 0 0-.78-.915.847.847 0 0 0-.914.77c-.075.9-.676 1.427-1.55 1.619a2.84 2.84 0 0 1-2.67-.858 2.42 2.42 0 0 1-.671-2.124c.09-.692.427-1.346.627-1.656.854-1.304 1.89-1.81 2.949-1.917s2.154.246 2.93.794c1.224.87 1.795 1.94 1.927 3.062a4.9 4.9 0 0 1-.915 3.346c-1.444 2.056-4.377 3.432-8.21 2.045a.847.847 0 0 0-1.085.51.847.847 0 0 0 .51 1.085c4.446 1.614 8.298.008 10.173-2.665.937-1.334 1.398-2.937 1.21-4.521s-1.055-3.126-2.628-4.245A6.05 6.05 0 0 0 15.636 0"/><g stroke-miterlimit="10"><path d="M5.27 14.595 3.592 16.59c-.915 1.094-1.346 1.838-.632 2.41.68.605 1.338.057 2.256-1.032l1.679-1.996m3.48 2.953L8.704 20.92c-.92 1.088-1.35 1.833-.635 2.404.68.612 1.338.06 2.256-1.032l1.679-1.992"/><path d="M4.945 14.327 3.27 16.319c-.47.556-.836 1.028-1.01 1.535a1.36 1.36 0 0 0-.041.794c.07.26.242.49.465.673.215.189.472.32.744.347a1.36 1.36 0 0 0 .77-.177c.47-.254.87-.696 1.343-1.252l1.675-1.995-.646-.545-1.68 1.992c-.45.537-.83.915-1.095 1.059q-.19.094-.284.075c-.071-.007-.15-.037-.272-.143l-.003-.008-.008-.007c-.13-.102-.17-.174-.19-.246-.018-.068-.018-.151.03-.295.096-.283.4-.73.85-1.263L5.6 14.87zm5.11 4.325-1.677 1.992c-.47.56-.836 1.032-1.006 1.538a1.36 1.36 0 0 0-.045.794c.072.26.242.49.465.673a1.36 1.36 0 0 0 .744.348 1.36 1.36 0 0 0 .772-.178c.468-.253.869-.696 1.342-1.251l1.674-1.996-.646-.544-1.68 1.992c-.45.533-.83.914-1.095 1.054q-.19.102-.283.076c-.072-.004-.152-.03-.27-.14l-.01-.007-.008-.008c-.128-.102-.17-.178-.19-.246s-.018-.155.03-.295c.096-.283.406-.73.852-1.262l1.678-1.996z"/><path d="m3.629 14.44.972-1.171c1.112-1.35 3.32-2.911 5.633-2.563 1.289.192 2.185.827 2.903 1.398.707.635 1.459 1.399 1.864 2.639.733 2.23-.435 4.68-1.57 6.007-.098.11-.933 1.096-.993 1.156z"/><path d="M9.36 10.233c-2.158.083-4.048 1.508-5.088 2.763l-.5.605-.312.378-.174.212-.235.32 9.417 7.977.276-.287c.06-.06.094-.106.18-.208l.319-.37.51-.598c1.21-1.413 2.453-3.97 1.652-6.415-.44-1.338-1.263-2.173-1.985-2.82l-.007-.007-.012-.008c-.733-.586-1.708-1.281-3.1-1.49a5 5 0 0 0-.944-.052m.42.854q.2.008.392.038c1.176.178 1.989.745 2.692 1.304.688.62 1.36 1.308 1.735 2.446.658 2.019-.43 4.359-1.493 5.595l-.51.605-.205.238-8.17-6.923.206-.25.502-.604c.976-1.18 2.896-2.544 4.854-2.45"/></g></svg>