<svg xmlns="http://www.w3.org/2000/svg" width="24" height="24"><path d="M10.879 0.033 C 10.570 0.170,10.431 0.521,10.567 0.819 C 10.593 0.876,12.906 3.113,15.707 5.791 C 19.440 9.360,20.838 10.674,20.945 10.711 C 21.225 10.808,21.547 10.657,21.665 10.373 C 21.711 10.265,21.720 9.398,21.720 5.391 C 21.720 2.123,21.706 0.491,21.678 0.389 C 21.648 0.284,21.585 0.201,21.472 0.119 L 21.308 0.000 16.124 0.003 C 13.273 0.004,10.912 0.018,10.879 0.033 M2.396 0.331 C 2.321 0.381,2.229 0.484,2.190 0.561 C 2.124 0.692,2.120 1.325,2.120 12.060 C 2.120 22.795,2.124 23.428,2.190 23.559 C 2.229 23.636,2.321 23.739,2.396 23.789 L 2.532 23.880 11.940 23.880 L 21.348 23.880 21.484 23.789 C 21.780 23.591,21.760 23.970,21.760 18.676 C 21.760 15.408,21.747 13.894,21.717 13.809 C 21.688 13.725,19.486 11.573,14.789 7.037 C 11.001 3.380,7.848 0.355,7.781 0.314 C 7.667 0.244,7.520 0.240,5.096 0.240 L 2.532 0.240 2.396 0.331 " stroke="none" fill-rule="evenodd" fill="black"></path></svg>