<svg xmlns="http://www.w3.org/2000/svg" xml:space="preserve" width="24" height="24" viewBox="0 0 24 24"><path fill-rule="evenodd" d="m11.754 1.987-.346.593-.534.066c-1.746.218-3.213.808-4.584 1.844-2.722 2.054-4.107 5.54-3.551 8.935.489 2.989 2.45 5.589 5.201 6.898.578.275 1.245.51 1.84.65.49.115 1.206.227 1.45.227.087 0 .242.011.343.025l.185.026.011.582.011.582.353-.607.353-.608h.162c.261 0 .974-.114 1.492-.239a9.5 9.5 0 0 0 3.6-1.754c.362-.285 1.224-1.147 1.506-1.507a9.4 9.4 0 0 0 1.954-4.72c.067-.531.056-1.756-.021-2.3-.419-2.989-2.145-5.507-4.768-6.955-1.179-.651-2.852-1.121-4-1.124l-.289-.001-.011-.603-.011-.603zm-1.587 1.142q-.044.046-.018-.052c.014-.054.033-.072.043-.042a.1.1 0 0 1-.025.094m2.693.271a.1.1 0 0 1-.072.039c-.029 0-.024-.016.012-.039.077-.05.091-.05.06 0m1.019.017q-.039.037-.078 0-.039-.04.039-.04t.039.04m1.04 0q-.039.037-.078 0-.039-.04.039-.04t.039.04m-5.23.446c.006.143-.005.244-.029.244-.025 0-.033-.136-.022-.364.018-.363.03-.335.051.12m1.02-.194c-.009.061-.017.021-.018-.089s.008-.16.017-.111c.01.05.01.14.001.2m-2.06.214c.006.13-.006.224-.029.224-.025 0-.033-.123-.022-.324.018-.328.03-.303.051.1m-1.039.15c.011.042-.002.074-.03.074s-.041-.032-.03-.074c.011-.04.024-.073.03-.073s.019.033.03.073m5.214.057c.016.027.014.037-.004.02s-.061-.007-.096.02c-.057.044-.058.042-.009-.02.065-.083.072-.085.109-.02m-5.696.278c-.03.03-.048.174-.048.376 0 .267-.012.332-.066.353s-.057.014-.017-.034q.05-.06.036-.38c-.013-.321-.012-.323.125-.358.01-.003-.004.017-.03.043m1.03.01c-.021.021-.038.175-.038.342s.017.321.038.342q.035.037-.058.038-.093-.001-.058-.038c.021-.021.038-.175.038-.342s-.017-.321-.038-.342q-.035-.037.058-.038.093.001.058.038m1.04 0c-.021.021-.038.175-.038.342s.017.321.038.342q.035.037-.058.038-.093-.001-.058-.038c.021-.021.038-.175.038-.342s-.017-.321-.038-.342q-.035-.037.058-.038.093.001.058.038m1.042.002a.5.5 0 0 0-.05.18l-.017.14-.007-.142c-.003-.078-.023-.159-.044-.18q-.034-.037.057-.038c.058 0 .082.015.061.04m2.42.662c.322.036.562.067.74.096.033.005.167.042.297.081.198.059.252.062.32.02.073-.046.077-.044.033.009s-.009.076.26.171c.341.12.925.402 1.219.588.103.066.207.108.231.093.023-.014.037-.008.031.013-.006.022.142.156.329.298.187.143.472.388.632.545.163.159.312.274.337.259q.041-.025.013.022c-.018.03.009.092.068.156.054.059.202.246.329.417.126.17.249.298.272.283q.037-.021.012.023c-.017.027.037.163.126.316.143.247.251.466.251.51 0 .01-1.028.018-2.285.018H13.59l-.365-.146a4.4 4.4 0 0 0-.735-.209l-.37-.063V5h.09c.05.001.252.019.45.042m.72.038c.014.022-.002.029-.038.015-.069-.026-.082-.055-.024-.055.02 0 .048.018.062.04m3.1-.024c0 .008-.028.026-.062.039-.036.014-.052.007-.038-.015.024-.038.1-.057.1-.024m1.04 0c0 .008-.028.026-.062.039-.036.014-.052.007-.038-.015.024-.038.1-.057.1-.024M15 5.295c0 .008-.032.04-.07.07-.063.05-.065.048-.015-.015.052-.067.085-.088.085-.055m1.04 0c0 .008-.032.04-.07.07-.063.05-.065.048-.015-.015.052-.067.085-.088.085-.055m-9.44.049c0 .033-.078.052-.095.023-.012-.018.005-.034.037-.034s.058.005.058.011m1.009.233c-.021.455-.033.483-.051.12-.011-.228-.003-.364.022-.364s.035.101.029.244m1.037-.01q-.012.231.031.233c.025 0 .166-.06.314-.134a6 6 0 0 1 .458-.205c.104-.039.181-.085.17-.103-.022-.035.086-.026.123.01.013.014-1.008 1.791-2.269 3.951-2.204 3.775-2.294 3.921-2.327 3.794l-.053-.193c-.072-.227-.066-1.482.01-1.997a7.6 7.6 0 0 1 .351-1.413c.055-.149.078-.258.053-.243s-.014-.011.027-.057c.132-.152.503-.924.452-.945q-.036-.017.023-.022c.038-.002.101-.052.139-.113.038-.06.138-.202.221-.314.159-.214.2-.43.101-.53-.04-.041-.036-.045.02-.024q.07.027.071.152l.001.126.201-.21c.111-.115.192-.226.179-.247s-.002-.05.024-.066q.048-.03.013.027c-.036.058.016.016.381-.313.249-.224.866-.671 1.094-.791l.151-.08-.012-.263c-.008-.158.003-.264.027-.264s.034.096.026.234m9.434-.223c0 .033-.078.052-.095.023-.012-.018.005-.034.037-.034s.058.005.058.011m-.64.959c0 .011-.036.001-.08-.023s-.08-.052-.08-.063.036-.001.08.023.08.052.08.063M4.461 7.312c-.012.013-.045 0-.072-.027-.039-.04-.034-.044.023-.022.039.015.061.037.049.049m1.04 0c-.012.013-.045 0-.072-.027-.039-.04-.034-.044.023-.022.039.015.061.037.049.049m12.52 0c-.012.013-.045 0-.072-.027-.039-.04-.034-.044.023-.022.039.015.061.037.049.049m1.059.304c0 .206.019.349.05.384q.065.07-.014.008c-.035-.026-.071-.04-.08-.031s-.01-.127-.003-.302c.009-.21-.003-.339-.036-.378-.04-.048-.037-.054.017-.034.054.021.066.086.066.353M5.06 8.24c-.014.022-.055.039-.092.037-.056-.002-.053-.009.012-.037.107-.046.108-.046.08 0m14.587.012c-.024.029-.049.204-.056.39l-.012.338-.019-.366c-.011-.202-.008-.359.007-.35s.039-.001.053-.023c.013-.023.035-.041.047-.041.013 0 .003.023-.02.052M3.96 8.936c0 .008-.028.026-.062.039-.036.014-.052.007-.038-.015.024-.038.1-.057.1-.024m1.04 0c0 .008-.028.026-.062.039-.036.014-.052.007-.038-.015.024-.038.1-.057.1-.024m-1.48.239c0 .008-.031.04-.07.07-.063.05-.065.048-.015-.015.052-.067.085-.088.085-.055m16.609.282c-.021.455-.033.483-.051.12-.011-.228-.003-.364.022-.364s.035.101.029.244m-.609.726c0 .011-.036.001-.08-.023s-.08-.052-.08-.063.036-.001.08.023.08.052.08.063m.1.35c0 .222-.016.374-.04.374-.038 0-.038-.585 0-.697.034-.097.04-.046.04.323m1.029.13c.006.143-.005.244-.029.244-.025 0-.033-.136-.022-.364.018-.363.03-.335.051.12m-1.852.45c.024.191.043.452.043.581 0 .204.009.231.068.209.063-.025.063-.022 0 .048-.041.045-.068.141-.068.24 0 .294-.118 1.077-.22 1.458-.115.428-.117.445-.05.407.028-.015.011.01-.037.057a.5.5 0 0 0-.114.176c-.035.114-.241.599-.345.811a6 6 0 0 1-.275.46c-.286.435-.297.455-.233.421.03-.016-.011.031-.09.105-.264.246-.715.782-.685.815q.023.027-.015.007c-.024-.014-.141.061-.26.166-.313.277-.721.582-.954.712-.187.106-.282.213-.14.159q.057-.02.037.017c-.014.023-.057.031-.096.019s-.236.055-.446.154a10 10 0 0 1-.608.26l-.23.084.11-.192 2.311-3.959c1.88-3.219 2.204-3.752 2.227-3.665.015.057.047.259.07.45m-15.376.079c-.012.013-.045 0-.072-.027-.039-.04-.034-.044.023-.022.039.015.061.037.049.049m1.04 0c-.012.013-.045 0-.072-.027-.039-.04-.034-.044.023-.022.039.015.061.037.049.049m14.619.304c0 .193.019.347.046.374.034.034.027.041-.03.026-.068-.018-.075-.053-.063-.34.009-.211-.003-.34-.036-.379-.04-.048-.037-.054.017-.034.054.021.066.086.066.353m1.082-.318c-.031.037-.044.169-.035.377.007.175.006.311-.003.302s-.045.005-.08.031q-.079.061-.014-.008c.031-.035.05-.178.05-.385 0-.304.014-.351.115-.372.008-.002-.007.023-.033.055M4.02 12.12c-.014.022-.055.039-.092.037-.056-.002-.053-.009.012-.037.107-.046.108-.046.08 0m16.624.023c.009-.009.007.148-.004.35l-.019.367-.012-.338c-.007-.186-.034-.366-.061-.4-.041-.053-.039-.055.016-.012.035.027.071.042.08.033m-1.037.34c-.01.274-.026.356-.075.375-.052.019-.054.013-.015-.035.032-.039.045-.167.036-.374-.008-.193.003-.316.027-.316.025 0 .035.135.027.35m-15.647.333c0 .008-.028.026-.062.039-.036.014-.052.007-.038-.015.024-.038.1-.057.1-.024m1.04 0c0 .008-.028.026-.062.039-.036.014-.052.007-.038-.015.024-.038.1-.057.1-.024m14.1.64c0 .207-.013.368-.03.358-.059-.036-.033-.734.027-.734.001 0 .003.169.003.376m1.027-.019c-.017.467-.067.488-.067.028 0-.221.016-.372.04-.372.025 0 .035.133.027.344m.502 1.013c-.009.072-.016.013-.016-.13s.007-.202.016-.13.009.188 0 .26m-16.624.34c.05.063.048.065-.015.015-.067-.052-.088-.085-.055-.085.008 0 .04.032.07.07m14.571-.037c.011.019-.005.034-.036.034s-.047-.015-.036-.034c.011-.018.028-.033.036-.033s.025.015.036.033m1.04 0c.011.019-.005.034-.036.034s-.047-.015-.036-.034c.011-.018.028-.033.036-.033s.025.015.036.033m-9.104.186c.309.144.694.255.989.286l.259.026V18.8h-.102q-.106-.001-.073.05c.023.038.017.039-.027.005-.089-.068-.517-.106-.584-.05-.044.036-.051.034-.034-.01.016-.043-.047-.068-.269-.105a5 5 0 0 1-.387-.075c-.06-.017-.087-.013-.072.012.013.022 0 .04-.03.04s-.046-.021-.037-.047c.011-.027-.052-.063-.153-.088a6 6 0 0 1-.506-.167l-.333-.126.013.214c.008.125-.003.214-.026.214-.024 0-.035-.093-.027-.226l.013-.226-.172-.077a9 9 0 0 1-1.102-.661 1.5 1.5 0 0 0-.234-.157c-.014 0-.019.087-.012.193.008.112-.003.194-.026.194s-.035-.093-.027-.225l.013-.225-.293-.258a8 8 0 0 1-.313-.284c-.07-.094-.518-.626-.607-.721a.5.5 0 0 1-.094-.114c.014 0-.481-.839-.531-.901-.111-.134-.034-.139 2.285-.139l2.287.001zm-5.011.133c-.012.013-.045 0-.072-.027-.039-.04-.034-.044.023-.022.039.015.061.037.049.049m13.56 0c-.012.013-.045 0-.072-.027-.039-.04-.034-.044.023-.022.039.015.061.037.049.049m1.092-.004c-.021.026-.033.192-.026.368.012.287.005.322-.063.34-.057.015-.064.008-.03-.026.056-.056.062-.638.008-.692q-.035-.037.057-.038c.068 0 .083.013.054.048m-1.015.688c.012.02-.014.027-.058.016-.093-.025-.105-.052-.022-.052.031 0 .067.016.08.036m-14.058.219c0 .008-.025.036-.056.062-.044.036-.064.036-.087-.001q-.026-.046.014-.022c.024.015.055.009.069-.013.024-.04.06-.055.06-.026m1.04 0c0 .008-.025.036-.056.062-.044.036-.064.036-.087-.001q-.026-.046.014-.022c.024.015.055.009.069-.013.024-.04.06-.055.06-.026m12.52 0c0 .008-.025.036-.056.062-.044.036-.064.036-.087-.001q-.026-.046.014-.022c.024.015.055.009.069-.013.024-.04.06-.055.06-.026m1.04 0c0 .008-.025.036-.056.062-.044.036-.064.036-.087-.001q-.026-.046.014-.022c.024.015.055.009.069-.013.024-.04.06-.055.06-.026M5 16.696c0 .008-.028.026-.062.039-.036.014-.052.007-.038-.015.024-.038.1-.057.1-.024m1.04 0c0 .008-.028.026-.062.039-.036.014-.052.007-.038-.015.024-.038.1-.057.1-.024m11.48 0c0 .008-.028.026-.062.039-.036.014-.052.007-.038-.015.024-.038.1-.057.1-.024m-10.94.64c0 .207-.014.368-.03.358-.059-.036-.033-.734.027-.734.002 0 .003.169.003.376m12.501-.086-.02.29-.013-.236c-.011-.206.005-.344.041-.344.006 0 .002.13-.008.29m-2.539.691c-.093.071-.128.074-.166.013q-.025-.044.018-.018c.025.016.077.01.116-.013.103-.06.122-.049.032.018m.959.051c-.012.013-.045 0-.072-.027-.039-.04-.034-.044.023-.022.039.015.061.037.049.049m-9.372.431c.006.143-.005.244-.029.244-.025 0-.033-.136-.022-.364.018-.363.03-.335.051.12m-2.044.247c.049.062.048.064-.009.02-.035-.027-.078-.036-.096-.02q-.027.024-.004-.02c.037-.065.044-.063.109.02m1.011-.037c.011.019-.005.034-.036.034s-.047-.015-.036-.034c.011-.018.028-.033.036-.033s.025.015.036.033m10.469.037c.049.062.048.064-.009.02-.035-.027-.078-.036-.096-.02q-.027.024-.004-.02c.037-.065.044-.063.109.02m-11.011.404c-.006.136-.007.138-.024.026a.4.4 0 0 0-.059-.171q-.05-.056.023-.026c.046.018.064.069.06.171m1.084-.136c-.021.021-.038.175-.038.342s.017.321.038.342q.035.037-.058.038-.093-.001-.058-.038c.021-.021.038-.175.038-.342s-.017-.321-.038-.342q-.035-.037.058-.038.093.001.058.038m1.04 0c-.021.021-.038.175-.038.342s.017.321.038.342q.035.037-.058.038-.093-.001-.058-.038c.021-.021.038-.175.038-.342s-.017-.321-.038-.342q-.035-.037.058-.038.093.001.058.038m1.04 0c-.021.021-.038.175-.038.342s.017.321.038.342q.035.037-.058.038-.093-.001-.058-.038c.021-.021.038-.175.038-.342s-.017-.321-.038-.342q-.035-.037.058-.038.093.001.058.038m1.05-.01c-.066.066-.064.64.002.706.04.041.036.045-.02.024-.059-.023-.07-.08-.07-.379 0-.244.015-.359.05-.373.082-.032.089-.029.038.022m3.557.982c.05.063.048.065-.015.015a.3.3 0 0 1-.07-.07c0-.033.033-.012.085.055m1.195-.055c0 .008-.031.04-.07.07-.063.05-.065.048-.015-.015.052-.067.085-.088.085-.055m-7.392.152a.4.4 0 0 1-.028.113.4.4 0 0 1-.028-.113c-.009-.066.002-.114.028-.114s.037.048.028.114m1.041.11c-.021.403-.033.428-.051.1-.011-.201-.003-.324.022-.324.023 0 .035.094.029.224m1.04.02c-.021.455-.033.483-.051.12-.011-.228-.003-.364.022-.364s.035.101.029.244m1.071-.233c0 .033-.078.052-.095.023-.012-.018.005-.034.037-.034s.058.005.058.011"/></svg>