<svg xmlns="http://www.w3.org/2000/svg" viewBox="0 0 24 24"><path d="M4.25.3h15.5C22.1.3 24 2.2 24 4.55v14.901c0 2.35-1.9 4.25-4.25 4.25H4.25c-2.35 0-4.25-1.9-4.25-4.25V4.55C0 2.2 1.9.3 4.25.3Zm4.268 16.512c.028-.019.047-.066.056-.122l.262-1.741c.019-.094-.009-.14-.103-.14H4.577V6.412c0-.075-.037-.112-.103-.112H2.705c-.093 0-.131.037-.131.14v10.222c0 .122.038.178.141.178h5.709c.028 0 .066-.01.094-.028Zm1.254-7.966c-.018.037-.018.066-.018.094.028.224.046.44.056.664.009.253.018.515.018.777.01.262.01.506.01.749v5.541c0 .113.037.159.14.159h1.741c.084 0 .122-.037.122-.14v-5.101c.14-.15.309-.281.487-.375.243-.121.486-.215.748-.271.309-.066.628-.084.946-.066.093 0 .14-.028.14-.112V8.818c0-.094-.037-.14-.131-.14a2.415 2.415 0 0 0-1.338.355 3.536 3.536 0 0 0-.964.861c0-.121 0-.243-.01-.355a3.614 3.614 0 0 0-.037-.309.88.88 0 0 0-.066-.234c-.037-.113-.093-.159-.187-.159H9.847c-.028-.01-.047 0-.075.009Zm11.485-1.488a2.271 2.271 0 0 0-.673-.169 9.44 9.44 0 0 0-1.021-.056c-.983 0-1.844.206-2.546.618a4.33 4.33 0 0 0-1.657 1.75c-.393.74-.58 1.62-.58 2.602-.009.59.066 1.18.225 1.76.14.487.346.946.636 1.367.272.393.599.721.983.992s.814.477 1.273.599c.468.131.974.197 1.46.197.347 0 .693-.019 1.03-.066.281-.028.552-.103.814-.196.103-.047.159-.15.15-.272v-1.488a.182.182 0 0 0-.047-.15c-.028-.019-.084-.047-.159.009a2.926 2.926 0 0 1-.702.169 9.04 9.04 0 0 1-.87.037c-.262 0-.534-.037-.777-.112a2.708 2.708 0 0 1-.759-.318 2.086 2.086 0 0 1-.627-.581 3.258 3.258 0 0 1-.44-.861 3.818 3.818 0 0 1-.159-1.17 3.743 3.743 0 0 1 .328-1.6c.206-.431.533-.796.936-1.049.44-.262.945-.393 1.46-.384.309 0 .627.019.936.085.253.037.487.121.721.243a.158.158 0 0 0 .131 0c.037-.037.066-.094.056-.15V7.601a.272.272 0 0 0-.122-.243Z"/></svg>