<svg viewBox="0 0 24 24" xmlns="http://www.w3.org/2000/svg">
  <g id="Layer_2_1_" transform="matrix(0.09360400587320326, 0, 0, 0.09360400587320326, 0.0412540026009065, 0.34085801243782043)">
    <path d="M 45.4 0 L 211 0 C 236.1 0 256.4 20.3 256.4 45.4 L 256.4 204.6 C 256.4 229.7 236.1 250 211 250 L 45.4 250 C 20.3 250 0 229.7 0 204.6 L 0 45.4 C 0 20.3 20.3 0 45.4 0 Z M 135.8 176.4 C 136.1 176.1 136.4 175.6 136.4 175.1 L 139.5 156.5 C 139.7 155.5 139.4 155 138.3 155 L 88.9 155 C 88.9 154.9 88.9 65.1 88.9 65 C 88.9 64.4 88.2 64 87.7 64.1 C 87.5 64.1 66.5 64.1 66.4 64.1 C 65.6 64.2 65.1 64.9 65.2 65.6 L 65.2 174.8 C 65.2 176.1 65.7 176.7 66.9 176.7 L 134.6 176.7 C 135 176.7 135.4 176.6 135.8 176.4 Z M 151.2 91.3 C 150.7 91.4 150.4 92 150.5 92.5 C 150.8 94.9 151 97.2 151.1 99.6 C 151.2 102.3 151.2 105.1 151.3 107.9 C 151.4 110.7 151.4 113.3 151.4 115.9 C 151.4 116 151.4 175.4 151.4 175.5 C 151.5 176.4 152.2 176.9 153.1 176.8 L 173.9 176.8 C 174.9 176.8 175.3 176.4 175.3 175.3 L 175.3 120.8 C 176.9 119 179 117.8 181.1 116.8 C 187.4 114.1 194.4 112.8 201.3 113.2 C 202.5 113.2 203 112.9 203 112 C 203 111.8 203 90.8 203 90.7 C 202.9 89.9 202.2 89.4 201.5 89.5 C 196 89.3 190.5 90.6 185.6 93.3 C 181.3 95.7 177.4 98.8 174.2 102.5 C 174.2 101.2 174.1 99.9 174 98.7 C 173.9 97.6 173.7 96.5 173.5 95.4 C 173.3 94.5 173 93.6 172.6 92.9 C 172.3 91.9 171.5 91.2 170.4 91.2 L 151.7 91.2 C 151.5 91.1 151.4 91.1 151.2 91.3 Z" style=""/>
  </g>
</svg>