<svg xmlns="http://www.w3.org/2000/svg" width="24" height="24"><path d="M10.780 0.804 C 8.244 1.036,5.943 1.888,4.032 3.300 C 3.464 3.720,2.569 4.571,2.145 5.094 C 0.739 6.827,0.025 8.989,0.196 10.993 C 0.297 12.164,0.584 13.156,1.124 14.194 C 1.553 15.018,2.031 15.670,2.737 16.395 C 4.483 18.186,6.911 19.407,9.636 19.862 C 10.542 20.013,10.920 20.162,11.136 20.452 C 11.278 20.644,11.274 21.254,11.122 22.191 C 10.982 23.056,10.992 23.221,11.189 23.350 C 11.498 23.552,12.168 23.294,13.671 22.391 C 16.251 20.842,18.944 18.833,20.574 17.241 C 22.787 15.081,23.770 13.266,23.966 10.977 C 24.080 9.636,23.777 8.133,23.125 6.820 C 21.579 3.701,18.138 1.443,14.080 0.883 C 13.196 0.762,11.648 0.724,10.780 0.804 M9.593 7.709 C 9.652 7.752,9.736 7.849,9.780 7.924 C 9.857 8.055,9.860 8.144,9.872 10.420 C 9.879 11.718,9.873 12.877,9.859 12.995 C 9.838 13.170,9.804 13.241,9.682 13.372 C 9.544 13.520,9.511 13.535,9.296 13.549 C 9.021 13.567,8.850 13.484,8.720 13.270 C 8.643 13.144,8.640 13.064,8.640 10.576 L 8.640 8.012 8.730 7.880 C 8.920 7.602,9.338 7.519,9.593 7.709 M11.715 7.709 C 11.773 7.752,12.378 8.541,13.060 9.462 L 14.300 11.136 14.320 9.578 C 14.342 7.830,14.338 7.854,14.642 7.684 C 14.926 7.524,15.243 7.605,15.456 7.893 C 15.539 8.004,15.540 8.040,15.551 10.553 C 15.561 12.974,15.558 13.107,15.487 13.240 C 15.325 13.543,14.905 13.661,14.617 13.484 C 14.542 13.439,14.031 12.780,13.321 11.815 C 12.677 10.938,12.116 10.184,12.075 10.141 C 12.002 10.064,12.000 10.096,12.000 11.555 C 12.000 12.850,11.991 13.066,11.935 13.185 C 11.843 13.378,11.666 13.491,11.424 13.511 C 11.197 13.529,11.021 13.440,10.864 13.227 C 10.781 13.116,10.780 13.078,10.768 10.667 C 10.762 9.321,10.767 8.162,10.780 8.091 C 10.809 7.932,10.976 7.728,11.138 7.654 C 11.296 7.582,11.580 7.610,11.715 7.709 M19.696 7.691 C 20.111 7.929,20.092 8.572,19.665 8.775 C 19.551 8.829,19.372 8.840,18.584 8.840 L 17.640 8.840 17.640 9.400 L 17.640 9.960 18.567 9.960 C 19.416 9.960,19.508 9.967,19.657 10.041 C 19.883 10.152,19.973 10.292,19.992 10.558 C 20.004 10.741,19.991 10.805,19.913 10.920 C 19.736 11.183,19.656 11.200,18.590 11.200 L 17.640 11.200 17.640 11.757 L 17.640 12.315 18.617 12.327 C 19.535 12.339,19.601 12.345,19.707 12.424 C 20.111 12.723,20.098 13.252,19.680 13.498 C 19.546 13.576,19.480 13.580,18.200 13.580 C 16.873 13.580,16.859 13.579,16.713 13.488 C 16.626 13.435,16.531 13.326,16.483 13.226 C 16.402 13.058,16.400 13.001,16.400 10.590 C 16.400 8.941,16.414 8.088,16.443 8.013 C 16.466 7.951,16.525 7.857,16.573 7.805 C 16.751 7.611,16.812 7.603,18.220 7.602 C 19.514 7.601,19.543 7.603,19.696 7.691 M5.392 7.748 C 5.449 7.790,5.532 7.875,5.578 7.935 C 5.658 8.043,5.660 8.096,5.671 10.180 L 5.682 12.315 6.654 12.327 L 7.626 12.340 7.777 12.455 C 8.146 12.736,8.109 13.291,7.707 13.511 C 7.594 13.573,7.436 13.580,6.240 13.580 C 4.972 13.580,4.893 13.576,4.764 13.500 C 4.689 13.456,4.590 13.369,4.544 13.307 C 4.461 13.195,4.460 13.165,4.449 10.654 L 4.438 8.114 4.526 7.958 C 4.694 7.659,5.131 7.553,5.392 7.748 " stroke="none" fill-rule="evenodd" fill="black"></path></svg>