<svg xmlns="http://www.w3.org/2000/svg" width="24" height="24"><path d="M15.97.415h-.44L13.93.417H12.74c-1.98 0-4.003.196-5.774 1.166a3 3 0 0 1-.235.124 6 6 0 0 0-.464.225l-.076.043a5 5 0 0 0-.48.292q-.11.082-.223.16c-.531.352-1.04.75-1.491 1.2l-.052.052c-.714.719-1.398 1.507-1.91 2.385l-.047.084q-.169.3-.323.609l-.053.106c-.079.156-.16.311-.23.47q-.048.12-.103.233a3 3 0 0 0-.19.45l-.028.088-.093.288-.03.093C.518 9.77.373 11.05.38 12.392l.001.497q0 .418.002.836L.386 14.8l.001.939v.2l.001.573.001.176c.003 1.754.299 3.443 1.419 4.844l.077.096c.242.299.53.546.831.783l.084.064c.368.282.781.507 1.206.692l.083.036c.153.065.3.12.464.156.08.015.15.033.227.063.363.146.792.213 1.18.228.17.004.337.013.506.035.316.04.627.052.946.051h.174a108 108 0 0 0 .986-.002h.958l1.1-.003q1.182 0 2.366-.004v-.067c.88.032 1.778-.232 2.612-.485l.132-.04a5.3 5.3 0 0 0 .948-.37c.94-.434 1.833-.942 2.639-1.595l.105-.085a9.8 9.8 0 0 0 2.642-3.116c.11-.15.205-.297.29-.464l.04-.084.134-.276.044-.09a9.4 9.4 0 0 0 .745-2.135c.36-.881.36-.881.35-3.28v-.472l-.001-.797-.002-1.02-.001-.894v-.284l-.002-.62c0-.521-.012-1.044-.071-1.563l-.013-.099c-.137-1.113-.5-2.142-1.165-3.053l-.052-.07a3.6 3.6 0 0 0-.374-.427l-.058-.055a6.6 6.6 0 0 0-1.465-1.083l-.087-.046a3 3 0 0 0-.422-.198c-.091-.026-.091-.026-.17-.061a2.6 2.6 0 0 0-.468-.154 8 8 0 0 1-.363-.084c-.935-.25-.935-.25-2.994-.246zm1.955 1.621c.255 0 .502.003.751.06l.079.02c.566.139 1.04.358 1.504.712l.088.068c.231.174.427.353.605.582l.072.095c.292.378.504.765.655 1.218l.023.07c.217.632.217 1.444.065 2.093l-.031.108c-.191.686-.57 1.377-1.118 1.842-.076.06-.076.06-.136.123a.4.4 0 0 0-.025.206l.045.154c.123.38.207.766.276 1.16q.005.019.009.038l.016.09v.003l.006.033.02.122.019.14a8.3 8.3 0 0 1-.018 2.276q-.027.203-.066.404l-.021.1c-.026.125-.058.249-.087.374q-.023.104-.049.208c-.041.16-.095.319-.148.476-.016.048-.026.097-.044.144l-.03.076-.007.022c-.014.035-.022.071-.036.106l-.029.067-.056.134a8.6 8.6 0 0 1-.748 1.449q-.02.034-.04.069a2.976 2.976 0 0 0-.24.415l.058.023.062.038a.7.7 0 0 1 .12.1 1 1 0 0 1 .065.076.52.52 0 0 1-.046.372c-.081.072-.081.072-.165.084l-.059.002q-.052.002-.118 0a.644.644 0 0 1-.226-.102l-.097-.085q-.114.112-.227.228l-.003.003-.077.078-.022.022-.184.185-.09.093c-.3.302-.626.564-.968.816l-.084.061c-.145.106-.298.198-.449.293l-.025.018-.058.036c-.051.03-.098.068-.15.098l-.084.05q-.052.026-.104.051a7 7 0 0 1-.58.29c-.27.12-.546.23-.825.32l-.032.011-.008.002-.322.108-.1.037h-.001l-.047.017-.167.062-.004.092-.007.122-.006.12-.003.016a.3.3 0 0 1-.011.058c-.009.038-.019.052-.05.095a.44.44 0 0 1-.244.08.7.7 0 0 1-.15-.008 1 1 0 0 1-.101-.08.3.3 0 0 1-.083-.158l-.02-.202h-.002l-.082.01c-1.03.111-2.036.124-3.066-.01v-.068a2 2 0 0 1-.385-.029l-.08-.013a1.7 1.7 0 0 1-.488-.131l-.01-.005a3 3 0 0 1-.17-.07 1 1 0 0 0-.097-.024c-.125.002-.125.002-.19.068l-.07.103c-.783.776-1.793 1.18-2.889 1.194h-.11c-.177.002-.351.01-.523-.042-.103-.034-.103-.034-.177-.043a2.1 2.1 0 0 1-.948-.306l-.096-.058a4.2 4.2 0 0 1-.97-.735c-.756-.811-1.163-1.835-1.135-2.948l.005-.11c.02-.419.136-.807.288-1.194l.05-.127.04-.105.035-.09a1 1 0 0 1 .108-.21q.058-.075.113-.151c.231-.323.463-.63.766-.889l.056-.046a7 7 0 0 0-.092-.391l-.007-.026q-.004-.022-.01-.045a8.6 8.6 0 0 1-.236-3.477 7 7 0 0 1 .337-1.433l.017-.05q.031-.09.057-.183.021-.067.044-.133l.017-.057.014-.04c.182-.556.451-1.11.768-1.592l.04-.059.153-.234q.06-.09.122-.18l.063-.094h-.068a1 1 0 0 1-.252-.22l-.002-.002a.3.3 0 0 1-.072-.098l-.012-.019c-.023-.119-.025-.188.03-.297a.4.4 0 0 1 .097-.106l.042-.037.046-.007a1 1 0 0 1 .064-.018q.057.011.098.025a.6.6 0 0 1 .137.062l.036.027.015.01a.6.6 0 0 0 .245.13.4.4 0 0 0 .07-.033c.126-.151.266-.288.405-.426l.008-.009.133-.139a4 4 0 0 1 .344-.312q.141-.113.28-.23.217-.183.45-.345a7 7 0 0 1 .628-.407l.017-.009.12-.072.072-.044c.119-.07.18-.1.32-.1v-.068l.397-.173.146-.064.012-.004c.636-.282.879-.368 1.207-.368l-.014-.06c-.075-.311-.075-.311-.053-.448a.5.5 0 0 1 .152-.177q.04-.032.085-.06a.36.36 0 0 1 .172-.002l.031.002a.36.36 0 0 1 .202.216c.039.123.069.23.069.36l.112-.022c.265-.048.525-.073.788-.084q.223-.01.451-.01l.105.001h.113l.484.003c.76.005.921.02 1.124.11l.006.001.003.003.096.046q.174.032.347.07.14.023.269.062.202.05.405.105l.066.02c.077-.196.077-.196.244-.35l.095-.091c.27-.26.562-.522.923-.644l.127-.034v-.068c.55-.208 1.05-.349 1.643-.35z" style="stroke-width:.0338735"/><path fill="#1b1d1e" d="m17.88 2.915.12-.001c.275.003.523.047.789.117l.09.021c.406.094.79.385 1.095.657l.084.074c.49.46.761 1.034.899 1.687l.018.08c.13.785-.093 1.604-.527 2.258a4 4 0 0 1-.244.274c-.063.06-.063.06-.094.132h-.068v.068q-.105.084-.216.16l-.065.047q-.26.179-.532.335l-.073.048c-.11.061-.223.106-.341.152-.196.077-.388.165-.58.25-.406.178-.824.316-1.244.456l-.081.027c-.779.259-1.56.494-2.356.693q-.027-.039-.056-.078a3.7 3.7 0 0 0-.926-.905c.045-.249.108-.49.18-.732l.029-.1q.223-.753.481-1.496l.06-.173.234-.684c.204-.597.428-1.195.71-1.76l.03-.062c.265-.545.64-.953 1.19-1.225l.082-.043c.433-.213.835-.274 1.312-.277z" style="stroke-width:.0338735"/><path fill="#1c1d1e" d="M9.338 13.498c.055.07.055.07.106.163.223.373.514.65.876.887-.042.236-.101.461-.176.689l-.064.197-.033.1-.142.45c-1.066 3.41-1.066 3.41-1.651 4.086h-.068v.068c-.185.169-.185.169-.27.169v.068c-.908.53-.908.53-1.457.542v.067c-.515.02-.97.01-1.457-.169l-.11-.038c-.747-.282-1.347-.871-1.685-1.588-.347-.819-.385-1.677-.059-2.51.437-1.05 1.393-1.61 2.402-2.033q.133-.054.265-.105l.14-.056c.262-.107.527-.2.794-.292l.076-.027c.627-.215 1.264-.4 1.903-.58l.185-.055.099-.03.081-.024a.5.5 0 0 1 .245.021" style="stroke-width:.0338735"/><path d="M14.114 14.142c-.338.327-.72.55-1.159.711l-.094.034v.078q.03.012.054.029c.063.082.079.156.102.257l.027.116.026.121.028.12c.087.382.087.382.068.566a.5.5 0 0 1-.204.203c-.218.018-.24.02-.314-.031l-.024-.002q-.007-.015-.013-.03a.8.8 0 0 1-.127-.332l-.017-.074-.032-.143-.038-.159a1.2 1.2 0 0 1-.038-.494l-.006-.055-.323-.01-.132-.005-.131-.004-.125-.004a4 4 0 0 1-.203-.01c-.034-.034-.034-.034-.104-.045l-.085-.008-.15-.015c-.167.54-.333 1.08-.507 1.618l-.035.11c-.32.987-.636 1.988-1.082 2.928a3 3 0 0 0-.171.425l.06.026.086.036c.595.25 1.334.368 1.978.378h.077c.517.007 1.03.013 1.543-.052l.128-.017.226-.032-.025-.275-.008-.098c-.015-.156-.02-.209.072-.336.113-.082.164-.088.3-.07l.14.07.064.031c0 .102 0 .102.022.2l.028.112.051.196c.3 0 .577-.11.85-.222q.214-.089.429-.17l.074-.027.138-.051.101-.038v-.067c.122 0 .122 0 .41-.167l.064-.037c.74-.42 1.404-.907 1.991-1.523l.065-.069.062-.065.057-.062a.9.9 0 0 0 .163-.245c-.122-.074-.122-.074-.232-.164q-.277-.225-.558-.442l-.46-.354-.08-.063-.149-.116-.229-.178-.08-.063-.217-.168a28 28 0 0 1-.411-.324 31 31 0 0 0-.542-.427l-.456-.351-.08-.062a17 17 0 0 1-.514-.413.9.9 0 0 0-.328-.195zm-.865 3.19c.128.041.192.118.255.231.043.12.07.24.096.364l.022.097c.114.524.114.524.015.681a.5.5 0 0 1-.287.133c-.15-.028-.196-.07-.286-.191a6 6 0 0 1-.14-.542l-.018-.079c-.046-.202-.078-.382.002-.58.115-.112.186-.11.341-.113zM12.075 3.599h-.422l-.1.001a4.3 4.3 0 0 0-.996.109l.01.101.01.132q.01.12.015.241c-.033.075-.033.075-.11.14-.104.07-.141.085-.263.063-.121-.053-.162-.084-.215-.207l-.033-.12-.033-.122-.024-.092c-.303 0-.303 0-1.49.508v.067h-.136v.068a.7.7 0 0 0-.277.076l-.156.096c-.503.296-1 .613-1.426 1.014a4 4 0 0 1-.146.132 2.3 2.3 0 0 0-.279.27c-.075.096-.16.178-.248.262-.097.092-.16.15-.178.284q.415.315.823.638.47.377.947.745a56 56 0 0 1 1.019.793q.155.126.314.248.237.18.473.365l.062.048q.154.119.3.245c.083.075.15.132.254.172.076-.002.076-.002.122-.045.319-.336.718-.536 1.142-.699l.1-.037V9.05c-.025-.012-.046-.032-.087-.068-.117-.15-.142-.327-.178-.51l-.022-.103c-.098-.475-.098-.475.009-.679.101-.118.193-.142.345-.12.154.103.223.173.266.361l.013.07.016.074.03.142q.026.118.056.233c.034.16.06.304-.006.449v.019l-.003.074.28.01.116.005.113.004.11.004c.096.004.187.009.282.028.102.02.102.02.318.016.069-.273.144-.542.235-.808q.075-.216.14-.433.15-.524.33-1.037l.03-.089c.238-.693.474-1.386.77-2.057.098-.216.186-.43.256-.657a1 1 0 0 0-.231-.093c-.145-.03-.289-.06-.43-.1-.6-.17-1.198-.188-1.818-.188zM10.62 5.127q.034 0 .073.005c.162.087.194.19.246.355.04.137.07.274.099.414l.018.083c.03.147.057.285.043.435a.5.5 0 0 1-.203.204c-.24.015-.24.015-.343-.036-.09-.094-.109-.2-.135-.324l-.017-.075-.033-.145-.037-.156a1.4 1.4 0 0 1-.045-.552c.096-.157.176-.21.334-.207z" style="stroke-width:.0338735"/><path fill="#e8e5e1" d="m12.454 9.908.153.019c.459.088.914.516 1.182.878.24.378.337.743.334 1.186v.09a2.1 2.1 0 0 1-.45 1.282l-.056.076c-.306.378-.83.692-1.32.747-.4.025-.939.05-1.266-.213l-.107-.043c-.55-.228-.822-.754-1.05-1.265-.168-.481-.109-1.119.107-1.572a2.32 2.32 0 0 1 1.343-1.185c.358-.111.776-.131 1.13 0z" style="stroke-width:.0338735"/><path fill="#1c1e1f" d="m14.927 11.364.116.087.066.049q.198.151.394.305l.296.23.08.063q.23.178.46.354.274.211.542.428a28 28 0 0 0 .628.492l.08.063.23.178.148.116.08.062q.23.179.46.355.273.21.542.427.24.194.485.382l.171.133.078.06.056.044a2.6 2.6 0 0 1-.174.419l-.055.109-.042.082a2.3 2.3 0 0 1-.322-.223q-.201-.162-.407-.32-.242-.185-.48-.377-.27-.215-.544-.423a24 24 0 0 1-.438-.343c-.335-.269-.676-.53-1.017-.791q-.273-.211-.541-.428-.241-.192-.485-.381l-.17-.131-.076-.06c-.06-.046-.06-.046-.093-.08a10 10 0 0 1-.017-.29 7 7 0 0 0-.05-.59zM4.494 8.18c.119.068.224.142.33.229q.24.193.483.38l.144.113.322.249q.271.209.54.423t.544.423q.271.209.54.424.269.214.544.423.312.24.618.486l.273.218c.066.053.066.053.1.087q.006.095.01.189l.004.115.004.122.004.122.01.3c-.282-.212-.282-.212-.42-.32l-.068-.053-.087-.068-.224-.175-.229-.177-.148-.116-.08-.063-.46-.354q-.274-.211-.542-.428a28 28 0 0 0-.628-.492l-.08-.063-.23-.178-.148-.116-.08-.062-.46-.355q-.279-.215-.552-.435a9 9 0 0 0-.306-.238c.02-.153.08-.266.155-.4l.034-.062zM14.825 12.956c.093.044.17.09.25.155l.063.052.066.054.138.11.066.055q.145.116.292.228l.216.169.081.063.23.178.148.116.08.062.46.355q.272.21.542.427.24.194.485.381l.144.113.322.248.057.044.057.043q.176.136.35.277c.115.093.231.179.357.258-.018.156-.083.255-.172.383l-.075.11-.058.083c-.164-.052-.276-.146-.406-.254l-.137-.111-.069-.056a13 13 0 0 0-.286-.223 29 29 0 0 1-.548-.431 28 28 0 0 0-.627-.493l-.081-.063-.23-.178-.148-.116-.08-.062-.46-.355a32 32 0 0 1-.542-.427c-.236-.19-.474-.377-.722-.55.032-.14.084-.268.138-.399l.029-.072z" style="stroke-width:.0338735"/><path fill="#1d1e1f" d="M16.417 10.856c.088.059.088.059.178.138q.045.037.09.077l.049.043c.117.098.24.19.36.284l.149.115.148.116.08.062q.23.179.46.355.274.21.542.427.204.165.41.324.267.205.53.412c.274.214.548.427.832.628-.02.169-.055.325-.104.49l-.037.126-.028.095a3 3 0 0 1-.415-.296l-.136-.11-.066-.053-.291-.229-.217-.168-.081-.063-.23-.178-.148-.116-.08-.062-.46-.355q-.272-.21-.542-.427-.203-.165-.41-.324l-.68-.53-.08-.062q-.264-.207-.542-.395l-.06-.053v-.102l.295-.084.083-.025c.287-.08.287-.08.401-.06" style="stroke-width:.0338735"/><path fill="#1c1e1f" d="M3.952 9.433h.102v.068l.059.027c.08.043.147.092.218.149l.08.064.083.065.152.119.224.174.395.305q.271.208.54.423t.544.424q.272.208.54.423.269.215.544.423.272.21.54.425.172.135.349.265c-.103.103-.228.12-.367.159l-.082.024c-.267.075-.267.075-.398.02a3 3 0 0 1-.237-.184l-.137-.112-.068-.057q-.142-.114-.286-.223a29 29 0 0 1-.549-.431 28 28 0 0 0-.627-.493l-.081-.062-.23-.179-.148-.116-.08-.062a46 46 0 0 0-.614-.474l-.13-.1-.228-.172-.073-.054c-.165-.13-.165-.13-.19-.277.02-.124.048-.237.087-.355l.038-.118z" style="stroke-width:.0338735"/><path fill="#1d1e1f" d="m5.138 7.096.101.034v.068l.06.027c.08.043.146.092.218.149l.08.064.083.065.152.118.224.175.394.304q.273.209.54.424.27.214.544.423.273.209.54.424.27.214.544.423.276.212.546.429.103.081.208.159c-.025.127-.08.232-.138.347l-.056.11-.043.085a.9.9 0 0 1-.328-.195q-.254-.211-.515-.413l-.08-.062-.456-.35q-.273-.211-.541-.428a28 28 0 0 0-.628-.492l-.08-.063-.23-.178-.149-.116-.08-.063-.351-.271a32 32 0 0 1-.864-.689c.047-.131.109-.236.19-.349l.065-.09z" style="stroke-width:.0338735"/><path fill="#1d1f1f" d="M17.772 10.348c.141.013.237.104.343.188l.06.047.173.138.083.066.157.126q.464.368.935.726.277.213.546.433c.095.077.186.145.292.21.087.065.087.065.108.139l-.006.08-.006.09-.009.094-.006.103c-.017.26-.017.26-.095.338-.54-.402-.54-.402-.795-.608q-.157-.128-.317-.252l-.06-.048-.412-.318a20 20 0 0 1-.37-.29 37 37 0 0 0-.479-.377l-.08-.062q-.182-.143-.367-.283l-.062-.047-.164-.124c-.078-.064-.078-.064-.112-.132l.055-.018.247-.081.088-.029.083-.027.077-.025c.06-.018.06-.018.093-.057" style="stroke-width:.0338735"/><path fill="#1c1e1f" d="M3.647 10.822c.15.08.275.164.403.278q.135.113.277.22.49.375.97.762.27.213.544.422.27.208.538.422.163.13.33.252l.055.05v.067c-.572.273-.572.273-.798.197a2 2 0 0 1-.238-.216c-.083-.083-.178-.15-.273-.22a25 25 0 0 1-.456-.36 69 69 0 0 0-1.054-.82c-.091-.071-.091-.071-.182-.124a.6.6 0 0 1-.184-.15 1.1 1.1 0 0 1 0-.373l.007-.097c.019-.225.019-.225.06-.31z" style="stroke-width:.0338735"/><path fill="#1e1f1f" d="m19.4 9.883.066.053.076.06.079.064c.216.178.216.178.447.336.259.163.259.163.318.343.02.13.028.256.028.388l.003.108q.002.116-.003.23c-.139-.019-.223-.093-.332-.18l-.057-.044-.186-.148-.066-.052-.326-.26q-.209-.168-.421-.331l-.236-.184a4 4 0 0 0-.146-.107l-.059-.048v-.068l.212-.1.12-.055c.177-.078.307-.114.482-.005" style="stroke-width:.0338735"/><path fill="#1c1e1f" d="M3.58 12.414c.115.067.218.138.321.223a18 18 0 0 0 .407.32q.24.185.48.376.12.097.242.19l.074.059.171.13.066.057v.068l-.258.12-.074.036c-.15.068-.252.107-.413.047a3 3 0 0 1-.259-.203c-.196-.169-.196-.169-.407-.319-.262-.17-.262-.17-.323-.324a2 2 0 0 1-.028-.34l-.003-.125q0-.158.003-.315" style="stroke-width:.0338735"/><path fill="#393b3b" d="m6.493 5.606.067.034-.914.914q-.034-.015-.068-.034l.068-.067c.188-.182.188-.182.36-.38.088-.104.184-.189.288-.277q.104-.09.199-.19" style="stroke-width:.0338735"/></svg>