<svg xmlns="http://www.w3.org/2000/svg" width="24" height="24"><path fill="#1c1d1e" d="M22.298 2.129a4.17 4.17 0 0 1 1.455 2.16l.038.123c.248.987.016 2.051-.487 2.916a4 4 0 0 1-.51.645l-.107.117c-1.398 1.393-4.06 1.683-5.915 2.025l-.143.026c-.519.095-1.03.18-1.557.204l-.056-.112c-.238-.467-.533-.882-.953-1.2.03-.209.076-.394.15-.59l.064-.17.07-.184.036-.095c2.064-5.39 2.064-5.39 4.064-6.292 1.305-.527 2.697-.376 3.85.427" style="stroke-width:.0504697"/><path fill="#1b1d1e" d="M8.965 13.171c.078.11.078.11.161.253.244.395.532.724.9 1.009-.046.29-.102.542-.248.798-.084.166-.143.34-.207.514l-.173.454-.044.116a6 6 0 0 1-.293.65c-.063.128-.11.26-.158.393-.154.41-.359.8-.556 1.191l-.085.17-.205.408h-.101l-.013.104c-.049.192-.136.332-.24.501h-.1l-.013.108c-.076.29-.306.52-.492.75l-.108.136A3.7 3.7 0 0 1 5.433 21.8l-.146.06c-.407.145-.794.162-1.223.164l-.166.002c-.947-.01-1.744-.376-2.453-.983l-.103-.086C.74 20.411.282 19.477.223 18.671c-.047-1.316-.047-1.316.213-1.917l.078-.18c.176-.387.395-.716.68-1.03l.1-.119c.306-.331.662-.54 1.06-.74l.156-.078c1.646-.757 3.52-1.038 5.295-1.335l.183-.03.554-.09c.164-.024.264-.034.423.02" style="stroke-width:.0504697"/><path fill="#191b1c" d="M14.77 13.575c.443.237.877.49 1.308.747l.215.128q.765.457 1.525.92.674.41 1.352.81l.102.061.102.06.202.12.1.059.998.596.154.092q.406.243.805.495a2.76 2.76 0 0 1-.736 1.29c-.078.073-.078.073-.134.186-.1.157-.217.271-.35.4a4 4 0 0 0-.24.269c-1.502 1.768-4.071 2.43-6.274 2.612l-.148.012c-.52.037-1.03.026-1.556.026v-7.42l.808-.15c.157-.061.286-.113.429-.193l.101-.054c.245-.132.47-.28.681-.46l.082-.063c.204-.157.333-.332.473-.543M11.741.957v7.319l-.858.201c-.152.059-.282.11-.422.187l-.1.051c-.426.231-.802.533-1.093.923-.263-.026-.453-.16-.672-.296l-.272-.166-.152-.094q-.42-.254-.844-.502-.911-.54-1.815-1.09-.682-.415-1.37-.82-.88-.517-1.739-1.07l.05-.201h.102l.04-.112c.06-.137.127-.248.212-.37a3 3 0 0 0 .252-.427h.101l.039-.112c.115-.257.324-.442.517-.645l.071-.077c.645-.696 1.41-1.204 2.25-1.639l.094-.048c1.102-.567 2.334-.827 3.559-.952l.18-.019c.628-.057 1.231-.04 1.87-.04M2.152 6.055c.215.065.394.146.585.265l.165.101.087.054q.236.146.473.291l.1.062q.555.336 1.113.665.765.452 1.524.915.826.504 1.664.988c1.028.6 1.028.6 1.102.747a5 5 0 0 1-.12.322c-.115.286-.187.512-.198.82l-.007.164-.006.17-.007.173-.015.42-.139.022c-3.55.548-3.55.548-6.891 1.805-.086.04-.086.04-.238.091-.11-.743-.116-1.481-.114-2.231v-.407c-.006-1.811.13-3.772.922-5.437z" style="stroke-width:.0504697"/><path fill="#191b1b" d="M22.643 9.285h.05c.041.486.058.967.057 1.456v1.921c-.002 1.129-.002 1.129-.107 1.519l-.01.315c-.026.566-.193 1.11-.343 1.653l-.031.112a4.3 4.3 0 0 1-.373.948 1.4 1.4 0 0 1-.46-.191l-.155-.09-.168-.098-.176-.102a78 78 0 0 1-1.419-.85q-.675-.412-1.357-.814a191 191 0 0 1-2.22-1.338l-.15-.09-.76-.465.041-.111c.17-.48.253-.94.29-1.447l.014-.176.009-.133.09-.016c3.799-.44 3.799-.44 7.178-2.003" style="stroke-width:.0504697"/><path fill="#1a1c1c" d="M12.195.957c1.75 0 1.75 0 2.328.089l.196.027c.698.102 1.398.216 2.07.44 0 .151 0 .151-.08.239l-.113.101a5 5 0 0 0-.562.656l-.072.098a1.9 1.9 0 0 0-.284.52h-.101l-.041.11c-.061.146-.13.283-.205.423l-.087.165-.093.176q-.364.691-.69 1.401l-.067.146c-.196.433-.37.872-.533 1.318-.093.25-.19.496-.302.739-.092.208-.17.421-.25.634-.054.138-.054.138-.104.238-.348-.04-.662-.121-1.01-.201z" style="stroke-width:.0504697"/><path fill="#e5e2dd" d="M13.404 9.673c.379.3.682.675.86 1.126l.055.13c.168.622.116 1.38-.206 1.94a2.6 2.6 0 0 1-1.586 1.176c-.647.12-1.326.033-1.879-.333-.507-.372-.894-.825-1.055-1.448-.082-.564-.092-1.154.18-1.667l.072-.14c.344-.6.887-.96 1.527-1.188a2.6 2.6 0 0 1 2.032.404" style="stroke-width:.0504697"/><path fill="#1a1c1d" d="m10.934 14.887.807.152v7.419c-1.248 0-1.248 0-1.706-.038l-.165-.014c-.923-.081-1.797-.245-2.671-.554l.113-.112c.43-.433.776-.887 1.098-1.402l.061-.097c.8-1.282 1.403-2.69 1.958-4.092l.13-.325.067-.168z" style="stroke-width:.0504697"/></svg>