<svg xmlns="http://www.w3.org/2000/svg" xml:space="preserve" width="24" height="24" fill-rule="evenodd" stroke-linejoin="round" stroke-miterlimit="2" clip-rule="evenodd"><path d="M4.340 2.277 C 2.632 2.298,2.447 2.307,2.314 2.373 C 2.080 2.489,1.866 2.695,1.740 2.926 C 1.635 3.118,1.623 3.177,1.623 3.500 C 1.622 3.790,1.640 3.895,1.710 4.041 C 1.820 4.266,2.080 4.522,2.336 4.657 L 2.532 4.760 9.796 4.760 C 18.011 4.760,17.267 4.792,17.662 4.431 C 17.955 4.163,18.058 3.916,18.059 3.480 C 18.059 3.203,18.042 3.108,17.968 2.968 C 17.846 2.739,17.605 2.504,17.371 2.386 L 17.180 2.290 11.700 2.272 C 8.686 2.263,5.374 2.265,4.340 2.277 M9.640 5.597 C 7.549 5.620,7.539 5.620,7.368 5.712 C 7.134 5.837,6.890 6.090,6.786 6.314 C 6.666 6.573,6.667 7.100,6.788 7.366 C 6.901 7.616,7.135 7.841,7.440 7.994 L 7.693 8.120 14.936 8.120 L 22.180 8.119 22.389 8.022 C 22.675 7.889,22.971 7.602,23.085 7.349 C 23.213 7.063,23.217 6.582,23.093 6.314 C 22.985 6.077,22.747 5.846,22.474 5.712 L 22.260 5.607 17.000 5.591 C 14.107 5.582,10.795 5.585,9.640 5.597 M5.279 8.955 L 4.538 8.980 4.332 9.112 C 3.953 9.356,3.760 9.720,3.760 10.194 C 3.760 10.680,4.039 11.093,4.535 11.340 L 4.736 11.440 10.958 11.436 C 14.380 11.434,17.686 11.420,18.304 11.406 L 19.427 11.380 19.650 11.232 C 20.485 10.677,20.453 9.570,19.587 9.062 L 19.413 8.960 12.716 8.945 C 9.033 8.936,5.687 8.941,5.279 8.955 M2.800 12.436 C 1.113 12.458,0.926 12.467,0.794 12.533 C 0.547 12.655,0.330 12.871,0.212 13.111 C 0.116 13.308,0.100 13.388,0.101 13.680 C 0.101 13.970,0.117 14.050,0.207 14.222 C 0.333 14.461,0.619 14.736,0.852 14.842 C 1.015 14.916,1.231 14.918,8.311 14.919 L 15.603 14.920 15.803 14.819 C 16.229 14.603,16.514 14.178,16.531 13.735 C 16.548 13.262,16.336 12.872,15.912 12.598 L 15.668 12.440 13.940 12.440 C 12.990 12.440,10.514 12.434,8.437 12.426 C 6.359 12.418,3.823 12.423,2.800 12.436 M5.680 15.756 L 4.540 15.780 4.360 15.886 C 4.116 16.030,3.903 16.251,3.794 16.474 C 3.664 16.739,3.664 17.216,3.795 17.509 C 3.909 17.762,4.205 18.049,4.491 18.182 L 4.700 18.279 11.940 18.280 L 19.180 18.280 19.430 18.162 C 19.929 17.925,20.200 17.505,20.200 16.965 C 20.200 16.461,19.891 16.027,19.392 15.830 C 19.180 15.747,19.166 15.747,13.000 15.739 C 9.601 15.735,6.307 15.743,5.680 15.756 M12.518 19.188 C 12.039 19.426,11.790 19.821,11.792 20.334 C 11.795 20.846,12.080 21.273,12.571 21.502 L 12.780 21.599 17.836 21.600 L 22.892 21.600 23.136 21.463 C 23.421 21.303,23.634 21.092,23.765 20.840 C 23.893 20.594,23.898 20.104,23.775 19.840 C 23.673 19.621,23.393 19.299,23.233 19.216 C 23.016 19.104,22.104 19.083,17.398 19.081 L 12.736 19.080 12.518 19.188 " stroke="none" fill-rule="evenodd"></path></svg>