<svg width="64" height="64" viewBox="0 0 64 64" fill="none" xmlns="http://www.w3.org/2000/svg">
  <path fill-rule="evenodd" clip-rule="evenodd"
    d="M26.3994 1.60304C30.6994 1.50304 31.7942 3.80323 34.5996 3.80323C35.6614 3.80321 37.3358 3.60305 39.1992 3.60304C43.9694 3.60304 47.2988 6.70294 47.999 9.40284C48.3038 10.5786 49.3732 10.7889 50.3359 10.813C50.2478 10.5253 50.2002 10.2194 50.2002 9.90284C50.2004 8.19092 51.5888 6.80323 53.3008 6.80323C55.0126 6.80344 56.4002 8.19105 56.4004 9.90284C56.4004 10.7639 56.0483 11.5423 55.4814 12.104C57.1318 13.2899 58.1991 15.1776 58.1992 17.3032C58.1991 20.8929 55.1549 23.8032 51.3994 23.8032C49.6753 23.8032 46.8996 22.5033 45.0996 24.603C44.4848 25.3204 43.6367 25.9952 42.2607 26.4038C45.8849 26.4679 49.5083 26.66 52.5 27.1694C57.3998 28.0036 58.4998 28.9038 58.7998 34.5034C58.7998 49.6342 46.9116 60.2036 32 60.2036C17.0885 60.2036 5.20043 49.4348 5.2002 34.3042C5.20023 29.8042 6.2001 27.8754 11.5 27.1694C15.5787 26.626 18.8295 26.4082 21.6855 26.3364C19.832 25.7845 18.2186 24.7664 17.043 23.3423C16.3917 23.5118 15.7063 23.603 14.999 23.603C14.5177 23.603 14.0471 23.5583 13.5898 23.478C13.9718 22.9509 14.2001 22.3046 14.2002 21.604C14.1999 19.8368 12.7672 18.4038 11 18.4038C9.85204 18.404 8.84764 19.0104 8.2832 19.9185C7.59487 18.8006 7.19923 17.4963 7.19922 16.103C7.19934 12.3032 10.1631 9.75299 14.0996 8.00343C14.9996 7.6034 16.9082 6.54303 17.2998 6.20265C19.5996 4.2027 21.721 1.60304 26.3994 1.60304ZM37.1631 48.7808C36.8544 49.9527 34.5714 50.4018 31.7998 50.4019C29.0609 50.4019 26.7976 49.9637 26.4463 48.8228C25.2334 49.0048 24.8098 49.1971 24.7998 49.2017C24.8024 49.2214 25.1255 51.6318 27.2666 53.2251C27.2451 53.0889 27.227 52.9723 27.2158 52.8804C27.111 52.052 27.5413 51.632 28.0195 51.3491C28.4981 51.0664 29.896 50.8023 32.001 50.8023C34.1062 50.8023 35.5132 51.0664 35.9824 51.3491C36.4513 51.632 36.8814 52.0517 36.7861 52.8804C36.7774 52.9526 36.762 53.0399 36.7471 53.1401C38.7843 51.5494 39.0964 49.2263 39.0996 49.2017C39.0828 49.194 38.5908 48.9725 37.1631 48.7808ZM20.2002 33.0015C17.1076 33.0015 14.5999 35.5095 14.5996 38.6021C14.5997 41.6948 17.1074 44.2017 20.2002 44.2017C23.2929 44.2016 25.7997 41.6947 25.7998 38.6021C25.7995 35.5095 23.2927 33.0016 20.2002 33.0015ZM43.7998 33.0015C40.7073 33.0016 38.2005 35.5095 38.2002 38.6021C38.2003 41.6947 40.7071 44.2016 43.7998 44.2017C46.8926 44.2017 49.4003 41.6948 49.4004 38.6021C49.4001 35.5095 46.8924 33.0015 43.7998 33.0015ZM41.1006 18.604C39.6095 18.604 38.4006 19.8132 38.4004 21.3042C38.4007 22.795 39.6095 24.0034 41.1006 24.0034C42.5915 24.0033 43.8005 22.7949 43.8008 21.3042C43.8005 19.8133 42.5915 18.6041 41.1006 18.604Z" />
  <path
    d="M14.6992 2.20362C15.7484 2.20362 16.5994 3.05386 16.5996 4.10304C16.5996 5.15238 15.7486 6.00343 14.6992 6.00343C13.6501 6.00322 12.7998 5.15225 12.7998 4.10304C12.8 3.05399 13.6502 2.20383 14.6992 2.20362Z" />
</svg>