<svg xmlns="http://www.w3.org/2000/svg" viewBox="0 0 256 256"><path d="M115.539 1.296 C 103.600 1.975,96.539 3.615,95.192 6.021 C 94.218 7.761,95.180 9.437,99.995 14.400 L 104.239 18.773 129.067 18.773 L 153.895 18.773 158.138 14.400 C 162.995 9.395,163.889 7.829,162.820 6.198 C 160.700 2.963,151.786 1.450,132.818 1.107 C 127.000 1.002,119.224 1.087,115.539 1.296 M189.720 16.847 C 188.216 18.352,187.680 25.851,188.752 30.404 C 189.070 31.756,189.854 33.618,190.495 34.543 C 193.425 38.771,217.807 63.070,221.719 65.662 C 224.144 67.268,228.174 68.015,232.898 67.734 C 236.734 67.506,238.714 66.894,239.130 65.809 C 240.120 63.230,228.509 47.112,218.441 37.090 C 212.049 30.727,197.944 19.914,192.128 16.917 C 190.468 16.062,190.505 16.063,189.720 16.847 M66.133 17.466 C 64.175 18.063,61.693 19.514,56.960 22.828 C 42.854 32.704,32.992 42.683,23.662 56.523 C 20.139 61.750,18.839 64.577,19.349 65.907 C 19.831 67.162,22.370 67.840,26.585 67.840 C 31.341 67.840,33.597 67.233,36.961 65.047 C 40.275 62.894,65.027 38.142,67.180 34.828 C 68.076 33.450,69.070 31.451,69.391 30.387 C 70.091 28.060,70.160 21.143,69.502 19.255 C 69.114 18.143,67.909 16.947,67.335 17.103 C 67.261 17.124,66.720 17.287,66.133 17.466 M116.053 60.623 C 111.419 61.066,109.492 61.540,104.669 63.423 C 96.550 66.592,88.184 72.243,81.068 79.365 C 75.088 85.350,71.280 90.605,67.623 97.920 C 63.233 106.703,63.051 107.711,62.825 124.461 C 62.569 143.517,62.946 146.148,67.220 155.112 C 73.862 169.044,86.908 182.132,100.824 188.824 C 108.926 192.719,110.207 192.939,126.187 193.173 C 145.222 193.452,148.389 193.003,157.282 188.763 C 171.101 182.175,184.309 169.001,190.957 155.176 C 195.090 146.579,195.156 146.144,195.176 127.147 C 195.195 108.862,195.139 108.377,192.174 101.205 C 187.089 88.906,175.996 76.266,163.627 68.677 C 159.088 65.892,152.200 62.764,148.550 61.829 C 142.808 60.358,125.529 59.717,116.053 60.623 M8.199 93.253 C 5.493 95.148,3.738 103.336,3.000 117.516 C 1.950 137.653,5.072 161.280,8.783 161.280 C 10.365 161.280,12.828 159.582,16.747 155.790 L 20.907 151.764 20.907 126.949 L 20.907 102.133 16.747 98.058 C 13.062 94.448,10.597 92.587,9.503 92.587 C 9.309 92.587,8.722 92.886,8.199 93.253 M246.613 93.683 C 245.557 94.281,243.013 96.435,240.960 98.469 L 237.227 102.169 237.227 126.965 L 237.227 151.761 241.600 156.005 C 246.605 160.862,248.171 161.755,249.802 160.687 C 251.701 159.442,252.809 156.248,254.076 148.366 C 255.624 138.729,255.628 118.646,254.084 106.880 C 252.948 98.223,251.053 92.580,249.286 92.592 C 248.872 92.595,247.669 93.086,246.613 93.683 M22.400 186.313 C 20.464 186.739,19.200 187.452,19.200 188.117 C 19.200 189.373,21.978 194.662,24.938 199.040 C 33.473 211.666,43.303 221.690,55.847 230.561 C 60.272 233.689,66.135 236.800,67.608 236.800 C 68.969 236.800,69.610 235.090,69.867 230.764 C 70.146 226.071,69.400 222.008,67.821 219.627 C 65.080 215.495,41.054 191.395,36.593 188.304 C 35.677 187.669,33.741 186.901,32.291 186.597 C 29.780 186.071,24.226 185.912,22.400 186.313 M226.399 186.469 C 225.019 186.686,223.003 187.383,221.919 188.018 C 219.780 189.270,200.809 207.777,194.219 215.040 C 189.087 220.696,188.520 221.937,188.283 228.038 C 188.063 233.670,188.696 236.505,190.221 236.725 C 193.653 237.221,209.118 226.461,218.449 217.085 C 225.641 209.859,234.451 198.170,237.507 191.799 C 239.238 188.190,239.268 187.596,237.760 186.908 C 236.246 186.218,229.625 185.961,226.399 186.469 M99.995 239.467 C 95.096 244.516,94.241 246.032,95.345 247.717 C 97.537 251.062,109.748 253.074,127.787 253.063 C 147.762 253.050,163.413 250.469,163.413 247.187 C 163.413 245.636,161.691 243.147,157.923 239.253 L 153.898 235.093 129.068 235.093 L 104.239 235.093 99.995 239.467 " stroke="none" fill-rule="evenodd" fill="black"></path></svg>