<?xml version="1.0" standalone="no"?>
<!DOCTYPE svg PUBLIC "-//W3C//DTD SVG 20010904//EN"
 "http://www.w3.org/TR/2001/REC-SVG-20010904/DTD/svg10.dtd">
<svg version="1.0" xmlns="http://www.w3.org/2000/svg"
 width="256.000000pt" height="256.000000pt" viewBox="0 0 256.000000 256.000000"
 preserveAspectRatio="xMidYMid meet">

<g transform="translate(0.000000,256.000000) scale(0.100000,-0.100000)"
fill="#000000" stroke="none">
<path d="M1118 2038 c-57 -12 -61 -27 -19 -69 l29 -29 152 0 152 0 29 29 c43
43 38 56 -28 70 -67 13 -249 13 -315 -1z"/>
<path d="M834 1911 c-81 -57 -136 -113 -193 -195 -45 -65 -43 -76 17 -76 46 0
59 9 156 106 97 97 106 110 106 156 0 61 -11 62 -86 9z"/>
<path d="M1646 1944 c-9 -24 -7 -73 4 -94 13 -24 176 -187 200 -200 22 -12 80
-13 98 -2 9 6 2 24 -29 68 -55 79 -111 137 -184 188 -81 58 -82 58 -89 40z"/>
<path d="M1153 1676 c-104 -34 -204 -123 -251 -224 -24 -51 -27 -68 -27 -172
0 -110 2 -119 32 -181 40 -80 120 -159 200 -197 53 -24 69 -27 173 -27 110 0
119 2 181 32 80 40 159 120 197 200 24 52 27 69 27 173 0 104 -3 121 -27 173
-37 80 -117 160 -197 199 -58 29 -75 33 -165 35 -65 2 -116 -2 -143 -11z"/>
<path d="M521 1433 c-24 -121 -7 -363 26 -363 8 0 28 13 44 29 l29 29 0 152 0
152 -29 29 c-43 43 -56 38 -70 -28z"/>
<path d="M1969 1461 l-29 -29 0 -152 0 -152 29 -29 c43 -43 56 -38 70 28 24
121 7 363 -26 363 -8 0 -28 -13 -44 -29z"/>
<path d="M612 912 c-15 -10 64 -126 129 -189 70 -66 161 -126 171 -111 11 18
10 76 -2 98 -13 24 -176 187 -200 200 -22 12 -80 13 -98 2z"/>
<path d="M1848 909 c-24 -14 -186 -177 -198 -199 -12 -22 -13 -80 -2 -98 10
-15 101 45 171 111 65 63 144 179 129 189 -18 11 -79 9 -100 -3z"/>
<path d="M1099 591 c-43 -43 -38 -56 28 -70 121 -24 363 -7 363 26 0 8 -13 28
-29 44 l-29 29 -152 0 -152 0 -29 -29z"/>
</g>
</svg>
