<svg xmlns="http://www.w3.org/2000/svg" version="1.0" viewBox="0 0 256 256"><path d="M103.64547 16.905345c-8.391966 1.766728-8.980872 3.975139-2.79732 10.15869l4.2696 4.269594h44.75712l4.26959-4.269594c6.33078-6.330778 5.59464-8.244735-4.12237-10.305917-9.86423-1.913956-36.65961-1.913956-46.37662.147227zM61.832892 35.603223C49.907475 43.995182 41.809969 52.239916 33.418009 64.31256c-6.625232 9.56978-6.330778 11.189281 2.502865 11.189281 6.77246 0 8.686415-1.325046 22.967471-15.606102 14.281059-14.281056 15.606107-16.195011 15.606107-22.967471 0-8.980869-1.619507-9.128097-12.66156-1.325045zm119.548638-4.858504c-1.32505 3.533457-1.03059 10.747598.58891 13.839373 1.91395 3.533457 25.91202 27.531519 29.44548 29.445476 3.239 1.766728 11.77818 1.913955 14.42828.294454 1.32505-.883364.29445-3.533457-4.26959-10.011462-8.09751-11.630963-16.34225-20.170151-27.08985-27.678746-11.92541-8.539188-12.07264-8.539188-13.10323-5.889095Zm-72.5831 39.456936c-15.311656 5.005731-30.034386 18.108969-36.954074 32.978935-3.533461 7.50859-3.975144 10.01146-3.975144 25.32311 0 16.195.294459 17.52005 4.711275 26.64815 5.889098 11.77819 17.667284 23.40915 29.445483 29.00379 7.80306 3.53346 10.15869 3.97514 25.47034 3.97514 16.19501 0 17.52006-.29446 26.64815-4.71127 11.7782-5.8891 23.40916-17.66729 29.0038-29.44548 3.53345-7.65582 3.97513-10.15869 3.97513-25.47033 0-15.31165-.44168-17.81452-3.97513-25.47034-5.44742-11.778189-17.2256-23.55638-29.0038-29.298248-8.53918-4.269594-11.04205-4.858502-24.29251-5.152958-9.56978-.294454-17.07838.294456-21.05352 1.619501zM15.750723 105.97791c-3.533457 17.8145-1.030591 53.44353 3.827912 53.44353 1.177819 0 4.122366-1.91395 6.478005-4.26959l4.269594-4.2696v-44.75712l-4.269594-4.26959c-6.330777-6.330776-8.244734-5.594638-10.305917 4.12237zm213.185247-4.12237-4.26959 4.26959v44.75712l4.26959 4.2696c6.33078 6.33077 8.24473 5.59464 10.30592-4.12237 3.53345-17.81451 1.03059-53.443532-3.82792-53.443532-1.17781 0-4.12236 1.913955-6.478 4.269592zM29.148415 182.68337c-2.208411 1.47227 9.422552 18.55065 18.992331 27.82597 10.305916 9.71701 23.70361 18.55065 25.175882 16.34224 1.619496-2.65009 1.472272-11.18928-.294459-14.42828-1.913954-3.53346-25.912014-27.53152-29.445471-29.44548-3.239003-1.76673-11.77819-1.91395-14.428283-.29445zm181.973045.44168c-3.53346 2.06118-27.38429 26.05924-29.15102 29.29825-1.76673 3.239-1.91396 11.77819-.29445 14.42828 1.47227 2.20841 14.86996-6.62523 25.17588-16.34224 9.56978-9.27532 21.20074-26.3537 18.99233-27.82597-2.6501-1.6195-11.63096-1.32505-14.72274.44168zm-110.27331 46.81831c-6.330777 6.33078-5.594646 8.24473 4.12237 10.30591 17.81452 3.53346 53.44353 1.03059 53.44353-3.82791 0-1.17782-1.91395-4.12237-4.26959-6.478l-4.26959-4.2696h-44.75712z"/></svg>