<svg xmlns="http://www.w3.org/2000/svg" version="1.0" viewBox="0 0 256 256"><path d="M111.8 52.2c-5.7 1.2-6.1 2.7-1.9 6.9l2.9 2.9h30.4l2.9-2.9c4.3-4.3 3.8-5.6-2.8-7-6.7-1.3-24.9-1.3-31.5.1zM83.4 64.9c-8.1 5.7-13.6 11.3-19.3 19.5-4.5 6.5-4.3 7.6 1.7 7.6 4.6 0 5.9-.9 15.6-10.6S92 70.4 92 65.8c0-6.1-1.1-6.2-8.6-.9zM164.6 61.6c-.9 2.4-.7 7.3.4 9.4 1.3 2.4 17.6 18.7 20 20 2.2 1.2 8 1.3 9.8.2.9-.6.2-2.4-2.9-6.8-5.5-7.9-11.1-13.7-18.4-18.8-8.1-5.8-8.2-5.8-8.9-4zM115.3 88.4c-10.4 3.4-20.4 12.3-25.1 22.4-2.4 5.1-2.7 6.8-2.7 17.2 0 11 .2 11.9 3.2 18.1 4 8 12 15.9 20 19.7 5.3 2.4 6.9 2.7 17.3 2.7 11 0 11.9-.2 18.1-3.2 8-4 15.9-12 19.7-20 2.4-5.2 2.7-6.9 2.7-17.3s-.3-12.1-2.7-17.3c-3.7-8-11.7-16-19.7-19.9-5.8-2.9-7.5-3.3-16.5-3.5-6.5-.2-11.6.2-14.3 1.1zM52.1 112.7c-2.4 12.1-.7 36.3 2.6 36.3.8 0 2.8-1.3 4.4-2.9l2.9-2.9v-30.4l-2.9-2.9c-4.3-4.3-5.6-3.8-7 2.8zM196.9 109.9l-2.9 2.9v30.4l2.9 2.9c4.3 4.3 5.6 3.8 7-2.8 2.4-12.1.7-36.3-2.6-36.3-.8 0-2.8 1.3-4.4 2.9zM61.2 164.8c-1.5 1 6.4 12.6 12.9 18.9 7 6.6 16.1 12.6 17.1 11.1 1.1-1.8 1-7.6-.2-9.8-1.3-2.4-17.6-18.7-20-20-2.2-1.2-8-1.3-9.8-.2zM184.8 165.1c-2.4 1.4-18.6 17.7-19.8 19.9-1.2 2.2-1.3 8-.2 9.8 1 1.5 10.1-4.5 17.1-11.1 6.5-6.3 14.4-17.9 12.9-18.9-1.8-1.1-7.9-.9-10 .3zM109.9 196.9c-4.3 4.3-3.8 5.6 2.8 7 12.1 2.4 36.3.7 36.3-2.6 0-.8-1.3-2.8-2.9-4.4l-2.9-2.9h-30.4l-2.9 2.9z"/></svg>