<svg xmlns="http://www.w3.org/2000/svg" viewBox="0 0 24 24"><path d="M3.023 1.015a.502.502 0 0 0-.501.5v21c0 .275.226.5.501.5h17.999a.502.502 0 0 0 .501-.5v-21c0-.275-.226-.5-.501-.5H3.023Zm8.999 2.5a6.5 6.5 0 1 1 0 13 6.5 6.5 0 0 1 0-13Zm0 2c-2.479 0-4.5 2.02-4.5 4.5 0 2.479 2.021 4.5 4.5 4.5 2.48 0 4.5-2.021 4.5-4.5 0-2.48-2.02-4.5-4.5-4.5Zm0 1c1.939 0 3.5 1.561 3.5 3.5s-1.561 3.5-3.5 3.5a3.492 3.492 0 0 1-3.499-3.5c0-1.939 1.561-3.5 3.499-3.5Zm0 2.5a1 1 0 1 0 0 2 1 1 0 0 0 0-2Zm-3.499 9.5h6.999c.275 0 .501.225.501.5v1.5c0 .275-.226.5-.501.5H8.523a.502.502 0 0 1-.501-.5v-1.5c0-.275.226-.5.501-.5Z" style="stroke:none;stroke-width:1;stroke-dasharray:none;stroke-linecap:butt;stroke-dashoffset:0;stroke-linejoin:miter;stroke-miterlimit:4;fill:#000;fill-rule:nonzero;opacity:1"/></svg>