<?xml version="1.0" encoding="UTF-8" standalone="no"?>
<svg
   width="1365.333"
   height="1365.333"
   viewBox="0 0 1024 1024"
   version="1.1"
   id="svg1"
   sodipodi:docname=":logseq: copy.svg"
   inkscape:version="1.4.3 (0d15f75, 2025-12-25)"
   xmlns:inkscape="http://www.inkscape.org/namespaces/inkscape"
   xmlns:sodipodi="http://sodipodi.sourceforge.net/DTD/sodipodi-0.dtd"
   xmlns="http://www.w3.org/2000/svg"
   xmlns:svg="http://www.w3.org/2000/svg">
  <defs
     id="defs1" />
  <sodipodi:namedview
     id="namedview1"
     pagecolor="#505050"
     bordercolor="#ffffff"
     borderopacity="1"
     inkscape:showpageshadow="0"
     inkscape:pageopacity="0"
     inkscape:pagecheckerboard="1"
     inkscape:deskcolor="#505050"
     inkscape:zoom="0.1456838"
     inkscape:cx="858.02266"
     inkscape:cy="1280.1698"
     inkscape:window-width="968"
     inkscape:window-height="1044"
     inkscape:window-x="742"
     inkscape:window-y="40"
     inkscape:window-maximized="0"
     inkscape:current-layer="svg1" />
  <path
     d="m 578.40731,49.01035 c -48.67734,10.577713 -88.71176,31.606712 -114.9506,60.38011 -21.2653,23.31973 -27.06739,37.24324 -26.25464,62.9982 0.68631,21.73864 3.85301,29.41531 18.6299,45.16072 25.12432,26.77089 67.56612,40.32565 119.65699,38.21402 59.71261,-2.42017 113.76159,-23.54775 149.63446,-58.49198 33.41507,-32.54965 42.33644,-70.17593 24.04067,-101.395088 C 741.98861,83.632493 724.9842,69.286808 707.28745,60.548305 683.26484,48.685252 675.03129,47.150069 631.27631,46.374952 c -32.48869,-0.574941 -39.765,-0.212217 -52.869,2.635398 M 124.39193,74.137686 C 74.63168,86.620833 42.123423,116.43274 26.593992,163.82625 c -4.389571,13.39523 -4.777129,16.74102 -4.859156,41.9549 -0.07676,23.48529 0.476358,29.47928 3.872575,41.95565 8.513494,31.27485 26.540608,62.13955 49.998057,85.60077 23.888654,23.89392 51.769542,40.75008 82.178962,49.6865 19.80762,5.8209 57.79438,6.76986 77.16854,1.92876 46.91565,-11.72458 80.76042,-44.75209 94.48601,-92.20656 5.61997,-19.43136 5.57633,-58.36405 -0.0888,-79.2591 C 314.77873,159.74673 279.48156,116.66226 228.75429,90.695089 200.53853,76.251573 192.56686,74.351408 157.78443,73.774962 c -16.48215,-0.27242 -31.50889,-0.109871 -33.3925,0.362724 M 579.67911,388.25272 c -50.9884,4.9743 -104.88236,18.68183 -148.23248,37.70305 -60.86474,26.70617 -118.34757,74.26373 -151.98238,125.74053 -46.72375,71.50869 -51.5957,161.80305 -12.89479,239.00395 26.3141,52.49273 72.78424,100.28584 132.07016,135.83135 60.13854,36.05649 142.40931,59.20088 220.64947,62.07257 80.57003,2.95749 156.77457,-12.60505 224.53785,-45.85532 74.66258,-36.63594 132.70982,-94.57782 157.76266,-157.47668 22.7493,-57.11333 25.0017,-110.16068 7.0468,-165.93449 C 995.07334,577.20744 972.55431,541.67848 937.00127,506.31584 881.37798,450.99205 806.10734,412.82017 719.23328,395.88123 684.66306,389.14072 611.54545,385.14398 579.67911,388.25272"
     stroke="none"
     fill="#000000"
     fill-rule="evenodd"
     id="path1"
     style="stroke-width:0.752541" />
</svg>
