<svg xmlns="http://www.w3.org/2000/svg" width="1365.333333" height="1365.333333" version="1.0" viewBox="0 0 1024 1024">
  <path d="M315 101c-35.8.7-46 1.4-65 4.6-69.6 11.7-123.5 61-140.9 128.7-3.4 13.3-5.5 26.7-7.3 47.2-1.9 21.6-1.8 437.3.1 461.5 3.2 42.3 11.5 70.1 28.7 97.6 18.8 29.9 49.4 55.2 82.6 68.3 8.5 3.4 26.6 8.4 36.8 10.1 25 4.4 18.7 4.3 249 4.7 142.1.3 224.8.1 236.5-.6 39-2.2 63.3-7.7 88-19.7 50.5-24.4 84.8-70.4 95-127.2 4.9-27.6 4.8-22.9 5.2-249.7.5-250.6.3-257.3-7.8-290.5-11.3-46.1-39.8-84.7-80.4-108.5-25.2-14.8-50.4-22-90-25.6-14.3-1.3-374.4-2-430.5-.9zm288.5 93.2c22.4 3 41.9 12.1 54.1 24.9 9.5 10.1 13.4 19.8 13.4 33.2 0 15.4-6.9 29.6-21.5 44.3-23.2 23.4-57.7 38.1-97.8 41.5-24.2 2.1-47.6-1.6-66-10.4-16-7.7-26-16.8-32.1-29.7-2.9-6.1-3.1-7.1-3.1-18.5 0-10.7.3-12.7 2.6-18.3 8.7-20.5 25.7-37.3 51-50.1 30.1-15.3 66.2-21.5 99.4-16.9zm-325.9 19.3c29.1 5.5 59.1 24.9 78.5 50.8 15.3 20.6 24.9 48.4 24.9 72.4 0 46.3-30.2 83.4-74.4 91.2-7.5 1.4-26.2 1.4-34.3.1-42.1-6.9-81.5-38.8-97.9-79.6-7.5-18.5-10.4-37.6-8.5-55 6.4-56.5 54.1-90.7 111.7-79.9zM616 429c71.7 8.4 133.7 36.5 177.5 80.5 13.8 13.9 20.9 22.5 30 37 39.8 63.2 35.1 138.8-12.4 198-52.3 65.2-149.5 102.2-248.2 94.4-93.8-7.3-174.2-49.7-217.5-114.8-28.1-42-36.4-92.8-22.9-139.6 12.1-42 42.6-80.8 85.6-109.2 40-26.4 88.7-42.5 142.9-47.2 12.8-1.2 52-.6 65 .9z"/>
</svg>
