<?xml version="1.0" encoding="UTF-8" standalone="no"?>
<svg
   width="800"
   height="800"
   viewBox="0 0 24 24"
   version="1.1"
   id="svg2"
   xmlns="http://www.w3.org/2000/svg"
   xmlns:svg="http://www.w3.org/2000/svg">
  <defs
     id="defs2" />
  <path
     d="M 21.115917,2.0241542 A 1.1947467,1.1947467 0 0 0 20.11233,1.7852049 9.5579738,9.5579738 0 0 1 12.681006,0.26787659 a 1.1947467,1.1947467 0 0 0 -1.362012,0 A 9.5579738,9.5579738 0 0 1 3.8876698,1.7852049 1.1947467,1.1947467 0 0 0 2.8840825,2.0241542 1.1947467,1.1947467 0 0 0 2.4420262,2.9560567 V 11.85692 a 10.75272,10.75272 0 0 0 4.5041952,8.757493 l 4.3608246,3.106342 a 1.1947467,1.1947467 0 0 0 1.385907,0 l 4.360826,-3.106342 A 10.75272,10.75272 0 0 0 21.557974,11.85692 V 2.9560567 A 1.1947467,1.1947467 0 0 0 21.115917,2.0241542 M 19.16848,11.85692 a 8.363227,8.363227 0 0 1 -3.500607,6.810056 L 12,21.283472 8.3321276,18.666976 A 8.363227,8.363227 0 0 1 4.8315197,11.85692 V 4.3300154 A 11.947467,11.947467 0 0 0 12,2.6693175 11.947467,11.947467 0 0 0 19.16848,4.3300154 Z"
     id="path1"
     style="stroke-width:1.19475" />
  <path
     d="m 17.734784,11.885594 a 6.6905816,6.6905816 0 0 1 -2.800486,5.448045 L 12,19.426835 9.0657021,17.333639 A 6.6905816,6.6905816 0 0 1 6.2652157,11.885594 V 5.8640702 A 9.5579738,9.5579738 0 0 0 12,4.5355118 9.5579738,9.5579738 0 0 0 17.734784,5.8640702 Z"
     id="path2"
     style="stroke-width:1.19475" />
</svg>
