<svg version="1.1" xmlns="http://www.w3.org/2000/svg" width="32" height="32">
<path d="M0 0 C1.32 0 2.64 0 4 0 C4 2.97 4 5.94 4 9 C6.01822917 7.92578125 8.03645833 6.8515625 10.0546875 5.77734375 C11.01761719 5.39255859 11.01761719 5.39255859 12 5 C12.66 5.33 13.32 5.66 14 6 C14 7.32 14 8.64 14 10 C12.3203125 11.484375 12.3203125 11.484375 10.125 12.75 C9.40570312 13.17796875 8.68640625 13.6059375 7.9453125 14.046875 C6 15 6 15 4 15 C4.33 15.66 4.66 16.32 5 17 C5.7425 16.484375 6.485 15.96875 7.25 15.4375 C10 14 10 14 12.3125 14.3125 C12.869375 14.539375 13.42625 14.76625 14 15 C13.75 16.859375 13.75 16.859375 13 19 C11.1875 20.203125 11.1875 20.203125 9 21.25 C5.85694456 23.00774917 5.85694456 23.00774917 4.25 26.09765625 C3.93106678 28.5517205 3.93106678 28.5517205 4 32 C2.68 32 1.36 32 0 32 C-1.4783226 29.04335481 -1.06032783 26.25770263 -1 23 C-1.7425 22.731875 -2.485 22.46375 -3.25 22.1875 C-5.86636554 21.05770579 -7.80187111 19.79106798 -10 18 C-9.67 16.68 -9.34 15.36 -9 14 C-6.03824877 14.61277612 -4.61941217 15.25372522 -2 17 C-1.90912109 15.41058594 -1.90912109 15.41058594 -1.81640625 13.7890625 C-1.73199873 12.40102779 -1.64735083 11.01300768 -1.5625 9.625 C-1.52318359 8.92632812 -1.48386719 8.22765625 -1.44335938 7.5078125 C-1.11328125 2.2265625 -1.11328125 2.2265625 0 0 Z " fill="#000000" transform="translate(14,0)"/>
</svg>
