<svg xmlns="http://www.w3.org/2000/svg" width="24" height="24" viewBox="0 0 24 24"><path d="M11.498 0.230 C 11.386 0.270,11.240 0.338,11.173 0.381 C 11.105 0.425,8.648 2.854,5.711 5.780 C -0.088 11.559,0.213 11.236,0.116 11.789 C 0.067 12.067,0.103 12.309,0.246 12.653 C 0.322 12.835,0.976 13.504,5.675 18.209 C 9.978 22.517,11.060 23.581,11.238 23.675 C 11.690 23.915,12.172 23.923,12.620 23.700 C 12.777 23.621,13.979 22.445,18.187 18.250 C 24.290 12.166,23.780 12.735,23.780 12.016 C 23.780 11.302,24.253 11.831,18.180 5.753 C 13.238 0.807,12.842 0.420,12.602 0.307 C 12.270 0.150,11.811 0.118,11.498 0.230 M12.720 4.742 C 13.457 4.967,14.037 5.449,14.353 6.097 C 14.568 6.538,14.620 6.773,14.618 7.300 C 14.617 7.731,14.604 7.815,14.495 8.125 C 14.212 8.925,13.634 9.505,12.833 9.790 C 12.573 9.883,12.479 9.895,12.000 9.896 C 11.515 9.897,11.430 9.887,11.167 9.792 C 10.359 9.500,9.752 8.890,9.494 8.109 C 9.399 7.823,9.385 7.715,9.384 7.280 C 9.384 6.835,9.396 6.745,9.495 6.460 C 9.814 5.544,10.517 4.911,11.456 4.697 C 11.765 4.626,12.419 4.650,12.720 4.742 M7.943 9.523 C 8.400 9.663,8.671 9.830,9.041 10.199 C 9.581 10.739,9.815 11.297,9.814 12.040 C 9.814 12.489,9.757 12.759,9.581 13.140 C 9.313 13.721,8.899 14.148,8.339 14.420 C 7.915 14.626,7.582 14.691,7.060 14.670 C 6.325 14.639,5.783 14.388,5.266 13.841 C 4.980 13.538,4.724 13.069,4.620 12.662 C 4.479 12.104,4.578 11.342,4.862 10.801 C 5.221 10.118,5.995 9.560,6.751 9.441 C 7.084 9.388,7.624 9.425,7.943 9.523 M17.559 9.545 C 18.003 9.694,18.264 9.858,18.607 10.203 C 18.855 10.452,18.948 10.583,19.094 10.886 C 19.308 11.332,19.360 11.561,19.360 12.056 C 19.360 13.207,18.663 14.177,17.560 14.561 C 17.204 14.685,16.531 14.714,16.141 14.622 C 15.194 14.400,14.429 13.650,14.180 12.700 C 14.099 12.389,14.097 11.772,14.175 11.434 C 14.413 10.411,15.286 9.604,16.335 9.437 C 16.671 9.384,17.224 9.433,17.559 9.545 M12.671 14.176 C 14.403 14.643,15.187 16.697,14.197 18.177 C 13.688 18.938,12.898 19.360,11.982 19.360 C 11.535 19.360,11.243 19.289,10.800 19.074 C 10.131 18.749,9.573 18.031,9.420 17.300 C 9.101 15.774,10.094 14.357,11.660 14.106 C 11.856 14.075,12.444 14.116,12.671 14.176 " stroke="none" fill-rule="evenodd" fill="#000"></path></svg>