<svg xmlns="http://www.w3.org/2000/svg" width="24" height="24" viewBox="0 0 24 24"><path d="M.429 17.256c.37 0 .75-.006 1.118.006l.003 2.497c0 .34-.021 1.139.045 1.43.065.285.207.547.412.755.207.21.47.353.759.413.308.067 1.123.042 1.485.041l2.536.001.003 1.146c-1.129.02-2.283-.012-3.413.006-.833.019-1.555-.234-2.152-.821-.935-.92-.801-1.932-.801-3.127zm22.043-.005 1.123.003.003 2.374c0 .577.04 1.355-.093 1.902-.094.387-.412.922-.702 1.197-.91.863-1.701.82-2.831.821l-1.597.003-1.123.005-.002-1.158h2.565c.358 0 1.135.024 1.448-.045.28-.06.538-.198.741-.4.598-.596.467-1.422.467-2.196zM17.257.441c.327-.015.778 0 1.113 0l1.95-.002c1.02 0 1.724.062 2.497.826.906.896.786 1.917.786 3.073l-.004 2.357-1.121-.004V3.768c-.001-.637.034-1.233-.456-1.714a1.7 1.7 0 0 0-.82-.437c-.285-.06-1.113-.036-1.437-.035q-1.251-.004-2.503.008a61 61 0 0 1-.005-1.15M6.326.436l.463-.002v1.15L4.41 1.58l-.505-.002c-.737.003-1.328-.092-1.899.475-.204.203-.348.46-.414.74-.076.33-.043 1.113-.04 1.487l.004 2.41H.867l-.438.006a100 100 0 0 1-.002-2.12c.012-1.3-.185-2.313.812-3.328a2.74 2.74 0 0 1 1.26-.725C2.934.415 3.717.438 4.187.438q1.07.007 2.14-.002m5.23 2.541a9.008 9.008 0 1 1 .938 17.992 9.008 9.008 0 0 1-.938-17.992m.753 16.98A7.983 7.983 0 1 0 11.76 4a7.983 7.983 0 0 0 .55 15.957"/><path d="M9.47 13.829c.23.095.828.452 1.068.59l1.924 1.118c1.192.705 2.43 1.37 3.624 2.084-.257.209-.502.36-.788.52-.708.384-1.48.64-2.278.754-.81.111-1.693.158-2.382-.38-.888-.694-.819-1.479-.928-2.518a113 113 0 0 0-.24-2.168m2.085-8.793c.717-.072 1.401-.006 1.973.474.843.707.725 1.723.858 2.728.075.574.156 1.287.195 1.881l-2.246-1.3-4.369-2.501a5 5 0 0 1 .725-.466c.923-.514 1.822-.732 2.864-.816m7.355 6.17c.011.01.028.03.03.043.18 1.388-.128 2.798-.78 4.026-.374.703-.767 1.221-1.552 1.453-.707.208-1.181-.111-1.773-.448q-.45-.258-.904-.508c-.382-.213-.817-.445-1.188-.669l3.487-2.208c.868-.556 1.794-1.163 2.68-1.689M7.758 7.143c.656-.046 1.21.355 1.765.665q.892.495 1.775 1.008-1.98 1.29-3.98 2.543-.621.402-1.248.797c-.29.184-.641.42-.944.566a6.9 6.9 0 0 1 .725-3.957c.44-.852.893-1.495 1.907-1.622m.875 4.049c.055.074.716 6.541.798 7.256-.714-.306-1.273-.612-1.873-1.111-.536-.463-.904-.859-1.29-1.46-.529-.83-.916-1.664-.428-2.615.34-.666.937-.876 1.528-1.267.42-.276.847-.532 1.265-.803m6-5.693c1.302.467 2.498 1.518 3.232 2.677.393.621.734 1.256.559 2.017-.16.698-.555 1.004-1.122 1.36-.623.371-1.226.782-1.866 1.157l-.518-4.67c-.098-.847-.212-1.69-.285-2.541"/></svg>