<svg xmlns="http://www.w3.org/2000/svg" width="24" height="24" viewBox="0 0 24 24"><path fill-rule="evenodd" d="M3.355.115a1.9 1.9 0 0 0-.578.586c-.231.394-.219-.166-.207 9.622l.01 8.977.094.234c.186.459.6.845 1.052.977l.234.069v1.472c0 1.602.002 1.619.228 1.772.109.074.322.076 7.712.086 7.177.01 7.608.006 7.739-.06a.7.7 0 0 0 .23-.206c.09-.135.091-.144.091-1.605v-1.47l.187-.047c.484-.121.942-.56 1.125-1.076.061-.17.067-.927.078-9.026.007-5.311-.003-8.947-.026-9.109a1.62 1.62 0 0 0-.752-1.178L20.364 0H3.536zm16.811.707c.095.067.214.193.263.28l.09.158v8.947c.001 5.592-.013 8.985-.037 9.048a1.1 1.1 0 0 1-.185.263c-.275.305.374.284-8.439.272l-7.878-.01-.189-.111a.86.86 0 0 1-.3-.3l-.111-.189-.01-8.874c-.007-6.109.002-8.924.031-9.031.054-.2.254-.428.459-.521.153-.07.489-.072 8.147-.063L19.993.7zm-14.8.741a1.12 1.12 0 0 0-.814.71c-.042.118-.052 1.18-.052 5.35v5.203l.121.236c.14.274.418.508.683.575.119.03 2.153.043 6.646.043 7.291 0 6.74.024 7.091-.304.107-.101.228-.265.275-.376l.085-.198-.01-5.251L19.38 2.3l-.087-.163a1.46 1.46 0 0 0-.567-.531c-.134-.06-.696-.067-6.666-.072-3.586-.003-6.598.01-6.694.029m13.158.871c.067.084.076.163.076.677v.583l-.12-.182c-.267-.403-.74-.731-1.192-.827-.281-.06-10.137-.064-10.453-.004-.604.113-1.223.667-1.408 1.259-.035.11-.07.245-.079.3-.01.055-.02-.316-.023-.824-.004-.834.002-.93.065-.985a.6.6 0 0 1 .13-.083c.033-.012 2.955-.019 6.494-.015l6.433.007zm-1.357 1.047c.236.066.52.282.652.496l.121.197.011 3.503c.013 3.931.03 3.691-.284 4.013a1.5 1.5 0 0 1-.327.251c-.156.077-.271.079-5.218.089-5.638.012-5.288.029-5.611-.262a1.6 1.6 0 0 1-.264-.345l-.107-.203V4.26l.108-.206c.128-.242.378-.468.607-.549.141-.05.89-.059 5.165-.062 3.289-.002 5.05.011 5.147.038M5.456 11.63c.124.348.557.833.896 1.006.413.21.233.204 5.706.204 5.448-.001 5.257.006 5.683-.201.229-.11.576-.425.736-.667l.123-.186v.449c0 .423-.006.454-.098.547l-.098.098h-6.425c-6.49 0-6.538-.001-6.628-.136-.017-.024-.028-.395-.026-.824q.004-.778.037-.62c.018.088.06.237.094.33m11.159 3.513c-.243.12-.288.418-.092.614l.123.123h2.508l.123-.123c.198-.198.15-.497-.099-.615-.192-.091-2.377-.09-2.563.001m-3.804.925c-.119.023-.291.235-.291.358a.45.45 0 0 0 .175.343c.079.064.32.069 3.412.07l3.327.001.123-.123c.165-.165.167-.347.006-.526l-.116-.131-3.274-.005c-1.8-.003-3.313.003-3.362.013m3.706 1.089c-.206.206-.135.509.147.627.193.081 2.279.081 2.472 0 .282-.118.353-.421.147-.627l-.117-.117h-2.532zm2.643 4.703v1.26H4.76V20.6h14.4zm-3.592-.935a.4.4 0 0 0-.211.167c-.073.117-.079.187-.068.801l.011.674.131.116.13.117h1.482c1.013 0 1.51-.014 1.57-.045.212-.108.225-.163.226-.92.001-.699 0-.705-.1-.805a.5.5 0 0 0-.225-.125c-.198-.04-2.8-.022-2.946.02m2.472.915V22h-1.96v-.32h1.96z"/></svg>