<svg viewBox="0 0 24 24"><path d="M12.019 1.462a10.54 10.54 0 0 0-10.54 10.54c.002.854.11 1.705.318 2.532l6.252-1.54A4 4 0 0 1 7.924 12a4.1 4.1 0 0 1 4.093-4.095c.49 0 .957.091 1.393.25l3.657-5.405a10.55 10.55 0 0 0-5.048-1.29m9.249 5.509-5.48 3.433c.027.06.047.122.069.185l5.967-2.446a11 11 0 0 0-.556-1.172"/><path d="M12.017 10.61a1.393 1.393 0 1 1 .002 2.787 1.393 1.393 0 0 1-.002-2.787m0-2.044a3.43 3.43 0 0 0-3.435 3.435 3.43 3.43 0 0 0 3.435 3.439A3.434 3.434 0 0 0 15.455 12a3.43 3.43 0 0 0-3.438-3.435"/><path d="m22.241 9.48-6.251 1.54q.122.473.124.981a4.1 4.1 0 0 1-4.096 4.097 4 4 0 0 1-1.364-.238l-3.659 5.41a10.542 10.542 0 0 0 15.564-9.266 10.5 10.5 0 0 0-.318-2.522M8.186 13.431l-5.967 2.446q.243.604.56 1.176l5.478-3.435q-.038-.09-.071-.187"/><path d="M12.019.866a11.13 11.13 0 0 1 11.134 11.135c0 6.154-4.98 11.138-11.134 11.138S.884 18.155.884 12A11.13 11.13 0 0 1 12.019.866m0-.656C5.509.21.224 5.492.224 12S5.51 23.796 12.02 23.796s11.794-5.285 11.794-11.795S18.53.21 12.02.21"/></svg>