<svg xmlns="http://www.w3.org/2000/svg" id="Layer_1" data-name="Layer 1" version="1.1" viewBox="0 0 24 24"><defs><style>.cls-1{fill:#000;stroke-width:0}</style></defs><path d="m11.41 11.68-.1-.1a.27.27 0 0 0-.37.03c-.07.07-.05.2.03.31.3.39.91.52 1.33.26.12-.08.2-.08.32 0 .47.31 1.04.05 1.33-.26.09-.1.1-.21 0-.31s-.21-.12-.33-.03c-.06.04-.1.1-.16.13-.2.13-.4.19-.62.05-.24-.16-.12-.41-.14-.63-.02-.23.2-.18.32-.24.25-.1.34-.28.25-.54a.82.82 0 0 0-.7-.55c-.38-.03-.68.1-.86.44-.17.33-.09.6.28.69.23.06.27.17.23.36.02.2.02.4-.2.5h.01c-.23.1-.43.03-.62-.11Z" class="cls-1"/><path d="M7.24 10.04c.46.16.93.18 1.4.22a4.9 4.9 0 0 0 2.57-.59 2.76 2.76 0 0 1 2.44.01c.32.14.63.32.96.42 1.02.23 2.08.21 3.09-.05.06-.02.13-.02.2-.02a4.39 4.39 0 0 0-.4-1.54 5.63 5.63 0 0 0-2.78-2.53c-.3-.13-.3-.15-.11-.43a7.49 7.49 0 0 1 2.2-2.17c-.45.01-.8.25-1.15.47-.66.4-1.29.87-1.79 1.47-.15.2-.4.3-.55.28s-.17-.04-.52-.05-.34-.02-.34-.52V.43l.01-.31-.23-.02C10.46.1 8.68.1 6.9.13c-.8 0-1.6.02-2.38.19a4.8 4.8 0 0 0-3.68 3.4c-.25.8-.31 1.63-.31 2.45C.52 8.94.5 11.7.52 14.46c0 1.61-.09 3.21.1 4.81a5 5 0 0 0 2.06 3.6 5.91 5.91 0 0 0 3.34 1.02c.1 0 .2-.03.27-.1.24-.2.49-.4.66-.68a4.07 4.07 0 0 1-.2-1.34c-.04-1.56.01-3.12.46-4.64.22-.83.54-1.63.97-2.38.02-.03.04-.07.09-.07.06.07.01.13-.02.18-.54 1.34-.8 2.73-.9 4.17-.05.73.03 1.45.08 2.18 0 .07 0 .15.07.17.09.02.1-.07.13-.13a6.5 6.5 0 0 1 1.54-2.12c.1-.1.07-.2.07-.3-.03-.56-.06-1.13-.05-1.7 0-.16.03-.31.08-.51.23.26.3.56.4.84.1.27.2.54.28.81.06.19.14.24.32.14a3.84 3.84 0 0 1 1.68-.52c.14-.01.18-.1.2-.21.04-.17.06-.35.11-.53.02-.07.03-.16.13-.17.1 0 .13.09.15.16.07.18.12.36.17.55.03.12.07.2.22.22.61.07 1.21.16 1.81.33.16.05.21-.05.26-.19.13-.39.22-.79.42-1.16.02-.05.04-.14.12-.14.1.02.09.11.1.19.03.42.07.84 0 1.26-.02.14-.03.29.16.32.48.08.97.12 1.44-.08.26-.11.39-.22.34-.58-.16-1.22-.5-2.4-1.06-3.5a6.54 6.54 0 0 0-1.13-1.62c-.06-.06-.09-.13-.14-.18-.46.2-.89.42-1.36.6-.9.36-1.9.37-2.81.03a9.44 9.44 0 0 1-3.51-2.15 2.22 2.22 0 0 1-.53-.75c-.04-.09-.11-.19-.04-.27.04-.03.17 0 .24.02Zm6.94-1.63c.21-.01.35.14.35.34.01.2-.13.35-.34.35-.2.01-.33-.12-.35-.33.01-.22.13-.36.34-.36Zm-3.45.7c-.2-.02-.33-.14-.35-.34.01-.22.13-.35.33-.36.21-.02.34.12.37.32.03.18-.17.39-.35.38ZM7.44 3.73l.14-.4c.04-.12.12-.13.22-.12l.37.07c.45.08.83.32 1.2.56.7.46 1.32 1 1.9 1.6l.1.13s-.4.05-.97.26a5.85 5.85 0 0 0-3.05 2.66c-.12-.46-.14-.88-.17-1.3-.08-1.16-.04-2.32.26-3.46Zm7.46 9.25c-.02.29-.11.46-.18.63a5.9 5.9 0 0 1-1.59 2.27c-.44.36-.81.39-1.28.06a3.92 3.92 0 0 1-.91-.95 6.66 6.66 0 0 1-.97-2c1.65 1.26 3.28 1.29 4.93-.01Z" class="cls-1"/><path d="M19.33 17.78c-.39-.13-.62 0-.69.39a1.92 1.92 0 0 1-1.88 1.56 5 5 0 0 1-2.28-.51 4.65 4.65 0 0 0-4.98.49c.3.16.6.32.9.46.13.06.15.12.08.25-.16.29-.28.61-.46.88-.15.23-.03.32.13.38.39.15.74.36 1.09.57l-.5.98c-.02.06-.12.14-.01.2.34.16.63.46 1.03.46h6.84c.36 0 .71-.01 1.06-.12.45-.21.87-.46 1.2-.85a3.1 3.1 0 0 0 .64-2.1 3.11 3.11 0 0 0-2.17-3.04Z" class="cls-1"/></svg>