<svg version="1.1" id="svg1" width="24" height="24" viewBox="0 0 24 24" xmlns="http://www.w3.org/2000/svg">
   <defs id="defs1" />
   <g id="g1">
      <path style="fill:#000000;stroke-width:0.0478537"
         d="m 9.7755554,23.957401 c -1.03601,-0.42545 -1.79295,-2.00324 -1.90433,-3.96947 -0.0125,-0.22024 0.0236,-2.18733 0.0803,-4.37131 0.0566,-2.18399 0.11903,-4.69166 0.13871,-5.57259 0.0197,-0.8809404 0.0418,-1.8494704 0.0491,-2.1522904 0.007,-0.30282 0.0103,-0.55059 0.007,-0.55059 -0.004,0 -0.39099,0.15016 -0.86067,0.33369 -0.46967,0.18353 -0.85923,0.33369 -0.86569,0.33369 -0.006,0 -0.003,0.26278 0.007,0.58395 0.0105,0.32118 0.0421,1.4849204 0.0702,2.5860904 0.0282,1.10117 0.0833,3.1133 0.1225,4.47141 0.0392,1.35811 0.0615,2.6645 0.0494,2.90309 -0.0856,1.69471 -0.64252,3.12725 -1.4597,3.75504 -1.24703,0.95802 -2.67154,-0.35164 -3.06806,-2.82071 -0.12266,-0.76373 -0.13069,-1.09778 -0.0731,-3.0407 0.0913,-3.08154 0.22459,-8.1071904 0.22454,-8.4642704 l -3e-5,-0.34096 h -0.6605 -0.66048 l -0.22304,-0.20745 c -0.56881,-0.52907 -0.8613,-1.71769 -0.70837,-2.87871 0.0662,-0.5028 0.16781,-0.82763 0.37448,-1.19755 0.18849,-0.33736 0.17276,-0.32168 1.87239,-1.86714 1.39973,-1.27275997 1.70142,-1.490599971203 2.06439,-1.490599971203 0.23828,0 0.65547,0.200530001203 0.88231,0.424100001203 0.43146,0.42524 0.80397,1.27009997 0.94258,2.13781997 0.0417,0.26105 0.0861,0.49903 0.0987,0.52884 0.0126,0.0298 0.72367,-0.58201 1.58024,-1.35961 0.85657,-0.77758997 1.64233,-1.47144997 1.74613,-1.54189997 0.9992196,-0.67824 2.2004496,0.59816 2.4440896,2.59703997 0.0235,0.19271 0.0537,0.35038 0.0671,0.35038 0.0134,0 0.72392,-0.63467 1.57887,-1.41037 0.85495,-0.77569997 1.63938,-1.46768997 1.74318,-1.53774997 0.41777,-0.28202 0.96721,-0.21264 1.39824,0.17654 0.50824,0.45889 0.91761,1.42401997 1.05406,2.48504997 0.0511,0.39746 0.0682,0.92638 0.27539,8.5286204 0.066,2.42257 0.13745,4.99301 0.15871,5.71207 0.0343,1.15802 0.032,1.37085 -0.0192,1.86272 -0.14953,1.43527 -0.60881,2.59626 -1.27165,3.21452 -1.38606,1.29284 -2.99996,-0.28831 -3.29717,-3.23027 -0.0547,-0.54166 -0.0529,-0.69773 0.0506,-4.32743 0.13416,-4.7063304 0.19382,-7.1892404 0.1737,-7.2283904 -0.0179,-0.0348 -1.68065,0.60656 -1.70739,0.65857 -0.0198,0.0384 0.0157,1.60994 0.16883,7.4759404 0.0575,2.20234 0.0951,4.19358 0.0836,4.42497 -0.0501,1.00766 -0.29517,2.00379 -0.67453,2.74162 -0.4297,0.83576 -0.94378,1.26899 -1.55729,1.31239 -0.18873,0.0133 -0.4114596,-0.004 -0.4949696,-0.0381 z m 11.3918896,-7.5101 c -1.04444,-0.44054 -1.82107,-2.33171 -1.82107,-4.43451 0,-2.1157904 0.72553,-3.8908004 1.80144,-4.4072204 1.10364,-0.52973 2.28313,0.67096 2.69042,2.7387804 0.44256,2.24683 -0.0505,4.71478 -1.14632,5.73802 -0.48076,0.4489 -1.01958,0.57789 -1.52447,0.36493 z"
         id="path1" />
   </g>
</svg>