<svg xmlns="http://www.w3.org/2000/svg" width="24" height="24" style="display:inline"><g transform="matrix(.52984 0 0 .52994 0 -400.104)"><path d="M1.089 725.002c-.61.036-1.09.62-1.09 1.34v42.327c0 .742.512 1.34 1.15 1.34H2.54v-45.007H1.088M5.028 725.001v45.008h1.488c.637 0 1.15-.598 1.15-1.34v-42.328c0-.742-.513-1.34-1.15-1.34z" style="display:inline;fill:#000;fill-opacity:1;stroke:none" transform="translate(0 30)"/><rect width="2.487" height="45.008" x="2.54" y="725.001" rx="0" ry="0" style="display:inline;fill:#000;fill-opacity:1;stroke:none;stroke-opacity:1" transform="translate(0 30)"/><path d="M377.522 273.252A122.23 122.23 0 0 0 263.63 395.235a122.243 122.243 0 1 0 244.485 0 122.23 122.23 0 0 0-130.593-121.983m8.14 57.194c14.753 0 26.51 3.714 35.227 11.09 8.718 7.374 13.123 15.945 13.123 25.74 0 5.422-1.642 10.552-4.842 15.39-3.2 4.84-10.005 11.423-20.491 19.76-5.426 4.314-8.794 7.794-10.105 10.417s-1.947 7.35-1.825 14.114h-23.297c-.061-3.207-.07-5.215-.07-5.914 0-7.23 1.22-13.147 3.719-17.81 2.5-4.665 7.519-9.897 15.017-15.727s11.94-9.686 13.403-11.493c2.256-2.857 3.368-5.97 3.369-9.41 0-4.78-1.972-8.888-5.965-12.298s-9.373-5.108-16.14-5.108c-6.523 0-11.961 1.753-16.35 5.31q-6.584 5.333-9.053 16.264l-23.579-2.756c.671-10.436 5.269-19.326 13.895-26.614s19.943-10.955 33.964-10.955m-12.21 104.98h25.683v24.597h-25.683z" style="display:inline;fill:#000;fill-opacity:1;stroke:none" transform="matrix(.05253 0 0 .05484 -1.788 756.05)"/><path d="M21.591 764.209q-.456 0-.905.03c5.911.452 10.587 6.215 10.587 13.26 0 7.044-4.676 12.808-10.587 13.26q.449.03.905.03c7.586 0 13.736-5.951 13.736-13.29 0-7.34-6.15-13.29-13.736-13.29z" style="display:inline;fill:#000;stroke:none;fill-opacity:1"/><path d="M18.769 755.001c11.75.156 21.229 10.169 21.229 22.498s-9.479 22.343-21.23 22.499c14.522-.127 26.247-10.15 26.247-22.499 0-12.347-11.725-22.371-26.246-22.498" style="fill:#000;stroke:none;fill-opacity:1"/></g></svg>