<svg xmlns="http://www.w3.org/2000/svg" baseProfile="tiny" style="zoom:4" version="1.2" viewBox="0 0 256 256">
  <path d="M152 116h-2l-1-1-1-1V79H67l-1-1-1-1-1-1V30l1-1v-1l1-1h130l1 1 1 1v48l-1 1-1 1-1 1h-1l-1 1-1 1-1 1-1 1-1 1h-1l-1 1-1 1-1 1-1 1-1 1h-1l-1 1-1 1-1 1-1 1-1 1-1 1h-1l-1 1-1 1-1 1-1 1-1 1h-1l-1 1-1 1-1 1-1 1-1 1h-1l-1 1-1 1-1 1-1 1-1 1h-1l-1 1-1 1-1 1-1 1-1 1ZM54 79H15l-1-1h-1l-1-1v-2l1-1 1-1 1-1 1-1 1-1 1-1 1-1 1-1 1-1 1-1 1-1 1-1 1-1 1-1 1-1 1-1 1-1 1-1 1-1 1-1 1-1 1-1 1-1 1-1 1-1 1-1 1-1 1-1 1-1 1-1 1-1 1-1 1-1 1-1 1-1 1-1 1-1 1-1 1-1 1-1 1-1 1-1 1 1 1 1 1 1v40l-1 1-1 1-1 1ZM247 206h-4l-1-1-1-1-1-1h-1l-1-1-1-1-1-1-1-1h-1l-1-1-1-1-1-1-1-1-1-1h-1l-1-1-1-1-1-1-1-1-1-1h-1l-1-1-1-1-1-1-1-1-1-1h-1l-1-1-1-1-1-1-1-1h-1l-1-1-1-1-1-1-1-1-1-1V81l1-1 1-1h1l1-1 1-1 1-1 1-1 1-1h1l1-1 1-1 1-1 1-1h1l1-1 1-1 1-1 1-1 1-1h1l1-1 1-1 1-1 1-1 1-1h1l1-1 1-1 1-1 1-1 1-1h1l1-1 1-1 1-1 1-1h1l1-1h2l1 1 1 1 1 1 1 1v148l-1 1v1l-1 1-1 1ZM54 169H8l-1-1-1-1-1-1V89l1-1 1-1 1-1h46l1 1 1 1 1 1v77l-1 1-1 1-1 1ZM196 165h-2l-1-1-1-1h-1l-1-1-1-1-1-1-1-1-1-1-1-1-1-1h-1l-1-1-1-1-1-1-1-1-1-1-1-1h-1l-1-1-1-1-1-1-1-1-1-1-1-1h-1l-1-1-1-1-1-1-1-1-1-1-1-1h-1l-1-1-1-1-1-1-1-1-1-1-1-1h-1l-1-1-1-1-1-1v-3l1-1h1l1-1 1-1 1-1 1-1 1-1 1-1h1l1-1 1-1 1-1 1-1 1-1h1l1-1 1-1 1-1 1-1 1-1h1l1-1 1-1 1-1 1-1 1-1h1l1-1 1-1 1-1 1-1 1-1h1l1-1 1-1 1-1 1-1 1-1h1l1-1 1-1 1-1h2l1 1 1 1v70l-1 1-1 1ZM196 228H66l-1-1v-1l-1-1v-46l1-1 1-1 1-1h81v-35l1-1 1-1h1l1 1 1 1h1l1 1 1 1 1 1 1 1 1 1 1 1h1l1 1 1 1 1 1 1 1 1 1 1 1 1 1h1l1 1 1 1 1 1 1 1 1 1 1 1h1l1 1 1 1 1 1 1 1 1 1 1 1h1l1 1 1 1 1 1 1 1 1 1 1 1h1l1 1 1 1 1 1 1 1 1 1 1 1 1 1 1 1v46l-1 1-1 1ZM55 228H7l-1-1v-1l-1-1v-46l1-1 1-1 1-1h46l1 1 1 1 1 1v46l-1 1v1l-1 1Z"/>
  <path stroke="#000" stroke-width="52" d="M31 161v20.25"/>
  <path stroke="#000" stroke-width="10" d="M190.75 101 216 79"/>
  <path stroke="#000" stroke-width="52" d="M67 176v52"/>
  <path stroke="#000" stroke-width="10" d="m196.25 160 13 12M202.5 93.75l.25 69.25"/>
</svg>
