<svg xmlns="http://www.w3.org/2000/svg" width="24" height="24" viewBox="0 0 6.922 6.922"><path fill-rule="evenodd" d="M3.2.116a3.4 3.4 0 0 0-1.583.547c-.195.13-.341.25-.527.437a3.32 3.32 0 0 0-.96 1.933c-.025.171-.028.68-.005.839.043.295.098.519.188.766a3.37 3.37 0 0 0 2.806 2.187c.173.02.575.017.753-.006A3.36 3.36 0 0 0 5.93 5.775c.505-.535.809-1.2.895-1.96.02-.164.016-.55-.005-.725A3.366 3.366 0 0 0 3.895.132 4.5 4.5 0 0 0 3.2.116m-.325 2.601.6.608.6-.608.6-.608h.767v2.742h-.794V3.26l-.49.49-.49.49h-.385l-.49-.49-.49-.49v1.592h-.816V2.109h.787z" style="stroke-width:.2833"/></svg>