<svg xmlns="http://www.w3.org/2000/svg" version="1.0" viewBox="0 0 256 256"><path d="M55.7 28.1c-15 5.1-25.6 16.7-29.2 32-1.2 5.3-1.5 16.6-1.5 68.1 0 41.6.4 63.4 1.1 67 2.5 12 11.6 24.6 21.6 30.1C58.2 231 58.8 231 128 231s69.8 0 80.3-5.7c10-5.5 19.1-18.1 21.6-30.1.7-3.6 1.1-25.4 1.1-67 0-51.5-.3-62.8-1.5-68.1-3.7-15.5-14.9-27.6-29.8-32.3-5.4-1.7-10.8-1.8-72-1.8-63.6.1-66.4.1-72 2.1zM148.9 51c7.6 2.1 18.9 7.3 24.5 11.3 11.4 7.9 23.9 23.5 28.9 36 8.2 20.5 7.3 45.7-2.4 65-14.2 28.2-40.7 44.7-71.9 44.7-31.9 0-58.8-17.1-72.4-46.1-4.9-10.2-6.7-17.6-7.3-29.9-1.3-23.5 7.2-44.7 24.3-61.1 12.8-12.3 26.5-19.1 43.9-22 7.8-1.2 24.1-.2 32.4 2.1z"/><path d="M137.8 93.5c-11.1 10.8-15.8 16.1-15.8 17.6 0 3.2 29.5 32.9 32.7 32.9 2.7 0 10.3-7 10.3-9.5 0-1-4.3-6.1-9.5-11.4-5.5-5.6-9.5-10.5-9.5-11.7 0-1.1 3.9-5.9 9.5-11.4 5.6-5.6 9.5-10.3 9.5-11.4 0-2.4-7.8-10.6-10-10.6-.8.1-8.6 7-17.2 15.5zM95.2 116.3c-2.3 2.3-4.2 5.2-4.2 6.3 0 1.1 3.9 5.8 9.5 11.4 5.6 5.5 9.5 10.3 9.5 11.4 0 1.2-4 6.1-9.5 11.7-5.2 5.3-9.5 10.4-9.5 11.4 0 2.4 7.8 9.5 10.4 9.5 3.1 0 32.6-29.8 32.6-32.9 0-1.7-4.4-6.6-15.6-17.5-8.6-8.3-16.4-15.2-17.3-15.4-.9-.1-3.5 1.7-5.9 4.1z"/></svg>