<svg xmlns="http://www.w3.org/2000/svg" version="1.0" viewBox="0 0 256 256"><path d="M40.212328 4.734393C21.649467 11.045766 8.531711 25.401046 4.076625 44.335164c-1.48503 6.558878-1.856287 20.5429-1.856287 84.275392 0 51.481002.49501 78.459028 1.361277 82.914114 3.09381 14.85029 14.35528 30.443093 26.73052 37.249476 12.994004 7.053887 13.736518 7.053887 99.373186 7.053887s86.379182 0 99.373185-7.053887c12.375241-6.806383 23.63671-22.399186 26.73052-37.249476.866267-4.455086 1.361277-31.433112 1.361277-82.914114 0-63.732492-.371257-77.716514-1.856286-84.275392-4.57884-19.181623-18.43911-34.155665-36.878218-39.972028-6.68263-2.103791-13.36526-2.227543-89.101735-2.227543-78.706533.123752-82.1716.123752-89.101736 2.5988zm115.337246 28.339302c9.405184 2.5988 23.389206 9.033926 30.31934 13.984022 14.107776 9.77644 29.576827 29.081817 35.764447 44.550868 10.147698 25.369244 9.033926 56.554851-2.970057 80.439067-17.572843 34.89818-50.367231 55.317327-88.977983 55.317327-39.477019 0-72.766417-21.161662-89.596745-57.049861-6.063868-12.622746-8.291412-21.780424-9.033926-37.00197-1.608781-29.081817 8.910174-55.317328 30.071836-75.612723 15.840308-15.221547 32.794388-23.63671 54.327308-27.22553 9.652688-1.48503 29.82433-.247505 40.09578 2.5988z"/><path d="M141.813057 85.66847c-13.736518 13.36526-19.55288 19.924137-19.55288 21.780424 0 3.960077 36.50696 40.714542 40.467037 40.714542 3.341315 0 12.746498-8.662668 12.746498-11.756479 0-1.237524-5.321353-7.548897-11.756478-14.107774-6.806383-6.930135-11.75648-12.994003-11.75648-14.479032 0-1.361277 4.826345-7.301392 11.75648-14.107775 6.930135-6.930135 11.756478-12.746498 11.756478-14.107775 0-2.970058-9.652687-13.117755-12.37524-13.117755-.99002.123752-10.642708 8.662668-21.285415 19.181623zM89.09453 113.884018c-2.846305 2.846305-5.1976 6.435125-5.1976 7.796402 0 1.361276 4.826343 7.17764 11.756478 14.107774 6.930135 6.806383 11.756479 12.746499 11.756479 14.107775 0 1.48503-4.950096 7.548897-11.756479 14.479032-6.435125 6.558878-11.756479 12.87025-11.756479 14.107775 0 2.970058 9.652688 11.756479 12.87025 11.756479 3.836325 0 40.343286-36.878218 40.343286-40.714543 0-2.103791-5.445106-8.16766-19.305376-21.656672-10.642707-10.27145-20.295395-18.810366-21.409166-19.057871-1.113772-.123752-4.331335 2.103791-7.301393 5.073849z"/></svg>