<svg version="1.1" xmlns="http://www.w3.org/2000/svg" xmlns:xlink="http://www.w3.org/1999/xlink" x="0" y="0" width="24" height="24" viewBox="0, 0, 24, 24">
  <g id="Layer_1">
    <path d="M13.116,0 C15.12,0 16.744,1.746 16.744,3.9 C16.744,6.054 15.12,7.8 13.116,7.8 C12.347,7.717 12.608,7.822 12.279,7.673 L12.279,9 L22.939,9 C23.525,9 24,9.51 24,10.14 L24,16.21 C24,18.524 22.255,20.4 20.103,20.4 L20.084,20.4 C18.954,20.278 19.538,20.423 18.352,19.887 C17.613,22.446 15.304,23.667 12.839,24 C8.933,23.506 8.086,21.964 6.855,18.6 L1.023,18.6 C0.458,18.6 0,18.108 0,17.5 L-0,6.5 C0,5.892 0.458,5.4 1.023,5.4 L9.841,5.4 C9.466,4.441 9.586,4.94 9.488,3.9 C9.488,1.746 11.113,0 13.116,0 z M8.832,8.425 L3.447,8.425 L3.447,9.587 L5.483,9.587 L5.483,15.575 L6.699,15.575 L6.699,15.5 L6.786,15.5 L6.786,9.587 L8.832,9.587 L8.832,8.425 z" fill="#FFFFFF"/>
    <path d="M20.93,2.4 C22.317,2.4 23.442,3.609 23.442,5.1 C23.442,6.591 22.317,7.8 20.93,7.8 C19.543,7.8 18.419,6.591 18.419,5.1 C18.419,3.609 19.543,2.4 20.93,2.4 L20.93,2.4 z" fill="#FFFFFF"/>
  </g>
</svg>
