<?xml version="1.0" standalone="no"?>
<!DOCTYPE svg PUBLIC "-//W3C//DTD SVG 20010904//EN"
 "http://www.w3.org/TR/2001/REC-SVG-20010904/DTD/svg10.dtd">
<svg version="1.0" xmlns="http://www.w3.org/2000/svg"
 width="256.000000pt" height="256.000000pt" viewBox="0 0 256.000000 256.000000"
 preserveAspectRatio="xMidYMid meet">

<g transform="translate(0.000000,256.000000) scale(0.100000,-0.100000)"
fill="#000000" stroke="none">
<path d="M557 2279 c-150 -51 -256 -167 -292 -320 -12 -53 -15 -166 -15 -681
0 -416 4 -634 11 -670 25 -120 116 -246 216 -301 105 -57 111 -57 803 -57 692
0 698 0 803 57 100 55 191 181 216 301 7 36 11 254 11 670 0 515 -3 628 -15
681 -37 155 -149 276 -298 323 -54 17 -108 18 -720 18 -636 -1 -664 -1 -720
-21z m932 -229 c76 -21 189 -73 245 -113 114 -79 239 -235 289 -360 82 -205
73 -457 -24 -650 -142 -282 -407 -447 -719 -447 -319 0 -588 171 -724 461 -49
102 -67 176 -73 299 -13 235 72 447 243 611 128 123 265 191 439 220 78 12
241 2 324 -21z"/>
<path d="M1378 1625 c-111 -108 -158 -161 -158 -176 0 -32 295 -329 327 -329
27 0 103 70 103 95 0 10 -43 61 -95 114 -55 56 -95 105 -95 117 0 11 39 59 95
114 56 56 95 103 95 114 0 24 -78 106 -100 106 -8 -1 -86 -70 -172 -155z"/>
<path d="M952 1397 c-23 -23 -42 -52 -42 -63 0 -11 39 -58 95 -114 56 -55 95
-103 95 -114 0 -12 -40 -61 -95 -117 -52 -53 -95 -104 -95 -114 0 -24 78 -95
104 -95 31 0 326 298 326 329 0 17 -44 66 -156 175 -86 83 -164 152 -173 154
-9 1 -35 -17 -59 -41z"/>
</g>
</svg>
