<svg xmlns="http://www.w3.org/2000/svg" width="24" height="24"><path d="M8.400 0.273 C 7.893 0.443,7.586 0.681,7.403 1.047 C 7.335 1.182,7.280 1.320,7.280 1.353 C 7.280 1.386,7.334 1.304,7.401 1.171 C 7.578 0.816,7.801 0.584,8.111 0.431 C 8.359 0.309,8.407 0.300,8.779 0.300 C 9.140 0.300,9.201 0.311,9.391 0.411 C 9.659 0.553,9.900 0.770,10.045 1.000 C 10.108 1.099,10.159 1.162,10.159 1.140 C 10.162 0.964,9.746 0.558,9.380 0.377 C 9.023 0.201,8.713 0.168,8.400 0.273 M8.020 0.823 C 7.507 1.089,7.298 1.876,7.686 2.083 C 7.971 2.236,8.508 1.838,8.635 1.380 C 8.755 0.947,8.400 0.625,8.020 0.823 M18.043 1.561 C 17.398 1.917,16.080 3.090,16.080 3.309 C 16.080 3.345,16.153 3.360,16.321 3.360 C 16.454 3.360,16.626 3.387,16.704 3.419 C 16.781 3.451,17.046 3.515,17.292 3.561 C 18.071 3.706,18.672 3.898,19.490 4.265 C 19.890 4.444,20.040 4.478,20.040 4.390 C 20.040 4.258,19.826 3.480,19.699 3.152 C 19.508 2.656,19.194 2.065,18.978 1.793 C 18.682 1.419,18.419 1.354,18.043 1.561 M10.246 1.825 C 10.243 1.872,10.231 1.971,10.219 2.045 C 10.200 2.169,10.201 2.172,10.241 2.081 C 10.264 2.027,10.277 1.928,10.268 1.861 C 10.259 1.790,10.250 1.775,10.246 1.825 M10.136 2.301 C 10.121 2.361,10.019 2.530,9.910 2.675 C 9.742 2.899,9.733 2.919,9.851 2.807 C 9.994 2.670,10.229 2.256,10.187 2.214 C 10.174 2.201,10.151 2.240,10.136 2.301 M7.940 3.023 C 8.057 3.118,8.390 3.267,8.414 3.236 C 8.421 3.227,8.290 3.154,8.123 3.073 C 7.879 2.954,7.843 2.945,7.940 3.023 M9.240 3.160 C 9.207 3.181,9.198 3.199,9.220 3.199 C 9.242 3.199,9.287 3.181,9.320 3.160 C 9.353 3.139,9.362 3.121,9.340 3.121 C 9.318 3.121,9.273 3.139,9.240 3.160 M8.691 3.268 C 8.730 3.278,8.784 3.277,8.811 3.266 C 8.838 3.255,8.806 3.247,8.740 3.248 C 8.674 3.249,8.652 3.258,8.691 3.268 M14.879 3.901 C 14.415 3.973,13.800 4.133,13.330 4.302 C 12.831 4.482,12.002 4.883,11.907 4.991 C 11.824 5.085,11.822 5.084,12.200 5.285 C 12.387 5.385,12.440 5.484,12.358 5.582 C 12.287 5.668,12.167 5.654,11.670 5.504 C 10.908 5.274,10.521 5.221,9.640 5.224 C 8.977 5.227,8.814 5.240,8.552 5.311 C 8.162 5.418,7.820 5.585,7.702 5.725 C 7.507 5.957,7.540 6.441,7.808 7.279 C 8.045 8.019,8.354 8.623,9.025 9.656 C 9.344 10.147,9.425 10.355,9.323 10.418 C 9.257 10.459,9.067 10.359,8.794 10.138 C 8.646 10.018,8.506 9.920,8.485 9.920 C 8.463 9.920,8.434 10.005,8.420 10.110 C 8.406 10.214,8.367 10.443,8.333 10.617 C 8.257 11.009,8.269 12.445,8.348 12.524 C 8.386 12.562,8.443 12.541,8.608 12.432 C 8.725 12.355,8.892 12.247,8.980 12.191 C 9.068 12.136,9.770 11.527,10.540 10.838 C 11.310 10.149,12.415 9.163,12.995 8.647 C 13.576 8.131,14.188 7.583,14.355 7.429 C 14.695 7.117,14.979 6.920,15.089 6.920 C 15.129 6.920,15.490 7.151,15.891 7.434 C 17.328 8.448,17.851 8.800,17.917 8.800 C 17.958 8.800,18.289 8.384,18.782 7.715 C 19.221 7.119,19.633 6.586,19.697 6.532 C 19.859 6.396,19.980 6.428,20.367 6.710 C 21.787 7.747,22.669 8.361,22.810 8.412 C 22.848 8.426,22.880 8.423,22.880 8.404 C 22.880 8.335,22.444 7.516,22.258 7.237 C 21.331 5.843,19.924 4.768,18.340 4.243 C 17.240 3.879,15.880 3.745,14.879 3.901 M19.056 7.970 C 18.215 9.091,18.058 9.280,17.966 9.280 C 17.901 9.280,17.408 8.951,16.140 8.061 C 15.208 7.407,15.082 7.333,14.987 7.386 C 14.951 7.406,14.252 8.019,13.431 8.749 C 9.595 12.164,8.500 13.148,8.424 13.252 C 8.348 13.355,8.346 13.372,8.403 13.472 C 8.454 13.562,8.487 13.578,8.602 13.567 C 8.678 13.560,9.064 13.552,9.460 13.550 C 10.123 13.545,10.197 13.552,10.400 13.636 C 11.170 13.953,11.717 14.532,11.991 15.316 C 12.083 15.582,12.096 15.682,12.096 16.120 C 12.096 16.562,12.084 16.657,11.987 16.936 C 11.926 17.110,11.805 17.372,11.718 17.518 C 11.631 17.665,11.560 17.823,11.560 17.870 C 11.560 17.992,11.757 18.128,12.412 18.458 C 14.662 19.593,17.181 19.591,19.439 18.453 C 20.131 18.104,20.631 17.755,21.173 17.240 C 22.010 16.446,22.648 15.548,23.054 14.596 C 23.249 14.137,23.245 14.030,23.022 13.727 C 22.701 13.292,22.571 12.963,22.479 12.360 C 22.439 12.096,22.443 12.011,22.518 11.649 C 22.643 11.039,22.777 10.782,23.270 10.202 C 23.503 9.928,23.523 9.838,23.405 9.579 C 23.314 9.378,23.215 9.296,21.760 8.213 C 20.293 7.121,20.006 6.920,19.916 6.920 C 19.868 6.920,19.574 7.279,19.056 7.970 M15.149 7.584 C 15.136 7.597,15.101 7.599,15.072 7.587 C 15.041 7.575,15.050 7.565,15.097 7.563 C 15.139 7.561,15.162 7.571,15.149 7.584 M21.222 9.441 C 21.375 9.536,21.563 9.816,21.663 10.100 C 21.715 10.245,21.735 10.427,21.737 10.761 C 21.740 11.204,21.735 11.232,21.609 11.488 C 21.300 12.115,20.794 12.055,20.436 11.351 C 20.269 11.022,20.280 10.907,20.500 10.702 C 20.656 10.557,20.680 10.513,20.680 10.373 C 20.680 10.265,20.648 10.167,20.581 10.076 C 20.402 9.830,20.384 9.776,20.439 9.643 C 20.548 9.379,20.952 9.274,21.222 9.441 M20.306 9.810 C 20.295 9.838,20.286 9.815,20.286 9.760 C 20.286 9.705,20.295 9.683,20.306 9.710 C 20.318 9.738,20.318 9.783,20.306 9.810 M16.683 9.937 C 16.793 10.010,16.876 10.121,16.987 10.347 L 17.140 10.656 17.140 11.178 C 17.140 11.642,17.129 11.723,17.045 11.910 C 16.810 12.429,16.403 12.507,16.046 12.101 C 15.815 11.838,15.644 11.415,15.699 11.244 C 15.713 11.201,15.801 11.128,15.895 11.082 C 16.230 10.920,16.269 10.621,15.999 10.285 C 15.841 10.089,15.862 9.998,16.092 9.881 C 16.295 9.778,16.467 9.794,16.683 9.937 M23.308 10.650 C 22.996 10.963,22.832 11.459,22.830 12.100 C 22.828 12.679,23.000 13.243,23.247 13.467 C 23.319 13.531,23.327 13.531,23.404 13.454 C 23.538 13.319,23.600 12.839,23.625 11.720 C 23.648 10.716,23.628 10.480,23.520 10.480 C 23.497 10.480,23.401 10.557,23.308 10.650 M4.602 11.121 C 4.286 11.188,3.993 11.361,3.697 11.657 C 3.126 12.228,2.946 12.963,3.199 13.697 C 3.350 14.136,3.677 14.534,4.081 14.771 C 4.291 14.894,4.937 15.160,5.025 15.160 C 5.059 15.160,5.293 14.967,5.546 14.730 C 6.231 14.088,6.864 13.683,7.560 13.440 C 7.928 13.311,7.975 13.246,7.945 12.912 C 7.903 12.463,7.806 12.066,7.721 11.995 C 7.678 11.959,7.180 11.745,6.614 11.520 L 5.586 11.111 5.183 11.097 C 4.961 11.090,4.700 11.100,4.602 11.121 M14.500 12.573 C 15.559 13.249,17.593 14.622,17.730 14.753 C 17.975 14.987,17.950 15.072,17.510 15.500 C 16.917 16.077,16.404 16.289,15.600 16.291 C 14.919 16.292,14.435 16.082,13.968 15.582 C 13.266 14.832,13.101 13.794,13.523 12.779 C 13.680 12.400,13.824 12.233,13.965 12.269 C 14.017 12.282,14.258 12.419,14.500 12.573 M9.020 13.844 C 8.772 13.901,8.645 13.962,8.621 14.037 C 8.568 14.204,8.996 15.164,9.380 15.740 C 9.897 16.514,10.796 17.495,11.081 17.594 C 11.191 17.633,11.217 17.627,11.300 17.544 C 11.419 17.424,11.612 17.044,11.696 16.763 C 11.738 16.619,11.760 16.393,11.760 16.095 C 11.760 15.588,11.685 15.312,11.435 14.896 C 11.150 14.423,10.480 13.967,9.888 13.844 C 9.640 13.793,9.247 13.793,9.020 13.844 M13.659 13.924 C 13.623 14.037,13.671 14.391,13.743 14.540 C 13.775 14.606,13.793 14.630,13.783 14.594 C 13.700 14.284,13.673 14.028,13.714 13.938 C 13.738 13.884,13.742 13.840,13.722 13.840 C 13.702 13.840,13.673 13.878,13.659 13.924 M13.856 13.873 C 13.871 13.898,13.943 13.946,14.017 13.981 C 14.237 14.086,14.620 14.482,14.751 14.741 C 14.980 15.196,15.084 15.760,14.938 15.760 C 14.851 15.760,14.606 15.629,14.376 15.461 L 14.180 15.316 14.360 15.484 C 14.553 15.663,14.804 15.798,14.950 15.799 C 15.033 15.800,15.040 15.782,15.039 15.570 C 15.037 15.118,14.746 14.529,14.353 14.185 C 14.151 14.009,13.805 13.791,13.856 13.873 M6.536 14.485 C 5.688 15.116,4.944 16.081,4.654 16.926 C 4.512 17.340,4.515 17.448,4.666 17.368 C 4.707 17.346,4.875 17.283,5.040 17.228 C 5.205 17.172,5.601 17.009,5.920 16.865 C 6.614 16.551,6.876 16.478,7.300 16.477 C 7.898 16.477,8.427 16.706,8.881 17.161 C 9.635 17.918,9.810 18.979,9.331 19.891 C 9.129 20.277,8.864 20.552,8.388 20.869 C 7.694 21.332,6.561 22.533,6.560 22.807 C 6.559 23.098,7.604 23.631,8.520 23.806 C 9.161 23.928,10.472 23.842,11.160 23.632 C 11.441 23.546,12.104 23.183,12.517 22.889 C 13.017 22.533,13.655 21.819,13.953 21.280 C 14.202 20.830,14.480 20.019,14.480 19.742 C 14.480 19.622,14.473 19.618,14.150 19.534 C 13.474 19.359,12.419 18.917,11.778 18.540 C 11.192 18.195,10.791 17.872,10.060 17.158 C 9.686 16.792,9.290 16.433,9.180 16.360 C 8.752 16.077,8.233 15.619,7.594 14.964 C 7.228 14.588,6.902 14.280,6.870 14.280 C 6.838 14.280,6.688 14.372,6.536 14.485 M13.803 14.700 C 13.803 14.722,13.838 14.803,13.880 14.880 C 13.922 14.957,13.957 15.002,13.957 14.980 C 13.957 14.958,13.922 14.877,13.880 14.800 C 13.838 14.723,13.803 14.678,13.803 14.700 M6.780 16.896 C 6.420 17.011,4.343 18.023,4.223 18.142 C 4.161 18.205,4.161 18.215,4.222 18.282 C 4.258 18.322,4.405 18.401,4.548 18.459 C 5.380 18.792,6.526 18.853,7.254 18.602 C 7.519 18.511,8.764 17.965,8.830 17.911 C 8.933 17.827,8.882 17.678,8.678 17.461 C 8.223 16.980,7.342 16.718,6.780 16.896 M3.365 17.120 C 2.892 17.345,2.458 17.863,2.295 18.395 C 2.235 18.590,2.249 18.640,2.363 18.640 C 2.491 18.640,3.784 17.973,3.871 17.862 C 3.944 17.770,4.061 17.372,4.089 17.120 C 4.100 17.024,4.090 17.020,3.860 17.009 C 3.661 17.000,3.576 17.019,3.365 17.120 M8.720 17.580 C 8.772 17.635,8.805 17.680,8.794 17.680 C 8.783 17.680,8.732 17.635,8.680 17.580 C 8.628 17.525,8.595 17.480,8.606 17.480 C 8.617 17.480,8.668 17.525,8.720 17.580 M8.960 18.229 C 8.927 18.241,8.648 18.364,8.340 18.501 C 7.187 19.015,6.826 19.099,5.896 19.070 C 5.187 19.048,4.820 18.956,4.166 18.633 C 3.659 18.383,3.749 18.365,2.557 18.961 C 1.440 19.520,1.061 19.747,0.832 19.991 C 0.110 20.763,0.159 21.965,0.944 22.742 C 1.361 23.154,1.875 23.348,2.447 23.309 C 2.746 23.289,2.809 23.265,3.572 22.900 C 4.699 22.360,7.795 20.790,8.174 20.566 C 8.583 20.324,8.961 19.929,9.075 19.623 C 9.250 19.156,9.280 18.509,9.138 18.291 C 9.076 18.197,9.060 18.191,8.960 18.229 " stroke="none" fill-rule="evenodd" fill="#000"></path></svg>