<svg xmlns="http://www.w3.org/2000/svg" width="24" height="24">
  <path d="M6.969 4.11c-.371.144-.617.636-.48.964.222.531 1.148-.222.94-.765a.353.353 0 0 0-.46-.2m10.093 5.414c-.023.004-.05.032-.062.059a2.581 2.581 0 0 1-.191.254c-.09.113-.192.242-.223.289a3.081 3.081 0 0 1-.168.219c-.063.074-.148.18-.188.242-.043.059-.132.176-.199.262l-.254.332c-.191.258-.207.27-.34.27-.113 0-.449-.184-.617-.337a14.607 14.607 0 0 0-.597-.406c-.301-.2-.57-.379-.598-.402-.695-.492-.645-.489-1.191-.02a228.991 228.991 0 0 0-4.082 3.586c-.258.23-.551.492-.649.574-.258.223-.43.395-.43.426 0 .113.247.137.563.059.203-.055.453-.063.59-.028.043.016.168.04.277.059.106.02.238.055.293.086.055.027.11.05.125.05.164 0 .777.524 1 .86.477.711.496 1.734.05 2.453-.058.094-.124.207-.151.254l-.047.086.074.063c.203.164 1.144.628 1.496.734.289.09.715.203.8.219a7.6 7.6 0 0 1 .34.062c.38.078 1.555.078 1.981 0 .664-.125 1.258-.3 1.645-.484.605-.285.546-.254 1.023-.567.605-.394 1.578-1.37 1.828-1.836.027-.054.055-.101.172-.285.098-.152.29-.535.371-.746.043-.11.098-.246.125-.305.055-.113.043-.148-.094-.3a2.433 2.433 0 0 1-.332-.528.64.64 0 0 0-.058-.125.625.625 0 0 1-.055-.168c-.02-.082-.055-.207-.074-.289-.102-.379-.004-.976.238-1.453.133-.254.219-.37.488-.648.118-.125.13-.145.114-.219-.043-.234-.059-.29-.102-.332a14.21 14.21 0 0 0-.824-.629c-.035-.02-.223-.16-.422-.305-.195-.148-.441-.32-.539-.39a2.834 2.834 0 0 1-.227-.164 2.128 2.128 0 0 0-.23-.168l-.332-.227c-.16-.113-.254-.152-.317-.137m1.106 1.883c.633.305.8 1.614.277 2.16l-.133.137h-.203c-.5 0-1.015-.894-.632-1.098.265-.14.293-.44.054-.597-.386-.25.203-.809.637-.602m-3.95.38c.169.077.317.25.45.515l.117.238.012.492.015.492-.07.125c-.36.665-.937.594-1.25-.148-.152-.363-.125-.531.102-.656.277-.153.308-.453.062-.582-.156-.078-.156-.168-.004-.34.176-.192.36-.238.567-.137m5.84.856c-.067.082-.211.312-.211.343a.349.349 0 0 1-.051.11.817.817 0 0 0-.067.195l-.062.328c-.04.184-.04.23-.012.348.016.074.043.207.059.293.031.156.14.418.223.523l.046.055.043-.066a.768.768 0 0 0 .067-.247c.011-.101.039-.285.058-.41.13-.82.078-1.668-.093-1.472m-16.004.367c-1.246.234-1.703 1.844-.778 2.758.188.187.438.355.61.406.047.012.148.05.23.086.242.101.238.105.621-.27.578-.566 1.282-1.008 1.797-1.136.246-.059.285-.125.223-.391a4.13 4.13 0 0 1-.063-.422c-.023-.238-.047-.312-.101-.312a.761.761 0 0 1-.16-.059c-.137-.059-.52-.215-.782-.313l-.324-.128c-.508-.215-.926-.286-1.273-.22m8.023.856c.043.024.606.39 1.254.825.648.43 1.36.902 1.582 1.046.578.38.617.426.496.649-.137.246-.484.586-.765.742-.063.035-.153.09-.204.121a.436.436 0 0 1-.113.059 1.05 1.05 0 0 0-.2.074l-.171.074-.527-.012c-.504-.011-.535-.011-.68-.074a.974.974 0 0 0-.176-.062c-.191 0-.84-.617-.996-.946-.25-.539-.308-1.32-.125-1.793.254-.66.399-.82.625-.703m-4.402 1.52c-.227.031-.254.086-.153.289a.576.576 0 0 1 .063.152c0 .051.285.621.465.922a6.646 6.646 0 0 0 1.187 1.438c.375.336.387.336.578-.063.465-.965.094-2.16-.793-2.55a8.959 8.959 0 0 0-.21-.094c-.176-.079-.856-.133-1.137-.094m-1.653 2.535a2.53 2.53 0 0 0-.261.07c-.211.07-2.047.996-2.051 1.032 0 .035.332.199.488.242.074.02.207.058.301.09.25.078 1.285.074 1.52-.004.085-.028.171-.051.19-.051.044 0 .317-.106.474-.18.308-.148.628-.297.683-.312.086-.028.242-.13.242-.157 0-.015-.09-.117-.195-.226a1.674 1.674 0 0 0-1.39-.504m-2.797.129c-.32.078-.77.394-.922.648-.094.16-.192.422-.192.512 0 .066.075.094.106.043.008-.016.183-.11.386-.207.204-.102.375-.191.383-.203.008-.012.043-.027.086-.035a.36.36 0 0 0 .246-.25c.02-.059.059-.168.086-.239.102-.253.055-.328-.18-.27m4.356 1.122c-1.324.629-1.746.734-2.703.664-.566-.043-.863-.137-1.559-.504l-.125-.066-.992.5c-1.308.66-1.285.644-1.558 1.062-.325.488-.348 1.242-.06 1.621.028.035.08.11.11.164.387.641 1.328.883 2.051.528 1.426-.696 4.293-2.145 4.418-2.23.527-.368.816-1.028.707-1.614-.035-.2-.086-.223-.289-.125" style="stroke:none;fill-rule:evenodd;fill:#faeaf3;fill-opacity:1" />
  <path d="M7.332 3.64c-.437.118-.758.337-.93.633-.07.122-.148.368-.129.415.008.015.012.011.012-.012.008-.172.274-.59.465-.73.68-.505 1.559-.305 1.95.44.046.09.077.134.07.102-.133-.52-.926-.988-1.438-.847M15.68 4.68c-.317.078-1.438.98-1.785 1.437-.145.188-.141.196.117.196.172 0 .23.011.34.058.082.04.226.074.394.098.598.082 1.336.316 2.043.648.426.2.426.2.371-.105-.133-.739-.558-1.692-.96-2.149-.153-.168-.329-.234-.52-.183m-9.434.203c0 .082.008.11.012.066a.891.891 0 0 0 0-.144c-.008-.035-.012 0-.012.078m2.566.156c-.046.356-.128.527-.386.824l-.133.149.11-.086c.261-.211.492-.746.449-1.035-.004-.032-.024.039-.04.148m-2.12.863c.163.16.382.282.546.305.07.008.04-.012-.117-.07a1.452 1.452 0 0 1-.488-.301c-.051-.05-.028-.02.058.066m1.254.243c-.062.023-.093.043-.074.043.02 0 .086-.02.145-.043.058-.028.093-.047.074-.047a.489.489 0 0 0-.145.047m-.511.09c.058.003.144.003.191 0 .05-.008.004-.012-.102-.012-.105 0-.144.007-.09.011m5.672.5c-.687.051-1.668.336-2.39.696-.621.308-.649.347-.332.472.27.11.351.223.242.325-.078.074-.14.066-.55-.067-1.364-.437-2.942-.351-3.466.195-.086.09-.105.575-.027.801.023.067.055.192.074.278.082.363.344.996.582 1.402.055.094.16.277.239.406.078.133.207.336.285.453.258.375.281.418.297.516.035.262-.18.191-.621-.207-.149-.137-.165-.121-.196.168-.012.125-.039.285-.062.355-.032.114-.04.243-.04.828.005.891.016.93.25.73.067-.05.18-.12.255-.155.074-.032.199-.117.273-.188.125-.117.586-.527 1.371-1.226.191-.168.535-.477.766-.684l.683-.613a114.05 114.05 0 0 0 1.696-1.512c.293-.285.57-.426.632-.324.012.02.454.332 1.067.758.113.082.406.289.652.46.52.368.613.419.656.364.016-.02.27-.363.563-.766.8-1.09.867-1.176.941-1.21.145-.079.258-.032.594.234.266.21 1.32.964 1.77 1.265.234.157.343.207.316.137a2.646 2.646 0 0 1-.074-.176 5.934 5.934 0 0 0-.328-.613.269.269 0 0 1-.047-.078c0-.008-.047-.082-.102-.164-1.316-1.953-3.562-3.028-5.969-2.86m3.883 2.692c-.047.05-.363.469-.707.93-.687.933-.793 1.058-.879 1.03-.058-.015-.547-.347-1.414-.96-.55-.387-1.023-.707-1.05-.707-.047 0-.051.004-2.391 2.094-.645.574-1.3 1.156-1.45 1.292-.152.133-.421.375-.6.536-.18.16-.54.48-.802.71-.48.426-.523.477-.48.594.043.13.129.164.277.114.223-.079 1.121-.067 1.367.02 1.422.487 2.008 2.148 1.196 3.39-.2.3-.192.32.195.55a6.657 6.657 0 0 0 6.32.282c.223-.11.438-.223.48-.254a.538.538 0 0 1 .11-.067c.02-.007.14-.085.27-.175 1.03-.72 1.914-1.805 2.379-2.942.152-.37.152-.386-.07-.687a1.93 1.93 0 0 1-.313-.54c-.07-.195-.082-.25-.133-.542l-.047-.293.047-.293c.09-.547.242-.867.605-1.258.278-.305.282-.316.215-.527-.074-.22-.129-.27-.707-.703-2.523-1.887-2.289-1.73-2.418-1.594m.39.234.333.227c.102.066.203.14.23.168.024.023.13.097.227.164.098.07.344.242.539.39.2.145.387.286.422.305.137.09.785.582.824.629.043.043.059.098.102.332.015.074.004.094-.114.219-.27.277-.355.394-.488.648-.242.477-.34 1.074-.238 1.453.02.082.055.207.074.29a.625.625 0 0 0 .055.167.64.64 0 0 1 .058.125c.04.114.223.403.332.528.137.152.149.187.094.3a7.394 7.394 0 0 0-.125.305c-.082.211-.273.594-.371.746-.117.184-.145.23-.172.285-.25.465-1.223 1.442-1.828 1.836-.418.274-.469.301-.7.414l-.323.153c-.387.183-.98.36-1.645.484-.426.078-1.601.078-1.98 0a7.6 7.6 0 0 0-.34-.062 12.234 12.234 0 0 1-.801-.22c-.352-.105-1.293-.57-1.496-.733l-.074-.063.047-.086c.027-.047.093-.16.152-.254.445-.719.426-1.742-.05-2.453-.224-.336-.837-.86-1-.86a.535.535 0 0 1-.126-.05 1.206 1.206 0 0 0-.293-.086 2.624 2.624 0 0 1-.277-.059 1.347 1.347 0 0 0-.59.028c-.316.078-.563.054-.563-.059 0-.031.172-.203.43-.426.098-.082.39-.343.649-.574 1.453-1.3 2.656-2.36 3.445-3.035.2-.172.488-.418.637-.55.484-.419.5-.427.71-.294.141.086.403.258.481.313.027.023.297.203.598.402.304.2.57.383.597.406.168.153.504.336.617.336.133 0 .149-.011.34-.27l.254-.331c.067-.086.157-.203.2-.262.039-.063.124-.168.187-.242.062-.074.137-.172.168-.219.031-.047.133-.176.223-.29.09-.108.175-.222.191-.253.047-.102.148-.082.379.078m.367 1.727c-.293.11-.426.484-.215.62.239.157.211.458-.054.598-.254.137-.082.696.312 1.004.117.094.121.094.32.094h.203l.133-.137c.696-.726.133-2.48-.699-2.18m.39.087c.68.332.723 1.96.06 2.16-.25.078-.544-.16-.712-.57-.101-.25-.082-.333.094-.438.238-.145.242-.445.004-.672-.258-.246.207-.648.555-.48m-4.325.308c-.269.164-.343.387-.156.48.246.13.215.43-.062.583-.227.125-.254.293-.102.656.313.742.89.813 1.25.148l.07-.125-.015-.492-.012-.492-.117-.238c-.23-.465-.59-.684-.855-.52m.382.086c.805.336.696 2.32-.117 2.145-.387-.082-.816-.996-.5-1.059.324-.066.422-.437.184-.687-.149-.157-.157-.207-.063-.297a.463.463 0 0 1 .496-.102m5.875.61c-.586.425-.672 1.906-.136 2.48.207.223.324-.332.34-1.578.007-1.012 0-1.047-.204-.902m.106.257c.074.29.066.82-.024 1.38-.02.124-.047.308-.058.41a.768.768 0 0 1-.067.246l-.043.066-.047-.055a1.63 1.63 0 0 1-.222-.523 12.936 12.936 0 0 0-.059-.293c-.027-.117-.027-.164.012-.348l.062-.328a.817.817 0 0 1 .067-.195.349.349 0 0 0 .05-.11c0-.02.04-.093.09-.164.168-.261.196-.27.239-.086m-16.078.204c-.762.097-1.41.855-1.41 1.648 0 .781.449 1.394 1.23 1.676.09.035.219.086.285.117.156.074.18.062.387-.137.46-.449.644-.61.793-.71.48-.325.785-.477 1.219-.622.285-.094.293-.12.207-.68-.075-.468-.098-.527-.227-.582a24.222 24.222 0 0 0-.652-.261c-.14-.051-.301-.117-.356-.14-.054-.028-.187-.079-.289-.118-.101-.04-.234-.09-.293-.117-.183-.082-.578-.114-.894-.075m.847.141c.11.04.285.106.383.149l.324.128c.262.098.645.254.782.313a.761.761 0 0 0 .16.059c.054 0 .078.074.101.312.012.14.043.328.063.422.062.266.023.332-.223.39-.515.13-1.219.57-1.797 1.137-.383.375-.379.371-.62.27a2.053 2.053 0 0 0-.231-.086c-.524-.156-1.02-.777-1.082-1.356-.137-1.257.957-2.148 2.14-1.738m6.895.781c-.106.075-.235.313-.387.707-.183.473-.125 1.254.125 1.793.156.328.805.946.996.946.016 0 .094.027.176.062.145.063.176.063.68.074l.527.012.172-.074a1.05 1.05 0 0 1 .2-.074.436.436 0 0 0 .112-.059c.051-.031.141-.086.204-.121.28-.156.628-.496.765-.742.121-.223.082-.27-.496-.649-.223-.144-.934-.617-1.582-1.046-1.426-.95-1.367-.918-1.492-.829m.367.176c.102.063.398.258.656.43s.875.582 1.367.906c1.372.902 1.32.816.782 1.363-.399.403-.754.57-1.367.645-1.618.2-2.739-1.531-1.997-3.086.2-.414.258-.441.559-.258m-4.434 1.25c-.3.067-.355.102-.355.23 0 .07.125.426.191.54.016.035.055.117.082.18.348.831 1.649 2.359 1.946 2.285.11-.028.328-.418.437-.774.055-.168.055-.863 0-1.031-.207-.66-.601-1.082-1.242-1.328a1.75 1.75 0 0 0-1.059-.102m3.985.02c-.043.05-.04.265.012.476.043.16.226.574.246.555.007-.008-.004-.043-.024-.082-.207-.383-.3-.867-.183-.95.043-.03.046-.038.02-.038a.1.1 0 0 0-.071.039m.168.03c.031.028.07.048.086.048.054 0 .379.277.504.426.257.312.48 1.035.343 1.117-.058.039-.308-.09-.558-.293l-.215-.172.168.164c.23.219.414.328.559.328l.113.004-.004-.184c-.008-.53-.379-1.12-.887-1.414-.137-.082-.195-.093-.11-.023m-3.39.074c.094.012.219.04.277.067.055.023.153.066.211.093.887.39 1.258 1.586.793 2.551-.191.399-.203.399-.578.063a6.646 6.646 0 0 1-1.187-1.438c-.18-.3-.465-.871-.465-.922a.576.576 0 0 0-.063-.152c-.101-.203-.074-.258.153-.29.148-.019.586-.007.86.028m-2.72.293c-.039.031-.16.121-.273.203-.625.442-1.426 1.528-1.523 2.059a.924.924 0 0 1-.063.183c-.09.18-.039.223.152.125a.934.934 0 0 1 .243-.082c.066-.011.316-.113.554-.23 1.035-.496 1.426-.547 2.106-.273.136.054.297.136.36.183 1.265.93 1.171 2.695-.184 3.453-.426.238-1.465 1.328-1.54 1.613-.058.223.75.668 1.528.844.894.2 2.426.028 2.883-.324.02-.016.105-.059.187-.105.813-.407 1.64-1.313 1.934-2.114.023-.058.058-.156.086-.215.105-.257.168-.523.16-.664l-.004-.14-.133-.028c-.39-.078-1.137-.355-1.703-.636-.856-.422-1.352-.809-2.246-1.746-.164-.168-.3-.29-.418-.36-.426-.254-1.067-.828-1.547-1.387a1.968 1.968 0 0 0-.23-.246.499.499 0 0 1-.122-.086c-.117-.097-.12-.097-.207-.027m.075 2.176c-.172.035-2.106.969-2.223 1.07-.11.102-.04.172.297.301.8.309 1.808.332 2.453.055.215-.094.523-.23.793-.352a4.96 4.96 0 0 1 .289-.121c.219-.066.21-.227-.023-.46a1.803 1.803 0 0 0-1.586-.493m.824.105c.355.125.894.524.894.664 0 .028-.156.13-.242.157-.054.015-.375.164-.683.312-.157.074-.43.18-.473.18-.02 0-.106.023-.191.05-.235.079-1.27.083-1.52.005a5.81 5.81 0 0 0-.3-.09c-.157-.043-.49-.207-.49-.242.005-.036 1.84-.961 2.052-1.032a1.53 1.53 0 0 1 .953-.004m-3.559.008c-.363.086-.836.48-1.011.848-.23.473-.22.656.03.531a6.55 6.55 0 0 1 .274-.133c.098-.05.196-.097.215-.11.02-.01.133-.07.246-.124.387-.188.418-.207.469-.29.07-.109.2-.667.168-.706-.024-.031-.285-.04-.39-.016m.261.047c.055.02.047.125-.012.277-.027.07-.066.18-.086.239a.36.36 0 0 1-.246.25c-.043.008-.078.023-.086.035-.008.012-.18.101-.383.203-.203.098-.378.191-.386.207-.031.05-.106.023-.106-.043 0-.09.098-.352.192-.512.199-.332.89-.742 1.113-.656m4.262 1.012c-.02.004-.27.117-.551.246-.895.402-1.195.48-1.89.476-.235 0-.47-.007-.524-.02-.05-.01-.18-.038-.285-.062a3.44 3.44 0 0 1-1.032-.414c-.171-.109-.183-.105-1.242.426C.97 20.301.81 20.41.57 20.785c-.808 1.281.418 2.95 1.88 2.559.163-.043 4.148-2.04 4.605-2.305.644-.379.914-.863.883-1.613-.012-.36-.07-.446-.258-.375m.129.082c.02.02.05.09.062.16.11.586-.18 1.246-.707 1.613-.125.086-2.992 1.535-4.418 2.23-.723.356-1.664.114-2.05-.527a1.702 1.702 0 0 0-.11-.164c-.29-.379-.266-1.133.059-1.62.273-.419.25-.403 1.558-1.063l.992-.5.125.066c.696.367.993.461 1.559.504.957.07 1.379-.035 2.703-.664.148-.074.168-.074.227-.035" style="stroke:none;fill-rule:evenodd;fill:#b27bf2;fill-opacity:1" />
</svg>