<svg width="100%" height="100%" viewBox="0 0 24 24" version="1.1" xmlns="http://www.w3.org/2000/svg" xmlns:xlink="http://www.w3.org/1999/xlink" xml:space="preserve" xmlns:serif="http://www.serif.com/" style="fill-rule:evenodd;clip-rule:evenodd;stroke-linejoin:round;stroke-miterlimit:2;">
    <path d="M23.613,6.019L23.613,17.809C23.611,20.985 20.999,23.597 17.823,23.599L6.243,23.599C3.067,23.597 0.455,20.985 0.453,17.809L0.453,6.02C0.455,2.844 3.067,0.232 6.243,0.23L17.823,0.23C20.999,0.232 23.611,2.844 23.613,6.019ZM3.518,11.538L3.481,11.538L12.095,17.415L20.722,11.557L20.693,11.557C20.749,11.502 20.77,11.449 20.742,11.4L20.742,3.955C20.742,3.57 20.43,3.257 20.044,3.257L4.172,3.257C3.787,3.257 3.474,3.57 3.474,3.955L3.474,11.4C3.468,11.45 3.484,11.496 3.518,11.538ZM5.863,5.893L9.39,5.893L9.39,6.43L5.863,6.43L5.863,5.893ZM5.818,7.998L18.308,7.998L18.308,8.515L5.819,8.515L5.818,7.998ZM5.865,10.031L18.296,10.031L18.296,10.617L5.866,10.617L5.865,10.031Z"/>
</svg>
