<svg width="24" height="24" viewBox="0 0 24 24" fill="none" xmlns="http://www.w3.org/2000/svg">
<path d="M2.4 0C1.1 0 0 1 0 2.4V21.6C0 22.9 1 24 2.4 24H21.6C22.9 24 24 23 24 21.6V2.4C24 1.1 23 0 21.6 0H2.4ZM7.5 14.7V14.6C7.9 16.9 7.3 17.5 4.5 17.1C3.9 16.5 3.5 16 2.7 13.7C2.2 11.6 2.2 10.4 3.6 7.6C4.4 6 5.2 5.1 8 3C9.85335 2.31549 11.8568 2.14277 13.8 2.5C15.7928 2.96147 17.603 4.00584 19 5.5L19.2 5.7C20.5966 7.93165 21.421 10.4734 21.6 13.1C21.3 15.3 20.6 16.4 19.3 18.1L19.2 18.3C16.9 20.4 15.6 20.9 13.4 21.5C10.6 21.9 9.5 21.5 7.6 20.5C6.3 19.4 5.9 18.8 5.6 17.6C6 17.9 6.6 18 7.1 18.2C7.23331 18.1962 7.36669 18.1962 7.5 18.2C7.9 18.4 13.1 18.9 15.7 17.2C18.6 14.2 18.7 12.4 16.8 8.7C14.3 6.2 12.6 6 9.2 7C6 9.2 6.1 11.1 7.5 14.7Z" fill="black"/>
</svg>
