<?xml version="1.0" encoding="UTF-8" standalone="no"?>
<svg
   width="24"
   height="24"
   viewBox="0 0 24 24"
   fill="none"
   version="1.1"
   id="svg1"
   sodipodi:docname=":min_browser:.svg"
   inkscape:version="1.4.3 (0d15f75, 2025-12-25)"
   xmlns:inkscape="http://www.inkscape.org/namespaces/inkscape"
   xmlns:sodipodi="http://sodipodi.sourceforge.net/DTD/sodipodi-0.dtd"
   xmlns="http://www.w3.org/2000/svg"
   xmlns:svg="http://www.w3.org/2000/svg">
  <defs
     id="defs1" />
  <sodipodi:namedview
     id="namedview1"
     pagecolor="#505050"
     bordercolor="#ffffff"
     borderopacity="1"
     inkscape:showpageshadow="0"
     inkscape:pageopacity="0"
     inkscape:pagecheckerboard="1"
     inkscape:deskcolor="#505050"
     inkscape:zoom="7.1724933"
     inkscape:cx="2.6490091"
     inkscape:cy="21.540627"
     inkscape:window-width="968"
     inkscape:window-height="1044"
     inkscape:window-x="742"
     inkscape:window-y="40"
     inkscape:window-maximized="0"
     inkscape:current-layer="svg1" />
  <path
     d="m 6.4265099,15.357506 v -0.123328 c 0.49331,2.836534 -0.2466551,3.576498 -3.6998256,3.083189 C 1.9867192,17.577402 1.493409,16.960764 0.50678891,14.124231 -0.10984868,11.534353 -0.10984868,10.054423 1.6167366,6.6012525 2.6033567,4.6280123 3.5899769,3.5180646 7.0431474,0.92818666 9.328838,0.08399742 11.799643,-0.1290138 14.196143,0.31154902 c 2.457671,0.5691195 4.690146,1.85711518 6.413032,3.69982558 l 0.246655,0.2466551 c 1.722392,2.7522385 2.739104,5.8869153 2.95986,9.1262363 -0.369983,2.713206 -1.233275,4.069808 -2.836532,6.166376 l -0.123328,0.246655 c -2.836533,2.589879 -4.439791,3.206515 -7.152996,3.946481 -3.453171,0.49331 -4.8097738,0 -7.1529966,-1.233276 C 4.9465797,21.1539 4.4532695,20.413935 4.0832869,18.934004 c 0.4933102,0.369983 1.2332753,0.49331 1.8499128,0.739966 0.164408,-0.0046 0.3289022,-0.0046 0.4933102,0 0.49331,0.246655 6.9063411,0.863293 10.1128571,-1.233275 3.576498,-3.699826 3.699825,-5.919721 1.356602,-10.4828397 C 14.812781,4.8746672 12.716213,4.6280123 8.5230777,5.8612874 4.5765971,8.5744928 4.6999246,10.917716 6.4265099,15.357506 Z"
     id="path1"
     style="fill:#000000;fill-opacity:1;stroke-width:1.23328" />
</svg>
