<svg xmlns="http://www.w3.org/2000/svg" viewBox="0 0 24 24"><path d="M17.275 9.467c-1.159-5.115-3.899-6.795-4.194-7.439-.321-.452-.648-1.258-.648-1.258-.006-.013-.014-.038-.025-.061-.033.453-.05.628-.478 1.085-.663.518-4.067 3.376-4.346 9.185-.259 5.42 3.915 8.648 4.479 9.06l.064.046v-.004c.004.027.18 1.289.303 2.628h.442c.104-.946.26-1.886.466-2.814l.036-.023c.252-.182.493-.378.721-.59l.024-.023a10.39 10.39 0 0 0 3.336-7.759 12.592 12.592 0 0 0-.18-2.033Zm-4.892 7.512s0-7.599.25-7.599c.196 0 .45 9.804.45 9.804-.348-.042-.7-1.613-.7-2.205Z"/></svg>