<svg xmlns="http://www.w3.org/2000/svg" width="24" height="24"><path d="M9.82 2.238a9.005 9.005 0 0 0 1.813 10.13 9.005 9.005 0 0 0 10.129 1.812C20.77 18.652 16.773 22 12 22 6.477 22 2 17.523 2 12c0-4.773 3.348-8.77 7.82-9.762Zm8.344.051L19 2.5v1l-.836.21a1.99 1.99 0 0 0-1.453 1.454L16.5 6h-1l-.21-.836a1.99 1.99 0 0 0-1.454-1.453L13 3.5v-1l.836-.21A1.996 1.996 0 0 0 15.289.835L15.5 0h1l.21.836a1.99 1.99 0 0 0 1.454 1.453Zm5 5L24 7.5v1l-.836.21a1.99 1.99 0 0 0-1.453 1.454L21.5 11h-1l-.21-.836a1.99 1.99 0 0 0-1.454-1.453L18 8.5v-1l.836-.21a1.99 1.99 0 0 0 1.453-1.454L20.5 5h1l.21.836a1.99 1.99 0 0 0 1.454 1.453Zm0 0" style="stroke:none;fill-rule:nonzero;fill:#000;fill-opacity:1"/></svg>
