<svg xmlns="http://www.w3.org/2000/svg" width="24" height="24"><path d="M45.5 24c0-11.875-9.625-21.5-21.5-21.5S2.5 12.125 2.5 24 12.125 45.5 24 45.5 45.5 35.875 45.5 24Zm0 0" style="fill:none;stroke-width:1;stroke-linecap:round;stroke-linejoin:round;stroke:#000;stroke-opacity:1;stroke-miterlimit:4" transform="scale(.5)"/><path d="M27 24a3 3 0 1 0-6.002.002A3 3 0 0 0 27 24ZM24 2.5V21M24 27v18.5M45.5 24H27M21 24H2.5M39.203 8.797 26.117 21.883M21.883 26.117 8.797 39.203M39.203 39.203 26.117 26.117M21.883 21.883 8.797 8.797" style="fill:none;stroke-width:1;stroke-linecap:round;stroke-linejoin:round;stroke:#000;stroke-opacity:1;stroke-miterlimit:4" transform="scale(.5)"/></svg>
