<svg version="1.1" id="svg1" width="24" height="24" viewBox="0 0 24 24" xmlns="http://www.w3.org/2000/svg">
   <defs id="defs1" />
   <g id="g1">
      <path style="fill:#000000;stroke-width:0.175411"
         d="m 4.1944547,23.852613 c -1.906129,-0.422654 -3.20199795,-1.583282 -3.87996395,-3.475038 -0.263381,-0.734921 -0.26628,-0.806796 -0.304168,-7.542044 -0.04891,-8.6949998 0.03413,-9.4534628 1.19181695,-10.8852038 0.507894,-0.628126 1.589044,-1.44517198 1.994013,-1.50691198 0.128304,-0.01956 0.26107,-0.07261 0.295035,-0.117887 0.198724,-0.264908 1.607133,-0.322721 7.9281213,-0.325434996023 C 17.156036,-0.00240678 19.2672,0.04284322 19.607719,0.17544822 c 0.109195,0.04252 0.249911,0.0454 0.312703,0.0064 0.06279,-0.03901 0.149346,-0.01371 0.192344,0.05622 0.043,0.06993 0.14821,0.100135 0.233806,0.06712 0.08559,-0.03302 0.172917,-0.0079 0.194049,0.05584 0.02113,0.06373 0.155745,0.124749 0.299137,0.135606 0.143393,0.01086 0.260714,0.06438 0.260714,0.118952 0,0.05457 0.05249,0.0666 0.11664,0.02675 0.06415,-0.03985 0.116641,-0.01546 0.116641,0.05422 0,0.06967 0.135355,0.188664 0.300787,0.264429 0.369589,0.16926598 1.105016,0.89609798 1.325286,1.30979898 0.08962,0.16833 0.209671,0.306054 0.26677,0.306054 0.0571,0 0.07137,0.05276 0.03172,0.117242 -0.03965,0.06448 -0.0134,0.117242 0.05832,0.117242 0.07173,0 0.100741,0.04825 0.06448,0.107229 -0.03626,0.05898 -0.01463,0.124924 0.04806,0.146553 0.0627,0.02163 0.130151,0.144842 0.149901,0.273809 0.01975,0.128966 0.07042,0.289961 0.112589,0.357766 0.266073,0.427771 0.335634,2.523376 0.299459,9.0216158 -0.03785,6.798947 -0.04297,6.930644 -0.299426,7.697484 -0.505699,1.512136 -1.676015,2.70272 -3.232757,3.288747 -0.69563,0.261865 -0.74443,0.263605 -8.106516,0.289068 -6.0419683,0.0209 -7.5451033,-0.0051 -8.1579783,-0.140974 z m 9.2657263,-8.935432 c 3.630638,-1.824158 5.30748,-2.725024 5.30748,-2.851387 0,-0.212801 -10.1416803,-5.5613458 -10.5451833,-5.5613458 -0.243681,0 -0.244112,0.0085 -0.274464,5.3931448 -0.02852,5.060472 -0.01278,5.686251 0.143043,5.686251 0.0339,0 2.4500103,-1.199999 5.3691243,-2.666663 z"
         id="path1" />
   </g>
</svg>