<svg xmlns="http://www.w3.org/2000/svg" width="400" height="400" viewBox="0 0 400 400"><path fill-rule="evenodd" d="M188.17 10.974c-2.138.996-5.894 3.921-9.667 7.528-21.006 20.086-95.9 91.965-131.601 126.303-32.253 31.021-42.441 41.199-43.566 43.523-1.954 4.037-2.881 11.77-2.438 20.339.598 11.568.504 11.416 17.023 27.601 24.376 23.883 89.523 86.69 144.591 139.399 21.098 20.194 23.328 21.786 32.321 23.083 3.808.549 6.526.549 10.334 0 9.415-1.358 10.534-2.211 40.32-30.75 56.756-54.381 114.563-110.143 136.99-132.144 16.273-15.964 16.051-15.589 16.651-28.189.512-10.752-.446-16.331-3.584-20.888-1.395-2.026-12.213-12.983-24.04-24.351s-21.502-20.838-21.499-21.048 7.547-9.38 16.763-20.38c23.958-28.593 27.067-32.577 27.933-35.794.834-3.098.592-46.737-.27-48.597-1.254-2.707-9.699-4.281-14.065-2.621-1.991.757-6.984 4.487-48.884 36.529L300.63 94.11l-4.148-3.839C294.2 88.159 275.533 70.308 255 50.602s-38.472-36.731-39.864-37.834c-3.23-2.558-7.413-3.436-16.335-3.428-6.157.005-7.613.229-10.631 1.634M211.667 24c.663.733 1.056 1.333.873 1.333s-.876-.6-1.54-1.333-1.057-1.333-.873-1.333.876.6 1.54 1.333M380.52 45.471c-2.003 2.308-30.148 35.846-62.544 74.529-93.47 111.613-117.388 140-117.96 140-.397 0-49.876-71.901-72.863-105.88-1.071-1.584-1.824-3.005-1.672-3.156.151-.152 16.981 6.78 37.399 15.405l37.124 15.681 83.498-64.153c45.924-35.284 87.248-67.06 91.831-70.613 4.584-3.553 8.446-6.359 8.582-6.235s-1.391 2.114-3.395 4.422m-86.853 57.196c.663.733 1.056 1.333.873 1.333s-.876-.6-1.54-1.333c-.664-.734-1.057-1.334-.873-1.334s.876.6 1.54 1.334M37.418 222.5c.83 1.057.806 1.081-.251.252-1.111-.871-1.464-1.419-.915-1.419.138 0 .663.525 1.166 1.167"/></svg>