<svg xmlns="http://www.w3.org/2000/svg" width="24" height="24" viewBox="0 0 24 24"><path fill-rule="evenodd" d="M11.282.531c-.126.06-.347.232-.57.444a6057 6057 0 0 0-7.76 7.448C1.05 10.253.449 10.853.382 10.99c-.114.238-.169.694-.143 1.2.035.681.03.672 1.004 1.627a1406 1406 0 0 0 8.526 8.22c1.244 1.19 1.376 1.285 1.906 1.361.225.032.385.032.61 0 .555-.08.62-.13 2.377-1.813a1300 1300 0 0 0 8.078-7.793c.96-.94.947-.919.982-1.662.03-.634-.026-.963-.211-1.232-.082-.119-.72-.765-1.418-1.436-.697-.67-1.268-1.228-1.268-1.24s.445-.554.989-1.202c1.413-1.687 1.596-1.921 1.647-2.111.05-.183.035-2.756-.016-2.866-.074-.16-.572-.252-.83-.154-.117.044-.411.264-2.882 2.154l-1.82 1.39-.244-.225a567 567 0 0 1-2.446-2.34 163 163 0 0 0-2.35-2.23c-.191-.152-.438-.203-.964-.203-.363 0-.449.014-.627.096m1.386.769c.039.043.062.078.051.078a.3.3 0 0 1-.09-.078c-.04-.044-.063-.079-.052-.079a.3.3 0 0 1 .09.079m9.958 1.266c-.118.136-1.778 2.113-3.688 4.395-5.512 6.581-6.922 8.255-6.956 8.255-.024 0-2.941-4.24-4.297-6.243-.063-.094-.107-.178-.098-.187.008-.008 1 .4 2.205.909l2.19.925 4.923-3.783c2.708-2.081 5.145-3.955 5.415-4.164.27-.21.498-.375.506-.368s-.082.125-.2.26m-5.122 3.373c.04.044.063.08.052.08a.3.3 0 0 1-.091-.08c-.04-.043-.062-.078-.052-.078a.3.3 0 0 1 .091.078m-15.11 7.067c.049.062.047.064-.015.015-.066-.052-.087-.084-.054-.084.008 0 .039.031.069.069" style="stroke-width:.0589683"/></svg>
