<svg width="24" height="24" viewBox="0 0 24 24" fill="none" xmlns="http://www.w3.org/2000/svg">
<path fill-rule="nonzero" clip-rule="nonzero" d="M24 12C24 15.1826 22.7357 18.2348 20.4853 20.4853C18.2348 22.7357 15.1826 24 12 24C8.8174 24 5.76516 22.7357 3.51472 20.4853C1.26428 18.2348 0 15.1826 0 12C0 8.8174 1.26428 5.76516 3.51472 3.51472C5.76516 1.26428 8.8174 0 12 0C15.1826 0 18.2348 1.26428 20.4853 3.51472C22.7357 5.76516 24 8.8174 24 12V12ZM21.54 10.9C21.5793 12.0521 21.3864 13.2002 20.9726 14.2761C20.5589 15.3521 19.9329 16.3337 19.1318 17.1626C18.3307 17.9915 17.371 18.6506 16.3098 19.1008C15.2487 19.551 14.1077 19.783 12.955 19.783C11.8023 19.783 10.6613 19.551 9.60017 19.1008C8.539 18.6506 7.57929 17.9915 6.77821 17.1626C5.97714 16.3337 5.35109 15.3521 4.93736 14.2761C4.52363 13.2002 4.33068 12.0521 4.37 10.9C4.44599 8.67383 5.38376 6.56422 6.98546 5.01626C8.58716 3.4683 10.7275 2.60304 12.955 2.60304C15.1825 2.60304 17.3228 3.4683 18.9245 5.01626C20.5262 6.56422 21.464 8.67383 21.54 10.9V10.9Z" fill="black"/>
<path d="M23.4499 11.63C23.4499 14.5845 22.2762 17.418 20.1871 19.5072C18.0979 21.5963 15.2644 22.77 12.3099 22.77C9.35541 22.77 6.52191 21.5963 4.43275 19.5072C2.3436 17.418 1.16992 14.5845 1.16992 11.63C1.16992 8.67548 2.3436 5.84198 4.43275 3.75282C6.52191 1.66367 9.35541 0.48999 12.3099 0.48999C15.2644 0.48999 18.0979 1.66367 20.1871 3.75282C22.2762 5.84198 23.4499 8.67548 23.4499 11.63V11.63ZM16.9399 14.16C17.2311 13.4878 17.3856 12.7643 17.3944 12.0318C17.4031 11.2993 17.266 10.5724 16.991 9.89342C16.7159 9.21444 16.3085 8.597 15.7924 8.07708C15.2764 7.55716 14.662 7.14517 13.985 6.86511C13.3081 6.58505 12.5822 6.44253 11.8497 6.44586C11.1171 6.44919 10.3926 6.5983 9.71821 6.8845C9.04386 7.17069 8.43323 7.58825 7.9219 8.11284C7.41057 8.63742 7.00877 9.25854 6.73992 9.93999C6.20843 11.2872 6.22765 12.7892 6.79344 14.1224C7.35923 15.4555 8.42626 16.5129 9.76446 17.0665C11.1027 17.6202 12.6049 17.6257 13.9471 17.082C15.2894 16.5383 16.3643 15.4889 16.9399 14.16V14.16Z" fill="black" fill-opacity="0.6"/>
<path fill-rule="nonzero" clip-rule="nonzero" d="M10 9V15L15 11.93L10 9Z" fill="black"/>
</svg>
