<svg xml:space="preserve" width="24" height="24" fill-rule="evenodd" stroke-linejoin="round" stroke-miterlimit="2"
  clip-rule="evenodd" xmlns="http://www.w3.org/2000/svg">
  <path fill-rule="nonzero"
    d="M12.218 1.092c-6.024 0-10.98 4.957-10.98 10.98 0 6.025 4.956 10.982 10.98 10.982S23.2 18.097 23.2 12.073 18.242 1.092 12.22 1.092Zm.286.45c5.593 0 10.196 4.602 10.196 10.195 0 5.594-4.603 10.196-10.196 10.196S2.309 17.33 2.308 11.738c0-5.594 4.603-10.196 10.196-10.196Z" />
  <path
    d="M12.074 7.071c-2.77 0-5.049 2.279-5.049 5.048 0 2.77 2.28 5.049 5.05 5.048 2.768 0 5.047-2.278 5.047-5.047 0-2.77-2.278-5.049-5.048-5.049Zm-1.28 2.781 3.62 2.194-3.62 2.304V9.852Zm10.156 1.213c0 4.31-3.547 7.857-7.858 7.857-4.31 0-7.858-3.547-7.858-7.857 0-4.311 3.548-7.858 7.858-7.858s7.858 3.547 7.858 7.858Z" />
</svg>