<svg xmlns="http://www.w3.org/2000/svg" width="24" height="24" viewBox="0 0 24 24"><path d="M11.280 0.027 C 9.520 0.153,7.864 0.612,6.440 1.368 C 2.945 3.225,0.648 6.508,0.092 10.440 C -0.015 11.194,-0.005 12.904,0.109 13.641 C 0.403 15.524,0.993 17.085,1.978 18.580 C 2.738 19.734,3.787 20.841,4.904 21.667 C 7.113 23.299,10.013 24.156,12.695 23.967 C 15.292 23.785,17.493 22.932,19.480 21.339 C 21.895 19.404,23.465 16.615,23.907 13.477 C 24.015 12.713,24.004 11.093,23.887 10.320 C 23.293 6.415,20.998 3.180,17.520 1.348 C 15.679 0.379,13.326 -0.120,11.280 0.027 M16.690 8.059 C 16.256 8.500,15.625 9.140,15.288 9.482 L 14.677 10.104 16.078 11.542 L 17.478 12.980 17.479 15.030 C 17.480 16.157,17.472 17.080,17.463 17.080 C 17.453 17.080,15.912 15.513,14.039 13.598 L 10.632 10.117 11.105 9.628 C 11.365 9.360,12.901 7.784,14.519 6.126 L 17.460 3.111 17.470 5.185 L 17.481 7.259 16.690 8.059 M10.080 10.518 C 11.697 12.174,13.013 13.541,13.005 13.555 C 12.997 13.569,11.593 15.009,9.885 16.755 C 8.177 18.501,6.650 20.067,6.492 20.235 L 6.204 20.540 6.203 18.460 L 6.202 16.380 7.579 14.980 C 8.336 14.210,8.956 13.562,8.956 13.540 C 8.956 13.518,8.336 12.870,7.579 12.100 L 6.202 10.700 6.203 8.620 L 6.204 6.540 6.672 7.023 C 6.929 7.289,8.463 8.861,10.080 10.518 " stroke="none" fill-rule="evenodd" fill="black"></path></svg>