<svg xmlns="http://www.w3.org/2000/svg" width="24" height="24" viewBox="0 0 24 24"><path d="M18.735 0.972 C 14.409 5.399,10.430 9.485,10.343 9.589 L 10.235 9.718 10.847 10.349 C 11.184 10.696,13.259 12.821,15.459 15.071 C 18.652 18.338,19.464 19.149,19.486 19.091 C 19.502 19.052,19.516 17.800,19.517 16.308 L 19.520 13.596 18.013 12.048 C 17.184 11.197,16.328 10.319,16.110 10.097 L 15.715 9.694 17.618 7.760 L 19.520 5.827 19.520 3.034 C 19.520 1.456,19.505 0.240,19.485 0.240 C 19.466 0.240,19.128 0.569,18.735 0.972 M4.187 4.964 C 4.173 5.017,4.162 6.284,4.163 7.780 L 4.165 10.500 6.042 12.419 C 7.075 13.474,7.920 14.350,7.920 14.366 C 7.920 14.396,6.824 15.539,5.190 17.214 L 4.159 18.270 4.170 21.078 L 4.180 23.885 8.563 19.392 C 10.973 16.922,13.056 14.782,13.191 14.637 L 13.436 14.374 12.629 13.537 C 12.185 13.077,10.247 11.080,8.322 9.100 C 6.397 7.120,4.685 5.358,4.517 5.184 C 4.231 4.888,4.211 4.875,4.187 4.964 " stroke="none" fill-rule="evenodd"></path></svg>