<svg width="368" height="368" viewBox="0 0 368 368" xmlns="http://www.w3.org/2000/svg">
  <path
    d="M228.944 317.07C228.556 317.067 228.175 316.968 227.835 316.781C227.495 316.594 227.207 316.326 226.997 316C226.79 315.668 226.669 315.288 226.647 314.897C226.624 314.506 226.7 314.116 226.868 313.762L229.966 307.159C230.031 307.045 235.482 295.186 235.482 284.642C235.482 276.693 232.838 266.943 227.63 255.653C224.305 248.45 156.414 95.137 153.137 87.09C149.471 78.046 141.116 61.175 134.335 54.394L126.435 46.502C126.111 46.1752 125.89 45.76 125.8 45.3084C125.711 44.8567 125.757 44.3888 125.932 43.963C126.108 43.5402 126.405 43.179 126.786 42.9249C127.167 42.6708 127.615 42.5351 128.073 42.535H236.357C236.732 42.5347 237.102 42.6271 237.433 42.804C237.764 42.9809 238.046 43.2368 238.255 43.549C238.693 44.181 238.775 44.985 238.498 45.698L236.032 52.016C236.016 52.057 234.182 56.834 234.182 60.801C234.182 65.927 234.182 71.224 237.248 78.41C239.341 83.358 265.005 141.539 285.623 188.296L288.202 194.12C302.689 226.954 315.181 255.294 317.224 260.015C320.208 266.861 331.078 290.4 345.662 305.244L353.4 313.128C354.048 313.793 354.243 314.782 353.87 315.643C353.699 316.066 353.405 316.428 353.026 316.683C352.648 316.937 352.201 317.072 351.745 317.07H228.944ZM16.8689 317.589C16.4191 317.589 15.9792 317.457 15.6042 317.209C15.2291 316.96 14.9354 316.607 14.7599 316.193C14.5784 315.782 14.5202 315.327 14.5922 314.884C14.6643 314.44 14.8636 314.027 15.1659 313.695C55.0569 270.414 64.4979 229.112 64.5949 228.69C64.6902 228.274 64.898 227.892 65.1954 227.586C65.4929 227.28 65.8687 227.062 66.2819 226.955C66.4722 226.903 66.6685 226.876 66.8659 226.874C67.1948 226.877 67.5194 226.949 67.8185 227.086C68.1175 227.223 68.3842 227.422 68.6009 227.669C69.8179 229.048 98.2389 262.206 97.8829 315.285C97.8797 315.898 97.6337 316.484 97.1989 316.916C96.764 317.348 96.1757 317.59 95.5629 317.589H16.8689ZM106.919 286.588C108.703 286.588 107.341 254.451 132.761 218.827C141.943 205.979 155.261 197.219 167.201 192.077C167.201 192.077 163.745 146.35 161.004 120.492H159.788C159.788 120.492 158.117 151.947 150.898 178.057C150.898 178.057 148.919 177.335 145.593 176.313C135.405 134.241 134.302 96.175 134.302 96.175H132.761C130.344 137.574 126.321 161.527 124.39 171.203C122.224 170.83 120.01 170.505 117.78 170.246C116.863 165.42 115.16 155.703 113.295 141.719C110.537 121.068 109.677 106.59 108.996 93.863C108.298 81.129 108.12 72.636 106.919 72.636C105.718 72.636 105.548 81.129 104.859 93.863C104.161 106.59 103.301 121.068 100.544 141.719C98.6868 155.702 96.9908 165.42 96.0668 170.246C93.8358 170.505 91.6298 170.83 89.4558 171.203C87.5248 161.526 83.5108 137.574 81.0928 96.175H79.5518C79.5518 96.175 78.4409 134.241 68.2609 176.313C64.9349 177.335 62.9559 178.057 62.9559 178.057C55.7209 151.947 54.0499 120.492 54.0499 120.492H52.8499C50.0919 146.35 46.6529 192.077 46.6529 192.077C58.5929 197.219 71.9108 205.979 81.0928 218.827C106.514 254.451 105.143 286.588 106.919 286.588Z"
    fill="black" />
</svg>