<svg xmlns="http://www.w3.org/2000/svg" width="368" height="368" viewBox="0 0 368 368"><path d="M124.016 37.536 C 123.611 37.941,123.280 38.668,123.280 39.152 C 123.280 39.636,126.133 42.986,129.620 46.595 C 139.289 56.603,144.296 65.475,157.665 96.293 C 164.600 112.281,192.028 174.424,217.897 232.760 C 227.171 253.675,235.454 272.995,236.302 275.693 C 240.933 290.421,239.916 302.590,232.723 318.524 C 231.225 321.840,230.000 324.936,230.000 325.402 C 230.000 325.869,230.534 326.536,231.186 326.885 C 231.983 327.311,253.769 327.520,297.467 327.520 C 341.165 327.520,362.951 327.311,363.747 326.885 C 366.056 325.649,365.032 323.878,357.420 315.936 C 349.319 307.485,344.910 301.710,338.716 291.440 C 332.438 281.032,329.117 273.993,309.744 230.039 C 232.558 54.913,240.605 73.339,239.420 69.000 C 238.146 64.333,237.703 55.989,238.524 52.124 C 238.917 50.274,240.094 46.485,241.139 43.705 C 242.692 39.572,242.899 38.482,242.271 37.725 C 241.596 36.912,234.416 36.800,183.128 36.800 C 138.542 36.800,124.578 36.974,124.016 37.536 M102.878 69.075 C 102.280 70.045,101.826 74.944,101.180 87.400 C 99.759 114.778,97.519 136.630,93.742 159.937 C 91.631 172.964,92.251 171.794,87.006 172.633 L 84.771 172.991 84.102 169.142 C 80.785 150.082,78.190 126.775,76.314 99.207 C 76.009 94.725,75.695 93.227,75.060 93.227 C 74.538 93.227,74.213 93.897,74.213 94.978 C 74.213 97.907,73.040 112.038,72.041 121.133 C 70.134 138.499,67.854 152.678,64.285 169.365 L 62.365 178.344 60.091 179.025 C 58.841 179.400,57.529 179.707,57.176 179.707 C 55.630 179.707,50.533 152.653,48.797 135.240 C 47.220 119.420,47.162 118.987,46.623 118.987 C 46.340 118.987,45.947 120.022,45.751 121.287 C 45.262 124.444,42.640 153.913,41.127 173.267 C 40.442 182.037,39.736 190.478,39.560 192.023 L 39.239 194.832 44.306 197.351 C 58.541 204.426,70.358 214.896,79.078 228.160 C 90.729 245.882,98.325 265.697,101.532 286.733 C 102.098 290.444,102.774 293.871,103.036 294.350 C 103.586 295.357,103.786 294.545,105.164 285.722 C 107.482 270.883,111.710 257.640,118.447 244.116 C 130.285 220.352,141.395 208.347,161.261 197.856 L 167.173 194.733 165.804 177.560 C 164.427 160.296,161.582 128.224,160.890 122.185 C 160.229 116.409,159.208 118.899,158.447 128.143 C 157.621 138.169,156.859 144.333,155.104 155.173 C 153.923 162.470,150.387 179.133,149.912 179.638 C 149.789 179.769,148.456 179.531,146.950 179.109 L 144.212 178.342 142.917 172.738 C 138.304 152.771,133.872 121.492,132.715 100.740 C 132.411 95.294,132.082 93.227,131.517 93.227 C 130.666 93.227,130.437 95.052,129.399 110.093 C 127.848 132.555,123.009 171.089,121.570 172.433 C 121.116 172.858,115.531 172.162,114.981 171.612 C 114.228 170.859,110.484 146.128,108.593 129.413 C 107.204 117.137,106.435 107.229,105.206 85.723 C 104.417 71.936,103.806 67.567,102.878 69.075 M59.262 232.332 C 59.094 232.603,57.732 236.536,56.234 241.072 C 47.741 266.791,31.930 293.896,11.719 317.384 C 8.310 321.346,5.520 325.100,5.520 325.726 C 5.520 326.352,6.054 327.149,6.706 327.498 C 7.491 327.918,22.101 328.133,49.851 328.133 C 90.966 328.133,91.832 328.109,92.915 326.912 C 93.909 325.814,93.977 324.906,93.593 317.866 C 92.513 298.073,88.155 279.655,80.351 261.893 C 76.084 252.183,68.462 239.405,63.705 233.987 C 61.931 231.966,59.945 231.227,59.262 232.332 " stroke="none" fill-rule="evenodd" fill="black"></path></svg>