<svg xmlns="http://www.w3.org/2000/svg" width="23" height="24" fill="none" viewBox="0 0 23 24"><path fill="#000" fill-rule="evenodd" d="m2 4.2-.1.8v.8l.7-.6.5-.6L3 5l-.4.6v.3H3q.6-.2 2.9-.2h2.2l2.5 1.2 1 .8q1.5 1.3 3 2.3l.6.4 5 2 .5.8h-.5l.3.4.6.6v.2l-.9-.1.2.1.7 1H21l-.4.1.3.5.3.4-.2.1h-.2l.2.4.4.7.3.4-.6-.1.2.3 1 1.3q.6.5.7.8v.2l-.7.6a11 11 0 0 1-5.5 2.7l-.9.2-1.7.1h-1.6l-.7-.2q-2.3-.4-4-1.6a7 7 0 0 1-2-1.8l.5-.7 1.4-1.9q.3-.4.3-.7V17l-.3-.4-.4-.5-.1-.3.1-.2.3-.2.2-.1-.8-.7Q3.8 12 1.9 9l-.4-.6v.4l-.2.8v.4-2.1l-.6.7-.5.7.3-.8.4-.8-.3-.2q-.5-.2-.6-.8t.5-1H1l.5-.1.1-.7zm12.9 9.2-.7.4a12 12 0 0 1-3 1.5c-1 .3-2.3.3-3 0H8c.3.3 1.3.5 2 .6h.7l.7-.1q1.8-.4 3.2-1.6l.4-.4h.3l.4.1z" clip-rule="evenodd"/><path fill="#000" d="M12.4 1.8q.7-.4 1 .3c.3.7-.2 2-1 2.4l-.4.2-.5-.3-.1-.3c-.3-.7.2-1.9 1-2.3"/><path fill="#000" fill-rule="evenodd" d="M15.2 0q1.2 0 2.8.2 3.8 1.2 4.7 4.4V6q0 1.5-1 3.2-.7 1.5-.6 2.2v.3l-3.7-1.3c-1.7-.6-2.6-1.2-5.1-3.3l-1.1-.9-2-1-2.1-1 1.4.1h2.2V3l.2-.4Q11.5 1 12.8 1h.3l.4-.3q.7-.5 1.7-.7m-1.5 2q-.4-1-1.4-.6T11 3.3l-.1.4v.4q.3.7 1 .9h.2l.4-.2q1.3-.5 1.3-2v-.9" clip-rule="evenodd"/></svg>