<?xml version="1.0" encoding="UTF-8" standalone="no"?>
<svg
   width="661.09802"
   height="541.81598"
   viewBox="0 0 661.09802 541.81598"
   fill="none"
   version="1.1"
   id="svg5"
   sodipodi:docname="Musescore_icon.svg"
   inkscape:version="1.4.2 (ebf0e940, 2025-05-08)"
   xmlns:inkscape="http://www.inkscape.org/namespaces/inkscape"
   xmlns:sodipodi="http://sodipodi.sourceforge.net/DTD/sodipodi-0.dtd"
   xmlns="http://www.w3.org/2000/svg"
   xmlns:svg="http://www.w3.org/2000/svg">
  <sodipodi:namedview
     id="namedview5"
     pagecolor="#ffffff"
     bordercolor="#000000"
     borderopacity="0.25"
     inkscape:showpageshadow="2"
     inkscape:pageopacity="0.0"
     inkscape:pagecheckerboard="0"
     inkscape:deskcolor="#d1d1d1"
     inkscape:zoom="0.8125"
     inkscape:cx="330.46154"
     inkscape:cy="306.46154"
     inkscape:window-width="1888"
     inkscape:window-height="985"
     inkscape:window-x="2576"
     inkscape:window-y="230"
     inkscape:window-maximized="0"
     inkscape:current-layer="svg5" />
  <path
     d="M 221.559,244.382 C 200.786,215.655 159.837,196.798 121.68,196.798 58.632,196.798 0,235.53 0,341.819 v 178.196 c 0,12.077 9.797,21.801 21.874,21.801 12.085,0 21.881,-9.797 21.881,-21.801 V 341.819 c -0.022,-80.778 38.959,-101.341 77.925,-101.341 38.966,0 77.933,32.391 77.933,87.057 v 192.48 c 0,12.077 9.796,21.801 21.873,21.801 h 0.095 0.095 c 12.078,0 21.874,-9.724 21.874,-21.801 v -192.48 c 0,-54.666 38.966,-87.057 77.932,-87.057 24.738,0 77.925,10.987 77.925,87.057 l 1.48,64.647 c 0,119.452 80.177,149.634 131.199,149.634 51.022,0 127.453,-35.242 129.012,-140.93 V 231.764 c 0,-29.092 -43.878,-29.092 -43.878,0 v 169.122 c 0,80.177 -59.623,97.255 -85.134,97.255 -25.511,0 -87.466,-12.018 -87.466,-105.959 l -1.458,-61.109 c 0,-90.605 -56.853,-137.919 -121.68,-137.919 -38.157,0 -79.149,22.501 -99.923,51.228 z"
     fill="#ffffff"
     id="path2"
     sodipodi:nodetypes="cssssscsssscssssccscssssccsc"
     style="fill:#000000" />
  <path
     d="m 439.829,134.843 c 0,-43.733 32.209,-91.11 87.903,-91.11 55.694,0 87.795,47.377 87.795,91.11 0,32.8 43.835,32.8 43.835,0 C 659.362,58.31 601.649,0 527.732,0 453.816,0 396.118,58.31 396.118,134.843 c 0.007,32.8 43.711,32.8 43.711,0 z"
     fill="#ffffff"
     id="path3"
     style="fill:#000000" />
  <path
     d="m 560.817,136.064 c 0,-15.949 -12.916,-28.864 -28.864,-28.864 -15.948,0 -28.864,12.915 -28.864,28.864 0,15.948 12.916,28.863 28.864,28.863 15.948,0 28.864,-12.915 28.864,-28.863 z"
     fill="#ffffff"
     id="path4"
     style="fill:#000000" />
  <defs
     id="defs5">
    <linearGradient
       id="paint0_linear"
       x1="239.48399"
       y1="-58.026699"
       x2="1107.04"
       y2="1029.03"
       gradientUnits="userSpaceOnUse">
      <stop
         stop-color="#208EBB"
         id="stop4" />
      <stop
         offset="1"
         stop-color="#2162B2"
         id="stop5" />
    </linearGradient>
  </defs>
</svg>
