<svg width="661.1" height="541.82" fill="none" xmlns="http://www.w3.org/2000/svg">
   <path
      d="M221.56 244.38c-20.77-28.72-61.72-47.58-99.88-47.58C58.63 196.8 0 235.53 0 341.82v178.2c0 12.07 9.8 21.8 21.87 21.8 12.09 0 21.88-9.8 21.88-21.8v-178.2c-.02-80.78 38.96-101.34 77.93-101.34 38.97 0 77.93 32.39 77.93 87.06V520c0 12.08 9.8 21.8 21.88 21.8h.19a21.82 21.82 0 0 0 21.87-21.8V327.54c0-54.67 38.97-87.06 77.93-87.06 24.74 0 77.93 10.98 77.93 87.05l1.48 64.65c0 119.45 80.17 149.64 131.2 149.64 51.02 0 127.45-35.25 129-140.93V231.76c0-29.09-43.87-29.09-43.87 0V400.9c0 80.17-59.62 97.25-85.13 97.25-25.52 0-87.47-12.02-87.47-105.96l-1.46-61.1c0-90.61-56.85-137.93-121.68-137.93-38.16 0-79.15 22.5-99.92 51.23zm218.27-109.54c0-43.73 32.2-91.1 87.9-91.1s87.8 47.37 87.8 91.1c0 32.8 43.83 32.8 43.83 0C659.36 58.31 601.65 0 527.73 0c-73.91 0-131.61 58.31-131.61 134.84 0 32.8 43.7 32.8 43.7 0z"
      fill="#fff" style="fill:#000" />
   <path d="M560.82 136.06a28.85 28.85 0 1 0-57.73 0 28.85 28.85 0 1 0 57.73 0z" fill="#fff" style="fill:#000" />
</svg>