<svg xmlns="http://www.w3.org/2000/svg" width="24" height="24" fill="none" viewBox="88 88 24 24"><path fill="#14f2fe" d="M106.777 90.816c-1.342-1.524-3.347-2.525-5.412-2.71-2.708-.24-5.349.837-7.044 2.867a7.8 7.8 0 0 0-1.311 2.29c-.495 1.41-.546 3.045-.142 4.435l.063.228h2.767c1.519 0 2.763-.008 2.763-.016s-.07-.09-.16-.184a5.3 5.3 0 0 1-1.296-2.475c-.07-.326-.09-.534-.09-1.037 0-.62.043-.962.192-1.485.075-.251.326-.844.42-.978a.4.4 0 0 0 .07-.13c0-.082.46-.671.766-.981.432-.44.785-.704 1.275-.959.471-.24.82-.365 1.339-.48.533-.12 1.448-.129 1.958-.019.42.09.954.263 1.225.397.314.157.89.507.894.538 0 .02-.062.032-.137.032-.447 0-1.091.24-1.507.561-.628.483-1.028 1.387-.97 2.18.052.676.28 1.179.746 1.642.554.55 1.095.778 1.849.774.36-.004.482-.02.745-.106 1.456-.487 2.186-2.03 1.625-3.445-.11-.283-.298-.562-.628-.939m-2.645 8.111c.432-.388.864-.773.962-.856l.172-.145h-5.69l-1.158 1.029c-.64.57-1.676 1.493-2.312 2.054l-1.146 1.022 2.834.011 2.833.008.165-.145c.09-.082.703-.628 1.358-1.21zm3.98 4.58c-.008-.455-.102-1.339-.15-1.39-.023-.024-6.283-.063-6.283-.035 0 .004.094.137.208.294.707.959 1.048 2.003 1.048 3.21 0 1.492-.518 2.733-1.585 3.79-.719.719-1.401 1.111-2.37 1.363-.429.114-.511.122-1.166.125-.758.004-.915-.02-1.566-.22-.48-.145-1.55-.687-1.555-.789 0-.016.067-.028.15-.028.086 0 .286-.035.455-.078 1.17-.299 2.001-1.426 1.93-2.612a2.583 2.583 0 0 0-3.975-2.055c-.494.315-.97.97-1.103 1.525a2.66 2.66 0 0 0 .381 2.105c.44.632 1.44 1.48 2.39 2.03.903.52 2.115.928 3.246 1.093.463.07 1.97.07 2.425.004 1.79-.264 3.356-.967 4.678-2.098 1.821-1.56 2.881-3.889 2.842-6.234" style="fill:#000;fill-opacity:1;stroke-width:.0338285"/></svg>
