<?xml version="1.0" encoding="UTF-8" standalone="no"?>
<svg
   xml:space="preserve"
   width="104"
   height="103.83"
   viewBox="0 0 27.52 27.47"
   version="1.1"
   id="svg1"
   sodipodi:docname=":native_instruments: copy.svg"
   inkscape:version="1.4.3 (0d15f75, 2025-12-25)"
   xmlns:inkscape="http://www.inkscape.org/namespaces/inkscape"
   xmlns:sodipodi="http://sodipodi.sourceforge.net/DTD/sodipodi-0.dtd"
   xmlns="http://www.w3.org/2000/svg"
   xmlns:svg="http://www.w3.org/2000/svg"><defs
     id="defs1" /><sodipodi:namedview
     id="namedview1"
     pagecolor="#505050"
     bordercolor="#ffffff"
     borderopacity="1"
     inkscape:showpageshadow="0"
     inkscape:pageopacity="0"
     inkscape:pagecheckerboard="1"
     inkscape:deskcolor="#505050"
     inkscape:zoom="1.8063168"
     inkscape:cx="65.879915"
     inkscape:cy="81.657878"
     inkscape:window-width="968"
     inkscape:window-height="1044"
     inkscape:window-x="742"
     inkscape:window-y="40"
     inkscape:window-maximized="0"
     inkscape:current-layer="svg1" /><path
     d="M 4.4283521,5.4964198 C 3.4442024,5.600913 2.7975863,5.8867172 2.0459598,6.5501453 0.82644188,7.6258558 0.52098045,8.809422 0.39683016,12.93535 c -0.0579368,1.932865 -0.0571609,5.995166 0.001551,6.356752 0.11070067,0.68231 0.34141328,1.023207 0.78447464,1.159772 0.2237292,0.06906 0.4182313,0.08251 1.1866699,0.08147 0.9864774,-0.0013 1.1923599,-0.03285 1.4944589,-0.229678 0.1169083,-0.07604 0.2074345,-0.188812 0.2819247,-0.351501 0.2232123,-0.487808 0.235886,-0.668601 0.3072724,-4.394144 0.099837,-5.19 0.174069,-6.1842365 0.4740989,-6.344856 0.2653712,-0.1422555 0.7518852,0.016295 1.4194515,0.4624598 1.1183872,0.7472292 2.6369004,2.0833972 6.7486039,5.9392982 4.739178,4.443546 5.930503,5.524687 6.088278,5.524687 0.09983,0 1.076485,-1.014411 1.43885,-1.494458 0.480306,-0.636271 0.537467,-0.88302 0.313479,-1.352205 C 20.765495,17.935757 20.505555,17.593051 19.933171,16.97023 18.853063,15.794945 13.142667,10.491658 10.080811,7.820358 8.139411,6.1264825 7.6901421,5.8174 6.8960976,5.6298814 6.1819748,5.4609853 5.2407605,5.4102905 4.4283521,5.4964198 m 20.1777839,0.085612 c -0.674808,0.055091 -1.138044,0.2074344 -1.276938,0.4195245 -0.22554,0.3442584 -0.380728,3.4498261 -0.380986,7.6287777 0,3.273686 0.101135,5.407779 0.291494,6.138197 0.111995,0.430127 0.187261,0.549623 0.415128,0.660064 0.196313,0.09493 0.260457,0.09983 1.329702,0.100352 0.997598,5.18e-4 1.141148,-0.0085 1.280299,-0.0807 0.352794,-0.182596 0.489617,-0.398048 0.630839,-0.992159 0.145101,-0.610405 0.171224,-1.349875 0.202262,-5.709878 0.03026,-4.2381836 -0.009,-6.2651957 -0.134497,-6.9526779 -0.12984,-0.709985 -0.353569,-1.0645892 -0.731452,-1.1595124 -0.23692,-0.05923 -1.171668,-0.089233 -1.625851,-0.051988"
     stroke="none"
     fill="#000000"
     fill-rule="evenodd"
     id="path1"
     style="stroke-width:0.258646" /></svg>
