<svg width="104" height="103.83" viewBox="0 0 27.52 27.47" version="1.1" xml:space="preserve" sodipodi:docname=":native_instruments:.svg" xmlns:sodipodi="http://sodipodi.sourceforge.net/DTD/sodipodi-0.dtd" xmlns="http://www.w3.org/2000/svg" xmlns:svg="http://www.w3.org/2000/svg"><sodipodi:namedview pagecolor="#ffffff" bordercolor="#000000" borderopacity=".25" showgrid="false"/><defs/><g transform="translate(-84.242157,-98.758543)"><path style="fill:#000" d="m 87.887117,125.72009 c -1.33203,-0.69266 -2.43132,-1.80424 -3.10593,-3.14063 -0.53903,-1.06781 -0.53903,-1.06781 -0.53903,-10.0737 0,-9.00589 0,-9.00589 0.53918,-10.074 0.75313,-1.49193 1.72839,-2.48458 3.03314,-3.08718 1.10199,-0.50896 1.10199,-0.50896 10.12682,-0.56322 9.024843,-0.0542 9.024843,-0.0542 10.112773,0.49493 1.37735,0.69529 2.47707,1.79155 3.16573,3.15577 0.53902,1.06781 0.53902,1.06781 0.53902,10.0737 0,9.00589 0,9.00589 -0.54553,10.08659 -0.7133,1.41304 -1.99709,2.65169 -3.28889,3.17324 -1.01255,0.40881 -1.04921,0.41045 -10.012103,0.45004 -8.99583,0.0397 -8.99583,0.0397 -10.02518,-0.49554 z m 13.871463,-9.56806 c 0.62559,-0.76345 0.62559,-0.76345 -2.942803,-4.078 -1.96261,-1.82301 -3.79895,-3.43536 -4.08074,-3.58301 -0.78092,-0.40916 -2.26462,-0.37274 -2.85883,0.0702 -1.06931,0.79705 -1.19005,1.25649 -1.25677,4.78241 -0.0609,3.21909 -0.0609,3.21909 1.10243,3.21909 1.16335,0 1.16335,0 1.16605,-2.95451 0.001,-1.62498 0.0779,-3.0734 0.16971,-3.21871 0.29073,-0.45989 1.14871,0.18237 4.60206,3.44501 1.78817,1.68941 3.301193,3.07376 3.362263,3.07633 0.0611,0.003 0.39256,-0.33889 0.73663,-0.75879 z m 3.65024,-3.6274 c 0,-4.47986 0.065,-4.2522 -1.21387,-4.2522 -0.36071,0 -0.7511,0.0952 -0.86751,0.21166 -0.22767,0.22766 -0.3064,6.15912 -0.0985,7.41716 0.10934,0.66145 0.10934,0.66145 1.14459,0.66145 1.03525,0 1.03525,0 1.03525,-4.03807 z"/></g></svg>