<svg t="1744196324126" class="icon" viewBox="0 0 1027 1024" version="1.1" xmlns="http://www.w3.org/2000/svg" p-id="6954" width="24" height="24"><path d="M156.2624 564.1216a245.0944 245.0944 0 0 1 151.1424-158.72 442.9312 442.9312 0 0 1 233.2672-36.096s30.0032 8.2944 34.1504-53.3504a1583.8208 1583.8208 0 0 1 26.6752-167.1168S586.496 10.1888 420.352 63.488 61.3376 272.4864 13.4144 417.2288s142.848 146.8928 142.848 146.8928z" fill="#17ABFF" p-id="6955"></path><path d="M705.1264 340.5312s-31.9488 32.9216 19.2 61.44 141.2608 46.6944 202.9568 172.3904 95.7952-42.4448 100.096-112.64-43.7248-173.4656-100.096-264.0896-101.1712-26.6752-101.1712-26.6752z" fill="#17ABFF" p-id="6956"></path><path d="M584.3968 409.6s-206.7456-22.2208-315.3408 81.92-150.9888 330.24 19.3536 427.0592 445.44 8.4992 540.0064-74.5984a252.7744 252.7744 0 0 0 96.8192-166.144 400.2816 400.2816 0 0 0-125.5936-186.2656A531.3536 531.3536 0 0 0 584.3968 409.6z" fill="#17ABFF" p-id="6957"></path></svg>
