<svg xmlns="http://www.w3.org/2000/svg" xmlns:xlink="http://www.w3.org/1999/xlink" width="24px" height="24px" viewBox="0 0 24 24" version="1.1">
<defs>
<linearGradient id="linear0" gradientUnits="userSpaceOnUse" x1="49.021549" y1="-0.0798354" x2="49.021549" y2="97.845657" gradientTransform="matrix(0.046407,0,0,0.217825,3.221968,0.889505)">
<stop offset="0" style="stop-color:rgb(8.627451%,69.019608%,92.941176%);stop-opacity:0.8;"/>
<stop offset="1" style="stop-color:rgb(5.882353%,34.901961%,69.803922%);stop-opacity:0.835294;"/>
</linearGradient>
<linearGradient id="linear1" gradientUnits="userSpaceOnUse" x1="326.17365" y1="-0.0691649" x2="326.17365" y2="98.851547" gradientTransform="matrix(-0.0468841,0,0,0.215608,33.788656,0.889505)">
<stop offset="0" style="stop-color:rgb(49.019608%,71.372549%,26.27451%);stop-opacity:1;"/>
<stop offset="1" style="stop-color:rgb(21.176471%,45.882353%,20%);stop-opacity:1;"/>
</linearGradient>
<linearGradient id="linear2" gradientUnits="userSpaceOnUse" x1="103.88479" y1="-0.115088" x2="103.88479" y2="178.55785" gradientTransform="matrix(0.0846655,0,0,0.119395,3.221968,0.889505)">
<stop offset="0" style="stop-color:rgb(53.333333%,77.647059%,28.627451%);stop-opacity:0.8;"/>
<stop offset="1" style="stop-color:rgb(26.27451%,57.254902%,25.098039%);stop-opacity:0.839216;"/>
</linearGradient>
</defs>
<g id="surface1">
<path style=" stroke:none;fill-rule:nonzero;fill:rgb(10.196078%,10.196078%,10.196078%);fill-opacity:1;" d="M 12 0 C 11.886719 0 11.769531 0.0507812 11.707031 0.152344 L 11.082031 1.160156 L 10.789062 1.191406 L 9.976562 0.324219 C 9.816406 0.148438 9.484375 0.214844 9.398438 0.4375 L 8.984375 1.546875 L 8.699219 1.632812 L 7.738281 0.941406 C 7.542969 0.800781 7.230469 0.929688 7.195312 1.167969 L 7.003906 2.335938 L 6.742188 2.476562 L 5.664062 1.984375 C 5.445312 1.886719 5.164062 2.074219 5.171875 2.3125 L 5.214844 3.5 L 4.984375 3.6875 L 3.832031 3.414062 C 3.597656 3.359375 3.359375 3.597656 3.414062 3.832031 L 3.6875 4.988281 L 3.5 5.214844 L 2.3125 5.171875 C 2.074219 5.167969 1.886719 5.445312 1.984375 5.664062 L 2.476562 6.742188 L 2.335938 7.003906 L 1.167969 7.195312 C 0.929688 7.234375 0.800781 7.542969 0.941406 7.738281 L 1.632812 8.699219 L 1.546875 8.984375 L 0.4375 9.398438 C 0.210938 9.484375 0.144531 9.816406 0.320312 9.980469 L 1.1875 10.789062 L 1.160156 11.082031 L 0.152344 11.707031 C 0.015625 11.789062 -0.0273438 11.960938 0.015625 12.109375 L 3.21875 12.109375 C 3.210938 11.730469 3.226562 11.355469 3.265625 10.980469 L 4.804688 10.296875 C 5.132812 10.152344 5.28125 9.765625 5.132812 9.4375 L 5.027344 9.195312 L 5.03125 9.195312 L 4.332031 7.625 C 4.675781 7.011719 5.09375 6.441406 5.574219 5.925781 L 5.582031 5.933594 C 6.855469 4.566406 8.53125 3.640625 10.371094 3.292969 L 11.46875 4.445312 C 11.71875 4.703125 12.128906 4.714844 12.390625 4.464844 L 13.617188 3.289062 C 16.15625 3.765625 18.351562 5.332031 19.632812 7.570312 L 18.789062 9.472656 C 18.644531 9.800781 18.792969 10.183594 19.121094 10.332031 L 20.742188 11.050781 C 20.769531 11.339844 20.785156 11.632812 20.785156 11.925781 L 20.792969 11.925781 C 20.792969 11.984375 20.789062 12.046875 20.789062 12.109375 L 23.984375 12.109375 C 24.027344 11.960938 23.984375 11.789062 23.847656 11.707031 L 22.839844 11.082031 L 22.8125 10.789062 L 23.679688 9.980469 C 23.855469 9.816406 23.789062 9.484375 23.5625 9.398438 L 22.457031 8.984375 L 22.367188 8.699219 L 23.058594 7.738281 C 23.199219 7.542969 23.070312 7.234375 22.832031 7.195312 L 21.664062 7.003906 L 21.523438 6.742188 L 22.015625 5.664062 C 22.117188 5.445312 21.929688 5.164062 21.6875 5.171875 L 20.5 5.214844 L 20.316406 4.988281 L 20.585938 3.832031 C 20.640625 3.597656 20.402344 3.359375 20.167969 3.414062 L 19.015625 3.6875 L 18.785156 3.5 L 18.828125 2.3125 C 18.835938 2.074219 18.558594 1.886719 18.335938 1.984375 L 17.261719 2.476562 L 16.996094 2.335938 L 16.808594 1.167969 C 16.769531 0.929688 16.457031 0.800781 16.261719 0.941406 L 15.300781 1.632812 L 15.015625 1.546875 L 14.601562 0.4375 C 14.519531 0.214844 14.1875 0.148438 14.023438 0.324219 L 13.214844 1.191406 L 12.921875 1.160156 L 12.296875 0.152344 C 12.234375 0.0507812 12.117188 0 12 0 Z M 11.964844 2.113281 C 12.359375 2.117188 12.675781 2.433594 12.675781 2.828125 C 12.675781 3.777344 11.25 3.777344 11.25 2.828125 C 11.25 2.433594 11.570312 2.113281 11.964844 2.113281 Z M 3.453125 8.574219 C 3.847656 8.574219 4.164062 8.894531 4.164062 9.285156 C 4.164062 10.238281 2.738281 10.238281 2.738281 9.285156 C 2.738281 8.890625 3.058594 8.570312 3.453125 8.574219 Z M 20.476562 8.605469 C 20.867188 8.609375 21.1875 8.925781 21.1875 9.320312 C 21.1875 10.269531 19.761719 10.269531 19.761719 9.320312 C 19.761719 8.925781 20.082031 8.605469 20.476562 8.605469 Z M 20.476562 8.605469 "/>
<path style=" stroke:none;fill-rule:nonzero;fill:url(#linear0);" d="M 3.226562 5.460938 L 7.769531 0.871094 L 7.769531 22.207031 L 3.226562 17.671875 Z M 3.226562 5.460938 "/>
<path style=" stroke:none;fill-rule:nonzero;fill:url(#linear1);" d="M 20.785156 5.496094 L 16.175781 0.867188 L 16.269531 22.203125 L 20.816406 17.667969 Z M 20.785156 5.496094 "/>
<path style=" stroke:none;fill-rule:nonzero;fill:url(#linear2);" d="M 7.765625 0.875 L 19.582031 18.902344 L 16.273438 22.207031 L 4.453125 4.222656 Z M 7.765625 0.875 "/>
<path style=" stroke:none;fill-rule:nonzero;fill:rgb(0%,0%,0%);fill-opacity:0.129412;" d="M 7.769531 9.238281 L 7.765625 9.945312 L 4.117188 4.5625 L 4.453125 4.21875 Z M 7.769531 9.238281 "/>
<path style=" stroke:none;fill-rule:nonzero;fill:rgb(10.196078%,10.196078%,10.196078%);fill-opacity:1;" d="M 0 12.023438 C 0.0078125 12.128906 0.0546875 12.238281 0.152344 12.296875 L 1.160156 12.921875 L 1.1875 13.214844 L 0.320312 14.023438 C 0.144531 14.1875 0.210938 14.515625 0.4375 14.601562 L 1.546875 15.015625 L 1.632812 15.300781 L 0.941406 16.261719 C 0.800781 16.457031 0.929688 16.769531 1.167969 16.808594 L 2.335938 16.996094 L 2.476562 17.257812 L 1.984375 18.335938 C 1.882812 18.554688 2.074219 18.835938 2.3125 18.828125 L 3.5 18.785156 L 3.6875 19.015625 L 3.414062 20.167969 C 3.359375 20.402344 3.597656 20.640625 3.832031 20.585938 L 4.984375 20.3125 L 5.214844 20.5 L 5.171875 21.6875 C 5.164062 21.925781 5.445312 22.113281 5.664062 22.015625 L 6.742188 21.523438 L 7.003906 21.664062 L 7.195312 22.832031 C 7.230469 23.070312 7.542969 23.199219 7.738281 23.058594 L 8.699219 22.367188 L 8.984375 22.453125 L 9.398438 23.5625 C 9.484375 23.785156 9.816406 23.851562 9.976562 23.675781 L 10.789062 22.808594 L 11.082031 22.839844 L 11.707031 23.847656 C 11.832031 24.050781 12.167969 24.050781 12.296875 23.847656 L 12.921875 22.839844 L 13.214844 22.808594 L 14.023438 23.675781 C 14.1875 23.851562 14.515625 23.785156 14.601562 23.5625 L 15.015625 22.453125 L 15.300781 22.367188 L 16.261719 23.058594 C 16.457031 23.199219 16.769531 23.070312 16.808594 22.832031 L 16.996094 21.664062 L 17.261719 21.523438 L 18.335938 22.015625 C 18.558594 22.113281 18.835938 21.925781 18.828125 21.6875 L 18.785156 20.5 L 19.015625 20.3125 L 20.167969 20.585938 C 20.402344 20.640625 20.640625 20.402344 20.585938 20.167969 L 20.316406 19.015625 L 20.5 18.785156 L 21.6875 18.828125 C 21.925781 18.835938 22.117188 18.554688 22.015625 18.335938 L 21.523438 17.257812 L 21.664062 16.996094 L 22.832031 16.808594 C 23.070312 16.769531 23.199219 16.457031 23.058594 16.261719 L 22.367188 15.300781 L 22.453125 15.015625 L 23.5625 14.601562 C 23.789062 14.515625 23.855469 14.1875 23.675781 14.023438 L 22.8125 13.214844 L 22.839844 12.921875 L 23.847656 12.296875 C 23.945312 12.238281 23.992188 12.128906 24 12.023438 L 20.789062 12.023438 C 20.769531 14.035156 20.054688 15.984375 18.765625 17.535156 L 18.761719 17.535156 C 18.605469 17.722656 18.4375 17.902344 18.265625 18.078125 L 16.753906 17.753906 C 16.402344 17.679688 16.058594 17.902344 15.980469 18.253906 L 15.625 19.925781 C 13.292969 20.980469 10.621094 20.96875 8.300781 19.890625 L 7.941406 18.21875 C 7.867188 17.867188 7.519531 17.644531 7.167969 17.71875 L 5.695312 18.035156 C 5.46875 17.800781 5.253906 17.554688 5.054688 17.300781 L 5.046875 17.304688 C 4.292969 16.332031 3.75 15.207031 3.457031 14.011719 L 3.464844 14.007812 C 3.304688 13.359375 3.226562 12.691406 3.21875 12.023438 Z M 6.679688 18.625 C 7.074219 18.625 7.390625 18.945312 7.390625 19.339844 C 7.390625 20.289062 5.964844 20.289062 5.964844 19.339844 C 5.964844 18.945312 6.285156 18.625 6.679688 18.625 Z M 17.25 18.660156 C 17.644531 18.660156 17.960938 18.980469 17.960938 19.371094 C 17.960938 20.324219 16.535156 20.324219 16.535156 19.371094 C 16.535156 18.976562 16.855469 18.65625 17.25 18.660156 Z M 17.25 18.660156 "/>
</g>
</svg>
