<svg xmlns="http://www.w3.org/2000/svg" width="24" height="24" viewBox="0 0 24 24"><path d="M11.800 0.072 C 11.751 0.112,11.572 0.368,11.402 0.641 C 11.127 1.086,11.079 1.142,10.954 1.172 C 10.816 1.204,10.807 1.198,10.497 0.873 C 10.323 0.691,10.115 0.474,10.035 0.391 C 9.915 0.267,9.862 0.240,9.732 0.240 C 9.632 0.240,9.545 0.268,9.493 0.317 C 9.447 0.359,9.314 0.654,9.197 0.973 C 8.991 1.535,8.980 1.553,8.845 1.594 C 8.710 1.636,8.693 1.628,8.312 1.355 C 8.096 1.199,7.888 1.033,7.850 0.986 C 7.802 0.928,7.727 0.897,7.614 0.889 C 7.373 0.874,7.211 1.018,7.176 1.279 C 7.153 1.454,7.116 1.509,6.772 1.876 C 6.564 2.098,6.377 2.280,6.357 2.280 C 6.337 2.280,6.160 2.208,5.965 2.120 C 5.552 1.934,5.446 1.924,5.292 2.057 L 5.180 2.154 5.193 2.807 L 5.206 3.460 5.089 3.572 L 4.971 3.684 4.350 3.539 C 3.768 3.403,3.720 3.398,3.610 3.455 C 3.383 3.572,3.374 3.682,3.536 4.361 L 3.681 4.967 3.595 5.086 L 3.510 5.206 2.905 5.200 C 2.572 5.196,2.268 5.194,2.228 5.196 C 2.115 5.202,1.960 5.383,1.961 5.508 C 1.961 5.570,2.076 5.871,2.216 6.178 C 2.466 6.728,2.470 6.739,2.409 6.866 C 2.339 7.012,2.366 7.003,1.628 7.123 C 1.119 7.206,1.069 7.222,0.978 7.329 C 0.808 7.532,0.821 7.569,1.304 8.244 C 1.627 8.695,1.635 8.712,1.594 8.847 C 1.555 8.972,1.523 8.996,1.246 9.098 C 0.325 9.439,0.314 9.444,0.259 9.575 C 0.166 9.798,0.218 9.887,0.718 10.355 C 1.186 10.793,1.188 10.796,1.164 10.946 C 1.140 11.089,1.112 11.114,0.653 11.399 C 0.048 11.774,0.000 11.817,0.000 11.986 C -0.000 12.170,0.130 12.294,0.686 12.634 C 1.124 12.903,1.152 12.928,1.168 13.063 C 1.184 13.197,1.165 13.226,0.902 13.478 C 0.747 13.627,0.550 13.810,0.464 13.884 C 0.247 14.072,0.181 14.238,0.256 14.416 C 0.316 14.559,0.278 14.541,1.234 14.900 C 1.488 14.995,1.536 15.029,1.585 15.146 L 1.642 15.282 1.280 15.789 C 1.081 16.068,0.907 16.337,0.894 16.389 C 0.865 16.504,0.947 16.710,1.042 16.761 C 1.081 16.782,1.387 16.844,1.723 16.899 C 2.058 16.954,2.336 17.004,2.341 17.010 C 2.346 17.015,2.377 17.074,2.411 17.140 C 2.470 17.257,2.465 17.275,2.217 17.820 C 2.076 18.128,1.961 18.428,1.961 18.488 C 1.960 18.547,2.004 18.646,2.057 18.708 L 2.153 18.820 2.842 18.820 L 3.531 18.820 3.608 18.923 C 3.685 19.025,3.685 19.027,3.538 19.638 C 3.399 20.215,3.394 20.259,3.452 20.379 C 3.565 20.617,3.674 20.627,4.365 20.461 C 4.973 20.315,4.975 20.315,5.077 20.392 L 5.180 20.469 5.180 21.158 L 5.180 21.847 5.292 21.943 C 5.354 21.996,5.453 22.040,5.512 22.039 C 5.572 22.039,5.872 21.924,6.180 21.783 C 6.725 21.535,6.743 21.530,6.860 21.589 C 6.926 21.623,6.985 21.654,6.990 21.659 C 6.996 21.664,7.046 21.945,7.101 22.284 C 7.194 22.859,7.208 22.907,7.321 23.010 C 7.525 23.197,7.563 23.184,8.246 22.695 C 8.690 22.376,8.717 22.363,8.837 22.405 C 8.988 22.458,8.986 22.455,9.222 23.094 C 9.326 23.376,9.448 23.641,9.493 23.683 C 9.545 23.732,9.633 23.760,9.732 23.760 C 9.862 23.760,9.915 23.733,10.035 23.609 C 10.115 23.526,10.321 23.311,10.493 23.130 C 10.799 22.810,10.810 22.803,10.950 22.833 C 11.082 22.860,11.121 22.905,11.403 23.359 C 11.740 23.903,11.831 24.000,12.004 24.000 C 12.168 24.000,12.305 23.851,12.634 23.314 C 12.905 22.873,12.928 22.848,13.067 22.832 C 13.206 22.815,13.228 22.831,13.517 23.137 C 14.123 23.782,14.096 23.760,14.268 23.760 C 14.484 23.760,14.568 23.668,14.711 23.273 C 15.005 22.466,15.000 22.476,15.145 22.415 L 15.282 22.358 15.789 22.720 C 16.068 22.919,16.337 23.093,16.389 23.106 C 16.506 23.135,16.687 23.062,16.751 22.959 C 16.778 22.916,16.845 22.608,16.900 22.274 C 16.954 21.940,17.004 21.664,17.010 21.659 C 17.015 21.654,17.075 21.622,17.143 21.588 C 17.263 21.527,17.276 21.531,17.823 21.782 C 18.129 21.924,18.428 22.039,18.488 22.040 C 18.547 22.040,18.646 21.996,18.708 21.943 L 18.820 21.847 18.820 21.158 L 18.820 20.469 18.923 20.392 C 19.025 20.315,19.027 20.315,19.635 20.461 C 20.326 20.627,20.435 20.617,20.548 20.379 C 20.606 20.259,20.601 20.215,20.463 19.637 C 20.318 19.027,20.317 19.023,20.393 18.922 L 20.469 18.820 21.158 18.820 L 21.847 18.820 21.943 18.708 C 21.996 18.646,22.040 18.547,22.039 18.488 C 22.039 18.428,21.924 18.128,21.783 17.820 C 21.535 17.275,21.530 17.257,21.589 17.140 C 21.623 17.074,21.654 17.015,21.659 17.010 C 21.664 17.004,21.945 16.954,22.284 16.899 C 22.859 16.806,22.907 16.792,23.010 16.679 C 23.197 16.475,23.184 16.437,22.693 15.752 L 22.358 15.283 22.415 15.147 C 22.464 15.029,22.512 14.995,22.766 14.900 C 23.701 14.549,23.669 14.565,23.737 14.420 C 23.794 14.300,23.795 14.266,23.747 14.150 C 23.716 14.076,23.630 13.966,23.555 13.904 C 23.481 13.842,23.284 13.660,23.118 13.499 C 22.835 13.225,22.816 13.197,22.832 13.063 C 22.848 12.928,22.877 12.903,23.314 12.634 C 23.870 12.294,24.000 12.170,24.000 11.986 C 24.000 11.817,23.952 11.774,23.347 11.399 C 22.888 11.114,22.860 11.089,22.836 10.946 C 22.812 10.796,22.814 10.793,23.282 10.355 C 23.782 9.887,23.834 9.798,23.741 9.575 C 23.686 9.444,23.676 9.439,22.753 9.098 C 22.465 8.991,22.443 8.975,22.409 8.839 C 22.374 8.703,22.385 8.676,22.559 8.437 C 22.956 7.893,23.120 7.631,23.120 7.541 C 23.120 7.489,23.076 7.394,23.022 7.329 C 22.931 7.222,22.881 7.206,22.372 7.123 C 21.634 7.003,21.661 7.012,21.591 6.866 C 21.530 6.739,21.534 6.728,21.784 6.178 C 21.924 5.871,22.039 5.570,22.039 5.508 C 22.040 5.394,21.889 5.203,21.792 5.196 C 21.763 5.194,21.454 5.190,21.105 5.186 C 20.474 5.180,20.469 5.179,20.393 5.078 C 20.317 4.978,20.318 4.973,20.463 4.363 C 20.601 3.785,20.606 3.741,20.548 3.621 C 20.436 3.385,20.330 3.375,19.639 3.540 L 19.027 3.686 18.924 3.608 L 18.820 3.531 18.820 2.842 L 18.820 2.153 18.708 2.057 C 18.553 1.924,18.440 1.937,18.000 2.139 L 17.620 2.314 17.250 1.946 C 16.891 1.590,16.878 1.571,16.836 1.333 C 16.777 1.000,16.672 0.900,16.377 0.900 C 16.211 0.900,16.160 0.914,16.160 0.960 C 16.159 0.993,15.965 1.159,15.727 1.329 C 15.307 1.629,15.292 1.636,15.155 1.594 C 15.017 1.552,15.008 1.536,14.801 0.972 C 14.684 0.653,14.552 0.358,14.507 0.316 C 14.455 0.268,14.367 0.240,14.268 0.240 C 14.096 0.240,14.125 0.216,13.508 0.872 C 13.209 1.190,13.191 1.202,13.058 1.177 C 12.933 1.154,12.893 1.107,12.634 0.686 C 12.477 0.429,12.297 0.171,12.234 0.110 C 12.099 -0.019,11.930 -0.034,11.800 0.072 M12.299 2.211 C 12.860 2.529,12.756 3.381,12.139 3.512 C 11.936 3.555,11.692 3.516,11.538 3.415 C 11.210 3.200,11.170 2.581,11.467 2.312 C 11.688 2.112,12.047 2.069,12.299 2.211 M14.100 3.402 C 14.620 3.529,15.290 3.768,15.771 3.998 L 16.190 4.198 16.208 8.969 C 16.219 11.593,16.224 13.745,16.220 13.750 C 16.210 13.765,9.568 3.626,9.539 3.552 C 9.519 3.500,9.579 3.473,9.872 3.404 C 10.069 3.358,10.267 3.320,10.312 3.320 C 10.366 3.320,10.592 3.528,10.967 3.920 C 11.282 4.250,11.596 4.547,11.666 4.580 C 11.828 4.657,12.054 4.657,12.214 4.579 C 12.283 4.545,12.628 4.240,12.980 3.901 C 13.358 3.537,13.645 3.290,13.680 3.299 C 13.713 3.308,13.902 3.354,14.100 3.402 M3.240 9.300 C 3.240 9.663,3.225 9.960,3.206 9.960 C 3.121 9.960,2.893 9.765,2.830 9.639 C 2.744 9.469,2.738 9.118,2.819 8.963 C 2.887 8.830,3.102 8.640,3.183 8.640 C 3.230 8.640,3.240 8.756,3.240 9.300 M20.968 8.830 C 21.125 8.999,21.171 9.115,21.169 9.344 C 21.166 9.613,21.057 9.825,20.870 9.925 C 20.805 9.960,20.800 9.922,20.800 9.341 C 20.800 9.000,20.815 8.720,20.833 8.720 C 20.850 8.720,20.911 8.770,20.968 8.830 M11.478 14.913 C 13.439 17.898,14.915 20.181,14.895 20.201 C 14.828 20.268,13.895 20.513,13.360 20.603 C 12.558 20.739,11.371 20.733,10.560 20.588 C 9.914 20.474,9.203 20.270,8.662 20.045 L 8.304 19.896 8.111 18.998 C 7.985 18.408,7.891 18.063,7.839 17.992 C 7.761 17.885,7.760 17.808,7.760 13.572 L 7.760 9.261 7.893 9.461 C 7.967 9.570,9.580 12.024,11.478 14.913 " stroke="none" fill-rule="evenodd" fill="#000"></path></svg>