<svg xmlns="http://www.w3.org/2000/svg" width="24" height="24" viewBox="0 0 24 24"><path d="M14.820 0.378 C 14.025 0.531,13.334 0.903,12.754 1.488 C 12.200 2.048,11.864 2.673,11.742 3.375 C 11.632 4.006,11.668 4.359,11.963 5.510 C 12.071 5.933,12.160 6.286,12.160 6.294 C 12.160 6.303,12.021 6.359,11.850 6.420 C 11.429 6.571,10.688 6.923,10.365 7.125 C 8.908 8.039,7.953 9.442,7.656 11.100 C 7.506 11.941,7.579 13.140,7.828 13.940 C 8.235 15.240,9.216 16.386,10.314 16.843 C 11.738 17.436,13.443 17.265,14.584 16.416 C 15.419 15.795,16.074 14.873,16.343 13.940 C 16.469 13.503,16.514 12.776,16.444 12.320 C 16.418 12.155,16.206 11.295,15.972 10.410 C 15.739 9.524,15.558 8.788,15.572 8.775 C 15.615 8.732,16.155 8.919,16.500 9.097 C 17.199 9.457,18.043 10.174,18.544 10.835 C 18.821 11.201,19.221 11.968,19.359 12.400 C 19.556 13.014,19.615 13.424,19.616 14.180 C 19.617 14.770,19.601 14.982,19.527 15.353 C 19.217 16.908,18.460 18.228,17.310 19.222 C 16.383 20.021,15.437 20.517,14.260 20.820 C 11.542 21.519,8.934 20.944,6.899 19.197 C 5.713 18.179,4.726 16.632,4.260 15.058 C 4.021 14.254,3.981 13.931,3.983 12.840 C 3.985 11.945,3.994 11.813,4.092 11.314 C 4.640 8.518,6.150 6.494,8.585 5.295 C 8.891 5.144,9.272 4.959,9.431 4.885 C 10.298 4.482,10.503 3.429,9.842 2.773 C 9.591 2.524,9.361 2.427,8.978 2.408 C 8.686 2.394,8.623 2.405,8.294 2.532 C 5.968 3.431,3.991 5.166,2.704 7.440 C 1.332 9.864,0.985 12.746,1.720 15.620 C 2.215 17.558,3.100 19.098,4.560 20.562 C 5.541 21.546,6.334 22.125,7.460 22.681 C 9.826 23.848,12.600 24.062,15.209 23.279 C 16.950 22.756,18.343 21.941,19.494 20.772 C 20.263 19.991,20.814 19.209,21.322 18.180 C 21.977 16.855,22.240 15.727,22.240 14.249 C 22.240 12.782,22.011 11.743,21.422 10.540 C 20.871 9.416,20.116 8.497,19.020 7.618 C 18.280 7.025,17.520 6.609,16.687 6.343 C 16.207 6.189,15.437 6.040,15.124 6.040 C 15.020 6.040,14.904 6.017,14.866 5.989 C 14.783 5.928,14.321 4.226,14.320 3.978 C 14.320 3.642,14.641 3.207,15.015 3.037 C 15.222 2.943,15.651 2.936,15.981 3.022 C 16.255 3.093,16.595 3.276,16.940 3.537 C 17.236 3.762,17.505 3.858,17.820 3.852 C 18.334 3.843,18.778 3.560,18.982 3.112 C 19.078 2.901,19.097 2.808,19.097 2.540 C 19.096 2.017,18.927 1.741,18.343 1.313 C 17.777 0.897,17.060 0.577,16.340 0.417 C 15.951 0.331,15.168 0.310,14.820 0.378 M13.176 10.070 C 13.868 12.680,13.847 12.590,13.830 12.942 C 13.797 13.643,13.331 14.235,12.617 14.481 C 12.328 14.581,11.868 14.590,11.574 14.501 C 11.143 14.372,10.714 13.988,10.482 13.527 C 10.256 13.077,10.143 12.170,10.238 11.572 C 10.381 10.676,10.945 9.859,11.779 9.339 C 12.084 9.149,12.680 8.882,12.800 8.881 C 12.845 8.881,12.939 9.178,13.176 10.070 " stroke="none" fill-rule="evenodd" fill="black"></path></svg>