<svg width="24" height="24" xmlns="http://www.w3.org/2000/svg">
  <path fill="#fbec5d" fill-rule="evenodd"
    d="m2.572 4.006-1.55 1.553-.092.179-.092.178v.633l.09.198.09.198 2.244 2.24 2.245 2.24.15.068c.083.037.243.083.356.102l.206.033 1.575-1.57 1.575-1.57.103-.21.104-.21v-.53l-.087-.2-.087-.2-2.284-2.279-2.284-2.278-.195-.064a1.389 1.389 0 0 0-.357-.065H4.12L2.572 4.006m11.93 11.97-1.574 1.577-.08.208-.078.207v.501l.117.234.117.234 2.248 2.241L17.5 23.42l.195.065c.107.035.267.064.355.064h.16l1.536-1.533 1.536-1.534.118-.234.117-.234v-.244a1.69 1.69 0 0 0-.065-.439l-.064-.195-2.26-2.267-2.262-2.267-.177-.086a1.282 1.282 0 0 0-.396-.1l-.218-.015-1.574 1.576"
    style="fill:#000;stroke-width:.0395796" />
  <path fill="#daeffb" fill-rule="evenodd"
    d="M13.537 1.156c-.168.13-.229.21-.474.615a5.65 5.65 0 0 0-.731 2.099l-.047.328.021.7.021.701.086.396c.133.62.348 1.217.661 1.84a7.685 7.685 0 0 0 2.637 2.97c.81.539 1.681.906 2.64 1.113l.415.09.812.001.81.002.413-.092c.51-.114.87-.241 1.323-.468.598-.298.97-.587 1.037-.805a.68.68 0 0 0-.036-.465c-.075-.145-8.87-8.982-9.013-9.056a.75.75 0 0 0-.286-.058h-.175l-.114.089M4.465 2.288c-.116.041-.23.095-.255.12l-.045.044h.14c.076 0 .227.03.334.065l.195.064L7.118 4.86l2.284 2.278.087.2.086.2v.517l-.086.197-.087.197-1.571 1.578-1.572 1.578.152-.023c.083-.012.226-.058.316-.102l.165-.08 1.569-1.575 1.568-1.574.088-.238.088-.237-.018-.259c-.01-.142-.05-.329-.089-.415l-.071-.157L7.769 4.68 5.51 2.416l-.198-.085a1.565 1.565 0 0 0-.417-.102l-.22-.016-.21.075m15.132.083-.277.072-.297.314c-.164.173-.507.538-.762.811l-.466.497v.26l.842.855.84.854.152.036.152.036.786-.785.786-.785.067-.37c.078-.436.067-.53-.108-.938l-.132-.307-.218-.18c-.12-.1-.342-.24-.494-.314l-.276-.133-.16.002a2.366 2.366 0 0 0-.435.075m-8.55 6.519-.198.066-2.524 2.517L5.8 13.99l-.107.217-.108.218.003.277.002.277.094.198c.052.109.096.21.097.223.001.014-.438.473-.977 1.02-.539.548-1.015 1.066-1.059 1.152l-.08.155v.481l.077.147c.094.18 1.874 1.955 2.05 2.043.165.083.57.083.735 0 .07-.035.584-.519 1.143-1.076l1.017-1.012.142.125c.226.198.45.294.734.314l.257.018.218-.083.218-.082 2.56-2.563 2.56-2.564.067-.235.067-.234-.02-.223a1.33 1.33 0 0 0-.121-.419l-.1-.195-1.577-1.57-1.576-1.57-.172-.085a1.261 1.261 0 0 0-.435-.102l-.264-.018-.198.066m5.363 5.341c-.098.036-.21.087-.249.115l-.07.05.211.017c.116.01.29.056.388.103l.176.085 2.26 2.267 2.261 2.267.065.195c.035.107.064.305.064.439v.244l-.117.234-.117.234-1.537 1.533-1.536 1.534h.1c.055 0 .198-.045.318-.1l.218-.099 1.552-1.572 1.553-1.573.086-.178.087-.179.003-.277.004-.277-.074-.198-.075-.197-2.24-2.248-2.242-2.248-.207-.102-.208-.102-.248-.015-.247-.016-.178.064"
    style="fill:#000;stroke-width:.0395796" />
</svg>