<?xml version="1.0" encoding="UTF-8" standalone="no"?>
<svg
   width="24"
   height="24"
   viewBox="0 0 0.72 0.72"
   version="1.1"
   id="svg1"
   sodipodi:docname=":netflix:.svg"
   inkscape:version="1.4.3 (0d15f75, 2025-12-25)"
   xmlns:inkscape="http://www.inkscape.org/namespaces/inkscape"
   xmlns:sodipodi="http://sodipodi.sourceforge.net/DTD/sodipodi-0.dtd"
   xmlns="http://www.w3.org/2000/svg"
   xmlns:svg="http://www.w3.org/2000/svg">
  <defs
     id="defs1" />
  <sodipodi:namedview
     id="namedview1"
     pagecolor="#505050"
     bordercolor="#ffffff"
     borderopacity="1"
     inkscape:showpageshadow="0"
     inkscape:pageopacity="0"
     inkscape:pagecheckerboard="1"
     inkscape:deskcolor="#505050"
     inkscape:zoom="10.905977"
     inkscape:cx="12.516073"
     inkscape:cy="20.585043"
     inkscape:window-width="1710"
     inkscape:window-height="1044"
     inkscape:window-x="0"
     inkscape:window-y="40"
     inkscape:window-maximized="0"
     inkscape:current-layer="svg1" />
  <path
     fill-rule="evenodd"
     d="m 0.16172052,0.36257196 c 2.1434e-4,0.19787557 7.6374e-4,0.36007365 0.001191,0.36050129 4.2732e-4,4.2732e-4 0.0160976,-8.5463e-4 0.0348222,-0.002871 a 1.6189263,1.6189263 0 0 1 0.08394,-0.007392 c 0.0115464,-7.3254e-4 0.0212904,-0.001619 0.0216264,-0.001924 3.0522e-4,-3.0522e-4 8.5463e-4,-0.0685447 0.001222,-0.15156815 l 5.806e-4,-0.15095724 0.005193,0.0144176 c 0.004459,0.0124322 0.0468572,0.13241595 0.0887049,0.2510863 0.006995,0.0197936 0.0131957,0.0366244 0.0137456,0.0373575 6.4164e-4,7.6374e-4 0.008461,0.001649 0.0193966,0.002138 0.0262693,0.001161 0.0621607,0.003971 0.0939893,0.007392 0.0152118,0.001619 0.0288352,0.002932 0.0303319,0.002932 h 0.002719 V 0.00292598 H 0.41744979 l -3.0546e-4,0.15859367 -3.0545e-4,0.15859369 -0.005131,-0.0141428 c -0.00281,-0.007789 -0.0208323,-0.0587395 -0.040076,-0.11323319 L 0.32071128,0.04856136 0.3047664,0.00350634 0.23301435,0.00320089 0.16129286,0.00289543 Z"
     style="stroke-width:0.000900972"
     id="path1" />
</svg>
