<svg xmlns="http://www.w3.org/2000/svg" width="800" height="800" viewBox="0 0 24 24"><path fill-rule="evenodd" d="M5.527 12.1c.007 6.478.025 11.788.039 11.802s.527-.028 1.14-.094a53 53 0 0 1 2.748-.242c.378-.024.697-.053.708-.063.01-.01.028-2.244.04-4.962l.019-4.942.17.472c.146.407 1.534 4.335 2.904 8.22.229.648.432 1.199.45 1.223.021.025.277.054.635.07.86.038 2.035.13 3.077.242.498.053.944.096.993.096h.089V.326h-4.64l-.01 5.192-.01 5.192-.168-.463c-.092-.255-.682-1.923-1.312-3.707l-1.667-4.72L10.21.345 7.861.335 5.513.325z" style="stroke-width:.0294958"/></svg>
