<?xml version="1.0" encoding="UTF-8" standalone="no"?>
<!-- Generator: Adobe Illustrator 24.3.0, SVG Export Plug-In . SVG Version: 6.00 Build 0)  -->
<svg version="1.1" x="0px" y="0px" viewBox="0 0 884.15997 884.15997" xml:space="preserve" id="svg14" width="884.15997" height="884.15997" xmlns="http://www.w3.org/2000/svg" xmlns:svg="http://www.w3.org/2000/svg"><defs id="defs14"/>
<style type="text/css" id="style1">
	.st0{fill:#A4A2A1;}
</style>

<g id="Calque_2" transform="matrix(3,0,0,3,-34.92,-34.92)">
	<g id="g14">
		<path class="st0" d="M 159,11.64 11.64,159 159,306.36 306.36,159 Z M 24.13,159 159,24.13 293.87,159 159,293.87 Z" id="path1"/>
		<path class="st0" d="m 144.92,136.5 -11.91,-13.41 -2.28,1.94 v 90.13 C 110.37,204.72 96.44,183.49 96.44,159 c 0,-26.8 16.69,-49.7 40.21,-58.82 v -4.26 c -25.77,9.32 -44.2,34.04 -44.2,63.09 0,27.77 16.85,51.6 40.86,61.78 1.1,0.46 2.21,0.9 3.34,1.31 v -82.8 l 8.26,9.34 V 136.5 Z m 36.71,-40.75 v 82.06 l -8.26,-9.29 0.05,12.32 11.72,13.25 2.71,-1.54 v -89.79 c 20.43,10.42 34.43,31.69 34.43,56.23 0,26.96 -16.89,49.97 -40.64,58.99 v 4.25 c 26,-9.19 44.63,-34.04 44.63,-63.24 -0.02,-29.2 -18.64,-54.04 -44.64,-63.24" id="path2"/>
		<path class="st0" d="m 133.27,208.23 c -17.57,-9.37 -29.53,-27.9 -29.53,-49.24 0,-22.68 13.52,-42.2 32.91,-50.9 v -4.23 c -21.6,8.94 -36.79,30.26 -36.79,55.13 0,23.66 13.75,44.1 33.68,53.73 m 50.33,-103.78 c 1.35,0.67 2.68,1.39 3.97,2.16 16.25,9.73 27.14,27.53 27.14,47.89 0,22.85 -13.72,42.48 -33.34,51.09 v 4.21 c 21.82,-8.83 37.22,-30.27 37.22,-55.3 0,-25.03 -15.4,-46.47 -37.22,-55.3" id="path3"/>
		<path class="st0" d="m 185.22,118.07 c 13.5,8.59 22.46,23.7 22.46,40.92 0,18.69 -10.57,34.92 -26.05,42.98 v 4.34 c 17.69,-8.37 29.92,-26.42 29.92,-47.32 0,-20.59 -11.87,-38.41 -29.13,-46.94 M 133.8,200.1 c -13.67,-8.55 -22.77,-23.77 -22.77,-41.11 0,-18.52 10.38,-34.62 25.62,-42.76 v -4.36 c -17.45,8.46 -29.49,26.38 -29.49,47.12 0,19.49 10.63,36.48 26.4,45.49" id="path4"/>
		<path class="st0" d="M 177.21,167.86 V 51.66 h -36.2 v 75.16 l 3.88,4.5 v -75.9 h 28.48 v 108.5 z m -3.84,18.93 v 74.29 H 144.89 V 153.47 l -3.88,-3.85 v 115.3 h 36.2 v -74.26 z" id="path5"/>
		<g id="g13">
			<g id="g12">
				<path class="st0" d="M 148.87,84.67 V 59.21 h 3.46 L 165.7,79.2 V 59.21 h 3.23 v 25.46 h -3.46 L 152.1,64.66 v 20.01 z" id="path6"/>
				<path class="st0" d="M 149.95,113.53 V 88.07 h 18.41 v 3 h -15.04 v 7.8 h 14.09 v 2.99 h -14.09 v 8.67 h 15.63 v 3 z" id="path7"/>
				<path class="st0" d="m 165.61,116.94 h 3.37 v 14.71 c 0,2.56 -0.29,4.59 -0.87,6.1 -0.58,1.5 -1.62,2.73 -3.14,3.67 -1.51,0.94 -3.49,1.42 -5.95,1.42 -2.39,0 -4.34,-0.41 -5.85,-1.23 -1.52,-0.82 -2.6,-2.01 -3.25,-3.57 -0.65,-1.56 -0.97,-3.69 -0.97,-6.38 v -14.71 h 3.37 v 14.69 c 0,2.21 0.21,3.84 0.62,4.89 0.41,1.05 1.12,1.86 2.12,2.42 1,0.57 2.23,0.85 3.67,0.85 2.48,0 4.24,-0.56 5.3,-1.68 1.05,-1.12 1.58,-3.28 1.58,-6.48 z" id="path8"/>
				<path class="st0" d="m 148.87,229 v -25.46 h 3.46 l 13.37,19.99 v -19.99 h 3.23 V 229 h -3.46 L 152.1,208.99 V 229 Z" id="path9"/>
				<path class="st0" d="m 164.88,200.14 h 3.35 l -7.5,-25.66 h -3.5 l -7.52,25.67 3.37,-0.01 1.39,-4.75 h 9.02 z m -9.53,-7.75 1.21,-4.13 2.42,-8.29 2.42,8.29 1.21,4.13 z" id="path10"/>
				<path class="st0" d="m 165.7,170.63 h 3.23 v -25.46 h -3.23 -0.23 l -6.57,9.83 -6.57,-9.83 h -0.23 -3.23 v 25.46 h 3.23 v -20.01 l 6.8,10.17 6.8,-10.17 z m -6.8,-9.84" id="path11"/>
				<path class="st0" d="M 148.87,257.87 V 232.4 h 3.46 l 13.37,19.99 V 232.4 h 3.23 v 25.46 h -3.46 L 152.1,237.85 v 20.01 h -3.23 z" id="path12"/>
			</g>
		</g>
	</g>
</g>
</svg>