<svg version="1.1" x="0" y="0" xml:space="preserve" id="svg14" width="884.16" height="884.16"
	xmlns="http://www.w3.org/2000/svg">
	<style type="text/css" id="style1">
		.st0 {
			fill: #a4a2a1
		}
	</style>
	<g id="Calque_2" transform="matrix(3 0 0 3 -34.92 -34.92)">
		<g id="g14">
			<path class="st0" d="M159 11.64 11.64 159 159 306.36 306.36 159ZM24.13 159 159 24.13 293.87 159 159 293.87Z"
				id="path1" />
			<path class="st0"
				d="m144.92 136.5-11.91-13.41-2.28 1.94v90.13A63.05 63.05 0 0 1 96.44 159c0-26.8 16.69-49.7 40.21-58.82v-4.26a67.07 67.07 0 0 0-44.2 63.09 67.08 67.08 0 0 0 44.2 63.09v-82.8l8.26 9.34V136.5Zm36.71-40.75v82.06l-8.26-9.29.05 12.32 11.72 13.25 2.71-1.54v-89.79a63.08 63.08 0 0 1 34.43 56.23 63.09 63.09 0 0 1-40.64 58.99v4.25a67.1 67.1 0 0 0-.01-126.48"
				id="path2" />
			<path class="st0"
				d="M133.27 208.23a55.74 55.74 0 0 1-29.53-49.24 55.76 55.76 0 0 1 32.91-50.9v-4.23a59.64 59.64 0 0 0-36.79 55.13 59.63 59.63 0 0 0 33.68 53.73m50.33-103.78a55.74 55.74 0 0 1 31.11 50.05 55.77 55.77 0 0 1-33.34 51.09v4.21a59.64 59.64 0 0 0 37.22-55.3 59.64 59.64 0 0 0-37.22-55.3"
				id="path3" />
			<path class="st0"
				d="M185.22 118.07a48.42 48.42 0 0 1 22.46 40.92 48.41 48.41 0 0 1-26.05 42.98v4.34a52.31 52.31 0 0 0 29.92-47.32 52.32 52.32 0 0 0-29.13-46.94M133.8 200.1a48.42 48.42 0 0 1-22.77-41.11 48.44 48.44 0 0 1 25.62-42.76v-4.36a52.33 52.33 0 0 0-29.49 47.12 52.32 52.32 0 0 0 26.4 45.49"
				id="path4" />
			<path class="st0"
				d="M177.21 167.86V51.66h-36.2v75.16l3.88 4.5v-75.9h28.48v108.5zm-3.84 18.93v74.29h-28.48V153.47l-3.88-3.85v115.3h36.2v-74.26z"
				id="path5" />
			<g id="g13">
				<g id="g12">
					<path class="st0" d="M148.87 84.67V59.21h3.46L165.7 79.2V59.21h3.23v25.46h-3.46L152.1 64.66v20.01z"
						id="path6" />
					<path class="st0" d="M149.95 113.53V88.07h18.41v3h-15.04v7.8h14.09v2.99h-14.09v8.67h15.63v3z" id="path7" />
					<path class="st0"
						d="M165.61 116.94h3.37v14.71c0 2.56-.29 4.59-.87 6.1a7.4 7.4 0 0 1-3.14 3.67c-1.51.94-3.49 1.42-5.95 1.42-2.39 0-4.34-.41-5.85-1.23a7.02 7.02 0 0 1-3.25-3.57c-.65-1.56-.97-3.69-.97-6.38v-14.71h3.37v14.69c0 2.21.21 3.84.62 4.89a4.64 4.64 0 0 0 2.12 2.42c1 .57 2.23.85 3.67.85 2.48 0 4.24-.56 5.3-1.68 1.05-1.12 1.58-3.28 1.58-6.48z"
						id="path8" />
					<path class="st0" d="M148.87 229v-25.46h3.46l13.37 19.99v-19.99h3.23V229h-3.46l-13.37-20.01V229Z"
						id="path9" />
					<path class="st0"
						d="M164.88 200.14h3.35l-7.5-25.66h-3.5l-7.52 25.67 3.37-.01 1.39-4.75h9.02zm-9.53-7.75 1.21-4.13 2.42-8.29 2.42 8.29 1.21 4.13z"
						id="path10" />
					<path class="st0"
						d="M165.7 170.63h3.23v-25.46h-3.46L158.9 155l-6.57-9.83h-3.46v25.46h3.23v-20.01l6.8 10.17 6.8-10.17zm-6.8-9.84"
						id="path11" />
					<path class="st0" d="M148.87 257.87V232.4h3.46l13.37 19.99V232.4h3.23v25.46h-3.46l-13.37-20.01v20.01h-3.23z"
						id="path12" />
				</g>
			</g>
		</g>
	</g>
</svg>