<svg xmlns="http://www.w3.org/2000/svg" xml:space="preserve" width="28" height="28" style="clip-rule:evenodd;fill-rule:evenodd;stroke-linejoin:round;stroke-miterlimit:2"><path d="M15.227 41.996c5.668 9.811 13.295 17.606 22.952 23.219H18.172c-1.627 0-2.945-1.332-2.945-2.974zM15.227 17.794c0-1.638 1.314-2.965 2.935-2.965h9.997l36.968 37.284v10.022c0 .817-.321 1.6-.893 2.178a3.036 3.036 0 0 1-2.156.902h-9.926L15.227 27.931M42.18 14.829h19.998c.782 0 1.532.314 2.085.872.554.559.864 1.317.864 2.107v20.211C59.44 28.46 51.853 20.651 42.18 14.829Z" style="fill:#fd415e" transform="matrix(.54764 0 0 .54228 -7.97 -7.616)"/></svg>
