<svg xmlns="http://www.w3.org/2000/svg" width="24" height="24"><path fill="#d38c2d" d="M.144.957v22.1a.852.92 0 0 0 .852.92H3.55a.852.92 0 0 0 .852-.92V5.56h.852c.47 0 1.24-.018 1.698.092.886.213 1.428.799 1.625 1.756.102.496.085 1.327.085 1.836v13.812a.852.92 0 0 0 .852.92h2.555a.852.92 0 0 0 .852-.92v-2.763h3.407v2.763a.852.92 0 0 0 .852.92h2.556a.852.92 0 0 0 .852-.92v-2.763h2.555a.852.92 0 0 0 .852-.92V16.61l-.852-.92H20.59v-3.684l-.852-.92h-2.556l-.852.92v3.683h-3.407V9.245L6.107.037H.996Z" style="fill:#404040;fill-opacity:1;stroke-width:.221415"/><path fill="#f9aa40" d="M.144 1.003v21.179a.852.92 0 0 0 .852.92H3.55a.852.92 0 0 0 .852-.92V4.687h.852c.47 0 1.24-.019 1.698.091.886.213 1.428.799 1.625 1.757.102.495.085 1.326.085 1.835v13.812a.852.92 0 0 0 .852.92h2.555a.852.92 0 0 0 .852-.92v-2.763h3.407v2.763a.852.92 0 0 0 .852.92h2.556a.852.92 0 0 0 .852-.92v-2.763h2.555a.852.92 0 0 0 .852-.92v-1.842a.852.92 0 0 0-.852-.92H20.59v-3.684a.852.92 0 0 0-.852-.92h-2.556a.852.92 0 0 0-.852.92v3.683h-3.407V8.37c0-.509.005-1.335-.052-1.84C12.525 3.489 10.51.659 7.807.16c-.463-.085-1.23-.077-1.7-.077H.996a.852.92 0 0 0-.852.92Z" style="fill:#000;fill-opacity:1;stroke-width:.221415"/></svg>