<svg xmlns="http://www.w3.org/2000/svg" width="840" height="840" version="1.0" viewBox="0 0 630 630"><path d="M173.2 63.1c-27 2.1-44.2 7.4-62.2 19-9.8 6.3-25.5 22.8-31.5 32.9-10.1 17.2-14.7 34.1-16.5 60.5-1.6 22.9-.8 282.9.9 294 6.7 44.7 33.2 78.1 72 91.1 21.6 7.2 13.5 6.9 179.6 6.9 165.1 0 157.4.3 177.7-6.5 17.9-6 29.2-13.1 42.8-26.9 18.7-19 27.8-40.2 30.9-71.5 1.5-14.7 1.5-279.3.1-293.7-2.8-28-10.4-48.4-24.6-65.5-18.6-22.5-41.2-34.6-73.9-39.5-9.4-1.5-278.2-2.2-295.3-.8zm254.3 75.4c10.5 1.7 23.5 12.6 27.4 22.9 1.1 2.9 4.5 19.4 7.5 36.7s9.8 55.9 15.1 85.9 12 68.2 15 85c2.9 16.8 5.6 32.4 6 34.6 1.5 9.7-3.4 23.4-11.2 31.2-8.7 8.7-10.8 9.3-61.3 18.1-25 4.4-63.4 11.2-85.3 15.1s-42.5 7.3-45.7 7.7c-10.8 1.1-20.8-2.6-29.7-11-6-5.6-9.8-12.6-11.3-20.7-1.7-9.2-39.8-225-40.9-231.8-3-18.6 8.3-37.4 25.9-43.1 3.4-1.1 170.1-30.6 177-31.4 3.6-.3 4.7-.3 11.5.8zm-228.5 47c0 .2-.7 3-1.5 6.2-2.7 10.5-2 19.8 5 59.1 3.6 20.2 6.8 37.9 7.1 39.3.5 2.6.2 2.8-10.3 6.4-12.6 4.5-16.3 6.2-18 8.4-2 2.6-1.6 8.8.7 11.1 3.6 3.6 6.4 3.5 18.7-.9 6.4-2.3 11.8-3.9 12.1-3.7.2.3 3 14.9 6.1 32.6l5.8 32.1-2.6 1.3c-1.4.7-4.3 1.9-6.3 2.5-4.7 1.5-6.8 4.4-6.8 9.3 0 7 5.7 10.1 13.6 7.4 2.6-.9 4.9-1.4 5.1-1.3.1.2 2.5 12.9 5.2 28.3 2.8 15.4 5.9 30.5 7.1 33.6 4.4 11.9 14.4 23.2 25.5 29 3.6 1.8 6.5 3.5 6.5 3.8s-3.7 1.9-8.2 3.5c-6.9 2.5-9.8 3-17.3 3-7.6 0-9.9-.5-14.7-2.7-7.1-3.3-14.6-10.2-18-16.5-1.5-2.7-21.2-55.7-43.9-117.8l-41.2-113-.1-9c-.1-7.8.3-9.8 2.6-14.8 3.7-7.9 8.2-13.3 14.2-17.2 2.8-1.8 15.7-7.1 28.6-11.8 23.5-8.6 25-9.1 25-8.2z"/><path d="M273.1 269.5c-15.7 2.9-17.7 3.5-19.8 5.9-3.2 3.8-3 8.1.6 11.7 1.6 1.6 3.8 2.9 4.8 2.9 3.5 0 40.4-7 42.3-8 4.6-2.5 5.4-9.7 1.5-13.5-3.2-3.3-7.2-3.2-29.4 1zM297.5 350.5c-6.6 1.2-15.3 2.8-19.4 3.5-8.6 1.4-12.1 4-12.1 9 0 4.4 1.6 6.9 5.3 8.5 2.8 1.1 5.5.9 22.7-2.2 12.3-2.1 20.4-4.1 21.9-5.2 5.6-4 4.7-12.1-1.5-14.7-1.9-.8-3.7-1.4-4.1-1.3-.4 0-6.2 1.1-12.8 2.4z"/></svg>