<?xml version="1.0" encoding="UTF-8" standalone="no"?>
<svg
   width="840"
   height="840"
   viewBox="0 0 630 630"
   version="1.1"
   id="svg1"
   sodipodi:docname=":nimble_commander:.svg"
   inkscape:version="1.4.3 (0d15f75, 2025-12-25)"
   xmlns:inkscape="http://www.inkscape.org/namespaces/inkscape"
   xmlns:sodipodi="http://sodipodi.sourceforge.net/DTD/sodipodi-0.dtd"
   xmlns="http://www.w3.org/2000/svg"
   xmlns:svg="http://www.w3.org/2000/svg">
  <defs
     id="defs1" />
  <sodipodi:namedview
     id="namedview1"
     pagecolor="#505050"
     bordercolor="#ffffff"
     borderopacity="1"
     inkscape:showpageshadow="0"
     inkscape:pageopacity="0"
     inkscape:pagecheckerboard="1"
     inkscape:deskcolor="#505050"
     inkscape:zoom="0.2700987"
     inkscape:cx="555.35255"
     inkscape:cy="927.43876"
     inkscape:window-width="968"
     inkscape:window-height="1044"
     inkscape:window-x="742"
     inkscape:window-y="40"
     inkscape:window-maximized="0"
     inkscape:current-layer="svg1" />
  <path
     d="M 137.94069,8.2429574 C 100.85181,12.628192 76.290802,23.463344 54.607926,45.005715 30.182985,69.271663 19.81002,91.626745 15.24139,129.84558 c -2.276921,19.0436 -3.084454,148.5951 -1.680884,269.67933 1.033821,89.1371 1.223873,95.32302 3.219783,104.7716 10.654714,50.42428 42.265376,86.59544 88.835381,101.65018 20.36287,6.58303 11.92739,6.33234 212.98484,6.33234 207.11912,0 190.85382,0.63449 215.40596,-8.40664 22.02304,-8.11083 39.70079,-20.61578 54.81764,-38.77863 16.14624,-19.3993 24.18313,-38.09312 29.12521,-67.74411 1.54037,-9.24375 1.77036,-27.05608 2.16229,-167.70748 0.46885,-168.30351 -0.0481,-196.89701 -3.8979,-215.34236 C 610.18605,85.420122 599.52837,65.134162 580.26218,45.867971 562.3404,27.945453 540.40906,16.614096 511.16627,10.165657 L 500.81328,7.8835604 323.25936,7.6040295 C 224.49619,7.4487345 142.26011,7.731963 137.94069,8.2429574 M 460.08606,101.0428 c 8.03836,3.76183 18.10961,12.85398 21.85074,19.7269 1.52041,2.79457 3.7256,9.19863 4.89919,14.23167 1.69641,7.27816 25.79597,142.60442 46.64469,261.93529 1.79107,10.24947 3.24567,21.45659 3.23236,24.90562 -0.0592,15.16788 -10.49942,32.87447 -23.22695,39.39242 -7.92892,4.06059 -21.12752,6.73019 -117.2381,23.7128 -105.76771,18.68938 -107.7895,18.98962 -115.79532,17.19781 -13.75174,-3.07706 -27.80668,-14.26199 -33.47125,-26.63605 -2.22367,-4.85629 -7.23526,-31.5515 -27.92203,-148.72673 -13.8671,-78.5445 -25.21251,-144.83475 -25.21251,-147.31207 0,-17.02847 10.70204,-34.79199 25.20067,-41.82834 6.97275,-3.38395 16.13367,-5.14765 137.3414,-26.44229 33.88019,-5.95224 65.32742,-11.511797 69.88274,-12.354088 4.71949,-0.872609 12.35408,-1.393957 17.74652,-1.212779 7.93113,0.267699 10.53417,0.820105 16.06785,3.409837 m -282.81655,53.89253 c -0.007,0.42669 -0.69957,3.33884 -1.54038,6.47062 -3.46677,12.91537 -1.87389,28.87082 8.80966,88.24822 2.8419,15.79498 5.16689,29.8403 5.16689,31.21281 0,2.17561 -1.02421,2.85817 -8.02357,5.34437 -22.58803,8.02357 -27.17663,10.93128 -27.17663,17.22147 0,4.49098 2.63854,8.76159 6.17557,9.99434 3.45568,1.20465 6.90175,0.48141 23.32826,-4.89697 5.12326,-1.67718 9.52328,-2.84116 9.77767,-2.58677 0.25439,0.25439 3.58731,17.57052 7.40683,38.48062 5.21495,28.55431 6.64662,38.30165 5.75109,39.15652 -0.6552,0.62635 -3.88385,2.19927 -7.17389,3.49635 -7.48078,2.94987 -10.06533,6.06168 -10.06533,12.11671 0,3.52519 0.60787,5.17428 2.66294,7.23009 2.38636,2.38636 3.22052,2.59934 8.02357,2.05137 2.94839,-0.33647 6.76125,-0.89332 8.47319,-1.23792 l 3.11256,-0.62636 4.50429,25.05647 c 8.41107,46.7963 10.72423,54.36951 20.29853,66.46182 5.38356,6.79896 14.12667,13.99503 22.02822,18.12957 2.98832,1.56405 5.28669,3.28486 5.10847,3.8247 -0.17822,0.53983 -4.02066,2.37675 -8.53827,4.08278 -7.3314,2.76868 -9.4937,3.10811 -20.12031,3.15988 -10.87434,0.0532 -12.42951,-0.18709 -17.94766,-2.77239 C 203.311,517.99501 197.19681,510.55416 189.75227,491.01214 179.49466,464.08695 154.7828,397.04981 124.08246,312.8681 L 93.422795,228.79953 v -12.08712 c 0,-11.51549 0.157514,-12.40733 3.324792,-18.84098 4.170783,-8.47245 12.067903,-17.20151 18.518553,-20.47009 6.57859,-3.33367 17.15344,-7.55695 40.27464,-16.08487 19.17893,-7.07405 21.75165,-7.82982 21.72873,-6.38114 m 96.32873,112.6177 c -17.35458,3.29151 -17.45441,3.32183 -20.3111,6.17778 -3.2575,3.25823 -3.16358,6.82114 0.2884,10.92315 2.67182,3.17615 3.02308,3.28708 8.54123,2.70953 12.04497,-1.26085 37.83799,-6.96091 39.57877,-8.74681 2.93138,-3.00754 2.84633,-8.58633 -0.17748,-11.61015 -2.80197,-2.80196 -11.12208,-2.63927 -27.91982,0.5465 m 24.29627,79.68037 c -3.41649,0.73432 -10.86473,2.16008 -16.55223,3.16801 -8.68394,1.5389 -10.81814,2.3102 -13.32135,4.81341 -2.46993,2.46993 -2.87073,3.55034 -2.33903,6.30424 1.13735,5.88641 4.04802,7.29738 13.57721,6.58154 11.79503,-0.88592 32.50028,-5.36063 35.65351,-7.70484 1.94267,-1.44425 2.73615,-3.09111 2.9654,-6.15116 0.26178,-3.50154 -0.13829,-4.53388 -2.46919,-6.3671 -3.20648,-2.52243 -7.96812,-2.69769 -17.51432,-0.6441"
     stroke="none"
     fill-rule="evenodd"
     fill="#000000"
     id="path1"
     style="stroke-width:0.7395" />
</svg>
