<svg viewBox="0 0 24 24" xmlns="http://www.w3.org/2000/svg">
  <path
    d="M24 7.309a5.155 5.155 0 0 0-3.194-4.769l-.178-.07.564-.977a.423.423 0 0 0-.368-.635h-4.982a.424.424 0 0 0-.366.635l2.49 4.314a.424.424 0 0 0 .734 0l.628-1.087.591.258a2.559 2.559 0 0 1 1.514 2.332c0 .396-.089.77-.252 1.104l-5.847 12.528h.001a.86.86 0 0 1-1.435.173l-4.844-5.941-1.353 2.386 4.292 5.272a3.428 3.428 0 0 0 5.719-.906l5.799-12.428A5.138 5.138 0 0 0 24 7.309ZM3.394 17.998h-.021A2.575 2.575 0 0 0 .8 20.572a2.574 2.574 0 0 0 5.147 0c0-.467-.125-.905-.342-1.281l5.628-10.37h.001c.01-.015.017-.031.024-.045l.005-.007A5.995 5.995 0 1 0 0 6.011c0 1.487.541 2.85 1.439 3.896l3.059 3.747 1.36-2.368-2.485-3.038a3.562 3.562 0 0 1-.813-2.237 3.426 3.426 0 1 1 6.408 1.686l-.002.002-5.572 10.299Z" />
</svg>