<svg xmlns="http://www.w3.org/2000/svg" width="24" height="24" fill="none" viewBox="0 0 24 24"><path d="M12.100 0.279 C 11.867 0.395,0.424 11.848,0.341 12.049 C 0.287 12.180,0.280 12.844,0.280 17.721 C 0.280 22.728,0.286 23.256,0.345 23.372 C 0.436 23.553,0.556 23.676,0.729 23.764 C 0.874 23.839,1.127 23.840,12.132 23.830 L 23.386 23.820 23.524 23.726 C 23.600 23.674,23.715 23.557,23.781 23.466 C 23.888 23.317,23.900 23.269,23.900 22.997 C 23.900 22.646,23.814 22.477,23.540 22.289 L 23.380 22.180 18.581 22.170 L 13.781 22.159 18.789 17.150 C 22.339 13.599,23.815 12.097,23.859 11.991 C 23.941 11.791,23.935 11.495,23.843 11.300 C 23.736 11.072,12.998 0.347,12.791 0.261 C 12.585 0.176,12.292 0.184,12.100 0.279 M13.650 3.430 L 14.800 4.580 10.070 9.310 L 5.340 14.040 4.190 12.890 C 3.557 12.257,3.040 11.722,3.040 11.700 C 3.040 11.648,12.408 2.280,12.460 2.280 C 12.482 2.280,13.018 2.798,13.650 3.430 M17.180 6.960 L 18.340 8.120 13.610 12.850 L 8.880 17.580 7.710 16.410 L 6.540 15.240 11.260 10.520 C 13.856 7.924,15.989 5.800,16.000 5.800 C 16.011 5.800,16.542 6.322,17.180 6.960 M21.840 11.660 C 21.840 11.682,19.721 13.819,17.130 16.410 L 12.420 21.120 11.250 19.950 L 10.080 18.780 14.810 14.050 L 19.540 9.320 20.690 10.470 C 21.322 11.102,21.840 11.638,21.840 11.660 M11.000 22.130 C 11.000 22.146,9.817 22.160,8.370 22.160 L 5.740 22.160 3.850 20.270 L 1.960 18.380 1.960 15.720 L 1.960 13.060 6.480 17.580 C 8.966 20.066,11.000 22.113,11.000 22.130 " stroke="none" fill-rule="evenodd" fill="black"></path></svg>