<svg xmlns="http://www.w3.org/2000/svg" xml:space="preserve" style="fill-rule:evenodd;clip-rule:evenodd;stroke-linejoin:round;stroke-miterlimit:2" viewBox="0 0 25 25"><path d="m.874 8.666 20.074-7.635c2.36-.939 3.502.82 2.93 2.204l-8 19.078c-.5 1.208-1.57 1.208-2.5.28l-3.268-2.746a.211.211 0 0 0-.307.027L7.551 22.77c-.554.71-1.687.428-1.843-.457l-1.365-7.74a.296.296 0 0 0-.096-.175L.45 10.735c-.786-.786-.477-1.714.424-2.069Zm5.16 4.777c4.42-2.609 7.98-5.594 12.007-8.064.36-.22.673.215.362.499-.91.83-1.823 1.663-2.042 1.872-.468.447-5.842 4.927-5.842 4.927l-2.783 2.291c.571.858 5.565 5.614 6.721 6.056 2.953-6.382 5.633-12.293 7.784-17.989a.535.535 0 0 0-.703-.683L8.361 7.676l-6.192 2.411 3.866 3.356Z"/></svg>