<svg xmlns="http://www.w3.org/2000/svg" width="24" height="24" viewBox="0 0 24 24"><path d="M11.570 0.239 C 10.533 0.710,9.323 2.316,8.683 4.073 C 8.031 5.861,7.703 7.807,7.653 10.180 C 7.613 12.106,7.792 13.842,8.263 16.075 L 8.401 16.731 8.040 17.213 C 7.703 17.664,7.680 17.706,7.680 17.887 C 7.680 18.139,8.383 23.343,8.461 23.674 C 8.483 23.767,8.485 23.768,8.567 23.694 C 8.612 23.654,8.919 23.264,9.247 22.828 L 9.846 22.037 10.193 22.365 C 10.919 23.054,11.170 23.178,11.840 23.179 C 12.499 23.181,12.736 23.065,13.473 22.387 C 13.657 22.218,13.828 22.081,13.853 22.082 C 13.879 22.082,13.962 22.168,14.037 22.272 C 14.662 23.131,15.174 23.764,15.203 23.713 C 15.220 23.682,15.262 23.495,15.296 23.298 C 15.374 22.845,16.047 17.971,16.049 17.851 C 16.049 17.802,15.907 17.559,15.732 17.311 C 15.556 17.063,15.392 16.820,15.365 16.770 C 15.326 16.697,15.353 16.494,15.519 15.609 C 15.831 13.949,15.956 13.019,16.005 12.000 C 16.057 10.932,16.022 8.929,15.939 8.204 C 15.525 4.587,14.398 1.944,12.703 0.621 C 12.114 0.161,11.900 0.089,11.570 0.239 " stroke="none" fill-rule="evenodd"></path></svg>