<svg version="1.1" id="svg1" width="24" height="24" viewBox="0 0 24 24" xmlns="http://www.w3.org/2000/svg">
   <defs id="defs1" />
   <g id="g1">
      <path style="fill:#000000;stroke-width:0.0367538"
         d="M 11.242371,23.988134 C 10.130132,23.909944 9.0997776,23.703442 8.0887316,23.356087 5.5770076,22.493159 3.4020836,20.80003 1.9494126,18.576765 0.90698859,16.981369 0.28355059,15.237842 0.05703559,13.284476 c -0.05368,-0.462936 -0.07526,-1.612593 -0.03933,-2.094988 C 0.21405659,8.553761 1.1921066,6.16462 2.8865086,4.181691 3.1636056,3.857409 3.9232926,3.103211 4.2469836,2.831046 7.1392236,0.399198 10.915909,-0.525075 14.634441,0.28891 c 2.752429,0.602505 5.305579,2.265808 7.00969,4.566607 2.267477,3.061427 2.947707,7.049116 1.824458,10.695467 -0.400422,1.299875 -1.038387,2.549019 -1.870858,3.663167 -0.436669,0.584422 -1.205341,1.404999 -1.763919,1.883032 -1.986449,1.70001 -4.360604,2.68124 -6.973067,2.881945 -0.296593,0.02279 -1.339774,0.02859 -1.618375,0.009 z m -0.83719,-5.884634 0.400173,-0.534136 0.249136,0.247498 c 0.185322,0.184104 0.296207,0.272135 0.432904,0.34368 0.172445,0.09025 0.199266,0.09679 0.435364,0.106011 0.145687,0.0057 0.3004,-0.0023 0.367533,-0.0189 0.195758,-0.04851 0.441795,-0.213829 0.678914,-0.456168 l 0.220005,-0.224848 0.404538,0.539801 c 0.387718,0.517358 0.405306,0.536835 0.423036,0.468467 0.01018,-0.03923 0.0519,-0.319425 0.09272,-0.622648 0.07163,-0.532062 0.273767,-1.990949 0.363262,-2.621798 l 0.04345,-0.306284 -0.230493,-0.304829 c -0.202721,-0.268098 -0.228837,-0.313861 -0.216741,-0.379793 0.0076,-0.04123 0.0583,-0.289977 0.112739,-0.552769 0.114161,-0.551057 0.226519,-1.300356 0.284752,-1.898967 0.04755,-0.48884 0.05354,-1.546252 0.01192,-2.107239 C 14.319664,7.640777 13.749999,6.023389 12.813896,5.054752 12.619966,4.854082 12.3306,4.632832 12.15664,4.552213 c -0.156485,-0.07252 -0.238429,-0.06058 -0.444594,0.0648 -0.60405,0.367353 -1.180924,1.147573 -1.559399,2.10908 -0.3156674,0.801946 -0.5060914,1.657828 -0.6168934,2.772699 -0.06116,0.615365 -0.06167,1.944245 -9.55e-4,2.499284 0.08067,0.73747 0.207629,1.519494 0.347505,2.140442 l 0.06041,0.268185 -0.215636,0.284231 c -0.118599,0.156327 -0.222888,0.296594 -0.231753,0.311704 -0.0089,0.01511 0.04456,0.461673 0.118713,0.992363 0.07416,0.530689 0.186306,1.342539 0.249221,1.80411 0.06292,0.461571 0.120545,0.839063 0.128065,0.838871 0.0075,-1.84e-4 0.1937524,-0.240711 0.4138464,-0.534486 z"
         id="path1" />
   </g>
</svg>