<svg xmlns="http://www.w3.org/2000/svg" width="24" height="24" fill="none"><g clip-path="url(#a)"><path fill="#fff" d="M0 0h24v24H0z"/><path fill="#75B701" d="M10.845 19.898c-.34-.127-.509-.256-.689-.528-.146-.22-.166-.314-.186-.863-.027-.706.035-.957.31-1.272.27-.307.587-.432 1.09-.432.867 0 1.353.458 1.448 1.364.076.728-.211 1.39-.718 1.651-.295.153-.949.194-1.255.08Zm.894-.616c.344-.163.49-.637.381-1.23-.084-.455-.307-.652-.738-.652-.55 0-.762.266-.762.959 0 .538.112.817.373.93a.839.839 0 0 0 .746-.007Zm-4.856.6c-.024-.023-.043-.713-.043-1.532v-1.49l.63.003.63.926c.347.509.649.927.671.928.023.002.038-.409.033-.912l-.009-.915.625-.036v3.066h-.586L7.53 18.03l-.06 1.86-.272.018c-.15.01-.292-.002-.315-.025Zm6.78-.814c-.149-.472-.364-1.162-.479-1.533l-.21-.675h.74l.233.915c.127.503.25.952.274.997.025.05.069-.03.113-.21.04-.16.155-.61.257-.997l.184-.705h.63l.226.915c.262 1.062.296 1.15.353.908a76.5 76.5 0 0 1 .26-.998l.22-.825h.69l-.079.255-.785 2.535-.073.24h-.636l-.238-.915c-.132-.503-.256-.915-.276-.915-.02 0-.147.413-.281.916l-.245.914-.61.036-.269-.858ZM3.28 15.754c-.385-.104-.579-.258-.755-.6-.127-.246-.145-.361-.143-.893.002-.416.033-.678.096-.821.12-.271.496-.625.756-.712.312-.104.9-.082 1.178.045.247.112.568.435.568.571 0 .041-.126.114-.28.162-.275.085-.28.084-.445-.08-.137-.138-.218-.166-.47-.166-.419 0-.642.202-.726.657-.08.435.011.94.206 1.136.166.165.597.232.933.144.191-.05.21-.075.23-.305l.02-.252h-.334c-.325 0-.334-.005-.333-.165.002-.427.014-.435.666-.435h.593v1.482l-.225.098a2.306 2.306 0 0 1-1.535.134Zm8.068-.004c-.536-.167-.843-.63-.892-1.348-.082-1.193.492-1.808 1.61-1.728.548.04.853.236 1.089.702.14.276.165.4.165.814 0 .596-.117.966-.395 1.253-.347.357-1.005.486-1.577.307Zm1.02-.666c.195-.173.292-.462.292-.868 0-.646-.254-.956-.783-.956-.297 0-.56.142-.658.355-.04.085-.084.303-.1.485-.06.736.268 1.177.837 1.124.163-.015.34-.075.413-.14Zm5.022.685a1.224 1.224 0 0 1-.799-.784c-.105-.353-.12-1.11-.027-1.442.081-.295.383-.634.686-.771.276-.126.865-.148 1.176-.044.24.08.51.314.631.548.084.159.08.168-.08.226-.092.033-.22.082-.285.11-.092.038-.16.004-.307-.152-.165-.174-.228-.2-.484-.2-.524 0-.741.29-.741.99 0 .722.27 1.036.834.972.213-.024.31-.072.432-.22l.158-.188.263.103c.332.13.315.109.23.273-.273.53-.97.77-1.687.58ZM5.58 12.72h2.04v.27c0 .216-.021.27-.105.274-.058.002-.368 0-.69-.004l-.585-.007v.662l1.11.035-.02.24a1.19 1.19 0 0 1-.05.285c-.015.025-.255.045-.534.045H6.24v.66h1.38v.6H5.58v-3.06Zm2.58 0h2.047l-.037.555-1.35-.021v.363c0 .248.024.364.075.368.041.003.277.012.525.02.248.01.465.021.484.026.019.005.019.124 0 .264l-.034.255-1.05.035v1.195h-.66v-3.06Zm5.64 0 .765.001c.884.002 1.187.095 1.397.43.102.163.12.274.104.613-.02.4-.03.422-.268.634l-.248.219.295.506c.162.278.295.54.295.582 0 .05-.103.075-.322.075h-.323l-.312-.54c-.296-.513-.322-.54-.515-.54h-.203l-.035 1.05-.63.036V12.72Zm1.487 1.287c.138-.097.182-.397.08-.556-.056-.09-.422-.187-.712-.19l-.195-.001v.84h.347c.216 0 .396-.035.48-.093Zm4.273-1.287h2.04v.54h-1.38v.66h1.155l-.038.188c-.02.103-.037.238-.037.3 0 .101-.052.112-.54.112h-.54v.66h.686c.745 0 .77.012.724.36l-.025.195c-.003.025-.464.045-1.025.045h-1.02v-3.06ZM0 0h24v10.26H0V0Zm8.462 5.28H5.473l-.038.205c-.035.184-.064.21-.28.246-.321.054-.992.394-1.288.652l-.237.207.142.272c.308.592.805 1.005 1.384 1.151.246.062.276.089.293.26l.019.19L8.43 8.43l.032-3.15ZM5.46 7.965c0-.068.087-.105.315-.133.52-.066.863-.205 1.33-.54l.442-.318.232.13c.127.071.231.155.231.186 0 .084-.6.371-1.137.543-.606.194-1.413.27-1.413.132Zm-.39-.266a1.75 1.75 0 0 1-.744-.707l-.203-.336.143-.155c.2-.216.528-.417.83-.507.212-.063.262-.062.305.008.074.119-.011.197-.311.287-.143.043-.341.144-.44.224l-.18.146.147.278c.21.396.843.783.843.515 0-.09.032-.11.143-.088.3.057 1.177-.512 1.177-.763 0-.222-.6-.602-1.095-.693-.288-.053-.307-.208-.026-.208.348 0 .798.173 1.178.452.202.15.385.316.406.37.027.07-.057.186-.28.391-.39.36-.801.573-1.217.633-.218.031-.316.073-.316.134 0 .125-.15.133-.36.02Zm.036-.651c-.22-.252-.232-.35-.053-.475.194-.135.328-.115.371.056.044.174-.018.631-.085.631-.026 0-.13-.095-.233-.212Zm.754-.328a.509.509 0 0 0-.253-.216c-.106-.027-.147-.078-.147-.183 0-.136.015-.144.225-.106.254.046.416.118.571.253.101.088.098.102-.056.262-.09.094-.179.17-.198.17-.02 0-.084-.08-.142-.18Zm11.796 1.205c.026-.003.04-.47.03-1.04L17.67 5.85l-.57-.037v1.049c0 .645.023 1.056.06 1.068.05.017.303.014.496-.005ZM9.84 6.36h.293c.2 0 .34.037.435.115.131.105.144.165.162.78l.02.665h.602l-.021-.768c-.032-1.16-.152-1.278-1.356-1.32l-.735-.026V7.92h.6V6.36Zm3.425.585c.17-.536.313-.999.317-1.028.01-.067-.304-.114-.474-.072-.107.027-.163.152-.327.739-.109.388-.216.741-.239.784-.022.044-.131-.253-.242-.66-.11-.406-.227-.772-.258-.813-.06-.08-.557-.105-.601-.03-.014.025.12.497.3 1.05l.325 1.005h.89l.309-.975ZM14.43 5.85h-.54l-.033 2.07h.606l-.033-2.07Zm2.033 1.945c.249-.196.337-.426.337-.878 0-.808-.287-1.043-1.33-1.086l-.65-.026V7.92h.742c.661 0 .76-.014.901-.125ZM15.42 6.9c0-.59.002-.6.141-.6.223 0 .516.122.58.242.033.06.059.222.059.358a.979.979 0 0 1-.059.358c-.064.12-.357.242-.58.242-.139 0-.141-.01-.141-.6Zm3.171.84c.062-.179.066-.18.521-.18.454 0 .459.002.526.18.064.169.088.18.385.18.174 0 .317-.009.317-.02 0-.101-.795-1.993-.853-2.03-.122-.077-.686-.059-.751.025-.053.067-.796 1.932-.796 1.998 0 .015.132.027.294.027.273 0 .299-.013.357-.18Zm.218-.645.16-.42c.066-.173.14-.315.164-.315.025 0 .094.155.154.345.06.19.121.379.137.42.021.055-.064.075-.314.075-.302 0-.338-.012-.301-.105Z"/><path fill="#1E1F1C" d="M0 10.26h24V24H0V10.26Zm12.1 9.558c.507-.261.794-.923.718-1.651-.095-.906-.58-1.364-1.448-1.364-.503 0-.82.125-1.09.432-.275.315-.337.566-.31 1.272.02.549.04.642.186.863.29.437.705.624 1.314.59.242-.014.492-.07.63-.142Zm-1.107-.528c-.261-.114-.373-.393-.373-.931 0-.693.212-.959.762-.959.43 0 .654.197.738.652.11.593-.037 1.067-.381 1.23a.839.839 0 0 1-.746.008ZM7.53 18.03l1.304 1.89h.586v-3.066l-.625.036.009.915c.005.503-.01.914-.033.912-.022-.001-.325-.419-.671-.928l-.63-.927-.63-.002v1.49c0 .82.02 1.51.043 1.533.023.023.165.035.315.025l.272-.018.06-1.86Zm7.256.945c.134-.503.26-.914.28-.915.021 0 .145.412.277.915l.238.915h.636l.073-.24.785-2.535.08-.255h-.69l-.22.825a76.5 76.5 0 0 0-.26.998c-.058.241-.092.154-.354-.908l-.225-.915h-.63l-.185.705c-.102.388-.217.836-.257.997-.044.18-.088.26-.113.21a15.312 15.312 0 0 1-.274-.997l-.232-.915h-.74l.21.675c.114.371.33 1.061.477 1.533l.27.858.61-.036.244-.915ZM4.32 15.779c.148-.033.371-.104.495-.158l.225-.098V14.04h-.593c-.652 0-.664.008-.666.435-.001.16.008.165.333.165h.335l-.021.252c-.02.23-.039.256-.23.306-.336.087-.767.02-.933-.146-.195-.194-.286-.7-.206-1.135.084-.455.307-.657.727-.657.251 0 .332.028.47.166.164.164.169.165.445.08.153-.048.279-.12.279-.162 0-.136-.321-.46-.568-.571-.278-.127-.866-.149-1.178-.045-.26.087-.636.44-.756.712-.063.143-.094.405-.096.82-.002.533.016.648.143.895.176.341.37.495.755.599a2.11 2.11 0 0 0 1.04.024Zm8.088-.03c.615-.183.912-.69.912-1.558 0-.414-.025-.538-.165-.814-.236-.466-.541-.662-1.089-.702-.833-.06-1.344.248-1.541.926-.13.444-.09 1.159.083 1.495.327.636 1.016.886 1.8.653Zm-.946-.638a.696.696 0 0 1-.288-.41c-.09-.298-.068-.841.045-1.085.098-.213.361-.355.658-.355.53 0 .783.31.783.956 0 .647-.22.963-.704 1.008-.23.021-.327-.001-.494-.114Zm6.934.641c.296-.087.542-.29.681-.561.085-.164.102-.143-.23-.273l-.264-.103-.157.189c-.122.147-.218.195-.432.22-.564.063-.834-.252-.834-.973 0-.7.217-.99.741-.99.256 0 .32.026.484.2.147.156.215.19.307.151.065-.027.193-.076.285-.11.16-.057.163-.066.08-.225a1.243 1.243 0 0 0-.631-.548c-.31-.104-.9-.082-1.176.044-.303.137-.605.476-.686.771-.092.332-.078 1.089.027 1.443.202.68.982 1.01 1.805.765ZM7.62 15.18H6.24v-.66h.506c.279 0 .52-.02.535-.045a1.19 1.19 0 0 0 .048-.285l.02-.24-1.109-.034v-.663l.585.007c.322.004.632.006.69.004.084-.003.105-.058.105-.274v-.27H5.58v3.06h2.04v-.6Zm1.2-.595 1.05-.035.034-.255c.019-.14.019-.26 0-.264a8.725 8.725 0 0 0-.484-.025 39.847 39.847 0 0 1-.525-.021c-.051-.003-.075-.12-.075-.368v-.364l1.35.022.037-.555H8.16v3.06h.66v-1.195Zm5.645.115h.203c.193 0 .22.027.515.54l.312.54h.323c.219 0 .322-.024.322-.075 0-.042-.133-.304-.295-.582l-.295-.506.248-.22c.238-.211.248-.233.268-.633.017-.339-.002-.45-.104-.612-.21-.336-.513-.43-1.397-.43l-.765-.002v3.066l.63-.036.035-1.05Zm-.005-1.44.195.001c.29.003.656.1.713.19.027.043.05.165.051.27.001.268-.178.379-.612.379h-.347v-.84Zm7.145 2.475.025-.195c.046-.348.021-.36-.724-.36h-.686v-.66h.54c.488 0 .54-.01.54-.112 0-.062.017-.197.037-.3l.038-.188H20.22v-.66h1.38v-.54h-2.04v3.06h1.02c.561 0 1.022-.02 1.025-.045ZM5.449 8.272c-.017-.17-.047-.197-.293-.259-.579-.146-1.076-.56-1.384-1.15L3.63 6.59l.237-.207c.296-.258.967-.598 1.287-.652.217-.037.246-.062.28-.246l.04-.205h2.988L8.43 8.43l-2.962.032-.02-.19Zm1.424-.44c.537-.171 1.137-.458 1.137-.542 0-.031-.104-.115-.231-.186l-.232-.13-.443.318c-.466.335-.81.474-1.329.54-.228.028-.315.065-.315.133 0 .137.807.062 1.413-.132ZM5.43 7.68c0-.06.098-.103.316-.134.416-.06.826-.273 1.218-.633.222-.205.306-.321.28-.39-.022-.055-.205-.221-.407-.37-.38-.28-.83-.453-1.178-.453-.281 0-.262.155.026.208.495.091 1.095.47 1.095.693 0 .251-.877.82-1.177.763-.11-.021-.143-.001-.143.088 0 .268-.633-.12-.843-.515l-.147-.278.18-.146c.099-.08.297-.181.44-.224.3-.09.385-.168.311-.287-.103-.166-.805.142-1.135.499l-.143.155.203.336c.332.548 1.104 1.03 1.104.688Zm-.007-.661c.05-.31-.008-.539-.136-.539-.139 0-.367.169-.367.271 0 .092.343.509.419.509.025 0 .063-.108.084-.241ZM6.2 6.73c.154-.16.157-.174.056-.262-.155-.135-.317-.207-.571-.253-.21-.038-.225-.03-.225.106 0 .105.041.156.147.183.08.02.194.118.253.216.058.1.122.18.142.18.02 0 .109-.076.198-.17Zm10.96 1.2c-.037-.012-.06-.423-.06-1.068V5.813l.57.037.016 1.035c.01.57-.004 1.037-.03 1.04-.193.019-.446.022-.496.005ZM9.24 5.806l.735.026c1.204.042 1.324.16 1.356 1.32l.021.768h-.601l-.02-.665c-.02-.615-.032-.675-.163-.78-.096-.078-.235-.115-.435-.115H9.84v1.56h-.6V5.806Zm2.5 1.109c-.179-.553-.313-1.025-.299-1.05.043-.075.54-.05.601.03.031.041.148.407.258.813.11.407.22.704.242.66.023-.043.13-.396.24-.784.163-.587.219-.712.326-.739.17-.042.484.005.474.072-.004.03-.147.492-.317 1.028l-.31.975h-.889l-.325-1.005Zm2.15-1.065h.54l.033 2.07h-.606l.033-2.07Zm.93-.045.65.026c1.043.043 1.33.278 1.33 1.086 0 .452-.088.682-.337.878-.142.111-.24.125-.901.125h-.742V5.805Zm1.072 1.629c.233-.082.308-.211.308-.534a.979.979 0 0 0-.059-.358c-.064-.12-.357-.242-.58-.242-.139 0-.141.01-.141.6s.002.6.141.6c.078 0 .227-.03.331-.066Zm2.048.46c0-.067.743-1.932.796-1.999.065-.084.629-.102.75-.024.059.036.854 1.928.854 2.03 0 .01-.143.019-.317.019-.297 0-.321-.011-.385-.18-.067-.178-.072-.18-.526-.18-.455 0-.459.001-.521.18-.058.167-.084.18-.357.18-.162 0-.294-.012-.294-.027Zm1.484-.769c-.016-.041-.078-.23-.137-.42-.06-.19-.129-.345-.154-.345-.024 0-.098.142-.163.315l-.161.42c-.037.093-.001.105.301.105.25 0 .335-.02.314-.075Z"/></g><defs><clipPath id="a"><path fill="#fff" d="M0 0h24v24H0z"/></clipPath></defs></svg>