<svg xmlns="http://www.w3.org/2000/svg" width="24" height="24" fill="none" viewBox="0 0 24 24"><path fill="#000" fill-rule="evenodd" d="M8.96 6.094v1.093l-.55.047c-2.267.192-4.89 1.376-7.239 3.267-.916.737-1.059.911-.992 1.213.032.147.646 1.224 1.102 1.934 1.087 1.692 2.323 3.028 3.559 3.849 1.122.744 2.397 1.179 3.669 1.25l.449.025.011.824.011.824 7.43.01 7.43.01V5H8.96zm1.52 1.209c1.961.233 3.918.978 5.34 2.035.881.655 1.86 1.867 1.86 2.305 0 .217-.121.395-.617.908a10 10 0 0 1-1.783 1.473c-1.838 1.212-3.916 1.948-5.87 2.079L9 16.13v-1.278l.626-.028c1.311-.058 2.095-.225 2.88-.611.608-.3 1.139-.732 2.144-1.746.5-.505.91-.932.91-.948 0-.059-.318-.505-.574-.805-1.209-1.416-3.167-2.277-5.416-2.38L9 8.308V7.19l.49.027c.27.015.715.054.99.086M8.96 8.975v.655l.39.028c1.574.11 2.869.642 3.749 1.54l.199.203-.119.117c-.226.222-1.637 1.482-1.658 1.48-.012-.001-.141-.186-.288-.41-.704-1.076-1.444-1.731-2.048-1.814l-.183-.025-.011-.544-.011-.545-.3.013c-.9.039-2.071.455-3.013 1.071-.537.351-1.247 1.048-1.287 1.264-.054.284.294 1.096.732 1.707.925 1.294 2.257 2.196 3.498 2.368l.35.049v1.554l-.27-.027c-2.189-.222-4.115-1.878-6.231-5.356l-.314-.516.498-.484C4.1 9.892 5.702 8.933 7.265 8.537c.577-.146.962-.204 1.405-.212l.29-.005zm0 3.825c0 1.122-.006 2.04-.013 2.04s-.119-.019-.25-.042c-1.007-.179-2.039-1.049-2.638-2.222l-.18-.352.171-.175c.677-.695 1.891-1.269 2.72-1.285l.19-.004zm11.49 1.338c.632.369 1.15.686 1.15.703 0 .041-.442.366-.94.69-1.55 1.01-4.114 2.015-6.6 2.586-1.634.375-3.593.643-4.706.643H9v-1.071l.45-.027c1.36-.08 2.298-.25 3.46-.627 1.865-.606 3.655-1.65 5.626-3.282l.52-.431.122.071z"/></svg>
