<svg viewBox="0 0 24 24" width="24" height="24" xmlns="http://www.w3.org/2000/svg">
  <path
    d="M17.922 22.286c-.145 1.097-1.219 1.95-2.283 1.655-1.518-.417-3.276-1.069-4.856-1.191l-2.423-.187a1.6 1.6 0 0 1-1.032-.478l-4.172-4.299a1.596 1.596 0 0 1-.314-1.767c.268-.596 2.578-5.672 2.677-5.967.094-.296.45-2.869.656-4.247.056-.371.235-.703.516-.952L11.627.409a1.6 1.6 0 0 1 2.325.202l4.144 5.269c.23.301.355.67.356 1.05 0 .998.084 3.047.637 4.369.539 1.279 1.524 2.671 2.04 3.351.2.26.224.616.06.9a69.943 69.943 0 0 1-2.1 3.31c-.703 1.045-1.026 2.339-1.171 3.426h.004Zm-8.719-7.481c2.353-.535 3.727-.6 5.358-.047 2.138.736 3.366 2.714 4.257 4.5-.718-1.706-1.679-3.755-4.168-4.688a6.774 6.774 0 0 0-1.81-.425l.109.008c-.924-2.311-1.097-3.886-1.036-5.254v-.005a8.308 8.308 0 0 1 .97-3.375c.609-1.238 1.42-2.461 1.205-3.863.033.385.089.778-.178 1.599-.193.59-.418.932-.75 1.575-.118.22-.38.651-.493.881a8.198 8.198 0 0 0-.956 3.375c-.061 1.388.117 2.63.947 5.044l.1.008c-.946-.07-1.965.069-3.368.379-.065-.313-.168-.519-.28-.772h-.005c-.867-2.011-2.227-3.126-3.549-3.839 1.097.746 2.433 1.758 3.268 3.727.14.309.22.572.318.937l.115-.023-.105.023.051.235Zm0 0c.511 2.339-.103 4.866-1.373 7.5 1.519-2.658 2.034-5.386 1.575-7.542l-.202.042Z" />
</svg>