<svg xmlns="http://www.w3.org/2000/svg" width="48" height="48" fill="none" viewBox="0 0 48 48"><path fill="#000" fill-rule="evenodd" d="M23.46 23c.66-.1 1.64.02 2.4.26 1.45.48 2.6 1.55 2.87 2.7l.07.3-.02.47c-.04.74-.23 1.21-.7 1.69-.63.63-1.74 1.05-3.12 1.2-.55.06-2.04.03-2.35-.04l-.45-.1a4.6 4.6 0 0 1-2.4-1.27c-.99-1.21-.86-2.52.37-3.72a5.5 5.5 0 0 1 3.33-1.5m-.29 1.98q-.06-.01-.22.02a.7.7 0 0 0-.47.65q0 .31.3.57l.29.23.14.12.03 1.11.12.16c.07.09.18.2.25.23.3.15.76.01.93-.29l.1-.15.02-1.06.3-.23c.38-.3.45-.4.47-.67l.01-.22-.09-.14a1 1 0 0 0-.23-.23l-.14-.09-.5.03-.52.42-.25-.2a1 1 0 0 0-.54-.26" clip-rule="evenodd"/><path fill="#000" fill-rule="evenodd" d="m24.94 11.74.37.07a5.6 5.6 0 0 1 4.03 3.03c.24.45.41.65.7.8l.21.1.61-.01c1.88-.04 3.22.35 4.37 1.27a6.6 6.6 0 0 1 2.23 4.67l.05.61-.05.6q-.1 1.34-.6 2.27c-.15.28-.36.51-.68.78-.11.09-.26.26-.32.39l-.12.22v.7l.3.48c.6 1 1.05 2.1 1.25 3.08a9 9 0 0 1 .08 2.28 9 9 0 0 1-1.39 3.71c-.34.57-.35.86-.05 1.51a9.82 9.82 0 0 1 .84 5.28l-.07.67.03.1A24 24 0 0 1 24 48c-4.7 0-9.1-1.36-12.8-3.7l.05-.23-.08-.42c-.27-1.49 0-3.01.88-5.09.4-.95.41-1.24.08-1.7a6.39 6.39 0 0 1-1.41-4.4c0-1.76.34-3.23 1.07-4.72l.3-.59.03-.62-.09-.19c-.04-.1-.21-.35-.37-.54-1.13-1.34-1.47-3.93-.8-6.05.12-.4.48-1.12.73-1.5a7 7 0 0 1 1.38-1.37 8 8 0 0 1 1.45-.71c.8-.28 1.49-.4 2.55-.45l.74-.04.2-.08c.3-.1.55-.37.7-.7.24-.56.36-.75.73-1.18a6 6 0 0 1 2.72-1.68c.78-.24 1.22-.3 2.1-.3zm.58 9.67a8 8 0 0 0-2.26-.11 6.9 6.9 0 0 0-5.4 3.37 4 4 0 0 0-.48 1.85c0 1.48.85 2.9 2.26 3.78.57.36 1.53.72 2.3.88 1.11.22 2.57.25 3.72.06a6.2 6.2 0 0 0 3.56-1.56 4.2 4.2 0 0 0 1.3-2.94l.02-.5-.07-.33a4 4 0 0 0-.4-1.2 6.2 6.2 0 0 0-3.65-3.06 8 8 0 0 0-.9-.24m7.1.28c-.3-.1-.53-.1-.83-.03-1.12.31-1.62 1.57-.99 2.5.15.21.47.5.67.6.6.28 1.4.13 1.87-.37q.4-.42.44-.99l.03-.31-.09-.3a2 2 0 0 0-.22-.48c-.2-.26-.55-.52-.87-.62m-16.7-.07h-.3q-.78.18-1.12.7c-.24.34-.28.47-.28.96v.43l.13.26q.27.53.8.78l.3.14h.78l.29-.15c.35-.17.69-.52.82-.87l.1-.25v-.32a1.63 1.63 0 0 0-1.53-1.68" clip-rule="evenodd"/><path fill="#000" d="M24 0a24 24 0 0 1 15.34 42.45v-.04l-.05-.68c-.1-1.38-.43-2.83-.87-3.87l-.08-.17.38-.76a11 11 0 0 0 1.1-3.44c.07-.47.07-2.14 0-2.55a11.93 11.93 0 0 0-1.19-3.62 1 1 0 0 1-.08-.2c0-.04.1-.21.22-.4a7.7 7.7 0 0 0 1.17-4.44c0-2.31-.63-4.23-1.95-5.97a10 10 0 0 0-1.28-1.28l-.25-.2.02-.17.07-.68c.08-.7.08-3.53 0-4.18-.35-3.04-1.3-4.8-3-5.5l-.34-.14h-1.13l-.24.1q-.54.2-1.01.65a5.6 5.6 0 0 0-1.45 2.28 13 13 0 0 0-.76 3.21l-.04.06-.56-.28a8 8 0 0 0-2.6-.82 9.4 9.4 0 0 0-5.33.83l-.57.26c-.02 0-.05-.12-.07-.27-.05-.47-.2-1.27-.3-1.7-.63-2.45-1.76-4.01-3.14-4.37-.24-.06-.8-.08-1-.03-.17.03-.62.2-.79.28a4.6 4.6 0 0 0-1.97 2.34c-.4 1.04-.58 1.85-.71 3.12a34 34 0 0 0 .08 5 8 8 0 0 0-2.9 3.6 9 9 0 0 0-.66 3.64c0 .87.02 1.12.18 1.96A8 8 0 0 0 9.4 26.9c.01.03-.08.32-.22.66a16 16 0 0 0-.68 2.3c-.3 1.43-.34 3.23-.09 4.59a9 9 0 0 0 1.06 2.86l.26.44-.22.54a13 13 0 0 0-.88 3.66l-.04.44A24 24 0 0 1 24 0"/><path fill="#000" d="M32.67 6.57q.05.02.22.14c.28.21.5.56.74 1.15q.4.98.52 3.07l.05.9-.05.8-.04.92v.13l-.1-.03c-.53-.16-1.42-.3-2.2-.35l-.49-.03-.07-.08c-.1-.12-.16-.5-.18-1.41l-.02-.83.07-.5c.09-.69.13-.92.24-1.35a5.4 5.4 0 0 1 1.1-2.34 1 1 0 0 1 .21-.19M15.31 6.57c.14-.06.17-.05.33.12.92.96 1.54 3.39 1.39 5.42l-.04.62-.34.53-.3.03c-.87.1-1.35.18-1.73.27-.55.14-.59.14-.62 0a39 39 0 0 1 .02-3.7c.1-.87.28-1.63.46-2.09.2-.54.6-1.1.83-1.2"/></svg>