<svg xmlns="http://www.w3.org/2000/svg" width="24" height="24" viewBox="0 0 24 24"><path d="M20.027 2.766 C 19.719 2.805,19.441 2.911,19.122 3.112 C 18.981 3.201,17.020 5.130,13.559 8.584 L 8.214 13.920 7.817 13.920 L 7.420 13.920 6.080 12.576 C 4.589 11.081,3.985 10.515,3.757 10.398 C 3.649 10.343,3.523 10.320,3.332 10.320 C 2.898 10.321,2.780 10.409,1.535 11.659 C 0.937 12.260,0.400 12.833,0.339 12.938 C 0.248 13.094,0.229 13.174,0.229 13.393 C 0.230 13.716,0.302 13.923,0.537 14.274 C 1.053 15.044,4.244 18.526,5.594 19.791 C 6.987 21.095,7.507 21.428,8.394 21.581 C 8.853 21.660,9.180 21.620,9.547 21.439 C 9.831 21.300,9.628 21.509,14.982 15.840 C 21.536 8.901,23.484 6.819,23.753 6.465 C 23.830 6.363,23.840 6.299,23.840 5.932 C 23.840 5.201,23.592 4.675,22.942 4.026 C 21.969 3.056,21.010 2.641,20.027 2.766 " stroke="none" fill-rule="evenodd"></path></svg>