<svg xmlns="http://www.w3.org/2000/svg" width="24" height="24" viewBox="0 0 24 24"><path fill="#fcfcfb" fill-rule="evenodd" d="M11.615.199c-.215.046-.611.247-.723.368-.093.099-.232.393-.186.393.014 0 0 .032-.033.07-.137.16-.157.305-.138.973q.03 1.06.139 1.397c.025.077.046.206.046.287 0 .082.018.159.04.173s.04.087.04.164a.9.9 0 0 0 .06.282.9.9 0 0 1 .06.289c0 .081.036.213.08.295.086.162.105.428.039.553-.052.095-.188.1-.288.009-.065-.059-.081-.061-.112-.01-.02.032-.149.078-.287.103-.221.04-.396.099-.792.269a2 2 0 0 0-.205.113c-.057.039-.115.06-.128.047-.029-.029-.123.062-.157.154-.014.037-.085.098-.158.136-.178.091-.575.457-.561.517.005.027-.017.071-.05.099-.034.027-.061.035-.061.016 0-.018-.063.064-.14.184s-.14.254-.141.299c0 .067-.007.071-.039.021s-.039-.046-.041.02a.33.33 0 0 1-.06.158.35.35 0 0 0-.059.187c0 .061-.018.122-.041.135a.05.05 0 0 0-.016.065c.014.022-.016.138-.064.259-.049.12-.078.23-.064.244s.025-.005.025-.041.017-.067.038-.067.044.129.05.287c.012.281.015.288.132.323.066.019 1.578.044 3.36.055 3.126.02 5.058-.01 5.127-.079.018-.018.033-.198.033-.399-.001-.335-.032-.489-.145-.716q-.07-.14.01-.088c.025.016.037.012.028-.007l-.07-.166c-.028-.071-.067-.13-.087-.13s-.036-.033-.036-.074-.036-.106-.079-.145-.069-.088-.057-.107-.074-.128-.191-.239c-.117-.112-.19-.191-.163-.177.028.015.05.008.05-.015 0-.022-.053-.069-.119-.102a.45.45 0 0 1-.161-.141c-.024-.044-.066-.08-.095-.08s-.073-.045-.098-.1-.065-.1-.09-.1-.074-.037-.111-.082c-.036-.045-.093-.086-.126-.091a.5.5 0 0 1-.159-.078.4.4 0 0 0-.147-.069c-.026 0-.053-.015-.061-.033-.024-.058-.528-.237-.753-.267a.9.9 0 0 1-.267-.066c-.029-.025-.1-.015-.197.025-.243.102-.269.07-.247-.31.012-.194.047-.378.085-.449a.8.8 0 0 0 .066-.308c0-.103.018-.198.04-.212s.04-.1.041-.192a1 1 0 0 1 .078-.337.53.53 0 0 0 .053-.31q-.021-.14.023-.141c.025 0 .045-.061.045-.135s.028-.159.064-.188c.058-.048.057-.057-.005-.103-.07-.051-.07-.06.017-.394.075-.286.043-1.089-.041-1.037-.019.012-.035-.046-.035-.128 0-.349-.374-.811-.791-.975a2.1 2.1 0 0 0-.994-.081m-6.321 8.99c.027.045-.095.09-.248.09a.46.46 0 0 0-.206.081.7.7 0 0 1-.234.105.47.47 0 0 0-.21.119c-.05.053-.114.096-.143.096s-.053.017-.053.037c0 .021-.036.049-.08.063s-.08.054-.08.09c0 .09-.117.209-.182.184-.034-.013-.109.06-.198.192-.079.118-.187.275-.242.35a.5.5 0 0 0-.098.204c0 .037-.038.102-.084.144-.078.07-.196.261-.196.316 0 .014.023.012.05-.004s.002.024-.057.088a.7.7 0 0 0-.135.226c-.015.061-.043.121-.062.133s-.036.054-.036.094-.027.096-.06.123c-.071.059-.079.205-.015.269.054.054.013.131-.07.131-.033 0-.049.018-.035.04s.003.04-.023.04c-.035 0-.034.015.003.059.055.067.023.2-.04.161-.025-.015-.04.059-.04.198 0 .179-.013.222-.066.222-.055 0-.061.032-.042.199.017.136.006.235-.034.31a.7.7 0 0 0-.058.259c0 .081-.018.158-.04.172s-.04.078-.04.144a.8.8 0 0 1-.06.262 1 1 0 0 0-.06.319c0 .096-.015.175-.034.175s-.046.093-.059.207c-.014.114-.039.217-.056.23-.051.038-.127.283-.088.283.061 0 .042.128-.03.208a.5.5 0 0 0-.077.243c-.015.24-.101.653-.219 1.052a1 1 0 0 0-.037.234.7.7 0 0 1-.057.237 1.3 1.3 0 0 0-.078.286c-.038.302-.125.648-.179.713q-.053.064-.025.19.027.127-.023.158c-.028.018-.059.133-.069.256s-.035.234-.054.246S1 19.524 1 19.62a.7.7 0 0 1-.086.322c-.066.111-.075.153-.036.177s.035.059-.017.159a.6.6 0 0 0-.055.261c.006.073-.009.157-.033.187-.109.132-.173.378-.173.659 0 .271-.038.369-.097.245-.013-.028-.015.073-.004.224.016.23.009.27-.04.251-.048-.018-.059.023-.059.216 0 .19-.013.239-.062.239s-.061.044-.057.21c.006.217-.056.558-.123.679-.058.107-.046.186.044.283.08.085.117.089 1.15.113.587.014 5.876.028 11.753.03l10.685.005.044-.11c.086-.217.093-.314.029-.368-.07-.058-.085-.228-.022-.249.059-.02 0-.273-.064-.273-.038 0-.05-.062-.045-.23.006-.166-.006-.227-.042-.22s-.05-.067-.05-.268c0-.152-.018-.288-.04-.302s-.04-.079-.04-.146c0-.088-.022-.127-.08-.142-.065-.018-.08-.055-.081-.207 0-.102-.01-.23-.023-.285-.018-.078-.014-.087.02-.04.064.09.053-.014-.016-.145a.6.6 0 0 1-.06-.205c0-.055-.024-.09-.063-.09-.049 0-.058-.026-.038-.117a.36.36 0 0 0-.036-.238c-.08-.154-.08-.22-.001-.19.056.022.056.015 0-.064a.35.35 0 0 1-.062-.157c0-.037-.019-.074-.042-.081-.042-.014-.105-.313-.145-.693-.012-.11-.039-.222-.062-.249-.022-.028-.029-.093-.016-.146q.023-.095-.055-.196a.44.44 0 0 1-.08-.268.7.7 0 0 0-.043-.246c-.04-.076-.082-.261-.151-.675a1 1 0 0 0-.078-.267.6.6 0 0 1-.048-.248c0-.088-.02-.173-.044-.187s-.034-.076-.023-.134a.54.54 0 0 0-.056-.28 1 1 0 0 1-.077-.3c0-.071-.017-.145-.038-.166s-.058-.146-.082-.278a13 13 0 0 0-.179-.88 10 10 0 0 1-.098-.452.6.6 0 0 0-.077-.218c-.059-.059-.06-.19-.002-.19.064 0 .004-.291-.068-.332q-.056-.031-.056-.249c0-.176-.011-.212-.06-.193-.069.026-.087-.125-.02-.166.061-.038.048-.089-.045-.176-.064-.06-.08-.109-.063-.195a.4.4 0 0 0-.034-.227.5.5 0 0 1-.058-.167c0-.03-.016-.055-.036-.055-.021 0-.049-.072-.064-.16s-.043-.17-.063-.182c-.021-.013-.037-.069-.037-.125 0-.074-.016-.095-.06-.079-.035.014-.06.001-.06-.03 0-.03-.028-.077-.062-.105-.037-.031-.057-.101-.05-.175.01-.103-.004-.126-.079-.137-.049-.007-.081-.028-.069-.047.027-.044-.062-.24-.109-.24-.019 0-.071-.081-.115-.18s-.106-.18-.139-.18-.071-.03-.085-.066c-.035-.091-.415-.494-.466-.494-.023 0-.09-.046-.149-.103a.5.5 0 0 0-.162-.111.5.5 0 0 1-.154-.077.4.4 0 0 0-.153-.069c-.029 0-.081-.027-.114-.06a.3.3 0 0 0-.177-.06.4.4 0 0 1-.193-.047c-.058-.036-.196-.035-.596.006-.479.049-1.057.039-1.329-.022-.088-.02-.11-.002-.17.133-.077.175-.09.352-.029.39s.051.231-.01.196c-.04-.022-.04-.017 0 .026a.25.25 0 0 1 .05.144c0 .05.032.109.07.131.061.036.062.047.01.081-.047.031-.049.049-.01.088a.2.2 0 0 1 .051.132.33.33 0 0 0 .06.16.3.3 0 0 1 .059.155c0 .043.039.157.087.252.048.096.076.185.063.198a.7.7 0 0 1-.177.06c-.255.06-3.818.09-6.903.058l-2.91-.031v-.085c.001-.124.11-.514.152-.541.02-.013.048-.113.062-.222.015-.109.045-.217.066-.238.022-.022.04-.104.041-.182 0-.078.027-.219.06-.313.063-.183.044-.468-.036-.519-.025-.016-.414-.031-.865-.033a12 12 0 0 1-1.036-.036q-.219-.034-.19.008m12.025 3.682c.073.059.18.44.627 2.23.504 2.014.692 2.808.775 3.266.018.103.053.224.076.268.024.044.043.12.043.17a1 1 0 0 0 .036.212c.084.282.161.569.18.663.05.258.112.507.143.58.048.11.085.284.109.513l.02.192-7.301-.012c-4.015-.007-7.311-.024-7.325-.038-.03-.029.045-.363.123-.546a.8.8 0 0 0 .055-.251c0-.065.017-.15.038-.189.034-.061.088-.269.146-.569.019-.094.096-.381.18-.663a1 1 0 0 0 .036-.212c0-.05.021-.13.047-.178.048-.088.1-.312.14-.607a.6.6 0 0 1 .056-.202.7.7 0 0 0 .06-.22c.039-.265.371-1.635.439-1.809a1 1 0 0 0 .058-.267c0-.065.018-.128.04-.142s.04-.078.04-.144.027-.183.06-.262a.8.8 0 0 0 .06-.237c0-.051.019-.135.042-.185a4 4 0 0 0 .116-.432c.1-.454.16-.673.228-.834l.056-.133.209.033c.115.019 2.44.034 5.166.034 3.929 0 4.96-.01 4.973-.05.024-.072.147-.062.249.021m6.25 9.136c-.054.054-.104-.031-.07-.119.024-.063.03-.062.068.006q.04.074.002.113"/></svg>