<?xml version="1.0" encoding="UTF-8" standalone="no"?>
<svg
   viewBox="0 5.5 24 24"
   version="1.1"
   id="svg4"
   sodipodi:docname="Microsoft_Office_OneDrive_(2019–2025).svg"
   width="24"
   height="24"
   inkscape:version="1.4.3 (0d15f75, 2025-12-25)"
   xmlns:inkscape="http://www.inkscape.org/namespaces/inkscape"
   xmlns:sodipodi="http://sodipodi.sourceforge.net/DTD/sodipodi-0.dtd"
   xmlns="http://www.w3.org/2000/svg"
   xmlns:svg="http://www.w3.org/2000/svg"
   xmlns:rdf="http://www.w3.org/1999/02/22-rdf-syntax-ns#"
   xmlns:cc="http://creativecommons.org/ns#"
   xmlns:dc="http://purl.org/dc/elements/1.1/">
  <defs
     id="defs4" />
  <sodipodi:namedview
     id="namedview4"
     pagecolor="#505050"
     bordercolor="#ffffff"
     borderopacity="1"
     inkscape:showpageshadow="0"
     inkscape:pageopacity="0"
     inkscape:pagecheckerboard="1"
     inkscape:deskcolor="#505050"
     inkscape:zoom="8.4794744"
     inkscape:cx="12.264911"
     inkscape:cy="13.974923"
     inkscape:window-width="930"
     inkscape:window-height="1044"
     inkscape:window-x="858"
     inkscape:window-y="40"
     inkscape:window-maximized="0"
     inkscape:current-layer="svg4" />
  <title
     id="title1">OfficeCore10_32x_24x_20x_16x_01-22-2019</title>
  <path
     id="path4"
     d="M 25.5462,19.18437 23.88611,18.19 20.08118,15.9109 18.92041,15.21562 15.85828,16.5042 9.99475,18.97166 7.36133,20.07985 1.43733,22.57277 A 7.98889,7.98889 0 0 0 8,26 h 17.5 a 6.49837,6.49837 0 0 0 5.72253,-3.41556 z m 0.39258,-6.16798 C 25.79358,13.0067 25.64764,13 25.5,13 a 6.4768,6.4768 0 0 0 -2.57648,0.53178 l -1.8e-4,-6.8e-4 -4.00293,1.68451 1.16077,0.69528 3.80493,2.27911 1.66009,0.99438 5.67633,3.40007 A 6.5002,6.5002 0 0 0 25.93878,13.0164 Z m -13.73602,-1.82457 -3.1e-4,0.0011 A 7.96073,7.96073 0 0 0 8,10 C 7.9657,10 7.93195,10.0022 7.89777,10.0026 A 7.99676,7.99676 0 0 0 1.43732,22.57277 l 5.924,-2.49292 2.63342,-1.10819 5.86353,-2.46746 3.06213,-1.28859 z m -3.1e-4,0.0011 3.1e-4,-0.0011 6.71765,4.02379 4.00293,-1.68451 1.8e-4,6.8e-4 A 6.4768,6.4768 0 0 1 25.5,13 c 0.14764,0 0.29358,0.0067 0.43878,0.01639 A 10.00075,10.00075 0 0 0 7.89778,10.00258 C 7.932,10.00215 7.9657,10 8,10 a 7.96073,7.96073 0 0 1 4.20245,1.19292 z"
     transform="matrix(0.7491251,0,0,0.7491251,0.00863228,5.3894963)" />
  <metadata
     id="metadata4">
    <rdf:RDF>
      <cc:Work
         rdf:about="">
        <dc:title>OfficeCore10_32x_24x_20x_16x_01-22-2019</dc:title>
      </cc:Work>
    </rdf:RDF>
  </metadata>
</svg>
