<svg xmlns="http://www.w3.org/2000/svg" width="25" height="25"><path d="M14.569 9.733v10.402l-2.594-2.593s-.464-.16-.71.085c-.246.246-.268.538-.183.685.084.147 3.815 3.815 3.815 3.815s.124.065.24.065a.53.53 0 0 0 .304-.08c.078-.054 3.702-3.656 3.702-3.656s.29-.467-.006-.763c-.295-.295-.655-.223-.718-.16l-2.663 2.619V9.75s-.16-.47-.552-.47-.544.295-.635.453" style="fill:#000;fill-opacity:1;stroke:none;stroke-width:8.05879;stroke-linejoin:bevel;stroke-dasharray:none" transform="matrix(1.14696 0 0 1.13737 -4.88 -.253)"/><path d="M7.735 16.17a1.3 1.3 0 0 1-.47-.395l-.096-.145V1.17L7.27.96c.13-.27.369-.512.624-.633l.197-.093h14.043l.229.084a.96.96 0 0 1 .418.274c.111.111.224.263.273.367l.084.178v7.197c0 5.047-.01 7.233-.034 7.319-.042.15-.29.405-.474.488-.128.058-.234.06-2.81.061l-2.676.001-.022-.217a1.7 1.7 0 0 1 0-.344l.021-.126h1.892l.13-.095a.9.9 0 0 0 .192-.195c.06-.098.062-.174.062-2.943V9.44l-.082-.12a.8.8 0 0 0-.184-.18c-.1-.062-.158-.063-4-.063h-3.9l-.107.082a.8.8 0 0 0-.167.18c-.058.094-.06.197-.06 2.961v2.864l.143.16.144.16h.947c.835 0 .949.005.966.049.01.027.019.189.019.36v.31l-2.664-.003c-1.621-.001-2.694-.014-2.74-.032m2.405-.718c.058-.031.06-.076.06-1.106 0-.95-.005-1.076-.05-1.093-.026-.01-.544-.019-1.15-.019-.814 0-1.11.01-1.137.038-.028.028-.038.313-.038 1.092 0 .972.005 1.057.055 1.087.075.043 2.178.045 2.26.001m12.276-.01c.025-.03.033-.347.027-1.102l-.008-1.059H20.09l-.008 1.063c-.005.584-.002 1.08.006 1.101.024.06 2.277.057 2.327-.003m-.003-3.058c.053-.053.053-2.12 0-2.175-.054-.053-2.246-.053-2.3 0-.054.054-.054 2.122 0 2.175.054.054 2.246.054 2.3 0m-12.219-.03c.049-.05.054-2.03.005-2.122-.03-.058-.077-.06-1.165-.06-.84 0-1.143.01-1.171.037-.054.054-.054 2.09 0 2.144s2.277.054 2.331 0m0-3.095c.028-.027.038-.313.038-1.092 0-1.011-.003-1.057-.06-1.088-.083-.044-2.173-.044-2.255 0-.058.031-.06.077-.06 1.107 0 .83.008 1.078.039 1.09.021.009.539.017 1.15.018.825.002 1.12-.007 1.148-.035m12.24-1.072V7.095l-1.136-.008c-.813-.006-1.15.001-1.18.027-.035.029-.043.236-.043 1.089 0 .58.01 1.063.021 1.074s.543.018 1.18.013l1.159-.008Zm-3.14-.889c.022-.042.03-1.045.024-3.173-.007-2.726-.014-3.115-.055-3.141-.052-.033-8.117-.044-8.2-.012-.045.017-.05.327-.05 3.182 0 1.74.01 3.173.02 3.185.012.011 1.868.02 4.124.02 4.044 0 4.104 0 4.136-.06M10.181 6.28c.043-.043.05-.184.05-1.076s-.007-1.033-.05-1.076c-.042-.043-.19-.049-1.154-.049-.962 0-1.11.006-1.154.05-.042.042-.049.184-.049 1.087 0 .766.01 1.048.038 1.076.027.027.327.037 1.154.037.973 0 1.123-.006 1.165-.049m12.253-1.06V4.125H20.09l-.008 1.062c-.005.585-.002 1.08.007 1.102.012.031.261.038 1.18.032l1.165-.008ZM22.4 3.215c.044-.016.05-.142.05-1.087 0-.79-.01-1.078-.038-1.106-.05-.05-2.186-.054-2.277-.005-.058.03-.06.076-.06 1.087 0 .78.009 1.065.037 1.093s.323.037 1.138.037c.605 0 1.123-.008 1.15-.019m-12.188-.061c.01-.027.018-.51.018-1.075 0-.828-.008-1.031-.042-1.06-.03-.025-.367-.033-1.18-.027L7.872 1l-.008 1.062c-.005.585-.002 1.08.007 1.102.011.03.271.04 1.169.04 1.023 0 1.156-.006 1.173-.05" style="fill:#000;fill-opacity:1;stroke:none;stroke-width:.251837;stroke-linejoin:bevel;stroke-dasharray:none;stroke-opacity:1" transform="matrix(1.14696 0 0 1.13737 -4.88 -.253)"/></svg>