<svg width="24" height="24" viewBox="0 0 24 24" fill="none" xmlns="http://www.w3.org/2000/svg">
<path d="M17.2828 23.9168L19.7474 17.4168H20.8849L23.3495 23.9168H22.212L21.6297 22.2647H19.0026L18.4203 23.9168H17.2828ZM13.0036 22.2918L12.2453 21.5334L14.9807 18.798C14.6647 18.482 14.3781 18.1209 14.1208 17.7147C13.8635 17.3084 13.6265 16.848 13.4099 16.3334H14.5474C14.7279 16.6855 14.9085 16.9925 15.089 17.2543C15.2696 17.5161 15.4863 17.7779 15.739 18.0397C16.037 17.7418 16.3462 17.3242 16.6666 16.7871C16.9871 16.2499 17.2286 15.7376 17.3911 15.2501H11.3786V14.1668H15.1703V13.0834H16.2536V14.1668H20.0453V15.2501H18.4745C18.2849 15.9001 18.0005 16.5682 17.6213 17.2543C17.2422 17.9404 16.8675 18.464 16.4974 18.8251L17.7974 20.1522L17.3911 21.2626L15.739 19.5699L13.0036 22.2918ZM19.3411 21.3168H21.2911L20.3161 18.5543L19.3411 21.3168Z" fill="black"/>
<path fill-rule="evenodd" clip-rule="evenodd" d="M22.3911 16.6901C22.48 15.8432 22.3872 14.9871 22.1189 14.179C22.9735 13.2296 23.5061 12.0341 23.6404 10.7637C23.7746 9.49337 23.5037 8.21309 22.8664 7.10599C22.4445 6.36616 21.8697 5.7248 21.1803 5.2247C20.491 4.72461 19.7029 4.37728 18.8687 4.20589C18.4765 2.98362 17.7062 1.91756 16.6687 1.16161C15.6313 0.405655 14.3805 -0.00108676 13.0969 9.44087e-05C12.2456 -0.00468702 11.4031 0.172204 10.6256 0.518956C9.84808 0.865708 9.15352 1.37434 8.58826 2.01089C7.3352 1.74213 6.02916 1.87815 4.85837 2.39935C3.68758 2.92055 2.7125 3.80001 2.07366 4.91099C1.64379 5.64597 1.37583 6.46427 1.28771 7.31115C1.19958 8.15803 1.29332 9.01396 1.56266 9.82169C0.702113 10.7729 0.166358 11.973 0.0328483 13.2488C-0.100662 14.5245 0.174992 15.8096 0.819958 16.9183C1.24159 17.6583 1.81631 18.2998 2.50571 18.7999C3.19512 19.3 3.98332 19.6472 4.81766 19.8183C5.14812 20.8299 5.73896 21.7368 6.53082 22.4478C7.32268 23.1588 8.2877 23.649 9.32894 23.869C10.3702 24.0891 11.451 24.0312 12.4628 23.7014C12.5957 23.6581 12.7267 23.6103 12.8558 23.5581L11.6007 22.303C11.4551 22.3368 11.3074 22.3633 11.1583 22.3825C10.3111 22.4914 9.45031 22.3569 8.6767 21.9947C7.90308 21.6324 7.24858 21.0574 6.78971 20.3369C6.33084 19.6164 6.08657 18.7801 6.08546 17.9259V12.3576C6.08724 12.3459 6.09157 12.3348 6.09814 12.325C6.10471 12.3152 6.11335 12.307 6.12346 12.3009L8.14346 11.1371L8.14826 17.8598C8.149 17.9977 8.1856 18.133 8.25445 18.2524C8.3233 18.3719 8.42203 18.4713 8.54096 18.5411L11.8902 20.4743L13.0323 19.3322L9.27436 17.1642C9.26452 17.1574 9.25669 17.1482 9.2517 17.1373C9.2467 17.1265 9.24471 17.1145 9.24596 17.1027V14.7704L10.3786 15.4239V14.1582L9.24106 13.5025L9.24586 10.5031L11.8526 9.00339L14.45 10.5031V12.0834H15.5334V6.13159C15.5326 5.99373 15.496 5.85842 15.4272 5.73897C15.3583 5.61953 15.2596 5.52004 15.1407 5.45029L10.3624 2.69209L10.2205 2.61169C11.0273 1.9377 12.0456 1.56923 13.0969 1.57089C14.2881 1.5734 15.4298 2.04772 16.2721 2.89004C17.1145 3.73236 17.5888 4.87407 17.5914 6.06529V11.6479C17.5896 11.6589 17.5852 11.6694 17.5786 11.6784C17.572 11.6875 17.5633 11.6948 17.5534 11.6999L16.8904 12.0834H17.2536V13.1316L18.7741 12.2487C18.8939 12.1823 18.9943 12.0861 19.0657 11.9691C19.137 11.8522 19.1768 11.7187 19.181 11.5818V5.90459C19.9799 6.2024 20.6777 6.72135 21.1928 7.40085C21.7079 8.08035 22.0191 8.89237 22.0901 9.74209C22.161 10.5918 21.9887 11.4442 21.5934 12.1997C21.4088 12.5525 21.1792 12.8773 20.9116 13.1668H21.0453V16.2501H20.8454C20.843 16.3057 20.8395 16.3613 20.835 16.4168H21.5752L22.1365 17.8971C22.2623 17.5057 22.3479 17.1013 22.3911 16.6901ZM2.90156 8.70999C2.71963 7.67382 2.90893 6.60667 3.43616 5.69629C4.03284 4.66438 5.01463 3.91143 6.16597 3.60275C7.31731 3.29406 8.54409 3.45488 9.57696 4.04989L14.4168 6.84119C14.4266 6.84829 14.4346 6.8575 14.4404 6.86815C14.4461 6.8788 14.4494 6.8906 14.45 6.90269V9.23509L8.60716 5.86659C8.48881 5.79715 8.35408 5.76054 8.21686 5.76054C8.07964 5.76054 7.94491 5.79715 7.82656 5.86659L3.04356 8.62479L2.90156 8.70999ZM4.54326 18.0773C3.54659 17.7196 2.70864 17.0207 2.17776 16.1045V16.1281C1.58404 15.0949 1.42394 13.8686 1.73252 12.7176C2.04111 11.5667 2.79322 10.5849 3.82416 9.98729L8.65446 7.20079C8.66539 7.19499 8.67758 7.19195 8.68996 7.19195C8.70234 7.19195 8.71453 7.19499 8.72546 7.20079L10.7456 8.36929L4.93116 11.7236C4.81188 11.7913 4.71296 11.8898 4.64473 12.0088C4.5765 12.1278 4.54146 12.2629 4.54326 12.4001V18.0773Z" fill="black"/>
</svg>
