<svg width="24" height="24" viewBox="0 0 24 24" fill="none" xmlns="http://www.w3.org/2000/svg">
<path fill-rule="evenodd" clip-rule="evenodd" d="M5.5 0C2.46243 0 0 2.46243 0 5.5V18.5C0 21.5376 2.46243 24 5.5 24H18.5C21.5376 24 24 21.5376 24 18.5V5.5C24 2.46243 21.5376 0 18.5 0H5.5ZM18.8737 4.28876C17.6782 3.53302 16.2917 3.10077 14.8134 3.10077C10.3106 3.10077 6.66028 7.1109 6.66028 12.0577C6.66028 17.0045 10.3106 21.0146 14.8134 21.0146C16.2909 21.0146 17.6766 20.5829 18.8717 19.8279C17.0526 21.4244 14.6681 22.3924 12.0575 22.3924C6.34967 22.3924 1.72256 17.7653 1.72256 12.0574C1.72256 6.34961 6.34967 1.72253 12.0575 1.72253C14.669 1.72253 17.0543 2.69116 18.8737 4.28876ZM22.1626 12.0569C22.1626 14.9281 20.9814 17.5222 19.0804 19.3759C17.8241 20.2668 16.3243 20.7844 14.7135 20.7844C12.4761 20.7844 10.4529 19.7858 8.99916 18.1755C9.88094 19.0341 10.9566 19.5384 12.1176 19.5384C15.1096 19.5384 17.5351 16.1892 17.5351 12.0579C17.5351 7.92645 15.1096 4.57733 12.1176 4.57733C10.9521 4.57733 9.87263 5.08551 8.98895 5.95013C10.4435 4.33319 12.4709 3.3299 14.7135 3.3299C16.325 3.3299 17.8253 3.84796 19.0819 4.7395C20.982 6.59308 22.1626 9.18658 22.1626 12.0569Z" fill="black"/>
</svg>
