<svg width="24" height="24" viewBox="0 0 24 24" fill="none" xmlns="http://www.w3.org/2000/svg">
<path d="M12 0.00309153C5.3865 0.00309153 0 5.49267 0 12.2541C0 16.7429 2.3595 20.6479 5.89425 22.7591L6.66375 17.5344C5.48775 16.2031 4.82775 14.4734 4.82025 12.6757C4.82025 8.66178 8.00025 5.38765 11.949 5.38765C15.8978 5.38765 19.074 8.66178 19.074 12.6757C19.074 14.5737 18.3593 16.2633 17.2305 17.5861L18 22.8147C21.5895 20.7035 24 16.7375 24 12.2533C24 5.49267 18.6135 0.00309153 12 0.00309153ZM11.949 8.40078C9.85125 8.39691 8.148 10.1506 8.15175 12.3104C8.14425 13.939 9.12825 15.3992 10.6125 15.9544L9.12825 23.9784H14.769L13.3358 15.9544C14.7188 15.3714 15.7463 14 15.7463 12.3104C15.75 10.1506 14.0468 8.39691 11.949 8.40078Z" fill="black"/>
</svg>
