<svg xmlns="http://www.w3.org/2000/svg" width="24" height="24" aria-hidden="true" class="iconify iconify--emojione-monotone" preserveAspectRatio="xMidYMid" viewBox="0 0 1.92 1.92"><path d="M1.733 1.458a2 2 0 0 0-.15-.367c-.015-.028-.082-.05-.178-.066-.007-.06-.098-.096-.206-.11V.646a.323.323 0 0 0-.118-.624.323.323 0 0 0-.118.624v.268C.873.927.794.955.769 1l-.067.005A.25.25 0 0 0 .555.966c-.099 0-.173.037-.173.086v.005q-.04.016-.05.034a2 2 0 0 0-.15.367c-.011.05.035.29.035.29a.176.176 0 0 0 .168.14H1.53c.08 0 .155-.063.168-.141 0 0 .048-.236.035-.29M1.137.666v.33a.2.2 0 0 1-.056.007.2.2 0 0 1-.056-.006V.665a.3.3 0 0 0 .112 0M.963.978v.043c0 .029.059.043.118.043.06 0 .118-.014.118-.043V.977c.095.015.145.044.145.056 0 .016-.09.064-.261.064s-.26-.048-.26-.064c0-.012.047-.04.14-.055m-.146.13c.063.035.167.051.266.051.1 0 .203-.016.265-.05q.034.018.034.03c0 .024-.101.08-.3.08-.197 0-.299-.056-.299-.08q0-.012.034-.03m-.058.097c.062.05.193.075.324.075.13 0 .261-.026.324-.075q.014.014.014.027c0 .044-.132.108-.338.108s-.339-.064-.339-.108q0-.013.015-.027M.555.997c.082 0 .143.029.143.054 0 .026-.061.055-.143.055S.413 1.077.413 1.05.473.997.555.997m-.142.104c.03.022.082.036.142.036s.112-.014.143-.036v.045c-.025.026-.08.042-.143.042s-.118-.016-.142-.042zm-.13.352q.02.006.044.005l.048-.003a10 10 0 0 1 .582-.013 14 14 0 0 1 .583.013l.048.003q.023 0 .045-.005a.16.16 0 0 0 .075-.049.15.15 0 0 1-.07.062.2.2 0 0 1-.05.011l-.048.003-.194.007a14 14 0 0 1-.777 0L.375 1.48l-.049-.003a.2.2 0 0 1-.05-.011.15.15 0 0 1-.069-.062.16.16 0 0 0 .075.049m1.35.12a.1.1 0 0 0-.044-.004l-.048.002-.194.008a14 14 0 0 1-.777 0L.375 1.57.327 1.57a.1.1 0 0 0-.045.005.16.16 0 0 0-.075.048.15.15 0 0 1 .07-.061.14.14 0 0 1 .05-.012l.048-.003.194-.007a14 14 0 0 1 .97.007l.05.003a.2.2 0 0 1 .05.012.15.15 0 0 1 .069.061.16.16 0 0 0-.075-.048" style="stroke-width:.0310878"/></svg>