<svg xmlns="http://www.w3.org/2000/svg" viewBox="0 0 24 24"><path d="M21.937 9.867a5.812 5.812 0 0 0-.501-4.771 5.876 5.876 0 0 0-6.325-2.817c-3.031-3.372-8.574-2.2-9.982 2.11a5.813 5.813 0 0 0-3.884 2.817 5.874 5.874 0 0 0 .722 6.895 5.807 5.807 0 0 0 .496 4.771 5.877 5.877 0 0 0 6.329 2.817 5.813 5.813 0 0 0 4.38 1.954 5.884 5.884 0 0 0 5.608-4.086 5.817 5.817 0 0 0 3.883-2.818 5.882 5.882 0 0 0-.726-6.872Zm-8.765 12.25a4.347 4.347 0 0 1-2.795-1.011l.138-.079 4.643-2.679a.772.772 0 0 0 .381-.662v-6.545l1.962 1.135a.067.067 0 0 1 .037.05v5.424a4.375 4.375 0 0 1-4.366 4.367Zm-9.386-4.008a4.35 4.35 0 0 1-.519-2.928l.138.082 4.647 2.681a.75.75 0 0 0 .758 0l5.677-3.273v2.266a.079.079 0 0 1-.032.06l-4.703 2.711a4.37 4.37 0 0 1-5.966-1.599ZM2.564 7.997A4.362 4.362 0 0 1 4.862 6.08v5.516a.748.748 0 0 0 .377.658l5.649 3.258-1.963 1.135a.076.076 0 0 1-.069 0L4.163 13.94a4.376 4.376 0 0 1-1.599-5.966v.023Zm16.124 3.746-5.667-3.291 1.957-1.131a.07.07 0 0 1 .069 0l4.693 2.712c2.912 1.68 2.913 5.881.002 7.563-.21.121-.431.225-.659.311v-5.516a.77.77 0 0 0-.395-.649v.001Zm1.953-2.937-.138-.083-4.638-2.703a.753.753 0 0 0-.762 0L9.431 9.293V7.028a.065.065 0 0 1 .027-.061l4.694-2.707c2.915-1.679 6.556.427 6.553 3.792 0 .246-.022.492-.064.735v.019ZM8.359 12.823l-1.962-1.131a.08.08 0 0 1-.037-.054V6.227c.005-3.364 3.65-5.463 6.562-3.776.212.123.414.264.604.421l-.138.078-4.642 2.68a.773.773 0 0 0-.382.661l-.005 6.532Zm1.067-2.298 2.528-1.457 2.533 1.457v2.914l-2.523 1.457-2.533-1.457-.005-2.914Z"/></svg>