<?xml version="1.0" encoding="UTF-8" standalone="no"?>
<svg
   width="24"
   height="24"
   viewBox="0 0 24 24"
   fill="none"
   version="1.1"
   id="svg1"
   sodipodi:docname=":opera:.svg"
   inkscape:version="1.4.3 (0d15f75, 2025-12-25)"
   xmlns:inkscape="http://www.inkscape.org/namespaces/inkscape"
   xmlns:sodipodi="http://sodipodi.sourceforge.net/DTD/sodipodi-0.dtd"
   xmlns="http://www.w3.org/2000/svg"
   xmlns:svg="http://www.w3.org/2000/svg">
  <defs
     id="defs1" />
  <sodipodi:namedview
     id="namedview1"
     pagecolor="#505050"
     bordercolor="#ffffff"
     borderopacity="1"
     inkscape:showpageshadow="0"
     inkscape:pageopacity="0"
     inkscape:pagecheckerboard="1"
     inkscape:deskcolor="#505050"
     inkscape:zoom="7.5683487"
     inkscape:cx="13.345051"
     inkscape:cy="-8.2580761"
     inkscape:window-width="968"
     inkscape:window-height="1044"
     inkscape:window-x="742"
     inkscape:window-y="40"
     inkscape:window-maximized="0"
     inkscape:current-layer="svg1" />
  <path
     d="m 23.88028,11.923198 c 0,3.316642 -1.364453,6.313196 -3.560378,8.454481 -1.451204,1.029116 -3.183686,1.627017 -5.044388,1.627017 -2.584514,0 -4.921596,-1.153525 -6.6008717,-3.013649 1.0185807,0.991805 2.2611207,1.574343 3.6022397,1.574343 3.456184,0 6.25798,-3.868801 6.25798,-8.641037 0,-4.7724103 -2.801796,-8.6411183 -6.25798,-8.6411183 -1.346317,0 -2.5932582,0.5870199 -3.6140337,1.5857785 1.6802107,-1.8677948 4.0221447,-3.0267368 6.6126657,-3.0267368 1.861511,0 3.59457,0.5984327 5.046121,1.6282876 2.194885,2.1411475 3.558645,5.1370073 3.558645,8.452634 z"
     id="path2"
     style="fill:#000000;fill-opacity:1;stroke-width:1.15515" />
  <path
     d="M 20.081135,2.9498954 C 18.700163,2.0769088 17.098558,1.5775987 15.390913,1.5775987 c -5.201372,0 -9.4180084,4.6322682 -9.4180084,10.3465233 0,5.714255 4.2166364,10.346487 9.4180084,10.346487 1.706721,0 3.307402,-0.498674 4.687911,-1.370806 -2.101318,1.844184 -4.855753,2.962361 -7.871366,2.962361 -6.593352,0 -11.9383194,-5.344956 -11.9383194,-11.938389 0,-6.5933059 5.3449674,-11.93823863 11.9383194,-11.93823863 3.016653,0 5.772012,1.11890483 7.873677,2.96435903 z"
     id="path1"
     style="fill:#000000;fill-opacity:1;stroke-width:1.15515" />
</svg>
