<svg xmlns="http://www.w3.org/2000/svg" width="24" height="24" fill="none"><path d="M3.433.043a4.299 4.299 0 0 0-1.702.669C.956 1.239.396 2.034.129 2.989L.02 3.38v17.24l.111.397c.421 1.509 1.576 2.591 3.095 2.9.403.082.472.083 8.774.083s8.371-.001 8.774-.083c1.517-.309 2.683-1.402 3.098-2.905l.108-.392V3.38l-.106-.385c-.263-.95-.83-1.756-1.605-2.283a5.134 5.134 0 0 0-1.311-.6l-.338-.09-8.48-.007C7.476.012 3.558.024 3.433.043m9.887 3.058a8.623 8.623 0 0 1 2.624.822c2.683 1.31 4.504 3.803 4.962 6.797.097.634.097 1.926 0 2.56-.4 2.611-1.827 4.837-4.026 6.28-.809.53-2.006 1.029-2.972 1.237-4.048.872-8.186-1.141-9.988-4.857-.64-1.319-.897-2.447-.897-3.94 0-1.493.257-2.621.897-3.94a8.948 8.948 0 0 1 4.14-4.142c1.031-.503 1.966-.758 3.28-.894.322-.033 1.571.015 1.98.077"/></svg>
