<svg xmlns="http://www.w3.org/2000/svg" viewBox="0 0 24 24"><path d="M14.988 0c-.584.004-1.167.035-1.504.094-1.105.191-1.877.446-2.902.956l-.742.37-.49-.102a11.482 11.482 0 0 0-6.87.669c-.512.22-.643.407-.445.635.066.076.187.126.51.211a6.841 6.841 0 0 1 2.542 1.274c.256.204.869.824 1.037 1.049l.109.145-.222.49c-.403.89-.695 1.902-.834 2.897-.067.474-.067 2.056-.001 2.521.296 2.076 1.104 3.861 2.426 5.359.152.172.276.336.276.364 0 .028-.93.982-2.068 2.12l-2.069 2.07.192.18a10.025 10.025 0 0 0 5.628 2.653c.63.08 2.122.05 2.742-.057 2.04-.348 3.821-1.242 5.285-2.653a9.512 9.512 0 0 0 1.426-1.7 10.39 10.39 0 0 0 1.43-3.35 10.2 10.2 0 0 0 .025-4.212c-.317-1.543-1.099-3.128-2.163-4.388a18.34 18.34 0 0 1-.376-.455c-.05-.07.087-.216 2.034-2.164l2.088-2.09-.315-.295A10.086 10.086 0 0 0 16.494.076c-.338-.055-.922-.08-1.506-.076zm.615 2.898c.295-.009.564.038.785.15a.669.669 0 0 1 .383.475c.062.232.022.432-.165.814-.13.268-.225.393-.526.695-.556.558-1.137.915-1.92 1.18-.37.127-.458.142-.892.152-.532.014-.72-.025-.944-.197-.283-.215-.361-.59-.21-.997.441-1.178 2.21-2.236 3.49-2.272zm2 5.773s1.35 1.023 1.636 3.395c-3.599 3.558-9.931 7-14.613 9.157z"/></svg>