<svg xmlns="http://www.w3.org/2000/svg" width="24" height="24" fill="none" viewBox="0 0 24 24"><path fill="#000" d="M12 0A12 12 0 0 0 0 12a12 12 0 0 0 12 12 12 12 0 0 0 12-12A12 12 0 0 0 12 0zm0 3.71484c.31715 0 .43692.31624.47656.59375.7136 4.99521 2.29892 6.50125 7.21485 7.21485.2775.03964.59375.1594.59375.47656 0 .31715-.31624.43692-.59375.47656-4.99521.7136-6.50125 2.29892-7.21485 7.21485-.03964.2775-.1594.59375-.47656.59375s-.43692-.31624-.47656-.59375c-.7136-4.99521-2.29892-6.50124-7.21485-7.21485-.2775-.03964-.59375-.1594-.59375-.47656s.31624-.43692.59375-.47656c4.99521-.7136 6.50124-2.29892 7.21485-7.21485.03964-.2775.1594-.59375.47656-.59375z"/></svg>