<svg width="24px" height="24px" viewBox="0 0 24 24" version="1.1" xmlns="http://www.w3.org/2000/svg"
    xmlns:xlink="http://www.w3.org/1999/xlink">
    <g id=":overcast:" stroke="none" fill="none" fill-rule="evenodd" stroke-width="1">
        <g id="overcast" transform="translate(1, 1)" fill="#000000">
            <path
                d="M11,22 C4.904075,22 0,17.095925 0,11 C0,4.904075 4.904075,0 11,0 C17.095925,0 22,4.904075 22,11 C22,17.095925 17.095925,22 11,22 Z M11,17.645925 L11.825,16.820925 L11,13.658425 L10.175,16.820925 L11,17.645925 Z M9.945925,17.6 L9.533425,19.158425 L10.495925,18.195925 L9.945925,17.6 Z M12.054075,17.6 L11.504075,18.15 L12.466575,19.1125 L12.054075,17.6 Z M12.833425,20.441575 L11,18.608425 L9.166575,20.441575 C9.7625,20.533425 10.358425,20.625 11,20.625 C11.641575,20.625 12.2375,20.579075 12.833425,20.441575 Z M11,1.375 C5.683425,1.375 1.375,5.683425 1.375,11 C1.375,15.216575 4.079075,18.791575 7.8375,20.075 L9.9,12.420925 C9.441575,12.1 9.166575,11.55 9.166575,10.954075 C9.166575,9.945925 9.991575,9.120925 11,9.120925 C12.008425,9.120925 12.833425,9.945925 12.833425,10.954075 C12.833425,11.55 12.558425,12.054075 12.1,12.420925 L14.1625,20.075 C17.920925,18.791575 20.625,15.216575 20.625,11 C20.625,5.683425 16.316575,1.375 11,1.375 Z M17.279075,15.766575 C17.05,16.041575 16.6375,16.133425 16.316575,15.904075 C15.995925,15.675 15.95,15.2625 16.179075,14.9875 C16.179075,14.9875 17.416575,13.3375 17.416575,11 C17.416575,8.6625 16.179075,7.0125 16.179075,7.0125 C15.95,6.7375 15.995925,6.325 16.316575,6.095925 C16.6375,5.866575 17.05,5.958425 17.279075,6.233425 C17.370925,6.325 18.791575,8.204075 18.791575,11 C18.791575,13.795925 17.370925,15.675 17.279075,15.766575 Z M13.933425,13.979075 C13.658425,13.704075 13.704075,13.2 13.979075,12.925 C13.979075,12.925 14.666575,12.191575 14.666575,11 C14.666575,9.808425 13.979075,9.120925 13.979075,9.075 C13.704075,8.8 13.704075,8.341575 13.933425,8.020925 C14.208425,7.7 14.620925,7.7 14.895925,7.975 C14.941575,8.020925 16.041575,9.166575 16.041575,11 C16.041575,12.833425 14.941575,13.979075 14.895925,14.025 C14.620925,14.3 14.208425,14.254075 13.933425,13.979075 Z M8.066575,13.979075 C7.791575,14.254075 7.379075,14.3 7.104075,14.025 C7.058425,13.933425 5.958425,12.833425 5.958425,11 C5.958425,9.166575 7.058425,8.066575 7.104075,7.975 C7.379075,7.7 7.8375,7.7 8.066575,8.020925 C8.341575,8.295925 8.295925,8.8 8.020925,9.075 C8.020925,9.120925 7.333425,9.808425 7.333425,11 C7.333425,12.191575 8.020925,12.925 8.020925,12.925 C8.295925,13.2 8.341575,13.658425 8.066575,13.979075 Z M5.683425,15.904075 C5.3625,16.133425 4.95,16.041575 4.720925,15.766575 C4.629075,15.675 3.208425,13.795925 3.208425,11 C3.208425,8.204075 4.629075,6.325 4.720925,6.233425 C4.95,5.958425 5.3625,5.866575 5.683425,6.095925 C6.004075,6.325 6.05,6.7375 5.820925,7.0125 C5.820925,7.0125 4.583425,8.6625 4.583425,11 C4.583425,13.3375 5.820925,14.9875 5.820925,14.9875 C6.05,15.2625 5.958425,15.675 5.683425,15.904075 Z"
                id="overcastCanvas-bezier" fill-rule="nonzero"></path>
        </g>
    </g>
</svg>