<svg xmlns="http://www.w3.org/2000/svg" width="24" height="24" viewBox="0 0 24 24"><title>Overseerr SVG Icon</title><path fill="currentColor" d="M12.05.414A11.635 11.635 0 1 0 23.685 12.05 11.635 11.635 0 0 0 12.05.414m1.454 19.999a6.9 6.9 0 0 1-3.05-.71 7.17 7.17 0 0 0 9.248-9.25 6.908 6.908 0 0 1-6.198 9.96m-.19-14.174c.055 0 .11.007.164.01l.177.013.164.019.174.022.16.026c.054.009.117.018.172.03l.157.032.17.04.154.04.165.047.151.048.162.055.15.054.157.063c.053.022.097.04.145.062l.154.068.142.069.15.077.138.074.145.084.134.082.142.09.128.086q.07.047.137.098l.125.092.132.104.117.097.128.117.116.103q.06.056.122.117l.11.108.116.116.105.116.11.128.099.117.105.134.093.116c.03.036.065.092.098.138l.087.126.092.143.081.13.086.15.075.133.079.154.067.136.073.16.061.138c.02.046.043.116.065.166s.038.093.054.14l.058.17c.019.056.033.095.047.143l.05.178c.018.062.028.093.04.14.01.048.028.117.042.184l.032.141.035.193.024.139.026.203c0 .045.011.089.016.133q.011.116.017.233c0 .035.007.07.009.107q.009.174.009.349a6.79 6.79 0 0 1-6.788 6.788q-.175.002-.35-.01l-.116-.008-.225-.017c-.047 0-.092-.012-.138-.017l-.199-.025-.144-.025-.186-.034-.147-.033-.179-.042c-.063-.015-.096-.026-.145-.04l-.174-.05-.145-.047c-.056-.019-.116-.036-.166-.057l-.145-.055-.161-.064q-.073-.03-.142-.063c-.047-.02-.105-.045-.156-.07l-.14-.07-.151-.077-.136-.076-.146-.085-.132-.082-.141-.09-.13-.09-.135-.096-.124-.095-.131-.103a2 2 0 0 1-.117-.101c-.036-.035-.083-.071-.124-.108l-.116-.107-.117-.117-.116-.116a2 2 0 0 0-.117-.116l-.105-.117a6 6 0 0 1-.208-.246 6 6 0 0 1-.196-.257l-.094-.134-.09-.132-.088-.138-.083-.136a9 9 0 0 1-.233-.432l-.07-.144-.068-.152-.063-.147-.062-.155q-.03-.078-.054-.151l-.055-.16-.048-.154-.046-.162a5 5 0 0 1-.08-.324l-.033-.16-.03-.169-.026-.163-.022-.17-.019-.167c-.006-.05-.01-.117-.013-.174l-.01-.167v-.292a6.8 6.8 0 0 1 .299-1.998 3.394 3.394 0 1 0 4.49-4.49 6.8 6.8 0 0 1 1.998-.3c.099 0 .194 0 .295.008m-9.99 5.81a.97.97 0 0 1-1.94 0A10.666 10.666 0 0 1 12.05 1.385a.97.97 0 0 1 0 1.94 8.726 8.726 0 0 0-8.727 8.726" style="stroke-width:1.16352"/></svg>