<svg xmlns="http://www.w3.org/2000/svg" width="24" height="24" viewBox="0 0 24 24"><path d="M11.700 0.389 C 8.728 0.476,5.898 1.702,3.780 3.820 C 1.840 5.760,0.667 8.270,0.396 11.060 C 0.336 11.676,0.372 13.193,0.460 13.760 C 0.665 15.081,0.998 16.154,1.558 17.300 C 2.542 19.309,4.090 21.006,5.984 22.150 C 9.393 24.209,13.593 24.416,17.180 22.703 C 18.400 22.120,19.385 21.419,20.385 20.423 C 22.211 18.602,23.322 16.386,23.725 13.760 C 23.854 12.917,23.855 11.319,23.726 10.480 C 23.396 8.330,22.584 6.438,21.289 4.800 C 20.852 4.247,19.778 3.195,19.238 2.791 C 18.005 1.869,16.647 1.191,15.280 0.815 C 14.146 0.503,12.895 0.354,11.700 0.389 M13.583 1.956 C 14.806 2.139,16.086 2.569,17.066 3.126 C 18.942 4.193,20.383 5.707,21.298 7.575 C 21.667 8.329,21.844 8.807,22.039 9.577 C 22.285 10.549,22.338 10.995,22.338 12.120 C 22.338 13.245,22.285 13.691,22.039 14.663 C 21.589 16.441,20.691 18.026,19.400 19.321 C 18.624 20.100,17.847 20.680,16.920 21.173 C 16.435 21.431,15.513 21.811,15.476 21.769 C 15.462 21.753,14.960 19.918,14.360 17.690 L 13.270 13.640 13.509 13.385 C 13.878 12.991,14.039 12.588,14.040 12.057 C 14.041 11.180,13.435 10.404,12.572 10.180 C 11.482 9.896,10.354 10.638,10.159 11.767 C 10.054 12.374,10.287 13.058,10.740 13.476 L 10.916 13.638 9.821 17.703 C 9.218 19.939,8.718 21.775,8.710 21.784 C 8.678 21.815,7.859 21.472,7.357 21.217 C 4.323 19.674,2.238 16.610,1.877 13.167 C 1.816 12.583,1.850 11.126,1.939 10.560 C 2.127 9.352,2.535 8.159,3.109 7.140 C 4.803 4.128,7.740 2.219,11.200 1.879 C 11.732 1.826,12.990 1.867,13.583 1.956 M5.648 6.825 C 5.160 7.073,4.365 8.652,4.026 10.045 C 3.544 12.022,3.777 14.156,4.677 16.016 C 4.912 16.501,5.320 17.160,5.465 17.288 C 5.787 17.572,6.358 17.520,6.562 17.188 C 6.760 16.866,6.739 16.622,6.481 16.242 C 5.951 15.460,5.521 14.339,5.345 13.280 C 5.053 11.522,5.459 9.591,6.442 8.058 C 6.678 7.690,6.698 7.643,6.698 7.436 C 6.697 7.181,6.635 7.062,6.416 6.894 C 6.231 6.753,5.855 6.719,5.648 6.825 M17.812 6.867 C 17.603 7.002,17.480 7.217,17.480 7.447 C 17.480 7.590,17.518 7.683,17.683 7.942 C 18.301 8.910,18.748 10.131,18.879 11.199 C 18.938 11.687,18.928 12.672,18.859 13.160 C 18.709 14.216,18.295 15.330,17.729 16.200 C 17.416 16.681,17.397 16.937,17.650 17.225 C 17.881 17.489,18.223 17.554,18.549 17.395 C 18.787 17.281,19.079 16.864,19.458 16.100 C 20.100 14.807,20.400 13.540,20.400 12.120 C 20.400 10.685,20.099 9.426,19.440 8.100 C 19.070 7.356,18.794 6.959,18.563 6.841 C 18.327 6.721,18.021 6.731,17.812 6.867 M8.113 8.761 C 7.913 8.867,7.486 9.444,7.240 9.940 C 6.841 10.748,6.700 11.403,6.732 12.300 C 6.770 13.359,7.110 14.279,7.781 15.143 C 8.014 15.444,8.150 15.529,8.394 15.529 C 8.788 15.529,9.099 15.249,9.146 14.852 C 9.177 14.587,9.117 14.420,8.888 14.134 C 8.454 13.592,8.242 13.018,8.211 12.296 C 8.175 11.471,8.331 10.919,8.791 10.246 C 9.090 9.808,9.160 9.658,9.160 9.460 C 9.160 9.185,8.963 8.868,8.712 8.736 C 8.561 8.658,8.287 8.669,8.113 8.761 M15.500 8.734 C 15.328 8.814,15.173 8.994,15.102 9.196 C 14.983 9.531,15.038 9.756,15.337 10.160 C 15.588 10.500,15.778 10.882,15.889 11.268 C 15.961 11.522,15.978 11.681,15.978 12.120 C 15.978 12.559,15.961 12.718,15.889 12.972 C 15.778 13.358,15.564 13.789,15.333 14.089 C 15.113 14.375,15.040 14.547,15.040 14.780 C 15.040 15.026,15.120 15.201,15.300 15.349 C 15.735 15.708,16.164 15.557,16.610 14.890 C 17.187 14.027,17.459 13.139,17.459 12.120 C 17.459 11.497,17.398 11.112,17.215 10.560 C 16.991 9.888,16.477 9.046,16.146 8.811 C 15.973 8.688,15.676 8.652,15.500 8.734 M12.541 16.674 L 12.971 18.328 12.536 18.764 L 12.101 19.200 11.671 18.771 C 11.434 18.535,11.240 18.315,11.240 18.283 C 11.240 18.252,11.421 17.531,11.642 16.683 C 12.089 14.964,12.083 14.989,12.100 15.007 C 12.106 15.014,12.305 15.764,12.541 16.674 M11.511 19.775 C 11.517 19.800,11.303 20.036,11.036 20.300 C 10.622 20.709,10.555 20.762,10.577 20.660 C 10.592 20.594,10.686 20.231,10.787 19.854 L 10.969 19.168 11.235 19.449 C 11.381 19.603,11.505 19.750,11.511 19.775 M13.420 19.910 C 13.526 20.300,13.621 20.647,13.632 20.680 C 13.642 20.713,13.423 20.515,13.146 20.241 L 12.640 19.742 12.909 19.471 C 13.057 19.322,13.189 19.200,13.203 19.200 C 13.216 19.200,13.314 19.520,13.420 19.910 M13.965 22.206 C 13.924 22.221,13.695 22.265,13.456 22.304 C 12.667 22.433,11.103 22.389,10.265 22.215 C 10.153 22.192,10.180 22.161,11.124 21.216 L 12.099 20.240 13.069 21.209 C 13.865 22.004,14.026 22.183,13.965 22.206 " stroke="none" fill-rule="evenodd"></path></svg>