<?xml version="1.0" standalone="no"?>
<!DOCTYPE svg PUBLIC "-//W3C//DTD SVG 20010904//EN"
 "http://www.w3.org/TR/2001/REC-SVG-20010904/DTD/svg10.dtd">
<svg version="1.0" xmlns="http://www.w3.org/2000/svg"
 width="1024.000000pt" height="1024.000000pt" viewBox="0 0 1024.000000 1024.000000"
 preserveAspectRatio="xMidYMid meet">

<g transform="translate(0.000000,1024.000000) scale(0.100000,-0.100000)"
fill="#000000" stroke="none">
<path d="M2360 9746 c-128 -31 -236 -86 -323 -166 -82 -75 -140 -175 -189
-325 -17 -53 -25 -5860 -8 -5995 21 -164 115 -315 265 -425 67 -49 124 -85
450 -285 83 -51 188 -116 235 -145 47 -29 398 -245 780 -481 382 -235 819
-504 970 -597 151 -93 325 -200 385 -237 61 -37 175 -108 255 -157 978 -602
1201 -740 1238 -765 132 -90 321 -150 476 -150 125 0 176 12 291 67 147 71
237 159 306 299 21 44 39 86 39 92 0 7 8 19 19 26 10 7 22 29 26 48 5 19 10
1270 12 2780 5 2947 6 2836 -49 3045 -58 223 -196 455 -370 621 -61 60 -209
172 -276 211 -26 15 -72 43 -102 63 -30 20 -60 39 -65 41 -10 4 -132 78 -370
227 -66 41 -133 83 -150 92 -16 9 -86 52 -155 95 -144 89 -222 138 -317 197
-38 22 -98 61 -135 85 -37 23 -70 43 -72 43 -2 0 -61 36 -131 80 -70 44 -129
80 -131 80 -2 0 -35 20 -72 43 -71 46 -115 74 -332 207 -74 45 -165 102 -202
126 -37 24 -70 44 -72 44 -2 0 -61 36 -131 80 -70 44 -129 80 -131 80 -2 0
-35 20 -72 43 -71 46 -115 74 -332 207 -74 45 -165 102 -202 126 -37 24 -70
44 -72 44 -2 0 -61 36 -131 80 -70 44 -129 80 -131 80 -3 0 -24 13 -47 29 -42
28 -82 53 -277 171 -58 35 -112 69 -120 75 -23 20 -142 81 -175 90 -17 5 -52
10 -80 11 -27 1 -99 5 -160 8 -75 3 -128 1 -165 -8z m1273 -2614 c34 -21 123
-76 197 -122 74 -45 155 -95 180 -110 25 -15 83 -51 130 -80 193 -119 230
-140 248 -140 11 0 75 -34 143 -76 68 -43 151 -94 184 -114 33 -20 92 -56 130
-80 89 -55 184 -113 260 -160 33 -20 89 -55 125 -77 36 -22 119 -73 185 -113
66 -41 181 -110 255 -156 74 -45 145 -91 158 -103 l22 -20 -5 -1098 c-2 -604
-8 -1315 -12 -1580 l-8 -482 -75 46 c-41 25 -118 71 -170 103 -52 31 -156 94
-230 140 -74 45 -148 90 -165 100 -16 10 -91 55 -165 100 -74 46 -178 109
-230 140 -111 67 -424 258 -525 319 -38 24 -83 51 -100 61 -45 27 -249 151
-345 210 -47 29 -101 62 -120 73 -19 10 -47 28 -62 38 -14 11 -30 19 -34 19
-4 0 -16 7 -26 17 -17 15 -18 78 -18 1600 0 870 2 1583 5 1583 3 0 33 -17 68
-38z"/>
</g>
</svg>
