<svg xmlns="http://www.w3.org/2000/svg" version="1.0" viewBox="0 0 1024 1024"><path d="M236 49.4A71.7 71.7 0 0 0 203.7 66a71.7 71.7 0 0 0-18.9 32.5c-1.7 5.3-2.5 586-.8 599.5a63.1 63.1 0 0 0 26.5 42.5c6.7 4.9 12.4 8.5 45 28.5l23.5 14.5 78 48.1 97 59.7 38.5 23.7 25.5 15.7a12546 12546 0 0 1 123.8 76.5c13.2 9 32.1 15 47.6 15 12.5 0 17.6-1.2 29.1-6.7a60.7 60.7 0 0 0 30.6-29.9c2.1-4.4 3.9-8.6 3.9-9.2 0-.7.8-1.9 1.9-2.6 1-.7 2.2-2.9 2.6-4.8.5-1.9 1-127 1.2-278 .5-294.7.6-283.6-4.9-304.5a137.6 137.6 0 0 0-37-62.1A198.2 198.2 0 0 0 679 297l-6.5-4.1c-1-.4-13.2-7.8-37-22.7-6.6-4.1-13.3-8.3-15-9.2l-15.5-9.5-31.7-19.7c-3.8-2.2-9.8-6.1-13.5-8.5a313.9 313.9 0 0 1-20.3-12.3 313.9 313.9 0 0 0-20.3-12.3c-7.1-4.6-11.5-7.4-33.2-20.7a1051.8 1051.8 0 0 1-27.4-17c-.2 0-6.1-3.6-13.1-8a313.9 313.9 0 0 0-20.3-12.3c-7.1-4.6-11.5-7.4-33.2-20.7a1051.8 1051.8 0 0 1-27.4-17c-.2 0-6.1-3.6-13.1-8a313.9 313.9 0 0 0-17.8-10.9c-4.2-2.8-8.2-5.3-27.7-17.1a317 317 0 0 1-12-7.5c-2.3-2-14.2-8.1-17.5-9-1.7-.5-5.2-1-8-1.1l-16-.8c-7.5-.3-12.8-.1-16.5.8zm127.3 261.4L383 323l18 11 13 8c19.3 11.9 23 14 24.8 14a76 76 0 0 1 14.3 7.6 1367.5 1367.5 0 0 0 31.4 19.4l26 16 12.5 7.7 18.5 11.3 25.5 15.6c7.4 4.5 14.5 9.1 15.8 10.3l2.2 2-.5 109.8c-.2 60.4-.8 131.5-1.2 158l-.8 48.2-7.5-4.6-17-10.3a2976.3 2976.3 0 0 0-39.5-24L502 713a1749 1749 0 0 0-23-14l-52.5-31.9-10-6.1a6571.8 6571.8 0 0 1-52.7-32.1 10 10 0 0 0-3.4-1.9c-.4 0-1.6-.7-2.6-1.7-1.7-1.5-1.8-7.8-1.8-160 0-87 .2-158.3.5-158.3s3.3 1.7 6.8 3.8z"/></svg>