<svg xmlns="http://www.w3.org/2000/svg" width="24" height="24" viewBox="0 0 24 24"><path fill-rule="evenodd" d="M.12.159C.067.193.059 1.552.05 11.935.043 19.532.053 23.71.079 23.777l.039.103 5.691-.003c5.622-.003 5.687-.004 5.391-.077-.313-.077-.56-.166-2.74-.988-.726-.274-1.995-.749-2.82-1.057-4.073-1.517-4.312-1.62-4.679-2.018-.176-.192-.324-.482-.486-.957L.38 18.5V5.3l.137-.28c.16-.329.495-.682.77-.814.305-.147 3.166-1.213 3.253-1.212.072 0 9.74 3.6 10.989 4.091.28.11.55.234.6.274l.091.074.02 1.753.02 1.754.254-.43c.139-.236.266-.438.283-.448s.135.089.265.22c.129.131.249.238.266.238s.142-.189.278-.42.26-.42.275-.42.14.099.275.22a3 3 0 0 0 .261.22c.008 0 .073-.095.145-.21.29-.469.4-.63.432-.63.018 0 .143.101.279.223l.247.224-.005-1.674c-.002-.92-.016-1.727-.03-1.793-.019-.092-.067-.14-.205-.206-.099-.047-1.242-.483-2.54-.968-6.077-2.27-8.573-3.205-8.718-3.267l-.159-.067.139-.059c.295-.126 2.523-.951 2.974-1.101.453-.152.499-.159.98-.16.277 0 .585.021.684.048.227.06 3.579 1.295 7.174 2.641 1.916.718 2.789 1.064 2.856 1.13a.5.5 0 0 1 .117.255c.027.197-.098.363-.354.474-.225.097-.313.174-.285.246.029.075.204.039.462-.095.233-.122.378-.288.413-.472.014-.077.042-.139.061-.139.056 0 .275.317.401.58l.115.24v13.178l-.12.302c-.28.704-.466.975-.831 1.209-.292.186-.642.332-2.345.977-5.359 2.028-7.303 2.744-7.724 2.845-.044.011 2.471.022 5.589.024 5.565.005 5.669.004 5.71-.072.028-.053.041-3.801.041-11.818 0-10.619-.006-11.745-.063-11.802S22.668.12 11.987.121C4.616.121.157.135.12.159m22.392 4.982c-.012.012-.034-.01-.049-.049-.022-.057-.018-.062.022-.023.027.027.04.06.027.072m-.137.001c.014.036.007.052-.015.038s-.04-.042-.04-.062c0-.058.029-.045.055.024m-.095.018c0 .022-.019.04-.042.04s-.032-.018-.018-.04.033-.04.042-.04.018.018.018.04m-.293.029c-.01.017.007.054.037.083.046.042.056.041.056-.008 0-.068-.065-.12-.093-.075M5.404 9.299c-.553.392-1.785 1.329-1.945 1.479q-.142.133-.115.199c.034.089.296.217.864.423l.468.169.012 3.426c.009 2.56.025 3.452.061 3.534.029.065.125.147.239.204.266.133 1.591.629 1.752.655.26.042.248.2.276-3.525.013-1.846.033-3.365.043-3.375s.293.084.629.208c.594.218.752.259.752.192 0-.135-2.342-3.734-2.477-3.806-.131-.07-.18-.051-.559.217m12.276 6.637c-1.694.605-3.223 1.197-3.5 1.355l-.16.092-.012 1.438c-.006.792-.001 1.498.012 1.569.019.104.043.13.119.13.092 0 3.184-1.14 4.081-1.505.242-.099.463-.209.49-.245.038-.049.05-.408.05-1.473 0-.774-.011-1.463-.025-1.532-.02-.102-.044-.125-.13-.123-.058 0-.474.133-.925.294"/></svg>