<svg version="1.1" id="svg1" width="24" height="24" viewBox="0 0 24 24" sodipodi:docname=":parcel:.svg" inkscape:version="1.4.3 (0d15f75, 2025-12-25)" xmlns:inkscape="http://www.inkscape.org/namespaces/inkscape" xmlns:sodipodi="http://sodipodi.sourceforge.net/DTD/sodipodi-0.dtd" xmlns="http://www.w3.org/2000/svg" xmlns:svg="http://www.w3.org/2000/svg"><path d="M0.120 0.159 C 0.067 0.193,0.059 1.552,0.050 11.935 C 0.043 19.532,0.053 23.710,0.079 23.777 L 0.118 23.880 5.809 23.877 C 11.431 23.874,11.496 23.873,11.200 23.800 C 10.887 23.723,10.640 23.634,8.460 22.812 C 7.734 22.538,6.465 22.063,5.640 21.755 C 1.567 20.238,1.328 20.135,0.961 19.737 C 0.785 19.545,0.637 19.255,0.475 18.780 L 0.380 18.500 0.380 11.900 L 0.380 5.300 0.517 5.020 C 0.677 4.691,1.012 4.338,1.287 4.206 C 1.592 4.059,4.453 2.993,4.540 2.994 C 4.612 2.994,14.280 6.594,15.529 7.085 C 15.809 7.195,16.079 7.319,16.129 7.359 L 16.220 7.433 16.240 9.186 L 16.260 10.940 16.514 10.510 C 16.653 10.274,16.780 10.072,16.797 10.062 C 16.813 10.052,16.932 10.151,17.062 10.282 C 17.191 10.413,17.311 10.520,17.328 10.520 C 17.345 10.520,17.470 10.331,17.606 10.100 C 17.742 9.869,17.866 9.680,17.881 9.680 C 17.897 9.680,18.021 9.779,18.156 9.900 C 18.292 10.021,18.409 10.120,18.417 10.120 C 18.425 10.120,18.490 10.025,18.562 9.910 C 18.852 9.441,18.962 9.280,18.994 9.280 C 19.012 9.280,19.137 9.381,19.273 9.503 L 19.520 9.727 19.515 8.053 C 19.513 7.133,19.499 6.326,19.485 6.260 C 19.466 6.168,19.418 6.120,19.280 6.054 C 19.181 6.007,18.038 5.571,16.740 5.086 C 10.663 2.816,8.167 1.881,8.022 1.819 L 7.863 1.752 8.002 1.693 C 8.297 1.567,10.525 0.742,10.976 0.592 C 11.429 0.440,11.475 0.433,11.956 0.432 C 12.233 0.432,12.541 0.453,12.640 0.480 C 12.867 0.540,16.219 1.775,19.814 3.121 C 21.730 3.839,22.603 4.185,22.670 4.251 C 22.726 4.307,22.775 4.414,22.787 4.506 C 22.814 4.703,22.689 4.869,22.433 4.980 C 22.208 5.077,22.120 5.154,22.148 5.226 C 22.177 5.301,22.352 5.265,22.610 5.131 C 22.843 5.009,22.988 4.843,23.023 4.659 C 23.037 4.582,23.065 4.520,23.084 4.520 C 23.140 4.520,23.359 4.837,23.485 5.100 L 23.600 5.340 23.600 11.929 L 23.600 18.518 23.480 18.820 C 23.200 19.524,23.014 19.795,22.649 20.029 C 22.357 20.215,22.007 20.361,20.304 21.006 C 14.945 23.034,13.001 23.750,12.580 23.851 C 12.536 23.862,15.051 23.873,18.169 23.875 C 23.734 23.880,23.838 23.879,23.879 23.803 C 23.907 23.750,23.920 20.002,23.920 11.985 C 23.920 1.366,23.914 0.240,23.857 0.183 C 23.800 0.126,22.668 0.120,11.987 0.121 C 4.616 0.121,0.157 0.135,0.120 0.159 M22.512 5.141 C 22.500 5.153,22.478 5.131,22.463 5.092 C 22.441 5.035,22.445 5.030,22.485 5.069 C 22.512 5.096,22.525 5.129,22.512 5.141 M22.375 5.142 C 22.389 5.178,22.382 5.194,22.360 5.180 C 22.338 5.166,22.320 5.138,22.320 5.118 C 22.320 5.060,22.349 5.073,22.375 5.142 M22.280 5.160 C 22.280 5.182,22.261 5.200,22.238 5.200 C 22.214 5.200,22.206 5.182,22.220 5.160 C 22.234 5.138,22.253 5.120,22.262 5.120 C 22.272 5.120,22.280 5.138,22.280 5.160 M21.987 5.189 C 21.977 5.206,21.994 5.243,22.024 5.272 C 22.070 5.314,22.080 5.313,22.080 5.264 C 22.080 5.196,22.015 5.144,21.987 5.189 M5.404 9.299 C 4.851 9.691,3.619 10.628,3.459 10.778 C 3.364 10.868,3.327 10.932,3.344 10.977 C 3.378 11.066,3.640 11.194,4.208 11.400 L 4.676 11.569 4.688 14.995 C 4.697 17.555,4.713 18.447,4.749 18.529 C 4.778 18.594,4.874 18.676,4.988 18.733 C 5.254 18.866,6.579 19.362,6.740 19.388 C 7.000 19.430,6.988 19.588,7.016 15.863 C 7.029 14.017,7.049 12.498,7.059 12.488 C 7.068 12.478,7.352 12.572,7.688 12.696 C 8.282 12.914,8.440 12.955,8.440 12.888 C 8.440 12.753,6.098 9.154,5.963 9.082 C 5.832 9.012,5.783 9.031,5.404 9.299 M17.680 15.936 C 15.986 16.541,14.457 17.133,14.180 17.291 L 14.020 17.383 14.008 18.821 C 14.002 19.613,14.007 20.319,14.020 20.390 C 14.039 20.494,14.063 20.520,14.139 20.520 C 14.231 20.520,17.323 19.380,18.220 19.015 C 18.462 18.916,18.683 18.806,18.710 18.770 C 18.748 18.721,18.760 18.362,18.760 17.297 C 18.760 16.523,18.749 15.834,18.735 15.765 C 18.715 15.663,18.691 15.640,18.605 15.642 C 18.547 15.642,18.131 15.775,17.680 15.936 " stroke="none" fill-rule="evenodd" fill="#000000"></path></svg>