<svg version="1.1" id="svg1" width="24" height="24" viewBox="0 0 24 24" xmlns="http://www.w3.org/2000/svg">
   <defs id="defs1" />
   <g id="g1">
      <path style="fill:#000000;stroke-width:0.0234376"
         d="M 0,12 V 0 H 12 24 V 12 24 H 12 0 Z m 12.33366,7.160962 c 0.183708,-0.03213 0.589039,-0.169329 1.283528,-0.43447 0.184239,-0.07034 0.725071,-0.271716 0.972656,-0.362166 0.116015,-0.04238 0.321679,-0.119834 0.457031,-0.172112 0.135352,-0.05228 0.39375,-0.149132 0.574219,-0.215233 0.470177,-0.172215 0.568723,-0.208816 0.726562,-0.269849 0.07734,-0.02991 0.288281,-0.10919 0.46875,-0.176184 0.316496,-0.117491 0.693271,-0.259083 0.9375,-0.352311 0.564795,-0.215596 0.783844,-0.337513 0.92215,-0.513247 0.102945,-0.130803 0.140092,-0.202613 0.255297,-0.493515 l 0.08818,-0.222656 v -3.9375 -3.9375002 L 18.965623,7.9408152 C 18.911493,7.806873 18.735651,7.5468749 18.699188,7.5468749 c -0.01073,0 -0.0195,0.023037 -0.0195,0.051194 0,0.1320139 -0.169707,0.3520537 -0.238658,0.3094399 -0.01452,-0.00897 -0.02005,-0.00605 -0.0123,0.00649 0.01347,0.021794 -0.120151,0.082972 -0.194762,0.089173 -0.01956,0.00163 -0.0512,0.012057 -0.07031,0.023182 -0.01911,0.011124 -0.02681,0.011481 -0.01712,7.923e-4 0.0097,-0.010689 -8.5e-4,-0.041201 -0.02344,-0.067807 -0.03977,-0.046851 -0.03964,-0.047279 0.0043,-0.013621 0.04056,0.031047 0.04392,0.030788 0.03151,-0.00243 -0.01051,-0.028099 0.01461,-0.04743 0.102825,-0.079153 0.159294,-0.057281 0.248798,-0.1375361 0.268093,-0.2403906 0.02203,-0.1174457 -0.04121,-0.2274266 -0.164187,-0.2855416 -0.155952,-0.073695 -5.797722,-2.1579556 -5.95361,-2.1994642 -0.192422,-0.051237 -0.632562,-0.051001 -0.825846,4.407e-4 -0.186915,0.049749 -2.07059,0.7462966 -2.07059,0.7656666 0,0.013275 1.631366,0.6207036 5.589844,2.0813431 0.747656,0.2758779 1.377832,0.5182835 1.40039,0.5386794 0.03792,0.034284 0.04102,0.1176905 0.04102,1.1050395 v 1.067957 L 16.39976,10.552057 c -0.08091,-0.08019 -0.157443,-0.145807 -0.170067,-0.145807 -0.01262,0 -0.0909,0.116016 -0.173944,0.257813 -0.08304,0.141797 -0.159059,0.257812 -0.168919,0.257812 -0.0099,0 -0.08715,-0.06476 -0.171759,-0.143901 -0.08461,-0.07915 -0.157268,-0.139791 -0.161468,-0.134766 -0.0042,0.005 -0.05315,0.08824 -0.108781,0.184917 -0.05563,0.09668 -0.126731,0.216699 -0.158006,0.266709 l -0.05686,0.09093 -0.159447,-0.158225 -0.159447,-0.158225 -0.03455,0.05558 c -0.019,0.03057 -0.09387,0.155774 -0.166377,0.278235 l -0.131828,0.222656 -9.3e-5,-1.026554 c -7.1e-5,-0.8616788 -0.0057,-1.0373588 -0.03488,-1.0938244 -0.04278,-0.082729 0.294539,0.047863 -3.776795,-1.4621724 L 7.5057375,6.6338171 6.618101,6.9620428 C 6.1299052,7.1425669 5.6777344,7.3122156 5.6132812,7.3390399 5.3345864,7.4550277 5.1086311,7.708305 5.0158423,8.0087203 c -0.046355,0.1500803 -0.047092,0.2127562 -0.047092,4.0033787 0,3.744275 0.00126,3.854702 0.045327,3.987766 0.1441179,0.435128 0.189949,0.533607 0.3167679,0.680647 0.1589665,0.184313 0.3716355,0.294769 1.0910299,0.566659 0.1095703,0.04141 0.2203125,0.08425 0.2460937,0.09519 0.052822,0.02243 0.9679348,0.361325 1.1484375,0.425308 0.064453,0.02285 0.1699219,0.06173 0.2343751,0.08641 0.064453,0.02467 0.280664,0.105219 0.4804687,0.178985 0.1998047,0.07377 0.4001953,0.148276 0.4453125,0.165576 0.045117,0.0173 0.1453125,0.05506 0.2226563,0.0839 0.077344,0.02885 0.1722656,0.06552 0.2109375,0.0815 0.1111544,0.04592 1.1989626,0.449174 1.5468746,0.573425 0.07734,0.02762 0.161719,0.0592 0.1875,0.07018 0.0703,0.02993 0.248505,0.08841 0.328125,0.107671 0.03867,0.0094 0.08613,0.02083 0.105469,0.02549 0.185185,0.0447 0.558264,0.05464 0.755535,0.02015 z m 0.926106,-2.006781 c -0.03795,-0.02193 -0.04102,-0.09176 -0.04102,-0.935289 v -0.911591 l 0.05273,-0.05898 c 0.0747,-0.08355 2.724673,-1.064021 2.78055,-1.028784 0.03357,0.02117 0.03843,0.125988 0.04331,0.935357 0.0051,0.84654 0.0025,0.915406 -0.03665,0.966098 -0.03178,0.04115 -0.367269,0.175195 -1.363304,0.544704 -0.726634,0.269566 -1.33768,0.495085 -1.35788,0.501153 -0.0202,0.0061 -0.05519,3.68e-4 -0.07774,-0.01266 z M 8.3057888,16.301502 C 8.0206523,16.194331 7.7605259,16.089064 7.72773,16.067575 7.5886434,15.976443 7.59375,16.061612 7.59375,13.832979 V 11.794136 L 7.2160554,11.656834 C 6.8188889,11.512453 6.7455091,11.463165 6.7936894,11.37314 c 0.041799,-0.0781 1.4267126,-1.107515 1.4899884,-1.107515 0.031602,0 0.083834,0.02373 0.1160705,0.05273 0.090268,0.08122 1.4720006,2.221886 1.4578896,2.258659 -0.00683,0.0178 -0.025931,0.0322 -0.042449,0.03202 C 9.7986709,12.608846 9.6164084,12.545565 9.4101608,12.468409 9.2039128,12.391253 9.0272527,12.328125 9.0175823,12.328125 9.007912,12.328125 9,13.245703 9,14.367188 c 0,2.007812 -7.172e-4,2.03978 -0.046875,2.085937 -0.025781,0.02578 -0.065332,0.04605 -0.087891,0.04505 -0.022559,-0.001 -0.274309,-0.08951 -0.5594452,-0.196677 z M 18.09082,8.0507814 c -0.0016,-0.00645 -0.0047,-0.024902 -0.0069,-0.041016 -0.0022,-0.016113 -0.01748,-0.026399 -0.03397,-0.022857 -0.01681,0.00361 -0.0229,-0.005 -0.01387,-0.019621 0.01945,-0.031476 0.06381,0.00549 0.07179,0.059818 0.0047,0.03187 -0.0099,0.05215 -0.01703,0.023675 z m 0.127094,-0.097657 c -0.0066,-0.017187 -0.01501,-0.03125 -0.0187,-0.03125 -0.0037,0 -0.0121,0.014063 -0.0187,0.03125 -0.0066,0.017188 0.0018,0.03125 0.0187,0.03125 0.01688,0 0.02529,-0.014062 0.0187,-0.03125 z m 0.09584,-0.012101 c -0.0068,-0.010952 -0.02392,-0.012738 -0.03811,-0.00397 -0.01726,0.010667 -0.02014,0.0011 -0.0087,-0.028915 0.01304,-0.034224 0.01058,-0.038398 -0.01038,-0.017606 -0.03292,0.032659 -0.0145,0.070402 0.03435,0.070402 0.01934,0 0.02962,-0.00896 0.02285,-0.019914 z m 0.05343,-0.026961 c 0,-0.017188 -0.0139,-0.03125 -0.03088,-0.03125 -0.02308,0 -0.02432,0.0079 -0.0049,0.03125 0.01426,0.017187 0.02816,0.03125 0.03088,0.03125 0.0027,0 0.0049,-0.014062 0.0049,-0.03125 z"
         id="path1" />
   </g>
</svg>