<svg xmlns="http://www.w3.org/2000/svg" xml:space="preserve" fill-rule="evenodd" stroke-linejoin="round" stroke-miterlimit="2" clip-rule="evenodd" viewBox="0 0 24 24"><path fill-rule="nonzero" d="M12.886.233a2.644 2.644 0 0 1 2.628 2.354h2.074a2.646 2.646 0 0 1 2.641 2.466l.006.181a.88.88 0 0 1-.761.872l-.123.01a.88.88 0 0 1-.872-.762l-.009-.12a.886.886 0 0 0-.763-.876l-.119-.008H15.08a2.64 2.64 0 0 1-2.194 1.17H8.76c-.88 0-1.703-.437-2.194-1.17H4.059a.88.88 0 0 0-.874.764l-.009.12v15.887c0 .448.332.815.763.874l.12.01h3.528c.44 0 .815.324.876.76l.008.12a.883.883 0 0 1-.884.882H4.059a2.64 2.64 0 0 1-2.64-2.464l-.007-.182V5.234a2.646 2.646 0 0 1 2.466-2.642l.181-.005h2.074A2.644 2.644 0 0 1 8.76.233zm7.054 7.06a2.647 2.647 0 0 1 2.642 2.465l.006.181v11.176a2.647 2.647 0 0 1-2.467 2.641l-.18.006h-7.647a2.65 2.65 0 0 1-2.642-2.465l-.005-.182V9.939a2.644 2.644 0 0 1 2.465-2.64l.182-.006zm-7.054-5.295H8.76a.88.88 0 0 0 0 1.756h4.125a.876.876 0 0 0 .807-1.289.88.88 0 0 0-.807-.467m-.501 10.544s-.017-.024.013.062c.04.076.117.198.174.255.051.05.147.108.204.137.056.019.173.045.245.051h6.45a1 1 0 0 0 .158-.022 2 2 0 0 0 .148-.059 1 1 0 0 0 .144-.107c.038-.038.093-.11.12-.15.053-.121.117-.355.128-.482a1.8 1.8 0 0 0-.123-.435 1.1 1.1 0 0 0-.26-.263.9.9 0 0 0-.315-.086h-6.45a1.2 1.2 0 0 0-.239.048 1.4 1.4 0 0 0-.21.14 1.5 1.5 0 0 0-.175.258 2 2 0 0 0-.073.355zm0 3.381s-.017-.024.013.062c.04.076.117.198.174.255.051.05.147.108.204.137.056.019.173.045.245.051h6.45a1 1 0 0 0 .158-.022 2 2 0 0 0 .148-.059 1 1 0 0 0 .144-.107c.038-.038.093-.11.12-.15.053-.121.117-.355.128-.482a1.8 1.8 0 0 0-.123-.435 1.1 1.1 0 0 0-.26-.263.9.9 0 0 0-.315-.086h-6.45a1.2 1.2 0 0 0-.239.048 1.4 1.4 0 0 0-.21.14 1.5 1.5 0 0 0-.175.258 2 2 0 0 0-.073.355zm0 3.38s-.017-.024.013.062c.04.076.117.198.174.255.051.05.147.108.204.137.056.019.173.045.245.051h6.45a1 1 0 0 0 .158-.022c.035-.012.107-.04.148-.059.04-.025.112-.076.144-.107.038-.038.093-.11.12-.15.053-.12.117-.355.128-.482a1.8 1.8 0 0 0-.123-.435 1.1 1.1 0 0 0-.26-.263.9.9 0 0 0-.315-.086h-6.45a1 1 0 0 0-.239.048 1.3 1.3 0 0 0-.21.14 1.5 1.5 0 0 0-.175.258c-.031.093-.065.254-.073.355z"/></svg>