<svg xmlns="http://www.w3.org/2000/svg" width="24" height="24" fill="none" viewBox="0 0 24 24"><path fill="#000" d="M8.89 19.24h-.67l-.8-.22-.7-.35-.8-.58-.54-.58-.45-.62-.26-.58-.18-.67-.05-.37v-.51zM7.33 14.93l.05.27.13.22.18.31.4.36.4.22.35.09 2.36 2.36-.31.13-.53.22-.5.13-5.37-5.42.18-.75.26-.58zM12.71 17.51l-.35.4-.54.49-2.13-2.09.44-.31.5-.58zM13.6 15.6l-.09.44-.13.45-.27.44-2.31-2.3-.04-.27-.1-.32-.13-.26-.26-.36-.45-.3-.3-.14-.36-.05-2.4-2.3.35-.23.8-.27h.18zM9.69 10.04l.53.1.4.13.22.09.23.13.4.35 1.6 1.6.22.32.13.3.14.45.08.36.05.4v.44L9.02 10h.31zM8.27 13.07l-.5.4-.3.53-2.18-2.13.4-.45.49-.44zM18.22 12.04l-.84.98-4.4-4.44.89-.9zM14.62 11.24l-.84.9L11.56 10l.93-.89zM19.6 10.67l-.84.89L14.3 7.2l.93-.89zM18.8 7.02l-.89.94-2.18-2.18.9-.9z"/><path fill="#000" fill-rule="evenodd" d="M12 0a12 12 0 1 1 0 24 12 12 0 0 1 0-24m0 .71a11.29 11.29 0 1 0 0 22.58A11.29 11.29 0 0 0 12 .7" clip-rule="evenodd"/></svg>