<svg xmlns="http://www.w3.org/2000/svg" xml:space="preserve" width="28" height="28" viewBox="0 0 28 28"><path d="M9.082 0.237 C 8.257 0.522,7.609 1.289,7.401 2.226 C 7.334 2.528,7.327 3.694,7.327 13.990 C 7.327 25.232,7.328 25.424,7.419 25.780 C 7.562 26.337,7.771 26.717,8.143 27.096 C 8.483 27.441,8.759 27.610,9.190 27.738 C 9.417 27.805,9.994 27.813,14.627 27.812 C 17.952 27.811,19.883 27.794,20.015 27.764 C 20.996 27.538,21.767 26.609,21.932 25.454 C 21.970 25.184,21.981 21.989,21.971 13.720 L 21.957 2.357 21.847 2.030 C 21.578 1.228,21.117 0.666,20.466 0.346 L 20.095 0.163 14.726 0.153 C 9.431 0.142,9.353 0.143,9.082 0.237 M13.440 7.747 L 13.440 12.600 11.597 12.600 L 9.753 12.600 9.753 7.747 L 9.753 2.893 11.597 2.893 L 13.440 2.893 13.440 7.747 M19.507 7.391 L 19.507 11.888 19.285 11.918 C 18.971 11.960,18.612 12.140,18.347 12.388 L 18.120 12.600 16.993 12.600 L 15.867 12.600 15.867 7.747 L 15.867 2.893 17.687 2.893 L 19.507 2.893 19.507 7.391 M13.440 20.207 L 13.440 25.060 11.597 25.060 L 9.753 25.060 9.753 20.207 L 9.753 15.353 11.597 15.353 L 13.440 15.353 13.440 20.207 M18.273 15.489 C 18.457 15.707,18.819 15.911,19.175 15.997 L 19.506 16.077 19.506 20.568 L 19.507 25.060 17.687 25.060 L 15.867 25.060 15.867 20.207 L 15.867 15.353 17.013 15.353 L 18.159 15.353 18.273 15.489 " fill="#e0995e" stroke="none" fill-rule="evenodd"></path></svg>