<svg xmlns="http://www.w3.org/2000/svg" height="24" widht="24" viewBox="0 0 24 24"><path d="m11.8506 0-.25.0182-.0035.0002c-.0014-.0013.0023-.0022-.0018-.0036a.1397.1397 0 0 0-.0792 0c-.0134.0047-.0076.0083.006.0108-.1004.008-.1978.0176-.2944.0277.0048-.0025.008-.0055.0036-.0093-.0105-.0092-.0379-.0102-.0607-.0022-.0228.008-.0153.0136.013.0157-.532.0575-1.0053.1454-1.3814.2612l-.2212.068.8552.0022.8251.002h.03l.2797-.1956Zm-.5893.3909H9.5592L9.206.5235c-.955.3586-1.7968.895-2.478 1.5528.0335-.0322.06-.0615.0522-.0615-.0087 0-.0492.031-.09.0688-.0408.0379-.0672.0688-.0585.0688.008 0 .0459-.0297.0836-.0639-.768.7457-1.3295 1.6465-1.605 2.6291-.1552.553-.201.8906-.201 1.4807.0001.598.049.9671.199 1.5016.278.9912.8554 1.9086 1.6375 2.6635-.0083-.01-.0232-.023-.0477-.0398-.0501-.0343-.0514-.0334-.012.0103.0238.0265.0487.0482.0553.0482.0126 0 .0147-.0055.008-.015.6949.6695 1.5503 1.2113 2.5077 1.5578l.245.0887V19.3l.0012 1.2453c.001.9847.01 1.26.0433 1.3144.0237.0386.3082.3083.6645.6376l-.1119-.0907c.0014-.0014.0033-.0021.0033-.0054 0-.005-.0393-.039-.0871-.0757l-.0733-.0565c.0057-.0073-.0157-.0288-.0689-.068l-.057-.042c.0053-.0076-.0163-.0291-.0691-.068l-.0711-.0524.06.0619c.0331.034.065.062.071.062.0037 0 .0044-.0017.0062-.0026l.0492.0507c.0331.034.065.0619.071.0619.0039 0 .0047-.0015.0065-.0025l.0654.0644c.0584.0577.0852.0787.0935.0732l.1126.1056c.0687.0644.1291.117.1343.117.0042 0 .0047-.0019.0057-.0037.1606.1477.3266.2988.4928.4494-.027-.0215-.0715-.0602-.0757-.0602-.0087 0 .047.0557.1237.1238s.1467.1238.1554.1238c.0025 0-.0285-.0274-.0356-.0356.4276.3853.7931.7067.828.7191.1162.041.307.0378.4044-.0069.0703-.0322.3313-.2511.5753-.4702-.2607.2267-.474.4184-.474.426 0 .0076.2133-.1718.474-.3985.2606-.2267.4736-.4182.4736-.4258 0-.0075-.2125.1712-.4714.3963.2446-.2197.4714-.4392.4714-.4702 0-.0305-.0548-.1225-.122-.2044-.0671-.082-.1596-.2139-.2055-.2931-.0837-.1443-.1278-.2306-.1513-.447a.0603.0603 0 0 0-.0027-.0228c-.0228-.2343-.0238-.617-.0238-1.3598V19.3l-.001-3.2136-.001-3.2133-.3183-.1653c-.4394-.228-.9147-.5513-1.3561-.9031-.002-.0096-.0192-.0265-.0534-.0499a.1943.1943 0 0 0-.0293-.018c-.1256-.1023-.2515-.2034-.368-.309.0235-.0007.0048-.0228-.061-.0713l-.071-.0523.0197.0202c-.013-.0123-.027-.0244-.0399-.0366.0102-.006-.0069-.0258-.0509-.0558-.01-.0069-.0098-.0056-.016-.0096a6.8491 6.8491 0 0 1-.1915-.1933c-.5616-.5956-1.1045-1.4053-1.423-2.122-.2429-.5462-.444-1.2792-.5281-1.9242-.0047-.0359-.0063-.0895-.0101-.1312.0105-.0091.0116-.033.0025-.0528-.0028-.0061-.0048-.0049-.0072-.0066-.002-.0274-.0043-.0526-.0061-.0816.0029.0043.0064.0073.0108.0034.0105-.0091.0116-.033.0025-.0528-.0082-.0178-.0138-.0124-.0167.0057a9.7313 9.7313 0 0 1 .0012-.9771c.003.0075.0074.0105.013.0056.0105-.0091.0116-.0327.0025-.0525-.005-.011-.0095-.015-.0128-.012.0017-.028.005-.0472.0069-.074.0012-.0004.002.0022.0034.001.0105-.0092.0116-.0328.0025-.0526-.0004-.0008-.0006 0-.001-.0008.0073-.0887.0136-.1834.0238-.253.2167-1.4784.8915-2.8332 1.958-3.9545.0113-.0033.0298-.0179.0551-.046.0274-.0304.0269-.0333.012-.0248.0428-.044.0869-.087.1309-.1302.0235-.0175.0386-.0262.0743-.0582.059-.053.1001-.0966.0915-.0966-.0024 0-.0252.0207-.0337.0266a8.385 8.385 0 0 1 .1994-.1801c-.0835.0734-.1623.1453-.1623.1518 0 .0076.0851-.0597.1894-.1496.1042-.0899.1896-.1696.1896-.1772 0-.0071-.0828.059-.179.1413.015-.013.0293-.0268.0445-.0398L11.099.53c-.0443.0413-.0844.081-.077.081.0086 0 .064-.0433.123-.0963.0589-.053.1001-.0963.0914-.0963-.006 0-.0484.0362-.0843.0661zM17.1348.011a8.1074 8.1074 0 0 0-1.0726.0402c.0025-.0023.0065-.0042.003-.0073-.0106-.0092-.0377-.0102-.0606-.0022-.0189.0066-.0137.011.0027.0137-2.2683.2474-4.3202 1.4428-5.4295 3.2853-.5999.9965-.8747 2.1363-.7882 3.2683.0322.4219.0575.5703.1744 1.0206l.0821.3164h.0217l.018.062c.0473.165.2525.6144.4116.9013.273.4923.6264.9529 1.0448 1.368a.1997.1997 0 0 0-.0418-.0366c-.0501-.0342-.0511-.0331-.0118.0106.0393.0436.063.0567.0654.0385.425.4195.917.7918 1.4614 1.1029.3442.1966.8578.4338 1.1547.5331l.1975.0661v7.5217c0 2.0918.004 2.2565.0554 2.3374.022.0348.1966.2033.4318.4236-.0142-.0118-.0175-.0157-.0369-.0312l-.106-.0848c.0013-.0014.0033-.0019.0033-.0052 0-.0049-.039-.0392-.0869-.0759l-.079-.0604c.0024-.0014.008.0019.008-.003 0-.0057-.025-.0273-.0554-.0481-.05-.0342-.051-.0331-.0118.0106.031.0343.0488.0443.058.041l.0699.069c.0582.0575.0849.0785.0932.0732l.0972.092c.0598.0567.113.1031.1183.1031.007 0 .0086-.0028.0066-.0078.1622.1512.343.3175.5357.493l-.0618-.0484c.0014-.0014.003-.002.003-.0054 0-.0049-.039-.039-.0868-.0756l-.0736-.0563c.0063-.0071-.015-.0285-.0686-.068l-.071-.0526.0602.0619c.0331.034.065.062.071.062.0038 0 .0044-.0015.0062-.0025l.0654.0646c.0577.057.0846.0779.0933.0732l.0811.0781c.051.0492.0971.0894.1026.0894.0043 0 .0053-.0016.0066-.0032.5477.4965 1.0915.9763 1.138.9911a.54.54 0 0 0 .359-.008c.0586-.0222.9026-.7382 1.9873-1.686 2.0748-1.8128 2.0002-1.7351 1.9201-1.9981-.031-.1021-.1796-.243-1.1702-1.1088a91.5363 91.5363 0 0 1-.6736-.5948c.116.1022.254.2241.2572.2241.0228 0-.018-.0371-.3627-.3307l-.1909-.1626c-.0562-.052-.1645-.149-.1645-.1524 0-.0048.053-.0554.1003-.1007l.255-.2164c.1869-.1587.3397-.2918.3397-.2958 0-.02-.0406.0136-.3483.2884l-.212.1894c.0879-.0819.2077-.1902.3456-.3113l.4806-.4215h.0105c-.0334.0266-.039.0275-.0868.0687-.1042.09-.1896.1696-.1896.1772 0 .0076.0854-.0598.1896-.1496.1043-.09.1894-.1699.1894-.1774 0-.004-.0611.0483-.0969.0766l.182-.1624c-.0431.0406-.0888.084-.0821.084.0086 0 .0713-.0495.1392-.11.0678-.0606.1164-.11.1077-.11-.0067 0-.0585.0434-.1065.0842l.815-.727c.0017-.0014.0023-.0021.004-.0037.0117-.0033.0789-.055.1751-.138.1043-.09.1896-.1696.1896-.1772 0-.0055-.0732.0552-.138.1089.4998-.4508.8395-.77.851-.8098.0118-.041.0131-.118.0032-.1713-.0204-.1098-.1174-.1996-1.7567-1.6527.019.0162.0828.0735.084.0735.0036 0 .002-.0032.002-.0054l.1793.1639c.1037.0946.1926.172.1975.172.0234 0-.005-.0273-.1884-.1799l-.1881-.1565c-.002-.0134-.0636-.068-.3018-.2698l-.1872-.1587c-.375-.334-.667-.5955-.7752-.6957.0146-.004-.0107-.029-.1116-.1099l-.0952-.0761c-.0042-.0122.1953-.0804.4441-.1521 1.0386-.299 1.9013-.7571 2.7032-1.4353.8398-.7102 1.4071-1.4826 1.7866-2.4322l.1114-.2791h-.2351l.2356-.0003.0467-.1442c.0878-.2713.1447-.5491.1798-.8518.0011.0205.0067.0332.0155.0256.0105-.0092.0116-.033.0025-.0529-.0068-.0148-.0116-.0122-.015-.002a6.421 6.421 0 0 0 .0386-.7222c-.001-.628-.0493-.9666-.2219-1.5532-.3209-1.0908-.9754-2.0609-1.9434-2.8802C20.8336.9157 19.6419.3676 18.2964.1305a8.1037 8.1037 0 0 0-.5246-.073c.0249-.0008.0403-.0057.0312-.0135-.0105-.0092-.0377-.0102-.0605-.0022-.0113.0039-.0139.0073-.0123.01a8.1326 8.1326 0 0 0-.5954-.0407zM6.7763.0145c-.1476-.0008-.1507.0001-.03.0103.0086.0007.0129.0027.0209.0037-.061.003-.0847.0034-.1882.0096-.8485.0506-1.758.2643-2.5585.6014a7.3853 7.3853 0 0 0-1.1267.5923c.0036-.0037.0053-.004.0091-.0083.0393-.0437.038-.0448-.012-.0106-.0305.0208-.0554.0427-.0554.0484 0 .0059.0061.0025.0094.0035-.0321.021-.0628.0434-.0945.0648.0086-.0076.0151-.0114.026-.0236.0394-.0436.0381-.0445-.012-.0103-.0304.0208-.055.0425-.055.0482 0 .0084.0067.0064.0132.0049-.0408.028-.0824.0553-.1225.084.0066-.0063.0107-.008.0185-.0167.0393-.0436.038-.0445-.012-.0103-.0305.0208-.0554.0424-.0554.0481 0 .0074.0067.0048.0118.0045a6.7382 6.7382 0 0 0-.6055.4965l.0093-.0089-.1028.0809c-.0564.0444-.1025.0847-.1025.0894 0 .019.0274-.0013.0942-.0644a6.4892 6.4892 0 0 0-.2108.2101c.0273-.0309.027-.0335-.0177-.003-.0304.0208-.0553.0425-.0553.0482 0 .0201.0227.0066.0563-.028C.8062 3.1528.26 4.224.0674 5.4c-.0583.3563-.0657 1.157-.014 1.5277.1257.902.4952 1.822 1.028 2.5597.79 1.0937 1.9563 1.9568 3.3102 2.4492l.2132.0774v2.469l.0013 3.654c.001 3.014.0085 3.6658.0437 3.7226.0248.04.3437.3388.7133.68l-.0977-.078c.005-.0079-.0221-.0335-.0998-.0947l-.1026-.0808.0927.0894c.051.0492.0974.0895.1029.0895.0037 0 .0042-.0017.0056-.003l.0972.0924c.0879.0833.1183.1073.1251.099.1437.132.264.2433.4127.3781-.0141-.0127-.0261-.024-.0543-.0457l-.0868-.0666.0767.0757c.0421.0416.0812.0757.0868.0757.0039 0 .0046-.0016.0062-.0027l.1131.1059c.1041.0975.1355.1222.1412.1118.3882.3487.7284.6494.7607.6608.1061.0376.292.039.4009.003.0488-.0162.3055-.217.5706-.4462.5587-.483.5597-.485.3546-.7397-.07-.087-.173-.2423-.229-.3452l-.1018-.1872-.0194-2.3947c-.0053-.6438-.0073-1.2046-.0116-1.8937.0084-.0551.0153-1.124.0153-2.4976v-2.561l-.0979-.047c-.2366-.1132-.9146-.5179-1.1933-.7124-.0401-.028-.0887-.0673-.1323-.0998-.0017-.0094-.0191-.0265-.0537-.05-.0322-.022-.0374-.0232-.0314-.014a8.328 8.328 0 0 1-.2012-.159c-.0058-.011-.0265-.0298-.0674-.06l-.0347-.0255a11.019 11.019 0 0 1-.2742-.2376c.0019-.0089-.0242-.0328-.0861-.0804l-.0125-.0095c-.1633-.1502-.3175-.298-.4314-.4229-.994-1.0897-1.621-2.3487-1.8567-3.7272-.0103-.0607-.0178-.1494-.026-.2295a.0488.0488 0 0 0 .0022-.0454c-.0033-.0071-.0055-.0064-.0081-.0076a7.896 7.896 0 0 1-.0232-.3376c-.0152-.3047-.018-.6184-.0061-.8808.0017-.0001.0029.0043.0049 0 .0087-.0186.0092-.0558.0012-.0825-.0006-.002-.0009 0-.0015-.0015.0033-.0522.0042-.117.0089-.1604.0037-.0344.0113-.0682.0155-.1025.002.0005.0034.0039.0059.0017.0105-.0091.0116-.033.0025-.0528-.0003-.0006-.0005-.0001-.0008-.0007.0074-.0562.0166-.112.0254-.168.0016-.0001.0027.003.0046.0014.0095-.0082.0086-.029.0023-.0474.2145-1.3151.8125-2.5636 1.7314-3.6108.0115-.0043.028-.0165.0522-.0433.0333-.037.03-.0374 0-.0176.0231-.026.044-.0533.0676-.079.009.0042.0273-.006.0588-.041.0367-.0407.034-.0411-.007-.0134.03-.0317.069-.0688.1036-.1035l.0005-.0002c.009-.0003.0413-.0247.0726-.0548.0314-.0303.05-.055.0413-.055-.002 0-.0122.01-.0162.0122A9.9 9.9 0 0 1 5.7534.941c.0352-.0282.097-.0827.2108-.1855l.0811-.0733c.1101-.0942.2168-.183.3185-.2633-.0195.017-.0528.0435-.0528.046 0 .0212.0261.0025.1126-.081l.0482-.0463c.0347-.0263.071-.0546.1026-.0772-.0244.025-.0438.048-.0362.048.0087 0 .0416-.0248.073-.0551.0267-.0257.0356-.0407.035-.0467.061-.042.0687-.048.1126-.0786-.0165.013-.0371.0283-.0371.0322 0 .0226.0261.0082.0674-.0376.0236-.0262.027-.0324.0197-.0295.0141-.01.0415-.029.0494-.0346 0 .0012.0055.0024.0047.0036-.0275.0388.004.0312.0438-.0105.0122-.0129.0118-.0209-.001-.0266l.0056-.0039-.016.0008c-.0204-.005-.056-.007-.119-.0074zm9.5424.0003c-.0217.0076-.004.014.0394.014.0434 0 .0613-.0064.0396-.014a.1389.1389 0 0 0-.079 0zm1.074 0c-.0217.0076-.0038.014.0397.014.0434 0 .0613-.0064.0396-.014a.1397.1397 0 0 0-.0792 0zM6.3032.0423c-.0217.0076-.0039.014.0396.014.0434 0 .061-.0064.0393-.014a.1389.1389 0 0 0-.079 0zm-.2191.027c-.0252.0088-.0177.0154.0191.0167.0333.0012.0519-.0053.0414-.0145C6.134.0624 6.1068.0613 6.084.0693zm15.3292 1.34c-.0016.0014.008.0125.0276.0343.0238.0265.0487.0482.0553.0482.026 0 .0093-.0225-.0433-.0585-.025-.017-.038-.0255-.0396-.024zm-9.1624.0825c-.0016-.0014-.0143.007-.0394.024-.0304.0209-.0553.0425-.0553.0482 0 .0227.0259.008.0671-.0378.0197-.0218.0292-.033.0276-.0344zm-9.7992.0275c-.0087 0-.0492.031-.09.0688-.0408.0379-.067.0688-.0583.0688.0087 0 .0492-.031.09-.0688.0408-.0378.067-.0688.0583-.0688zm4.896 0c-.0087 0-.0416.0248-.073.055-.0315.0303-.05.055-.0413.055.0086 0 .0416-.0247.073-.055.0315-.0302.05-.055.0413-.055zm14.3027.0688.2521.227c.234.211.269.2397.269.2197 0-.0042-.117-.1063-.2604-.227zm-14.4606.0413c-.0087 0-.0416.0247-.073.055-.0315.0303-.05.055-.0413.055s.0416-.0247.073-.055c.0315-.0303.05-.055.0413-.055zm-.1045.0963-.1028.0808c-.0565.0445-.1026.0847-.1026.0895 0 .0212.026.0025.1124-.0809zm4.818.0413c-.0016-.0015-.0142.007-.0393.024-.0304.0208-.0553.0425-.0553.0482 0 .0227.0258.008.0671-.0378.0197-.0219.0292-.033.0276-.0344zm-5.0234.1378c-.0016-.0014-.0145.0067-.0396.0238-.0304.0208-.0553.0425-.0553.0482 0 .0226.0259.0082.0671-.0376.0197-.0218.0295-.033.0278-.0344zm4.676.1926c-.0017-.0014-.0146.007-.0397.024-.0304.0209-.055.0425-.055.0482 0 .0227.0258.008.0671-.0378.0196-.0218.0292-.033.0275-.0344zm5.4009.3204c.1866.0033.3711.022.497.0577.2868.0812.5354.2096.7389.3712l.0435.042c.0573.0553.0864.0802.1006.0858.2566.2524.416.565.4626.8967-.003.0036-.0052.0117-.0059.0266-.0013.0279.0057.0428.0155.0358.028.2924-.0327.5978-.1963.8887-.2225.396-.7296.7516-1.2321.8645-.239.0538-.724.0544-.9504.0013-.5417-.1271-1.0179-.4778-1.254-.924-.1418-.268-.1893-.4915-.168-.7892.0226-.317.1164-.5636.3099-.8156.0537-.07.1148-.1327.1775-.1936.0264-.0197.0454-.0315.0886-.07.0246-.022.0214-.0226.039-.0399.2192-.1766.4784-.3108.7824-.3901.1227-.032.2993-.0466.4786-.0477.0113.0002.0134.001.0269.001.0219 0 .0292-.0008.0457-.0012zM.0325 5.5208c-.0033.0028-.0057.0124-.0064.0284-.0014.029.0062.0453.0167.0362.0105-.0092.0116-.0327.0025-.0526-.005-.011-.0095-.015-.0128-.012zm4.8655.22c-.0033.003-.0054.0125-.0061.0286-.0014.029.006.0455.0164.0363.0105-.0091.0116-.033.0025-.0528-.005-.011-.0095-.015-.0128-.012zm19.0841.0062c-.0029.0063-.0047.0197-.0047.0386 0 .0378.0072.0533.016.0344a.0934.0934 0 0 0 0-.0688c-.0044-.0095-.0084-.0104-.0113-.0042zm-19.084.0764c-.0034.003-.0055.0127-.0062.0288-.0014.029.006.0452.0164.036.0105-.009.0116-.0329.0025-.0527-.005-.011-.0095-.015-.0128-.012zm-4.8885.0617c-.0047-.004-.0081.0307-.0081.0931 0 .0833.006.1173.0133.0757a.53.53 0 0 0 0-.1514c-.0018-.0104-.0036-.016-.0052-.0174zm9.7584.032c-.0025.011-.004.037-.0042.0749-.0002.0757.0058.11.0133.0761.0075-.0338.0077-.0957.0005-.1376-.0037-.0209-.0071-.0246-.0096-.0135zm-.0008.4557c-.0026.0086-.0042.0294-.0044.0597-.0003.0605.0059.0884.0138.0621.0079-.0263.0083-.0758.0007-.11-.0038-.0172-.0075-.0205-.01-.0118zm-9.7628.0277C.002 6.4092.0002 6.4297 0 6.46c-.0003.0605.0059.0885.0138.0621.0079-.0263.0083-.0758.0007-.11-.0038-.0171-.0075-.0202-.01-.0116zm4.8946.1172c-.0029.0063-.0047.0197-.0047.0386 0 .0378.0072.0533.016.0344a.0933.0933 0 0 0 0-.0688c-.0044-.0095-.0084-.0104-.0113-.0042zm19.0831.055c-.0029.0063-.0047.0197-.0047.0386 0 .0379.0072.0533.016.0344a.0934.0934 0 0 0 0-.0688c-.0044-.0094-.0084-.0104-.0113-.0041zm-19.084.049c-.0034.0028-.0055.0124-.0062.0284-.0014.029.006.0453.0164.0362.0105-.0092.0116-.0327.0025-.0526-.005-.011-.0095-.015-.0128-.012zm4.8972.1926c-.0034.0029-.0057.0127-.0064.0287-.0014.029.0062.0453.0167.0361.0105-.0091.0116-.033.0025-.0528-.005-.011-.0095-.015-.0128-.012zm-9.7618.0061c-.003.0062-.005.0197-.005.0386 0 .0378.0073.0533.016.0344a.0933.0933 0 0 0 0-.0688c-.0043-.0095-.0081-.0104-.011-.0042zm1.728 3.4791c-.0017.0014.0079.0126.0275.0344.0239.0265.0488.0482.0554.0482.026 0 .009-.0226-.0436-.0585-.025-.0171-.0377-.0255-.0393-.024zm20.3942.0688-.2447.2056c-.1347.1132-.245.2094-.245.2135 0 .0202.0343-.0077.2536-.2058zm-10.521.0275.0927.0895c.051.0492.0974.0894.1028.0894.0244 0 .003-.0227-.0927-.098zm-4.8156.0688c-.0087 0 .047.0557.1237.1238.0767.0682.1467.1239.1554.1239.0087 0-.047-.0557-.1237-.1239-.0767-.068-.1467-.1238-.1554-.1238zm5.1159.1926c-.0016.0015.0079.0126.0275.0344.0239.0265.0486.0482.0551.0482.026 0 .0094-.0225-.0433-.0585-.025-.0171-.0377-.0255-.0393-.024zm-9.6049.1376c-.0016.0014.0079.0126.0275.0344.0239.0265.0488.0482.0554.0482.026 0 .0093-.0226-.0433-.0585-.025-.0171-.038-.0255-.0396-.0241zm9.8575.055c-.0017.0015.0079.0126.0275.0344.0413.0459.0674.0605.0674.0379 0-.0057-.025-.0274-.0553-.0482-.025-.0171-.038-.0255-.0396-.024zm9.3206.0553c-.0017-.0014-.0146.0067-.0396.0238-.0305.0208-.0554.0425-.0554.0482 0 .0227.0261.0083.0674-.0376.0197-.0218.0292-.033.0276-.0344zm-12.014 1.7426c-.005-.3454-.009-.0707-.009.6106 0 .6812.004.9637.009.628.005-.3359.005-.8931 0-1.2386zm3.3173 1.6063c-.0046-.7595-.0083-.13-.0083 1.399 0 1.5289.0037 2.1503.0083 1.381.0047-.7695.0047-2.0204 0-2.78zm8.4913.3255.2204.1995c.2046.1854.2375.2121.2375.192 0-.0043-.103-.094-.229-.1996zm.53.5747c-.0033.0029-.0054.0125-.0061.0285h-.0003c-.0014.029.0062.0453.0167.0361.0105-.0091.0116-.033.0025-.0528-.005-.011-.0095-.0147-.0128-.0118zm-.4575.5965c-.014.0032-.0547.0381-.153.1292l-.1409.1307.1503-.1225c.0826-.0675.15-.1263.15-.1307 0-.0052-.0016-.0077-.0064-.0067zm-11.881.542c-.0047-1.003-.0084-.1824-.0084 1.8234 0 2.0059.0038 2.8264.0083 1.8235.0046-1.0029.0046-2.644 0-3.647zm9.9295 2.484c-.0087 0 .1545.1489.3625.3305.208.1817.385.3302.3938.3302.0086 0-.1543-.1485-.3623-.3302-.208-.1816-.3853-.3304-.394-.3304Zm-6.6123.53c-.0048-.4957-.0086-.0901-.0086.9014 0 .9916.0038 1.3972.0086.9014a110.549 110.549 0 0 0 0-1.8028zm7.3538.117.2996.2683c.1647.1476.3032.2682.3079.2682.0229 0-.0132-.0333-.2993-.2756zm.7423 1.2522c-.0087 0-.6414.5452-1.4059 1.2112-.7644.6661-1.3827 1.211-1.374 1.211.0086 0 .6413-.5449 1.4058-1.211.7644-.666 1.3827-1.2112 1.374-1.2112zm-11.358 1.225.06.0619c.033.034.065.062.071.062.0253 0 .0069-.0223-.06-.0716zm-4.8658.0275.0602.062c.0331.034.0651.0618.0711.0618.0253 0 .0066-.0222-.0602-.0715zm5.6872.743.06.0621c.0331.034.0651.062.0711.062.0253 0 .0068-.0223-.06-.0716zm.1422.124c-.0017.0014.0079.0126.0275.0344.031.0344.0488.0444.058.041l.07.069c.0715.0708.097.0883.097.0667 0-.005-.039-.039-.0868-.0757l-.0789-.0604c.0023-.0015.0079.0018.0079-.003 0-.0057-.025-.0274-.0554-.0481-.025-.0172-.0377-.0253-.0393-.0239zm-2.108.1754c-.0033.0029-.0056.0128-.0064.0285v.0003c-.0013.0288.006.0452.0165.036.0105-.009.0118-.0329.0027-.0527-.0051-.011-.0095-.015-.0128-.012zm-2.4804.0836c.0386.0349.0696.0625.1075.0968l-.1033-.0838c.002-.0024.001-.0067-.0042-.013zm12.2019.0437c-.0087 0-.2217.1795-.4732.399-.2516.2195-.4502.3992-.4415.3992.0087 0 .2217-.1797.4732-.3992s.4501-.399.4415-.399zm-2.353.0413.0765.0757c.0569.0562.0842.0778.0932.0739l.0485.0499c.033.034.065.0619.071.0619.0041 0 .0051-.0014.007-.0027l.097.0921c.06.0568.113.1034.1184.1034.024 0 .0015-.0235-.1087-.1117l-.1056-.0843c.0067-.007-.0143-.0282-.0683-.068l-.058-.043c.001-.0015.0026-.0017.0026-.0047 0-.005-.039-.039-.0868-.0757zm-4.7076.165.0602.062c.0331.034.0651.062.0711.062.0037 0 .0043-.0015.0061-.0026l.049.0507c.0331.034.065.0621.071.0621.0038 0 .0047-.0016.0065-.0027l.049.0509c.033.034.065.0619.071.0619.0253 0 .0068-.0222-.06-.0715l-.0573-.0423c.0052-.0075-.0164-.0289-.0691-.0678l-.0573-.0422c.0053-.0075-.0163-.0289-.0692-.0678zm-4.613.2477.0768.076c.042.0416.0811.0756.0868.0756.0038 0 .0045-.0016.0061-.0027l.0972.0921c.1013.096.1281.1159.1281.0949 0-.0046-.0534-.051-.1185-.1032l-.1053-.0845c.0054-.0075-.0187-.031-.0841-.0813zm5.0104.0966c-.0087 0 .047.0557.1237.1238.0768.0681.1468.1238.1555.1238.0086 0-.047-.0557-.1237-.1238-.0768-.0681-.1468-.1238-.1555-.1238zm5.0052.1238.0765.0757c.0716.0707.0974.0881.0974.0666 0-.005-.0393-.039-.087-.0757zm-4.4944.215c-.0304.007-.0054.0125.0554.0125s.0857-.0056.0553-.0125a.2978.2978 0 0 0-.1107 0z"/></svg>