<?xml version="1.0" encoding="UTF-8" standalone="no"?>
<svg
   width="24"
   height="24"
   fill="none"
   viewBox="0 0 24 24"
   version="1.1"
   id="svg2"
   sodipodi:docname=":password_depot:.svg"
   inkscape:version="1.4.3 (0d15f75, 2025-12-25)"
   xmlns:inkscape="http://www.inkscape.org/namespaces/inkscape"
   xmlns:sodipodi="http://sodipodi.sourceforge.net/DTD/sodipodi-0.dtd"
   xmlns="http://www.w3.org/2000/svg"
   xmlns:svg="http://www.w3.org/2000/svg">
  <defs
     id="defs2" />
  <sodipodi:namedview
     id="namedview2"
     pagecolor="#505050"
     bordercolor="#ffffff"
     borderopacity="1"
     inkscape:showpageshadow="0"
     inkscape:pageopacity="0"
     inkscape:pagecheckerboard="1"
     inkscape:deskcolor="#505050"
     inkscape:zoom="13.293786"
     inkscape:cx="11.283467"
     inkscape:cy="15.157458"
     inkscape:window-width="930"
     inkscape:window-height="1044"
     inkscape:window-x="858"
     inkscape:window-y="40"
     inkscape:window-maximized="0"
     inkscape:current-layer="svg2" />
  <path
     fill="#000000"
     d="M 7.304289,23.071718 H 6.2639864 L 5.0218336,22.730128 3.9349502,22.186685 2.6927974,21.286124 1.8543446,20.385562 1.1556338,19.422896 0.75193415,18.522334 0.47244981,17.482031 0.39481528,16.907536 v -0.791872 z m -2.4221974,-6.692097 0.077635,0.419227 0.2018498,0.341591 0.2794842,0.481334 0.6210763,0.558971 0.6210764,0.34159 0.5434417,0.139742 3.664351,3.664351 -0.481335,0.201849 L 9.5867454,22.86987 8.8103999,23.071718 0.47245064,14.656135 0.75193496,13.491616 1.1556346,12.591055 Z m 8.3534754,4.005941 -0.543441,0.621076 -0.838453,0.76082 L 8.5464416,18.522334 9.2296255,18.041 10.005971,17.140439 Z m 1.381896,-2.965638 -0.139742,0.683183 -0.201851,0.698713 -0.419225,0.683182 -3.586716,-3.571187 -0.06211,-0.419227 L 10.05255,14.997726 9.8507016,14.594026 9.4470023,14.035058 8.7482915,13.569251 8.2824842,13.351874 7.7235156,13.274239 3.9970578,9.7030514 4.5404996,9.345933 5.7826522,8.9267062 h 0.2794842 z m -6.0710214,-8.6329601 0.8229262,0.155269 0.621076,0.2018494 0.3415922,0.1397422 0.357119,0.2018495 0.621076,0.543442 2.484306,2.484305 0.341591,0.496861 0.20185,0.465808 0.217377,0.69871 0.124215,0.558968 0.07763,0.621078 V 16.03803 L 7.5061389,8.7248556 H 7.987473 Z M 6.3416209,13.491616 5.5652754,14.112692 5.0994682,14.935619 1.7146025,11.628388 2.3356788,10.929676 3.0964971,10.246493 Z M 21.790894,11.892345 20.486633,13.413982 13.654794,6.5200352 15.036689,5.1226137 Z m -5.589687,-1.242152 -1.30426,1.397422 -3.446974,-3.3227594 1.444003,-1.3818947 z m 7.7324,-0.8850345 -1.304261,1.3818945 -6.925,-6.7697309 1.444003,-1.3818949 z M 22.691455,4.0978376 21.30956,5.5573669 17.924694,2.1725012 19.322116,0.7750795 Z"
     id="path1"
     style="stroke-width:1.55269" />
</svg>
