<svg xmlns="http://www.w3.org/2000/svg" xml:space="preserve" width="28" height="28" viewBox="20 0 28 28"><path fill="#e0995e" d="M39.523.117h-9.759c-1.347 0-2.44 1.24-2.44 2.77v22.165c0 1.53 1.093 2.77 2.44 2.77h9.759c1.347 0 2.44-1.24 2.44-2.77V2.888c0-1.53-1.093-2.771-2.44-2.771zm-6.1 24.935h-3.659v-9.697h3.66zm0-12.467h-3.659V2.888h3.66zm6.1 12.467h-3.66v-9.697h3.66zm0-12.467h-3.66V2.888h3.66z"/><circle cx="40" cy="32" r="3" fill="#f5cf87" transform="matrix(.6099 0 0 .69264 15.127 -8.195)"/></svg>