<svg xmlns="http://www.w3.org/2000/svg" width="24" height="24" fill="none"><path fill="#000" fill-rule="evenodd" d="M14.913 12c4.026-4.731 6.293-6.891 8.998-7.1-.009-.076-.02-.15-.03-.225-2.774.371-4.909 2.205-9.073 7.194l.105.131ZM1.658 7.107c-.63 0-1.113.097-1.658.35v1.542a3.262 3.262 0 1 1 0 6.002v1.543c.545.252 1.028.35 1.658.35 2.495 0 4.517-2.192 4.517-4.894S4.153 7.107 1.658 7.107ZM14.913 12C9.438 18.47 6.106 19.48.18 19.687c.07.348.163.69.29 1.023.642 1.681 1.623 2.536 3.577 3.041.787.204 1.604.249 2.417.249h10.971c.88 0 1.765-.055 2.613-.288 2.14-.588 3.097-1.546 3.65-3.42.252-.853.302-1.749.302-2.638V6.553c0-1.026-.066-2.063-.397-3.034-.567-1.664-1.438-2.567-3.177-3.146C19.49.06 18.493 0 17.507 0H6.677c-1.031 0-2.072.07-3.05.398C2.04.931 1.15 1.703.545 3.091c-.172.393-.29.803-.372 1.222C6.574 4.56 9.982 5.788 14.913 12Zm.932 8.621h-.7v-3.728h.7c.93-.002 1.166.289 1.165 1.165.007.941-.28 1.174-1.165 1.165v1.398Zm0-1.98v-1.165c.468-.002.586.135.582.582-.003.457-.133.582-.582.583Zm1.63 1.98v-3.728h1.282c.346.16.47.318.583.7v2.33c-.088.4-.229.54-.583.698h-1.281Zm2.33 0v-3.728h1.632v.583h-1.049v1.048h.816v.583h-.816v1.514h-.582Zm-1.747-.582v-2.563h.466c.143.033.194.085.233.233v2.097c-.027.138-.067.198-.233.233h-.466Z" clip-rule="evenodd"/></svg>