<svg xmlns="http://www.w3.org/2000/svg" xml:space="preserve" width="24mm" height="24mm" viewBox="0 0 24 24"><path d="M9.085 23.596a4.332 4.332 0 0 1-1.45-.461c-2.014-1.011-3.104-2.622-3.296-4.871-.096-1.125.173-2.37.706-3.264.253-.424.502-.746 1.015-1.315 1.062-1.177 1.205-1.478 1.48-3.113.288-1.704.495-2.134 1.603-3.32.368-.393.373-.418.095-.424-.215-.005-.976-.152-1.281-.247-.415-.13-.717-.294-1.177-.64-.833-.626-1.618-1.432-2.136-2.193l-.119-.175.27-.198a8.669 8.669 0 0 1 2.41-1.24c.726-.238.992-.282 1.668-.278.632.004.951.07 1.42.292.392.186.683.406 1.208.913.254.245.467.44.473.431.007-.008.06-.097.118-.2.333-.586.846-1.218 1.5-1.849C14.386.682 15 .314 15.383.371c.226.034.508.296.57.528.095.354-.092.615-.856 1.197-1.357 1.035-2.1 2.314-2.1 3.618v.284l.287.068c1.525.357 2.797 1.402 3.475 2.856.18.388.187.61.025.812-.19.235-.39.333-.94.456-.666.15-.969.299-1.313.648-.55.557-.76 1.3-.574 2.03.171.669.6 1.2 1.27 1.575.604.337.758.557.64.913-.034.1-.188.398-.343.661-.377.64-.427.786-.448 1.314-.014.35-.003.482.06.73.232.92.799 1.536 1.692 1.841.24.083.36.1.68.103.35.003.446-.013.958-.156.562-.156.57-.158.72-.098.483.192.615.568.386 1.098-.18.418-.858 1.202-1.422 1.643a5.582 5.582 0 0 1-2.173 1.042c-.371.088-.48.097-1.15.097-.801 0-.838-.006-1.978-.314-.495-.133-.555-.13-1.18.056-.236.07-.578.154-.761.187-.474.084-1.317.1-1.822.036zM9.89 5.303c.195-.045.794-.33.917-.435l.086-.074-.102-.177c-.244-.423-.623-.833-.943-1.021-.318-.186-.52-.228-1.105-.226-.46 0-.59.015-.91.1-.487.128-1.132.366-1.152.424-.026.08.405.49.768.731.639.423 1.111.644 1.544.722.2.036.65.014.897-.044z" style="fill:#000;stroke-width:.999999"/></svg>