<?xml version="1.0" encoding="UTF-8" standalone="no"?>
<svg
   viewBox="0 0 50 50"
   width="50px"
   height="50px"
   xmlns="http://www.w3.org/2000/svg"
   xmlns:svg="http://www.w3.org/2000/svg">

  <path
     d="m 36.367957,-1e-6 c -1.681703,0 -3.140054,0.33283701 -4.484541,0.67005318 2.356135,1.00726932 3.814488,2.24227042 4.598405,2.80283802 1.795569,1.5678369 2.802838,3.1400541 4.598407,5.7195407 0.332837,0.5605676 0.893405,1.3444871 1.230621,2.5751071 0.337216,1.121136 0.337216,2.01892 0.337216,2.916704 0,1.235 -0.113865,2.242271 -0.227731,3.24954 -0.10949,0.788298 -0.10949,1.125515 -0.218971,1.348866 0,0.113866 0,0.223351 -0.113866,0.446703 0,0.560567 0,0.788298 0.113866,1.235 0,0.446702 0.10949,0.897784 0.10949,1.681702 0.113866,1.458353 0.113866,2.465622 -0.10949,3.696243 v 0.451082 c -0.22773,1.00727 -0.451082,2.018919 -1.011649,2.912324 0.113866,0.22773 0.223351,0.337217 0.337216,0.560567 0.560567,-0.783918 1.00727,-1.567837 1.453972,-2.461241 1.348866,-2.470001 2.132785,-4.598407 2.693353,-6.166244 1.00727,-2.916704 1.567838,-5.049488 1.905054,-6.617326 0.783919,-3.363405 0.897784,-4.931242 0.560567,-6.7268109 0,-0.5605676 -0.223351,-1.5722172 -0.783919,-2.5794865 -1.235,-2.2422704 -3.140054,-3.2495409 -4.48454,-3.9239732 C 41.973633,1.3444845 39.617496,0.10948458 36.367957,-10e-7 Z M 12.079613,0.4948748 C 10.78768,0.46859764 9.211084,0.61311981 7.4417925,1.4539712 6.8812249,1.6817018 5.1995221,2.4656197 3.8550355,4.2568092 2.9572517,5.3779444 2.2871975,7.0596472 1.9499813,8.9647003 1.6127652,10.646403 1.4988993,12.669702 2.1733328,16.47981 c 0.4467017,2.688973 0.8977836,4.484541 1.7955674,8.180783 0.1138659,0.451082 0.783919,2.470001 2.2422704,6.954542 l 0.1094867,0.223351 c 0.2277306,0.783919 0.8977838,2.465622 2.3561351,4.147325 1.0072705,1.121135 1.9050546,1.795568 2.6933526,1.795568 h 0.218971 c 1.458353,0 2.470001,-1.121136 3.363406,-2.018919 0,-0.113865 2.132785,-2.688973 2.916704,-3.586757 -0.113866,-0.113865 -0.332837,-0.113865 -0.446703,-0.227731 -1.344485,-0.783918 -2.356135,-2.01454 -3.140054,-3.363406 -1.344487,-2.46562 -1.235,-4.931242 -1.01165,-6.166243 l 0.113866,-1.900674 C 12.937982,17.48708 13.051848,14.574757 13.612416,11.658053 14.059117,9.1924309 14.619685,6.7268102 16.634225,4.1473225 17.308658,3.2495387 18.092577,2.4656197 18.876495,1.9050521 17.085307,1.1211342 15.180253,0.67005218 13.270819,0.5605666 12.907327,0.52991028 12.508798,0.50363311 12.079613,0.4948748 Z m 14.084261,0.9590964 c -0.560568,0 -1.121135,0 -1.681703,0.1138647 -2.24227,0.4467029 -4.370675,1.6817028 -6.052377,3.8101085 -1.681703,2.1327837 -2.128406,4.1473235 -2.575108,6.5034596 -0.22773,0.897784 -0.22773,1.681703 -0.341596,2.579487 0.674433,-0.560568 1.572217,-1.235 2.916704,-1.572217 0.783919,-0.223351 2.802838,-0.893405 4.48454,0.113865 0.560568,0.337217 1.344487,1.01165 2.128405,2.916703 1.681703,4.707892 0.0044,9.529649 -0.218971,9.976352 -0.113866,0.446702 -0.337216,0.783919 -0.451082,1.00727 -0.223352,0.560567 -0.446702,1.011649 -0.670053,1.909433 -0.113866,0.783919 -0.227731,1.458352 -0.227731,2.24227 0.337216,0 0.674432,0.10949 1.007269,0.332837 0.560568,0.560568 0.674434,1.348866 0.788298,1.681703 0.223352,1.795569 0.223352,4.037839 0.223352,6.28011 0,1.795567 0,3.47727 0.10949,4.598405 0.227726,2.579488 1.011645,4.370676 2.13278,5.26846 0.783919,0.674433 1.791189,0.670053 2.351756,0.783919 h 0.227731 c 1.681703,0 4.370676,-1.121135 5.377945,-2.688973 0.560568,-0.897784 0.788298,-1.681703 1.01165,-2.802838 0.113866,-0.674433 0.10949,-1.00727 0.223351,-1.681703 0,-0.337216 0.113865,-0.897784 0.113865,-1.567837 0,-0.560568 0.10949,-1.235001 0.223352,-2.023299 0.113865,-1.905053 0.446702,-4.142945 0.560567,-5.377946 0.113866,-1.458351 0.783919,-2.693351 1.344487,-3.47727 -0.783919,-0.113866 -1.567838,-0.783919 -2.01454,-1.905054 -0.674434,-1.235 -0.788298,-1.572217 -0.902164,-2.132785 -0.10949,-0.446702 -0.332837,-1.007269 -1.121135,-2.688972 -1.681703,-3.810109 -1.900674,-4.931244 -1.900674,-5.829028 -0.113866,-1.235 -0.227731,-2.912323 1.121135,-4.033458 2.01454,-1.795569 4.594026,-1.681703 5.938513,-1.235001 V 12.328106 C 40.068579,11.434701 39.621877,10.760269 39.284659,10.313566 37.602957,7.7340795 36.705173,6.3895929 35.132956,5.0451074 34.462903,4.4845398 32.7812,3.135674 30.315578,2.2422694 29.194443,1.9050521 27.845577,1.4539712 26.163874,1.4539712 Z m 12.3938,13.1470618 c -0.814575,-0.05693 -1.852501,0.08321 -2.750285,0.871507 -0.446703,0.446702 -0.446703,1.344487 -0.332837,2.128405 0,0.560568 0.10949,1.344487 1.791189,5.158974 0.783919,1.791189 1.00727,2.351756 1.121135,2.802838 0.113866,0.446702 0.223351,0.670053 0.897783,1.900674 0.113866,0.227731 0.223352,0.451082 0.446703,0.674434 0.223352,-0.337217 0.337217,-0.897784 0.446702,-1.795569 l 0.113866,-0.332837 c 0.223351,-1.007269 0.113865,-1.795568 0.113865,-3.140054 0,-0.674433 -0.113865,-1.121135 -0.113865,-1.458352 -0.113866,-0.560567 -0.113866,-1.00727 -0.113866,-1.681702 -0.22335,-0.337217 -0.22335,-0.446703 -0.10949,-0.674434 0,-0.22335 0.10949,-0.556187 0.223351,-1.230621 0.113865,-0.897783 0.227731,-1.681702 0.227731,-2.579486 -0.227731,-0.113866 -0.337216,-0.223352 -0.560568,-0.332837 0,0 -0.591223,-0.254008 -1.401419,-0.31094 z m -17.530876,0.442322 c -0.713848,-0.08321 -1.532802,0.148902 -2.036437,0.31532 -1.235001,0.337217 -2.01454,1.121135 -2.575107,1.567838 -0.337216,0.337216 -0.674434,0.674432 -1.01165,1.121135 0,0.783919 0.10949,1.572217 0.223352,2.356135 v 0.113866 l -0.223352,2.24227 c -0.223351,1.00727 -0.337216,2.912324 0.783919,4.817378 0.560568,1.121135 1.348866,2.018919 2.356135,2.579487 0.674434,0.446702 1.567838,0.783919 2.575108,1.011649 0,-0.788298 0.113866,-1.686082 0.22773,-2.470001 0.223352,-1.121135 0.446703,-1.681703 0.783919,-2.356136 0.113866,-0.332837 0.223352,-0.556187 0.451082,-0.893405 0.10949,-0.337216 1.677324,-4.598405 0.218971,-8.522378 -0.332837,-0.897784 -0.670053,-1.458352 -1.121135,-1.681703 -0.192695,-0.113866 -0.420425,-0.175178 -0.652535,-0.201455 z m 16.449155,0.639398 c 0.293423,-0.01752 0.573707,0.0087 0.687571,0.122624 0.337218,0.223352 -0.113864,0.783919 -0.22773,0.897784 -0.10949,0.113866 -0.332837,0.337216 -0.670053,0.451082 -0.446702,0.10949 -0.78392,-0.22773 -0.897784,-0.22773 -0.113866,-0.113866 -0.446703,-0.446703 -0.332837,-0.783919 0.10949,-0.223352 0.223351,-0.223352 0.670053,-0.337217 0.166419,-0.05693 0.477358,-0.10949 0.77078,-0.122624 z m -16.852063,0.92844 c 0.376632,-0.02628 0.691951,0.118245 0.945958,0.201454 0.337216,0.113866 0.670053,0.22773 0.670053,0.451082 0.113866,0.337216 -0.218971,0.560567 -0.332837,0.670053 -0.337216,0.337217 -0.897784,0.341596 -0.897784,0.341596 -0.560567,0 -0.897784,-0.337216 -1.121135,-0.674433 -0.113865,-0.113865 -0.223352,-0.337216 -0.10949,-0.560568 0.10949,-0.22335 0.332837,-0.337216 0.446702,-0.337216 0.140141,-0.05693 0.271525,-0.08321 0.398528,-0.09197 z m 20.565824,14.666726 c -0.560568,0.783919 -1.344487,1.795568 -1.458352,3.140054 0,0.223351 0,0.337217 -0.113866,0.560568 0.897785,0.223351 1.686084,0.223351 2.470001,0.113865 1.795569,-0.22773 3.02619,-1.125514 3.249541,-1.348865 0.783919,-0.560568 1.795568,-1.681703 1.567837,-2.128406 -0.10949,-0.22335 -0.446701,-0.113865 -2.24227,0 -0.446702,0 -1.791188,0.337217 -2.688972,0.113866 H 41.750281 C 41.52693,31.615135 41.30358,31.50127 41.189714,31.277919 Z m -19.510381,2.24227 c -0.22335,0.337216 -0.556187,0.560568 -0.779538,0.783919 -0.897784,0.560568 -2.0233,1.01165 -3.144435,1.235 -1.007269,0.337217 -1.567837,0.337217 -1.567837,0.674434 -0.113866,0.446701 1.007269,1.007269 1.567837,1.23062 1.909433,0.783919 3.814488,0.337217 4.151704,0.223352 0.223351,-0.113866 0.783919,-0.337216 1.344487,-0.674434 0,-1.23062 -0.109491,-2.351756 -0.223352,-3.249539 v -0.113866 h -0.113865 c -0.337216,0 -0.783919,0.0044 -1.235001,-0.10949 z"
     id="path1"
     style="fill:#000000;fill-opacity:1;stroke-width:1" />
</svg>
