<svg width="24" height="24" viewBox="0 0 24 24" fill="none" xmlns="http://www.w3.org/2000/svg">
<path fill-rule="evenodd" clip-rule="evenodd" d="M16.32 2H7.68C7.40633 2 7 2.28541 7 2.87805V21.122C7 21.7146 7.40633 22 7.68 22H16.32C16.5937 22 17 21.7146 17 21.122V2.87805C17 2.28541 16.5937 2 16.32 2ZM7.68 1H16.32C17.2478 1 18 1.84083 18 2.87805V21.122C18 22.1592 17.2478 23 16.32 23H7.68C6.75216 23 6 22.1592 6 21.122V2.87805C6 1.84083 6.75216 1 7.68 1ZM10 2.83333C10 2.64924 10.2985 2.5 10.6667 2.5H13.3333C13.7015 2.5 14 2.64924 14 2.83333V3.16667C14 3.35076 13.7015 3.5 13.3333 3.5H10.6667C10.2985 3.5 10 3.35076 10 3.16667V2.83333ZM9.42857 20.5C9.19188 20.5 9 20.7239 9 21C9 21.2761 9.19188 21.5 9.42857 21.5H14.5714C14.8081 21.5 15 21.2761 15 21C15 20.7239 14.8081 20.5 14.5714 20.5H9.42857Z" fill="black"/>
</svg>
