<svg xmlns="http://www.w3.org/2000/svg" xml:space="preserve" width="28" height="28"><path d="M7.782 11.75c.922 1.663 1.984 3.26 3.364 4.715 1.384 1.464 3.105 2.797 5.333 3.936.165.08.322.08.462.024.212-.08.429-.256.64-.469.166-.165.372-.428.586-.716.857-1.128 1.917-2.527 3.415-1.826.034.015.058.033.092.047l4.996 2.873c.016.009.034.024.047.033.659.453.931 1.152.938 1.945 0 .806-.297 1.712-.733 2.478-.576 1.011-1.424 1.68-2.402 2.123-.93.428-1.966.658-2.962.806-1.563.23-3.027.082-4.525-.378-1.465-.453-2.94-1.2-4.552-2.196l-.119-.076c-.738-.462-1.538-.956-2.321-1.538-2.867-2.166-5.789-5.294-7.693-8.736C.752 11.906-.12 8.788.356 5.816c.264-1.63.963-3.112 2.182-4.09C3.6.87 5.03.4 6.884.566a.627.627 0 0 1 .502.32l3.204 5.417c.469.607.527 1.21.27 1.813-.212.493-.64.948-1.226 1.373a9.294 9.294 0 0 1-.593.453c-.717.52-1.532 1.12-1.253 1.826z"/></svg>
