<svg xmlns="http://www.w3.org/2000/svg" viewBox="0 0 24 24"><path d="M4.25.3h15.5C22.1.3 24 2.2 24 4.55v14.9c0 2.35-1.9 4.25-4.25 4.25H4.25C1.9 23.7 0 21.8 0 19.45V4.55C0 2.2 1.9.3 4.25.3Zm1.27 16.54h1.94c.07-.01.12-.07.11-.14v-3.21c.19 0 .33 0 .43.01.1.01.26.01.5.01.82 0 1.57-.09 2.25-.34.65-.24 1.21-.66 1.61-1.22.4-.56.6-1.27.6-2.13 0-.45-.08-.88-.23-1.3-.16-.43-.41-.82-.73-1.14-.38-.37-.84-.65-1.34-.82-.56-.21-1.24-.31-2.06-.31-.3 0-.6 0-.91.01-.31.01-.6.01-.87.02s-.52.01-.76.02c-.23.01-.39.01-.56.01-.07 0-.1.04-.1.11v10.29c0 .09.04.13.12.13Zm2.47-8.61c.19-.01.42-.01.68-.01.41-.01.81.05 1.18.2.29.11.53.31.7.57.16.27.24.58.23.89 0 .44-.1.78-.31 1.03-.22.25-.5.44-.82.53-.37.12-.76.18-1.15.18h-.53c-.12 0-.25-.01-.39-.02V8.24c.07-.01.21-.02.41-.01Zm11.39 2.76c.03-.02.05-.06.05-.1V9.26c0-.04-.01-.08-.02-.12-.02-.04-.06-.08-.1-.09-.27-.11-.56-.19-.86-.23-.41-.06-.83-.09-1.24-.09-.71 0-1.3.11-1.77.35-.43.2-.8.52-1.05.92-.22.37-.34.78-.34 1.21-.01.35.07.7.23 1.02.19.34.45.63.76.85.44.3.91.54 1.42.72.49.19.82.34.98.47.16.13.24.26.24.4 0 .18-.11.35-.27.42-.18.09-.45.14-.83.14-.4 0-.8-.05-1.18-.15-.44-.1-.85-.26-1.24-.49-.03-.02-.06-.03-.09-.01-.03.02-.04.06-.04.09v1.74c-.01.08.04.15.11.19.32.15.67.26 1.02.32.45.09.9.13 1.36.13.72 0 1.32-.11 1.81-.32.45-.18.84-.49 1.12-.89.26-.39.4-.86.39-1.33.01-.36-.07-.71-.23-1.03-.19-.34-.46-.62-.79-.83-.48-.3-1-.55-1.54-.73-.24-.1-.48-.21-.71-.33-.13-.07-.25-.16-.34-.27a.445.445 0 0 1-.1-.26c0-.09.03-.19.08-.27.07-.1.18-.17.31-.2.19-.05.4-.08.6-.07.38 0 .75.05 1.12.13.34.07.66.18.96.34.04.02.09.02.18 0Z" class="st0"/></svg>