<?xml version="1.0" encoding="UTF-8" standalone="no"?>
<svg
   viewBox="0 0 28 28"
   version="1.1"
   id="svg3"
   sodipodi:docname="Phone.svg"
   width="28"
   height="28"
   inkscape:version="1.4.2 (ebf0e940, 2025-05-08)"
   xmlns:inkscape="http://www.inkscape.org/namespaces/inkscape"
   xmlns:sodipodi="http://sodipodi.sourceforge.net/DTD/sodipodi-0.dtd"
   xmlns:xlink="http://www.w3.org/1999/xlink"
   xmlns="http://www.w3.org/2000/svg"
   xmlns:svg="http://www.w3.org/2000/svg">
  <sodipodi:namedview
     id="namedview3"
     pagecolor="#ffffff"
     bordercolor="#000000"
     borderopacity="0.25"
     inkscape:showpageshadow="2"
     inkscape:pageopacity="0.0"
     inkscape:pagecheckerboard="0"
     inkscape:deskcolor="#d1d1d1"
     inkscape:zoom="9.1491373"
     inkscape:cx="6.7765952"
     inkscape:cy="31.696977"
     inkscape:window-width="1712"
     inkscape:window-height="1043"
     inkscape:window-x="1"
     inkscape:window-y="40"
     inkscape:window-maximized="0"
     inkscape:current-layer="svg3" />
  <defs
     id="defs1">
    <path
       id="a"
       d="M 233,300 H 67 C 30.15,300 0,269.85 0,233 V 67 C 0,30.15 30.15,0 67,0 h 166 c 36.85,0 67,30.15 67,67 v 166 c 0,36.85 -30.15,67 -67,67 z" />
  </defs>
  <clipPath
     id="b">
    <use
       xlink:href="#a"
       overflow="visible"
       id="use1" />
  </clipPath>
  <linearGradient
     id="c"
     gradientUnits="userSpaceOnUse"
     x1="150"
     y1="0.026000001"
     x2="150"
     y2="299.974">
    <stop
       offset="0"
       stop-color="#73f98a"
       id="stop1" />
    <stop
       offset="1"
       stop-color="#28b037"
       id="stop2" />
  </linearGradient>
  <path
     d="m 108.987,135.859 c -2.761,-5.069 -3.428,-8.132 -0.738,-12.646 4.644,-7.792 6.722,-11.574 9.996,-18.588 2.691,-5.766 0.947,-9.23 -2.6,-14.437 -9.446,-13.869 -14.231,-22.413 -22.048,-33.774 -2.922,-4.247 -4.753,-6.078 -13.24,-3.678 -9.829,2.779 -13.333,8.026 -17.492,12.074 -7.211,7.02 -10.283,20.565 -5.469,36.256 8.09,26.367 28.744,57.802 56.054,85.112 27.31,27.31 57.13,47.612 83.497,55.702 15.691,4.814 29.236,1.742 36.256,-5.469 4.048,-4.158 8.922,-10.669 12.074,-17.492 2.926,-6.333 -0.592,-11.204 -3.536,-13.567 -10.756,-8.63 -20.048,-12.274 -33.916,-21.721 -5.208,-3.547 -8.672,-5.291 -14.437,-2.6 -7.014,3.273 -10.796,5.352 -18.588,9.996 -4.514,2.69 -7.3,1.801 -12.25,-1.167 -5.315,-3.187 -20.939,-18.278 -27.722,-25.058 -4.094,-4.093 -21.122,-20.28 -25.841,-28.943 z"
     clip-path="url(#b)"
     fill="#fff"
     id="path3"
     style="fill:#1a1a1a"
     transform="matrix(0.14109106,0,0,0.14109106,-7.0990874,-6.7372957)" />
</svg>
