<svg width="24" height="24" viewBox="0 0 24 24" fill="none" xmlns="http://www.w3.org/2000/svg">
<g clip-path="url(#clip0_3_26)">
<path d="M4.25 0H19.75C22.1 0 24 1.94872 24 4.35897V19.641C24 22.0513 22.1 24 19.75 24H4.25C1.9 24 0 22.0513 0 19.641V4.35897C0 1.94872 1.9 0 4.25 0ZM5.52 16.9641H7.46C7.53 16.9538 7.58 16.8923 7.57 16.8205V13.5282C7.76 13.5282 7.9 13.5282 8 13.5385C8.1 13.5487 8.26 13.5487 8.5 13.5487C9.32 13.5487 10.07 13.4564 10.75 13.2C11.4 12.9538 11.96 12.5231 12.36 11.9487C12.76 11.3744 12.96 10.6462 12.96 9.7641C12.96 9.30256 12.88 8.86154 12.73 8.43077C12.57 7.98974 12.32 7.58974 12 7.26154C11.62 6.88205 11.16 6.59487 10.66 6.42051C10.1 6.20513 9.42 6.10256 8.6 6.10256C8.3 6.10256 8 6.10256 7.69 6.11282C7.38 6.12308 7.09 6.12308 6.82 6.13333C6.55 6.14359 6.3 6.14359 6.06 6.15385C5.83 6.1641 5.67 6.1641 5.5 6.1641C5.43 6.1641 5.4 6.20513 5.4 6.27692V16.8308C5.4 16.9231 5.44 16.9641 5.52 16.9641ZM7.99 8.13333C8.18 8.12308 8.41 8.12308 8.67 8.12308C9.08 8.11282 9.48 8.17436 9.85 8.3282C10.14 8.44103 10.38 8.64615 10.55 8.91282C10.71 9.18974 10.79 9.50769 10.78 9.82564C10.78 10.2769 10.68 10.6256 10.47 10.8821C10.25 11.1385 9.97 11.3333 9.65 11.4256C9.28 11.5487 8.89 11.6103 8.5 11.6103H7.97C7.85 11.6103 7.72 11.6 7.58 11.5897V8.14359C7.65 8.13333 7.79 8.12308 7.99 8.13333ZM19.38 10.9641C19.41 10.9436 19.43 10.9026 19.43 10.8615V9.18974C19.43 9.14872 19.42 9.10769 19.41 9.06667C19.39 9.02564 19.35 8.98461 19.31 8.97436C19.04 8.86154 18.75 8.77949 18.45 8.73846C18.04 8.67692 17.62 8.64615 17.21 8.64615C16.5 8.64615 15.91 8.75897 15.44 9.00513C15.01 9.21026 14.64 9.53846 14.39 9.94872C14.17 10.3282 14.05 10.7487 14.05 11.1897C14.04 11.5487 14.12 11.9077 14.28 12.2359C14.47 12.5846 14.73 12.8821 15.04 13.1077C15.48 13.4154 15.95 13.6615 16.46 13.8462C16.95 14.041 17.28 14.1949 17.44 14.3282C17.6 14.4615 17.68 14.5949 17.68 14.7385C17.68 14.9231 17.57 15.0974 17.41 15.1692C17.23 15.2615 16.96 15.3128 16.58 15.3128C16.18 15.3128 15.78 15.2615 15.4 15.159C14.96 15.0564 14.55 14.8923 14.16 14.6564C14.13 14.6359 14.1 14.6256 14.07 14.6462C14.04 14.6667 14.03 14.7077 14.03 14.7385V16.5231C14.02 16.6051 14.07 16.6769 14.14 16.7179C14.46 16.8718 14.81 16.9846 15.16 17.0462C15.61 17.1385 16.06 17.1795 16.52 17.1795C17.24 17.1795 17.84 17.0667 18.33 16.8513C18.78 16.6667 19.17 16.3487 19.45 15.9385C19.71 15.5385 19.85 15.0564 19.84 14.5744C19.85 14.2051 19.77 13.8462 19.61 13.5179C19.42 13.1692 19.15 12.882 18.82 12.6667C18.34 12.359 17.82 12.1026 17.28 11.9179C17.04 11.8154 16.8 11.7026 16.57 11.5795C16.44 11.5077 16.32 11.4154 16.23 11.3026C16.1697 11.2269 16.1346 11.1335 16.13 11.0359C16.13 10.9436 16.16 10.841 16.21 10.759C16.28 10.6564 16.39 10.5846 16.52 10.5538C16.71 10.5026 16.92 10.4718 17.12 10.4821C17.5 10.4821 17.87 10.5333 18.24 10.6154C18.58 10.6872 18.9 10.8 19.2 10.9641C19.24 10.9846 19.29 10.9846 19.38 10.9641Z" fill="black"/>
</g>
<defs>
<clipPath id="clip0_3_26">
<rect width="24" height="24" fill="white"/>
</clipPath>
</defs>
</svg>
