<svg xmlns="http://www.w3.org/2000/svg" xml:space="preserve" width="24mm" height="24mm" viewBox="0 0 24 24"><path d="M.481 3.35c.21 2.358 3.445 5.502 3.445 5.502C2.535 8.872.37 7.396.37 7.396s.415 3.226 4.25 3.753c-.435.573-3.173.016-3.173.016 2.376 2.731 4.942 1.973 6.852 3.07.737.423-.648 2.952-.648 2.952l.682-.123s-.213.705-.833.983c0 0 1.154-.15 1.838.065 1.022.092 1.051.71 2.012.349 0 0-.354 1.32 1.03 2.189-.547-.774-.312-1.426.278-2.113.625-.325 1.241-1.333 2.596-1.034 2.257.499 5.078-.409 5.987-1.347-1.202.264-3.493-.065-3.493-.065s4.59-1.177 5.265-4.4c-.88.732-3.18 1.37-3.18 1.37s4.02-4.172 3.785-7.044c-3.922 5.59-5.343 4.873-6.841 6.477.559-1.47.63-3.333-.355-5.801 0 0 1.875-.054 2.423-1.761.413-1.083-.177 1.158-4.046-.021-3.14-1.096-5.016 1.054-5.417 1.475-.358.378 5.292-.994 2.55 2.403-.287.357.231.353.38.21.216-.188 2.023-1.749 2.424-.484 0 0 1.158 5.33-3.647 4.783 0 0 .343-3.9-4.377-5.691 0 0-3.13-1.688-6.232-4.257zM12.92 5.393c.35 0 .635.134.635.3 0 .165-.284.3-.635.3-.35 0-.635-.135-.635-.3 0-.166.284-.3.635-.3z" style="display:inline;fill:#000;fill-opacity:1;stroke:none;stroke-width:.2;stroke-linejoin:bevel;stroke-dasharray:none;paint-order:markers fill stroke"/></svg>