<svg xmlns="http://www.w3.org/2000/svg" height="24" widht="24" viewBox="0 0 24 24"><path d="M11.9634.2178c-1.582 0-2.8555 1.2979-2.8555 2.9096v1.9783l2.0865 2.0786c.4582.4566.7327 1.0294.8252 1.626a2.9187 2.9187 0 0 1 .783-1.4883l2.0169-2.0542V3.1274c0-1.6117-1.274-2.9096-2.856-2.9096zm2.856 5.05v2.8161c0 .5077-.1265.9842-.3491 1.3988a2.8109 2.8109 0 0 1 1.373-.3558h3.2647l1.1733-1.1953c1.1187-1.1397 1.1187-2.9745 0-4.1141-1.1186-1.1397-2.9196-1.1397-4.0382 0zm4.2886 3.8591-2.2666 2.3097c-.3145.3204-.6829.551-1.075.6912a2.856 2.856 0 0 1 .9599.6464l2.1315 2.1715h1.8506c1.582 0 2.856-1.2974 2.856-2.9091 0-1.6118-1.274-2.9097-2.856-2.9097zm-.2502 5.8188h-3.0146c-.4983 0-.966-.129-1.373-.3558.2228.4147.3493.8909.3493 1.3987v3.0717l1.3084 1.333c1.1187 1.1397 2.9196 1.1397 4.0383 0 1.1187-1.1396 1.1187-2.975 0-4.1146zm-4.0383 4.1146-2.132-2.172a2.9154 2.9154 0 0 1-.724-1.2407 2.916 2.916 0 0 1-.7241 1.2407l-2.1315 2.172v1.8854c0 1.6118 1.2735 2.9091 2.8555 2.9091s2.856-1.2973 2.856-2.909zm-5.7116 0v-3.0717c0-.508.1269-.9844.3498-1.3993a2.8087 2.8087 0 0 1-1.3735.3564H5.069l-1.3085 1.333c-1.1186 1.1397-1.1186 2.975 0 4.1147 1.1187 1.1396 2.9202 1.1396 4.0389 0zm-4.0388-4.1146 2.132-2.1715c.3404-.3468.7439-.5877 1.1722-.7235a2.8414 2.8414 0 0 1-1.1722-.7064L4.9757 9.1269H3.2184c-1.582 0-2.8554 1.298-2.8554 2.9097s1.2734 2.909 2.8554 2.909zm-.0934-5.8188h3.1085c.5002 0 .9688.1303 1.3768.3586a2.945 2.945 0 0 1-.353-1.4016V5.1057L7.716 3.719c-1.131-1.127-2.932-1.1064-4.0382.0459-1.1062 1.1523-1.086 2.9871.045 4.114Zm4.4853.3586c.2612.4846.6524.8845 1.1283 1.15a2.8824 2.8824 0 0 0-1.1283-1.15Zm1.1283 1.15a2.93 2.93 0 0 1 .3176.9564c.1157-.0887.228-.1841.3325-.293a2.9431 2.9431 0 0 0 .2808-.3404 2.803 2.803 0 0 1-.9309-.323zm.931.323a2.847 2.847 0 0 0 .4431.0345c.1556 0 .3073-.016.456-.0402a2.9252 2.9252 0 0 1-.4204-1.12 2.917 2.917 0 0 1-.4788 1.1257zm.4787-1.1257a2.9626 2.9626 0 0 0 .0206-1.0226 2.9624 2.9624 0 0 0-.0206 1.0226zm.4204 1.12c.1086.1711.2358.3337.3832.4838.0684.0698.1396.1348.213.196a2.9321 2.9321 0 0 1 .322-.9965c-.2804.1564-.59.2634-.9182.3167zm.9181-.3167a2.881 2.881 0 0 0 1.1328-1.1534c-.4776.266-.8713.667-1.1328 1.1534zm-.322.9965a3.0087 3.0087 0 0 0-.0278.404c0 .1517.0116.3005.0334.4458a2.822 2.822 0 0 1 .7418-.3994 2.8362 2.8362 0 0 1-.7474-.4504zm.7474.4504a2.804 2.804 0 0 0 2.003.0448 2.8036 2.8036 0 0 0-2.003-.0448zm-.7418.3994a2.9222 2.9222 0 0 0-.6195.6311c.335.0522.6504.1632.936.3224a2.9272 2.9272 0 0 1-.3165-.9535zm.3164.9535c.2615.4865.655.8878 1.1328 1.154a2.883 2.883 0 0 0-1.1328-1.154zm-.9359-.3224a2.8461 2.8461 0 0 0-.8758 0c.2006.278.3462.5833.4376.9014a2.9142 2.9142 0 0 1 .4382-.9014zm-.4382.9014a2.9623 2.9623 0 0 0 0 1.6327 2.9613 2.9613 0 0 0 0-1.6327zm-.4376-.9014a2.9416 2.9416 0 0 0-.6195-.631 2.9275 2.9275 0 0 1-.3164.9534 2.8016 2.8016 0 0 1 .9359-.3224zm-.936.3224c-.4771.2662-.8708.6673-1.132 1.1534.4771-.2661.8708-.6672 1.132-1.1534zm.3165-.9535a3.0074 3.0074 0 0 0 .0006-.8905c-.2653.203-.5553.3559-.8597.4526.303.0935.5937.2392.8591.438zm-.8591-.4379a2.8046 2.8046 0 0 0-1.6739.0062 2.803 2.803 0 0 0 1.6739-.0062z"/></svg>