<svg xmlns="http://www.w3.org/2000/svg" fill="none" viewBox="0 0 24 24"><path fill="#000" d="M24 0H0v24h24V0Z"/><path fill="#fff" d="M11.278 19.5h-9V21h9v-1.5ZM2.167 3.111h4.055c2.39 0 3.833 1.389 3.833 3.445v.055c0 2.333-1.777 3.5-4.055 3.5H4.333v3H2.167v-10Zm3.944 5c1.111 0 1.722-.667 1.722-1.5v-.055c0-1-.666-1.5-1.777-1.5H4.389V8.11H6.11ZM10.611 11.667l1.278-1.556c.889.722 1.833 1.222 3 1.222.889 0 1.444-.333 1.444-.944v-.056c0-.555-.333-.833-2-1.277C12.333 8.556 11 8 11 6v-.056c0-1.833 1.444-3 3.5-3 1.444 0 2.722.445 3.722 1.278L17.056 5.89c-.89-.611-1.778-1-2.612-1-.833 0-1.277.389-1.277.889v.055c0 .667.444.89 2.166 1.334 2 .555 3.167 1.277 3.167 3v.055c0 2-1.5 3.111-3.667 3.111-1.5-.055-3-.61-4.222-1.666Z"/></svg>