<svg width="24" height="24" viewBox="0 0 24 24" fill="none" xmlns="http://www.w3.org/2000/svg">
<path d="M2.4 0C1.76348 0 1.15303 0.252856 0.702944 0.702944C0.252856 1.15303 0 1.76348 0 2.4L0 21.6C0 22.2365 0.252856 22.847 0.702944 23.2971C1.15303 23.7471 1.76348 24 2.4 24H21.6C22.2365 24 22.847 23.7471 23.2971 23.2971C23.7471 22.847 24 22.2365 24 21.6V2.4C24 1.76348 23.7471 1.15303 23.2971 0.702944C22.847 0.252856 22.2365 0 21.6 0L2.4 0ZM11.79 1.92L15.23 8.52H14.87L16.06 10.85H15.46L16.81 13.41H16.25L17.46 15.68H16.81L18.12 18.4H12.67V22.08H11.23V18.4H5.88L7.13 15.68H6.57L7.78 13.41H7.13L8.48 10.85H7.78L8.97 8.52H8.47L11.79 1.92Z" fill="black"/>
</svg>
