<svg xmlns="http://www.w3.org/2000/svg" width="24" height="24"><path fill-rule="evenodd" d="M20.52 1.058c-.055.03-.694.673-1.419 1.428l-1.63 1.697-.312.323-.434.086c-.798.157-1.423.45-1.634.764-.085.127-.091.176-.091.774v.639l-.19.207c-.104.115-.669.72-1.254 1.346a216 216 0 0 0-3.148 3.429c-.623.696-.659.729-.8.729H9.46l.013.295.013.296-.173.095c-.145.08-.399.402-1.622 2.055A765 765 0 0 0 5.89 17.66l-.35.48-.18-.047c-.254-.066-.815-.062-1.11.007a2.5 2.5 0 0 0-.916.453c-.111.088-.451.472-.755.853A48 48 0 0 1 .59 21.749c-.302.335-.55.62-.55.633s.877.017 1.95.008c2.11-.019 2.376-.041 3.05-.251.925-.289 1.447-.835 1.68-1.755.101-.398.102-.747.004-1.062-.057-.181-.062-.234-.022-.201.043.036.527-.364 2.333-1.928 2.136-1.848 2.284-1.985 2.346-2.163l.065-.19h.3c.293 0 .299-.002.27-.09a.7.7 0 0 1-.033-.155c-.002-.035.243-.332.543-.66a39 39 0 0 0 1.673-1.947c.187-.232.343-.419.347-.415.005.004-.089 1.979-.208 4.387a692 692 0 0 0-.217 4.55l-.001.17h-.259c-.23 0-.275.013-.39.117l-.131.116-.012.778-.013.777.105.125a.6.6 0 0 0 .253.166c.204.056 9.811.056 10.015-.001a.5.5 0 0 0 .23-.145c.076-.096.082-.159.082-.881 0-.457-.017-.809-.041-.854-.069-.129-.256-.198-.535-.198h-.26l-.023-.13c-.013-.071-.302-2.531-.642-5.466-.341-2.935-.634-5.356-.652-5.38a77 77 0 0 0-.588-.721c-.499-.609-.548-.681-.481-.72.19-.111.409-.299.492-.421.088-.131.09-.159.09-1.212 0-1.21-.009-1.255-.28-1.47-.231-.183-.707-.393-1.113-.491-.201-.049-.366-.102-.367-.117 0-.016.192-.322.427-.68C21.262 1.986 21.4 1.756 21.4 1.584a.585.585 0 0 0-.6-.582.7.7 0 0 0-.28.056"/></svg>