<svg version="1.0" width="24pt" height="24pt" viewBox="0 0 24 24" preserveAspectRatio="xMidYMid" id="svg5"
   xmlns="http://www.w3.org/2000/svg">
   <g transform="matrix(0.02775375,0,0,-0.02775375,-1.2209892,24.908678)" fill="#000000" stroke="none" id="g5">
      <path
         d="M 735,881 C 731,874 641,870 472,870 224,870 214,869 175,847 153,834 126,807 113,785 91,746 90,737 90,480 c 0,-257 1,-266 23,-305 34,-59 86,-85 175,-85 70,0 72,-1 72,-24 0,-37 14,-39 45,-6 l 29,30 h 155 c 143,0 159,2 196,23 22,13 49,40 62,62 22,39 23,49 23,303 0,243 -2,266 -20,302 -11,21 -28,45 -39,52 -10,7 -20,22 -22,33 -5,22 -43,33 -54,16 z m 19,-58 C 740,766 687,641 618,503 552,370 527,339 514,373 c -8,22 113,285 189,410 44,71 62,85 51,40 z m -54,10 c 0,-3 -6,-14 -14,-22 -10,-12 -50,-82 -62,-109 -3,-7 -83,34 -113,59 -46,38 -82,37 -138,-3 -50,-37 -73,-73 -73,-117 0,-37 -10,-62 -21,-55 -5,3 -19,2 -30,-1 -17,-6 -20,-13 -16,-38 3,-25 -2,-39 -24,-65 -43,-48 -39,-81 19,-146 26,-30 56,-69 67,-87 11,-18 34,-42 50,-54 27,-18 30,-23 20,-48 -10,-29 -10,-29 -87,-25 -75,3 -79,5 -115,41 l -38,37 v 280 279 l 30,31 c 17,18 39,36 50,40 24,10 495,13 495,3 z m 136,-98 c 3,-16 4,-144 2,-282 l -3,-253 -38,-37 -37,-38 -150,-3 -150,-3 v 26 c 0,24 3,26 23,20 55,-17 65,-16 91,7 15,12 39,48 54,78 23,46 34,57 67,68 49,16 65,35 65,80 0,33 -24,64 -80,102 l -22,15 42,85 c 22,47 50,116 62,154 l 21,70 23,-30 c 13,-16 26,-42 30,-59 z m -337,-4 c 20,-16 53,-36 73,-44 27,-11 36,-20 32,-31 -5,-12 -11,-13 -24,-6 -44,24 -81,12 -129,-41 -57,-63 -72,-72 -105,-59 -25,9 -26,12 -20,67 5,52 10,62 51,101 25,23 54,42 65,42 11,0 37,-13 57,-29 z m 76,-111 c 3,-5 -8,-36 -24,-68 -25,-49 -37,-62 -71,-76 -73,-29 -141,-18 -192,32 -25,23 -39,59 -20,50 4,-2 28,-14 54,-27 41,-21 50,-23 76,-12 17,7 49,35 72,62 32,38 48,49 70,49 16,0 31,-4 35,-10 z M 282,470 c 12,-11 40,-25 62,-31 l 41,-11 -40,-20 c -22,-11 -50,-30 -62,-41 l -23,-20 -25,23 c -30,29 -32,59 -4,94 25,31 24,31 51,6 z m 448,-76 c 0,-35 -3,-38 -51,-48 -26,-6 -27,-4 -26,32 1,20 -3,54 -7,75 l -8,38 46,-31 c 40,-27 46,-36 46,-66 z M 456,330 C 401,200 385,186 343,233 c -23,24 -53,80 -53,96 0,17 176,121 205,121 7,0 -7,-44 -39,-120 z m 165,20 c -15,-73 -42,-140 -65,-159 -13,-11 -22,-12 -42,-2 -14,6 -24,15 -22,19 27,61 125,218 132,212 5,-5 4,-34 -3,-70 z m -99,-16 c 8,-7 -72,-144 -84,-144 -11,0 -11,-1 27,88 25,56 41,72 57,56 z M 430,147 c 0,-13 -9,-32 -20,-42 -20,-18 -20,-17 -20,11 0,29 15,54 32,54 4,0 8,-11 8,-23 z"
         id="path1" />
      <path d="m 226,792 c -9,-16 11,-52 29,-52 20,0 19,13 -3,41 -13,15 -21,18 -26,11 z" id="path2" />
      <path d="m 165,731 c -5,-9 31,-41 47,-41 16,0 7,30 -11,40 -24,12 -28,12 -36,1 z" id="path3" />
      <path d="m 740,255 c 0,-19 39,-40 52,-27 6,6 2,15 -13,26 -29,20 -39,20 -39,1 z" id="path4" />
      <path d="m 690,212 c 0,-4 7,-18 16,-31 21,-29 41,-14 25,18 -11,20 -41,30 -41,13 z" id="path5" />
   </g>
</svg>