<svg xmlns="http://www.w3.org/2000/svg" width="24" height="24" fill="none" viewBox="0 0 24 24">
  <path fill="#000" fill-rule="evenodd" d="M14.06 3.964c5.372 0 9.728 4.485 9.731 10.017 0 5.533-4.356 10.018-9.73 10.018H9.73c-5.177 0-9.41-4.165-9.711-9.415v-.014a10 10 0 0 1-.02-.589q.001-.295.02-.587V5.155c0-.656.518-1.191 1.156-1.191zm.34 3.758a6.887 6.887 0 1 0 0 13.774 6.887 6.887 0 0 0 0-13.774" clip-rule="evenodd"/>
  <path fill="#000" d="M14.953 12.986a2.496 2.496 0 0 1-2.936 1.966 2.5 2.5 0 1 1 2.936-1.966"/>
  <path fill="#000" d="M4.175 1.65A1.64 1.64 0 0 1 6.157.037l9.84 2.125a9.7 9.7 0 0 1 6.405 4.728 9.7 9.7 0 0 0-7.576-3.635H4.186z"/>
</svg>
