<svg version="1.1" id="svg1" width="24" height="24" viewBox="0 0 24 24" xmlns="http://www.w3.org/2000/svg">
   <defs id="defs1" />
   <g id="g1">
      <path style="fill:#000000;stroke-width:0.462876"
         d="M 1.1250749,23.348528 C 0.08440277,22.29399 -0.00358059,21.858118 -0.00358059,17.75714 V 13.309444 H 5.5142904 11.032161 v 5.591389 5.591388 H 6.6429456 c -4.0470578,0 -4.4771987,-0.08916 -5.5178707,-1.143693 z m 5.3615895,-2.890927 c 1.2355111,-0.681409 2.2463841,-1.40644 2.2463841,-1.61118 0,-0.452989 -3.7761454,-2.741283 -4.5236691,-2.741283 -0.3465819,0 -0.5343793,0.982494 -0.5343793,2.795695 0,1.537631 0.1271879,2.795694 0.2826399,2.795694 0.155452,0 1.2935128,-0.557517 2.5290244,-1.238926 z m 6.3847876,-1.556768 v -5.591389 h 5.560959 5.56096 l -0.158044,4.701344 c -0.207758,6.180181 -0.516682,6.481433 -6.646502,6.481433 h -4.317373 z m 6.931449,1.143052 1.943396,-1.243157 -2.136953,-1.347795 c -1.175324,-0.741287 -2.344483,-1.347795 -2.598132,-1.347795 -0.258013,0 -0.46118,1.253567 -0.46118,2.845546 0,3.189292 -0.01567,3.184027 3.252869,1.093201 z M -0.00358059,7.0707519 c 0,-6.86032931 -0.51651844,-6.57490623 11.89833859,-6.57490623 12.409832,0 11.713437,-0.36777792 11.940569,6.30601213 l 0.158044,4.6437902 H 11.994895 -0.00358059 Z M 7.0087138,7.3955505 C 7.9570979,6.7976829 8.7328379,6.1538909 8.7325809,5.9649015 8.7321252,5.6297798 4.5028671,3.0585654 3.9520985,3.0585654 c -0.3721776,0 -0.3563468,5.3557678 0.016949,5.7340373 0.3115027,0.315653 0.3533492,0.29642 3.0396663,-1.3970522 z M 21.28088,5.994732 C 21.22737,5.7893361 20.141039,5.0244346 18.866811,4.2949511 L 16.550032,2.9686172 V 6.0807206 9.1928245 L 18.964101,7.7805018 C 20.291839,7.0037242 21.334389,6.2001275 21.28088,5.994732 Z"
         id="path1" />
   </g>
</svg>