<svg xmlns="http://www.w3.org/2000/svg" width="24" height="24" viewBox="0 0 48 48"><path fill-rule="evenodd" d="M10.352.26a.8.8 0 0 0-.126.58c.026.232 1.66 3.293 5.97 11.19 3.263 5.981 5.952 10.92 5.974 10.978.034.088-1.837.106-10.719.106H.692l-.166.21c-.222.284-.222.815 0 1.1l.166.21h11.46c11.072 0 11.462-.005 11.592-.149.272-.302.304-.645.102-1.087-.104-.222-2.78-5.155-5.947-10.961C14.732 6.63 12.1 1.8 12.047 1.7l-.096-.18h3.351l6.085 11.157c3.347 6.136 6.086 11.175 6.086 11.197s-2.793 5.16-6.208 11.416c-4.8 8.796-6.209 11.443-6.217 11.667-.012.388.158.684.452.786.318.112 4.749.112 5.067.002.168-.058.318-.226.52-.58.156-.274 3.043-5.558 6.414-11.74 5.095-9.346 6.13-11.298 6.13-11.551s-1.01-2.156-5.978-11.261c-3.29-6.027-5.99-10.987-6.005-11.025-.016-.038.726-.068 1.644-.068h1.674l6.026 11.057c3.315 6.082 6.06 11.11 6.098 11.177.052.086-1.635 3.245-6.106 11.436-3.4 6.225-6.212 11.443-6.254 11.597-.102.376.09.848.394.964.138.052 1.12.074 2.68.06 2.366-.024 2.47-.03 2.628-.19.092-.09 2.963-5.29 6.38-11.557l6.217-11.39 2.2-.04c1.209-.023 2.242-.07 2.298-.105.064-.042.1-.266.1-.631 0-.446-.03-.59-.14-.672-.11-.084-.67-.108-2.539-.108-1.32 0-2.451.032-2.513.07-.064.04-2.93 5.232-6.368 11.537l-6.253 11.462-1.697.022-1.698.022.238-.421c.132-.232 2.841-5.191 6.022-11.02 4.93-9.031 5.783-10.645 5.783-10.916s-.936-2.036-6.346-11.957C28.625 5.517 25.713.216 25.647.14 25.54.012 25.303 0 22.868 0h-2.661l-.166.21c-.386.492-.652-.05 5.922 12.013a6325 6325 0 0 0 6.229 11.41l.14.24-6.09 11.158-6.091 11.156-1.658.022c-.911.012-1.657-.006-1.657-.04 0-.033 2.701-5.01 6.002-11.059 5.177-9.483 5.999-11.035 5.979-11.276-.018-.19-2.072-4.031-6.373-11.917-3.49-6.4-6.402-11.701-6.47-11.777-.112-.128-.35-.14-2.791-.14h-2.668z" style="stroke-width:1.99946"/></svg>