<svg xmlns="http://www.w3.org/2000/svg" xml:space="preserve" width="24" height="24" viewBox="0 0 24 24"><path fill="#fc7d56" d="M3.381.603 3.971.4a.14.14 0 0 0 .06-.038q.466-.009.963-.007c.024.015.036.038.053.044.19.065.384.113.566.194.21.094.407.213.606.327.32.182.635.37.953.554l1.118.647.936.54 1.118.646.986.566q.53.304 1.06.612l.993.575 1.225.706.954.552 1.273.737.985.565 1.118.647 1.101.633q.56.322 1.117.65c.208.122.422.238.615.38.522.386.857.897.987 1.537q.04.2.06.415c-.19-.104-.37-.22-.553-.326l-2.036-1.173-1.955-1.131-2.046-1.179-1.797-1.04-2.036-1.173-1.955-1.13-2.303-1.327-1.964-1.138L3.476.708c-.039-.022-.064-.07-.095-.105" style="stroke-width:.0228493"/><path fill="#ae553b" d="M4.032 23.752c-.02-.015-.03-.04-.043-.042a2.5 2.5 0 0 1-1.197-.567c-.465-.391-.787-.885-.89-1.492-.045-.263-.035-.535-.04-.811q.193.086.367.189 1.02.584 2.036 1.172l1.816 1.05c-.196.106-.387.223-.59.316-.157.071-.328.113-.49.176-.317.01-.638.01-.969.01" style="stroke-width:.0228493"/><path fill="#ca6345" d="M1.854 15.39q-.002-1.222.007-2.456c.237.12.465.249.692.38.443.257.885.515 1.33.783.001.045 0 .079.002.113.011.396.353.649.695.646a.63.63 0 0 0 .476-.214.4.4 0 0 1 .111-.071c.037.032.067.062.102.082q1.24.719 2.48 1.435l2.025 1.17 1.712.985q.741.426 1.481.857c.047.028.085.072.127.108q-.448.263-.897.524l-1.217.706c-.05.03-.104.058-.17.088-.055-.028-.094-.06-.137-.084l-1.49-.861q-1.152-.662-2.302-1.326-1.06-.615-2.122-1.228-1.253-.725-2.509-1.446c-.127-.072-.263-.128-.395-.192" style="stroke-width:.0228493"/><path fill="#bf5e41" d="M1.854 15.4c.133.053.27.109.396.181q1.256.72 2.51 1.446l2.12 1.228q1.15.664 2.303 1.326l1.49.861c.043.025.081.056.13.087q-.486.289-.98.574c-.55.318-1.1.636-1.664.953-.065-.034-.114-.07-.167-.1l-1.5-.868-1.856-1.072q-1.08-.626-2.163-1.248c-.204-.117-.412-.227-.618-.34z" style="stroke-width:.0228493"/><path fill="#f87b55" d="M3.373.605c.04.034.064.08.103.103q1.348.78 2.697 1.557c.655.378 1.31.76 1.964 1.138q1.151.664 2.303 1.326l1.955 1.131 2.036 1.173 1.797 1.04 2.046 1.179 1.955 1.13 2.036 1.174c.183.107.362.222.55.335a2.4 2.4 0 0 1-.122.978c-.05-.028-.083-.062-.12-.084l-1.609-.932q-1.018-.585-2.035-1.172-.932-.538-1.867-1.075c-.035-.02-.084-.014-.13-.028-.162-.24-.37-.378-.665-.369-.05-.044-.093-.087-.144-.117q-.21-.124-.425-.245l-1.946-1.125-2.155-1.243-1.69-.976Q8.891 4.916 7.872 4.33q-.9-.52-1.797-1.041-1.023-.591-2.047-1.179-.757-.434-1.516-.865c.237-.276.52-.49.862-.64" style="stroke-width:.0228493"/><path fill="#d16747" d="M13.102 19.207c-.05-.035-.088-.08-.135-.107a321 321 0 0 0-1.48-.857l-1.713-.984-2.025-1.171-2.48-1.435a.4.4 0 0 1-.098-.089c.265-.211.52-.425.801-.6.21-.131.45-.211.68-.307.031.037.054.075.087.096q.2.122.403.237l2.034 1.173 1.954 1.13 2.162 1.247q.677.389 1.356.775c-.513.297-1.025.593-1.546.892" style="stroke-width:.0228493"/><path fill="#b4593d" d="M1.854 18.439q.312.153.62.329 1.082.622 2.162 1.248l1.856 1.072 1.5.868c.053.03.102.066.16.104a91 91 0 0 1-2.063 1.19c-.614-.35-1.219-.7-1.824-1.05L2.23 21.03c-.118-.068-.239-.132-.366-.2-.01-.794-.01-1.587-.01-2.39" style="stroke-width:.0228493"/><path fill="#d66949" d="M14.656 18.312q-.689-.382-1.364-.772-1.082-.622-2.162-1.247l-1.954-1.13-2.034-1.173q-.203-.115-.403-.237a.3.3 0 0 1-.082-.103c.37-.122.74-.19 1.13-.138q.481.064.92.267c.47.216.876.526 1.255.87.363.33.743.632 1.162.889a4.6 4.6 0 0 0 2.062.685c.032.036.057.071.091.091l2.252 1.3c.05.03.082.084.123.126z" style="stroke-width:.0228493"/><path fill="#e7724f" d="M20.133 15.14c-.116.072-.23.147-.347.216q-.594.347-1.202.684c-.036-.037-.058-.075-.09-.095-.295-.174-.59-.343-.886-.515a49 49 0 0 1-.996-.597c.033-.036.06-.07.092-.095.25-.181.358-.42.295-.725-.073-.36-.48-.602-.802-.526-.214.05-.35.2-.518.312-.13-.086-.252-.17-.38-.243-.877-.509-1.755-1.014-2.63-1.524-.087-.05-.16-.12-.229-.182.684.16 1.356.148 2.025-.036.034.045.062.092.104.118.135.084.276.16.415.24l1.797 1.04 2.036 1.172z" style="stroke-width:.0228493"/><path fill="#ec7450" d="M20.141 15.138q-.669-.375-1.324-.754-1.019-.584-2.036-1.172l-1.797-1.04c-.139-.08-.28-.156-.415-.24a.3.3 0 0 1-.096-.12c.275-.116.542-.22.807-.33.111-.047.217-.108.327-.155.03.037.054.075.087.095q.788.46 1.58.916l2.164 1.25 1.7.98c-.33.19-.659.38-.997.57" style="stroke-width:.0228493"/><path fill="#f27853" d="M22.48 13.379c-.13.252-.318.46-.524.652a.4.4 0 0 1-.109.072c-.41-.234-.806-.466-1.205-.696l-2.034-1.173q-.855-.491-1.709-.986a14 14 0 0 1-.63-.39c.056-.049.112-.086.16-.13.17-.16.335-.322.506-.476q.036.034.067.054.697.401 1.393.804l1.805 1.046c.678.392 1.358.78 2.035 1.173.08.046.153.082.245.05" style="stroke-width:.0228493"/><path fill="#ef7652" d="M16.266 10.864c.211.128.42.26.633.384q.854.495 1.71.986 1.017.584 2.033 1.173c.4.23.795.462 1.198.7q-.223.168-.457.322c-.074.05-.153.089-.237.136q-.86-.486-1.708-.978l-2.165-1.249-1.579-.916a.3.3 0 0 1-.083-.102c.042-.04.083-.064.123-.091z" style="stroke-width:.0228493"/><path fill="#f57954" d="M22.484 13.371c-.096.04-.17.004-.25-.042-.676-.393-1.356-.781-2.034-1.173l-1.806-1.046-1.393-.804a.2.2 0 0 1-.066-.062.7.7 0 0 0 0-.658c.042.006.091 0 .126.02q.935.537 1.867 1.075l2.035 1.172 1.608.932c.038.022.071.056.113.088-.06.166-.13.329-.2.498" style="stroke-width:.0228493"/><path fill="#de6e4c" d="M16.61 14.84q.498.296.998.59.442.258.885.515c.033.02.055.058.083.096-.559.33-1.118.652-1.677.975-.016.01-.029.024-.053.03-.106-.076-.198-.154-.3-.214-.498-.291-.998-.577-1.497-.867-.026-.015-.04-.05-.057-.083.6-.261 1.122-.63 1.617-1.042" style="stroke-width:.0228493"/><path fill="#d96b4a" d="M14.988 15.89c.02.025.035.06.061.075.5.29 1 .576 1.496.867.103.06.195.138.293.215-.375.223-.75.438-1.128.654-.016.01-.028.025-.05.038-.049-.041-.082-.096-.13-.124l-2.253-1.301a.24.24 0 0 1-.08-.092c.205-.017.403-.009.596-.037a9 9 0 0 0 .774-.158c.143-.034.281-.091.421-.138" style="stroke-width:.0228493"/><path fill="#f17752" d="M1.854 3.44c0-.396-.036-.794.09-1.18q.054-.173.131-.343c.04.028.063.06.094.08q.666.387 1.333.771L5.53 3.934l1.965 1.138 2.462 1.417c.8.462 1.598.928 2.398 1.39q1.338.774 2.68 1.543c.163.094.337.171.503.263-.235.162-.462.324-.698.47a2.6 2.6 0 0 1-.796.322c-.05-.041-.087-.088-.135-.115q-.818-.476-1.64-.948l-2.054-1.185-1.788-1.034L6.38 6.016 4.592 4.982Q3.428 4.306 2.26 3.637c-.13-.074-.27-.132-.405-.198" style="stroke-width:.0228493"/><path fill="#eb7450" d="M1.854 3.45c.136.055.276.113.406.187q1.168.67 2.332 1.345L6.38 6.016l2.047 1.18 1.787 1.033 2.056 1.185q.82.472 1.64.948c.047.027.085.074.13.122-.026.013-.054.01-.079.018-.328.099-.665.092-.995.038-.539-.087-1.02-.325-1.45-.654-.368-.28-.713-.589-1.07-.88a5.5 5.5 0 0 0-1.13-.718 4.4 4.4 0 0 0-1.528-.422c-.36-.028-.712 0-1.06.074-.21.045-.417.108-.63.158-.075-.04-.144-.072-.209-.11l-1.37-.793q-1.023-.59-2.045-1.177c-.204-.117-.412-.227-.618-.34z" style="stroke-width:.0228493"/><path fill="#f57954" d="M15.54 9.678c-.169-.085-.343-.162-.507-.256a751 751 0 0 1-2.679-1.543q-1.199-.695-2.398-1.39L7.494 5.072 5.53 3.934Q4.516 3.35 3.502 2.768q-.667-.384-1.333-.772c-.03-.018-.055-.05-.087-.083.136-.225.275-.444.422-.665q.767.428 1.523.862 1.024.588 2.047 1.179l1.797 1.04 2.037 1.174 1.69.976 2.154 1.243 1.946 1.125c.142.082.285.16.425.245.051.03.095.073.135.119-.122.057-.247.09-.348.158-.133.088-.247.205-.37.31" style="stroke-width:.0228493"/><path fill="#e16f4d" d="M1.854 5.689q.311.153.62.329 1.022.586 2.043 1.177l1.37.793c.066.038.135.07.204.117-.13.079-.28.103-.406.187-.118.078-.257.123-.373.202-.31.208-.618.418-.914.644-.154.117-.282.269-.426.398-.077-.046-.15-.083-.223-.125q-.843-.488-1.687-.974c-.064-.037-.138-.057-.207-.085z" style="stroke-width:.0228493"/><path fill="#d96b4a" d="M1.854 8.362a.8.8 0 0 1 .208.075q.844.486 1.687.974c.072.042.146.08.22.133-.167.344-.106.666.174.904.217.185.58.206.847.006.16.088.311.174.463.261l2.23 1.286c.05.029.088.078.121.119-.115-.006-.22-.023-.324-.018-.15.006-.298.027-.447.043a4.2 4.2 0 0 0-1.207.332c-.035-.046-.064-.093-.106-.119-.2-.121-.406-.236-.61-.354q-1.395-.807-2.792-1.61c-.15-.086-.308-.158-.463-.237z" style="stroke-width:.0228493"/><path fill="#d66949" d="M1.854 10.167a5 5 0 0 1 .464.227q1.398.804 2.792 1.61c.204.118.41.233.61.354a.3.3 0 0 1 .098.12c-.337.2-.666.392-1 .577-.013-.014-.02-.024-.03-.03q-1.212-.701-2.428-1.4c-.164-.093-.337-.172-.505-.257z" style="stroke-width:.0228493"/><path fill="#d16747" d="M1.854 11.378c.17.075.342.154.506.247q1.216.698 2.428 1.4.014.007.026.037c-.104.091-.212.164-.31.249-.219.186-.469.342-.6.619-.058.023-.088.048-.02.097l-.003.06-1.328-.773q-.339-.196-.69-.39a85 85 0 0 1-.01-1.546" style="stroke-width:.0228493"/><path fill="#e3704d" d="M6.146 9.606a3 3 0 0 1 1.026-.343c.518-.07 1.005.025 1.476.234.418.186.79.442 1.134.742.381.332.755.674 1.185.946.443.28.91.507 1.42.642.01.002.018.01.036.02.086.065.16.136.245.186q1.315.761 2.631 1.523c.128.073.25.157.38.243.005.008 0 .008-.004.012l-.022.027a4.4 4.4 0 0 1-1.07.702c-.064-.034-.11-.067-.16-.096l-1.253-.725-1.797-1.04-2.047-1.18q-.855-.491-1.71-.985-.69-.398-1.38-.803c-.038-.022-.06-.07-.09-.105" style="stroke-width:.0228493"/><path fill="#de6e4c" d="M6.137 9.607c.038.035.061.082.1.104q.69.404 1.38.803.854.494 1.71.986l2.046 1.179 1.797 1.04 1.254.725c.05.029.095.062.15.097-.33.162-.678.26-1.053.28-.63.037-1.188-.163-1.716-.48a5.7 5.7 0 0 1-.908-.699c-.485-.443-1.01-.832-1.609-1.112a4 4 0 0 0-1.167-.363c-.096-.013-.19-.03-.296-.047-.054-.041-.092-.09-.142-.119q-1.115-.645-2.23-1.286l-.463-.262c.22-.187.443-.379.678-.555.144-.11.307-.194.47-.291" style="stroke-width:.0228493"/><path fill="#ca6345" d="M3.903 13.93a.3.3 0 0 1-.019.081c-.068-.033-.038-.058.02-.081" style="stroke-width:.0228493"/><path fill="#e7724f" d="M15.66 13.835q0-.005.014-.027 0 .006-.014.027" style="stroke-width:.0228493"/></svg>