<?xml version="1.0" encoding="UTF-8" standalone="no"?>
<svg
   version="1.1"
   id="Layer_1"
   x="0px"
   y="0px"
   width="24"
   viewBox="0 0 24 24"
   enable-background="new 0 0 1024 1024"
   xml:space="preserve"
   sodipodi:docname="file.svg"
   height="24"
   inkscape:version="1.4.3 (0d15f75, 2025-12-25)"
   xmlns:inkscape="http://www.inkscape.org/namespaces/inkscape"
   xmlns:sodipodi="http://sodipodi.sourceforge.net/DTD/sodipodi-0.dtd"
   xmlns="http://www.w3.org/2000/svg"
   xmlns:svg="http://www.w3.org/2000/svg"><defs
   id="defs30" /><sodipodi:namedview
   id="namedview30"
   pagecolor="#505050"
   bordercolor="#ffffff"
   borderopacity="1"
   inkscape:showpageshadow="0"
   inkscape:pageopacity="0"
   inkscape:pagecheckerboard="1"
   inkscape:deskcolor="#505050"
   inkscape:zoom="15.906601"
   inkscape:cx="21.689108"
   inkscape:cy="13.799302"
   inkscape:window-width="1710"
   inkscape:window-height="1044"
   inkscape:window-x="0"
   inkscape:window-y="40"
   inkscape:window-maximized="0"
   inkscape:current-layer="Layer_1" />


<path
   fill="#fc7d56"
   opacity="1"
   stroke="none"
   d="m 4.2569234,0.6033323 c 0.1963378,-0.0677063 0.3927614,-0.13516703 0.5889009,-0.20344234 0.023269,-0.008101 0.044987,-0.0206515 0.059646,-0.0382199 0.3125903,-0.007086 0.6329581,-0.007086 0.9640345,-0.007086 0.024818,0.0151631 0.036159,0.038302 0.053434,0.044265 0.1885799,0.0650945 0.3844841,0.11321958 0.5656609,0.19439034 0.2090009,0.0936373 0.4071141,0.21248225 0.6065725,0.32631012 0.3191317,0.18212388 0.6352454,0.36953088 0.953058,0.55397488 0.3723994,0.2161238 0.7452074,0.4315425 1.1179205,0.6471251 0.3117527,0.1803218 0.623559,0.3605502 0.9354563,0.5406195 0.372859,0.2152637 0.745698,0.4305649 1.118813,0.6453811 0.328275,0.1889992 0.657094,0.3770534 0.985358,0.5660699 0.353753,0.2036923 0.707287,0.4077664 1.060645,0.6121407 0.331088,0.1914938 0.661559,0.3840576 0.992781,0.5753174 0.408131,0.235667 0.816931,0.4701666 1.22511,0.7057473 0.318298,0.1837061 0.636073,0.3683209 0.95411,0.5524805 0.424033,0.2455373 0.84779,0.4915549 1.272243,0.7363634 0.328155,0.189267 0.657565,0.3763603 0.985753,0.5655698 0.373003,0.215048 0.744987,0.4318627 1.117933,0.6470128 0.366626,0.2115069 0.734284,0.4212263 1.100783,0.6329509 0.372937,0.2154439 0.746048,0.4306234 1.117063,0.6493468 0.207775,0.1224908 0.421641,0.2381363 0.615013,0.3809059 0.521687,0.3851695 0.856876,0.8968785 0.986403,1.5364985 0.02727,0.134687 0.04584,0.271135 0.05943,0.41458 -0.189948,-0.103446 -0.36856,-0.21874 -0.552273,-0.325241 -0.67762,-0.392828 -1.357186,-0.782307 -2.035534,-1.173884 -0.652019,-0.37638 -1.30316,-0.7542839 -1.9552,-1.1306308 C 18.468381,8.8584349 17.785834,8.4665277 17.10419,8.0730565 16.504852,7.7270951 15.906557,7.3793275 15.307198,7.0334011 14.628821,6.6418684 13.949458,6.2520455 13.271108,5.8604681 12.619088,5.4840917 11.968179,5.1057899 11.316117,4.729488 10.548794,4.2866699 9.7803387,3.8458118 9.0131518,3.4027594 8.357919,3.0243631 7.7042724,2.6432217 7.0490453,2.2648139 6.150169,1.7456923 5.2501803,1.2284942 4.3520712,0.70805169 4.313185,0.68551754 4.2883198,0.63879018 4.2569234,0.6033323 Z"
   id="path3"
   style="stroke-width:0.0228493" />
<path
   fill="#ae553b"
   opacity="1"
   stroke="none"
   d="M 4.908402,23.75227 C 4.88701,23.73749 4.878227,23.71174 4.86537,23.70951 4.4134372,23.63135 4.0128917,23.433213 3.6675307,23.142691 3.2026074,22.751592 2.8812436,22.257792 2.7774261,21.650796 c -0.044902,-0.262529 -0.034815,-0.53446 -0.040425,-0.810897 0.1290786,0.05694 0.250036,0.120628 0.3684746,0.188697 0.6787158,0.390084 1.3570627,0.780811 2.0350878,1.172095 0.6056197,0.349498 1.2106618,0.700001 1.8159575,1.05006 -0.1958939,0.106389 -0.3869715,0.223311 -0.5892323,0.315773 -0.1572199,0.07186 -0.3283831,0.113235 -0.4902139,0.176951 -0.3172314,0.0088 -0.6375992,0.0088 -0.9686752,0.0088 z"
   id="path4"
   style="stroke-width:0.0228493" />
<path
   fill="#ca6345"
   opacity="1"
   stroke="none"
   d="m 2.7308186,15.389173 c -0.00108,-0.815464 -0.00217,-1.630931 0.00609,-2.455176 0.2369117,0.120679 0.4653459,0.248675 0.6919102,0.3799 0.4431995,0.2567 0.885356,0.515202 1.3295699,0.783323 0.00187,0.04456 0.00151,0.07878 0.00248,0.112951 0.011228,0.395787 0.353161,0.648493 0.6953441,0.646027 0.1738995,-0.0012 0.3499033,-0.06797 0.4761647,-0.213943 0.028126,-0.03252 0.07087,-0.05238 0.1109763,-0.07133 0.036627,0.03221 0.06667,0.06198 0.1020764,0.0825 0.8261003,0.478712 1.6527907,0.956411 2.479359,1.43432 0.6750786,0.390318 1.3497988,0.78126 2.0253148,1.170824 0.570079,0.32876 1.141363,0.655428 1.711575,0.983957 0.494404,0.284857 0.988476,0.5703 1.481354,0.857787 0.04715,0.02749 0.08474,0.07136 0.12678,0.107621 -0.298751,0.174602 -0.597209,0.349704 -0.89632,0.523679 -0.405407,0.235802 -0.811264,0.470832 -1.217071,0.705946 -0.05155,0.02987 -0.103982,0.05825 -0.170728,0.08806 -0.05519,-0.02747 -0.09385,-0.05878 -0.13638,-0.08344 -0.49658,-0.287673 -0.993553,-0.574648 -1.490759,-0.861214 C 9.2913502,19.138783 8.5234946,18.697725 7.756633,18.254949 7.0490225,17.846383 6.3426855,17.435612 5.6351855,17.026853 4.7993535,16.543951 3.9635507,16.06099 3.1259565,15.581158 2.9991914,15.508537 2.8627853,15.452748 2.7308378,15.389173 Z"
   id="path5"
   style="stroke-width:0.0228493" />
<path
   fill="#bf5e41"
   opacity="1"
   stroke="none"
   d="m 2.7291771,15.399787 c 0.1335882,0.05297 0.269995,0.108752 0.3967601,0.181371 0.8375942,0.479832 1.6733969,0.962793 2.509229,1.445695 0.7074999,0.408759 1.413837,0.81953 2.1214486,1.228094 0.7668605,0.442776 1.534716,0.883834 2.3019212,1.326016 0.497206,0.286566 0.994179,0.573541 1.490744,0.861216 0.04253,0.02463 0.08119,0.05594 0.129066,0.08668 -0.321973,0.19302 -0.651374,0.383479 -0.980735,0.574009 C 10.148007,21.420807 9.5984304,21.738792 9.0351679,22.0559 8.9704489,22.02199 8.9207149,21.98667 8.8681682,21.95621 8.3683857,21.666471 7.868117,21.377574 7.3680035,21.088407 6.749464,20.730767 6.1310682,20.372879 5.5123706,20.015513 4.7916484,19.59922 4.0712243,19.182403 3.3494385,18.767959 3.1454479,18.650829 2.9371463,18.541205 2.7308217,18.42814 c -0.00108,-1.005915 -0.00217,-2.011828 -0.00163,-3.028355 z"
   id="path6"
   style="stroke-width:0.0228493" />
<path
   fill="#f87b55"
   opacity="1"
   stroke="none"
   d="m 4.2485481,0.60455285 c 0.039774,0.0342366 0.064637,0.080965 0.1035231,0.10349918 C 5.2501803,1.2284946 6.150169,1.7456927 7.0490453,2.2648143 7.7042724,2.643222 8.357919,3.0243634 9.0131518,3.4027598 c 0.7671869,0.4430523 1.5356422,0.8839105 2.3029652,1.3267285 0.652062,0.376302 1.302971,0.7546037 1.954991,1.1309802 0.67835,0.3915773 1.357713,0.7814003 2.03609,1.172933 0.599359,0.3459263 1.197654,0.693694 1.796992,1.0396554 0.681644,0.3934711 1.364191,0.7853783 2.045848,1.1788216 0.65204,0.3763469 1.303181,0.7542505 1.955199,1.1306305 0.678348,0.391577 1.357914,0.781056 2.035534,1.173884 0.183713,0.106501 0.362325,0.221795 0.550683,0.335028 0.03192,0.334393 -0.01682,0.658112 -0.122553,0.977169 -0.04982,-0.02799 -0.08249,-0.06139 -0.121398,-0.08401 -0.535386,-0.311309 -1.071333,-0.621653 -1.607745,-0.93119 -0.6779,-0.391187 -1.356469,-0.781213 -2.034536,-1.172109 C 19.183098,10.322634 18.561638,9.962834 17.938285,9.6063367 17.903435,9.5864107 17.854025,9.5919547 17.80797,9.5784227 17.64618,9.3386201 17.437451,9.1996355 17.14283,9.2089876 17.09383,9.1646766 17.05025,9.1222326 16.999493,9.0917356 16.859343,9.0075251 16.715889,8.9288408 16.574285,8.8470305 15.925472,8.4721852 15.277006,8.0967413 14.628111,7.7220389 13.910057,7.3073994 13.191584,6.8934923 12.473466,6.4789661 11.910171,6.1538113 11.347366,5.827804 10.783934,5.5028879 10.105184,5.1114725 9.4256503,4.7214167 8.7471099,4.329641 8.1476083,3.9835011 7.5493904,3.6351404 6.9499038,3.2889769 6.2680885,2.8952737 5.5859276,2.5021611 4.903092,2.1102308 4.3984066,1.8205543 3.8923991,1.5331819 3.3869807,1.2447831 3.6242121,0.96880532 3.9077503,0.75465502 4.2485481,0.60455285 Z"
   id="path7"
   style="stroke-width:0.0228493" />
<path
   fill="#d16747"
   opacity="1"
   stroke="none"
   d="m 13.977969,19.206532 c -0.05023,-0.03485 -0.08782,-0.07872 -0.13497,-0.106218 C 13.350122,18.812827 12.85605,18.527384 12.361645,18.242527 11.791433,17.913998 11.220149,17.58733 10.650071,17.25857 9.974554,16.869006 9.2998349,16.478064 8.6247564,16.087746 7.7981869,15.609837 6.9714966,15.132138 6.145395,14.653426 c -0.035407,-0.02052 -0.065449,-0.05028 -0.098824,-0.0894 0.2654611,-0.211072 0.5212772,-0.425278 0.8015204,-0.600395 0.2091161,-0.130673 0.4497953,-0.210835 0.6798493,-0.306288 0.03115,0.03715 0.054017,0.07496 0.08746,0.09568 0.1323672,0.08205 0.2676131,0.159526 0.4025727,0.237338 0.6780442,0.390948 1.3566269,0.78097 2.0344596,1.172282 0.651524,0.376125 1.302176,0.753766 1.953556,1.130138 0.720455,0.416286 1.440872,0.832639 2.162138,1.247517 0.451185,0.259532 0.903904,0.516391 1.355935,0.77445 -0.512631,0.296795 -1.025263,0.59359 -1.546085,0.891784 z"
   id="path8"
   style="stroke-width:0.0228493" />
<path
   fill="#b4593d"
   opacity="1"
   stroke="none"
   d="m 2.7292067,18.438758 c 0.2079396,0.102453 0.4162412,0.212073 0.6202318,0.329203 0.7217858,0.414444 1.4422099,0.831262 2.1629321,1.247554 0.6186976,0.357366 1.2370934,0.715254 1.8556329,1.072894 0.5001135,0.289168 1.0003822,0.578064 1.5001647,0.867803 0.052545,0.03047 0.1022818,0.06578 0.1597896,0.103309 C 8.6072415,22.31088 8.1803866,22.558334 7.7527535,22.804437 7.4934117,22.953688 7.2328671,23.10085 6.9646937,23.249848 6.3512272,22.900694 5.7461857,22.550192 5.1405658,22.200693 4.4625408,21.809411 3.7841939,21.418682 3.1054781,21.028599 2.9870395,20.960528 2.8660822,20.89684 2.7385546,20.829284 c -0.0088,-0.79453 -0.0099,-1.587221 -0.00936,-2.390526 z"
   id="path9"
   style="stroke-width:0.0228493" />
<path
   fill="#d66949"
   opacity="1"
   stroke="none"
   d="M 15.531516,18.311777 C 15.072022,18.056689 14.619302,17.799829 14.168118,17.540297 13.446852,17.12542 12.726435,16.709066 12.00598,16.292781 11.354601,15.916408 10.703949,15.538768 10.052425,15.162643 9.3745917,14.77133 8.6960089,14.381308 8.0179647,13.99036 7.8830051,13.912554 7.7477592,13.835079 7.6153921,13.753023 c -0.033443,-0.02073 -0.05631,-0.05852 -0.082838,-0.102921 0.3702235,-0.122274 0.7409307,-0.189386 1.1304022,-0.137882 0.3218325,0.04256 0.6259106,0.131881 0.9185488,0.266342 0.4701859,0.216039 0.8773679,0.526351 1.2568949,0.871157 0.362671,0.329491 0.74283,0.631477 1.161263,0.888153 0.634682,0.389332 1.316589,0.625718 2.062687,0.685322 0.03137,0.03556 0.05649,0.07098 0.09067,0.09076 0.750286,0.434037 1.50203,0.86555 2.251613,1.300789 0.04889,0.02838 0.08261,0.08284 0.123387,0.125165 -0.329682,0.189633 -0.659364,0.379266 -0.996508,0.571868 z"
   id="path10"
   style="stroke-width:0.0228493" />
<path
   fill="#e7724f"
   opacity="1"
   stroke="none"
   d="m 21.008938,15.139167 c -0.115696,0.07236 -0.229604,0.147778 -0.347416,0.216507 -0.396902,0.231542 -0.795192,0.460703 -1.201761,0.683914 -0.03599,-0.03657 -0.058,-0.07505 -0.09116,-0.09462 -0.293958,-0.173473 -0.59055,-0.342472 -0.885071,-0.515001 -0.333588,-0.195417 -0.665838,-0.393107 -0.995327,-0.596854 0.03279,-0.03649 0.05898,-0.07041 0.09221,-0.09469 0.248252,-0.181394 0.357434,-0.419813 0.294829,-0.725297 -0.07372,-0.359738 -0.481572,-0.602626 -0.801855,-0.526516 -0.214691,0.05102 -0.350797,0.200638 -0.518519,0.312529 -0.12973,-0.08652 -0.251946,-0.169668 -0.379503,-0.243602 -0.876899,-0.508258 -1.755465,-1.013646 -2.631704,-1.523039 -0.08534,-0.04961 -0.158534,-0.120114 -0.228005,-0.18245 0.684711,0.159879 1.356396,0.148119 2.024927,-0.03609 0.03481,0.04536 0.06282,0.09252 0.104176,0.118128 0.13568,0.08403 0.276566,0.159621 0.414805,0.239566 0.599102,0.346455 1.197629,0.693904 1.79702,1.039852 0.67842,0.391559 1.357389,0.782158 2.036409,1.172675 0.438382,0.252126 0.877281,0.503353 1.315947,0.75498 z"
   id="path11"
   style="stroke-width:0.0228493" />
<path
   fill="#ec7450"
   opacity="1"
   stroke="none"
   d="m 21.017214,15.13845 c -0.446942,-0.25091 -0.885841,-0.502135 -1.324223,-0.754263 -0.67902,-0.390516 -1.357989,-0.781115 -2.036409,-1.172673 -0.599391,-0.345948 -1.197919,-0.693397 -1.79702,-1.039853 -0.13824,-0.07994 -0.279125,-0.155533 -0.414805,-0.239566 -0.04136,-0.02561 -0.06938,-0.07277 -0.09531,-0.119923 0.274437,-0.116206 0.541845,-0.219754 0.806364,-0.330219 0.111661,-0.04663 0.217245,-0.107839 0.32747,-0.154552 0.03003,0.03707 0.05334,0.07453 0.08704,0.09422 0.525563,0.306944 1.052174,0.612101 1.579137,0.916643 0.721266,0.416834 1.442998,0.832864 2.164602,1.249115 0.566733,0.326916 1.133574,0.653639 1.700368,0.980448 -0.32965,0.189967 -0.659298,0.379939 -0.997222,0.570625 z"
   id="path12"
   style="stroke-width:0.0228493" />
<path
   fill="#f27853"
   opacity="1"
   stroke="none"
   d="m 23.356125,13.378625 c -0.130667,0.252796 -0.318052,0.460207 -0.523886,0.652547 -0.02961,0.02767 -0.06427,0.04992 -0.109276,0.07229 -0.409897,-0.233968 -0.806423,-0.466754 -1.204497,-0.696857 -0.677811,-0.391806 -1.356639,-0.781849 -2.03496,-1.172765 -0.569667,-0.328298 -1.139982,-0.655478 -1.708437,-0.985865 -0.213232,-0.123932 -0.422018,-0.255516 -0.629492,-0.390818 0.05557,-0.04794 0.111364,-0.08487 0.159354,-0.130085 0.168651,-0.158895 0.334616,-0.320641 0.505967,-0.47475 0.02536,0.02247 0.04494,0.04085 0.0676,0.05393 0.463956,0.26814 0.928609,0.535079 1.392413,0.803484 0.601954,0.348354 1.202725,0.698753 1.80504,1.046484 0.678011,0.391431 1.357817,0.779759 2.034972,1.172666 0.07942,0.04608 0.153481,0.0817 0.245211,0.04974 z"
   id="path13"
   style="stroke-width:0.0228493" />
<path
   fill="#ef7652"
   opacity="1"
   stroke="none"
   d="m 17.142237,10.864357 c 0.210814,0.128096 0.4196,0.25968 0.632832,0.383612 0.568455,0.330387 1.13877,0.657566 1.708437,0.985865 0.678321,0.390916 1.357149,0.780959 2.03496,1.172761 0.398074,0.230103 0.7946,0.462888 1.197292,0.700108 -0.148452,0.11165 -0.301074,0.219618 -0.456872,0.322793 -0.07347,0.04865 -0.153042,0.08811 -0.23715,0.135032 -0.574094,-0.323511 -1.140935,-0.650233 -1.707668,-0.97715 -0.721604,-0.41625 -1.443336,-0.83228 -2.164602,-1.249115 -0.526962,-0.304542 -1.053574,-0.609699 -1.579137,-0.916643 -0.03369,-0.01968 -0.05701,-0.05715 -0.08376,-0.101429 0.04213,-0.04052 0.08376,-0.06462 0.12343,-0.09162 0.177717,-0.120957 0.354877,-0.242734 0.532238,-0.364214 z"
   id="path14"
   style="stroke-width:0.0228493" />
<path
   fill="#f57954"
   opacity="1"
   stroke="none"
   d="m 23.359717,13.371168 c -0.09532,0.03941 -0.169371,0.0037 -0.248803,-0.04227 -0.677154,-0.392911 -1.356961,-0.781238 -2.034972,-1.172669 -0.602315,-0.34773 -1.203085,-0.69813 -1.805039,-1.046484 -0.463804,-0.268406 -0.928457,-0.535344 -1.392413,-0.803485 -0.02263,-0.01308 -0.04221,-0.03147 -0.06689,-0.06252 0.109892,-0.228853 0.106651,-0.4431934 -1.71e-4,-0.6580884 0.04263,0.00632 0.09205,7.843e-4 0.126897,0.020692 0.623351,0.3564974 1.244813,0.7162984 1.866936,1.0749444 0.678067,0.390897 1.356636,0.780923 2.034536,1.172105 0.536412,0.309537 1.072358,0.619882 1.607744,0.931189 0.03892,0.02262 0.07158,0.05603 0.11383,0.0885 -0.06155,0.166261 -0.129789,0.328451 -0.201619,0.498097 z"
   id="path15"
   style="stroke-width:0.0228493" />
<path
   fill="#de6e4c"
   opacity="1"
   stroke="none"
   d="m 17.484866,14.840166 c 0.332832,0.196703 0.665082,0.394393 0.99867,0.58981 0.29452,0.17253 0.591114,0.341528 0.88507,0.515001 0.03316,0.01957 0.05517,0.05804 0.08329,0.09556 -0.558576,0.33018 -1.118147,0.652466 -1.677393,0.975318 -0.01594,0.0092 -0.02843,0.02442 -0.05239,0.03019 -0.106527,-0.07626 -0.198278,-0.154196 -0.300608,-0.214071 -0.497398,-0.291046 -0.997911,-0.576765 -1.496061,-0.86654 -0.02623,-0.01525 -0.04093,-0.05033 -0.05699,-0.08316 0.5995,-0.261651 1.12202,-0.629982 1.616422,-1.042108 z"
   id="path16"
   style="stroke-width:0.0228493" />
<path
   fill="#d96b4a"
   opacity="1"
   stroke="none"
   d="m 15.864434,15.889264 c 0.02007,0.02586 0.03476,0.06093 0.061,0.07619 0.49815,0.289773 0.998662,0.575492 1.496061,0.866537 0.102328,0.05988 0.194086,0.137821 0.292707,0.21488 -0.374715,0.223022 -0.751491,0.43848 -1.127889,0.654599 -0.01595,0.0091 -0.02838,0.02446 -0.05036,0.03768 -0.0487,-0.04156 -0.08243,-0.09602 -0.131308,-0.124396 -0.749583,-0.435242 -1.501327,-0.866754 -2.251613,-1.300791 -0.03419,-0.01977 -0.05931,-0.05519 -0.08008,-0.0923 0.204638,-0.01681 0.403015,-0.0086 0.596183,-0.0364 0.260324,-0.03754 0.517991,-0.09724 0.774145,-0.15852 0.143155,-0.03424 0.280946,-0.09091 0.421155,-0.137468 z"
   id="path17"
   style="stroke-width:0.0228493" />
<path
   fill="#f17752"
   opacity="1"
   stroke="none"
   d="M 2.730821,3.439114 C 2.728661,3.043955 2.693743,2.6461988 2.818976,2.2607849 2.856729,2.1446009 2.899087,2.0299142 2.9509558,1.9170095 c 0.039032,0.028448 0.062655,0.060929 0.094423,0.079428 0.4436266,0.2583387 0.8880623,0.5152948 1.3329052,0.7715381 0.6754891,0.3891032 1.3519341,0.7765502 2.0270723,1.1662607 0.6553776,0.3783033 1.3090699,0.7595248 1.9644978,1.1377402 0.8201112,0.4732459 1.6418179,0.9437321 2.4617639,1.4172628 0.800187,0.4621185 1.598544,0.9274071 2.398588,1.3897729 0.892221,0.5156373 1.784629,1.0309671 2.678961,1.5429243 0.164147,0.093964 0.337877,0.1711799 0.503563,0.2632413 -0.234658,0.1622507 -0.461449,0.3242492 -0.697911,0.4706192 -0.244025,0.151052 -0.509379,0.257715 -0.796281,0.321369 -0.04899,-0.04127 -0.08616,-0.08769 -0.134125,-0.115611 C 14.238855,10.044003 13.691739,9.7291202 13.14486,9.4138387 12.459629,9.0187968 11.773991,8.6244631 11.088976,8.2290501 10.492856,7.8849468 9.8976466,7.5392694 9.3015111,7.1951939 8.6197689,6.8017085 7.937148,6.4097469 7.2554732,6.0161462 6.659397,5.6719722 6.064366,5.325992 5.4683992,4.9816304 4.6913631,4.5326445 3.9145932,4.0831869 3.135837,3.6371995 3.0056995,3.5626708 2.8660658,3.5047234 2.730821,3.439114 Z"
   id="path18"
   style="stroke-width:0.0228493" />
<path
   fill="#eb7450"
   opacity="1"
   stroke="none"
   d="m 2.7291458,3.449715 c 0.13692,0.055009 0.2765537,0.112956 0.4066912,0.1874845 0.7787562,0.4459874 1.5555261,0.895445 2.3325622,1.3444309 0.5959668,0.3443616 1.1909978,0.6903418 1.787074,1.0345158 0.6816748,0.3936007 1.3642957,0.7855623 2.0460379,1.1790477 0.5961355,0.3440755 1.1913449,0.6897529 1.7874649,1.0338562 0.685015,0.395413 1.370653,0.7897467 2.055884,1.1847886 0.546879,0.3152815 1.093995,0.6301643 1.639553,0.9477163 0.04795,0.02791 0.08515,0.07434 0.129185,0.122464 -0.0246,0.01258 -0.05239,0.01033 -0.07728,0.01781 -0.328392,0.09882 -0.664903,0.09208 -0.99494,0.0385 -0.538898,-0.08747 -1.021137,-0.324914 -1.45168,-0.65389 C 12.022755,9.6060696 11.677867,9.2969952 11.319388,9.0053321 10.971413,8.7222152 10.597273,8.479208 10.189806,8.2884776 9.7044273,8.0612792 9.2031442,7.9070781 8.6628803,7.8658704 8.3018193,7.8383306 7.9512877,7.8659645 7.6019815,7.9402073 7.3918419,7.9848743 7.1856948,8.0483268 6.9714486,8.0982748 6.8979333,8.0583738 6.8292458,8.0261008 6.763752,7.9882901 6.3065342,7.7243273 5.8503596,7.4585583 5.3931201,7.1946329 4.71221,6.801601 4.0312618,6.408626 3.3490946,6.0177822 3.1451216,5.9009169 2.937025,5.7912489 2.7308174,5.6782841 2.7297315,4.9389609 2.7285856,4.1996381 2.7291288,3.4497139 Z"
   id="path19"
   style="stroke-width:0.0228493" />
<path
   fill="#f57954"
   opacity="1"
   stroke="none"
   d="M 16.41635,9.6780633 C 16.247044,9.5931158 16.073314,9.5158994 15.909167,9.421936 15.014834,8.9099787 14.122427,8.3946489 13.230206,7.8790116 12.430162,7.4166458 11.631805,6.9513572 10.831618,6.4892388 10.011672,6.015708 9.1899654,5.5452219 8.3698542,5.0719759 7.7144263,4.6937605 7.060734,4.3125391 6.4053564,3.9342358 5.7302179,3.5445252 5.053773,3.1570783 4.3782839,2.767975 3.9334409,2.5117317 3.4890053,2.2547756 3.0453787,1.996437 3.0136097,1.977938 2.9899847,1.945457 2.9584377,1.912787 3.0938128,1.687687 3.2333246,1.469278 3.3799083,1.2478262 c 0.51249,0.2853562 1.0184975,0.5727286 1.5231829,0.8624051 0.6828355,0.3919303 1.3649969,0.7850429 2.0468122,1.1787461 0.5994866,0.3461634 1.1977045,0.6945242 1.7972061,1.0406642 0.6785404,0.3917756 1.3580745,0.7818313 2.0368245,1.1732468 0.563432,0.3249161 1.126237,0.6509234 1.689532,0.9760795 0.718118,0.4145261 1.436591,0.8284332 2.154645,1.2430727 0.648895,0.3747025 1.297361,0.7501462 1.946174,1.1249916 0.141604,0.08181 0.285058,0.1604946 0.425208,0.2447024 0.05076,0.030497 0.09434,0.07294 0.13414,0.118908 -0.121477,0.057318 -0.246294,0.090101 -0.347744,0.1578648 -0.132837,0.088729 -0.247218,0.2050849 -0.369539,0.3095559 z"
   id="path20"
   style="stroke-width:0.0228493" />
<path
   fill="#e16f4d"
   opacity="1"
   stroke="none"
   d="M 2.7291228,5.6888873 C 2.937025,5.7912501 3.1451216,5.9009181 3.3490946,6.0177833 4.0312618,6.4086272 4.71221,6.8016023 5.3931201,7.194634 5.8503596,7.4585594 6.3065342,7.7243284 6.763752,7.9882912 6.8292469,8.0261046 6.8979333,8.0583774 6.9674494,8.1054907 6.8369397,8.1836454 6.6879284,8.2075168 6.5605989,8.2921574 6.4434256,8.370046 6.3042705,8.4150038 6.187629,8.4935274 5.8785326,8.7016119 5.5702108,8.911914 5.2739961,9.1376263 5.1200518,9.2549309 4.9923716,9.4067055 4.8483031,9.5362681 4.7707121,9.4902136 4.6965953,9.4526225 4.6247451,9.4111059 4.0625559,9.0862623 3.5013104,8.7597803 2.9382152,8.4365185 c -0.064207,-0.036861 -0.138027,-0.056974 -0.20739,-0.084856 -0.00114,-0.8840577 -0.00229,-1.768116 -0.00169,-2.6627754 z"
   id="path21"
   style="stroke-width:0.0228493" />
<path
   fill="#d96b4a"
   opacity="1"
   stroke="none"
   d="m 2.7291595,8.3622691 c 0.071029,0.017272 0.1448486,0.037392 0.2090557,0.074249 0.5630952,0.3232618 1.1243407,0.6497439 1.6865299,0.9745875 0.07185,0.041517 0.145967,0.079109 0.2200935,0.1326621 -0.1667803,0.3438548 -0.1062092,0.6658633 0.173941,0.9044413 0.2172272,0.184992 0.5804032,0.20626 0.8474321,0.0053 0.1592179,0.08884 0.3111914,0.174593 0.4624277,0.261625 0.743789,0.428021 1.4877401,0.855765 2.2302408,1.286012 0.04984,0.02888 0.08819,0.07759 0.1215605,0.118714 -0.115149,-0.0057 -0.2203586,-0.02249 -0.3246862,-0.01815 -0.1492521,0.0063 -0.2979474,0.0271 -0.4467259,0.04313 -0.421119,0.04539 -0.8213629,0.165295 -1.2069024,0.331674 -0.035383,-0.0453 -0.063886,-0.09279 -0.1057961,-0.118048 C 6.3948076,12.236985 6.1896303,12.121607 5.9858154,12.00396 5.0555254,11.466988 4.1258649,10.928921 3.1943687,10.394051 3.0440417,10.307732 2.8855838,10.235576 2.7308843,10.156871 2.7297433,9.5622073 2.7286479,8.9675438 2.7291386,8.3622752 Z"
   id="path22"
   style="stroke-width:0.0228493" />
<path
   fill="#d66949"
   opacity="1"
   stroke="none"
   d="m 2.7292779,10.167472 c 0.1563059,0.0681 0.3147638,0.140255 0.4650908,0.226573 0.9314962,0.53487 1.8611567,1.072937 2.7914467,1.60991 0.2038149,0.117645 0.4089922,0.233023 0.6105158,0.354468 0.041898,0.02525 0.070402,0.07275 0.097432,0.119511 C 6.3568064,12.678821 6.0275071,12.870191 5.693757,13.054986 5.681045,13.040646 5.673921,13.030906 5.664358,13.025386 4.8551703,12.558107 4.0466183,12.089717 3.2357434,11.625382 3.0720032,11.531617 2.8994231,11.453289 2.7309175,11.367844 c -0.00108,-0.396589 -0.00217,-0.793175 -0.00163,-1.200369 z"
   id="path23"
   style="stroke-width:0.0228493" />
<path
   fill="#d16747"
   opacity="1"
   stroke="none"
   d="m 2.7293019,11.37845 c 0.1701217,0.07483 0.3427019,0.153165 0.5064422,0.246929 0.8108749,0.464336 1.6194268,0.932726 2.4286137,1.400008 0.00956,0.0056 0.016686,0.01525 0.025699,0.03644 -0.1036418,0.09164 -0.2125341,0.164589 -0.3115104,0.249153 -0.2175999,0.18591 -0.4676227,0.341855 -0.5999802,0.618574 -0.056093,0.02346 -0.086884,0.04837 -0.020355,0.0975 4.863e-4,0.02558 -4.863e-4,0.04269 -0.00145,0.0598 C 4.3141767,13.829099 3.8720203,13.570597 3.4288207,13.313897 3.2022565,13.182672 2.9738222,13.054676 2.7385443,12.92339 c -0.00874,-0.512663 -0.0098,-1.023498 -0.00924,-1.54494 z"
   id="path24"
   style="stroke-width:0.0228493" />


<path
   fill="#e3704d"
   opacity="1"
   stroke="none"
   d="M 7.0216892,9.6059652 C 7.3439587,9.4320765 7.6825621,9.3129387 8.048283,9.2633471 8.5657332,9.1931801 9.0531836,9.2877611 9.5238118,9.4972448 9.941578,9.6831985 10.313872,9.939498 10.657818,10.238805 c 0.381566,0.332041 0.754902,0.67437 1.184721,0.946034 0.443285,0.280171 0.910403,0.507391 1.419635,0.641667 0.01027,0.0027 0.01905,0.01129 0.03633,0.02113 0.08662,0.06476 0.159821,0.13526 0.24516,0.184873 0.876239,0.509393 1.754804,1.01478 2.631704,1.523039 0.127556,0.07394 0.249772,0.157081 0.379501,0.243602 0.0051,0.0077 -1.71e-4,0.0074 -0.0042,0.01161 -0.01001,0.01205 -0.01588,0.01986 -0.02178,0.02768 -0.321708,0.280323 -0.67049,0.52011 -1.070828,0.701844 -0.06268,-0.03434 -0.109116,-0.0675 -0.158239,-0.09597 -0.417801,-0.24219 -0.83624,-0.48334 -1.254255,-0.725218 -0.599058,-0.346635 -1.197578,-0.694202 -1.79695,-1.040292 -0.68168,-0.393616 -1.364044,-0.786056 -2.04612,-1.178997 C 9.6323931,11.171398 9.0620003,10.843579 8.492372,10.514435 8.0314038,10.248078 7.5707881,9.981098 7.1119422,9.711119 7.0742769,9.6889545 7.0514221,9.6416098 7.0216869,9.6059653 Z"
   id="path27"
   style="stroke-width:0.0228493" />
<path
   fill="#de6e4c"
   opacity="1"
   stroke="none"
   d="m 7.0133996,9.6069763 c 0.038019,0.034635 0.060874,0.081979 0.09855,0.1041427 0.458846,0.269979 0.9194627,0.536959 1.3804298,0.803316 0.5696282,0.329144 1.1400211,0.656963 1.7100746,0.985369 0.682076,0.392941 1.364442,0.785381 2.046123,1.179001 0.599373,0.346091 1.197894,0.693658 1.796951,1.040292 0.418015,0.241878 0.836454,0.483029 1.254277,0.725239 0.04912,0.02848 0.09555,0.06162 0.149945,0.09674 -0.329273,0.162388 -0.677784,0.259333 -1.053027,0.280805 -0.630456,0.03608 -1.187557,-0.164367 -1.715352,-0.48066 -0.329912,-0.197711 -0.62439,-0.440325 -0.908365,-0.699268 -0.485477,-0.442685 -1.010188,-0.83201 -1.608945,-1.112036 C 9.7918871,12.355861 9.4073288,12.220613 8.997433,12.166679 8.9013984,12.154036 8.8060085,12.136499 8.7005479,12.119691 8.6470794,12.078671 8.6087226,12.029973 8.5588802,12.001085 7.8163795,11.570839 7.0724284,11.143095 6.3286394,10.715074 6.1774031,10.628042 6.0254296,10.542291 5.8662117,10.453449 6.0863308,10.265734 6.3091187,10.073979 6.5435508,9.8977145 6.6882285,9.7889358 6.8506526,9.7037602 7.0133996,9.6069775 Z"
   id="path28"
   style="stroke-width:0.0228493" />
<path
   fill="#ca6345"
   opacity="1"
   stroke="none"
   d="m 4.7785668,13.929554 c 1.363e-4,0.02382 -0.00713,0.04911 -0.018111,0.08172 -0.068773,-0.03335 -0.037982,-0.05826 0.018111,-0.08172 z"
   id="path29"
   style="stroke-width:0.0228493" />
<path
   fill="#e7724f"
   opacity="1"
   stroke="none"
   d="m 16.536047,13.834811 c -0.0012,-0.0042 0.0046,-0.01199 0.01368,-0.02645 -7e-5,0.0032 -0.0033,0.01299 -0.01368,0.02645 z"
   id="path30"
   style="stroke-width:0.0228493" />
</svg>
