<?xml version="1.0" encoding="UTF-8" standalone="no"?>
<svg
   width="24"
   height="24"
   viewBox="0 0 24 24"
   fill="none"
   version="1.1"
   id="svg1"
   sodipodi:docname=":postman:.svg"
   inkscape:version="1.4.3 (0d15f75, 2025-12-25)"
   xmlns:inkscape="http://www.inkscape.org/namespaces/inkscape"
   xmlns:sodipodi="http://sodipodi.sourceforge.net/DTD/sodipodi-0.dtd"
   xmlns="http://www.w3.org/2000/svg"
   xmlns:svg="http://www.w3.org/2000/svg">
  <defs
     id="defs1" />
  <sodipodi:namedview
     id="namedview1"
     pagecolor="#505050"
     bordercolor="#ffffff"
     borderopacity="1"
     inkscape:showpageshadow="0"
     inkscape:pageopacity="0"
     inkscape:pagecheckerboard="1"
     inkscape:deskcolor="#505050"
     inkscape:zoom="10.03015"
     inkscape:cx="11.066635"
     inkscape:cy="10.917085"
     inkscape:window-width="968"
     inkscape:window-height="1044"
     inkscape:window-x="742"
     inkscape:window-y="40"
     inkscape:window-maximized="0"
     inkscape:current-layer="svg1" />
  <path
     d="m 23.038697,5.4519471 c -0.134079,0.132409 -0.281291,0.2508263 -0.439363,0.3534363 L 20.640842,3.8485136 23.126245,1.3631108 c 1.071658,1.1673125 1.032748,2.9701618 -0.08755,4.0888363 z"
     id="path10"
     style="fill:#000000;fill-opacity:1;stroke:none;stroke-width:1.62127;stroke-opacity:1" />
  <path
     d="m 22.87657,2.9487102 c -0.03891,0.02826 -0.0681,0.067947 -0.0835,0.1135531 -0.0154,0.045623 -0.01622,0.094893 -0.0023,0.1409854 0.05772,0.1169093 0.08041,0.2480377 0.06518,0.3775122 -0.01523,0.1294906 -0.06777,0.2517665 -0.151102,0.3520582 -0.01848,0.023411 -0.03226,0.050243 -0.04053,0.078972 -0.0081,0.028729 -0.0105,0.058803 -0.0071,0.088472 0.0036,0.029669 0.01281,0.058365 0.0274,0.084435 0.01459,0.026086 0.03421,0.049027 0.05755,0.067509 0.03891,0.030528 0.08673,0.0476 0.136186,0.048639 0.03291,-2.918e-4 0.06518,-0.00769 0.09484,-0.021677 0.02968,-0.013993 0.05594,-0.034258 0.07701,-0.059387 0.139268,-0.1672987 0.226817,-0.3715459 0.251783,-0.5877743 0.02513,-0.2162447 -0.0133,-0.4350833 -0.110733,-0.6297975 -0.01686,-0.024368 -0.03859,-0.045104 -0.06371,-0.061008 -0.02496,-0.015905 -0.05301,-0.02667 -0.08236,-0.031646 -0.02919,-0.00497 -0.05917,-0.00409 -0.08804,0.00263 -0.02903,0.00672 -0.05626,0.019131 -0.08041,0.036511 z"
     id="path9"
     style="fill:#000000;fill-opacity:1;stroke:none;stroke-width:1.62127;stroke-opacity:1" />
  <path
     d="m 18.859069,5.4519471 -0.0049,-0.00324 C 18.318214,4.9101196 18.010336,4.1856887 17.994609,3.4259789 17.97888,2.6662693 18.256606,1.9297438 18.769899,1.3694498 19.283193,0.80917231 19.99266,0.46825222 20.750926,0.41755513 c 0.758105,-0.0506974 1.506645,0.19272005 2.089975,0.67966777 l -2.610239,2.6151042 c -0.018,0.017947 -0.03242,0.039284 -0.04215,0.062793 -0.0098,0.023508 -0.01491,0.048735 -0.01491,0.074205 0,0.02547 0.005,0.050697 0.01491,0.074205 0.0097,0.023524 0.02417,0.04486 0.04215,0.062792 l 2.02172,2.0217206 c -0.552528,0.2743176 -1.177364,0.3682052 -1.786151,0.2684324 -0.608786,-0.099773 -1.171041,-0.38818 -1.607162,-0.824528 z"
     id="path8"
     style="fill:#000000;fill-opacity:1;stroke:none;stroke-width:1.62127;stroke-opacity:1" />
  <path
     d="m 12.930094,15.925319 h -0.0032 l -1.360235,-1.360245 7.618335,-6.6877109 c 0.07052,-0.062598 0.135052,-0.1315176 0.192931,-0.2059006 -0.239948,2.1805886 -3.289551,5.2609955 -6.447781,8.2538565 z"
     id="path7"
     style="fill:#000000;fill-opacity:1;stroke:none;stroke-width:1.62127;stroke-opacity:1" />
  <path
     d="m 4.3714725,21.483022 c -0.073508,0.03794 -0.1321497,0.09955 -0.1665367,0.174773 -0.034386,0.07522 -0.042543,0.159857 -0.023152,0.240272 l 0.3291173,1.402396 c 0.010637,0.04329 0.00675,0.08869 -0.011062,0.12954 -0.017818,0.0407 -0.048541,0.07459 -0.087451,0.09614 -0.038927,0.02156 -0.083852,0.02968 -0.1278856,0.02318 -0.044017,-0.0065 -0.084679,-0.02724 -0.1156943,-0.05917 h -0.00486 l -1.5142597,-1.514269 -0.4766526,-0.478273 6.099208,-6.092722 2.9506571,-0.637159 1.416988,1.416988 c -2.03469,1.786637 -4.8167362,3.568409 -8.2684144,5.298301 z"
     id="path6"
     style="fill:#000000;fill-opacity:1;stroke:none;stroke-width:1.62127;stroke-opacity:1" />
  <path
     d="m 0.43989896,23.519335 c -0.0162127,-0.0015 -0.0319714,-0.006 -0.0463844,-0.01361 -0.0144131,-0.0075 -0.0271886,-0.01784 -0.0375809,-0.03033 -0.0104084,-0.0125 -0.018223,-0.02691 -0.0230057,-0.04247 -0.004799,-0.01557 -0.006452,-0.03194 -0.004896,-0.04815 0.00308,-0.02821 0.0156615,-0.05447 0.0356679,-0.07458 h 0.003242 l 1.53371894,-1.533718 1.9811887,1.981188 z"
     id="path5"
     style="fill:#000000;fill-opacity:1;stroke:none;stroke-width:1.62127;stroke-opacity:1" />
  <path
     d="m 6.35104,13.697697 1.9001253,-1.900126 1.4250454,1.423473 -3.2084395,0.69066 c -0.026734,0.007 -0.055058,0.0044 -0.080155,-0.0071 -0.025114,-0.0115 -0.045476,-0.03129 -0.057652,-0.0561 -0.01511,-0.02351 -0.021287,-0.05156 -0.017428,-0.07929 0.00388,-0.02772 0.017525,-0.05301 0.038504,-0.0715 z"
     id="path4"
     style="fill:#000000;fill-opacity:1;stroke:none;stroke-width:1.62127;stroke-opacity:1" />
  <path
     d="M 10.895404,14.441858 9.1120097,14.82772 c -0.021238,0.0049 -0.043612,0.0022 -0.063229,-0.0071 -0.019779,-0.0094 -0.035668,-0.02513 -0.045395,-0.04475 -0.010862,-0.01865 -0.015077,-0.04053 -0.012162,-0.06194 0.00292,-0.0214 0.01297,-0.04134 0.028372,-0.05643 l 1.0457203,-1.045718 z"
     id="path3"
     style="fill:#000000;fill-opacity:1;stroke:none;stroke-width:1.62127;stroke-opacity:1" />
  <path
     d="m 10.360386,13.316699 7.198427,-7.198411 c 0.09436,-0.098946 0.208009,-0.1776099 0.333656,-0.2311765 0.125811,-0.053568 0.261349,-0.080901 0.398023,-0.08035 0.136671,5.675e-4 0.271886,0.029004 0.397209,0.083609 0.125324,0.054589 0.238327,0.1341761 0.331873,0.2339003 0.09339,0.099725 0.165693,0.2174767 0.212063,0.3460595 0.04652,0.1285826 0.06631,0.2653041 0.05804,0.4017824 -0.0081,0.1364784 -0.0441,0.2698438 -0.105547,0.3919577 -0.06145,0.1221141 -0.147212,0.2303987 -0.252107,0.3182225 l -7.618336,6.6877121 z"
     id="path2"
     style="fill:#000000;fill-opacity:1;stroke:none;stroke-width:1.62127;stroke-opacity:1" />
  <path
     d="m 18.244608,5.4357345 c -0.361056,0.00475 -0.705898,0.1501618 -0.96141,0.4053168 L 10.063693,13.060538 9.5659646,12.56281 8.5234896,11.520335 C 15.639232,4.4256848 16.921655,4.3575916 18.244608,5.4357345 Z"
     id="path1"
     style="fill:#000000;fill-opacity:1;stroke:none;stroke-width:1.62127;stroke-opacity:1" />
</svg>
