<svg width="24" height="24" viewBox="0 0 24 24" fill="none" xmlns="http://www.w3.org/2000/svg">
<path d="M13.5268 0.0988126C6.95483 -0.744187 0.94183 3.89981 0.0988302 10.4728C-0.74417 17.0448 3.89883 23.0568 10.4718 23.9008C17.0448 24.7438 23.0588 20.0998 23.8998 13.5268C24.7438 6.95481 20.1008 0.942813 13.5268 0.0988126ZM15.9978 7.58381C15.7751 7.58674 15.5624 7.67643 15.4048 7.83381L10.9518 12.2868L10.6448 11.9798L10.0018 11.3368C14.3908 6.96081 15.1818 6.91881 15.9978 7.58381ZM11.1348 12.4448L15.5748 8.00481C15.633 7.94378 15.7031 7.89526 15.7806 7.86222C15.8582 7.82918 15.9418 7.81232 16.0261 7.81266C16.1104 7.81301 16.1938 7.83055 16.2711 7.86423C16.3484 7.8979 16.4181 7.94699 16.4758 8.0085C16.5334 8.07001 16.578 8.14264 16.6066 8.22195C16.6353 8.30126 16.6475 8.38559 16.6424 8.46977C16.6374 8.55395 16.6152 8.63621 16.5773 8.71153C16.5394 8.78685 16.4865 8.85364 16.4218 8.90781L11.7228 13.0328L11.1348 12.4448ZM11.4648 13.1388L10.3648 13.3768C10.3517 13.3798 10.3379 13.3782 10.3258 13.3724C10.3136 13.3666 10.3038 13.3569 10.2978 13.3448C10.2911 13.3333 10.2885 13.3198 10.2903 13.3066C10.2921 13.2934 10.2983 13.2811 10.3078 13.2718L10.9528 12.6268L11.4648 13.1388ZM8.66183 12.6798L9.83383 11.5078L10.7128 12.3858L8.73383 12.8118C8.71734 12.8161 8.69987 12.8145 8.68439 12.8074C8.6689 12.8003 8.65634 12.7881 8.64883 12.7728C8.63951 12.7583 8.6357 12.741 8.63808 12.7239C8.64047 12.7068 8.64889 12.6912 8.66183 12.6798ZM5.01583 18.7378C5.00583 18.7369 4.99611 18.7341 4.98722 18.7294C4.97833 18.7248 4.97045 18.7184 4.96404 18.7107C4.95762 18.703 4.9528 18.6941 4.94985 18.6845C4.94689 18.6749 4.94587 18.6648 4.94683 18.6548C4.94873 18.6374 4.95649 18.6212 4.96883 18.6088H4.97083L5.91683 17.6628L7.13883 18.8848L5.01583 18.7378ZM7.44083 17.4818C7.39549 17.5052 7.35932 17.5432 7.33811 17.5896C7.3169 17.636 7.31187 17.6882 7.32383 17.7378L7.52683 18.6028C7.53339 18.6295 7.53099 18.6575 7.52001 18.6827C7.50902 18.7078 7.49007 18.7287 7.46607 18.742C7.44206 18.7553 7.41435 18.7603 7.38719 18.7563C7.36004 18.7523 7.33496 18.7395 7.31583 18.7198H7.31283L6.37883 17.7858L6.08483 17.4908L9.84683 13.7328L11.6668 13.3398L12.5408 14.2138C11.2858 15.3158 9.56983 16.4148 7.44083 17.4818ZM12.7198 14.0538H12.7178L11.8788 13.2148L16.5778 9.08981C16.6213 9.0512 16.6611 9.00869 16.6968 8.96281C16.5488 10.3078 14.6678 12.2078 12.7198 14.0538ZM16.3768 7.59381L16.3738 7.59181C16.0432 7.25961 15.8533 6.81278 15.8436 6.34419C15.8339 5.8756 16.0052 5.42131 16.3218 5.07572C16.6384 4.73014 17.076 4.51986 17.5437 4.48859C18.0113 4.45732 18.473 4.60746 18.8328 4.90781L17.2228 6.52081C17.2117 6.53188 17.2028 6.54504 17.1968 6.55954C17.1907 6.57404 17.1876 6.5896 17.1876 6.60531C17.1876 6.62102 17.1907 6.63658 17.1968 6.65108C17.2028 6.66559 17.2117 6.67875 17.2228 6.68981L18.4698 7.93681C18.129 8.10601 17.7436 8.16392 17.3681 8.10238C16.9926 8.04084 16.6458 7.86295 16.3768 7.59381ZM18.9548 7.59381C18.8721 7.67548 18.7813 7.74852 18.6838 7.81181L17.4758 6.60481L19.0088 5.07181C19.6698 5.79181 19.6458 6.90381 18.9548 7.59381ZM18.8548 6.04981C18.8308 6.06724 18.8128 6.09172 18.8033 6.11985C18.7938 6.14799 18.7933 6.17838 18.8018 6.20681C18.8374 6.27892 18.8514 6.3598 18.842 6.43966C18.8326 6.51953 18.8002 6.59495 18.7488 6.65681C18.7374 6.67125 18.7289 6.6878 18.7238 6.70552C18.7188 6.72324 18.7173 6.74179 18.7194 6.76009C18.7216 6.77839 18.7273 6.79609 18.7363 6.81217C18.7453 6.82826 18.7574 6.84241 18.7718 6.85381C18.7958 6.87264 18.8253 6.88317 18.8558 6.88381C18.8761 6.88363 18.896 6.87907 18.9143 6.87044C18.9326 6.86181 18.9488 6.84931 18.9618 6.83381C19.0477 6.73062 19.1017 6.60464 19.1171 6.47127C19.1326 6.33789 19.1089 6.20291 19.0488 6.08281C19.0384 6.06778 19.025 6.05499 19.0095 6.04518C18.9941 6.03537 18.9768 6.02873 18.9587 6.02566C18.9407 6.02259 18.9222 6.02314 18.9044 6.02729C18.8865 6.03143 18.8697 6.03909 18.8548 6.04981Z" fill="black"/>
</svg>
