<?xml version="1.0" encoding="utf-8"?>
<!-- Uploaded to: SVG Repo, www.svgrepo.com, Generator: SVG Repo Mixer Tools -->
<svg fill="#000000" width="800px" height="800px" viewBox="0 0 32 32" version="1.1" xmlns="http://www.w3.org/2000/svg">
<title>adobepremierepro</title>
<path d="M25.347 12.001v2.437c0 0.1-0.062 0.137-0.2 0.137-0.059-0.002-0.128-0.004-0.197-0.004-0.797 0-1.554 0.172-2.236 0.48l0.034-0.014c-0.25 0.114-0.462 0.27-0.636 0.461l-0.001 0.002v6.373c0 0.125-0.050 0.175-0.162 0.175h-2.462c-0.008 0.001-0.017 0.002-0.026 0.002-0.089 0-0.162-0.066-0.173-0.151l-0-0.001v-6.973l-0.012-0.937-0.025-0.975c0-0.287-0.025-0.562-0.050-0.85-0.001-0.005-0.001-0.012-0.001-0.018 0-0.056 0.037-0.104 0.088-0.119l0.001-0h2.224c0 0 0 0 0.001 0 0.121 0 0.223 0.085 0.249 0.198l0 0.002c0.103 0.329 0.163 0.707 0.163 1.098 0 0.018-0 0.036-0 0.054l0-0.003c0.376-0.432 0.823-0.792 1.325-1.062l0.025-0.012c0.542-0.307 1.191-0.487 1.881-0.487 0.006 0 0.013 0 0.019 0h-0.001c0.006-0.001 0.013-0.001 0.020-0.001 0.080 0 0.146 0.060 0.155 0.138l0 0.001zM16.825 15.938c-0.5 0.69-1.185 1.218-1.982 1.515l-0.030 0.010c-0.775 0.271-1.668 0.428-2.597 0.428-0.075 0-0.151-0.001-0.226-0.003l0.011 0-0.625-0.012-0.537-0.012v4.011c0.001 0.008 0.002 0.016 0.002 0.025 0 0.079-0.061 0.144-0.139 0.15l-0 0h-2.424c-0.1 0-0.15-0.050-0.15-0.162v-12.859c0-0.087 0.037-0.137 0.125-0.137l0.7-0.012 0.95-0.025 1.087-0.025 1.137-0.012c0.063-0.002 0.137-0.003 0.211-0.003 0.846 0 1.658 0.143 2.415 0.406l-0.052-0.016c0.654 0.226 1.213 0.576 1.676 1.026l-0.001-0.001c0.392 0.393 0.702 0.868 0.903 1.397l0.009 0.027c0.181 0.483 0.286 1.041 0.287 1.624v0c0.002 0.053 0.004 0.116 0.004 0.179 0 0.926-0.281 1.785-0.763 2.499l0.010-0.016zM25.685 1.379h-19.369c-2.933 0-5.311 2.378-5.311 5.311v0 18.62c0 0.001 0 0.003 0 0.004 0 2.931 2.376 5.307 5.307 5.307 0.002 0 0.003 0 0.005 0h19.369c0.001 0 0.003 0 0.004 0 2.931 0 5.307-2.376 5.307-5.307 0-0.002 0-0.003 0-0.005v0-18.62c0-0.001 0-0.003 0-0.004 0-2.931-2.376-5.307-5.307-5.307-0.002 0-0.003 0-0.005 0h0zM13.688 11.526c-0.396-0.16-0.855-0.253-1.336-0.253-0.049 0-0.097 0.001-0.145 0.003l0.007-0q-0.681-0.014-1.362 0.025v4.199l0.487 0.025h0.662c0.002 0 0.004 0 0.005 0 0.512 0 1.004-0.082 1.465-0.234l-0.033 0.009c0.411-0.123 0.759-0.354 1.022-0.66l0.002-0.003c0.244-0.32 0.391-0.725 0.391-1.165 0-0.043-0.001-0.085-0.004-0.128l0 0.006c0.003-0.039 0.005-0.085 0.005-0.131 0-0.769-0.479-1.426-1.155-1.689l-0.012-0.004z"></path>
</svg>