<svg version="1.1" xmlns="http://www.w3.org/2000/svg" xmlns:xlink="http://www.w3.org/1999/xlink" viewBox="0 0 27.9019 28.207">
 <g>
  <path d="M0.374802 19.1484C-1.48848 24.5273 3.69121 28.207 13.7811 28.207C23.8592 28.207 29.0389 24.5273 27.1756 19.1484L23.824 9.41016L23.824 4.17188C23.824 1.93359 19.8279 0.164062 13.7811 0.164062C7.7459 0.164062 3.7498 1.93359 3.7498 4.17188L3.7498 9.35156ZM2.34355 19.8047L5.03886 12.0352C6.53886 13.4414 9.64433 14.3203 13.7811 14.3203C17.7889 14.3203 20.9764 13.4414 22.5232 12.0352L25.2068 19.8047C26.4959 23.5547 22.1248 26.1211 13.7811 26.1211C5.4373 26.1211 1.05449 23.5547 2.34355 19.8047ZM5.82402 4.17188C5.82402 3.15234 9.01152 2.12109 13.7811 2.12109C18.5623 2.12109 21.7498 3.15234 21.7498 4.17188C21.7498 5.20312 18.5623 6.22266 13.7811 6.22266C9.01152 6.22266 5.82402 5.20312 5.82402 4.17188Z" fill="black" fill-opacity="0.85"/>
 </g>
</svg>
