<svg width="24" height="24" fill="none" xmlns="http://www.w3.org/2000/svg">
  <path d="M19.4788 8.7184v2.0001c0 .082-.0496.1123-.16.1123-.0473-.0015-.1025-.0032-.1577-.0032-.6378 0-1.2435.1411-1.7893.394l.0272-.0116c-.2.0936-.3697.2217-.5089.3784l-.0008.0017v5.2303c0 .1026-.04.1436-.1296.1436h-1.9702c-.0063.0009-.0135.0017-.0207.0017-.0713 0-.1296-.0542-.1385-.1239v-5.7237l-.0096-.7689-.0201-.80025c0-.23555-.0199-.46124-.0399-.69761-.0009-.0041-.0009-.00984-.0009-.01477 0-.04596.0297-.08534.0705-.09765h1.7804c.0969 0 .1793.06975.2002.16249v.00164c.0823.27001.1304.58025.1304.90119v.04428V9.846c.3009-.35449.6586-.64996 1.0602-.87155l.0201-.00984c.4336-.25196.953-.39969 1.5051-.39969h.0153c.0048-.00082.0096-.00082.0152-.00082.064 0 .1168.04925.124.11326l-.0024.04104Zm-6.8194 3.2311c-.4001.5663-.9482.9997-1.586 1.2434l-.024.0082c-.6202.2225-1.3348.3512-2.07821.3512-.06001 0-.12083-.0007-.18084-.0024h.00879l-.50013-.0098-.42971-.0099v3.2919c.0008.0066.0016.0131.0016.0205 0 .0648-.04882.1182-.11123.1231H5.81995c-.08001 0-.12003-.041-.12003-.1329V6.27925c0-.07141.02961-.11244.10003-.11244l.56015-.00985.7602-.02052.86983-.02052.90984-.00984c.05042-.00164.10963-.00246.16885-.00246.67698 0 1.32678.11736 1.93258.3332l-.0417-.01312c.5233.18547.9707.47272 1.3411.84204.3137.32253.561.71155.7218 1.14571l.0072.02216c.1449.3964.2289.85435.2297 1.33283.0016.04344.0033.09516.0033.14688 0 .75998-.2249 1.46498-.6106 2.05088l.0079-.013-.0007-.0017ZM19.7492.00081596H4.24993C1.90291.00081596 0 1.95247 0 4.35961V19.6445C0 22.05 1.9013 24 4.24673 24H19.7533C22.0987 24 24 22.05 24 19.6445V4.35551C24 1.95 22.0987 0 19.7533 0l-.0041.00081596ZM10.1491 8.32855c-.3169-.1313-.68417-.20763-1.06908-.20763-.03921 0-.07762.00082-.11603.00246h.0056c-.3633-.00766-.72659-.00082-1.08989.02052v3.4462l.3897.0205h.53375c.40971 0 .80345-.0673 1.17233-.1921l-.0264.0074c.32892-.1009.60732-.2905.81782-.5417l.0015-.0024c.1953-.2626.313-.595.313-.95612 0-.03528-.0008-.06984-.0032-.10512v.00492c.0024-.03192.0039-.06972.0039-.10752 0-.63107-.3833-1.17028-.9242-1.38612l-.0088-.00329Z" fill="#000"/>
</svg>



