<?xml version="1.0" encoding="UTF-8"?>
<svg version="1.1" xmlns="http://www.w3.org/2000/svg" width="96" height="96">
<path d="M0 0 C1.30185242 -0.01606293 2.60370483 -0.03212585 3.94500732 -0.04867554 C5.37381335 -0.06016355 6.80262668 -0.070772 8.23144531 -0.08056641 C8.95027138 -0.08589008 9.66909744 -0.09121376 10.40970612 -0.09669876 C14.21616042 -0.12342942 18.02258197 -0.14280252 21.82910156 -0.15722656 C24.97588234 -0.17055556 28.12201304 -0.19838727 31.26855469 -0.23925781 C35.07052087 -0.28864113 38.87189825 -0.3133546 42.67417145 -0.32045364 C44.12064285 -0.32715666 45.56710161 -0.34235433 47.01338959 -0.36634445 C59.75248978 -0.56555666 59.75248978 -0.56555666 63.68164062 2.60058594 C67.96264935 7.81579367 67.06754233 13.03905449 67.12207031 19.56787109 C67.16557617 21.29263672 67.16557617 21.29263672 67.20996094 23.05224609 C67.21833984 24.15826172 67.22671875 25.26427734 67.23535156 26.40380859 C67.24993408 27.41749512 67.2645166 28.43118164 67.27954102 29.47558594 C66.68382138 32.91992856 65.54903392 34.08606735 62.80957031 36.19287109 C59.79394531 36.58349609 59.79394531 36.58349609 56.55957031 36.44287109 C55.48191406 36.40677734 54.40425781 36.37068359 53.29394531 36.33349609 C52.47410156 36.28708984 51.65425781 36.24068359 50.80957031 36.19287109 C50.85597656 37.01271484 50.90238281 37.83255859 50.95019531 38.67724609 C50.98628906 39.75490234 51.02238281 40.83255859 51.05957031 41.94287109 C51.10597656 43.01021484 51.15238281 44.07755859 51.20019531 45.17724609 C50.80957031 48.19287109 50.80957031 48.19287109 49.34765625 50.34814453 C45.60774373 53.0663803 42.32609426 52.76756583 37.80957031 52.72412109 C36.936875 52.727948 36.06417969 52.7317749 35.16503906 52.73571777 C33.32257939 52.73843599 31.48008107 52.73108104 29.63769531 52.71435547 C26.81911097 52.69294357 24.00307547 52.71415911 21.18457031 52.73974609 C19.39289803 52.7371028 17.60122732 52.73197779 15.80957031 52.72412109 C14.9678125 52.73221802 14.12605469 52.74031494 13.25878906 52.74865723 C9.4235727 52.68726081 7.43915998 52.6504682 4.27148438 50.34814453 C2.28898076 47.42537534 2.40758757 45.43847423 2.55957031 41.94287109 C2.59566406 40.86521484 2.63175781 39.78755859 2.66894531 38.67724609 C2.71535156 37.85740234 2.76175781 37.03755859 2.80957031 36.19287109 C1.98972656 36.23927734 1.16988281 36.28568359 0.32519531 36.33349609 C-1.29128906 36.38763672 -1.29128906 36.38763672 -2.94042969 36.44287109 C-4.00777344 36.48927734 -5.07511719 36.53568359 -6.17480469 36.58349609 C-9.95790133 36.09345767 -10.84850443 35.14558531 -13.19042969 32.19287109 C-14.01159159 28.10773155 -13.7931883 23.97634862 -13.75292969 19.81787109 C-13.77677734 18.69380859 -13.800625 17.56974609 -13.82519531 16.41162109 C-13.80885864 7.19773943 -13.80885864 7.19773943 -10.78027344 3.46630859 C-6.94417467 0.09887348 -5.04012508 0.05636628 0 0 Z M52.80957031 9.19287109 C52.47957031 10.84287109 52.14957031 12.49287109 51.80957031 14.19287109 C54.28457031 14.68787109 54.28457031 14.68787109 56.80957031 15.19287109 C57.13957031 13.54287109 57.46957031 11.89287109 57.80957031 10.19287109 C56.15957031 9.86287109 54.50957031 9.53287109 52.80957031 9.19287109 Z M10.80957031 26.19287109 C10.61104929 28.9020991 10.53117554 31.48590289 10.55957031 34.19287109 C10.55183594 34.93021484 10.54410156 35.66755859 10.53613281 36.42724609 C10.39948166 40.77709012 10.39948166 40.77709012 12.80957031 44.19287109 C15.69044954 44.50485648 15.69044954 44.50485648 19.05957031 44.45849609 C20.30738281 44.46107422 21.55519531 44.46365234 22.84082031 44.46630859 C24.15050781 44.45857422 25.46019531 44.45083984 26.80957031 44.44287109 C28.77410156 44.45447266 28.77410156 44.45447266 30.77832031 44.46630859 C32.65003906 44.46244141 32.65003906 44.46244141 34.55957031 44.45849609 C36.28433594 44.4551123 36.28433594 44.4551123 38.04394531 44.45166016 C40.95156863 44.47630786 40.95156863 44.47630786 42.80957031 42.19287109 C43.00809133 39.48364309 43.08796508 36.8998393 43.05957031 34.19287109 C43.06730469 33.45552734 43.07503906 32.71818359 43.08300781 31.95849609 C43.21965896 27.60865206 43.21965896 27.60865206 40.80957031 24.19287109 C37.92869108 23.8808857 37.92869108 23.8808857 34.55957031 23.92724609 C33.31175781 23.92466797 32.06394531 23.92208984 30.77832031 23.91943359 C29.46863281 23.92716797 28.15894531 23.93490234 26.80957031 23.94287109 C24.84503906 23.93126953 24.84503906 23.93126953 22.84082031 23.91943359 C20.96910156 23.92330078 20.96910156 23.92330078 19.05957031 23.92724609 C17.90972656 23.92950195 16.75988281 23.93175781 15.57519531 23.93408203 C12.66757199 23.90943433 12.66757199 23.90943433 10.80957031 26.19287109 Z " fill="#000000" transform="translate(21.1904296875,31.80712890625)"/>
<path d="M0 0 C0.91765137 -0.00315216 1.83530273 -0.00630432 2.78076172 -0.009552 C4.27760498 -0.00651566 4.27760498 -0.00651566 5.8046875 -0.00341797 C6.82191895 -0.00437469 7.83915039 -0.00533142 8.88720703 -0.00631714 C11.04264386 -0.00699908 13.19808272 -0.00514382 15.35351562 -0.00097656 C18.66541121 0.00437148 21.97717117 -0.0009211 25.2890625 -0.00732422 C27.37760447 -0.00666344 29.46614635 -0.00538228 31.5546875 -0.00341797 C32.55258301 -0.0054422 33.55047852 -0.00746643 34.57861328 -0.009552 C35.49626465 -0.00639984 36.41391602 -0.00324768 37.359375 0 C38.17132324 0.00079559 38.98327148 0.00159119 39.81982422 0.00241089 C41.6796875 0.12939453 41.6796875 0.12939453 42.6796875 1.12939453 C42.77878052 3.46099508 42.80939254 5.79569395 42.8046875 8.12939453 C42.80855469 10.04751953 42.80855469 10.04751953 42.8125 12.00439453 C42.6796875 15.12939453 42.6796875 15.12939453 41.6796875 16.12939453 C40.24228397 16.2275344 38.80012423 16.25737733 37.359375 16.25878906 C36.44172363 16.26194122 35.52407227 16.26509338 34.57861328 16.26834106 C33.58071777 16.26631683 32.58282227 16.2642926 31.5546875 16.26220703 C30.53745605 16.26316376 29.52022461 16.26412048 28.47216797 16.2651062 C26.31673114 16.26578814 24.16129228 16.26393288 22.00585938 16.25976562 C18.69396379 16.25441758 15.38220383 16.25971016 12.0703125 16.26611328 C9.98177053 16.2654525 7.89322865 16.26417135 5.8046875 16.26220703 C4.30784424 16.26524338 4.30784424 16.26524338 2.78076172 16.26834106 C1.86311035 16.2651889 0.94545898 16.26203674 0 16.25878906 C-0.81194824 16.25799347 -1.62389648 16.25719788 -2.46044922 16.25637817 C-4.3203125 16.12939453 -4.3203125 16.12939453 -5.3203125 15.12939453 C-5.41940552 12.79779398 -5.45001754 10.46309512 -5.4453125 8.12939453 C-5.44789062 6.85064453 -5.45046875 5.57189453 -5.453125 4.25439453 C-5.25432372 -0.42328254 -4.25986742 0.00417406 0 0 Z " fill="#000000" transform="translate(29.3203125,7.87060546875)"/>
</svg>
