<svg xmlns="http://www.w3.org/2000/svg" width="24" height="24"><path d="m5.297 7.953.988-.012a97.77 97.77 0 0 1 1.07-.007l.543-.008c.954-.004 1.907-.012 2.856-.012.789-.004 1.574-.012 2.36-.023.952-.012 1.902-.016 2.85-.02.364 0 .727-.004 1.087-.012 3.183-.05 3.183-.05 4.168.743 1.07 1.304.847 2.609.86 4.242l.023.87.003.84.012.766c-.148.864-.433 1.153-1.117 1.68-.754.098-.754.098-1.563.063l-.816-.028L18 17l.035.621.027.817.036.808C18 20 18 20 17.633 20.54c-.934.68-1.754.606-2.883.594l-.66.004c-.461 0-.922-.004-1.383-.008-.703-.004-1.41 0-2.113.008-.45 0-.895-.004-1.344-.004l-.637.008c-.96-.016-1.457-.028-2.246-.602-.496-.73-.469-1.227-.43-2.102l.028-.816L6 17l-.621.035-.816.027-.81.036C2.81 16.977 2.587 16.738 2 16c-.207-1.02-.152-2.055-.14-3.094l-.02-.851c.004-2.305.004-2.305.762-3.239.96-.84 1.437-.851 2.695-.863ZM18.5 10.25l-.25 1.25 1.25.25.25-1.25ZM8 14.5c-.05.664-.07 1.332-.063 2l-.003.559c-.036 1.086-.036 1.086.566 1.941.719.078.719.078 1.563.066h.945l.992-.003.992.003h1.817c.726.004.726.004 1.191-.566a22.8 22.8 0 0 0 .063-2l.003-.559c.036-1.086.036-1.086-.566-1.941-.719-.078-.719-.078-1.563-.066h-.945l-.992.004-.992-.004H9.19c-.726-.004-.726-.004-1.191.566ZM7.328 1.969l.695-.004h1.528c.539 0 1.078 0 1.617.004.828 0 1.656 0 2.484-.004h2.325l.691.004h.617C17.75 2 17.75 2 18 2.25c.023.582.031 1.168.031 1.75l.004.969C18 5.75 18 5.75 17.75 6c-.36.023-.719.035-1.078.031l-.695.004h-1.528c-.539 0-1.078 0-1.617-.004-.828 0-1.656 0-2.484.004H8.023l-.691-.004h-.617C6.25 6 6.25 6 6 5.75A43.58 43.58 0 0 1 5.969 4l-.004-.969c.05-1.168.3-1.062 1.363-1.062Zm0 0" style="stroke:none;fill-rule:nonzero;fill:#000;fill-opacity:1"/></svg>