<svg width="893.68" height="893.57" xmlns="http://www.w3.org/2000/svg">
   <path
      d="m430.66.05 3.73-.02C438.35 0 442.3 0 446.25 0h2.04c19.85 0 39.37.27 59.03 3.25l3.52.49c42.01 5.85 82.84 18.09 121.48 35.51l2.58 1.15c13.62 6.08 26.55 13.31 39.42 20.85.82.48 1.64.97 2.5 1.46a393.85 393.85 0 0 1 32.5 21.54l2.07 1.5c12.49 9.1 24.16 18.99 35.59 29.38 1.53 1.4 3.08 2.78 4.64 4.15a287.24 287.24 0 0 1 29.7 29.97l2.95 3.36a376.72 376.72 0 0 1 20.05 24.64l1.5 2.01c13.25 17.83 24.7 36.58 35.5 56l1.22 2.17c24.24 43.38 38.75 92.26 46.53 141.13l.6 3.75c3.04 20 4 39.8 3.96 60.02 0 3.89.02 7.78.05 11.68.1 38.25-5.9 75.27-15.47 112.23l-.54 2.06c-1.23 4.7-1.23 4.7-2.35 6.95l18 1c-1.13 6.75-1.13 6.75-2.65 10.13l-1.03 2.31-1.13 2.48-1.18 2.65-3.89 8.62a8391.19 8391.19 0 0 0-8.34 18.6 4643.13 4643.13 0 0 0-15.02 33.86c-3.7 8.37-7.38 16.74-11.03 25.12l-1 2.3a5291.45 5291.45 0 0 0-6.24 14.35l-1.4 3.21c-1.1 2.37-1.1 2.37-2.1 3.37-7.53-.06-14.78-2.03-22-4l-2.16 3.16a405.11 405.11 0 0 1-22.83 29.84l-1.52 1.82c-13.29 15.88-27.4 31.83-43.21 45.26a322.8 322.8 0 0 0-5.64 4.88 377.14 377.14 0 0 1-24.63 20.04l-2.01 1.5c-17.84 13.26-36.59 24.71-56 35.5l-2.17 1.22C612.76 866.72 563.88 881.22 515 889l-3.75.6c-21.11 3.22-42.03 4.02-63.37 3.96h-4.02c-19.35-.04-38.38-.42-57.54-3.3l-3.57-.53c-44.27-6.6-87.03-19.2-127.43-38.48l-2.84-1.35a417.76 417.76 0 0 1-59.93-34.87c-17.37-12.08-33.62-25.51-49.23-39.78l-2.97-2.69c-8.12-7.36-16.04-14.84-23.17-23.17-2.15-2.47-4.38-4.86-6.61-7.26a278.94 278.94 0 0 1-14.9-18.11 657.75 657.75 0 0 0-4.03-5.2 386.34 386.34 0 0 1-14.32-19.57l-3.55.88-4.64 1.12-2.33.58-2.28.55-2.08.5c-2.4.42-4.69.43-7.12.37a448.22 448.22 0 0 1-13.06-27.97l-4.7-10.76-2.47-5.66a7255.93 7255.93 0 0 0-16.05-36.41A2914.45 2914.45 0 0 0 3.62 588l-1.35-2.97-1.15-2.54c-.8-2.25-.8-2.25-.8-6.25l18-1-1.1-3.83A471.33 471.33 0 0 1 3.6 507.9C.8 487.54-.06 467.21 0 446.7v-3.57c.05-18.48.7-36.56 3.3-54.87l.51-3.74c11.28-82.31 45.95-160.69 99.5-224.26l1.29-1.55c12.51-14.98 25.77-29.88 40.6-42.62 2.28-1.98 4.5-4.03 6.73-6.08 5.6-5.04 11.47-9.66 17.44-14.25 2-1.55 3.99-3.1 5.98-4.67 24.26-18.92 50.5-34.04 77.96-47.83l2.44-1.23C308.54 15.49 371.6.27 430.66.05Zm-39.34 51.2-5.87.81c-37.26 5.38-74.2 17-108.13 33.2l-3.08 1.45a390.62 390.62 0 0 0-90.92 60.54l-2.8 2.46a550.33 550.33 0 0 0-19.9 19.04l-2.66 2.63a197.47 197.47 0 0 0-14.68 16.42 171.6 171.6 0 0 1-4.8 5.74c-55.6 63.76-89.98 154.3-90.37 239.02l-.02 3.14c-.02 3.33-.02 6.66-.02 9.99v3.45c.01 17.58.58 34.71 3.25 52.11l.53 3.61a442.43 442.43 0 0 0 10.47 49.4c17.7-6.52 36.34-25.61 48.27-39.97 1.83-2.16 3.74-4.23 5.66-6.3a309.9 309.9 0 0 0 16.07-18.74l1.55-1.96a582.83 582.83 0 0 0 24.45-33.04l1.47-2.15a624.54 624.54 0 0 0 48.15-83.7c14.7-30.85 32.85-60.04 54.8-86.26l4.5-5.44c10.84-13.03 22.72-25 36.08-35.45l5.25-4.44c18.06-14.7 38.98-26.4 60.75-34.56l2.2-.83c24.07-8.97 49.03-12.6 74.6-12.54H449c31.28.1 60.88 6.05 89.32 19.37l2.07.96c21.81 10.16 41.32 23.67 58.93 40.04l3.8 3.25a188.88 188.88 0 0 1 23.97 24.97c1.96 2.45 3.99 4.8 6.05 7.16 17.16 19.68 30.88 42.66 43.18 65.62l1.34 2.5c5.1 9.51 9.98 19.09 14.53 28.88 20.68 44.2 49.87 86.1 82.13 122.62l2.29 2.6c2.21 2.48 4.46 4.94 6.7 7.4l1.53 1.68c6.2 6.82 12.37 13.42 19.48 19.32l3.17 2.8c7.27 6.4 14.6 12.07 22.83 17.2 3.02-5.44 3.98-11.61 5.37-17.62l.47-2.02a381.82 381.82 0 0 0 5.47-27.92l.44-2.87c.47-3.18.87-6.37 1.25-9.57l.26-2.15c1.8-15.29 2.1-30.47 2.05-45.85v-3.67c-.05-17.97-.51-35.55-3.31-53.33a400.22 400.22 0 0 0-59.12-158.78 364.51 364.51 0 0 0-52.88-65.22 727.22 727.22 0 0 1-7.95-8.01c-5.77-5.9-11.6-11.5-18.07-16.63-2.22-1.75-4.4-3.53-6.56-5.34C644 91.39 576.84 62.84 507.94 52l-2.9-.46c-3.24-.47-6.48-.9-9.72-1.29l-2.17-.26c-15.3-1.81-30.5-2.1-45.9-2.05h-3.67c-17.64.04-34.82.57-52.26 3.31zm7 305-2.89 2.52c-12.38 10.96-23.23 23.25-33.11 36.48l-1.53 2.05c-21.2 28.5-39.01 59.29-55.63 90.65a517.93 517.93 0 0 1-38.84 62.3l-1.3 1.79a492.28 492.28 0 0 1-8.96 11.84c-18 23.4-38.06 47.23-61.36 65.48a115.11 115.11 0 0 0-6.57 5.7c-19.1 17.09-41.94 31.75-64.81 43.2 1.48 4.5 4 7.85 6.93 11.5.5.6.98 1.21 1.48 1.84a528.9 528.9 0 0 0 37.09 41.34l2.62 2.66a197.47 197.47 0 0 0 16.42 14.68c1.95 1.57 3.86 3.15 5.74 4.8 63.51 55.38 153.5 90.02 237.9 90.37l3.41.03 10.84.02h3.75c18.14-.01 35.86-.42 53.82-3.25l3.38-.5c82.46-12.52 162.3-51.44 220.62-111.5a727.3 727.3 0 0 1 8.01-7.94 221.43 221.43 0 0 0 18.99-21.06 1489.83 1489.83 0 0 1 5.1-6.22l3.47-4.2c5.17-5.67 5.17-5.67 7.43-12.58l-1.5-.79a355.24 355.24 0 0 1-73.92-51.87 219.33 219.33 0 0 0-4.31-3.82 287.59 287.59 0 0 1-16.34-15.46l-2.6-2.59a267 267 0 0 1-14.33-15.47l-2.96-3.39c-26.52-30.56-48.66-64.73-67.55-100.45a764.4 764.4 0 0 0-18.86-33.4l-4.65-7.92a443.65 443.65 0 0 0-32.98-48.84l-1.9-2.44c-18.44-23.4-42.75-52.77-74.1-57.56-22.06-1.6-39.88 7.53-56 22z"
      fill="#7826e7" />
</svg>