<svg xmlns="http://www.w3.org/2000/svg" width="221" height="228" fill="none" viewBox="0 0 221 228"><path fill="#000" d="M165.2 36.8 170 41l2.5 2.2c12.8 12 20 27.3 25.5 43.8l1-36-4-2c-2-2-2-2-2.4-5.8 0-3.1.6-5 2.5-7.6 3.5-3 5.3-3.7 9.9-3.6 3.6 1.6 6.3 3.4 8 7q.4 4.7-1 9l-2.5 1.6c-3.1 3-3.1 4.6-3.2 8.8v26.8a17 17 0 0 0 4.5 12.3c3 3.9 2.6 8.8 2.2 13.5a20 20 0 0 1-8.2 12.8c-1.8 1.2-1.8 1.2-5.1 2L197 127q-1 3-1.5 6.3A64 64 0 0 1 180 163v4.1c.1 16 .1 16-4.9 21.7-2.5 2.2-2.5 2.2-5.1 4.2l-2.5 2c-16.6 11.6-37 14.6-56.7 14.4h-2.4c-11.8 0-23.1-.6-34.4-4.4l-2-.6c-11-3.8-24-11-30-21.4q-.7-4.7-.3-9.6c0-9-2-14.1-7.4-21.3a52 52 0 0 1-8.7-20.2c-.7-2.7-.7-2.7-1.6-4.9-2.8-1.5-2.8-1.5-6-2a24 24 0 0 1-10-13c-1-5.7.3-11 3-16 3.5-4 7-7.3 12-9q1.6-3.6 2.8-7.3A94 94 0 0 1 45 47l2-2.4c30.3-32.4 83.7-34.5 118.2-7.8M45 65c-12.3 15.8-14.5 33.5-13 53q.8 6.2 3 12l1.3 3.7c4.5 12.3 12 26 23.5 33 9.9 4 21.2 1.3 31-1.2a79 79 0 0 1 43 .7c8.7 2.4 18.8 4 27.6.5 15-9.5 23.4-28.4 27.1-45 3.1-17.7.8-37.9-9.5-52.7a69 69 0 0 0-42-25l-2.7-.6C104.5 37.6 66.5 41.7 45 65"/><path fill="#000" d="M108.8 58.7h3.2c16.8.3 32.4 3 44.9 15.1A40 40 0 0 1 166 89l.7 2a63 63 0 0 1-5.4 44.8c-4 6.7-8.6 13.9-16.3 16.2q-9.1 1-18-1.5a80 80 0 0 0-37.6.8c-6.3 1.3-12 1.9-17.8-1-3-2.6-5.3-5-7.6-8.3.5-5 4.2-7.7 7.5-11l2-2C86 117 101 107.1 117 101a92 92 0 0 0-59.3 19.8L56 122l-3-1a58 58 0 0 1 8-44 47 47 0 0 1 28.9-16.5 72 72 0 0 1 18.8-1.8"/></svg>