<svg xmlns="http://www.w3.org/2000/svg" width="24" height="24" viewBox="0 0 24 24"><title>Prowlarr SVG Icon</title><path fill="currentColor" d="M11.998.261C5.516.261.261 5.516.261 11.998s5.255 11.737 11.737 11.737 11.737-5.254 11.737-11.737c0-6.482-5.254-11.737-11.737-11.737m0 2.347c.159.012.317.022.474.038-.01.032-.027.063-.031.097q-.012.043-.038.208l-.003.026-.016.156-.002.047a2.4 2.4 0 0 0 .02.448c.033.266.117.56.287.845q.026.049.057.093.089.13.197.247c.026.025.047.052.074.075.042.043.083.078.129.117l.026.02c.353.285.81.473 1.373.552q.343.047.662.08.204.02.38.042l.037.003.324.05c.608.109.868.285 1.023.77l.032.12.004.023a.6.6 0 0 1 .013.138 1 1 0 0 1-.014.2 5 5 0 0 0-.439-.138l-.192-.048-.047-.011a4 4 0 0 0-.25-.043q-.255-.034-.498-.055h-.02q-.23-.02-.448-.022h-.293c-2.829.053-4.226 1.698-4.226 1.698-.246.05-.496.114-.753.203-.514.176-1.001.465-1.453.816a1.236 1.236 0 1 0-1.482 1.481 15.3 15.3 0 0 0-1.666 2.55l1.07-.357c-.002.077-.01.386.09.628.114.272.206.348.206.348H4.28v3.252a9.4 9.4 0 0 1-1.664-5.312 9.39 9.39 0 0 1 9.39-9.39Zm1.777.19a9.39 9.39 0 0 1 7.613 9.18l-1.65 2.082-.003 3.228a11 11 0 0 1-.2.249v-3.48h-1.549l.16-.176 1.377-.003 1.532-1.934c-.083-.143.037.07.003-.036-.006-.023-.006-.023-.016-.048q-.025-.079-.063-.178l-2.431-3.81c-.146-.168-.027-.048-.266-.294.072-.29.126-.825.058-1.171l.004-.002-.062-.29c-.496-1.552-1.858-1.703-2.938-1.816-.2-.023-.408-.044-.612-.073-.352-.048-.61-.157-.769-.317q-.018-.015-.033-.038l-.047-.058a.6.6 0 0 1-.067-.12q-.026-.063-.042-.124-.015-.063-.021-.123a1 1 0 0 1-.006-.113 1.2 1.2 0 0 1 .021-.252q.015-.07.021-.136a.6.6 0 0 0-.01-.146zm1.315 1.61s.305.011.693.071c.347.054.76.145 1.09.3q.176.082.31.187c.622.505.87 1.25.87 1.25s-.555-.775-1.258-1.16a2 2 0 0 0-.182-.088 15 15 0 0 0-1.522-.56Zm-.579 1.164.004.001zm.771 1.417q.216 0 .44.016c.208.017.4.048.577.082q.265.115.542.268l-.08.096a5 5 0 0 0-1.13-.168q-.126-.002-.253-.002c-.342 0-.692.016-1.02.038a6 6 0 0 0-.531-.158 6.6 6.6 0 0 1 1.455-.172m.7 1.293q.123.001.249.027a1.236 1.236 0 0 1-.342 2.44l-.016-.055s-.066.71-.241 1.064c-.175.352-.778.193-.778.193s.672.342.672.559c0 .216-.456.899-.456.899s.493-.313.78-.919l.944.472a2.4 2.4 0 0 1-.19.446 2.5 2.5 0 0 1-.517.65h-2.12a1.1 1.1 0 0 0-.127-.98c-.242-.342-.688-.505-1.016-.58a.3.3 0 0 0-.118-.251.4.4 0 0 0-.163-.079c.02-.27.063-.629.152-.979-.267-.278-.88-.892-1.097-.892-.193 0-.755.452-1.09.734.085.353.118.833.132 1.178a.26.26 0 0 0-.178.125.24.24 0 0 0-.038.1c-.004.002-.711.186-.97.858-.113.295-.108.555-.02.766H7.862l-.458-.712a.41.41 0 0 1 .09-.545l.708-.565s-.956.308-1.115.08c-.105-.151-.087-.583-.06-.87.052-.177.121-.353.22-.512.079-.103.167-.215.216-.27.316-.352.586-.435.877-.567a2.1 2.1 0 0 1 .876-.17c.606-.464 1.966-1.478 2.297-1.478.367 0 1.87 1.051 2.32 1.372a1.9 1.9 0 0 1 .926-.113 1.236 1.236 0 0 1 1.224-1.426Zm2.069.337s.89.698 1.42 2.074c.533 1.376.517 1.74.517 1.74l-2.262-2.84 1.502 1.382s-.06-.807-1.177-2.356m-2.072.211a.689.689 0 1 0-.004 1.378.69.69 0 0 0 .004-1.38zm-4.467.065c-.249 0-1.198.76-1.716 1.189.23.125.396.306.51.482.398-.314 1.047-.8 1.29-.8.266 0 .983.504 1.341.767a1.3 1.3 0 0 1 .37-.439q.005-.003.012-.004c-.549-.43-1.558-1.193-1.808-1.193Zm-4.343.1a.688.688 0 0 1 .661.885 9 9 0 0 0-.457.462l-.061.015a.688.688 0 1 1-.145-1.361Zm2.283 2.102q-.1 0-.187.031a.218.218 0 0 1-.145.385.24.24 0 0 1-.165-.076.532.532 0 1 0 .5-.344zm4.228 0q-.098 0-.188.031a.22.22 0 1 1-.31.31.532.532 0 1 0 .5-.345zm-6.913 1.827c.287.634 1.094 1.133 1.094 1.133h-.825s-.296-.22-.486-.532a2.4 2.4 0 0 1-.231-.452Zm10.217.133.954.476-.477.524h-.692s.121-.144.198-.485c.027-.129.027-.323.016-.515zm-7.829 1h.277a.8.8 0 0 0 .16.242l-.015.048-.003.012c-.004.015-.005.036-.011.052v.017l-.003.058v.017l.006.047.003.016c.003.023.005.038.011.057l.003.011c.011.037.033.078.048.115.004.006.012.017.012.022.015.032.036.058.056.088l.016.02c.026.032.047.06.077.088l.02.02c.028.023.049.044.075.066q.008.004.015.01l.082.057q.005.004.012.005a1.5 1.5 0 0 1-.436-.293 1.06 1.06 0 0 1-.258-.525Zm4.811 0h.327c-.133.293-.613.645-.613.645s-.037.077-.251.243a1.3 1.3 0 0 1-.42.19l.004-.002q.04-.023.086-.055.004-.004.012-.005.044-.034.09-.076l.01-.012q.042-.038.08-.084l.016-.016a1 1 0 0 0 .067-.097l.012-.015.031-.065a1.1 1.1 0 0 0 .546-.642zm-2.382.229s.016.01.032.031q.015.017.037.032c.162.135.599.453 1.139.475l-.002.033a1 1 0 0 0-.003.141v.004a3 3 0 0 1-.628-.13c-.364-.12-.578-.394-.578-.394s-.41.251-.956.35a2.4 2.4 0 0 1-.38.044h-.003v-.006a2 2 0 0 0-.028-.235l-.002-.02c.485.07 1.098-.194 1.296-.288l.022-.01a.1.1 0 0 0 .032-.017zm6.249.332.839.954h-.4v.748h-.88v-.748h-.398zm-.84 1.93h1.679v.288h-1.678z" style="stroke-width:1.17371"/></svg>