<?xml version="1.0" encoding="UTF-8" standalone="no"?>
<svg
   version="1.1"
   width="893.67841"
   height="893.56708"
   id="svg1"
   sodipodi:docname="PT2019.svg"
   inkscape:version="1.4.2 (ebf0e940, 2025-05-08)"
   xmlns:inkscape="http://www.inkscape.org/namespaces/inkscape"
   xmlns:sodipodi="http://sodipodi.sourceforge.net/DTD/sodipodi-0.dtd"
   xmlns="http://www.w3.org/2000/svg"
   xmlns:svg="http://www.w3.org/2000/svg">
  <defs
     id="defs1" />
  <sodipodi:namedview
     id="namedview1"
     pagecolor="#ffffff"
     bordercolor="#000000"
     borderopacity="0.25"
     inkscape:showpageshadow="2"
     inkscape:pageopacity="0.0"
     inkscape:pagecheckerboard="0"
     inkscape:deskcolor="#d1d1d1"
     inkscape:zoom="0.832"
     inkscape:cx="446.51442"
     inkscape:cy="439.90385"
     inkscape:window-width="1888"
     inkscape:window-height="985"
     inkscape:window-x="2576"
     inkscape:window-y="230"
     inkscape:window-maximized="0"
     inkscape:current-layer="svg1" />
  <path
     d="m 430.65579,0.04833423 c 1.2327,-0.0070143 2.4654,-0.01402863 3.73546,-0.02125549 3.95408,-0.0174038 7.90808,-0.02443355 11.86219,-0.02561951 0.67331,-4.4186e-4 1.34662,-8.8371047e-4 2.04033,-0.001339 19.84368,-0.0068318 39.36219,0.26797438047 59.02217,3.25133897047 1.16209,0.1609717 2.32418,0.3219434 3.52149,0.487793 42.01469,5.8503603 82.84581,18.0863338 121.47852,35.5122068 0.85158,0.37834 1.70317,0.75668 2.58056,1.146484 13.6261,6.077868 26.55408,13.314772 39.41944,20.853516 0.82451,0.482593 1.64903,0.965186 2.49853,1.462402 11.24357,6.623559 21.96788,13.840074 32.50147,21.537598 1.02504,0.744675 1.02504,0.744675 2.0708,1.504395 12.48978,9.099911 24.1594,18.981966 35.58935,29.374506 1.53868,1.39483 3.08795,2.77806 4.64844,4.14844 10.53842,9.2925 20.62819,19.23036 29.69141,29.97265 0.98125,1.12009 1.96453,2.2384 2.94921,3.35547 7.01847,7.98006 13.72641,16.10177 20.05079,24.64453 0.49467,0.66339 0.98935,1.32677 1.49902,2.01026 13.25827,17.83135 24.70972,36.58095 35.50098,55.98974 0.40315,0.71834 0.8063,1.43667 1.22168,2.17676 24.24197,43.37929 38.75123,92.26298 46.52832,141.13574 0.19875,1.23718 0.39751,2.47436 0.60229,3.74903 3.04497,19.99005 3.99736,39.80056 3.96338,60.01221 -0.003,3.89368 0.0204,7.78658 0.0457,11.68017 0.0964,38.25956 -5.9051,75.27802 -15.4707,112.23047 -0.17585,0.68184 -0.35169,1.36369 -0.53287,2.06619 -1.23606,4.70604 -1.23606,4.70604 -2.35775,6.94943 5.94,0.33001 11.88,0.66 18,1 -1.12494,6.74963 -1.12494,6.74963 -2.64795,10.12964 -0.33975,0.76336 -0.6795,1.52672 -1.02954,2.31321 -0.37198,0.81679 -0.74395,1.63358 -1.1272,2.47512 -0.58624,1.31003 -0.58624,1.31003 -1.18433,2.64652 -1.28907,2.87719 -2.58765,5.74999 -3.88598,8.62301 -0.90592,2.01877 -1.81102,4.0379 -2.71534,6.05738 -1.87247,4.18083 -3.74767,8.36043 -5.62451,12.5393 -3.85764,8.59881 -7.66855,17.21819 -11.47375,25.84031 -1.18071,2.67512 -2.36266,5.3497 -3.5448,8.0242 -3.69586,8.36561 -7.37773,16.73708 -11.03223,25.12085 -0.4981,1.14203 -0.4981,1.14203 -1.00625,2.30714 -1.54684,3.54756 -3.09093,7.09626 -4.62998,10.6472 -0.53526,1.23009 -1.07057,2.46015 -1.60596,3.69019 -0.69053,1.59255 -0.69053,1.59255 -1.39502,3.21728 -1.09716,2.36865 -1.09716,2.36865 -2.09716,3.36865 -7.5341,-0.0632 -14.78128,-2.02787 -22,-4 -0.71543,1.04157 -1.43086,2.08313 -2.16797,3.15625 -7.16659,10.34457 -14.74307,20.20658 -22.83203,29.84375 -0.75,0.89864 -0.75,0.89864 -1.51514,1.81543 -13.28915,15.8874 -27.39235,31.83424 -43.21533,45.25879 -1.89607,1.60888 -3.76748,3.23868 -5.63282,4.88282 -7.97812,7.01501 -16.09693,13.7208 -24.63671,20.04296 -0.66339,0.49468 -1.32677,0.98936 -2.01026,1.49903 -17.83135,13.25827 -36.58095,24.70971 -55.98974,35.50097 -0.71833,0.40316 -1.43666,0.80631 -2.17676,1.22168 -43.37929,24.24198 -92.26298,38.75124 -141.13575,46.52832 -1.23717,0.19876 -2.47435,0.39752 -3.74902,0.6023 -21.11434,3.21623 -42.03448,4.02107 -63.37598,3.9602 -1.33871,-0.002 -2.67743,-0.004 -4.01614,-0.006 -19.34819,-0.037 -38.38703,-0.41644 -57.54636,-3.30698 -1.17723,-0.1716 -2.35447,-0.34321 -3.56738,-0.52001 -44.26686,-6.60991 -87.02622,-19.19303 -127.43261,-38.47999 -1.40283,-0.66854 -1.40283,-0.66854 -2.83399,-1.35058 -20.27547,-9.73677 -39.70337,-20.79216 -58.16601,-33.64942 -0.58153,-0.40283 -1.16306,-0.80566 -1.76221,-1.2207 -17.37197,-12.0757 -33.62397,-25.51481 -49.23779,-39.7793 -0.98939,-0.89604 -1.97898,-1.79187 -2.96875,-2.6875 -8.11548,-7.3638 -16.03288,-14.83939 -23.16797,-23.17187 -2.15215,-2.47249 -4.38309,-4.86334 -6.61328,-7.26563 -5.2834,-5.79572 -10.11087,-11.89121 -14.888683,-18.10644 -1.33779,-1.73799 -2.68428,-3.46888 -4.0332,-5.19824 -4.971,-6.39116 -9.76611,-12.87835 -14.32812,-19.57032 -1.16918,0.28876 -2.33836,0.5775 -3.54297,0.875 -1.54811,0.3753 -3.09629,0.75029 -4.64453,1.125 -0.76893,0.19079 -1.53786,0.38157 -2.33008,0.57813 -0.75088,0.18047 -1.50176,0.36094 -2.27539,0.54687 -0.68603,0.16758 -1.37205,0.33516 -2.07886,0.50782 -2.40803,0.41547 -4.68921,0.42681 -7.12817,0.36718 -4.75648,-9.15595 -8.94468,-18.51304 -13.05927,-27.96966 -1.56171,-3.58902 -3.13058,-7.1749 -4.69903,-10.76099 -0.82456,-1.88531 -1.64877,-3.77077 -2.47266,-5.65637 -4.11992,-9.42627 -8.2724,-18.83805 -12.43237,-28.2467 -1.20376,-2.72336 -2.40609,-5.44735 -3.60816,-8.17145 -3.50269,-7.9332 -7.01842,-15.85959 -10.5917898,-23.76123 -0.57515,-1.27615 -1.15019,-2.55236 -1.7251,-3.82861 -1.03097,-2.28386 -2.06795,-4.56501 -3.11231,-6.84278 -0.66443,-1.47364 -0.66443,-1.47364 -1.34228,-2.97705 -0.38181,-0.83652 -0.76361,-1.67304 -1.15698,-2.53491 -0.80004998,-2.25025 -0.80004998,-2.25025 -0.80004998,-6.25025 5.93999998,-0.33 11.87999978,-0.65999 17.99999978,-1 -0.36352,-1.26328 -0.72703,-2.52656 -1.10157,-3.82812 -5.62823,-19.88593 -10.1660098,-39.96322 -13.1484298,-60.42188 -0.15099,-1.02561 -0.30197,-2.05122 -0.45752,-3.10791 -2.79099998,-20.3488 -3.67132998,-40.68228 -3.60497998,-61.20459 0.002,-1.17893 0.004,-2.35787 0.006,-3.57254 0.0479,-18.47344 0.70824,-36.55361 3.30697998,-54.86496 0.16629,-1.23476 0.33257,-2.46952 0.5039,-3.74169 C 15.100127,302.19847 49.770597,223.81977 103.31648,160.25097 c 0.42684,-0.51175 0.85368,-1.02351 1.29345,-1.55078 12.51299,-14.98518 25.76608,-29.88429 40.59717,-42.61718 2.28567,-1.98515 4.50639,-4.03243 6.73438,-6.08203 5.59429,-5.04083 11.47305,-9.6609 17.43603,-14.252442 2.00144,-1.545813 3.99196,-3.104993 5.98194,-4.665528 24.25829,-18.920904 50.50185,-34.04671 77.95703,-47.832031 0.80534,-0.407344 1.61068,-0.814687 2.44043,-1.234375 C 308.54433,15.490957 371.61284,0.27399582 430.65579,0.04833423 Z M 391.31594,51.251459 c -1.9542,0.271154 -3.90863,0.540678 -5.86328,0.808594 -37.25907,5.384134 -74.2071,16.996205 -108.13671,33.191406 -1.01385,0.48082 -2.0277,0.961641 -3.07227,1.457031 -33.13874,15.82808 -63.45199,36.19101 -90.92773,60.54296 -0.92297,0.81083 -1.84594,1.62165 -2.79688,2.45704 -6.83836,6.13327 -13.36862,12.57663 -19.89062,19.04296 -0.87922,0.86617 -1.75845,1.73234 -2.66431,2.62476 -5.23697,5.23008 -10.05422,10.64286 -14.68066,16.41968 -1.56347,1.95128 -3.14938,3.85987 -4.79566,5.74072 -55.598613,63.75906 -89.987663,154.29466 -90.375003,239.02344 -0.007,1.03672 -0.014,2.07345 -0.0212,3.14159 -0.0174,3.32915 -0.0239,6.65812 -0.0256,9.98731 -6.8e-4,1.14044 -0.001,2.28088 -0.002,3.45588 0.0165,17.57699 0.58398,34.70744 3.25205,52.10662 0.26538,1.7864 0.26538,1.7864 0.53613,3.60889 2.53321,16.71528 6.05047,33.07457 10.46387,49.39111 17.70632,-6.51517 36.3399,-25.60619 48.273433,-39.95703 1.8265,-2.16121 3.73564,-4.23477 5.66236,-6.30664 5.61624,-6.044 10.94396,-12.26384 16.06421,-18.73633 0.51433,-0.6471 1.02867,-1.29421 1.55859,-1.96093 8.52929,-10.75519 16.68984,-21.71046 24.44141,-33.03907 0.48678,-0.71091 0.97356,-1.42183 1.47509,-2.15429 18.21153,-26.71424 34.26774,-54.50942 48.15073,-83.69318 14.6961,-30.85081 32.84392,-60.04366 54.79361,-86.26336 1.51107,-1.8061 3.00906,-3.62242 4.50635,-5.43995 10.84067,-13.03083 22.71515,-25.00671 36.07422,-35.44922 1.75051,-1.47856 3.50049,-2.95774 5.25,-4.4375 18.06194,-14.70394 38.98041,-26.40065 60.74999,-34.5625 0.7272,-0.27537 1.45439,-0.55075 2.20362,-0.83447 24.07152,-8.96401 49.02938,-12.59845 74.60888,-12.54053 0.94704,8.8e-4 1.89408,0.002 2.86982,0.003 31.27823,0.0952 60.88086,6.04907 89.31769,19.37234 0.6832,0.3155 1.3664,0.631 2.07031,0.95606 21.81537,10.16015 41.32094,23.67433 58.92969,40.04394 1.26753,1.0872 2.5383,2.17063 3.8125,3.25 8.71213,7.61871 16.78769,15.89376 23.96484,24.97266 1.95631,2.44453 3.98395,4.80322 6.05005,7.15479 17.16017,19.68291 30.88056,42.66571 43.17261,65.62255 0.66298,1.2334 0.66298,1.2334 1.33935,2.4917 5.09941,9.51636 9.98032,19.09464 14.53565,28.8833 20.67762,44.20907 49.86974,86.10243 82.125,122.625 0.75539,0.85594 1.51078,1.71188 2.28906,2.59375 2.21923,2.48554 4.46084,4.94862 6.71094,7.40625 0.50176,0.55221 1.00353,1.10441 1.5205,1.67334 6.2086,6.82651 12.37007,13.42521 19.4795,19.32666 1.06075,0.93114 2.11912,1.865 3.17578,2.80079 7.2633,6.39557 14.59114,12.07239 22.82422,17.19921 3.01972,-5.43878 3.98332,-11.61538 5.375,-17.625 0.23244,-0.99808 0.23244,-0.99808 0.46957,-2.01632 2.14267,-9.25878 4.01867,-18.52476 5.46793,-27.92118 0.14679,-0.94633 0.29358,-1.89266 0.44482,-2.86767 0.46187,-3.18569 0.86245,-6.3733 1.24268,-9.56983 0.0861,-0.7113 0.17227,-1.4226 0.26101,-2.15545 1.80174,-15.28345 2.09951,-30.46691 2.05149,-45.84455 -0.002,-1.21233 -0.004,-2.42466 -0.006,-3.67373 -0.0455,-17.96803 -0.50715,-35.54905 -3.30697,-53.32627 -0.16629,-1.11552 -0.33258,-2.23104 -0.50391,-3.38037 -8.27761,-54.54791 -28.00103,-106.99486 -57.49609,-153.61963 -0.37077,-0.58668 -0.74154,-1.17336 -1.12354,-1.77783 -15.0046,-23.52945 -32.86436,-45.78734 -52.87646,-65.22217 -2.66924,-2.65206 -5.31762,-5.32253 -7.94532,-8.01562 -5.77348,-5.89216 -11.59359,-11.50035 -18.07422,-16.625 -2.21499,-1.75342 -4.39127,-3.5288 -6.55468,-5.34375 C 644.0045,91.393024 576.84334,62.838414 507.94094,52.001459 c -1.43956,-0.226714 -1.43956,-0.226714 -2.9082,-0.458008 -3.2346,-0.477961 -6.471,-0.89661 -9.7168,-1.291992 -0.71417,-0.0872 -1.42834,-0.174406 -2.16415,-0.264252 -15.29965,-1.809451 -30.50425,-2.095085 -45.89835,-2.048248 -1.81892,0.0022 -1.81892,0.0022 -3.67459,0.0045 -17.63826,0.03898 -34.81654,0.568669 -52.26291,3.307983 z m 7,304.999991 c -0.95132,0.83145 -1.90265,1.6629 -2.88281,2.51954 -12.38575,10.95873 -23.23278,23.24495 -33.11719,36.48046 -0.50499,0.67515 -1.00998,1.3503 -1.53027,2.0459 -21.20422,28.51152 -39.00577,59.28799 -55.62256,90.64844 -11.52398,21.70181 -24.3769,42.44452 -38.84716,62.30566 -0.42862,0.58911 -0.85723,1.17821 -1.29883,1.78516 -2.51822,3.44337 -5.09444,6.83815 -7.70117,10.21484 -0.41283,0.53754 -0.82565,1.07508 -1.25098,1.62891 -17.99625,23.39112 -38.06558,47.23311 -61.3623,65.48047 -2.29063,1.8145 -4.42771,3.72173 -6.57422,5.70312 -19.10544,17.08371 -41.93439,31.74845 -64.8125,43.1875 1.48582,4.49945 3.99487,7.86146 6.9375,11.5 0.48726,0.61021 0.97453,1.22042 1.47656,1.84913 11.63058,14.48964 24.00343,28.14315 37.08594,41.33837 0.86609,0.87915 1.73217,1.75829 2.62451,2.66407 5.23016,5.23705 10.64301,10.05438 16.41992,14.68091 1.95128,1.56346 3.85988,3.14937 5.74072,4.79565 63.51292,55.38398 153.50305,90.02137 237.89844,90.375 1.12573,0.007 2.25147,0.014 3.41131,0.0213 3.61424,0.0174 7.22832,0.0239 10.84259,0.0256 1.23481,6.8e-4 2.46963,10e-4 3.74186,0.002 18.14616,-0.0158 35.86656,-0.42437 53.82064,-3.25205 1.11553,-0.16628 2.23105,-0.33257 3.38037,-0.5039 82.45957,-12.51318 162.29775,-51.44188 220.61964,-111.4961 2.65206,-2.66923 5.32253,-5.31761 8.01562,-7.94531 6.82188,-6.68448 13.05665,-13.55331 18.98438,-21.05469 1.10948,-1.3575 2.22166,-2.71282 3.33593,-4.0664 0.58459,-0.71181 1.16918,-1.42361 1.77149,-2.15698 1.15329,-1.40387 2.30817,-2.80644 3.46484,-4.20752 5.17455,-5.66165 5.17455,-5.66165 7.42774,-12.5691 -0.49589,-0.2599 -0.99178,-0.51981 -1.50269,-0.78759 -26.71839,-14.1035 -51.60316,-31.47905 -73.91528,-51.87647 -1.423,-1.28737 -2.85254,-2.56804 -4.30884,-3.81762 -5.70498,-4.90011 -11.0314,-10.12754 -16.33569,-15.45582 -0.85916,-0.85529 -1.71832,-1.71058 -2.60352,-2.59179 -4.98731,-4.99493 -9.75578,-10.09994 -14.33398,-15.47071 -0.98476,-1.1297 -1.97041,-2.25864 -2.95704,-3.38671 -26.51597,-30.56265 -48.65582,-64.73174 -67.544,-100.45063 -5.98732,-11.32056 -12.31767,-22.40251 -18.8642,-33.40777 -1.56228,-2.63274 -3.10817,-5.27442 -4.65039,-7.91895 -9.94244,-16.94584 -20.8775,-33.35265 -32.98438,-48.83594 -0.62648,-0.80695 -1.25296,-1.6139 -1.89843,-2.44531 -18.43331,-23.39902 -42.7498,-52.76816 -74.10157,-57.55469 -22.0539,-1.60344 -39.8801,7.53036 -56,22 z"
     fill="#7826e7"
     id="path1" />
</svg>
