<?xml version="1.0" encoding="UTF-8" standalone="no"?>
<svg
   viewBox="0 0 24 24"
   version="1.1"
   id="svg1"
   sodipodi:docname=":prusaslicer:.svg"
   inkscape:version="1.4.3 (0d15f75, 2025-12-25)"
   xmlns:inkscape="http://www.inkscape.org/namespaces/inkscape"
   xmlns:sodipodi="http://sodipodi.sourceforge.net/DTD/sodipodi-0.dtd"
   xmlns="http://www.w3.org/2000/svg"
   xmlns:svg="http://www.w3.org/2000/svg">
  <defs
     id="defs1" />
  <sodipodi:namedview
     id="namedview1"
     pagecolor="#505050"
     bordercolor="#ffffff"
     borderopacity="1"
     inkscape:showpageshadow="0"
     inkscape:pageopacity="0"
     inkscape:pagecheckerboard="1"
     inkscape:deskcolor="#505050"
     inkscape:zoom="13.235235"
     inkscape:cx="11.560051"
     inkscape:cy="19.380086"
     inkscape:window-width="930"
     inkscape:window-height="1044"
     inkscape:window-x="858"
     inkscape:window-y="40"
     inkscape:window-maximized="0"
     inkscape:current-layer="svg1" />
  <path
     d="m 18.039623,6.6304865 0.22297,0.234189 c 0.838593,0.8862727 1.468239,1.8875359 2.044598,3.2505995 a 12.340499,12.340499 0 0 1 0.388444,1.276119 c 0.08835,0.378629 0.123405,0.570749 0.221568,1.21582 0.05609,0.370215 0.05609,1.904363 0,2.320855 a 10.54131,10.54131 0 0 1 -0.479597,2.111909 c -0.32534,0.998458 -1.009677,2.221289 -1.768337,3.155241 -0.119199,0.147245 -1.193382,1.224233 -1.367271,1.370076 -0.232787,0.196326 -0.792316,0.587575 -1.19198,0.832983 a 9.6971077,9.6971077 0 0 1 -2.465296,1.082599 10.166888,10.166888 0 0 1 -0.950778,0.224373 C 12.126,23.81744 10.813419,23.891759 10.144508,23.848286 A 10.806351,10.806351 0 0 1 7.4436221,23.278941 11.217233,11.217233 0 0 1 5.2559883,22.178113 10.99286,10.99286 0 0 1 3.8536589,21.03802 L 3.7470812,20.925829 18.041026,6.6318853 Z"
     id="path2"
     style="stroke-width:1.40232" />
  <path
     d="m 12.977214,0.01850348 a 10.237005,10.237005 0 0 1 4.345819,0.84981165 c 1.030712,0.44594067 2.224094,1.23965917 2.884591,1.91978877 l 0.190717,0.1949239 -7.15188,7.1518802 c -3.9349363,3.933534 -7.165903,7.151881 -7.1799264,7.151881 -0.014023,0 -0.1682794,-0.157062 -0.3379614,-0.350584 C 4.284174,15.305296 3.4567996,13.468245 3.1763337,11.276404 3.1174359,10.808026 3.1202406,9.457583 3.1791384,8.993411 3.4245461,7.1142902 4.0668129,5.508623 5.1494112,4.065626 A 10.141646,10.141646 0 0 1 12.977214,0.01850348 Z"
     id="path1"
     style="stroke-width:1.40232" />
</svg>
