<svg xmlns="http://www.w3.org/2000/svg" viewBox="0 0 24 24"><path d="M12 0A12 12 0 0 0 0 12a12 12 0 0 0 12 12 12 12 0 0 0 12-12A12 12 0 0 0 12 0zm.664 3.5a7.3 7.3 0 0 1 3.099.606c.735.318 1.586.884 2.057 1.369l.136.139-5.1 5.1c-2.806 2.805-5.11 5.1-5.12 5.1-.01 0-.12-.112-.241-.25-1.03-1.163-1.62-2.473-1.82-4.036-.042-.334-.04-1.297.002-1.628.175-1.34.633-2.485 1.405-3.514A7.232 7.232 0 0 1 12.664 3.5zm3.61 4.715.159.167c.598.632 1.047 1.346 1.458 2.318a8.8 8.8 0 0 1 .277.91c.063.27.088.407.158.867.04.264.04 1.358 0 1.655a7.517 7.517 0 0 1-.342 1.506c-.232.712-.72 1.584-1.261 2.25-.085.105-.851.873-.975.977-.166.14-.565.419-.85.594a6.915 6.915 0 0 1-1.758.772 7.25 7.25 0 0 1-.678.16c-.405.08-1.341.133-1.818.102a7.706 7.706 0 0 1-1.926-.406 7.999 7.999 0 0 1-1.56-.785 7.839 7.839 0 0 1-1-.813l-.076-.08L16.275 8.216z" paint-order="markers fill stroke"/></svg>