<svg xmlns="http://www.w3.org/2000/svg" width="24" height="24" viewBox="0 0 5.822 6.207"><path fill="#124f9b" fill-rule="evenodd" d="M2.777.07a.38.38 0 0 0-.17.188c-.06.159.016.34.178.424.037.02.063.024.14.024.087.001.098-.001.15-.032A.43.43 0 0 0 3.227.53c.025-.038.027-.05.027-.146 0-.123-.015-.166-.084-.241C3.1.069 3.059.052 2.935.047c-.097-.004-.108-.003-.158.022m.034 1.296a.36.36 0 0 0-.22.26.2.2 0 0 0 0 .123q.045.186.213.25c.046.017.074.02.136.017.126-.007.207-.055.28-.168.026-.04.028-.051.028-.158 0-.132-.012-.166-.082-.237a.33.33 0 0 0-.236-.1.3.3 0 0 0-.12.013m-1.3.92a1.3 1.3 0 0 0-.457.123 1.44 1.44 0 0 0-.506.43c-.071.108-.154.28-.182.375-.034.12-.182 1.036-.26 1.608l-.043.314a3 3 0 0 0-.019.308c0 .176 0 .185.03.266.041.114.098.2.185.282.195.18.536.246.882.172.239-.052.416-.147.561-.304a4.3 4.3 0 0 0 .413-.562l.122-.194.433-.008c.49-.01.89-.004.93.012q.027.01.07.087c.14.251.385.582.537.724.222.207.592.31.94.262.216-.03.339-.086.464-.21a.5.5 0 0 0 .128-.174 1 1 0 0 0 .054-.14 2 2 0 0 0 0-.443 36 36 0 0 0-.194-1.358c-.065-.414-.09-.547-.122-.652a1.2 1.2 0 0 0-.308-.518 1.3 1.3 0 0 0-.567-.352l-.12-.039h-.46l-.115.04c-.13.045-.27.116-.444.227l-.12.077-.151.007c-.083.005-.264.008-.401.009h-.25l-.179-.107c-.287-.174-.45-.24-.632-.258a1 1 0 0 0-.22-.004m.292.35a1 1 0 0 1 .14.052c.085.043.362.206.388.23.065.055.057.054.592.06l.498.004.17-.109c.228-.146.308-.188.43-.227a.6.6 0 0 1 .23-.032c.15 0 .25.02.37.078q.334.157.499.495c.043.087.06.154.093.356l.042.256c.01.052.035.216.057.366l.058.37c.008.055.023.158.032.23s.018.138.021.146c.011.03.057.473.057.548q0 .308-.31.385a.89.89 0 0 1-.741-.166c-.103-.088-.35-.437-.52-.735a2 2 0 0 0-.096-.157c-.013-.014-.13-.016-.89-.02l-.875-.003-.032.05-.066.114c-.223.402-.46.714-.621.817a1 1 0 0 1-.492.124q-.34-.021-.443-.244C.37 5.575.37 5.565.375 5.391c.003-.101.013-.226.022-.277a6 6 0 0 0 .032-.235c.017-.153.016-.14.11-.736l.088-.57c.037-.235.072-.36.12-.428a.1.1 0 0 0 .021-.037c0-.004.022-.04.049-.08.05-.073.17-.194.25-.25.056-.037.191-.105.26-.128a.9.9 0 0 1 .474-.016" style="stroke-width:.261067"/></svg>