<svg height="24" viewBox="0 0 24 24" width="24" xmlns="http://www.w3.org/2000/svg"><path d="m7.833 6.666v-.055c0-1-.667-1.5-1.778-1.5h-1.666v3.055h1.723c1.111 0 1.721-.666 1.721-1.5zm-7.833-6.666v24h24v-24zm2.223 3.167h4c2.389 0 3.833 1.389 3.833 3.445v.055c0 2.278-1.778 3.5-4.001 3.5h-1.666v2.945h-2.166zm9.054 17.833h-9v-1.5h9zm4.779-7.777c-2.944.055-5.111-2.223-5.111-5.057-.001-2.833 2.111-5.166 5.166-5.166 1.889 0 3 .611 3.944 1.556l-1.389 1.61c-.778-.722-1.556-1.111-2.556-1.111-1.658 0-2.873 1.375-2.887 3.084.014 1.709 1.174 3.083 2.887 3.083 1.111 0 1.833-.445 2.61-1.167l1.39 1.389c-.999 1.112-2.166 1.779-4.054 1.779z"/></svg>