<svg xmlns="http://www.w3.org/2000/svg" width="24" height="24" viewBox="0 0 24 24"><path d="M11.982.112c-6.55 0-11.87 5.32-11.87 11.87s5.32 11.87 11.87 11.87 11.87-5.32 11.87-11.87S18.533.112 11.983.112m.922 5.18h1.084v2.47q0 .83-.052 1.49h.052q.758-1.072 2.247-1.072 1.411 0 2.189.967.783.96.783 2.723 0 1.765-.79 2.745-.783.973-2.182.973-.698 0-1.28-.255a2.43 2.43 0 0 1-.967-.796h-.078l-.23.921h-.776ZM7.722 8.167q1.47 0 2.261 1.11h.059l.157-.98h.856v10.376H9.97v-3.065q0-.653.072-1.11h-.086q-.75 1.09-2.26 1.09-1.385 0-2.162-.973t-.777-2.717q0-1.758.784-2.744.785-.987 2.181-.987m.124.908q-.954 0-1.462.745-.504.739-.503 2.09 0 1.353.496 2.065.503.706 1.482.706 1.085 0 1.581-.582.496-.58.53-1.96v-.241q0-1.502-.51-2.163t-1.614-.66m8.233.013q-1.11 0-1.6.64-.491.634-.49 2.142 0 1.51.502 2.164.503.646 1.614.646 1 0 1.49-.725.49-.731.49-2.097 0-1.398-.49-2.084t-1.516-.686" style="stroke-width:.51611"/></svg>
