<svg xmlns="http://www.w3.org/2000/svg" width="24" height="24"><path d="M10.360 0.419 C 8.330 0.712,6.533 1.461,4.847 2.717 C 4.184 3.211,3.105 4.286,2.616 4.940 C 0.895 7.241,0.065 9.957,0.238 12.722 C 0.308 13.837,0.444 14.591,0.744 15.525 C 1.956 19.288,4.712 22.044,8.475 23.256 C 10.581 23.934,12.990 23.963,15.168 23.338 C 16.424 22.977,17.857 22.274,18.889 21.512 C 21.477 19.601,23.206 16.657,23.607 13.480 C 23.687 12.844,23.675 11.066,23.586 10.460 C 23.210 7.889,22.053 5.572,20.241 3.759 C 18.512 2.031,16.358 0.916,13.896 0.476 C 13.487 0.403,13.230 0.389,12.080 0.377 C 11.093 0.367,10.640 0.378,10.360 0.419 M13.112 1.842 C 14.581 2.002,16.196 2.573,17.458 3.380 C 18.098 3.789,18.533 4.133,19.075 4.659 C 20.686 6.220,21.708 8.158,22.083 10.360 C 22.205 11.073,22.235 12.531,22.143 13.280 C 21.663 17.216,19.035 20.470,15.294 21.760 C 14.223 22.130,13.459 22.272,12.360 22.306 C 11.048 22.346,10.121 22.233,9.013 21.897 C 6.807 21.228,4.928 19.885,3.593 18.020 C 2.756 16.850,2.163 15.490,1.884 14.100 C 1.518 12.275,1.665 10.257,2.288 8.540 C 2.626 7.607,3.252 6.490,3.880 5.700 C 4.244 5.243,5.075 4.403,5.522 4.043 C 7.008 2.844,8.792 2.088,10.670 1.861 C 11.203 1.796,12.591 1.786,13.112 1.842 M13.040 4.483 C 12.908 4.538,12.729 4.710,12.648 4.860 C 12.589 4.969,12.581 5.477,12.567 10.262 L 12.552 15.543 12.642 15.736 C 12.745 15.955,12.976 16.144,13.189 16.184 C 13.463 16.236,13.839 16.032,13.982 15.755 L 14.041 15.643 14.247 15.764 C 14.513 15.921,15.059 16.103,15.440 16.163 C 16.713 16.362,18.067 15.695,18.753 14.531 C 18.820 14.418,18.939 14.154,19.017 13.945 L 19.160 13.563 19.160 12.045 L 19.160 10.527 19.018 10.153 C 18.939 9.948,18.833 9.707,18.781 9.618 C 18.330 8.846,17.567 8.246,16.771 8.035 C 16.530 7.971,16.334 7.952,15.900 7.951 C 15.228 7.949,14.941 8.008,14.414 8.258 L 14.045 8.433 14.032 6.706 C 14.018 4.762,14.023 4.790,13.715 4.577 C 13.538 4.454,13.215 4.409,13.040 4.483 M7.492 7.960 C 6.443 8.108,5.448 8.865,4.999 9.857 C 4.749 10.407,4.740 10.483,4.740 12.060 C 4.740 13.460,4.743 13.508,4.834 13.800 C 5.079 14.580,5.550 15.214,6.215 15.655 C 6.773 16.025,7.315 16.177,8.060 16.172 C 8.625 16.168,8.986 16.086,9.501 15.844 L 9.840 15.685 9.845 15.933 C 9.847 16.069,9.861 16.856,9.875 17.683 L 9.900 19.186 10.006 19.347 C 10.277 19.756,10.915 19.747,11.201 19.331 L 11.300 19.186 11.311 13.833 C 11.322 8.554,11.321 8.478,11.242 8.324 C 11.092 8.030,10.800 7.887,10.455 7.939 C 10.300 7.962,10.230 8.001,10.101 8.134 C 10.012 8.225,9.922 8.334,9.899 8.374 C 9.861 8.444,9.839 8.438,9.539 8.285 C 9.364 8.195,9.078 8.086,8.905 8.041 C 8.543 7.949,7.853 7.909,7.492 7.960 M8.563 9.464 C 9.115 9.625,9.618 10.147,9.773 10.720 C 9.852 11.010,9.887 12.028,9.844 12.769 C 9.811 13.328,9.802 13.374,9.666 13.661 C 8.995 15.073,7.012 15.066,6.349 13.649 C 6.234 13.403,6.222 13.334,6.185 12.732 C 6.160 12.305,6.160 11.843,6.186 11.391 C 6.223 10.737,6.232 10.686,6.352 10.435 C 6.562 9.998,7.017 9.594,7.451 9.458 C 7.690 9.383,8.299 9.386,8.563 9.464 M16.653 9.550 C 17.156 9.787,17.582 10.323,17.681 10.845 C 17.734 11.125,17.731 12.967,17.677 13.263 C 17.581 13.786,17.182 14.286,16.652 14.548 C 16.392 14.676,16.307 14.698,16.002 14.712 C 15.416 14.740,14.971 14.566,14.579 14.155 C 14.324 13.888,14.135 13.518,14.079 13.175 C 14.058 13.046,14.040 12.535,14.040 12.040 C 14.040 11.545,14.058 11.034,14.079 10.905 C 14.159 10.419,14.472 9.942,14.886 9.676 C 15.242 9.448,15.443 9.397,15.940 9.410 C 16.339 9.420,16.405 9.433,16.653 9.550 " stroke="none" fill-rule="evenodd" fill="black"></path></svg>