<svg xmlns="http://www.w3.org/2000/svg" id="b" width="24" height="24"><path d="M10.927 0.761 C 7.048 1.136,3.610 3.504,1.900 6.980 C 1.082 8.642,0.720 10.183,0.720 12.000 C 0.720 13.817,1.082 15.358,1.900 17.020 C 2.984 19.223,4.777 21.016,6.980 22.100 C 8.642 22.918,10.183 23.280,12.000 23.280 C 13.817 23.280,15.358 22.918,17.020 22.100 C 19.218 21.020,21.020 19.218,22.100 17.020 C 22.918 15.358,23.280 13.817,23.280 12.000 C 23.280 10.183,22.918 8.642,22.100 6.980 C 20.995 4.732,19.138 2.902,16.860 1.817 C 15.772 1.299,14.780 1.000,13.542 0.816 C 13.058 0.744,11.451 0.711,10.927 0.761 M12.940 2.160 C 14.321 2.285,15.852 2.784,17.050 3.501 C 19.131 4.747,20.670 6.682,21.414 8.987 C 22.025 10.878,22.033 13.043,21.436 14.937 C 20.289 18.579,17.290 21.154,13.460 21.787 C 12.832 21.891,11.168 21.891,10.540 21.787 C 8.307 21.418,6.375 20.414,4.862 18.835 C 3.092 16.987,2.120 14.566,2.120 12.000 C 2.120 9.345,3.134 6.902,5.018 5.018 C 6.432 3.604,8.137 2.689,10.080 2.302 C 10.942 2.130,12.020 2.077,12.940 2.160 M12.980 4.755 C 12.821 4.854,12.695 4.995,12.643 5.133 C 12.613 5.210,12.600 6.825,12.600 10.330 L 12.600 15.415 12.685 15.590 C 12.776 15.779,12.979 15.936,13.187 15.979 C 13.464 16.036,13.807 15.855,13.936 15.584 L 14.001 15.446 14.230 15.585 C 14.517 15.757,14.963 15.900,15.403 15.961 C 16.247 16.077,17.140 15.814,17.809 15.252 C 18.285 14.853,18.600 14.395,18.808 13.798 L 18.940 13.420 18.940 12.000 L 18.940 10.580 18.808 10.200 C 18.639 9.716,18.393 9.321,18.039 8.967 C 17.384 8.313,16.716 8.038,15.780 8.038 C 15.201 8.038,14.809 8.126,14.345 8.361 C 14.172 8.448,14.024 8.520,14.015 8.520 C 14.007 8.520,14.000 7.779,14.000 6.873 C 14.000 5.282,13.997 5.219,13.916 5.052 C 13.756 4.722,13.278 4.570,12.980 4.755 M7.880 8.047 C 6.540 8.154,5.379 9.195,5.101 10.541 C 5.014 10.963,5.014 13.037,5.101 13.459 C 5.249 14.174,5.636 14.803,6.220 15.275 C 6.827 15.767,7.442 15.979,8.240 15.973 C 8.786 15.968,9.189 15.876,9.640 15.650 C 9.805 15.568,9.954 15.494,9.970 15.487 C 9.986 15.479,10.000 16.216,10.000 17.124 C 10.000 18.718,10.003 18.781,10.084 18.948 C 10.346 19.490,11.195 19.416,11.361 18.837 C 11.385 18.751,11.400 16.827,11.400 13.643 L 11.400 8.585 11.315 8.410 C 11.195 8.162,10.988 8.034,10.707 8.034 C 10.585 8.034,10.433 8.062,10.366 8.097 C 10.245 8.160,10.074 8.358,10.027 8.489 C 10.006 8.551,9.977 8.543,9.772 8.421 C 9.262 8.120,8.603 7.990,7.880 8.047 M8.981 9.595 C 9.484 9.830,9.881 10.370,9.962 10.928 C 9.982 11.066,9.998 11.549,9.998 12.000 C 9.998 12.451,9.982 12.934,9.962 13.072 C 9.825 14.018,8.916 14.697,7.968 14.561 C 7.244 14.458,6.612 13.864,6.481 13.165 C 6.428 12.885,6.428 11.115,6.481 10.835 C 6.613 10.130,7.279 9.511,7.976 9.443 C 8.336 9.408,8.699 9.463,8.981 9.595 M16.540 9.594 C 17.021 9.819,17.424 10.330,17.519 10.835 C 17.572 11.115,17.572 12.885,17.519 13.165 C 17.388 13.860,16.751 14.459,16.032 14.561 C 15.084 14.697,14.175 14.018,14.038 13.072 C 13.987 12.719,13.991 11.144,14.044 10.859 C 14.177 10.137,14.818 9.527,15.526 9.448 C 15.909 9.405,16.236 9.452,16.540 9.594 " stroke="none" fill-rule="evenodd" fill="black"></path></svg>