<svg xmlns="http://www.w3.org/2000/svg" id="b" width="24" height="24"><defs><style>.c{fill:none;stroke:#000;stroke-linecap:round;stroke-linejoin:round}</style></defs><g transform="matrix(.49254 0 0 .49254 .179 .179)"><circle cx="24" cy="24" r="21.5" class="c" style="stroke-width:2.84239px"/><path d="M26.651 22.364a5.034 5.034 0 0 1 5.035-5.035h0a5.034 5.034 0 0 1 5.034 5.035v3.272a5.034 5.034 0 0 1-5.034 5.035h0a5.034 5.034 0 0 1-5.035-5.035M26.651 30.671V10.533M21.349 25.636a5.034 5.034 0 0 1-5.035 5.035h0a5.034 5.034 0 0 1-5.034-5.035v-3.272a5.034 5.034 0 0 1 5.034-5.035h0a5.034 5.034 0 0 1 5.035 5.035M21.349 17.329v20.138" class="c" style="stroke-width:2.84239px"/></g></svg>