<?xml version="1.0" encoding="UTF-8" standalone="no"?>
<!-- Created with Inkscape (http://www.inkscape.org/) -->

<svg
   version="1.1"
   id="svg1"
   width="23.234459"
   height="23.195122"
   viewBox="0 0 23.23446 23.195122"
   xmlns="http://www.w3.org/2000/svg"
   xmlns:svg="http://www.w3.org/2000/svg">
  <defs
     id="defs1" />
  <g
     id="g1"
     transform="translate(-0.44918151,-0.39130273)">
    <path
       style="fill:#000000;stroke-width:0.0124686"
       d="m 19.568188,23.584137 c -0.334273,-0.01895 -0.38917,-0.03542 -1.129331,-0.338564 -0.99383,-0.40707 -0.946749,-0.386594 -1.24879,-0.543173 -0.06284,-0.0326 -0.117241,-0.06494 -0.120901,-0.07193 -0.0036,-0.007 -0.0095,-0.0408 -0.01316,-0.07516 -0.0036,-0.03435 -0.01613,-0.09285 -0.0279,-0.129996 -0.01601,-0.05048 -0.02389,-0.116211 -0.03129,-0.260214 -0.01646,-0.31979 -0.0512,-1.100299 -0.06281,-1.410268 -0.006,-0.160181 -0.0125,-0.292847 -0.01447,-0.294816 -0.002,-0.002 -0.08012,0.04043 -0.173682,0.09429 -1.220899,0.702435 -2.463119,1.144933 -3.802704,1.354565 -0.577165,0.09032 -1.0432,0.125268 -1.670576,0.125268 -0.438829,0 -0.630903,-0.008 -0.994022,-0.04169 C 8.9331354,21.86782 7.6378074,21.497877 6.4274013,20.892549 5.3597308,20.358599 4.3842478,19.648038 3.5494252,18.796176 2.3695415,17.592203 1.4998019,16.159363 0.97895928,14.561513 0.77031491,13.921421 0.61852455,13.241504 0.53164574,12.557855 0.44120844,11.846252 0.42451842,11.051498 0.48473422,10.325212 0.73155872,7.3485177 2.1829077,4.6276171 4.5236224,2.7533419 5.521218,1.9545396 6.6871456,1.3256817 7.9106255,0.92651928 9.4403089,0.42745715 11.057673,0.27497652 12.654348,0.47929558 c 2.749409,0.3518298 5.269209,1.75615582 7.021175,3.91301862 1.131528,1.3930332 1.896288,3.0412475 2.233656,4.8139777 0.177826,0.9343821 0.230788,1.9495941 0.151228,2.8987901 -0.08115,0.968179 -0.294023,1.933972 -0.624323,2.832476 -0.303944,0.826813 -0.691871,1.585234 -1.199142,2.34441 l -0.171321,0.256404 0.02243,0.312255 c 0.01234,0.171742 0.0292,0.403594 0.03754,0.515228 0.0083,0.111626 0.02679,0.371585 0.04111,0.577676 0.0143,0.206088 0.0308,0.437939 0.03664,0.515223 0.02099,0.276963 0.04052,0.558917 0.04691,0.676563 0.0154,0.283118 0.05155,0.410385 0.141237,0.49706 0.100727,0.09734 0.204703,0.124414 0.69127,0.179951 0.154567,0.01765 0.543327,0.06194 0.86391,0.09843 0.320584,0.03651 0.730423,0.08327 0.910755,0.10392 0.180328,0.02066 0.37939,0.04883 0.442363,0.06259 0.06298,0.01376 0.149624,0.02981 0.19256,0.03562 0.114778,0.01556 0.177591,0.02851 0.187827,0.03875 0.0051,0.0051 0.0045,0.03828 -0.0013,0.07665 -0.0058,0.03717 -0.0129,0.128461 -0.01588,0.202882 -0.0069,0.171084 -0.04052,0.387326 -0.18153,1.165764 -0.06874,0.379476 -0.09555,0.512796 -0.120329,0.598495 -0.0091,0.0315 -0.03317,0.120479 -0.05348,0.197763 -0.0203,0.07728 -0.04128,0.143364 -0.04661,0.146848 -0.0054,0.0036 -0.07371,0.0095 -0.151967,0.01344 -0.07825,0.0041 -0.182096,0.01124 -0.230756,0.01646 -0.08044,0.0086 -3.175823,0.02182 -3.309933,0.01421 z m 3.569942,-0.245579 c 0.08441,-0.361575 0.186168,-0.904384 0.24928,-1.329697 0.02336,-0.157432 0.05865,-0.377537 0.0784,-0.489133 0.01977,-0.111593 0.03263,-0.205936 0.02855,-0.209657 -0.0041,-0.0036 -0.515558,-0.01454 -1.136687,-0.02402 -0.621135,-0.0095 -1.384604,-0.02161 -1.696603,-0.02687 -0.311998,-0.0053 -0.607357,-0.0098 -0.656353,-0.0099 -0.131311,-3.95e-4 -0.125111,0.0098 -0.141081,-0.230347 -0.0074,-0.111036 -0.02082,-0.286186 -0.0299,-0.389234 -0.05237,-0.595746 -0.05169,-0.586727 -0.146085,-1.873547 -0.01972,-0.269064 -0.03823,-0.507941 -0.04112,-0.530842 -0.0028,-0.02291 -0.01475,-0.186833 -0.02638,-0.364301 -0.01164,-0.177466 -0.035,-0.488942 -0.05189,-0.69217 -0.0169,-0.203228 -0.04027,-0.517049 -0.05198,-0.697376 -0.01168,-0.180328 -0.02794,-0.419204 -0.03606,-0.530837 -0.0081,-0.111638 -0.018,-0.295372 -0.02193,-0.408307 -0.0054,-0.154728 -0.01061,-0.208273 -0.02144,-0.217226 -0.01102,-0.0092 -0.0377,-0.0036 -0.115836,0.02438 -0.156981,0.05611 -0.886575,0.252252 -0.897194,0.241197 -0.0095,-0.0099 -0.03391,-0.506757 -0.05282,-1.076453 -0.006,-0.180327 -0.01552,-0.407494 -0.02116,-0.504816 -0.0057,-0.09732 -0.01491,-0.350248 -0.02059,-0.562066 -0.0057,-0.211813 -0.01716,-0.481134 -0.02553,-0.59849 -0.0084,-0.11736 -0.02014,-0.40776 -0.0261,-0.645335 -0.0059,-0.237577 -0.01773,-0.577157 -0.02609,-0.754622 -0.0084,-0.177468 -0.01797,-0.432735 -0.02128,-0.567269 -0.0033,-0.134531 -0.01508,-0.42493 -0.0261,-0.645334 -0.06573,-1.3150677 -0.12552,-2.7998964 -0.122976,-3.0543956 l 0.0025,-0.2284371 -0.02525,-0.016868 c -0.01389,-0.00927 -0.04166,-0.02806 -0.0617,-0.041778 -0.0558,-0.0381 -1.170209,-0.9686957 -1.644593,-1.373274 C 16.12028,5.3137983 15.876719,5.1076821 15.810884,5.0534993 15.552361,4.8407216 15.305586,4.6334781 15.066669,4.4285015 14.929275,4.3106234 14.741922,4.1530557 14.650326,4.0783511 14.306588,3.798 14.319083,3.8065792 14.307884,3.8432338 c -0.0029,0.01002 -0.0317,0.1376536 -0.06365,0.283634 -0.03194,0.1459795 -0.07426,0.338936 -0.09402,0.4287915 -0.01977,0.089851 -0.03593,0.170035 -0.03593,0.1781791 0,0.00812 0.01989,0.035411 0.04424,0.060567 0.0565,0.058447 0.341226,0.3652991 0.660294,0.7116021 0.137132,0.1488414 0.305207,0.3311948 0.373497,0.4052235 0.0683,0.074032 0.152268,0.1656363 0.186617,0.2035675 0.114132,0.1260386 0.923984,1.0115518 1.075402,1.1758729 l 0.149038,0.1617439 -0.0062,1.2438242 c -0.0033,0.6841064 -0.01061,1.5412535 -0.01588,1.9047725 -0.0054,0.363523 -0.01286,2.186718 -0.01675,4.051546 -0.0057,2.693869 -0.0044,3.390602 0.0058,3.390602 0.01029,0 0.477182,-0.157562 1.004805,-0.339092 0.09069,-0.0312 0.107558,-0.03144 0.113876,-0.0016 0.0028,0.01286 0.0071,0.147543 0.0096,0.299247 0.0049,0.289404 0.02712,0.814679 0.05312,1.254236 0.02123,0.35918 0.03211,0.586355 0.06774,1.415571 0.017,0.395003 0.03557,0.772057 0.0413,0.837889 0.0057,0.06584 0.01303,0.192299 0.01618,0.281036 0.0072,0.200728 0.02471,0.528594 0.03214,0.600249 0.0054,0.0513 0.0077,0.05477 0.05019,0.07477 0.02454,0.01152 0.165926,0.09533 0.314216,0.186213 0.14829,0.09088 0.338812,0.207124 0.423386,0.258305 0.177273,0.107286 0.596464,0.394817 0.6586,0.451744 l 0.04214,0.03859 1.212102,0.0084 c 0.666658,0.0046 1.406483,0.01152 1.644056,0.01536 0.237577,0.0036 0.52873,0.0078 0.647004,0.009 l 0.215045,0.002 z M 11.767626,15.113169 c 0.06315,-0.06698 0.187973,-0.352153 0.368998,-0.843099 0.0359,-0.09732 0.06648,-0.178459 0.068,-0.180314 0.0065,-0.008 0.352328,-0.147555 0.365745,-0.147555 0.0081,0 0.104788,0.03811 0.214644,0.08465 0.440418,0.186649 0.752862,0.300054 0.827381,0.300313 0.02463,1.22e-4 0.0574,-0.0065 0.07286,-0.01478 0.01544,-0.0081 0.168621,-0.155789 0.340364,-0.327956 l 0.312256,-0.313027 -8.17e-4,-0.05456 c -0.0013,-0.09398 -0.08747,-0.319943 -0.300044,-0.785673 -0.06073,-0.13305 -0.110241,-0.247805 -0.110036,-0.255008 2.12e-4,-0.0073 0.03214,-0.09039 0.07101,-0.184846 l 0.07063,-0.171742 0.09813,-0.03995 c 0.45106,-0.1837 0.574955,-0.236192 0.704268,-0.298392 0.164044,-0.07891 0.233679,-0.123959 0.251278,-0.162586 0.008,-0.01777 0.01168,-0.167103 0.01168,-0.484533 v -0.458864 l -0.03798,-0.03583 c -0.07031,-0.06632 -0.309613,-0.171884 -0.810333,-0.357501 l -0.218582,-0.08103 -0.07412,-0.1811 -0.07414,-0.1810951 0.1129,-0.2679697 C 14.235799,9.1863235 14.31169,8.9706381 14.31169,8.87504 V 8.8271667 L 13.996977,8.5118354 C 13.649162,8.1633312 13.638392,8.1552809 13.547486,8.1756536 c -0.100137,0.022423 -0.452336,0.1662447 -0.826997,0.3376686 -0.08228,0.037657 -0.153677,0.068454 -0.158652,0.068454 -0.01588,0 -0.346994,-0.1380548 -0.359589,-0.1499239 -0.0068,-0.00629 -0.05063,-0.1073772 -0.0977,-0.2246753 C 11.905853,7.712204 11.786574,7.4609274 11.724393,7.4063279 l -0.03639,-0.031939 H 11.22381 10.759617 l -0.03583,0.037984 c -0.06462,0.068518 -0.189271,0.352217 -0.369771,0.8415575 -0.07509,0.2035717 -0.04339,0.1731596 -0.28577,0.2741 L 9.920791,8.5894385 9.7873112,8.5324369 C 9.331039,8.3376022 8.9473361,8.1966803 8.873111,8.1966803 c -0.020587,0 -0.050042,0.0067 -0.065496,0.014866 -0.01544,0.00817 -0.1704803,0.1577534 -0.3444935,0.3323957 l -0.3163852,0.3175329 0.00588,0.057189 c 0.01135,0.1099632 0.097967,0.3318238 0.3167363,0.8112603 l 0.098813,0.2165508 -0.074777,0.180663 -0.074777,0.180658 -0.2255004,0.09087 c -0.5581442,0.224909 -0.7905798,0.337732 -0.8238385,0.399874 -0.0067,0.01249 -0.010577,0.19022 -0.010577,0.48522 v 0.465476 l 0.042224,0.04016 c 0.023199,0.0221 0.089966,0.06303 0.1483229,0.09095 0.1149577,0.05502 0.4629639,0.194448 0.7045932,0.282285 0.083011,0.03019 0.1564056,0.06002 0.163104,0.06633 0.013683,0.01286 0.149156,0.336089 0.149156,0.355841 0,0.007 -0.040354,0.107978 -0.089704,0.224467 -0.2161023,0.510219 -0.2961717,0.732583 -0.2984222,0.828752 l -0.00123,0.05518 0.3222134,0.322532 c 0.244799,0.245044 0.3311623,0.325241 0.3594746,0.333801 0.077879,0.02357 0.2749291,-0.05099 1.0006634,-0.378552 l 0.06993,-0.03157 0.181754,0.07522 0.181753,0.07522 0.06501,0.162969 c 0.196726,0.493123 0.336675,0.793424 0.400282,0.858912 l 0.03676,0.03787 h 0.469257 0.469259 z m -0.670225,-2.503732 c -0.315286,-0.03946 -0.591845,-0.174851 -0.81061,-0.396863 -0.102677,-0.104199 -0.147444,-0.162149 -0.21217,-0.274632 -0.2615028,-0.454452 -0.2403951,-0.997845 0.05596,-1.440905 0.06716,-0.100405 0.250574,-0.283817 0.350976,-0.350975 0.236851,-0.1584369 0.480277,-0.2330328 0.759744,-0.2328196 0.166408,1.297e-4 0.286446,0.019151 0.435844,0.069102 0.468856,0.1567406 0.822757,0.5724856 0.901707,1.0592776 0.01985,0.122439 0.01982,0.318664 -1.35e-4,0.441573 -0.08869,0.546848 -0.520328,0.995072 -1.064359,1.105268 -0.121246,0.02454 -0.311752,0.03414 -0.416968,0.02095 z M 4.2832461,5.6461449 C 4.9824767,5.5893649 5.4214084,5.2438989 5.5791169,4.6262038 5.6531573,4.3362281 5.6507237,3.9209382 5.5726636,3.5231981 5.5316123,3.3140423 5.4171074,2.9015127 5.3928628,2.8754166 5.3835464,2.8654071 5.3119726,2.9137241 5.0898538,3.0798889 4.4789144,3.5369214 3.882989,4.1025537 3.3851408,4.6979371 3.1951861,4.925108 2.8519914,5.3802995 2.8519914,5.4050751 c 0,0.010534 0.016338,0.01597 0.2706244,0.09005 0.4377063,0.1275049 0.8267559,0.1781304 1.1606343,0.1510184 z"
       id="path1" />
  </g>
</svg>
