<?xml version="1.0" encoding="UTF-8" standalone="no"?>
<!-- Created with Inkscape (http://www.inkscape.org/) -->

<svg
   version="1.1"
   id="svg1"
   width="24.25"
   height="24.299999"
   viewBox="0 0 24.25 24.3"
   sodipodi:docname=":qbz:.svg"
   inkscape:version="1.4.3 (0d15f75, 2025-12-25)"
   xmlns:inkscape="http://www.inkscape.org/namespaces/inkscape"
   xmlns:sodipodi="http://sodipodi.sourceforge.net/DTD/sodipodi-0.dtd"
   xmlns="http://www.w3.org/2000/svg"
   xmlns:svg="http://www.w3.org/2000/svg">
  <sodipodi:namedview
     id="namedview1"
     pagecolor="#ffffff"
     bordercolor="#000000"
     borderopacity="0.25"
     inkscape:showpageshadow="2"
     inkscape:pageopacity="0.0"
     inkscape:pagecheckerboard="0"
     inkscape:deskcolor="#d1d1d1"
     inkscape:zoom="34.284823"
     inkscape:cx="10.87945"
     inkscape:cy="11.885726"
     inkscape:window-width="1790"
     inkscape:window-height="1096"
     inkscape:window-x="5"
     inkscape:window-y="39"
     inkscape:window-maximized="0"
     inkscape:current-layer="svg1" />
  <defs
     id="defs1" />
  <path
     style="fill:#000000;fill-opacity:1;stroke-width:0.0254663"
     d="M 11.56401,24.26219 C 10.37617,24.20309 9.0768106,23.936728 7.9146796,23.514094 5.6029765,22.673395 3.5605235,21.072481 2.1623775,19.005329 0.97343907,17.247488 0.27277957,15.288775 0.06797177,13.150356 0.02312267,12.682083 0.01569657,11.513019 0.05485417,11.085311 0.26724867,8.7653905 1.0457553,6.73093 2.4228735,4.8969999 2.7847915,4.4150281 3.1172345,4.0352543 3.5934995,3.5597095 5.3425745,1.813279 7.5093145,0.67463872 9.9155346,0.23742582 c 1.2404834,-0.2253972 2.6667744,-0.2485422 3.9149134,-0.063529 3.502653,0.5192036 6.554577,2.44546288 8.440297,5.32719748 1.082701,1.654572 1.750076,3.599589 1.929164,5.6224157 0.03926,0.443459 0.03883,1.545035 -7.79e-4,1.986371 -0.138849,1.54717 -0.550058,3.006726 -1.22975,4.364921 -0.638464,1.275811 -1.355181,2.268731 -2.363963,3.274967 -0.997054,0.994538 -2.037993,1.734865 -3.29737,2.345123 -1.461686,0.708292 -2.955592,1.087107 -4.6094,1.16882 -0.553576,0.02735 -0.554276,0.02735 -1.134637,-0.0015 z m 1.402033,-1.859592 c 2.33439,-0.183331 4.564591,-1.192294 6.251679,-2.828314 0.927745,-0.899663 1.522939,-1.704057 2.085556,-2.818594 0.764876,-1.515206 1.110928,-2.959867 1.110674,-4.636718 C 22.413698,10.432899 22.072945,9.0316005 21.278208,7.4483615 20.925895,6.746501 20.630661,6.300635 20.440348,6.183016 20.340206,6.121126 19.740138,5.928385 19.647584,5.928385 c -0.162265,0 -0.371395,0.158111 -1.175215,0.888509 -0.748911,0.6805055 -1.144891,0.9639205 -1.750047,1.2525635 -0.5223,0.249123 -1.015174,0.382125 -1.608174,0.433964 -0.47869,0.04185 -0.982282,0.01238 -1.791576,-0.104835 -0.637516,-0.09233 -0.747144,-0.101409 -1.222382,-0.101191 -0.362762,1.67e-4 -0.576453,0.01174 -0.700323,0.03792 -0.905769,0.191478 -1.8738374,0.814856 -2.4295544,1.564489 -0.282611,0.3812285 -0.568092,1.0502665 -0.657361,1.5405635 -0.05462,0.300003 -0.0609,1.164948 -0.01045,1.440312 0.296519,1.618478 1.29042,2.861235 2.6648014,3.332024 0.328914,0.112668 0.538779,0.151151 0.929154,0.170373 0.835214,0.04113 1.923053,-0.18673 1.955538,-0.409606 0.01085,-0.07453 -0.10802,-0.236526 -0.466216,-0.635293 -0.522176,-0.581319 -0.662865,-0.834342 -0.644559,-1.159201 0.0065,-0.115616 0.03094,-0.210128 0.08045,-0.311326 0.0995,-0.203373 0.338398,-0.438397 0.542889,-0.534091 0.150077,-0.07023 0.182989,-0.07619 0.36271,-0.06579 0.338795,0.01961 0.588237,0.16935 1.200577,0.7207 0.373958,0.33671 0.548439,0.471125 0.611551,0.471125 0.156069,0 0.524357,-0.855575 0.623363,-1.448149 0.03614,-0.216299 0.04153,-0.361157 0.02989,-0.802187 -0.01717,-0.650385 -0.03408,-0.736803 -0.292163,-1.493208 l -0.195501,-0.572993 0.0012,-0.2673955 c 0.0015,-0.336562 0.05789,-0.496894 0.247463,-0.704324 0.178348,-0.195141 0.327506,-0.262822 0.579937,-0.263147 0.164412,-2.12e-4 0.2163,0.01125 0.347241,0.07668 0.739453,0.369509 1.286155,1.9359485 1.217469,3.4883545 -0.049,1.107479 -0.302165,1.991457 -0.853854,2.981412 -0.192715,0.34581 -0.226885,0.463919 -0.169315,0.585241 0.02318,0.04883 0.157995,0.220344 0.299605,0.381135 0.324019,0.367912 0.459026,0.556376 0.568865,0.794109 0.260815,0.564494 0.134015,1.08076 -0.317104,1.291101 -0.118158,0.0551 -0.176281,0.06533 -0.369418,0.06504 -0.443613,-6.57e-4 -0.786963,-0.174431 -1.400646,-0.708883 -0.369539,-0.32183 -0.461142,-0.378942 -0.585724,-0.365181 -0.05602,0.0061 -0.302412,0.09743 -0.547526,0.202766 -0.535471,0.23011 -0.973104,0.375175 -1.415674,0.469265 -0.313044,0.06655 -0.362867,0.06994 -1.041823,0.07075 -0.582802,7.02e-4 -0.757249,-0.0075 -0.954986,-0.045 -0.636721,-0.120672 -1.102351,-0.27339 -1.6426774,-0.538773 -0.640382,-0.314526 -1.120705,-0.665448 -1.6444,-1.20139 -0.8651081,-0.88534 -1.4203771,-2.004496 -1.6153681,-3.255807 -0.05699,-0.3657 -0.07634,-1.08007 -0.04028,-1.486567 C 6.5393395,9.7808425 7.6481576,8.0792875 9.3469786,7.1409575 9.9694566,6.797136 10.694922,6.555604 11.436576,6.445261 c 0.477582,-0.07106 1.317313,-0.05905 1.898725,0.02714 1.168522,0.173227 1.800676,0.138335 2.433036,-0.134291 0.606136,-0.261318 1.187901,-0.6942126 1.72511,-1.2836586 0.293156,-0.3216616 0.413054,-0.5408972 0.413054,-0.7552755 0,-0.1476457 -0.08557,-0.6102038 -0.127322,-0.6882075 -0.0638,-0.1192197 -0.572753,-0.43951 -1.13326,-0.71318 -0.919971,-0.4491799 -1.91263,-0.7554886 -3.068689,-0.946917 -0.268895,-0.044526 -0.466627,-0.054587 -1.273314,-0.06479 -1.039955,-0.013154 -1.35891,0.00515 -1.934264,0.1110175 -1.7940624,0.330105 -3.4462595,1.0999886 -4.8181465,2.2451388 -0.533853,0.4456215 -1.258535,1.2060112 -1.667642,1.7498113 -1.062794,1.4127095 -1.7594623,3.1178215 -1.9842754,4.856562 -0.055611,0.430107 -0.07749,1.58609 -0.039182,2.070271 0.1293571,1.634989 0.6746534,3.299938 1.5241794,4.653762 1.169856,1.864309 2.906234,3.313328 4.9593211,4.138585 1.057771,0.425182 2.0830454,0.654167 3.2596864,0.728023 0.216632,0.0136 0.98621,-0.007 1.362446,-0.03665 z"
     id="path14" />
</svg>
