<svg xmlns="http://www.w3.org/2000/svg" viewBox="0 0 24 24" width="24" height="24" fill="none">
    <path fill="black"
        d="m12.52 4.022 1.105.147 1.62.516 1.914.884 1.915 1.399 1.62 1.398 1.4 1.327 1.031 1.178.81 1.03-1.105 1.4-1.178 1.252-1.178 1.179-1.18 1.03-1.324.958-1.547.884-1.473.663-1.178.368-1.399.147h-1.547l-1.988-.515-1.842-.884-1.473-.958-1.325-1.03-1.031-.958-1.104-1.178-.884-.958L0 11.9l1.4-1.693 1.399-1.473 1.546-1.473L6.48 5.716l1.474-.81 1.4-.516.957-.22 1.104-.148h1.105Zm.442 6.554h1.915l-2.946 3.535-3.02-3.535h2.063V7.483l-.737.147-.958.442-.736.663-.736 1.178-.369.884v2.063l.369.883.589 1.03.883.811.59.368 1.03.368 1.032.075h.589l.737-.148.736-.295.884-.589.81-.81.515-1.105.148-1.104v-1.179l-.221-.957-.443-.81-.515-.663-.441-.369-.737-.514-.736-.37h-.295v3.094Z" />
</svg>