<?xml version="1.0" encoding="UTF-8" standalone="no"?>
<svg
   width="23.698997"
   height="23.887785"
   fill="none"
   version="1.1"
   id="svg1"
   xml:space="preserve"
   xmlns="http://www.w3.org/2000/svg"
   xmlns:svg="http://www.w3.org/2000/svg"><defs
     id="defs1" /><path
     style="fill:#000000;stroke-width:0.0392333"
     d="m 19.962236,22.679039 c -0.660282,-0.66481 -1.235756,-1.22781 -1.278831,-1.251107 -0.05347,-0.02898 -0.202327,0.03945 -0.46992,0.21616 -3.006056,1.984465 -6.91511,2.475021 -10.2827247,1.290404 C 5.5226367,22.087399 3.3633097,20.413537 1.9938925,18.332361 1.3308753,17.324758 0.96693325,16.570883 0.58965601,15.423646 0.39945962,14.845313 0.32285334,14.549279 0.17150519,13.807945 0.10427621,13.478656 0.040383,12.841864 0.01174552,12.216011 -0.23910211,6.7320679 3.5541746,1.651606 8.8841212,0.33295438 10.078553,0.03745151 10.722932,-0.02732184 12.104474,0.0092422 c 0.61743,0.0163392 1.240075,0.0520096 1.383667,0.0792617 0.143587,0.0272737 0.339588,0.0639219 0.435556,0.0814943 1.377955,0.25227802 2.867776,0.840598 4.08093,1.6115269 3.436746,2.1839671 5.501359,5.8945472 5.52572,9.9309799 0.0044,0.680959 -0.0787,1.709866 -0.174187,2.165066 -0.01519,0.0721 -0.0367,0.178192 -0.0479,0.235841 -0.257917,1.326462 -0.926705,2.95562 -1.67311,4.075662 -0.187593,0.281504 -0.341084,0.529334 -0.341084,0.550732 0,0.0214 0.53015,0.569356 1.178115,1.217679 0.647961,0.648324 1.198675,1.215777 1.223806,1.261008 0.03567,0.06417 -0.237742,0.366555 -1.243788,1.375764 l -1.289479,1.293529 z m -6.996232,-0.103825 c 0.663689,-0.07606 1.421683,-0.238025 1.949603,-0.416613 0.248728,-0.08413 0.395023,-0.148121 0.325107,-0.142183 -0.105454,0.0096 -0.187759,-0.07413 -0.48277,-0.48709 -0.623899,-0.873426 -0.773975,-1.110284 -0.739234,-1.166693 0.02265,-0.03686 -0.02487,-0.0432 -0.143904,-0.01904 -1.428411,0.289602 -2.605897,0.305635 -3.858879,0.05258 C 8.9499401,20.180853 7.6179757,19.593737 6.674248,18.92319 6.0408875,18.473169 5.0776101,17.505064 4.6262299,16.864915 3.9556791,15.913938 3.4346229,14.69697 3.1676574,13.458311 3.0645347,12.979847 3.0490517,12.757502 3.0490517,11.75501 c 0,-0.995357 0.015779,-1.225839 0.1157261,-1.685711 C 3.5634818,8.2340269 4.386466,6.7319052 5.6895834,5.4610331 7.4365869,3.7572454 9.6849232,2.8964932 12.130583,2.99516 c 1.330714,0.053687 2.354672,0.3205642 3.568436,0.9300509 0.392202,0.1969436 0.936303,0.5180343 1.20912,0.713539 0.60595,0.4342323 1.535332,1.3566248 1.958016,1.9432866 2.167805,3.0088055 2.250047,7.0476665 0.205284,10.0813155 -0.162157,0.240573 -0.344151,0.491281 -0.404432,0.55713 l -0.109606,0.119722 -1.04654,-1.048053 c -1.05526,-1.056787 -1.256225,-1.209153 -1.59478,-1.209153 -0.186341,0 -0.500767,0.122317 -0.645084,0.25094 -0.138826,0.123737 -0.292843,0.476743 -0.290674,0.666221 0.0047,0.379914 0.07872,0.463409 3.154837,3.543257 l 3.028398,3.032041 0.652338,-0.654002 0.652334,-0.654002 -1.217162,-1.222548 -1.217159,-1.222547 0.236618,-0.291563 c 0.990818,-1.22089 1.794387,-2.961933 2.147668,-4.653216 0.167172,-0.800312 0.233723,-2.428747 0.134033,-3.279645 C 22.234293,7.8841759 20.962154,5.4056519 18.996385,3.6700212 17.472632,2.3246598 15.795452,1.5024747 13.70887,1.0779826 13.189145,0.97224807 12.971597,0.95879707 11.791193,0.95943077 10.637087,0.95983427 10.379531,0.97552687 9.857554,1.0757396 8.0954368,1.4140149 6.5239594,2.1135547 5.1339361,3.1784467 4.6931627,3.5161239 3.7450001,4.4499753 3.3746412,4.9111927 2.1350823,6.4548236 1.3576752,8.2312474 1.0540209,10.213968 c -0.12361825,0.807104 -0.12389475,2.270038 -5.698e-4,3.087107 0.736658,4.881263 4.4650786,8.585592 9.3076379,9.247473 0.629779,0.08613 1.966996,0.09977 2.604927,0.02671 z m -0.391607,-7.521422 c 0.605072,-0.142714 1.072383,-0.414565 1.568274,-0.912305 0.735875,-0.738633 1.021371,-1.474003 0.977397,-2.517515 -0.05877,-1.395196 -0.893836,-2.540996 -2.19816,-3.0162146 -2.416976,-0.8805971 -4.9039267,1.210927 -4.4522523,3.7443296 0.2316576,1.299325 1.1908466,2.347409 2.4520223,2.679262 0.462464,0.121688 1.190066,0.131571 1.652719,0.02243 z m -0.973016,-2.485268 c -0.262257,-0.0607 -0.47348,-0.245236 -0.569452,-0.497474 -0.162599,-0.427355 0.02811,-0.86536 0.453885,-1.042482 0.324864,-0.135139 0.567029,-0.08565 0.842413,0.172202 0.193574,0.181243 0.214241,0.226087 0.233875,0.507541 0.01801,0.25926 0.0022,0.337672 -0.100742,0.489331 -0.201126,0.297056 -0.542637,0.444339 -0.859979,0.370882 z"
     id="path1" /></svg>
