<svg xmlns="http://www.w3.org/2000/svg" viewBox="-1.94 0 24 24">
  <path d="M10.06 23.66c-2.08 0-4-.7-5.23-1.74-.62.18-1.42.48-1.93.86-.43.32-.38.64-.3.77.34.58 5.87.37 7.46.2zm0 0c2.09 0 4-.7 5.23-1.74.63.18 1.43.48 1.93.86.44.32.38.64.3.77-.34.58-5.86.37-7.46.2zm0 0" color="#000" style="-inkscape-stroke:none"/>
  <path d="M18.53 12.73h-.16c-.83.25-1.73.46-2.64.65.15.94.24 2.1.16 3.49-.22 3.66-2.4 5.97-5.76 6h-.14c-3.36-.03-5.53-2.34-5.75-6-.08-1.38 0-2.55.16-3.5-.9-.17-1.78-.38-2.6-.62-.1-.03-.3-.02-.3-.02-.3.77-.6 1.58-.8 2.26-1.02 3.28-.7 4.63-.44 4.66.54.07 2.1-2.46 2.1-2.46 0 2.57 2.32 6.52 7.63 6.55h.14c5.32-.03 7.64-3.98 7.64-6.55 0 0 1.56 2.53 2.1 2.46.25-.03.58-1.38-.44-4.66-.21-.68-.5-1.49-.8-2.26h-.1zM10.06 0c-5.33 0-7.5 4.62-7.5 9.21l.01.84s.1.1.28.15c.86.24 3.67.94 7.2.96h.03c3.44-.02 6.2-.69 7.13-.94.22-.06.34-.17.34-.17l.02-.84c0-4.6-2.17-9.21-7.5-9.21Z" color="#000" style="-inkscape-stroke:none"/>
  <path fill="#fff" d="M8.16 6.79c-.72.03-1.34-.8-1.38-1.84-.04-1.05.52-1.93 1.24-1.96.72-.03 1.34.8 1.38 1.84.04 1.05-.51 1.93-1.24 1.96m5.18-1.84c-.04 1.05-.66 1.87-1.38 1.84-.72-.03-1.28-.9-1.24-1.96.04-1.05.66-1.87 1.38-1.84.73.03 1.28.91 1.24 1.96M14.63 8.27c-.2-.43-2.14-.9-4.55-.9h-.03c-2.41 0-4.36.47-4.55.9a.14.14 0 0 0-.02.06c0 .03.01.06.03.08.16.24 2.32 1.42 4.54 1.42h.02c2.22 0 4.38-1.18 4.55-1.42a.15.15 0 0 0 .02-.08.14.14 0 0 0-.01-.06" color="#000" style="-inkscape-stroke:none"/>
  <path d="M9.05 4.97c.04.4-.2.78-.5.82-.32.04-.6-.27-.63-.68-.03-.41.2-.78.5-.82.32-.04.6.26.63.68m2 .13c.06-.11.5-.71 1.4-.5.23.06.34.15.36.18.04.05.05.12.01.22-.07.18-.2.18-.29.14-.05-.02-.68-.44-1.25.18-.04.05-.12.06-.18.01-.07-.05-.1-.15-.06-.23" color="#000" style="-inkscape-stroke:none"/>
  <path d="M8.42 4.2a.63.63 0 0 0-.45.32 1 1 0 0 0-.13.6c.02.22.1.42.23.56.12.13.3.21.49.19a.62.62 0 0 0 .44-.3 1 1 0 0 0 .14-.61l-.17.01a.84.84 0 0 1-.11.5.46.46 0 0 1-.32.24c-.13.01-.25-.04-.35-.15a.84.84 0 0 1-.07-.96c.08-.13.19-.21.32-.23a.4.4 0 0 1 .34.14c.1.1.18.27.2.46l.16-.01a.93.93 0 0 0-.23-.56.57.57 0 0 0-.5-.2Zm4.04.33a1.4 1.4 0 0 0-1.08.13c-.24.15-.37.33-.41.4a.26.26 0 0 0 .08.34c.1.07.22.05.29-.02.27-.3.54-.33.75-.3a1 1 0 0 1 .36.1l.05.04c.05.02.13.04.2.01.09-.03.16-.1.2-.2.04-.12.03-.22-.02-.3a.35.35 0 0 0-.13-.1 1.2 1.2 0 0 0-.29-.1zm-.04.16c.12.02.2.06.25.09.05.02.08.05.07.05.02.02.03.06 0 .14-.02.07-.06.1-.08.1h-.1a1.35 1.35 0 0 0-.46-.16c-.24-.04-.58.03-.89.36 0 .01-.02.02-.06 0-.04-.03-.05-.1-.03-.13.02-.04.14-.21.35-.34.21-.13.52-.22.95-.11ZM5.34 13.51v3.6s1.65.34 3.3.11V13.9c-1.04-.06-2.17-.19-3.3-.38" color="#000" style="-inkscape-stroke:none"/>
  <path d="m2.52 9.95-1.14 2.84.1.02c2.7.82 6.03 1.34 8.57 1.31h.02c2.54.03 5.88-.5 8.58-1.3l.09-.03-1.14-2.84.92 2.73c-2.67.8-5.96 1.3-8.44 1.28h-.03c-2.49.03-5.77-.49-8.44-1.28l1.01-2.54c.12.04 3.23 1 7.43 1.03h.02c4.28-.03 7.5-1.04 7.5-1.04l-.1-.05.13-.13-.07.02s-3.2 1-7.46 1.04h-.02C5.8 10.98 2.6 9.97 2.6 9.97Z" color="#000" style="-inkscape-stroke:none"/>
</svg>
