<?xml version="1.0" encoding="UTF-8" standalone="no"?>
<!-- Created with Inkscape (http://www.inkscape.org/) -->

<svg
   width="24mm"
   height="24mm"
   viewBox="0 0 24 24"
   version="1.1"
   id="svg5"
   xml:space="preserve"
   sodipodi:docname="QQ_Music2023.svg"
   inkscape:version="1.4.3 (0d15f75, 2025-12-25)"
   xmlns:inkscape="http://www.inkscape.org/namespaces/inkscape"
   xmlns:sodipodi="http://sodipodi.sourceforge.net/DTD/sodipodi-0.dtd"
   xmlns="http://www.w3.org/2000/svg"
   xmlns:svg="http://www.w3.org/2000/svg"><sodipodi:namedview
     id="namedview1"
     pagecolor="#505050"
     bordercolor="#ffffff"
     borderopacity="1"
     inkscape:showpageshadow="0"
     inkscape:pageopacity="0"
     inkscape:pagecheckerboard="1"
     inkscape:deskcolor="#505050"
     inkscape:document-units="mm"
     inkscape:zoom="3.3694263"
     inkscape:cx="42.44046"
     inkscape:cy="101.05578"
     inkscape:window-width="930"
     inkscape:window-height="1044"
     inkscape:window-x="858"
     inkscape:window-y="40"
     inkscape:window-maximized="0"
     inkscape:current-layer="svg5" /><defs
     id="defs2" /><g
     id="layer1"
     transform="matrix(0.14500855,0,0,0.14500855,-2.0823707,-5.027534)"
     style="fill:#000000;fill-opacity:1"><g
       id="g2451"
       transform="matrix(2.519673,0,0,2.519673,-493.77296,1465.4508)"
       style="fill:#000000;fill-opacity:1"><path
         d="m 240.45119,-527.94916 c -0.84214,-1.1847 -1.64146,-2.29803 -2.44077,-3.39709 -3.06881,-4.2535 -6.15188,-8.50701 -9.23496,-12.74624 -1.95547,-2.69769 -3.89667,-5.39538 -5.88068,-8.06453 -0.59949,-0.79931 -0.67086,-1.64145 -0.39966,-2.55496 0.55667,-1.89837 1.8841,-3.21153 3.45419,-4.29632 2.86897,-1.98402 6.10906,-2.99744 9.50615,-3.59692 2.95462,-0.51385 5.88068,-1.14188 8.46419,-2.76906 0.6994,-0.44248 1.28461,-1.04197 1.92692,-1.57009 0.17128,-0.14273 0.32829,-0.29974 0.65658,-0.58521 0.2141,1.04197 0.42821,1.91265 0.57094,2.78333 0.42821,2.56923 0.2712,5.0671 -0.88496,7.4365 -1.57008,3.19726 -4.13931,5.19555 -7.50786,6.22324 -2.05538,0.65659 -4.18213,0.81359 -6.33743,0.79932 -0.15701,0 -0.31402,0.0428 -0.58522,0.0714 0.52812,0.92778 0.99915,1.79846 1.51299,2.6406 2.06966,3.38282 4.13932,6.76564 6.19471,10.16273 l 6.76564,11.21897 c 0.58521,0.9706 1.19897,1.9412 1.76991,2.92607 1.32744,2.28376 2.29803,4.66744 2.11248,7.40795 -0.18556,2.68342 -1.15616,5.02427 -2.82616,7.07966 -2.72623,3.35427 -6.26606,5.29547 -10.49102,6.05196 -3.98231,0.6994 -7.77906,0.25693 -11.30461,-1.75564 -3.96804,-2.25521 -6.50872,-6.35171 -5.90923,-11.23324 0.38538,-3.21154 1.98401,-5.86641 4.33914,-8.05026 2.51214,-2.31231 5.4953,-3.72538 8.82103,-4.36769 2.45504,-0.4853 4.91008,-0.45675 7.33658,0.19983 0.0714,0.0143 0.157,-0.0143 0.37111,-0.0143 z"
         fill="#0daf52"
         id="path189"
         style="fill:#000000;fill-opacity:1;stroke-width:0.142735" /></g></g></svg>
