<svg xmlns="http://www.w3.org/2000/svg" viewBox="-147 -173.3 24 24">
  <path d="M-133.07-172.97a11.84 11.84 0 0 0-1.93-.17 11.84 11.84 0 0 0-11.84 11.84A11.84 11.84 0 0 0-135-149.46a11.84 11.84 0 0 0 11.84-11.84 11.84 11.84 0 0 0-7.63-11.06c0 .59-.12 1.16-.38 1.7a4.18 4.18 0 0 1-2.67 2.2c-.7.26-1.46.31-2.22.31h-.2l.5.96 2.22 3.57 2.37 3.93.65 1.06c.46.8.8 1.66.76 2.62a4.7 4.7 0 0 1-1 2.47 6.03 6.03 0 0 1-3.74 2.16 5.78 5.78 0 0 1-3.98-.65 3.93 3.93 0 0 1-2.06-3.93 4.6 4.6 0 0 1 1.51-2.87 6.25 6.25 0 0 1 5.7-1.46h.14a135.38 135.38 0 0 0-4.13-5.7l-2.06-2.86a.88.88 0 0 1-.15-.86c.2-.7.65-1.16 1.2-1.56 1.01-.66 2.17-1.06 3.38-1.26.62-.1 1.26-.23 1.88-.44z"/>
</svg>
