<?xml version="1.0" encoding="UTF-8" standalone="no"?>
<svg
   class="icon"
   viewBox="0 0 1024 1024"
   width="200"
   height="200"
   version="1.1"
   id="svg1"
   xmlns="http://www.w3.org/2000/svg"
   xmlns:svg="http://www.w3.org/2000/svg">
  <defs
     id="defs1" />
  <path
     d="M 512,2.936306 C 230.84012,2.936306 2.936306,230.85881 2.936306,512 2.936306,793.14119 230.84012,1021.0637 512,1021.0637 793.15988,1021.0637 1021.0637,793.15988 1021.0637,512 1021.0637,230.84012 793.15988,2.936306 512,2.936306 M 710.89243,574.22866 h -64.7335 c -39.72241,0 -71.93027,32.20786 -71.93027,71.91158 v 64.7335 c 0,41.03091 -34.28277,73.78087 -75.2763,71.8555 -0.85988,-0.0374 -1.71975,-0.0935 -2.57963,-0.13085 -142.88851,-8.03794 -255.38237,-127.3734 -255.41975,-270.50492 -0.0374,-149.76751 121.37298,-271.17788 271.14049,-271.14049 143.13152,0.0374 262.46698,112.53124 270.52361,255.41975 0.0561,0.85988 0.0935,1.71975 0.13086,2.57963 1.94406,40.99353 -30.8059,75.2763 -71.85551,75.2763"
     id="path1"
     style="stroke-width:1.86929" />
</svg>
