<svg xmlns="http://www.w3.org/2000/svg" fill="none" viewBox="0 0 24 24"><g clip-path="url(#a)" filter="url(#b)"><mask id="c" fill="#fff"><path fill-rule="evenodd" d="m11.977 13.153.098-.558 6.406 5.375 2.465-.542-6.481-5.438-2.375.522 1.349-7.648L11.736 3l-1.469 8.332 1.675 1.833-7.495 2.729-.763 2.406 7.95-2.894.763-2.406-.42.153Z" clip-rule="evenodd"/></mask><path fill="#000" fill-rule="evenodd" d="m11.977 13.153.098-.558 6.406 5.375 2.465-.542-6.481-5.438-2.375.522 1.349-7.648L11.736 3l-1.469 8.332 1.675 1.833-7.495 2.729-.763 2.406 7.95-2.894.763-2.406-.42.153Z" clip-rule="evenodd"/><path fill="#000" d="m12.075 12.595.643-.766-1.327-1.113-.3 1.706.984.173Zm-.098.558-.985-.174-.3 1.706 1.627-.593-.342-.94Zm6.504 4.817-.643.766.377.317.481-.106-.215-.977Zm2.465-.542.215.976 1.984-.436-1.556-1.306-.643.766Zm-6.481-5.438.643-.766-.377-.317-.48.106.214.977Zm-2.375.522-.985-.173-.26 1.471 1.46-.321-.215-.977Zm1.349-7.648.985.173.085-.485-.332-.363-.738.675ZM11.736 3l.739-.674-1.37-1.5-.353 2 .984.174Zm-1.469 8.332-.984-.174-.086.485.332.363.738-.674Zm1.675 1.833.342.94 1.404-.51-1.007-1.104-.739.675Zm-7.495 2.729-.342-.94-.463.168-.148.47.953.302ZM3.684 18.3l-.953-.303-.614 1.937 1.91-.695-.343-.94Zm7.95-2.894.342.94.463-.169.149-.469-.954-.302ZM12.397 13l.953.302.614-1.937-1.91.695.343.94Zm-1.306-.578-.099.557 1.97.347.098-.557-1.97-.347Zm8.033 4.782-6.406-5.375-1.285 1.532 6.405 5.375 1.286-1.532Zm1.607-.753-2.465.543.43 1.953 2.465-.543-.43-1.953Zm-6.909-3.695 6.481 5.438 1.286-1.532-6.481-5.438-1.286 1.532Zm-1.517.733 2.375-.523-.43-1.953-2.375.523.43 1.953Zm.149-8.8-1.349 7.65 1.97.347 1.349-7.649-1.97-.347Zm-1.456-1.015L12.7 5.538l1.477-1.349-1.702-1.863-1.477 1.348Zm.254 7.831 1.47-8.331-1.97-.348-1.47 8.332 1.97.348Zm1.429.986-1.675-1.834-1.477 1.35 1.675 1.833 1.477-1.349Zm-1.08-.265-7.496 2.728.684 1.88 7.495-2.729-.684-1.88ZM3.493 15.59l-.763 2.406 1.906.605.763-2.406-1.907-.605Zm.532 3.648 7.95-2.893-.684-1.88-7.95 2.894.684 1.88Zm8.562-3.53.762-2.407-1.906-.604-.763 2.406 1.907.604Zm-.533-3.649-.42.153.684 1.88.42-.153-.684-1.88Z" mask="url(#c)"/></g><defs><clipPath id="a"><path fill="#fff" d="M0 0h24v24H0z"/></clipPath><filter id="b" width="25.262" height="23.3" x="-.316" y="3" color-interpolation-filters="sRGB" filterUnits="userSpaceOnUse"><feFlood flood-opacity="0" result="BackgroundImageFix"/><feColorMatrix in="SourceAlpha" result="hardAlpha" values="0 0 0 0 0 0 0 0 0 0 0 0 0 0 0 0 0 0 127 0"/><feOffset dy="4"/><feGaussianBlur stdDeviation="2"/><feComposite in2="hardAlpha" operator="out"/><feColorMatrix values="0 0 0 0 0 0 0 0 0 0 0 0 0 0 0 0 0 0 0.25 0"/><feBlend in2="BackgroundImageFix" result="effect1_dropShadow_1_2"/><feBlend in="SourceGraphic" in2="effect1_dropShadow_1_2" result="shape"/></filter></defs></svg>