<svg width="24" height="24" viewBox="0 0 24 24" fill="none" xmlns="http://www.w3.org/2000/svg">
<path d="M24 12C24 15.1826 22.7357 18.2348 20.4853 20.4853C18.2348 22.7357 15.1826 24 12 24C8.8174 24 5.76516 22.7357 3.51472 20.4853C1.26428 18.2348 0 15.1826 0 12C0 8.8174 1.26428 5.76516 3.51472 3.51472C5.76516 1.26428 8.8174 0 12 0C15.1826 0 18.2348 1.26428 20.4853 3.51472C22.7357 5.76516 24 8.8174 24 12ZM12.32 4.81V4.8V9.64L15.48 7.75V2.92L12.32 4.81ZM1.56 10.4V10.39C1.53 17.94 7.18 16.22 8.47 15.45L11.78 13.48C13.15 12.66 14.5 11.85 15.8 11.1C17.06 10.35 19.44 9.87 19.44 13.35C19.44 16.84 16.86 17.91 15.48 17.84V11.96L12.32 13.83V20.54C12.49 20.57 13.13 20.66 14.02 20.66C16.92 20.68 22.42 19.84 22.44 13.62C22.47 6.07 16.82 7.79 15.53 8.55C14.4249 9.20706 13.3216 9.86706 12.22 10.53C10.85 11.35 9.5 12.16 8.2 12.91C6.93 13.65 4.56 14.14 4.56 10.65C4.56 7.17 7.14 6.09 8.52 6.17V12.06L11.68 10.19V3.48C11.51 3.45 10.87 3.36 9.98 3.36C7.08 3.34 1.58 4.18 1.56 10.4ZM8.52 16.27V21.09L11.68 19.21V14.37L8.52 16.27Z" fill="black"/>
</svg>
