<?xml version="1.0" encoding="UTF-8" standalone="no"?>
<svg
   width="24"
   height="24"
   viewBox="0 0 24 24"
   fill="none"
   version="1.1"
   id="svg1"
   sodipodi:docname=":qute_browser:.svg"
   inkscape:version="1.4.3 (0d15f75, 2025-12-25)"
   xmlns:inkscape="http://www.inkscape.org/namespaces/inkscape"
   xmlns:sodipodi="http://sodipodi.sourceforge.net/DTD/sodipodi-0.dtd"
   xmlns="http://www.w3.org/2000/svg"
   xmlns:svg="http://www.w3.org/2000/svg">
  <defs
     id="defs1" />
  <sodipodi:namedview
     id="namedview1"
     pagecolor="#505050"
     bordercolor="#ffffff"
     borderopacity="1"
     inkscape:showpageshadow="0"
     inkscape:pageopacity="0"
     inkscape:pagecheckerboard="1"
     inkscape:deskcolor="#505050"
     inkscape:zoom="6.5304757"
     inkscape:cx="13.015897"
     inkscape:cy="13.398718"
     inkscape:window-width="930"
     inkscape:window-height="1044"
     inkscape:window-x="858"
     inkscape:window-y="40"
     inkscape:window-maximized="0"
     inkscape:current-layer="svg1" />
  <path
     d="m 8.216,16.824113 v 5.351781 l 3.508637,-2.087417 v -5.373989 z"
     id="path3"
     style="fill:#000000;fill-opacity:1;stroke-width:1.11033" />
  <path
     d="m 0.48811571,10.306486 v -0.0111 c -0.0333099,8.382978 6.24004449,6.473213 7.67236789,5.618261 l 3.6751854,-2.187346 c 1.52115,-0.910469 3.020094,-1.809835 4.46352,-2.642581 1.399014,-0.832746 4.041595,-1.3657032 4.041595,2.498238 0,3.875046 -2.864647,5.063097 -4.3969,4.985374 v -6.52873 l -3.508636,2.076314 v 7.450302 c 0.188755,0.03331 0.899365,0.13324 1.887557,0.13324 3.219952,0.02221 9.326757,-0.910469 9.348964,-7.816711 0.03331,-8.3829782 -6.240045,-6.4732136 -7.672368,-5.6293642 -1.227024,0.7295523 -2.452049,1.462369 -3.675187,2.1984502 -1.52115,0.910469 -3.0200924,1.809835 -4.463519,2.642581 -1.4101169,0.821643 -4.0415947,1.365703 -4.0415947,-2.509342 0,-3.8639421 2.8646468,-5.0630966 4.3968997,-4.9742703 V 12.14963 l 3.508637,-2.076313 V 2.6230146 C 11.535881,2.5897047 10.825271,2.4897752 9.8370792,2.4897752 6.6171273,2.4675686 0.51032228,3.4002443 0.48811571,10.306486 Z"
     id="path2"
     style="fill:#000000;fill-opacity:1;stroke-width:1.11033" />
  <path
     d="M 12.435248,4.0997511 V 4.0886482 9.4626368 L 15.943884,7.3641165 V 2.0012308 Z"
     id="path1"
     style="fill:#000000;fill-opacity:1;stroke-width:1.11033" />
</svg>
