<svg xmlns="http://www.w3.org/2000/svg" width="24" height="24" viewBox="0 0 24 24"><title>Radarr SVG Icon</title><path fill="currentColor" d="m7.092 16.803 8.702-4.97L7.27 7.04ZM5.851 21.42a3.58 3.58 0 0 1-3.022.355 4.07 4.07 0 0 0 4.975 1.42l12.25-7.1a2.09 2.09 0 0 0 .355-3.197ZM20.586 8.459 7.986 1.18C5.496-.596 1.412.476 1.412 4.908l.179 14.025c0 1.42 1.066 2.13 2.485 1.954L3.897 4.02c0-1.599.889-1.776 1.954-1.066l14.202 7.989a3.51 3.51 0 0 1 1.777 2.658 3.997 3.997 0 0 0-1.244-5.143" style="stroke-width:1.15846"/></svg>