<svg xmlns="http://www.w3.org/2000/svg" width="24" height="24" viewBox="0 0 24 24"><path d="M8.409 0.481 C 7.117 0.819,6.240 1.951,6.240 3.280 C 6.240 4.778,7.340 5.992,8.843 6.156 C 9.838 6.264,10.879 5.796,11.461 4.980 C 11.832 4.460,12.009 3.911,12.009 3.280 C 12.009 1.664,10.726 0.393,9.104 0.402 C 8.842 0.404,8.598 0.431,8.409 0.481 M20.009 0.481 C 18.125 0.974,17.249 3.109,18.243 4.784 C 18.419 5.080,18.920 5.581,19.216 5.757 C 19.744 6.070,20.436 6.223,21.026 6.157 C 22.509 5.991,23.604 4.768,23.604 3.280 C 23.604 1.940,22.723 0.813,21.415 0.479 C 21.009 0.375,20.409 0.376,20.009 0.481 M2.609 6.278 C 0.664 6.805,-0.182 9.027,0.931 10.692 C 1.732 11.892,3.310 12.307,4.620 11.662 C 6.051 10.958,6.637 9.167,5.896 7.757 C 5.535 7.071,4.946 6.572,4.200 6.319 C 3.818 6.190,3.012 6.169,2.609 6.278 M14.200 6.280 C 12.916 6.620,12.036 7.752,12.036 9.060 C 12.036 10.686,13.305 11.964,14.920 11.964 C 17.170 11.964,18.547 9.524,17.397 7.575 C 17.082 7.042,16.437 6.536,15.811 6.330 C 15.375 6.187,14.635 6.164,14.200 6.280 M8.540 12.041 C 7.555 12.236,6.689 13.015,6.371 13.989 C 6.223 14.439,6.199 15.102,6.314 15.553 C 6.476 16.197,6.818 16.728,7.335 17.143 C 8.577 18.139,10.457 17.905,11.419 16.635 C 11.812 16.116,12.009 15.530,12.009 14.880 C 12.009 13.759,11.388 12.769,10.375 12.276 C 10.196 12.189,9.926 12.092,9.775 12.060 C 9.483 11.998,8.807 11.987,8.540 12.041 M20.140 12.038 C 18.495 12.390,17.477 14.067,17.940 15.660 C 18.307 16.925,19.413 17.760,20.720 17.760 C 23.032 17.760,24.403 15.186,23.116 13.261 C 22.771 12.746,22.244 12.345,21.632 12.132 C 21.390 12.048,21.251 12.028,20.820 12.017 C 20.534 12.010,20.228 12.019,20.140 12.038 M2.620 17.864 C 2.488 17.896,2.236 17.993,2.060 18.080 C 1.057 18.577,0.439 19.560,0.441 20.656 C 0.442 21.146,0.524 21.502,0.736 21.937 C 1.031 22.541,1.453 22.963,2.060 23.264 C 3.709 24.080,5.656 23.172,6.143 21.360 C 6.246 20.975,6.238 20.347,6.125 19.942 C 5.840 18.926,5.044 18.132,4.058 17.879 C 3.684 17.784,2.986 17.776,2.620 17.864 M14.220 17.865 C 13.887 17.945,13.385 18.198,13.101 18.428 C 11.959 19.354,11.694 21.043,12.501 22.258 C 13.178 23.278,14.452 23.779,15.615 23.481 C 16.581 23.234,17.343 22.533,17.661 21.597 C 18.129 20.221,17.496 18.719,16.180 18.079 C 16.004 17.993,15.743 17.896,15.600 17.862 C 15.273 17.785,14.543 17.787,14.220 17.865 " stroke="none" fill-rule="evenodd" fill="black"></path></svg>