<svg viewBox="0 0 24 24" width="24" height="24" xmlns="http://www.w3.org/2000/svg">
  <path
    d="M12 20.825H6c-3.292 0-6-2.708-6-6 0-2.522 1.59-4.701 3.814-5.583a7.828 7.828 0 0 0 2.38 6.254c.107.105.217.205.328.302L12 20.825Zm8.186-11.583C22.41 10.124 24 12.303 24 14.825c0 3.292-2.709 6-6 6h-6l5.478-5.027a7.69 7.69 0 0 0 .327-.302 7.829 7.829 0 0 0 2.381-6.254Z" />
  <path
    d="M17.238 5.192c2.893 2.689 2.893 7.048 0 9.737-.097.09-.195.177-.296.261L12 19.528 7.058 15.19a7.292 7.292 0 0 1-.297-.261c-2.892-2.689-2.892-7.048 0-9.737 2.894-2.689 7.585-2.689 10.477 0Z" />
</svg>