<svg xmlns="http://www.w3.org/2000/svg" xml:space="preserve" width="28" height="28" viewBox="0 0 1.12 1.12"><path d="M.48.192A.604.604 0 0 0 .304.096C.362.131.42.161.465.207.461.25.408.276.347.272.343.268.35.268.35.261.335.257.316.26.304.253c0-.004.008-.004.004-.008C.297.238.281.234.27.226.27.222.278.222.281.22.27.21.255.207.243.196.247.192.251.196.255.188.243.18.232.173.225.161c.003-.004.007 0 .01-.004C.233.146.217.138.214.127.22.127.224.13.232.123.224.11.209.108.205.093.209.088.216.092.22.088.22.077.213.069.21.058.22.054.236.058.247.054.247.05.243.046.243.043.26.035.273.043.29.046.293.04.285.04.29.031.301.031.312.04.327.04.331.03.32.03.32.023c.015 0 .027.008.038.016C.362.035.358.03.362.023c.011.004.019.012.03.02C.4.043.396.035.4.03c.012.004.02.015.027.02C.435.05.43.042.435.038.446.046.454.058.46.066.47.066.465.058.473.058c.023.027.046.057.042.096C.515.173.5.184.48.192zM.851.219C.855.222.86.222.863.222.85.234.836.234.82.242c0 .003.004.003.004.007C.813.257.795.253.783.257.779.26.786.264.783.268.767.272.752.268.733.264.698.257.672.242.66.207c.046-.05.103-.08.16-.11a.7.7 0 0 0-.175.091C.622.18.61.161.61.138.61.111.633.07.656.05l.008.012C.675.054.684.039.694.035c.004.004 0 .011.008.011C.71.043.718.031.73.027c.004.004 0 .008.008.012C.748.039.756.027.77.023c0 .004-.004.008 0 .016C.783.03.794.023.81.023.81.027.802.031.806.04.817.039.828.03.844.03c0 .004-.004.008 0 .015C.859.043.874.04.89.043.89.046.886.05.886.054c.011.004.027 0 .038.004C.92.069.91.077.91.088c.004.004.011 0 .015.004C.92.108.905.112.901.122c.004.009.012 0 .015.005C.913.138.897.146.89.157.894.165.897.161.9.161.894.173.882.176.874.188c.004.004.008.004.012.008C.878.207.863.21.85.219zM.542.559a.163.163 0 0 1-.123.153.11.11 0 0 1-.134-.103.153.153 0 0 1 .111-.153c.08-.023.146.026.146.103zM.848.593c0 .08-.07.13-.146.108A.158.158 0 0 1 .595.532a.109.109 0 0 1 .15-.084.16.16 0 0 1 .103.145zM.568.689c.039 0 .077.015.104.046a.112.112 0 0 1-.008.164c-.05.042-.13.046-.18.004A.118.118 0 0 1 .438.785C.45.735.484.708.53.693.542.693.553.689.568.689zM.71.915A.194.194 0 0 1 .76.804C.779.784.798.766.817.75.828.743.84.74.851.735.874.73.894.739.901.762a.134.134 0 0 1 0 .114.163.163 0 0 1-.122.1h-.02C.726.98.71.964.71.915zM.216.815V.804C.22.762.243.746.286.758a.2.2 0 0 1 .13.164c0 .042-.02.062-.062.054A.144.144 0 0 1 .236.888a.122.122 0 0 1-.02-.073ZM.572.437a.174.174 0 0 1-.088-.02C.434.391.434.357.477.326a.15.15 0 0 1 .187.007l.011.012C.695.368.691.39.668.41.648.425.626.429.603.433.59.437.58.437.573.437zM.565 1.094a.163.163 0 0 1-.119-.053C.431 1.026.431 1.01.45.999A.217.217 0 0 1 .534.972.292.292 0 0 1 .649.98L.675.99c.023.012.027.023.008.046l-.004.004a.138.138 0 0 1-.114.053zM.25.59C.25.632.244.67.229.708a.062.062 0 0 1-.015.027C.2.75.193.75.182.739.128.685.136.582.202.536.223.516.238.521.246.551c0 .012.004.027.004.039zM.981.647c0 .03-.011.065-.034.092-.011.011-.02.011-.03 0A.134.134 0 0 1 .893.685C.882.647.878.605.882.563A.07.07 0 0 1 .89.536C.897.521.905.516.92.528.96.551.981.593.981.647zM.24.479A.135.135 0 0 1 .292.352a.177.177 0 0 1 .138-.03C.43.333.423.34.419.349.392.383.358.409.327.437.308.452.29.463.27.475.255.479.247.486.24.479zM.894.482C.886.486.874.482.867.475A.547.547 0 0 1 .79.42 1.27 1.27 0 0 1 .718.352C.714.345.706.337.706.33.73.318.806.322.844.356c.038.03.061.092.05.126z"/></svg>