<svg xmlns="http://www.w3.org/2000/svg" xml:space="preserve" width="24" height="24" style="clip-rule:evenodd;fill-rule:evenodd;stroke-linejoin:round;stroke-miterlimit:1.41421" viewBox="0 0 24 24"><path d="M23.017 12.39a7.3 7.3 0 0 0-3.125-2.917 8 8 0 0 1-.932 2.522l-.733 1.271a3.188 3.188 0 1 1-4.309 4.377l-1.478-2.557h-2.386l-1.193 2.066 1.48 2.556a7.318 7.318 0 1 0 12.676-7.318" style="clip-rule:evenodd;fill:#000;fill-rule:nonzero;stroke-width:.34315;stroke-linejoin:round;stroke-miterlimit:1.41421;fill-opacity:1"/><path d="M15.687 1.654A7.318 7.318 0 0 0 4.726 8.497a8 8 0 0 1 2.65-.453l1.467-.001a3.17 3.17 0 0 1 .424-1.644 3.188 3.188 0 0 1 5.52 3.187l-1.474 2.559 1.193 2.066h2.385l1.474-2.56a7.32 7.32 0 0 0-2.678-9.997" style="clip-rule:evenodd;fill:#000;fill-rule:nonzero;stroke-width:.34315;stroke-linejoin:round;stroke-miterlimit:1.41421;fill-opacity:1"/><path d="m9.747 20.051-.735-1.27a3.17 3.17 0 0 1-1.636.456 3.188 3.188 0 1 1 0-6.376l2.953-.002 1.193-2.065-1.193-2.066-2.953.003a7.318 7.318 0 1 0 4.086 13.39 8 8 0 0 1-1.715-2.07" style="clip-rule:evenodd;fill:#000;fill-rule:nonzero;stroke-width:.34315;stroke-linejoin:round;stroke-miterlimit:1.41421;fill-opacity:1"/></svg>