<svg width="24" height="24" viewBox="0 0 24 24" fill="none" xmlns="http://www.w3.org/2000/svg">
<path d="M19.5801 19.99C20.7991 19.8863 21.9335 19.3238 22.7539 18.4162C23.5743 17.5085 24.0197 16.3233 24.0001 15.1C24.0073 14.0982 23.7073 13.1183 23.1406 12.2922C22.5738 11.4662 21.7674 10.8337 20.8301 10.48C20.7663 8.75764 20.0441 7.1254 18.8124 5.91976C17.5807 4.71413 15.9334 4.02699 14.2101 4C12.2101 4 10.4001 4.93 9.18007 6.39C8.54789 6.26816 7.89763 6.27501 7.26816 6.41015C6.63869 6.54529 6.04292 6.80593 5.51645 7.17651C4.98999 7.54709 4.54363 8.02 4.20405 8.56698C3.86447 9.11396 3.63865 9.72378 3.54007 10.36C2.51151 10.6519 1.60761 11.2742 0.967837 12.1309C0.328065 12.9875 -0.0120171 14.0309 6.71193e-05 15.1C6.71193e-05 17.7 1.95007 19.82 4.42007 19.99H4.65007C4.70673 19.991 4.76341 19.991 4.82007 19.99H19.1801L19.2101 20H19.5801V19.99V19.99ZM14.9901 9.75H15.0001H17.5101L15.4701 11.28L16.2501 13.76L14.2101 12.23L12.1701 13.76L12.9501 11.28L10.9101 9.75H13.4301L14.2101 7.26L14.9901 9.75Z" fill="black"/>
</svg>
