<svg xmlns="http://www.w3.org/2000/svg" width="22" height="25" fill="none"><path fill="#000" fill-rule="evenodd" d="M12.097.223a1.374 1.374 0 0 0-1.374 0L1.521 5.536a1.374 1.374 0 0 0-.687 1.19v10.626c0 .49.262.944.687 1.19l9.202 5.312c.425.246.949.246 1.374 0l9.202-5.313c.426-.245.688-.699.688-1.19V6.726c0-.49-.262-.944-.688-1.19L12.097.224ZM2.818 12.037c0 4.454 3.437 8.11 7.816 8.486v-4.622c-1.769-.359-3.101-1.945-3.101-3.847 0-.444.072-.87.206-1.268l-4.11-2.373a8.447 8.447 0 0 0-.81 3.624Zm1.586-4.94 4.093 2.364a3.828 3.828 0 0 1 2.898-1.33c1.16 0 2.2.519 2.908 1.341l4.074-2.351a8.567 8.567 0 0 0-6.995-3.602 8.567 8.567 0 0 0-6.978 3.579Zm15.542 4.94c0 4.444-3.42 8.093-7.785 8.484V15.9c1.766-.361 3.096-1.946 3.096-3.846 0-.438-.07-.86-.201-1.253l4.09-2.362c.514 1.093.8 2.312.8 3.598Z" clip-rule="evenodd"/></svg>