<svg version="1.1" id="svg1" width="24" height="24" viewBox="0 0 24 24" xmlns="http://www.w3.org/2000/svg">
   <defs id="defs1" />
   <g id="g1">
      <path style="fill:#000000;stroke-width:0.0976385"
         d="M 5.3206342,23.929276 C 3.6604466,23.729465 2.6632934,23.256352 1.5533038,22.141813 0.41912816,21.00299 0.13413446,20.374606 0.04116886,18.807698 -0.05684274,17.155738 0.03546536,6.6832155 0.15776986,5.5791016 0.21351896,5.0758221 0.34279956,4.3941796 0.44505996,4.0643405 1.0370178,2.1549913 2.7066455,0.66082334 4.7332879,0.22675884 c 0.9985731,-0.2138735 10.7292401,-0.311596 13.5595651,-0.136175 1.767266,0.1095335 1.946749,0.138295 2.52952,0.4053446 0.886425,0.4061967 2.009526,1.55856496 2.475462,2.53996976 0.699206,1.4727425 0.701741,1.5046556 0.701741,8.8332168 0,7.29369 0.0414,6.799145 -0.693426,8.284172 -0.855432,1.728775 -2.260741,2.944609 -4.184115,3.619983 -0.56896,0.199785 -0.759661,0.206059 -6.828558,0.224671 -3.4337894,0.01053 -6.5715683,-0.02037 -6.9728428,-0.06867 z M 18.359343,19.484019 c 0.951376,-0.459976 1.506517,-1.357402 1.506517,-2.435399 0,-2.47721 -2.91175,-3.704508 -4.65222,-1.960904 -1.110896,1.112897 -1.102776,2.815911 0.01863,3.908691 0.882619,0.860084 1.997205,1.033884 3.127068,0.487612 z M 6.0086051,18.148044 c 0.7171665,-0.373711 1.1871665,-0.976619 1.3483775,-1.729675 0.170257,-0.79531 0.185514,-0.786783 -1.4077783,-0.786783 -1.1400069,0 -1.4252896,0.02826 -1.5503763,0.15357 -0.1226895,0.122911 -0.1532942,0.39281 -0.1532942,1.351883 0,0.659073 0.029265,1.227632 0.065034,1.263465 0.035768,0.03583 0.2953203,0.06515 0.5767816,0.06515 0.3872954,0 0.6599746,-0.07724 1.1212557,-0.317611 z m 5.1194239,-4.829623 c 0.857951,-0.460143 1.403345,-1.27753 1.407183,-2.10896 l 0.0021,-0.464201 H 8.4506136 c -3.6365437,0 -4.0932196,0.01703 -4.1459095,0.154582 -0.1170535,0.305586 -0.064919,2.439226 0.062726,2.567106 0.093728,0.0939 0.8441227,0.11538 3.2435655,0.09284 2.9869574,-0.02806 3.1386834,-0.03847 3.5169914,-0.241367 z m 4.726053,-4.7274235 c 1.719314,-0.272583 3.071769,-1.632327 3.30215,-3.3199476 0.04297,-0.3147872 0.0397,-0.6410599 -0.0073,-0.7251466 C 19.072779,4.4095299 18.336095,4.3930351 12.321588,4.3930351 H 5.5796111 L 5.1649391,4.6364867 C 4.9368696,4.7703851 4.6476767,5.045241 4.5222882,5.2472775 4.3161575,5.5794128 4.2910573,5.7498733 4.2603763,7.0259705 c -0.030452,1.266573 -0.016031,1.424467 0.1405834,1.539192 0.2209967,0.161888 10.4494413,0.18496 11.4531223,0.02583 z"
         id="path1" />
   </g>
</svg>