<?xml version="1.0" encoding="UTF-8" standalone="no"?>
<svg
   version="1.1"
   id="svg1"
   width="24"
   height="24"
   viewBox="0 0 24 24"
   sodipodi:docname=":remind_me_faster:.svg"
   inkscape:version="1.4.3 (0d15f75, 2025-12-25)"
   xmlns:inkscape="http://www.inkscape.org/namespaces/inkscape"
   xmlns:sodipodi="http://sodipodi.sourceforge.net/DTD/sodipodi-0.dtd"
   xmlns="http://www.w3.org/2000/svg"
   xmlns:svg="http://www.w3.org/2000/svg">
  <sodipodi:namedview
     id="namedview1"
     pagecolor="#505050"
     bordercolor="#ffffff"
     borderopacity="1"
     inkscape:showpageshadow="0"
     inkscape:pageopacity="0"
     inkscape:pagecheckerboard="1"
     inkscape:deskcolor="#505050"
     inkscape:zoom="8.8706311"
     inkscape:cx="11.498618"
     inkscape:cy="15.275125"
     inkscape:window-width="930"
     inkscape:window-height="1044"
     inkscape:window-x="858"
     inkscape:window-y="40"
     inkscape:window-maximized="0"
     inkscape:current-layer="svg1" />
  <defs
     id="defs1" />
  <g
     id="g1"
     transform="matrix(1.5030242,0,0,1.5030242,-5.9768136,-6.168735)">
    <path
       style="fill:#000000;stroke-width:0.0976385"
       d="m 15.854082,8.5909975 c 1.719314,-0.272583 3.071769,-1.632327 3.30215,-3.3199476 0.04297,-0.3147872 0.0397,-0.6410599 -0.0073,-0.7251466 C 19.072779,4.4095299 18.336095,4.3930351 12.321588,4.3930351 H 5.5796111 L 5.1649391,4.6364867 C 4.9368696,4.7703851 4.6476767,5.045241 4.5222882,5.2472775 4.3161575,5.5794128 4.2910573,5.7498733 4.2603763,7.0259705 c -0.030452,1.266573 -0.016031,1.424467 0.1405834,1.539192 0.2209967,0.161888 10.4494413,0.18496 11.4531223,0.02583 z"
       id="path4" />
    <path
       style="fill:#000000;stroke-width:0.0976385"
       d="m 11.128029,13.318421 c 0.857951,-0.460143 1.403345,-1.27753 1.407183,-2.10896 l 0.0021,-0.464201 H 8.4506136 c -3.6365437,0 -4.0932196,0.01703 -4.1459095,0.154582 -0.1170535,0.305586 -0.064919,2.439226 0.062726,2.567106 0.093728,0.0939 0.8441227,0.11538 3.2435655,0.09284 2.9869574,-0.02806 3.1386834,-0.03847 3.5169914,-0.241367 z"
       id="path3" />
    <path
       style="fill:#000000;stroke-width:0.0976385"
       d="m 6.0086051,18.148044 c 0.7171665,-0.373711 1.1871665,-0.976619 1.3483775,-1.729675 0.170257,-0.79531 0.185514,-0.786783 -1.4077783,-0.786783 -1.1400069,0 -1.4252896,0.02826 -1.5503763,0.15357 -0.1226895,0.122911 -0.1532942,0.39281 -0.1532942,1.351883 0,0.659073 0.029265,1.227632 0.065034,1.263465 0.035768,0.03583 0.2953203,0.06515 0.5767816,0.06515 0.3872954,0 0.6599746,-0.07724 1.1212557,-0.317611 z"
       id="path2" />
    <path
       style="fill:#000000;stroke-width:0.0976385"
       d="m 18.359343,19.484019 c 0.951376,-0.459976 1.506517,-1.357402 1.506517,-2.435399 0,-2.47721 -2.91175,-3.704508 -4.65222,-1.960904 -1.110896,1.112897 -1.102776,2.815911 0.01863,3.908691 0.882619,0.860084 1.997205,1.033884 3.127068,0.487612 z"
       id="path1" />
  </g>
</svg>
