<svg xmlns="http://www.w3.org/2000/svg" width="24" height="24" viewBox="-5 -10 24 24"><path d="M17.302-6.115h-20.63c-.847 0-1.536.69-1.536 1.536V8.4c0 .847.689 1.536 1.536 1.536h20.63c.846 0 1.535-.69 1.535-1.536l.001-12.978c0-.847-.689-1.536-1.536-1.536m-3.79 8.026v3.83c0 2.247-3.154 2.7-8.243 2.7s-8.244-.453-8.244-2.7v-7.66c0-2.248 3.155-2.7 8.244-2.7s8.244.452 8.244 2.7zm2.948 6.166a1.426 1.426 0 1 1 0-2.852 1.426 1.426 0 0 1 0 2.852m0-4.142a1.426 1.426 0 1 1 0-2.852 1.426 1.426 0 0 1 0 2.852m1.496-4.414h-2.993a.272.272 0 1 1 0-.544h2.993a.272.272 0 1 1 0 .544m0-1.128h-2.993a.272.272 0 1 1 0-.544h2.993a.272.272 0 1 1 0 .544m0-1.13h-2.993a.272.272 0 1 1 0-.543h2.993a.272.272 0 1 1 0 .544m0-1.127h-2.993a.272.272 0 1 1 0-.544h2.993a.272.272 0 1 1 0 .544" style="stroke-width:.293456"/></svg>