<svg viewBox="0 0 24 24" width="24" height="24" xmlns="http://www.w3.org/2000/svg">
  <path fill-rule="nonzero" clip-rule="nonzero"
    d="M12 8.16145H3.87629c-.79466 0-1.43613-.64579-1.43613-1.44579V1.90603c0-.8.64147-1.445787 1.43613-1.445787h6.68761C11.3585.460243 12 1.10603 12 1.90603v6.25542ZM20.1237 15.8578H12V8.16145h8.1237c.7899 0 1.4314.64578 1.4314 1.44096V14.412c0 .8-.6415 1.4458-1.4314 1.4458ZM10.5639 23.559H3.87629c-.78987 0-1.43134-.6457-1.43134-1.4409v-4.8097c0-.7951.64147-1.4409 1.43134-1.4409H12v6.2554c0 .7855-.6415 1.4361-1.4361 1.4361Z" />
</svg>