<svg width="22" height="23" viewBox="0 0 22 23" fill="none" xmlns="http://www.w3.org/2000/svg">
<path fill-rule="evenodd" clip-rule="evenodd" d="M0.226662 7.09408C-0.266463 6.18376 0.0717451 5.04603 0.982072 4.55291L8.96849 0.226661C9.87881 -0.266463 11.0165 0.071746 11.5097 0.982072L11.8151 1.54599L13.6097 1.24287C14.6306 1.07044 15.5979 1.75823 15.7703 2.77908L16.0031 4.1571L17.2181 4.17904C18.2533 4.19772 19.0773 5.05202 19.0586 6.08716L19.0544 6.31895L20.6399 6.77196C21.6354 7.05638 22.2118 8.09394 21.9274 9.08942L18.5653 20.8565C18.2809 21.852 17.2433 22.4284 16.2479 22.144L8.80308 20.0169L7.84815 19.9997C6.87036 19.982 6.08097 19.2188 6.01224 18.2618C5.57298 17.9877 5.24866 17.534 5.15564 16.9833L4.96172 15.8352L0.226662 7.09408ZM14.0234 8.11879C11.5776 8.11879 9.59495 10.1015 9.59495 12.5472C9.59495 14.993 11.5776 16.9757 14.0234 16.9757C16.4692 16.9757 18.4518 14.993 18.4518 12.5472C18.4518 10.1015 16.4692 8.11879 14.0234 8.11879Z" fill="black"/>
</svg>
