<svg xmlns="http://www.w3.org/2000/svg" width="24" height="24" viewBox="0 0 24 24"><path d="M18.53 4.377c0-.72-.368-1.418-1.037-1.8-1-.58-2.27-.242-2.851.75l-6.37 10.926-2.389 4.1c-.19.33-.279.69-.279 1.05 0 .72.367 1.419 1.036 1.801.323.191.683.28 1.036.287h.022c.713 0 1.404-.375 1.793-1.036l6.37-10.927 2.389-4.1c.19-.33.28-.69.28-1.05m-.537 7.51a9.57 9.57 0 0 0-3.63 7.51c0 2.094.933 2.079 2.08 2.086a2.096 2.096 0 0 0 2.093-2.086 5.43 5.43 0 0 1 5.387-5.423l.014-4.167A9.54 9.54 0 0 0 18 11.887zm-8.215-7.51A2.085 2.085 0 0 0 7.69 2.29a2.085 2.085 0 0 0-2.087 2.087A5.427 5.427 0 0 1 .211 9.8H.07L.056 13.96c2.256 0 4.446-.779 6.084-2.08a9.57 9.57 0 0 0 3.63-7.51zm14.152 5.43a5.44 5.44 0 0 1-5.4-5.43c0 .36-.09.72-.28 1.051l-2.388 4.1a9.6 9.6 0 0 0 2.13 2.366 9.5 9.5 0 0 1 5.938-2.08zM5.89 18.353l2.389-4.1a9.6 9.6 0 0 0-2.131-2.366c-1.646 1.308-3.836 2.08-6.092 2.08 2.998 0 5.548 2.439 5.548 5.43 0-.36.088-.72.28-1.051z" style="fill:#000;fill-opacity:1;stroke-width:.192002"/></svg>