<svg width="24" height="24" viewBox="0 0 24 24" xmlns="http://www.w3.org/2000/svg">
  <path
    d="M5.667 0c-1.675 0-3.15.471-4.173 1.494C.471 2.517 0 3.99 0 5.667v12.666c0 1.676.471 3.15 1.494 4.173C2.517 23.53 3.992 24 5.667 24h12.667c1.675 0 3.15-.47 4.173-1.494C23.529 21.483 24 20.01 24 18.333V5.667c0-1.676-.47-3.15-1.493-4.173C21.484.47 20.009 0 18.333 0H5.668Zm0 2.286h12.667c1.265 0 2.053.32 2.557.824s.824 1.291.824 2.557v12.666c0 1.266-.32 2.054-.824 2.557-.504.504-1.292.824-2.557.824H5.667c-1.265 0-2.053-.32-2.557-.824-.504-.503-.824-1.291-.824-2.557V5.667c0-1.266.32-2.053.824-2.557s1.292-.824 2.557-.824Z" />
  <path
    d="m14.383 6.402-1.514 1.551-.002.002-.006.006 1.665.335c-.236 1.046-.977 1.81-1.855 1.81-1.069 0-1.934-1.131-1.934-2.527 0-1.396.866-2.526 1.934-2.526.743 0 1.389.547 1.712 1.35Zm-6.316 0L6.553 7.953l-.002.002-.005.006 1.665.335c-.237 1.046-.978 1.81-1.855 1.81-1.07 0-1.935-1.131-1.935-2.527 0-1.396.866-2.526 1.935-2.526.742 0 1.388.547 1.711 1.35Z" />
</svg>