<svg xmlns="http://www.w3.org/2000/svg" data-name="Layer 1" viewBox="0 0 24 24"><path d="M11.770 5.026 C 11.685 5.061,11.506 5.418,9.318 9.920 C 6.275 16.180,5.898 16.977,5.873 17.186 C 5.861 17.294,5.867 17.299,6.000 17.287 C 6.261 17.264,6.424 17.160,10.200 14.625 C 13.891 12.147,14.903 11.449,15.085 11.254 L 15.180 11.154 13.681 8.167 C 12.856 6.524,12.141 5.140,12.093 5.090 C 12.009 5.005,11.884 4.981,11.770 5.026 M0.320 7.640 C 0.276 7.684,0.240 7.746,0.240 7.779 C 0.240 7.949,3.407 16.696,3.625 17.129 C 3.729 17.335,3.852 17.399,3.997 17.322 C 4.086 17.274,4.809 15.859,5.949 13.500 C 6.622 12.110,6.714 11.896,6.690 11.790 C 6.681 11.751,6.329 11.479,5.907 11.186 C 4.826 10.436,0.766 7.706,0.612 7.626 C 0.448 7.541,0.417 7.543,0.320 7.640 M23.168 7.760 C 22.893 7.885,11.219 15.742,8.000 17.968 C 7.020 18.646,6.878 18.786,7.090 18.863 C 7.213 18.907,17.467 18.931,18.631 18.889 L 19.563 18.856 19.722 18.697 C 19.906 18.513,19.714 19.021,21.913 12.900 C 23.629 8.121,23.640 8.091,23.640 7.907 C 23.640 7.674,23.472 7.622,23.168 7.760 " stroke="none" fill-rule="evenodd"></path></svg>