<svg xmlns="http://www.w3.org/2000/svg" data-name="Layer 1" viewBox="0 0 24 24"><path d="M23.93 12c0 2.09.02 4.18 0 6.27a5.76 5.76 0 0 1-.76 3 5.01 5.01 0 0 1-2.7 2.22c-.77.27-1.57.35-2.38.35H5.94c-.98 0-1.96-.12-2.86-.55a4.95 4.95 0 0 1-2.85-3.83c-.12-.75-.15-1.52-.15-2.28V6.41c0-.9.04-1.81.29-2.69A4.97 4.97 0 0 1 2.38.95a5.29 5.29 0 0 1 2.96-.9C6.96.03 8.59 0 10.22 0c2.63 0 5.25 0 7.88.02 1.14 0 2.25.15 3.25.75a4.88 4.88 0 0 1 2.28 2.94c.23.8.29 1.62.3 2.44V12Zm-10.92 5.5h4.74c.36 0 .54-.12.66-.45.31-.83.6-1.67.9-2.51l1.44-3.99.62-1.74c.03-.09.02-.26-.04-.3-.06-.05-.21-.01-.31 0-.04 0-.09.04-.13.07l-1.83 1.23-2.98 2-2.56 1.73-5.35 3.62c-.08.06-.12.17-.18.26.1.03.19.08.29.08h4.74Zm1.54-6.23-.1-.25-2.28-4.54c-.04-.08-.16-.18-.24-.17-.08 0-.18.11-.22.19L9.3 11.46l-2.18 4.48c-.04.08-.02.18-.03.27.1 0 .2 0 .3-.02.04 0 .08-.05.13-.08l2.31-1.55 4.56-3.07c.07-.05.11-.15.17-.22ZM2.8 8.38c-.18 0-.27.13-.21.3l.75 2.09 1.33 3.67.61 1.64c.09.23.27.25.42.05l.08-.15 1.9-3.88c.14-.3.13-.37-.16-.56L4.8 9.73 2.98 8.48l-.17-.1Z" style="fill:#000;stroke-width:0"/></svg>