<svg xmlns="http://www.w3.org/2000/svg" width="24" height="24" viewBox="0 0 24 24"><path fill-rule="evenodd" d="M11.721.245c-.054.021-.243.036-.42.033-.698-.012-1.252.06-1.229.16q.013.053-.09.033C9.926.46 9.88.469 9.88.49s-.027.028-.06.015c-.034-.012-.11-.002-.17.023a.4.4 0 0 1-.164.036q-.051-.008-.023.04.032.052-.036.024C9.39.614 9.36.62 9.36.642c0 .048-.173.119-.34.141-.158.02-.3.097-.3.164 0 .029-.034.053-.075.053a.19.19 0 0 0-.125.06.2.2 0 0 1-.135.06c-.047 0-.12.045-.161.1s-.098.1-.125.1c-.028 0-.06.025-.072.056s-.122.123-.246.205c-.123.082-.251.202-.285.267a.6.6 0 0 1-.195.197c-.138.081-.244.212-.329.405-.026.06-.068.11-.092.11-.053 0-.218.347-.219.46-.001.044-.023.076-.05.07s-.038.016-.025.05c.012.033.003.06-.02.06s-.053.067-.067.15-.068.24-.121.35c-.059.123-.087.235-.073.29.018.065.007.09-.038.09-.034 0-.071-.015-.083-.033-.011-.018-.304-.037-.652-.042-.476-.007-.681.006-.832.053-.11.033-.275.061-.368.062-.092 0-.177.016-.189.036s-.072.048-.133.063a.43.43 0 0 0-.182.105c-.04.043-.09.067-.11.055s-.038-.006-.038.015-.041.03-.09.019q-.092-.022-.038.017c.061.044.005.103-.141.148-.111.033-.435.301-.421.348.006.019-.01.03-.035.024s-.084.062-.131.15c-.046.088-.095.151-.107.14-.03-.026-.157.102-.157.157a.043.043 0 0 1-.043.043c-.024 0-.032.034-.017.08q.025.08-.035.104a.06.06 0 0 0-.038.079c.012.031-.001.057-.029.057s-.04.011-.027.025c.014.013-.019.09-.073.169-.092.135-.098.178-.098.672 0 .341-.015.532-.043.542-.026.008-.032.057-.016.123.015.06.042.099.06.088.057-.035.088.222.041.335-.047.115-.245.218-.345.179-.031-.012-.057-.002-.057.023 0 .024-.013.042-.03.039-.134-.021-.243.014-.261.085-.012.043-.066.096-.121.117a.8.8 0 0 0-.202.14c-.056.057-.13.103-.164.103A.06.06 0 0 0 1 8.46c0 .033-.03.06-.067.06-.036 0-.055.011-.042.024.014.014-.028.069-.092.123-.065.054-.113.12-.108.146s-.014.042-.042.037-.067.033-.087.086c-.021.053-.054.107-.076.12s-.029.06-.017.105c.016.062.006.074-.044.055-.039-.015-.067-.003-.071.03l-.012.114a1.2 1.2 0 0 1-.089.232c-.074.156-.08.225-.062.74.011.325.038.579.061.595.023.014.043.091.045.169.002.091.023.144.056.144.031 0 .044.028.031.07-.024.076.024.179.08.174.02-.002.036.023.036.055.001.032.037.085.08.118.06.046.065.061.02.062-.035.001-.018.023.039.052a.42.42 0 0 1 .157.209q.091.246.171.196c.027-.017.226.129.612.446.065.054.146.098.181.098.034 0 .102.028.151.062.049.035.09.048.09.03.001-.017.034.007.073.054.065.077.283.137.536.148.039.002.07.014.07.028 0 .033.322.053.6.039.121-.007.319-.014.44-.016.121-.003.232-.022.247-.042.042-.059.327.07.378.172.04.081.196.194.258.187.057-.006.557.44.541.483-.011.026.007.058.039.07.031.013.057.004.057-.02 0-.023.023-.034.05-.025a.08.08 0 0 1 .05.07c0 .029.027.061.06.07.053.014.053.011 0-.026-.033-.024-.042-.043-.02-.043.061 0 .147.063.142.103-.003.02.063.047.147.06.083.014.133.027.111.031-.022.003-.013.024.02.046s.114.029.18.017q.12-.022.067.014c-.092.064.06.092.583.11.304.01.49.002.49-.023 0-.055.19-.049.208.006.01.028.05.035.104.017.05-.015.077-.047.063-.071q-.027-.043.079-.016c.058.015.106.01.106-.01s.028-.047.062-.06q.06-.022.035.019-.022.042.048.027c.041-.008.072-.034.068-.056s.045-.059.11-.084q.119-.045.091-.002c-.078.128.56-.204.752-.39.048-.047.074-.052.095-.018.015.026.071.038.124.028.077-.015.087-.008.05.036q-.062.08.09.061c.014-.001.057.032.096.076.039.043.109.077.155.075.084-.002.084-.002-.002-.037a.3.3 0 0 1-.114-.081c-.016-.025.026-.017.094.018a.45.45 0 0 1 .165.142c.025.045.104.089.191.104a.54.54 0 0 1 .214.083c.036.031.094.045.13.031s.066-.006.066.019c0 .024.019.044.042.044s.032-.018.018-.04.002-.029.038-.015c.034.013.051.041.038.062-.015.023.033.027.126.01q.147-.027.125.012c-.047.076.265.086 1.096.037.123-.007.244-.026.269-.041.093-.058.511-.183.613-.184.235-.002.751-.27.695-.361-.012-.019 0-.047.026-.063q.044-.027.018.017c-.055.088.044.045.229-.099.103-.08.187-.164.187-.187s-.032-.013-.07.02a.7.7 0 0 1-.13.089c-.033.016-.008-.016.055-.07.099-.084.171-.102.265-.065.011.004.032.006.046.004.015-.002.048.023.075.055.027.033.074.059.104.059s.055.017.055.039.026.029.057.017q.056-.021.07.071c.007.051.04.093.073.093s.096.037.14.083c.096.098.3.23.3.192 0-.014-.032-.051-.07-.081-.061-.048-.056-.049.04-.008.06.026.11.071.11.1s.049.063.11.075c.061.013.165.05.232.083s.149.049.183.036c.068-.026.28.043.318.105.013.021.254.047.534.057.281.01.526.028.547.04.02.013.036.003.036-.02 0-.024.049-.041.11-.037a.6.6 0 0 0 .22-.038c.06-.025.136-.034.17-.022.033.013.06.006.06-.015s.045-.03.1-.02c.061.012.1.001.1-.028 0-.028.03-.038.074-.024.109.035.205-.013.177-.088-.019-.049-.005-.058.062-.04.048.012.078.008.067-.01-.011-.017.009-.043.044-.056.094-.036.124-.028.056.016-.145.094.095.035.273-.067.231-.133.225-.128.196-.158-.014-.013-.093.017-.177.067-.191.114-.134.056.133-.135.2-.143.32-.196.223-.099-.026.026-.047.067-.047.09.001.023.037 0 .08-.052s.07-.108.06-.124c-.01-.017.029-.073.086-.126l.105-.096-.076.12-.076.12.1-.066c.055-.036.098-.093.095-.127-.003-.036.017-.052.05-.04.03.012.055.001.055-.025s.018-.036.04-.022.04.007.04-.014.012-.072.027-.113c.025-.065.02-.067-.04-.017-.06.048-.066.047-.044-.009a.17.17 0 0 1 .101-.088c.043-.014.067-.041.054-.062-.012-.02.005-.037.04-.037.034 0 .062.018.062.04 0 .025.03.022.077-.007.056-.035.091-.036.13-.004.029.024.197.046.373.048s.392.022.48.043c.201.048.23.049.203.005-.029-.047.421-.096.56-.061.077.02.101.014.081-.018q-.027-.045.074-.046c.056 0 .102-.02.102-.044 0-.028.039-.035.106-.018.187.047.761-.233 1.114-.543.077-.068.13-.139.118-.159s.005-.025.039-.012c.062.024.36-.26.318-.303-.012-.011-.062.029-.11.089s-.104.11-.124.11.024-.062.097-.138.145-.135.158-.13c.064.02.197-.129.243-.272.028-.088.101-.295.162-.46.159-.427.211-.745.192-1.159-.01-.198-.003-.338.014-.311q.034.057.032-.01c0-.068-.076-.202-.08-.14-.001.022-.026-.023-.055-.1l-.097-.25c-.025-.062-.029-.11-.008-.11.05 0-.03-.223-.102-.283q-.056-.046-.057-.004a.1.1 0 0 0 .04.067c.022.014.04.046.04.072s-.061-.043-.135-.153c-.075-.109-.12-.205-.1-.212s.035-.03.035-.049c0-.061-.404-.44-.443-.416-.02.013-.037-.007-.037-.044 0-.041-.022-.058-.056-.045s-.067-.013-.083-.066q-.026-.081-.047-.037c-.033.08-.176-.016-.149-.101q.026-.075-.015-.016c-.031.043-.063.038-.167-.026q-.133-.079-.076-.103c.029-.013.006-.016-.052-.005-.08.015-.111.002-.125-.055-.028-.104-.424-.238-.474-.159-.028.044-.035.042-.035-.011-.001-.046-.049-.075-.156-.093-.219-.037-.333-.178-.302-.372a1.6 1.6 0 0 0-.022-.409l-.064-.36c-.016-.088-.014-.09.02-.02q.037.081.04.02A.25.25 0 0 0 21.04 6c-.021-.033-.039-.042-.04-.02s-.078-.113-.172-.3a16 16 0 0 0-.217-.42.8.8 0 0 1-.07-.193c-.014-.065-.045-.105-.072-.095-.071.025-.189-.045-.189-.113 0-.033-.016-.059-.035-.059s-.045-.036-.057-.08c-.011-.044-.049-.08-.084-.08s-.064-.015-.064-.033-.022-.034-.05-.034c-.074 0-.51-.289-.51-.337 0-.022-.016-.031-.036-.018-.051.031-.168-.019-.142-.061.012-.019-.029-.047-.09-.061a.6.6 0 0 1-.162-.066c-.027-.022-.146-.044-.264-.049a.9.9 0 0 1-.376-.1c-.126-.071-.192-.084-.296-.061-.177.041-.763.042-1.014.003a5 5 0 0 0-.251-.034c-.03-.001-.041-.031-.027-.076.013-.04.007-.073-.014-.073-.057 0-.173-.338-.145-.424q.026-.077-.012-.026c-.026.037-.055.011-.103-.091-.084-.174-.087-.219-.009-.117.049.066.059.068.06.013.001-.072-.093-.168-.13-.131-.013.013-.052-.037-.088-.11-.061-.126-.061-.129.002-.054.06.071.065.072.042.007a1 1 0 0 1-.025-.091c0-.01-.042-.034-.093-.053q-.092-.036-.142-.201c-.027-.092-.08-.177-.117-.19-.1-.035-.288-.219-.264-.258.011-.019.004-.034-.017-.034s-.047-.036-.059-.08-.054-.08-.095-.08c-.084 0-.479-.312-.463-.365.005-.019-.026-.035-.07-.035S15 1.295 15 1.265s-.055-.066-.122-.079a.53.53 0 0 1-.23-.142c-.133-.145-.479-.323-.634-.326-.125-.003-.751-.23-.654-.238.034-.003.017-.022-.037-.044s-.119-.031-.146-.021a.09.09 0 0 1-.082-.011 1 1 0 0 0-.212-.086c-.13-.041-.181-.043-.192-.01-.017.05-.284.026-.347-.031-.02-.018-.085-.023-.145-.011s-.122.002-.137-.022c-.033-.053-.206-.053-.341.001m8.959 5.02c0 .047.027.108.06.135.076.063.076.039 0-.105-.052-.1-.06-.104-.06-.03m.426 1.115a1 1 0 0 0 .039.177c.031.034.008-.18-.027-.257q-.037-.086-.012.08m1.955 1.852c-.012.013-.045 0-.072-.027-.039-.04-.034-.044.023-.022.039.015.061.037.049.049m.605.948c.012.033.03.06.038.06s.016-.027.016-.06-.017-.06-.039-.06-.028.027-.015.06m.162 1.02a5 5 0 0 1-.049.52q-.025.104.012.04c.069-.113.143-.739.101-.864-.032-.096-.043-.042-.064.304m-.129.74a8 8 0 0 1-.105.256c-.041.097-.066.185-.055.196.03.03.227-.434.207-.487-.009-.025-.03-.009-.047.035m-.344.68c-.08.135-.155.212-.155.16 0-.029.202-.3.223-.3.008 0-.023.063-.068.14m-22.306.667c.008.025.059.074.113.108l.098.061-.097-.108c-.105-.117-.139-.135-.114-.061m21.511.116c-.139.114-.333.237-.374.237-.019 0 .071-.072.2-.159.254-.172.334-.208.174-.078m-21.279.087q-.001.07.089.067t.03-.026a.2.2 0 0 1-.089-.067q-.03-.04-.03.026m.548.315c.027.027.06.04.072.027.012-.012-.01-.034-.049-.049-.057-.022-.062-.018-.023.022m2.691.415c.041.049.038.06-.015.06-.036 0-.065-.027-.065-.06s.007-.06.015-.06.038.027.065.06m9.525.21c.05.063.048.065-.015.015-.067-.052-.088-.085-.055-.085.008 0 .04.032.07.07m-9.445.002c0 .027.018.048.04.048s.04.025.04.055c0 .066.112.167.147.132.013-.014-.032-.083-.101-.154s-.126-.107-.126-.081m4.198.251c-.024.046-.055.074-.067.061s-.096.031-.185.097a.8.8 0 0 1-.203.119c-.033 0 .443-.348.488-.358.007-.001-.008.036-.033.081m-3.878.014c0 .042.12.156.142.134.01-.01-.018-.051-.062-.091s-.08-.059-.08-.043m13.6.063c0 .022.018.04.04.04a.04.04 0 0 0 .04-.04.04.04 0 0 0-.04-.04.04.04 0 0 0-.04.04m-5.64.22a.5.5 0 0 1-.14.057c-.022 0 .005-.026.06-.057a.5.5 0 0 1 .14-.057c.022 0-.005.026-.06.057M8.26 14a.1.1 0 0 1-.072.039c-.029 0-.024-.016.012-.039.077-.05.091-.05.06 0m4.02.223-.14.052.12.001a.5.5 0 0 0 .22-.056c.087-.05.09-.057.02-.054a1 1 0 0 0-.22.057m3.12.057a.3.3 0 0 0 .14.037l.08-.003-.08-.034a.5.5 0 0 0-.14-.037c-.053-.002-.053.003 0 .037M3.52 16.14a.8.8 0 0 1-.206.162c-.086.027-.137.171-.08.228.029.029.072.022.143-.024a.6.6 0 0 1 .12-.066c.011 0 .025.193.032.43.011.429.011.43.111.43h.1l.012-.56c.011-.557-.005-.74-.065-.74a.7.7 0 0 0-.167.14m5.504-.009a.8.8 0 0 1-.203.189c-.066.035-.101.088-.101.151 0 .1.028.104.21.029.063-.026.07.004.075.306.006.419.037.569.123.586.101.02.152-.226.147-.712-.007-.674-.063-.796-.251-.549m2.809.024a1 1 0 0 1-.203.184c-.07.045-.11.105-.11.166q.002.163.187.036c.077-.055.086-.052.108.03.013.049.024.244.024.434.001.262.016.358.063.396.118.099.157-.019.172-.525.024-.796-.036-.975-.241-.721m5.685-.056c-.125.068-.196.215-.226.465-.055.464.111.796.397.796.425 0 .587-.85.23-1.207-.123-.124-.244-.14-.401-.054m2.85.167c-.117.118-.201.233-.188.255.037.059.164.047.22-.021.097-.117.12-.056.12.317 0 .425.018.503.12.503.211 0 .212-1.246 0-1.264-.033-.003-.155.091-.272.21m-14.207-.067c-.252.269-.259.812-.015 1.056.081.081.145.105.277.105.27 0 .389-.164.394-.54.007-.598-.356-.942-.656-.621m.338.151c.015.039.037.191.05.338.017.211.008.29-.044.37-.151.231-.285.04-.254-.361.02-.265.081-.417.166-.417.03 0 .067.032.082.07m11.297.056c.056.159.057.575.003.677-.023.042-.068.077-.099.077s-.076-.035-.099-.077c-.044-.083-.057-.635-.017-.74.042-.109.165-.073.212.063M8.93 18.342c-.115.119-.21.253-.21.298 0 .078.006.079.118.021a.7.7 0 0 1 .14-.061c.012 0 .022.133.022.295 0 .369.034.545.111.575.128.049.169-.105.164-.608-.005-.514-.03-.709-.095-.725-.022-.006-.134.087-.25.205m-2.699-.112c-.147.091-.239.337-.238.634.001.335.086.523.271.6.121.051.167.053.266.012.329-.136.369-.958.06-1.218-.136-.115-.21-.121-.359-.028m5.499.149c-.281.284-.283.398-.005.283.087-.036.114.077.114.491l.001.332.11-.012.11-.013.011-.545c.01-.503-.024-.759-.1-.752a1.5 1.5 0 0 0-.241.216m2.911-.106c-.243.243-.245.833-.003 1.065.356.341.78-.155.646-.754q-.095-.423-.385-.424a.33.33 0 0 0-.258.113m2.843-.01c-.211.177-.274.679-.126 1.004.062.137.106.177.237.216.137.041.176.039.262-.017.129-.085.175-.175.225-.435.08-.422-.114-.871-.376-.871a.43.43 0 0 0-.222.103m-2.472.257c.048.184.005.64-.067.712-.049.05-.066.044-.12-.038-.089-.137-.125-.512-.066-.691.065-.197.199-.188.253.017m-8.517-.05c.045.154.064.518.034.65-.039.17-.16.19-.24.04-.065-.122-.044-.61.031-.699.067-.082.15-.077.175.009m11.322.098c.052.213-.017.688-.102.704-.093.017-.155-.188-.155-.51 0-.272.046-.374.159-.353.034.007.077.078.098.159M3.57 20.339c-.12.121-.21.249-.21.297 0 .104.028.105.18.004l.12-.079.02.429c.018.379.029.431.095.444.122.023.144-.067.14-.574-.005-.511-.03-.707-.095-.724-.022-.005-.134.086-.25.203m5.32.004c-.198.201-.244.289-.184.35.015.014.087-.011.16-.057L9 20.553l.001.354c0 .45.024.541.134.525.081-.011.085-.036.096-.557.01-.504-.024-.762-.1-.75a1.5 1.5 0 0 0-.241.218m8.79-.068a1.2 1.2 0 0 1-.213.192q-.074.04-.06.147l.013.107.149-.08.148-.08.012.43c.01.407.015.43.099.441.073.011.092-.012.115-.134.032-.17-.001-1.004-.043-1.108-.04-.097-.061-.089-.22.085m-5.922-.056c-.193.105-.307.511-.237.846.102.49.587.568.756.122.062-.162.053-.606-.016-.77a.35.35 0 0 0-.198-.198c-.169-.071-.176-.071-.305 0m3.012.163c-.279.285-.291.424-.023.26.163-.099.173-.073.173.421 0 .352.005.377.081.377.125 0 .171-.174.171-.64 0-.425-.048-.643-.141-.637-.028.002-.145.1-.261.219m-8.537-.065c-.271.213-.243 1.048.041 1.2.21.112.426.008.526-.256.061-.16.062-.533.003-.713-.092-.279-.367-.39-.57-.231m5.772.109c.074.089.072.702-.002.791-.079.095-.158.076-.191-.047-.045-.165-.029-.623.024-.723.056-.104.096-.109.169-.021m-5.484.075c.067.082.098.609.044.749-.024.061-.07.11-.103.11-.099 0-.142-.139-.142-.46 0-.4.076-.55.201-.399m-.171 2.08c-.126.12-.23.246-.23.279 0 .077.135.078.2 0 .092-.11.12-.017.12.398 0 .429.027.495.18.436.05-.019.06-.125.06-.611 0-.77-.019-.798-.33-.502m-2.889-.094c-.151.118-.221.305-.221.591 0 .328.09.538.265.622.283.134.489-.066.524-.512.047-.591-.247-.954-.568-.701m5.579.027c-.145.145-.215.403-.188.697.025.276.102.409.293.499.126.06.152.061.248.008.168-.093.247-.295.247-.629 0-.326-.066-.527-.205-.624-.137-.096-.266-.08-.395.049m5.795.026q-.235.129-.235.606c0 .333.085.527.274.621.304.152.523-.106.525-.618.002-.528-.237-.786-.564-.609m5.329.2a.7.7 0 0 1-.163.14c-.039 0-.129.205-.102.232.012.012.085-.008.163-.045.077-.037.149-.067.159-.067s.019.178.019.395c0 .314.013.406.064.449.093.076.164-.036.199-.314.029-.232.003-.74-.044-.86-.042-.108-.146-.083-.295.07M3.72 22.7c.073.088.1.554.041.699-.06.143-.183.161-.224.032-.035-.111-.034-.595.002-.707.031-.098.111-.109.181-.024m5.634.042c.057.126.061.596.005.701-.023.042-.068.077-.099.077-.098 0-.14-.142-.14-.469 0-.306.036-.411.142-.411.025 0 .066.046.092.102m5.763.107c.118.339-.006.853-.172.715-.051-.042-.065-.129-.065-.392 0-.355.044-.503.138-.467.031.012.076.077.099.144"/></svg>