<svg xmlns="http://www.w3.org/2000/svg" width="24" height="24" viewBox="0 0 24 24"><path fill="#ffad33" fill-rule="evenodd" d="M10 .216c-.698.133-1.146.374-1.713.921-.374.36-.604.733-.782 1.263-.124.372-.173.661-.425 2.516-.156 1.152-.27 2.108-.252 2.124.017.016.473.117 1.012.224l.98.196L7 7.48c-1.999.023-1.882.009-2.413.289-.335.176-.895.736-1.035 1.035a3 3 0 0 0-.15.38c-.024.086-.493 3.36-1.042 7.276s-1.008 7.179-1.021 7.25l-.023.13h2.843c2.239 0 2.847-.011 2.861-.05.017-.052 1.74-12.274 1.74-12.348 0-.028.216-.042.623-.042.723 0 1.103-.075 1.54-.304.526-.277 1.038-.853 1.176-1.324.043-.147.662-4.322.661-4.462 0-.016.873-.03 1.94-.03h1.94v.086c0 .048-.153 1.164-.34 2.481s-.34 2.421-.34 2.454c0 .052.36.059 2.879.059h2.879l.021-.09c.011-.049.19-1.305.397-2.79.34-2.442.469-3.39.648-4.746.101-.765-.043-1.23-.54-1.747A2.67 2.67 0 0 0 20.627.16C20.462.138 18.237.124 15.4.125c-4.917.003-4.942.003-5.4.091"/></svg>