<svg xmlns="http://www.w3.org/2000/svg" width="24" height="24" fill="none"><path fill="#000" d="M20.608 5.601 18.637 7.56c-.347.311-.515.811-.32 1.234 1.312 2.747.814 6.022-1.34 8.175-2.156 2.152-5.435 2.65-8.185 1.337-.405-.181-.88-.027-1.192.288l-2.003 2a1.066 1.066 0 0 0 .192 1.671 12.004 12.004 0 0 0 14.686-1.764A11.972 11.972 0 0 0 22.28 5.836a1.067 1.067 0 0 0-1.672-.235ZM3.56 3.474a11.971 11.971 0 0 0-1.864 14.663 1.064 1.064 0 0 0 1.672.234l1.96-1.948c.356-.31.529-.816.332-1.244-1.313-2.747-.816-6.022 1.34-8.175 2.154-2.152 5.434-2.65 8.184-1.338.4.179.87.03 1.182-.277l2.014-2.012a1.064 1.064 0 0 0-.192-1.671A12.008 12.008 0 0 0 3.52 3.527l.042-.053Z"/></svg>