<svg xmlns="http://www.w3.org/2000/svg" width="24" height="24" viewBox="0 0 0.72 0.72"><path d="M.137.447C.11.369.119.31.122.286A.3.3 0 0 1 .36.247.3.3 0 0 1 .43.23L.419.205h.06L.515.11.488.098l-.03.078H.406A.2.2 0 0 0 .33.1L.393.04.373.018.3.089Q.269.09.232.092L.161.021.14.04l.062.063A.2.2 0 0 0 .128.18H.074L.044.1.019.113l.036.095h.06a.3.3 0 0 0-.025.12H.03v.03h.06q0 .044.015.089h-.05L.018.545l.027.009.03-.08h.041C.128.496.18.606.29.59Q.275.58.268.566C.182.566.137.46.137.446m.131-.33c.06 0 .11.047.131.112a.35.35 0 0 0-.268.018C.151.17.205.117.268.117m.44.57L.582.56A.18.18 0 0 0 .56.31a.18.18 0 0 0-.25.02.18.18 0 0 0 .02.25c.066.057.161.057.23 0L.688.71a.014.014 0 0 0 .02 0 .014.014 0 0 0 0-.021M.448.599A.15.15 0 0 1 .295.447c0-.084.068-.152.152-.152s.151.068.151.152a.15.15 0 0 1-.151.151" style="stroke-width:.0297729"/><path fill="none" d="M0 0h.715v.715H0Z" style="stroke-width:.0297729"/></svg>