<?xml version="1.0" encoding="UTF-8" standalone="no"?>
<svg
   width="24"
   height="24"
   fill="none"
   viewBox="0 0 24 24"
   version="1.1"
   id="svg2"
   sodipodi:docname=":script_editor:.svg"
   inkscape:version="1.4.3 (0d15f75, 2025-12-25)"
   xmlns:inkscape="http://www.inkscape.org/namespaces/inkscape"
   xmlns:sodipodi="http://sodipodi.sourceforge.net/DTD/sodipodi-0.dtd"
   xmlns="http://www.w3.org/2000/svg"
   xmlns:svg="http://www.w3.org/2000/svg">
  <defs
     id="defs2" />
  <sodipodi:namedview
     id="namedview2"
     pagecolor="#505050"
     bordercolor="#ffffff"
     borderopacity="1"
     inkscape:showpageshadow="0"
     inkscape:pageopacity="0"
     inkscape:pagecheckerboard="1"
     inkscape:deskcolor="#505050"
     inkscape:zoom="9.3289484"
     inkscape:cx="16.293369"
     inkscape:cy="6.2708033"
     inkscape:window-width="1710"
     inkscape:window-height="1044"
     inkscape:window-x="0"
     inkscape:window-y="40"
     inkscape:window-maximized="0"
     inkscape:current-layer="svg2" />
  <path
     d="M 10.738853,0.12806782 H 10.511805 L 8.0142686,4.4419942 6.1978785,3.3067504 A 0.12692414,0.12692414 0 0 0 6.0843541,3.5337992 L 8.0142686,4.669043 3.3597691,12.842798 1.3163303,11.707555 a 0.12692411,0.12692411 0 0 0 -0.1135244,0.227048 l 2.0434388,1.135244 -1.1352438,1.929915 a 0.12692411,0.12692411 0 0 0 0.2270487,0.113524 l 1.1352438,-1.929915 4.200402,2.611061 -1.1352438,1.929914 a 0.12692411,0.12692411 0 1 0 0.2270488,0.113524 l 1.1352437,-1.929913 2.9516339,1.816389 -2.3840119,4.086878 a 0.11352438,0.11352438 0 0 0 0.2270487,0 l 2.3840112,-4.086878 -1.135243,2.043439 a 2.4975363,2.4975363 0 1 0 4.313926,2.497536 l 1.135244,-2.043438 -2.270488,4.200402 h 0.113524 l 2.497537,-4.086878 1.929915,1.135244 a 0.12692418,0.12692418 0 0 0 0.113524,-0.227049 l -1.929915,-1.135244 4.768024,-8.173755 1.929915,1.135244 a 0.12692418,0.12692418 0 1 0 0.113524,-0.227049 L 20.728998,11.707555 21.864243,9.7776403 A 0.17949789,0.17949789 0 1 0 21.52367,9.6641152 L 20.388425,11.59403 16.301547,8.9829693 17.436792,7.0530549 A 0.17949823,0.17949823 0 1 0 17.096218,6.9395304 L 15.960974,8.8694449 13.00934,7.1665792 15.506877,2.9661772 a 0.17028656,0.17028656 0 1 0 -0.340573,0 L 12.782292,7.0530549 13.917536,5.0096161 A 2.5212893,2.5212893 0 0 0 9.6036099,2.3985554 L 10.738853,0.35511658 Z"
     id="path2"
     style="fill:#000000;fill-opacity:1;stroke-width:1.13524" />
</svg>
