<svg xmlns="http://www.w3.org/2000/svg" width="26" height="26" fill="none" viewBox="0 0 26 26"><path fill="#000" fill-rule="evenodd" d="M20.1942 0C23.4006 3.2e-7 26 2.59936 26 5.80583V20.1942C26 23.4006 23.4006 26 20.1942 26H5.80583C2.59936 26 0 23.4006 0 20.1942V5.80583C3.2e-7 2.59936 2.59936 0 5.80583 0zm-6.6886 4.22816c-2.2791 0-4.05078.45358-5.31484 1.36074-1.26405.89095-1.89604 2.15449-1.89604 3.79059 0 1.24731.40215 2.30841 1.20655 3.18311.8044.8586 2.10681 1.4174 3.90713 1.6766l2.0972.2916c.9767.1296 1.6662.3483 2.0684.6561.4214.3077.6321.7613.6321 1.3607 0 .729-.2681 1.2879-.8044 1.6766-.5363.3888-1.3216.5832-2.3558.5832-.9001 0-1.7907-.162-2.6717-.486-.86189-.324-1.65674-.8262-2.38453-1.5065l-2.49938 2.3327c.7661.8099 1.77159 1.4498 3.01649 1.9196 1.24491.4698 2.71012.7046 4.39552.7046 1.264 0 2.3653-.1377 3.3038-.413q1.4364-.4131 2.4132-1.1421c.6512-.5021 1.1395-1.0853 1.4651-1.7495.3256-.6803.4884-1.4174.4884-2.2112 0-1.3445-.4405-2.4136-1.3215-3.2074-.881-.7937-2.1355-1.3122-3.7634-1.5552l-2.0972-.3158c-.9768-.1458-1.6854-.3645-2.126-.6561-.4213-.2916-.632-.72893-.632-1.3121 0-1.34453.9672-2.01683 2.9016-2.01683.9193 0 1.7429.14585 2.4707.43744.7278.27538 1.3598.66413 1.8961 1.1663l2.4419-2.30839c-.7086-.69656-1.6375-1.24732-2.7867-1.6523-1.1491-.40498-2.4994-.60746-4.0507-.60746" clip-rule="evenodd"/></svg>