<svg xmlns="http://www.w3.org/2000/svg" width="24" height="24" fill="none" viewBox="0 0 24 24"><path fill="#000" d="m15.3 18.7 1-1.8v-.1zM5.7 10.5c-.5 1-.2 2.3.6 3l-1.7-1zM19.4 11.5l-1.1 2v-.1c.6-1 .3-2.3-.7-3l-.4-.2-1.6-1zM15.4 9.2l-2.6-1.6zM8.7 5.3l-1 2h-.1zM8.9 5.1l.3-.7z"/><path fill="#000" fill-rule="evenodd" d="M18.2 0C21.4 0 24 2.6 24 5.8v12.4c0 3.2-2.6 5.8-5.8 5.8H5.8A6 6 0 0 1 0 18.2V5.8C0 2.6 2.6 0 5.8 0zM11 1.2h-.2L8.6 5 7 4a.1.1 0 0 0-.1.2l1.7 1-4.1 7.2-1.8-1a.1.1 0 0 0-.1.2l1.8 1-1 1.7a.1.1 0 0 0 .2.1l1-1.7L8.3 15l-1 1.7a.1.1 0 1 0 .2.1l1-1.7 2.6 1.6L9 20.3a.1.1 0 0 0 .2 0l2.1-3.6-1 1.8a2.2 2.2 0 1 0 3.8 2.2l1-1.8-2 3.7h.1l2.2-3.6 1.7 1a.1.1 0 0 0 .1-.2l-1.7-1 4.2-7.2 1.7 1a.1.1 0 1 0 .1-.2l-1.7-1 1-1.7a.1.1 0 1 0-.3-.1l-1 1.7L15.9 9l1-1.7a.1.1 0 1 0-.3-.1l-1 1.7L13 7.4l2.2-3.7a.1.1 0 1 0-.3 0l-2.1 3.6 1-1.8A2.2 2.2 0 0 0 10 3.2l1-1.8z" clip-rule="evenodd"/></svg>