<svg xmlns="http://www.w3.org/2000/svg" viewBox="0 0 24 24"><path d="M7.540 4.337 C 5.899 4.663,4.710 6.025,4.611 7.692 C 4.591 8.031,4.579 8.080,4.524 8.057 C 3.672 7.701,2.592 7.925,1.919 8.599 C 1.493 9.024,1.203 9.708,1.201 10.289 L 1.200 10.479 1.070 10.400 C 0.913 10.304,0.569 10.293,0.404 10.378 C -0.103 10.640,-0.130 11.312,0.353 11.644 L 0.494 11.740 2.380 11.751 L 4.266 11.762 4.482 11.396 C 5.595 9.516,8.016 8.820,9.989 9.814 C 10.148 9.894,10.294 9.960,10.313 9.960 C 10.332 9.960,10.398 9.842,10.459 9.698 C 10.633 9.290,11.101 8.616,11.494 8.210 L 11.852 7.840 11.826 7.568 C 11.737 6.610,11.230 5.664,10.490 5.074 C 10.145 4.799,9.524 4.485,9.120 4.381 C 8.763 4.290,7.902 4.266,7.540 4.337 M15.049 7.441 C 13.677 7.582,12.353 8.359,11.539 9.500 C 11.172 10.014,10.889 10.662,10.741 11.329 L 10.672 11.638 10.470 11.417 C 9.209 10.037,7.030 9.952,5.675 11.230 C 4.992 11.875,4.650 12.617,4.610 13.540 C 4.587 14.081,4.647 14.464,4.823 14.905 C 4.881 15.048,4.918 15.176,4.906 15.188 C 4.893 15.200,4.752 15.254,4.592 15.308 C 4.203 15.439,3.926 15.602,3.631 15.874 C 2.464 16.951,2.750 18.674,4.215 19.397 C 4.702 19.637,4.974 19.698,5.560 19.698 C 6.135 19.697,6.414 19.636,6.880 19.408 C 7.165 19.269,7.323 19.121,9.960 16.524 C 11.489 15.019,12.848 13.707,12.980 13.609 C 13.298 13.373,13.687 13.181,14.068 13.070 C 14.332 12.994,14.476 12.980,15.000 12.980 C 15.684 12.980,15.962 13.039,16.459 13.289 C 17.037 13.581,17.566 14.067,17.880 14.596 C 18.203 15.138,18.394 15.896,18.345 16.434 C 18.252 17.458,17.107 18.111,16.174 17.673 C 15.338 17.280,15.127 16.176,15.747 15.439 C 15.893 15.265,16.293 15.009,16.469 14.976 C 16.691 14.934,16.541 14.881,16.200 14.881 C 15.251 14.881,14.392 15.435,14.000 16.300 C 13.699 16.962,13.717 17.716,14.051 18.397 C 14.240 18.785,14.728 19.265,15.120 19.452 C 15.677 19.716,15.727 19.720,18.712 19.720 C 21.260 19.720,21.402 19.716,21.701 19.640 C 22.783 19.363,23.646 18.480,23.925 17.362 C 23.994 17.086,24.006 16.945,23.990 16.582 C 23.954 15.767,23.706 15.226,23.080 14.596 C 22.744 14.258,22.647 14.187,22.279 14.005 C 21.843 13.790,21.447 13.681,21.100 13.682 C 20.908 13.682,20.896 13.688,20.800 13.851 C 20.703 14.016,20.046 14.699,20.015 14.668 C 20.006 14.660,20.051 14.537,20.115 14.396 C 20.851 12.768,20.650 10.856,19.593 9.431 C 19.191 8.888,18.416 8.247,17.780 7.929 C 16.984 7.531,15.953 7.347,15.049 7.441 " stroke="none" fill-rule="evenodd" fill="black"></path></svg>