<svg xmlns="http://www.w3.org/2000/svg" viewBox="0 0 24 24"><path d="M7.269 4.401 C 5.787 4.835,4.750 6.089,4.621 7.605 C 4.607 7.767,4.588 7.939,4.578 7.986 L 4.561 8.072 4.310 7.991 C 3.921 7.866,3.317 7.877,2.900 8.018 C 2.135 8.276,1.632 8.769,1.353 9.532 C 1.281 9.730,1.227 9.971,1.212 10.166 L 1.188 10.481 1.092 10.419 C 0.961 10.333,0.641 10.300,0.473 10.356 C 0.149 10.463,-0.063 10.871,0.034 11.197 C 0.091 11.384,0.279 11.617,0.444 11.702 C 0.537 11.750,0.869 11.760,2.411 11.760 L 4.266 11.760 4.503 11.373 C 5.646 9.506,8.032 8.838,10.015 9.829 C 10.201 9.922,10.303 9.953,10.331 9.925 C 10.353 9.903,10.445 9.740,10.536 9.562 C 10.757 9.127,11.154 8.575,11.530 8.177 C 11.880 7.807,11.884 7.794,11.784 7.274 C 11.563 6.129,10.897 5.227,9.884 4.704 C 9.229 4.366,9.158 4.350,8.300 4.335 C 7.634 4.323,7.506 4.331,7.269 4.401 M14.560 7.523 C 13.533 7.744,12.507 8.353,11.818 9.152 C 11.329 9.719,10.973 10.417,10.775 11.196 C 10.722 11.404,10.672 11.581,10.664 11.590 C 10.655 11.598,10.562 11.513,10.456 11.400 C 10.039 10.954,9.442 10.602,8.820 10.435 C 8.327 10.302,7.546 10.312,7.062 10.457 C 5.724 10.858,4.818 11.905,4.638 13.260 C 4.558 13.855,4.607 14.249,4.853 15.006 L 4.914 15.192 4.667 15.280 C 3.793 15.594,3.204 16.167,2.984 16.917 C 2.742 17.742,3.128 18.696,3.912 19.213 C 4.466 19.578,4.857 19.692,5.560 19.691 C 6.134 19.690,6.428 19.627,6.843 19.418 C 7.166 19.256,7.252 19.176,9.700 16.779 C 13.220 13.331,13.160 13.383,13.948 13.121 L 14.336 12.993 15.078 13.009 C 15.755 13.023,15.844 13.034,16.088 13.127 C 17.417 13.632,18.314 14.867,18.333 16.220 C 18.339 16.590,18.330 16.640,18.216 16.880 C 18.068 17.191,17.931 17.361,17.695 17.524 C 16.946 18.039,15.929 17.815,15.553 17.053 C 15.431 16.803,15.420 16.752,15.420 16.401 C 15.420 16.072,15.434 15.989,15.527 15.792 C 15.668 15.490,15.921 15.245,16.271 15.070 C 16.586 14.912,16.575 14.880,16.207 14.881 C 15.865 14.882,15.455 14.982,15.120 15.146 C 14.723 15.340,14.232 15.824,14.051 16.200 C 13.602 17.134,13.761 18.220,14.451 18.931 C 14.929 19.423,15.324 19.614,16.014 19.683 C 16.266 19.708,17.414 19.719,19.002 19.711 C 21.577 19.697,21.580 19.697,21.840 19.605 C 22.862 19.242,23.539 18.545,23.887 17.500 C 23.965 17.265,23.980 17.140,23.978 16.720 C 23.976 16.384,23.953 16.135,23.908 15.960 C 23.604 14.797,22.414 13.796,21.215 13.693 L 20.931 13.669 20.769 13.885 C 20.574 14.146,20.040 14.677,20.040 14.610 C 20.040 14.584,20.086 14.458,20.143 14.331 C 20.381 13.795,20.560 12.944,20.559 12.360 C 20.555 11.252,20.143 10.097,19.454 9.262 C 19.010 8.723,18.191 8.108,17.552 7.832 C 16.919 7.560,16.487 7.474,15.660 7.456 C 15.046 7.443,14.884 7.453,14.560 7.523 " stroke="none" fill-rule="evenodd"></path></svg>