<svg xmlns="http://www.w3.org/2000/svg" width="24" height="24" viewBox="0 0 24 24"><path d="M8.14 4.007a3.05 3.05 0 0 0-1.847.79c-.531.48-.897 1.107-1.083 1.855-.106.425-.103 1.21 0 1.72.399 1.928 1.794 3.626 3.937 4.802.233.126.256.146.216.2-.634.88-1.103 1.767-1.392 2.624-.07.21-.14.386-.153.39-.013.002-1.156.165-2.535.358s-2.572.375-2.651.402a.61.61 0 0 0-.353.429c-.043.232.1.521.316.631a.7.7 0 0 0 .27.05 95 95 0 0 0 2.471-.326l2.296-.325.024.355c.04.675.232 1.17.6 1.545.5.509 1.254.631 2.2.359.625-.176 1.097-.468 1.585-.98.472-.489.914-1.2 1.163-1.86l.08-.214 5.12-.717a810 810 0 0 0 5.204-.741c.133-.033.332-.256.372-.412a.56.56 0 0 0-.15-.555c-.236-.233.153-.27-5.266.495-2.688.375-4.901.684-4.911.684s.007-.14.04-.312c.136-.72.176-1.233.176-2.28 0-.557-.017-1.162-.04-1.345-.02-.183-.027-.342-.013-.355.046-.047.827-.25 1.186-.31.409-.07.522-.046.605.117.063.123.053.518-.027 1.046-.103.698-.046 1.084.196 1.33.18.182.376.259.655.255.492-.003.913-.226 1.502-.784.319-.302.505-.515 1.352-1.538.439-.528.645-.708.814-.708.14 0 .18.073.359.631.25.791.442 1.094.82 1.286.46.233 1.326.057 1.752-.352.239-.233.282-.495.126-.754-.153-.25-.422-.273-.771-.063-.23.14-.449.182-.575.116-.106-.06-.22-.3-.359-.78-.232-.805-.322-.994-.558-1.194-.222-.192-.485-.232-.827-.133-.565.17-1.073.608-2.16 1.874-.625.725-.87.977-1.013 1.03-.186.074-.22-.083-.13-.598.116-.654.096-1.003-.066-1.332-.19-.369-.668-.625-1.193-.628-.333 0-1.107.15-1.801.349-.063.02-.073-.003-.13-.273-.571-2.77-2.013-4.917-3.784-5.625a3.7 3.7 0 0 0-1.648-.23m.98 1.176c.426.116.925.409 1.323.78.99.928 1.751 2.52 2.094 4.393l.046.256-.302.176c-.658.38-1.177.768-1.811 1.353l-.376.352-.282-.15a8.6 8.6 0 0 1-2.09-1.568c-.807-.844-1.246-1.681-1.429-2.731-.15-.87.07-1.698.605-2.276.439-.475.967-.681 1.675-.651.192.006.438.036.548.066m3.636 7.759c.003.824-.043 1.468-.146 2.07-.067.368-.14.687-.163.714-.01.01-.741.12-1.625.243-.88.122-1.648.232-1.708.242l-.106.017.066-.19c.11-.302.509-1.093.715-1.419.146-.229.428-.624.601-.843.003-.007.193.05.415.126.226.073.459.136.519.136.262 0 .505-.23.505-.472 0-.266-.123-.409-.452-.521a1.3 1.3 0 0 1-.213-.09c0-.007.07-.077.16-.156a7.7 7.7 0 0 1 1.19-.9l.195-.12.024.172c.01.097.02.542.023.99m-.761 4.096c0 .064-.336.622-.512.848-.478.624-1.1.97-1.734.97-.416 0-.685-.183-.864-.582-.077-.169-.09-.249-.093-.515l-.003-.315 1.545-.22c.85-.122 1.571-.222 1.604-.225.03 0 .057.016.057.04M0 10.293c0 .067.17 1.17.183 1.18.006.01.9.2 1.98.425 1.08.223 1.97.412 1.977.422.01.01-.774.429-1.738.93-.963.506-1.774.93-1.8.948-.04.023-.037.106.03.59.04.31.086.576.099.59.013.016 1.1-.58 2.412-1.32l2.39-1.35-.01-.109c-.03-.282-.144-1.003-.167-1.023-.013-.013-1.19-.302-2.615-.645a791 791 0 0 1-2.665-.638c-.043-.01-.076-.01-.076 0"/></svg>