<svg width="24" height="24" viewBox="0 0 24 24" fill="none" xmlns="http://www.w3.org/2000/svg">
<path d="M0 4.74V19.26C0 20.88 0 21.7 0.31 22.32C0.600783 22.9193 1.08278 23.4049 1.68 23.7C2.3 24 3.12 24 4.74 24H19.26C20.88 24 21.7 24 22.32 23.69C22.9193 23.3992 23.4049 22.9172 23.7 22.32C24 21.7 24 20.88 24 19.26V4.74C24 3.12 24 2.3 23.69 1.68C23.3992 1.08065 22.9172 0.595134 22.32 0.3C21.7 0 20.88 0 19.26 0H4.74C3.12 0 2.3 0 1.69 0.31C1.08692 0.598978 0.597687 1.08117 0.3 1.68C0 2.3 0 3.12 0 4.74ZM3.4 16.96V14.78C3.4 16.2 6.65 17.37 10.84 17.54C11.5728 17.5779 12.3072 17.5779 13.04 17.54C17.23 17.37 20.47 16.2 20.47 14.78V17.7C20.47 19.11 17.23 20.28 13.03 20.46L11.94 20.48C11.49 20.48 11.13 20.48 10.84 20.46C6.64 20.28 3.4 19.11 3.4 17.7V16.96V16.96ZM3.41 10.52V10.52C3.41 11.93 6.65 13.1 10.85 13.28C11.15 13.3 11.5 13.3 11.95 13.3L13.04 13.28C17.24 13.1 20.49 11.93 20.49 10.52V12.7V13.43C20.49 14.85 17.24 16.02 13.05 16.19C12.3172 16.2279 11.5828 16.2279 10.85 16.19C6.66 16.02 3.41 14.85 3.41 13.43V10.52ZM3.41 6.2C3.41 4.7 7.23 3.5 11.95 3.5C16.66 3.5 20.49 4.7 20.49 6.2V9.2C20.49 10.62 17.24 11.79 13.04 11.96C12.3072 11.9979 11.5728 11.9979 10.84 11.96C6.66 11.79 3.41 10.62 3.41 9.2V6.2V6.2Z" fill="black"/>
</svg>
