<?xml version="1.0" encoding="UTF-8" standalone="no"?>
<svg
   width="24"
   height="24"
   viewBox="0 0 24 24"
   fill="none"
   version="1.1"
   id="svg1"
   sodipodi:docname=":sequel_ace:.svg"
   inkscape:version="1.4.3 (0d15f75, 2025-12-25)"
   xmlns:inkscape="http://www.inkscape.org/namespaces/inkscape"
   xmlns:sodipodi="http://sodipodi.sourceforge.net/DTD/sodipodi-0.dtd"
   xmlns="http://www.w3.org/2000/svg"
   xmlns:svg="http://www.w3.org/2000/svg">
  <defs
     id="defs1" />
  <sodipodi:namedview
     id="namedview1"
     pagecolor="#505050"
     bordercolor="#ffffff"
     borderopacity="1"
     inkscape:showpageshadow="0"
     inkscape:pageopacity="0"
     inkscape:pagecheckerboard="1"
     inkscape:deskcolor="#505050"
     inkscape:zoom="22.777949"
     inkscape:cx="6.3219037"
     inkscape:cy="12.226737"
     inkscape:window-width="1710"
     inkscape:window-height="1044"
     inkscape:window-x="0"
     inkscape:window-y="40"
     inkscape:window-maximized="0"
     inkscape:current-layer="svg1" />
  <path
     d="m 0.10682858,4.054552 c 0,-2.084342 5.30812402,-3.75181551 11.86685342,-3.75181551 6.544834,0 11.866854,1.66747351 11.866854,3.75181551 v 4.1686843 c 0,1.9731757 -4.516074,3.5989637 -10.352232,3.8351877 -1.01827,0.05267 -2.038764,0.05267 -3.057035,0 C 4.6229028,11.8222 0.10682858,10.196412 0.10682858,8.2232363 Z"
     id="path3"
     style="fill:#000000;fill-opacity:1;stroke-width:1.38957" />
  <path
     d="m 0.10682858,10.057457 v 0 c 0,1.959282 4.50217852,3.585069 10.33833542,3.83519 0.416869,0.02779 0.903217,0.02779 1.528518,0.02779 l 1.514622,-0.02779 c 5.836158,-0.250121 10.352232,-1.875908 10.352232,-3.83519 v 3.029243 1.01438 c 0,1.973177 -4.516074,3.598965 -10.338338,3.835189 -1.01827,0.05266 -2.038764,0.05266 -3.057034,0 C 4.6229028,17.700045 0.10682858,16.074257 0.10682858,14.10108 Z"
     id="path2"
     style="fill:#000000;fill-opacity:1;stroke-width:1.38957" />
  <path
     d="m 0.09293296,19.00623 v -3.029243 c 0,1.973177 4.51607414,3.598965 10.33833604,3.83519 1.018271,0.05266 2.038765,0.05266 3.057035,0 5.822262,-0.236225 10.32444,-1.862013 10.32444,-3.83519 v 4.05752 c 0,1.959282 -4.502178,3.585068 -10.338335,3.835189 l -1.514622,0.02779 c -0.625304,0 -1.125546,0 -1.528518,-0.02779 C 4.5951115,23.619575 0.09293296,21.993789 0.09293296,20.034507 Z"
     id="path1"
     style="fill:#000000;fill-opacity:1;stroke-width:1.38957" />
</svg>
