<svg xmlns="http://www.w3.org/2000/svg" height="24" widht="24" viewBox="0 0 24 24"><path d="M11.713.3674v2.4391h.7302V.3675h-.7302zm5.7149 1.2868-1.1447 2.0706.6346.3571 1.1503-2.0779-.6402-.3498zm-11.0763.2015-.6248.3767L6.953 4.2736l.6268-.3772-1.2283-2.0407zm5.6513 2.0495c-3.8398.0002-7.1494 2.6895-7.906 6.4275-.7566 3.738 1.249 7.4883 4.791 8.9607h.002c3.3755 1.3947 7.2565.3456 9.4785-2.525l2.8319 1.9452c.136.0936.3304.0509.4139-.092l.0997-.1695c.0555-.0949.0267-.1962-.0119-.2677a.4884.4884 0 0 0-.1519-.17l-8.4222-5.8167c.0223-.0848.0465-.1694.049-.2573.0153-.618-.4617-1.139-1.0665-1.1566h-.0057c-.606-.0142-1.1074.4809-1.1214 1.0997-.0141.6187.4645 1.1391 1.0702 1.1545h.0021c.2091.002.395-.101.5705-.213l.3183.2186c-.2745.2485-.606.4378-.9803.4336-.817-.02-1.461-.6946-1.4417-1.5115.02-.8044.6759-1.4435 1.4805-1.4418h.1214l-.002-6.6187h-.1194zm9.925 1.8195-1.9043 1.1446.3767.6248 1.8986-1.1425-.371-.6269zM2.004 6.088l-.3498.6403 1.9513 1.0805.3498-.6408-1.9513-1.08zM.3654 11.713v.7302H2.496v-.7302H.3654zm21.2948 0v.7302h2.129v-.7302h-2.129zm-1.1095 4.6348-.3493.6403 1.9507 1.08.3499-.6402-1.9513-1.08zM3.76 16.66l-1.9027 1.1467.373.6247 1.9105-1.1482L3.76 16.66zm13.4452 3.2246-.629.3751 1.2284 2.0392.6268-.3731-1.2262-2.0412zm-9.955.168-1.1622 2.098.6387.3535 1.1602-2.096-.6367-.3556zm4.4628 1.299v2.4392h.7302v-2.4391h-.7302z"/></svg>