<svg xmlns="http://www.w3.org/2000/svg" viewBox="0 0 24 24"><path fill-opacity=".968" d="M12 .04c-5.024 0-8.134 0-10.047 1.914C.039 3.867.039 6.977.039 12s0 8.133 1.914 10.047C3.867 23.96 6.977 23.96 12 23.96c5.024 0 8.133 0 10.047-1.913 1.914-1.914 1.914-5.024 1.914-10.047 0-5.024 0-8.133-1.914-10.047C20.133.04 17.024.04 12 .04zm5.79 2.999c.23-.003.438.09.523.395l.538 2.444a1.776 1.776 0 0 0 .82 1.14l2.204 1.326c.177.162.258.38-.017.662l-1.53.853a.584.584 0 0 0-.28.663l.542 2.004a.396.396 0 0 1-.193.45l-1.293.707c-.274.121-.565.226-.807-.21l-1.618-2.201a.891.891 0 0 0-.931-.338l-1.288.318c-.549.04-.735-.388-.654-.768l.708-1.772a.676.676 0 0 0-.086-.655L12.586 5.59c-.21-.323-.202-.525.081-.743l1.212-.767c.21-.097.387-.162.678.016l.877.488a.394.394 0 0 0 .56-.205h.001c.08-.195.113-.388.307-.518l1.39-.815c.032-.004.066-.006.098-.007zm-8.978.146c.865.133 1.75.828 1.75.828s.906.76.967 2.263c.09 2.256-3.881 6.612-3.881 6.612-.122.13-.27.13-.486.055l-3.313-1.51s-1.788-.638-1.441-2.94 1.83-2.98 1.83-2.98c.504-.464 1.177-.268 1.316-.222l.527.236c.586-2.292 2.162-2.32 2.73-2.342zm6.492 11.062c.128-.005.253-.004.378 0a6.22 6.22 0 0 1 2.445.505c.328.141.571.325.732.552.17.217.211.485.122.804-.069.311-.344.687-.827 1.126-.398.371-.92.795-1.569 1.27l-4.046 2.968c-.19.131-.409.3-.655.506-.225.198-.418.373-.58.523a3.26 3.26 0 0 0-.407.47l-2.14-.508.823-.768a6.781 6.781 0 0 1-1.86.483c-.582.05-1.1.022-1.552-.085-.422-.1-.734-.244-.937-.43a.946.946 0 0 1-.316-.624c-.007-.24.069-.493.226-.758.169-.275.398-.548.688-.82a7.29 7.29 0 0 1 2.703-1.624 7.367 7.367 0 0 1 3.102-.32c.567.059 1.051.117 1.455.175a7.12 7.12 0 0 0 1.064.083 2.73 2.73 0 0 0 .864-.154 2.55 2.55 0 0 0 .793-.529c.215-.2.342-.372.38-.514a.445.445 0 0 0-.04-.368.561.561 0 0 0-.29-.24 1.515 1.515 0 0 0-.39-.149c-.381-.09-.825-.076-1.33.043-.495.11-.987.351-1.477.726l-2.003-.476A8.772 8.772 0 0 1 12.418 15a8.158 8.158 0 0 1 1.698-.597c.41-.092.806-.144 1.188-.158zm-4.841 4.54a3.033 3.033 0 0 0-.722.074 3.21 3.21 0 0 0-.75.294 3.48 3.48 0 0 0-.764.556c-.312.29-.433.539-.363.744.09.198.291.334.603.408.331.079.661.095.99.047a4.93 4.93 0 0 0 1.007-.271 6.47 6.47 0 0 0 .99-.483c.315-.19.616-.382.902-.579l1.017-.702a3.92 3.92 0 0 1-1.196.093 30.512 30.512 0 0 1-1.014-.147 4.887 4.887 0 0 0-.7-.034z"/></svg>