<svg xmlns="http://www.w3.org/2000/svg" viewBox="0 0 24 24"><path d="M18.699.058a1 1 0 0 0-.118.008l-1.667.978c-.232.155-.272.387-.368.62h-.001a.473.473 0 0 1-.672.247l-1.052-.586c-.349-.213-.56-.135-.813-.019l-1.453.92c-.34.262-.35.504-.097.891l2.209 2.959a.81.81 0 0 1 .103.786l-.85 2.125c-.096.456.127.969.785.921l1.545-.381a1.07 1.07 0 0 1 1.117.405l1.94 2.64c.29.523.64.397.968.252l1.55-.848a.475.475 0 0 0 .232-.54l-.65-2.404a.7.7 0 0 1 .336-.795l1.835-1.023c.33-.338.233-.6.02-.794l-2.643-1.59a2.13 2.13 0 0 1-.984-1.367L19.326.53c-.102-.365-.351-.477-.627-.473M7.931.233H7.93c-.681.026-2.571.06-3.274 2.809l-.632-.283c-.167-.056-.974-.29-1.579.266 0 0-1.778.813-2.194 3.574-.417 2.76 1.728 3.526 1.728 3.526l3.973 1.811c.26.09.437.09.583-.066 0 0 4.763-5.224 4.655-7.93-.073-1.803-1.16-2.714-1.16-2.714S8.969.392 7.931.233M15.717 13.5v-.002a8 8 0 0 0-1.424.19 9.8 9.8 0 0 0-2.037.715 10.5 10.5 0 0 0-2.108 1.336l2.402.571q.882-.674 1.771-.87.91-.214 1.595-.052a1.8 1.8 0 0 1 .468.179.67.67 0 0 1 .348.287.53.53 0 0 1 .048.442q-.069.256-.456.616a3.1 3.1 0 0 1-.95.635 3.3 3.3 0 0 1-1.037.184 8.5 8.5 0 0 1-1.276-.1q-.726-.103-1.745-.21a8.8 8.8 0 0 0-3.72.385 8.74 8.74 0 0 0-3.243 1.947 4.9 4.9 0 0 0-.825.984q-.284.477-.27.909a1.14 1.14 0 0 0 .378.748q.366.336 1.124.516.814.192 1.861.102a8.1 8.1 0 0 0 2.231-.58l-.987.922 2.567.61a4 4 0 0 1 .488-.565q.291-.27.696-.627.443-.371.785-.607l4.853-3.56a21 21 0 0 0 1.882-1.523q.868-.79.991-1.35.16-.574-.146-.964-.288-.409-.878-.662a7.5 7.5 0 0 0-2.932-.606q-.224-.008-.454 0" style="stroke-width:1.19936"/><path d="M9.911 18.945a6 6 0 0 1 .84.04 37 37 0 0 0 1.216.177 4.7 4.7 0 0 0 1.434-.111l-1.22.842q-.514.353-1.081.694a8 8 0 0 1-1.187.58 6 6 0 0 1-1.208.324q-.592.087-1.188-.056-.561-.133-.723-.49-.126-.369.436-.892a4.2 4.2 0 0 1 .916-.667 3.9 3.9 0 0 1 .9-.352 3.6 3.6 0 0 1 .865-.089" style="stroke-width:1.19936"/></svg>
