<svg xmlns="http://www.w3.org/2000/svg" width="24" height="24" fill="none" viewBox="0 0 24 24"><path d="M11.502 0.283 C 11.117 0.336,10.446 0.536,10.148 0.686 C 9.755 0.885,9.390 1.146,7.960 2.256 C 3.287 5.883,2.733 6.342,2.423 6.840 C 2.141 7.293,2.004 7.890,2.076 8.351 C 2.138 8.743,2.179 8.860,2.365 9.176 C 2.655 9.668,2.823 9.825,4.456 11.131 C 5.030 11.590,5.503 11.978,5.507 11.993 C 5.511 12.008,5.063 12.371,4.510 12.800 C 3.349 13.702,2.554 14.441,2.369 14.791 C 2.151 15.200,2.069 15.503,2.068 15.900 C 2.065 16.680,2.382 17.268,3.160 17.927 C 3.609 18.307,5.729 19.998,7.401 21.310 C 9.508 22.962,9.891 23.219,10.740 23.546 L 11.140 23.700 12.040 23.697 L 12.940 23.695 13.421 23.491 C 13.686 23.380,14.091 23.174,14.321 23.035 C 15.170 22.523,20.247 18.512,21.000 17.760 C 21.754 17.007,22.053 16.207,21.859 15.463 C 21.783 15.169,21.529 14.677,21.331 14.438 C 21.050 14.100,20.461 13.582,19.469 12.802 C 18.925 12.374,18.494 12.011,18.510 11.996 C 18.527 11.981,18.981 11.612,19.520 11.178 C 21.036 9.955,21.297 9.697,21.616 9.113 C 21.958 8.487,22.005 7.956,21.773 7.360 C 21.490 6.633,21.128 6.267,19.105 4.667 C 14.828 1.284,14.393 0.961,13.640 0.604 C 13.078 0.338,12.136 0.196,11.502 0.283 " stroke="none" fill-rule="evenodd" fill="black"></path></svg>