<svg width="24" height="24" viewBox="0 0 24 24" fill="none" xmlns="http://www.w3.org/2000/svg">
    <g transform="translate(12 12) scale(1.2) translate(-12 -12)">
        <path fill="black"
            d="m12.28 9.45.524.058.261.053.262.066.261.128.262.144.523.333 2.092 1.644 2.077 1.642.427.411.167.205.137.206.099.205.083.205.037.206.022.205-.022.195-.04.154-.053.153-.07.153-.16.277-.208.276-.43.399-2.066 1.673-2.167 1.67-.614.37-.675.275-.368.03h-.675l-.307-.03-.337-.122-.307-.123-.276-.154-.277-.184-.552-.399-1.994-1.564-1.657-1.32-.399-.337-.215-.184-.184-.215-.153-.245-.123-.246-.061-.245-.03-.276.03-.277.03-.153.062-.153.092-.215.092-.154.153-.184.369-.368.49-.399 1.995-1.565 1.937-1.503.484-.33.242-.119.242-.088.243-.065.242-.065.484-.054Z" />
        <path fill="black"
            d="m12.28 3.759.524.057.261.054.262.065.261.129.262.144.523.333 2.092 1.643 2.077 1.643.427.41.167.206.137.205.099.206.083.205.037.205.022.206-.022.195-.04.153-.053.154-.07.153-.16.276-.208.276-.43.4-2.066 1.672-2.167 1.671-.614.369-.675.276-.368.03h-.675l-.307-.03-.337-.123-.307-.123-.276-.153-.277-.184-.552-.4-1.994-1.564-1.657-1.32-.399-.337-.215-.184-.184-.214-.153-.246-.123-.245-.061-.246-.03-.276.03-.276.03-.154.062-.153.092-.215L5.4 8.5l.153-.184.369-.368.49-.4 1.995-1.564 1.937-1.503.484-.33.242-.119.242-.088.243-.065.242-.065.484-.054Z" />
    </g>
</svg>