<svg width="269.09" height="296.08" viewBox="0 0 71.2 78.34" version="1.1" xml:space="preserve" sodipodi:docname=":sibelius:.svg" xmlns:sodipodi="http://sodipodi.sourceforge.net/DTD/sodipodi-0.dtd" xmlns="http://www.w3.org/2000/svg" xmlns:svg="http://www.w3.org/2000/svg"><sodipodi:namedview pagecolor="#ffffff" bordercolor="#000000" borderopacity=".25" showgrid="false"/><defs/><g transform="translate(-83.276266,-102.12319)"><path style="fill:#000" d="m 111.59033,180.3484 c -1.60563,-0.40793 -2.93341,-1.51644 -3.69563,-3.08531 -0.35277,-0.7261 -0.50138,-0.83522 -2.06708,-1.51776 -5.57499,-2.43032 -8.659884,-4.53818 -12.534904,-8.5649 -8.2932,-8.61784 -11.66873,-20.46432 -9.25212,-32.47044 2.64916,-13.16142 12.93079,-24.03397 25.886734,-27.37452 2.02511,-0.52216 4.61249,-0.94735 7.02254,-1.15404 l 1.34396,-0.11527 0.98051,-1.44232 c 0.53927,-0.79327 1.23216,-1.68044 1.53975,-1.97148 l 0.55925,-0.52917 0.90865,0.99455 c 0.49976,0.54701 1.26583,1.55028 1.7024,2.2295 l 0.79375,1.23495 1.76203,0.39357 c 5.53267,1.23575 10.96465,3.95107 15.45067,7.7234 5.93413,4.99006 10.22604,12.32316 11.89319,20.32056 0.78977,3.78856 0.7849,10.72438 -0.0102,14.50408 -1.57558,7.49003 -5.38964,14.2146 -11.00879,19.40957 -5.24819,4.85201 -12.07975,8.01381 -19.54858,9.04753 -1.66369,0.23026 -2.25787,0.40359 -3.61597,1.05484 -0.89383,0.42863 -2.1014,0.90384 -2.68348,1.05603 -1.28535,0.33607 -4.51318,0.48871 -5.4267,0.25663 z m 4.53531,-1.91978 c 0.31797,-0.12443 0.31146,-0.14288 -0.0882,-0.24977 -0.64495,-0.17251 -1.93083,-0.14373 -1.93083,0.0432 0,0.31654 1.37781,0.45749 2.01903,0.20656 z m 5.03032,-4.23897 c 0.35965,-0.67202 0.17426,-6.6332 -0.28477,-9.1564 -0.10022,-0.55093 -0.14373,-0.58294 -0.65783,-0.48404 -0.30277,0.0583 -1.62978,0.1558 -2.9489,0.21677 -2.82448,0.13056 -4.30602,-0.12359 -6.30511,-1.08163 -3.48875,-1.67194 -5.9719,-4.19626 -7.6153,-7.74159 -1.04573,-2.25595 -1.23189,-3.29644 -1.23189,-6.88537 0,-3.02932 0.0186,-3.19346 0.53893,-4.75124 1.63789,-4.90377 4.99341,-9.05143 11.02403,-13.6265 l 1.96815,-1.49312 -0.27611,-1.53722 c -0.20243,-1.12705 -0.27801,-2.76095 -0.28326,-6.12334 -0.008,-4.89582 0.15761,-6.4749 1.03826,-9.92187 l 0.41685,-1.6316 h -0.62077 c -1.02249,0 -4.94622,0.85686 -6.92691,1.5127 -3.80437,1.25968 -7.88285,3.57332 -10.767464,6.10816 -3.40815,2.9949 -5.88134,6.16338 -7.7508,9.92983 -2.64045,5.31975 -3.68922,10.08095 -3.47744,15.78681 0.0558,1.50371 0.2279,3.4484 0.38242,4.32153 1.82672,10.32187 8.27002,18.99932 17.541144,23.62333 2.64651,1.31995 2.59212,1.31592 3.60649,0.267 1.17171,-1.21161 1.73242,-1.47745 3.11149,-1.47515 1.38553,0.002 2.76195,0.54959 3.33644,1.32663 0.47572,0.64345 0.89689,1.79835 0.89689,2.45941 0,0.27076 0.0992,0.53233 0.22048,0.58126 0.12127,0.0489 1.26942,0.0952 2.55144,0.1029 2.13193,0.0127 2.34653,-0.0152 2.51354,-0.32726 z m 5.56246,-0.63685 c 16.53426,-4.21018 26.94775,-20.81196 23.61672,-37.65114 -0.92536,-4.67788 -2.95143,-9.22727 -5.89508,-13.23693 -1.46024,-1.98904 -4.98078,-5.44211 -7.05187,-6.91671 -2.59048,-1.8444 -9.08161,-4.89358 -10.41752,-4.89358 -0.35772,0 -0.37138,0.0502 -0.22819,0.83785 0.0838,0.46082 0.14913,2.78253 0.14523,5.15937 -0.007,4.21056 -0.0196,4.3623 -0.4951,5.90903 -1.2331,4.01137 -2.86768,6.72402 -5.88928,9.77352 l -1.99401,2.01241 0.48858,3.6311 0.48857,3.6311 1.97973,0.21824 c 2.08178,0.22949 3.47096,0.62762 4.69349,1.34511 1.88224,1.10467 3.67333,3.24935 4.3673,5.22949 0.53512,1.52689 0.58185,4.59056 0.0988,6.47543 -0.85382,3.33137 -3.11823,6.12671 -6.48047,7.99996 l -1.48381,0.82669 0.0148,0.85973 c 0.008,0.47285 0.10738,1.82588 0.22049,3.00674 0.11311,1.18087 0.20565,3.14899 0.20565,4.37362 v 2.2266 l 0.66146,-0.11687 c 0.3638,-0.0643 1.69333,-0.37962 2.95452,-0.70076 z m -7.67292,-10.85159 c 0.63059,-0.1019 1.20047,-0.24021 1.26641,-0.30735 0.0659,-0.0671 -0.3902,-3.33674 -1.01364,-7.26581 -0.62344,-3.92906 -1.13379,-7.20328 -1.13412,-7.27604 -0.002,-0.54099 -2.41062,0.69045 -3.53401,1.80713 -1.18438,1.17731 -1.61794,2.23462 -1.6259,3.96506 -0.007,1.5833 0.16753,2.04386 1.58481,4.17525 1.1822,1.77786 0.85496,2.13979 -0.97436,1.07767 -1.65247,-0.95944 -2.93361,-2.72329 -3.37796,-4.65073 -0.27344,-1.18612 -0.22415,-3.67055 0.0943,-4.75486 0.74887,-2.54953 2.60205,-4.76381 5.15673,-6.16153 0.79792,-0.43656 1.56751,-0.87313 1.7102,-0.97014 0.22702,-0.15435 0.21337,-0.54004 -0.10928,-3.08681 -0.20279,-1.60073 -0.43588,-2.98091 -0.51798,-3.06708 -0.28154,-0.29549 -3.78559,2.45002 -6.20156,4.85908 -2.624,2.6165 -4.47805,5.41415 -5.17355,7.80657 -0.45423,1.5625 -0.30332,4.7103 0.30773,6.41874 1.25236,3.50148 4.39256,6.42025 7.89769,7.3408 1.15414,0.30311 4.04107,0.34917 5.64445,0.09 z m 4.69105,-1.72436 c 2.06381,-1.34259 3.35721,-3.17375 3.80039,-5.3805 0.53617,-2.66979 -1.30091,-6.07628 -3.90778,-7.24617 -1.10481,-0.49581 -2.9125,-0.94931 -3.08729,-0.77451 -0.0565,0.0565 0.0971,1.52093 0.34132,3.25429 0.47446,3.3673 1.33731,10.19982 1.33731,10.58948 0,0.39193 0.42313,0.2684 1.51605,-0.44259 z m -4.31295,-34.66292 c 1.86754,-1.59347 2.87719,-2.81492 3.66613,-4.43518 1.12946,-2.31962 1.33556,-3.22002 1.3324,-5.82084 -0.003,-2.58891 -0.42346,-4.40311 -1.21899,-5.2615 -0.54108,-0.58384 -0.89963,-0.59175 -1.71478,-0.0378 -2.61019,1.77367 -4.2443,7.37187 -3.95678,13.55536 0.12052,2.59204 0.19638,3.12107 0.44754,3.12107 0.0718,0 0.72185,-0.50448 1.44448,-1.12107 z"/></g></svg>