<?xml version="1.0" encoding="UTF-8" standalone="no"?>
<svg
   width="932.8963"
   height="1024"
   viewBox="0 0 932.8963 1024"
   fill="none"
   version="1.1"
   id="svg1"
   sodipodi:docname="Sibelius_icon_svg.svg"
   inkscape:version="1.4.2 (ebf0e940, 2025-05-08)"
   xmlns:inkscape="http://www.inkscape.org/namespaces/inkscape"
   xmlns:sodipodi="http://sodipodi.sourceforge.net/DTD/sodipodi-0.dtd"
   xmlns="http://www.w3.org/2000/svg"
   xmlns:svg="http://www.w3.org/2000/svg">
  <defs
     id="defs1" />
  <sodipodi:namedview
     id="namedview1"
     pagecolor="#ffffff"
     bordercolor="#000000"
     borderopacity="0.25"
     inkscape:showpageshadow="2"
     inkscape:pageopacity="0.0"
     inkscape:pagecheckerboard="0"
     inkscape:deskcolor="#d1d1d1"
     inkscape:zoom="0.8125"
     inkscape:cx="465.84615"
     inkscape:cy="512"
     inkscape:window-width="1888"
     inkscape:window-height="985"
     inkscape:window-x="2576"
     inkscape:window-y="230"
     inkscape:window-maximized="0"
     inkscape:current-layer="svg1" />
  <path
     fill-rule="evenodd"
     clip-rule="evenodd"
     d="M 488.368,6.7427075 C 481.842,13.562997 470.735,29.504297 463.339,42.662297 l -4.179,7.4357 -7.314,0.535 c -4.022,0.2946 -14.836,1.074 -24.03,1.7333 -56.65,4.0589 -115.984,20.5926 -168.819,47.0413 C 241.095,108.369 228.235,115.928 208.412,129.141 124.782,184.884 60.725997,267.312 26.710597,362.954 c -13.09,36.806 -21.2038005,73.932 -25.1406005,115.042 -1.86069996,19.432 -2.12189996,64.065 -0.491,83.88 6.7974,82.545 35.4150005,162.886 81.9880005,230.17 C 110.904,832.261 148.346,871.284 187.516,900.907 c 11.804,8.927 36.576,25.268 49.105,32.395 20.817,11.839 55.113,27.596 74.963,34.441 3.878,1.337 7.052,2.956 7.052,3.597 0,2.328 6.14,15.978 9.646,21.446 10.052,15.674 25.824,25.744 46.603,29.734 11.651,2.23 34.969,1.9 50.45,-0.72 24.938,-4.23 48.577,-13.06 62.331,-23.281 4.704,-3.495 7.818,-5.013 10.971,-5.348 2.421,-0.257 9.81,-0.987 16.418,-1.621 71.403,-6.851 144.429,-32.882 206.06,-73.451 121.826,-80.191 199.363,-211.945 210.896,-358.358 1.825,-23.154 0.682,-76.112 -2.089,-96.801 C 919.524,385.278 894.331,318.61 851.343,254.989 802.385,182.536 731.316,123.547 650.824,88.557497 c -27.809,-12.0892 -59.902,-22.1849 -90.192,-28.3721 -9.711,-1.984 -17.757,-3.7372 -17.88,-3.8981 -0.124,-0.1598 -2.248,-3.8166 -4.721,-8.1263 -8.308,-14.4775 -19.186,-29.5558 -28.023,-38.8418595 -11.301,-11.87499 -12.597,-12.02962 -21.64,-2.57643 z M 413.712,103.116 C 275.273,121.48 155.909,206.949 92.615997,333.034 c -7.251,14.445 -15.61,34.614 -21.473,51.816 -36.5683,107.296 -29.1211,223.611 20.822,325.181 C 130.736,788.883 191.975,852.593 270.054,895.31 c 12.255,6.706 37.081,18.223 46.493,21.571 l 3.657,1.301 3.656,-6.274 c 7.088,-12.161 18.682,-21.204 32.318,-25.21 7.282,-2.139 23.733,-2.18 31.978,-0.08 9.018,2.296 18.631,7.45 24.292,13.023 8.654,8.519 14.846,24.02 14.846,37.172 v 6.417 l 8.619,0.671 c 10.745,0.836 54.83,0.87 57.908,0.045 3.828,-1.027 5.055,-11.508 4.942,-42.198 -0.096,-26.037 -2.085,-49.736 -6.783,-80.812 l -1.239,-8.199 -3.253,0.696 c -24.681,5.272 -54.306,7.167 -74.828,4.785 -38.34,-4.45 -74.54,-22.344 -105.957,-52.373 -35.738,-34.161 -56.005,-76.184 -61.272,-127.049 -1.877,-18.124 -0.783,-53.482 2.096,-67.721 6.514,-32.217 25.08,-71.095 49.199,-103.016 17.241,-22.819 44.187,-51.552 63.179,-67.368 6.552,-5.455 42.108,-32.416 60.517,-45.886 l 2.856,-2.09 -4.896,-33.955 c -3.682,-25.537 -5.03,-38.36 -5.439,-51.717 -1.458,-47.637 8.414,-124.382 20.53,-159.591 l 2.066,-6.007 -5.428,0.108 c -2.986,0.058 -10.366,0.761 -16.399,1.563 z m 89.328,6.609 c -6.365,3.699 -17.61,15.096 -23.272,23.586 -21.827,32.731 -34.612,93.279 -31.585,149.583 1.069,19.882 3.245,47.618 3.789,48.282 0.903,1.103 27.72,-21.769 40.155,-34.249 15.962,-16.02 20.258,-22.009 29.684,-41.377 18.948,-38.932 22.872,-76.116 12.351,-117.015 -7.246,-28.17 -16.88,-37.088 -31.122,-28.81 z m 63.21,2.55 c 0,0.21 1.149,5.499 2.553,11.754 5.176,23.052 6.273,34.428 6.238,64.655 -0.039,32.405 -1.708,46.557 -8.734,74.068 -9.487,37.147 -26.067,71.693 -49.3,102.723 -9.231,12.328 -32.776,36.661 -45.834,47.369 -9.199,7.542 -9.475,7.895 -8.943,11.439 0.302,2.011 2.951,22.215 5.885,44.897 2.936,22.682 5.648,43 6.027,45.15 l 0.689,3.911 17.239,0.462 c 27.094,0.726 44.344,4.808 64.661,15.302 12.315,6.36 21.752,13.376 32.371,24.066 15.944,16.052 28.222,36.583 32.483,54.318 7.831,32.592 3.504,75.881 -10.545,105.477 -17.759,37.414 -49.792,68.379 -87.104,84.202 -5.172,2.193 -9.575,4.102 -9.786,4.245 -0.211,0.141 0.837,10.27 2.328,22.509 4.961,40.698 6.175,55.511 6.192,75.538 0.008,10.918 -0.531,23.567 -1.2,28.11 -0.668,4.543 -1.045,8.428 -0.839,8.636 0.73,0.728 30.642,-4.871 45.251,-8.47 C 696.755,900.389 805.074,805.097 855.079,678.224 905.648,549.918 890.896,405.395 815.454,290.028 759.89,205.056 678.26,144.467 580.98,115.991 c -14.779,-4.326 -14.73,-4.313 -14.73,-3.716 z M 431.995,442.433 c -1.724,1.309 -11.362,8.52 -21.418,16.023 -21.56,16.089 -43.325,35.276 -62.189,54.826 -36.204,37.519 -56.3,70.682 -63.825,105.33 -2.965,13.652 -2.742,39.866 0.462,54.204 10.418,46.63 38.826,84.276 79.091,104.81 26.545,13.538 51.048,18.183 81.984,15.541 11.43,-0.977 39.317,-5.612 40.425,-6.72 0.149,-0.149 -4.374,-28.218 -10.052,-62.374 -5.678,-34.157 -12.552,-77.382 -15.278,-96.058 -2.726,-18.675 -5.05,-34.08 -5.164,-34.231 -0.648,-0.856 -15.777,4.72 -22.469,8.28 -22.69,12.07 -37.727,29.682 -43.564,51.026 -2.797,10.226 -2.5,31.802 0.552,40.12 3.227,8.797 8.511,17.848 17.359,29.736 11.764,15.808 13.314,18.411 12.933,21.732 -0.314,2.744 -0.712,2.989 -5.359,3.285 -4.242,0.271 -6.269,-0.352 -13.06,-4.014 -30.835,-16.626 -46.592,-39.772 -52.002,-76.381 -6.998,-47.364 13.227,-92.56 54.357,-121.472 11.508,-8.09 30.368,-18.25 38.272,-20.618 3.991,-1.196 4.22,-1.475 3.683,-4.481 -0.316,-1.763 -2.233,-17.546 -4.261,-35.072 -2.027,-17.526 -4.153,-34.687 -4.724,-38.135 -0.572,-3.448 -1.042,-6.621 -1.045,-7.052 -0.01,-1.31 -1.419,-0.802 -4.708,1.695 z m 54.204,151.754 c 1.673,8.1 15.496,107.88 17.349,125.247 1.165,10.918 3.119,28.622 4.34,39.343 l 2.223,19.493 4.644,-1.991 c 18.279,-7.836 40.127,-25.727 49.639,-40.651 13.483,-21.154 18.836,-43.897 15.122,-64.254 -3.404,-18.669 -13.753,-39.387 -25.804,-51.659 -14.219,-14.482 -37.995,-25.31 -60.971,-27.768 l -7.164,-0.767 z m -83.374,397.05 c -0.756,1.97 2.729,4.343 8.171,5.563 5.073,1.137 15.724,0.252 23.089,-1.917 3.128,-0.921 3.129,-0.924 0.522,-1.482 -1.436,-0.308 -9.071,-1.193 -16.965,-1.967 -10.814,-1.061 -14.467,-1.109 -14.817,-0.197 z"
     fill="#7c24e4"
     id="path1" />
</svg>
