<svg width="932.9" height="1024" fill="none" xmlns="http://www.w3.org/2000/svg">
   <path fill-rule="evenodd" clip-rule="evenodd"
      d="M488.37 6.74c-6.53 6.82-17.63 22.76-25.03 35.92l-4.18 7.44-7.31.53-24.03 1.74C371.17 56.43 311.83 72.96 259 99.4c-17.9 8.96-30.76 16.52-50.59 29.73-83.63 55.74-147.68 138.17-181.7 233.81C13.62 399.76 5.51 436.9 1.57 478c-1.86 19.43-2.12 64.06-.5 83.88 6.8 82.54 35.42 162.88 82 230.17 27.83 40.21 65.28 79.23 104.45 108.86 11.8 8.92 36.57 25.27 49.1 32.4 20.82 11.83 55.11 27.59 74.96 34.43 3.88 1.34 7.06 2.96 7.06 3.6 0 2.33 6.14 15.98 9.64 21.45 10.05 15.67 25.83 25.74 46.6 29.73 11.66 2.23 34.97 1.9 50.45-.72 24.94-4.23 48.58-13.06 62.34-23.28 4.7-3.5 7.81-5.01 10.97-5.35 2.42-.26 9.8-.99 16.42-1.62 71.4-6.85 144.42-32.88 206.06-73.45 121.82-80.2 199.36-211.95 210.9-358.36 1.82-23.15.67-76.11-2.1-96.8-10.4-77.66-35.59-144.33-78.58-207.95-48.96-72.45-120.02-131.44-200.52-166.43a468.65 468.65 0 0 0-90.19-28.37c-9.7-1.99-17.76-3.74-17.88-3.9-.12-.16-2.25-3.82-4.72-8.13-8.3-14.48-19.19-29.55-28.02-38.84-11.3-11.88-12.6-12.03-21.64-2.58zm-74.66 96.38c-138.44 18.36-257.8 103.83-321.1 229.91-7.25 14.45-15.6 34.62-21.47 51.82-36.57 107.3-29.12 223.61 20.82 325.18 38.78 78.85 100.02 142.56 178.1 185.28 12.25 6.7 37.07 18.22 46.49 21.57l3.65 1.3 3.66-6.27a55.51 55.51 0 0 1 32.32-25.21c7.28-2.14 23.73-2.18 31.98-.08 9.01 2.3 18.63 7.45 24.29 13.02 8.65 8.52 14.84 24.02 14.84 37.17v6.42l8.62.67c10.75.84 54.83.87 57.91.05 3.83-1.03 5.06-11.51 4.94-42.2-.1-26.04-2.08-49.74-6.78-80.81l-1.24-8.2-3.25.7c-24.68 5.27-54.3 7.16-74.83 4.78-38.34-4.45-74.54-22.35-105.96-52.37-35.73-34.17-56-76.19-61.27-127.05-1.88-18.13-.78-53.49 2.1-67.72 6.51-32.22 25.08-71.1 49.2-103.02 17.24-22.82 44.18-51.55 63.18-67.37 6.55-5.45 42.1-32.41 60.51-45.88l2.86-2.1-4.9-33.95c-3.68-25.54-5.03-38.36-5.44-51.72-1.45-47.63 8.42-124.38 20.53-159.59l2.07-6-5.43.1c-2.98.06-10.36.76-16.4 1.57zm89.33 6.6c-6.37 3.7-17.61 15.1-23.27 23.6-21.83 32.72-34.61 93.27-31.59 149.57 1.07 19.89 3.25 47.62 3.8 48.29.9 1.1 27.71-21.77 40.15-34.25 15.96-16.02 20.25-22.01 29.68-41.38 18.95-38.93 22.87-76.12 12.35-117.02-7.24-28.17-16.88-37.08-31.12-28.8zm63.21 2.55c0 .21 1.15 5.5 2.55 11.76 5.18 23.05 6.28 34.43 6.24 64.65-.04 32.4-1.7 46.56-8.73 74.07A290.56 290.56 0 0 1 517 365.48c-9.23 12.32-32.78 36.66-45.84 47.36-9.2 7.55-9.47 7.9-8.94 11.44.3 2.01 2.95 22.22 5.89 44.9 2.93 22.68 5.64 43 6.02 45.15l.7 3.91 17.23.46c27.1.73 44.34 4.81 64.66 15.3 12.32 6.36 21.75 13.38 32.37 24.07 15.95 16.05 28.22 36.58 32.48 54.32 7.84 32.6 3.5 75.88-10.54 105.48-17.76 37.41-49.8 68.37-87.1 84.2-5.18 2.2-9.58 4.1-9.79 4.24-.21.14.84 10.27 2.33 22.51 4.96 40.7 6.17 55.51 6.19 75.54 0 10.92-.53 23.57-1.2 28.11-.67 4.54-1.05 8.43-.84 8.64.73.72 30.64-4.88 45.25-8.47 130.88-32.25 239.2-127.54 289.2-254.42a424.43 424.43 0 0 0-39.63-388.2C759.9 205.07 678.26 144.48 580.98 116c-14.78-4.33-14.73-4.31-14.73-3.72zM432 442.44a6946.2 6946.2 0 0 1-21.42 16.03 524.02 524.02 0 0 0-62.2 54.82c-36.2 37.52-56.3 70.68-63.82 105.33-2.96 13.65-2.74 39.87.46 54.2 10.42 46.64 38.83 84.28 79.1 104.82 26.54 13.53 51.04 18.18 81.98 15.54 11.43-.98 39.32-5.61 40.42-6.72.15-.15-4.37-28.22-10.05-62.38a6423.86 6423.86 0 0 1-15.28-96.06c-2.72-18.67-5.05-34.08-5.16-34.23-.65-.85-15.78 4.72-22.47 8.28-22.69 12.07-37.73 29.69-43.56 51.03-2.8 10.23-2.5 31.8.55 40.12 3.23 8.8 8.51 17.85 17.36 29.74 11.76 15.8 13.31 18.4 12.93 21.73-.31 2.74-.71 2.99-5.36 3.28-4.24.27-6.27-.35-13.06-4.01-30.83-16.63-46.59-39.77-52-76.38-7-47.37 13.23-92.56 54.36-121.47 11.5-8.1 30.37-18.25 38.27-20.62 4-1.2 4.22-1.48 3.68-4.48a1830 1830 0 0 1-4.26-35.08c-2.03-17.52-4.15-34.68-4.72-38.13-.57-3.45-1.04-6.62-1.05-7.05 0-1.31-1.42-.8-4.7 1.7zm54.2 151.76c1.67 8.1 15.5 107.88 17.35 125.24 1.16 10.92 3.12 28.63 4.34 39.35l2.22 19.49 4.64-2c18.28-7.83 40.13-25.72 49.64-40.64 13.49-21.16 18.84-43.9 15.13-64.26-3.4-18.66-13.76-39.38-25.8-51.65-14.23-14.49-38-25.31-60.98-27.77l-7.16-.77zm-83.37 397.05c-.76 1.97 2.72 4.34 8.17 5.56 5.07 1.14 15.72.25 23.09-1.92 3.12-.92 3.12-.92.52-1.48-1.44-.3-9.07-1.2-16.97-1.97-10.81-1.06-14.46-1.1-14.81-.2z"
      fill="#7c24e4" />
</svg>