<svg xmlns="http://www.w3.org/2000/svg" width="25" height="25"><path d="m129.213 169.57-1.567 1.614c.282.273.368.37.432.492.013.064-.007.065.065.209v.002c.004.008.004.002.008.01 0 .029-.029-.04.025.125 0 .002.001 0 .002.002.013.04.024.015.04.05l.001.032.01.086.006.037.072-.014c.033.094.056.173.114.264l-.018-.004c-.006-.002-.05-.028-.058-.031-.005-.013-.02-.038-.024-.047-.023-.06-.024-.07-.023-.067-.012-.045.024.108.015.098-.072-.036-.166-.094-.435-.229l-.008-.004c-.033-.016-.037 0-.069-.011-.067-.066-.058-.1-.21-.176a3 3 0 0 1-.311-.17c.318.212.287.142-.143-.145h-.002c-.369-.246-.562-.266-.455-.212.346.172.4.353.375.316s-.17-.323-.619-.473c-.02-.007-.011.004-.031-.002-.048-.036-.076-.064-.205-.129-.07-.034-.056.006-.117-.013.096.043.123.038-.121-.084v.002c-.206-.103-.244-.09-.301-.094a7 7 0 0 0-1.041-.424c-.086-.057-.473-.224-.744-.224v2.248c-.153 0-.476-.135-.5-.15-.025-.017.214.149.466.212.281.07.513.191.92.395h.002c.153.076.16.056.223.068-.064-.025-.112-.036.111.076.061.03.048-.007.104.012.045.035.07.074.28.18h.001c.054.027.048-.004.098.013.054.039.017.044.093.082.315.158.384.187.215.074-.318-.212-.286-.143.143.143.17.113.299.176.422.238.048.054.032.063.154.145v.002c.185.123.269.143.217.117l.092.022c.135.073.36.237.773.375.29.096.409.103.385.095-.11-.036-.008-.002.064.03.073.03.168.073.276.115s.22.086.384.125c.083.02.177.042.342.043.084 0 .281-.132.43-.174 0 .003.016.041.016.041l-.06.02-.026.007c-.006.002-.001.002.006 0l.066-.019c.03-.009.065-.018.123-.04.036-.012.176-.115.268-.167.012-.012.016 0 .029-.012.003-.003 0-.005.004-.008.058-.04.02.031.139-.088.028-.028.009-.059.033-.09.005-.004.01 0 .015-.005.077-.077.057-.165.106-.258.062-.066.084-.042.152-.178v-.002c.087-.174.02-.148.035-.26.013-.03.01-.043.02-.068 0-.016.024-.045.023-.059 0-.01-.002-.006-.002-.015.04-.134.101-.283.125-.43.02-.118.035-.242.037-.395.003-.152.045-.314-.142-.69-.092-.182-.051-.097-.033-.044.087.26.086.146-.026-.3-.014-.057-.026-.11-.06-.198-.011-.028-.035-.074-.055-.115-.013-.064.022-.026-.004-.104v-.002c-.018-.052-.033-.02-.053-.064.043.115.056.076-.043-.22v-.003c-.02-.06-.038-.032-.062-.082-.004-.056.01-.095-.094-.305-.255-.51-.604-.837-.894-1.119zm.6.91c-.028-.018.163.045.341.4v.003c.051.102.026.06.035.096a1.8 1.8 0 0 0-.377-.498m-1.565 1.288c0 .004-.007.019-.008.023h-.002zm2.152.058a1.2 1.2 0 0 1-.02.227.8.8 0 0 1-.007-.221zm-1.06.197s1.12.082 1.12.073l.003-.031v.02l-.002.01a1 1 0 0 1-.008.065c-.003.018-.031.094-.037.125zm0 0 .965.528c-.02.032-.028.057-.059.097-.031.042-.123.136-.123.135l-.197.15-.64.155-.505-.166c.127-.034.311-.157.37-.156.117 0 .15.014.165.017.03.007-.023-.008-.084-.03l-.125-.052c.131-.03.291-.14.366-.134-.017-.002-.006-.004-.026-.006-.075-.006-.233.103-.361.13l-.057-.023c-.069-.03-.08-.043-.244-.098-.167-.055-.162-.045-.222-.056-.054-.029-.129-.14-.233-.303l.084-.016c.032.02.124.139.121.137-.002 0-.074-.12-.103-.14zm-2.014.057.33.078c-.17-.034-.367-.08-.424-.074-.084.009-.063-.004.094-.004m.49.115.014.004c-.116-.058-.1-.062.026.022v.002c.207.138.22.203.185.16-.017-.021-.157-.12-.225-.188zm.508.016c.103.14.18.272.235.303-.027-.005-.1-.027-.102-.026-.061-.111-.118-.193-.139-.275zm.242.496c.029.024.056.04.086.062v.002l.002-.002c.026.019.046.037.07.053-.01 0-.03-.023-.072-.05h-.002c-.047-.032.01.026-.08-.057-.003-.003 0-.005-.004-.008zm.192.139h.002c.02.011.041.034.058.043.023.01-.063-.05-.06-.043m-.014.01c.003.006.026.051.031.064l-.037-.012-.031-.029c.011-.006.029-.021.037-.023m.031.068.422.904-.701-.7c.006-.013.007-.022.014-.034l.013.03c-.014-.03.001-.013-.01-.038.013-.021.01-.04.024-.06.07-.05.104-.046.166-.07.027-.011.047-.025.072-.032zm-3.097.5c.256.056.529.08.556.074.038-.007-.137.084-.51-.04-.035-.013-.015-.02-.046-.034m2.662.121c.02.114-.034.386-.035.379a1.4 1.4 0 0 1-.028-.207c.002-.048.052-.113.063-.172m2.074.367c-.02.097.046.048-.02.18-.049.099-.054.067-.101.123.056-.11.098-.2.121-.303m-2.52-3.662-.048.014-.051.045-.006.01-.01.029-.002.01v.025l-.002.01v.053q0 .014.002.026 0 .007.002.017l.002.014.004.015.016.028c.035.052.07.074.093.093q.09.207.182.413l.002.002c.262.547.483.95.77 1.492.1.21.179.437.283.664.082.18.19.323.234.465.054.178.058.386.092.605l.246-.039c-.03-.196-.032-.417-.1-.64-.06-.2-.18-.35-.246-.495-.098-.214-.179-.446-.289-.674l-.002-.004c-.287-.542-.505-.941-.764-1.482l-.191-.428-.025-.037c-.032-.032-.045-.043-.059-.056v-.037l-.002-.014v-.02l-.002-.008-.121.03.115-.047-.01-.022-.014-.015zm-.107.174h.229v.002l-.008.014-.05.044-.05.014-.1-.04-.011-.016zM47.578 71.71c-.207-.018-.683.05-.996.363-.223.223-.199.285-.238.395-.011.01-.023.001-.033.011-.039.039-.021.086-.053.13-.006.022-.062.095-.069.113l-.021.058c.002-.004.044-.058.047-.068-.012.02-.013.036-.024.057-.001 0-.02.011-.023.011h-.002v.002c-.005 0-.038.018-.047.02a.2.2 0 0 0 .022-.04l-.038.046c-.078.022-.105.007-.367.164-.318.19-.23.171-.299.232a5.355 5.355 0 0 0-.436.426c-.036.04-.071.08-.118.14s-.107.054-.227.415c-.12.362-.058.59-.053.627s-.047-.101.028-.4c.092-.37.124-.385-.112.085-.193.387-.2.564-.2.568-.035.102-.094.251-.153.457-.036.128.006.073-.002.163-.036.114-.141.237-.147.326-.005.095.01.112.016.176-.02.045.027-.12-.039.056-.131.35-.308.772-.441 1.262-.189.69.11-.018-.33.685l2.097 1.313c.372-.596.45-.729.62-1.348.076-.281.22-.642.37-1.043-.088.236.046.122.178-.406.071-.285.015-.271-.008-.396.015-.053.06-.106.067-.153-.009.038.01.004-.002.047l.058-.174.063-.181c.073-.219.16-.43.068-.246-.088.175.085-.148.211-.42l.006-.006q.056-.056.106-.102c-.05.038.04.013.343-.139.373-.186.296-.2.334-.238s.063-.064.088-.092a5 5 0 0 0 .285-.341c.006-.008.017-.03.022-.036.023-.023.01-.021.03-.043.165-.18.213-.287.241-.363l.157-.191s.048-.079.062-.106a1.2 1.2 0 0 0 .088-.203c.014-.041.019-.065.025-.088a4 4 0 0 0 .06-.244c.005-.02.01-.038.015-.064l.01-.055c.003-.026.013-.194.013-.195h-2.475l.012-.162.014-.036c.305-.304.768-.37.963-.353-.023-.003-.01-.006-.037-.008-.19-.016-.603.08-.913.33.01-.02.018-.04.04-.082.013-.026.06-.104.06-.103l.156-.19c.306-.305.77-.37.965-.353.196.016.247.047.24.045-.006-.002-.07-.037-.277-.055m-1.4 1.096c-.053.111-.103.201-.125.304.017-.117-.056-.067.027-.236-.001-.007.069-.045.098-.068m2.203.267c.003.012.035.084.037.287 0 .049-.074.14-.086.207-.01-.182.046-.507.049-.494m-4.219 2.768c.016.129 0 .391-.006.369-.004-.02-.035-.103-.025-.3 0-.018.029-.05.031-.07m2.31.082s.027.059.016.234c0 .006-.009.018-.01.024-.017-.052-.005-.258-.005-.258m-2.2 2.923c.405-.649.295-.362.474-1.016.105-.386.266-.778.407-1.153.035-.095.11-.173.135-.271.033-.132-.096-.311 0-.407.016-.016.052.016.068 0 .032-.032-.012-.092 0-.136.04-.137.09-.27.136-.406.037-.112.084-.305.135-.407.056-.112.17-.204.204-.34.01-.043-.015-.092 0-.135.025-.077.475-.502.542-.542.135-.081.343-.138.474-.203.037-.019.304-.336.34-.407.01-.02-.017-.052 0-.068.015-.016.051.016.067 0 .064-.063.11-.314.204-.407.016-.016.051.016.067 0 .01-.01.068-.253.068-.271m-12.118 5.426-.44 2.435c.245.044.683.284 1.44.41l.406-2.441c-.24-.04-.663-.27-1.406-.404m-.22 1.218c.493.09.925.324 1.423.407m7.242-2.293c-.455.139-.688.342-.963.591-.09.082-.762.315-.705.315-.384 0-.739.057-1.106.226a1.7 1.7 0 0 0-.57.407c-.006.006-.007.024-.013.03-.02.004-.012.005-.034.009a10.5 10.5 0 0 1-1.51.095c-1.406 0-2.494-.001-3.415.778-.922.779-1.1 1.85-1.334 3.238-.065.38-.163.758-.249 1.01a2 2 0 0 1-.097.246c-.013.024-.088-.038.293-.274-.483.299-.542.568-.63.778s-.136.402-.179.607a6.7 6.7 0 0 0-.129 1.35c0 .294-.048.612-.113.83s-.214.324-.016.16c-.525.436-.665.885-.806 1.361a5.4 5.4 0 0 0-.215 1.534c0 .314-.038.634-.082.83-.022.097-.049.166-.045.158.003-.008-.014-.127.33-.34-.455.281-.536.548-.63.762a3.2 3.2 0 0 0-.198.625 6.4 6.4 0 0 0-.143 1.386c0 .278-.05.625-.123.885s-.24.449-.09.299c-.471.472-.611.95-.742 1.479a7.2 7.2 0 0 0-.195 1.724c0 .38-.038.708-.076.912-.144.14-.226.262-.29.37-.133.228-.207.43-.28.656a9 9 0 0 0-.34 1.58c-.064.477-.158.94-.245 1.254a3 3 0 0 1-.103.318c-.017.04-.17-.017.336-.33-.509.314-.546.583-.629.79-.083.209-.13.4-.17.604-.08.409-.121.864-.121 1.348 0 .277-.05.624-.123.885-.073.26-.24.448-.09.299-.47.47-.592.911-.726 1.406a6 6 0 0 0-.211 1.584c0 .339-.039.682-.084.894-.022.099-.043.157-.045.165-.316.334-.41.647-.487.94a5 5 0 0 0-.152 1.26c0 .381-.33 1.269-.312 1.245-.672.888-.816 1.836-.825 2.87a2.9 2.9 0 0 1-.12.763c-.068.215-.231.34-.02.166-.526.436-.69.925-.827 1.435a6.5 6.5 0 0 0-.197 1.672c0 .35-.038.641-.074.826a1.6 1.6 0 0 0-.31.399c-.135.25-.189.453-.239.672-.1.436-.144.922-.144 1.46 0 .422-.05.797-.114 1.036-.063.239-.188.315-.013.17-.526.436-.688.92-.825 1.427a6.4 6.4 0 0 0-.199 1.659c0 .377-.04.755-.088.994-.022.11-.045.178-.05.193-.305.33-.402.639-.477.93q-.15.589-.15 1.26c0 .38-.331 1.268-.313 1.244-.671.887-.817 1.836-.826 2.87a2.9 2.9 0 0 1-.121.762c-.068.215-.23.342-.02.166-.526.437-.688.926-.824 1.436s-.2 1.07-.2 1.672c0 .346-.036.632-.071.818a1.5 1.5 0 0 0-.32.428c-.131.251-.184.456-.233.678-.098.443-.14.941-.14 1.494 0 .533-.054.895-.09 1.02-.037.123.04-.114.308-.217-.66.253-1.018.858-1.174 1.369-.156.51-.195 1.037-.195 1.668 0 .379-.04.76-.088 1-.022.11-.047.177-.053.193-.3.325-.398.63-.474.918a5 5 0 0 0-.155 1.246c0 .358-.262 1.422-.435 1.754a6.44 6.44 0 0 0-.713 2.922c0 .189-.044.448-.106.633-.061.184-.2.29-.023.144-.526.436-.665.883-.807 1.36a5.4 5.4 0 0 0-.214 1.533c0 .314-.038.636-.082.832-.023.098-.049.166-.045.158.003-.008-.014-.127.33-.34-.455.281-.537.546-.631.76-.095.214-.15.415-.197.627a6.4 6.4 0 0 0-.143 1.387c0 .277-.05.622-.123.882-.073.261-.24.45-.09.301-.47.471-.592.912-.726 1.406a6 6 0 0 0-.211 1.584c0 .35-.035.698-.077.915-.02.108-.046.186-.045.181s-.059-.136.375-.404c-.597.37-.546.59-.634.795-.089.205-.154.409-.217.638a12 12 0 0 0-.313 1.588c-.061.466-.16.893-.24 1.139v.002c-.184.15-.306.328-.375.447a2.3 2.3 0 0 0-.248.649 5.7 5.7 0 0 0-.144 1.36c0 .285-.05.638-.123.903-.074.266-.245.457-.09.303-.471.47-.595.916-.729 1.414a6.2 6.2 0 0 0-.209 1.598c0 .304-.035.548-.066.709-.12.121-.238.25-.293.344a2.3 2.3 0 0 0-.258.656c-.106.42-.15.874-.15 1.379v1.527l1.236 1.236 47.535.104c18.702.04 30.612.091 37.883.18 3.635.044 6.112.099 7.684.164q1.179.05 1.69.103c.162.017.264.034.304.041.475.338.973.507 1.523.535.022.367.051.733.272 1.1.178.297.606.413.984.568.041.081.054.25.094.319.107.188.224.35.355.517.262.335.578.681.914 1.014s.686.645 1.024.904c.169.13.332.246.521.352.05.028.178.037.233.068.194.339.452.596.683.71.364.178.717.24 1.098.24-.07 0 .008.208-.156-.22.224.586.623.865 1.007 1.063s.801.307 1.264.307c.108 0 .251.026.314.047.064.02.006.14-.246-.268.407.657.639.572.866.662s.46.157.724.223c.528.13 1.167.243 1.848.32a14 14 0 0 1 1.537.256c.194.046.349.094.41.117.031.012.04.02-.004-.006-.043-.025-.161-.043-.353-.353.436.706.688.564.865.615.177.05.33.078.504.103.346.05.756.083 1.236.112.96.057 2.18.084 3.404.084s2.444-.028 3.405-.086q.718-.042 1.236-.115c.173-.026.327-.051.504-.102.175-.05.427.075.855-.61-.198.314-.318.334-.359.356-.041.023-.029.013.008 0a5 5 0 0 1 .457-.123 16 16 0 0 1 1.686-.265c.73-.079 1.412-.19 1.968-.317.279-.064.522-.128.754-.213a2.4 2.4 0 0 0 .366-.164c.136-.076.318-.14.544-.506-.21.341-.281.272-.253.262a.7.7 0 0 1 .166-.03c.72 0 1.33-.227 2.025-.534a17 17 0 0 0 2.205-1.213c1.527-.978 3.113-2.239 4.313-3.54l1.843-1.997h48.094c18.443 0 30.679-.029 38.434-.1 3.877-.036 6.632-.082 8.494-.143a55 55 0 0 0 2.162-.103c.524-.039.74-.01 1.238-.19.599-.216 1.166-.436 1.606-1.015.44-.58.484-1.233.484-1.826 0-.495-.086-.962-.234-1.399s-.304-.848-.788-1.25c.196.162.05.06-.015-.16a3.3 3.3 0 0 1-.113-.852c0-.496-.045-.943-.153-1.359a2.2 2.2 0 0 0-.261-.654 2 2 0 0 0-.293-.332c-.028-.14-.061-.34-.061-.604 0-.532-.077-1.06-.203-1.556-.127-.496-.262-.936-.61-1.395.035.046-.329-.901-.337-1.363-.019-1.015-.184-1.945-.838-2.81.018.023-.313-.864-.313-1.245q0-.67-.152-1.26c-.077-.297-.17-.61-.496-.949.004.007-.021-.055-.043-.146a4 4 0 0 1-.088-.791c-.01-1.044-.148-2-.826-2.897.037.05-.108-.21-.186-.514a4.2 4.2 0 0 1-.127-.945c0-.49-.044-.932-.152-1.346a2.2 2.2 0 0 0-.266-.65c-.054-.087-.171-.204-.283-.314a3.3 3.3 0 0 1-.064-.657c0-.543-.08-1.073-.215-1.562s-.254-.924-.725-1.395c.104.104-.033-.059-.103-.279s-.12-.507-.121-.707c-.01-.995-.186-1.905-.827-2.752.019.024-.312-.864-.312-1.244q0-.671-.15-1.26c-.077-.296-.171-.61-.493-.947.001.002-.022-.053-.043-.143a4 4 0 0 1-.08-.808c0-1.056-.126-2.02-.814-2.93.058.078-.319-.91-.324-1.424v-.002a6 6 0 0 0-.157-1.345 3 3 0 0 0-.205-.612c-.097-.21-.187-.468-.62-.736.452.28.29.318.26.223a1.8 1.8 0 0 1-.06-.442c-.002-.94-.282-1.867-.716-2.701-.178-.34-.44-1.393-.444-1.74-.01-.973-.204-1.86-.826-2.682.037.05-.108-.21-.186-.514a4.2 4.2 0 0 1-.127-.945c0-.49-.045-.932-.154-1.346a2.2 2.2 0 0 0-.265-.65 2 2 0 0 0-.288-.318 3 3 0 0 1-.06-.608c0-.532-.077-1.059-.203-1.554-.127-.496-.264-.938-.611-1.397.064.086-.32-.914-.325-1.445v-.002a5.3 5.3 0 0 0-.158-1.323 2.2 2.2 0 0 0-.262-.638 1.7 1.7 0 0 0-.355-.403l-.004-.01a7 7 0 0 1-.238-1.134 10 10 0 0 0-.323-1.555 3.3 3.3 0 0 0-.256-.639 1.5 1.5 0 0 0-.279-.386l-.008-.004a3.5 3.5 0 0 1-.06-.62c-.01-1.044-.21-2.1-.725-3-.121-.211-.394-1.206-.398-1.582a5 5 0 0 0-.166-1.246c-.106-.387-.055-.782-.819-1.254.553.342.308.343.27.202a2.8 2.8 0 0 1-.08-.623c-.011-.97-.243-1.94-.725-2.784-.153-.268-.396-1.174-.398-1.37-.013-.93-.297-1.843-.727-2.667-.173-.332-.435-1.394-.435-1.752q-.001-.664-.155-1.248c-.103-.389-.05-.789-.818-1.263.57.352.315.354.277.209a3 3 0 0 1-.074-.64c0-.99-.175-1.894-.812-2.737.058.077-.32-.91-.325-1.424a6 6 0 0 0-.156-1.348 3 3 0 0 0-.205-.611c-.097-.21-.187-.468-.621-.737.452.28.289.318.26.223a1.8 1.8 0 0 1-.06-.441c-.003-.941-.281-1.866-.716-2.7-.21-.403-.431-1.361-.431-1.423 0-.82-.207-1.62-.545-2.362-.243-.532-.766-1.174-1.436-1.457-.67-.282-1.36-.36-2.435-.474-.626-.067-1.2-.165-1.563-.254a3 3 0 0 1-.305-.09c-.04-.034-.058-.15-.093-.174a1.9 1.9 0 0 0-.602-.277 4 4 0 0 0-1.164-.15c-.394 0-.756.013-1.182.17-.425.155-.949.616-1.1 1.156-.3 1.078.157 1.668.612 2.54.211.405.434 1.361.434 1.419 0 .39.06.75.177 1.097.118.347.205.72.793 1.084-.292-.18-.301-.294-.31-.312s.012.03.031.105a3 3 0 0 1 .076.664c0 .503.084.98.23 1.426s.293.864.792 1.277c-.195-.162-.05-.06.013.16.065.22.116.543.116.852 0 .496.043.943.15 1.36.054.207.115.406.264.652.054.09.172.214.289.33.029.145.062.357.062.633 0 .545.075 1.066.215 1.547s.283.933.809 1.369c-.178-.148-.05-.066.013.17.064.235.114.6.114 1.003 0 .54.052 1.04.158 1.489.053.224.115.433.232.668.118.234.256.597.877.804-.537-.179-.505-.369-.507-.373s.038.083.078.207c.08.25.169.657.216 1.08.063.56.158 1.061.286 1.49.063.216.13.408.252.632.058.107.131.228.275.375.023.134.05.305.05.543 0 .518.083 1.02.221 1.488.139.467.275.89.717 1.332-.133-.133.018.035.09.318s.123.68.123 1.08c0 .544.045 1.034.145 1.473.05.22.103.423.236.674.067.125.15.268.33.431.004.003.014.005.018.008.018.1.04.195.04.362.003.994.258 2.034.717 2.916.195.374.432 1.363.432 1.554 0 .414.059.805.162 1.176s.179.708.598 1.127c-.292-.292-.065-.075.035.227.1.301.221.749.342 1.281.24 1.064.486 2.476.666 3.934.067.542.193 1.065.361 1.535s.252.86.815 1.326c-.224-.186-.073-.082-.014.11.059.19.103.467.103.685 0 .89.046 1.686.473 2.527.1.198.44 1.168.707 2.174s.513 2.133.621 2.898c.13.922.453 2.047.832 2.887.2.442.436 1.54.436 1.865q0 .647.156 1.22c.104.381.078.78.814 1.236-.454-.281-.292-.322-.263-.227s.059.283.058.441c0 .93.27 2.075.608 3.135.292.916.717 2.39.922 3.19.219.857.653 2.494.97 3.662.31 1.135 1.888 7.086 3.498 13.177 1.349 5.101 2.07 7.893 2.364 9.385.112.568.116.778.127.977-.168.042-.32.095-.707.125-1.057.082-2.913.146-6.034.195-6.24.099-17.566.14-38.109.188l-45.242.105-1.234 1.238v.922c0 .086-.28.69-.213.623-.653.653-.938 1.335-.938 2.26 0-.056-.348.814-1.152 1.553-.804.738-1.929 1.446-2.926 1.79-4.044 1.398-9.457 2.023-15.494 1.73a78 78 0 0 1-3.96-.284 20 20 0 0 1-1.189-.152 3 3 0 0 1-.24-.05c-.007-.001.006-.001.074.03s.229.019.489.44c-.371-.6-.65-.57-.866-.645a4 4 0 0 0-.64-.156 9 9 0 0 0-1.5-.113c-.623 0-2.59-.417-4.004-.97-1.545-.601-2.44-1.172-3.11-1.98-.669-.807-1.17-1.954-1.652-3.822l-.687-2.672-1.201-.93-43.043.069c-23.532.037-34.683.085-39.78-.162-2.288-.111-3.041-.386-3.129-.37.016-.083.016-.063.034-.167.106-.649.318-1.951.47-2.903.068-.425.166-.868.26-1.203.095-.334.336-.68.098-.377.223-.284.263-.446.336-.642.072-.197.135-.406.195-.635.12-.458.224-.992.299-1.535.06-.438.151-.864.234-1.15a3 3 0 0 1 .098-.286c.014-.031.14.033-.332.324.52-.322.55-.594.63-.802.082-.209.129-.4.169-.606.079-.411.119-.872.119-1.361 0-.287.033-.511.062-.668.135-.132.22-.25.281-.352.135-.224.208-.42.28-.638.144-.436.253-.946.328-1.512.122-.921.454-2.211.478-2.27.571-1.348 1.252-4.088 1.516-5.859.046-.309.12-.645.193-.896s.264-.503.057-.243c.209-.262.2-.33.248-.443a6 6 0 0 0 .137-.361q.138-.402.312-.987c.233-.776.51-1.777.79-2.832.557-2.109 1.112-4.368 1.302-5.537.087-.53.33-1.426.422-1.656.513-1.284 1.212-4.02 1.58-5.984.135-.72.525-1.847.613-2.01.47-.867.604-1.819.604-2.795 0-.226.03-.384.055-.506.116-.113.235-.233.29-.322.153-.245.214-.442.268-.649.11-.412.154-.852.154-1.34 0-.551.362-1.58.305-1.5.537-.773.795-1.677.942-2.613.176-1.128.435-2.39.693-3.435s.608-2.001.607-2c.473-.855.522-1.658.522-2.565 0-.208.046-.483.11-.677.062-.195.208-.306.019-.149.526-.436.688-.927.824-1.437a6.5 6.5 0 0 0 .197-1.672c0-.354.04-.654.076-.838.106-.107.22-.22.272-.305.151-.245.211-.443.265-.65a5.3 5.3 0 0 0 .155-1.346c0-.272.05-.642.127-.945.077-.304.223-.563.185-.514.678-.896.817-1.852.826-2.896.003-.307.039-.619.08-.807.021-.094.046-.16.042-.148-.005.01.023.136-.35.367.572-.354.544-.577.637-.783s.16-.413.226-.643c.132-.461.244-1.008.324-1.59.065-.473.163-.932.252-1.244.045-.156.09-.277.108-.316.017-.04.152.018-.324.312.42-.26.512-.511.605-.71.093-.2.148-.382.193-.573q.137-.575.137-1.23c0-.381.33-1.269.313-1.245.678-.896.815-1.85.824-2.894.003-.31.04-.625.08-.815.02-.094.044-.16.039-.148-.005.011.035.14-.36.383.574-.355.544-.584.631-.787.088-.204.15-.405.21-.627.117-.445.212-.968.275-1.524.048-.426.138-.837.219-1.088.04-.125.082-.212.08-.209s.03.193-.51.373c.621-.207.76-.568.877-.802s.18-.446.232-.67c.106-.45.158-.95.158-1.489 0-.404.05-.768.114-1.004.064-.235.191-.315.013-.168.499-.413.645-.831.791-1.277s.233-.923.233-1.426c0-.248.036-.51.074-.662.014-.055.02-.067.024-.078.413-.352.667-.752.667-1.426 0-.339-.248-.97-.734-1.216s-.843-.148-1.07-.079zm-1.346 2.695-.008.07c-.053.174-.1.374-.171.451-.063.068-.084.07-.122.094.135-.15.248-.335.301-.615m-.076.639c-.001.044-.016.081-.016.126 0 .198-.043.466-.105.655s-.204.295-.022.144c-.525.437-.685.92-.822 1.426a6.3 6.3 0 0 0-.201 1.65c0 .367-.043.724-.09.922-.023.1-.052.16-.035.127s.045-.267.55-.435c-.656.219-.745.548-.868.77a3.5 3.5 0 0 0-.276.661 8 8 0 0 0-.32 1.563c-.05.443-.132.877-.209 1.166a3 3 0 0 1-.09.285c-.013.03-.142-.044.34-.342-.485.3-.536.562-.621.766-.086.204-.134.39-.176.59-.085.398-.13.84-.135 1.308-.004.513-.382 1.502-.324 1.424-.638.843-.814 1.746-.814 2.737 0 .248-.033.51-.069.658-.017.074-.037.12-.027.097s.011-.147.336-.347c-.572.353-.543.576-.635.783-.092.206-.16.414-.226.644-.133.461-.247 1.007-.327 1.588-.065.473-.16.935-.25 1.246a3 3 0 0 1-.109.317c-.018.04-.152-.02.324-.315-.468.29-.532.552-.62.758a3 3 0 0 0-.186.596 6.4 6.4 0 0 0-.141 1.318c-.004.513-.383 1.503-.324 1.426-.347.459-.483.899-.61 1.395a6.3 6.3 0 0 0-.203 1.556c0 .255-.032.442-.058.584-.174.159-.26.301-.326.424-.135.25-.19.452-.24.67-.1.437-.143.922-.143 1.46 0 .423-.052.797-.116 1.036-.063.239-.188.315-.013.17-.506.42-.648.841-.793 1.291s-.229.932-.229 1.44c0 .524-.282 1.489-.215 1.367-.38.69-.568 1.484-.843 2.603a45 45 0 0 0-.735 3.649c-.084.54-.488 1.525-.529 1.584-.634.913-.746 1.868-.746 2.91 0 .309-.042.594-.072.707-.015.056-.036.07.025-.028.06-.097.316-.468.9-.468-.654 0-1.022.422-1.181.664-.16.241-.225.438-.281.64-.114.405-.159.83-.159 1.301 0 .528-.275 1.56-.304 1.615-.412.759-.688 1.767-.87 2.735-.334 1.784-1.131 4.73-1.447 5.521-.245.614-.446 1.443-.566 2.178-.145.89-.704 3.227-1.252 5.299a95 95 0 0 1-.768 2.758c-.11.368-.207.675-.279.882a4 4 0 0 1-.082.22c-.015.035-.072.07.098-.143-.375.471-.385.713-.494 1.087a9 9 0 0 0-.268 1.227c-.218 1.462-1.022 4.496-1.346 5.262-.332.785-.51 1.826-.654 2.908-.058.436-.15.836-.225 1.06l-.002.007c-.006.005-.023.006-.029.011-.18.156-.27.298-.338.42-.137.244-.19.437-.238.643a5.8 5.8 0 0 0-.139 1.353c0 .342-.035.684-.076.895-.02.105-.043.18-.041.174.003-.006-.057-.139.373-.405-.562.348-.535.566-.625.766s-.156.396-.219.615c-.126.438-.231.952-.306 1.5-.061.443-.153.903-.243 1.248a5 5 0 0 1-.123.405c-.031.086-.092.136.04-.032-.42.536-.406.788-.532 1.233-.125.444-.24.958-.324 1.482-.151.947-.362 2.252-.467 2.893-.03.182-.126.42-.158.88-.032.461.247 1.283.768 1.657 1.04.748 2.167.745 4.808.873 5.283.256 16.374.203 39.903.166l42.082-.067.449 1.743c.22.855.473 1.578.748 2.271-.158-.064-.383-.17-.281-.068-.513-.512-.638-.368-.815-.405a6 6 0 0 0-.572-.082 32 32 0 0 0-1.838-.113c-1.622-.067-4.112-.122-7.758-.166-7.291-.088-19.202-.139-37.906-.18l-46.3-.1v-.292c0-.289.034-.516.064-.67.126-.127.245-.265.3-.361.144-.248.2-.447.252-.659.104-.423.149-.886.149-1.398 0-.32.052-.685.125-.955.072-.27.235-.454.088-.307.47-.47.589-.905.724-1.394.135-.49.213-1.02.213-1.563 0-.278.034-.492.063-.646.16-.15.236-.273.302-.387.134-.228.208-.43.282-.656.147-.453.26-.987.34-1.58.063-.478.157-.942.244-1.256.043-.157.086-.279.103-.318.017-.04.17.019-.336.332.526-.325.552-.597.633-.807s.128-.403.168-.611c.08-.416.12-.883.12-1.38 0-.305.051-.665.124-.933s.239-.457.088-.307c.466-.466.587-.898.723-1.384.135-.486.215-1.01.215-1.55 0-.32.039-.649.083-.849.023-.1.048-.169.045-.162-.002.007.018.128-.332.344.45-.278.534-.543.63-.756.094-.213.151-.412.198-.623.095-.421.143-.886.143-1.377 0-.294.049-.612.113-.83.065-.218.214-.323.016-.158.493-.41.642-.826.789-1.268a4.5 4.5 0 0 0 .232-1.414c0-.38.265-1.453.434-1.777a6.4 6.4 0 0 0 .715-2.893c0-.23.035-.48.072-.62s.283-.134-.273.21c.503-.31.554-.59.644-.81.09-.222.144-.43.19-.655.09-.448.136-.953.136-1.488 0-.494.054-.833.088-.945.035-.113-.036.115-.306.218.662-.254 1.027-.876 1.18-1.396.152-.52.189-1.059.189-1.717 0-.373.04-.691.078-.889.152-.146.245-.281.307-.396.134-.25.188-.454.238-.672.1-.437.144-.922.144-1.46 0-.423.05-.795.114-1.034.063-.239.188-.315.013-.17.528-.438.656-.866.801-1.328s.23-.961.235-1.483c.004-.495.376-1.469.324-1.4.637-.843.814-1.746.814-2.736 0-.24.035-.495.072-.64.038-.146.295-.144-.275.208.501-.31.554-.587.645-.809.09-.22.142-.428.187-.652.09-.447.139-.95.139-1.484 0-.41.05-.777.113-1.014.064-.236.19-.315.014-.168.526-.436.688-.927.824-1.437s.2-1.07.2-1.672c0-.347.036-.635.071-.82.158-.15.25-.288.313-.405.134-.25.188-.453.238-.672.1-.437.143-.922.143-1.46 0-.423.051-.795.115-1.034s.189-.315.014-.17c.527-.438.655-.866.8-1.328s.23-.961.235-1.482c.004-.496.376-1.47.324-1.4.638-.844.815-1.747.815-2.737 0-.239.034-.495.072-.64s.292-.144-.278.208c.47-.29.542-.56.635-.777s.149-.417.196-.633c.093-.431.14-.91.14-1.418 0-.305.052-.665.125-.933.073-.269.239-.458.088-.307.466-.466.587-.897.723-1.383a5.8 5.8 0 0 0 .215-1.55c0-.333.034-.666.074-.87.02-.102.046-.174.043-.166s.046.14-.371.399c.597-.37.548-.59.636-.795a5 5 0 0 0 .217-.64c.127-.46.235-1.005.313-1.587.062-.466.158-.895.238-1.14.016-.05.012-.04.025-.07.016-.014.06-.017.073-.03.174-.17.252-.313.314-.438.124-.249.174-.45.22-.671.094-.442.136-.941.136-1.495 0-.432.051-.842.123-1.13.07-.29.217-.45.09-.323.465-.466.586-.897.722-1.383a5.8 5.8 0 0 0 .215-1.55c0-.321.04-.65.084-.85.022-.1.048-.169.045-.162s.017.128-.332.344c.45-.278.534-.543.629-.756s.151-.413.199-.623a6.3 6.3 0 0 0 .142-1.375c0-.295.05-.612.114-.83s.211-.325.013-.16c.526-.437.668-.885.809-1.362.141-.476.215-.993.215-1.533 0-.322.035-.648.076-.846.02-.099.047-.167.043-.158s.03.136-.355.375c.476-.295.506-.504.605-.695a4 4 0 0 0 .242-.584c.14-.412.258-.89.344-1.397.22-1.299.445-1.72.494-1.761.05-.042.5-.192 1.816-.192.725 0 1.368-.042 1.899-.127.265-.042.497-.086.76-.187.131-.05.273-.108.466-.262.036-.028.053-.15.094-.191.013-.002 0 0 .014 0 .093 0 .158-.041.246-.047zm172.984.103c.01.003.017-.003.098.06.106.083.426.318.426.903 0-.52-.298-.771-.524-.963m-1.363 2.049c.133.094.25.157.35.201.237.103.461.166.722.23.523.129 1.171.236 1.89.313 1.026.11 1.586.232 1.735.295s.014-.085.145.201c.139.305.322 1.17.322 1.336 0 .925.295 1.764.715 2.568.195.375.433 1.366.434 1.561 0 .41.057.792.168 1.156.11.365.14.752.804 1.162-.328-.203-.318-.319-.322-.328s.023.054.045.147c.044.185.083.494.086.793.009 1.043.148 2 .826 2.896-.018-.024.313.864.313 1.244q0 .671.152 1.26c.101.392.038.793.818 1.275-.556-.344-.31-.35-.273-.209s.072.389.072.62a6.4 6.4 0 0 0 .717 2.892c.2.384.443 1.372.445 1.555.012.914.275 1.78.725 2.566.12.212.394 1.206.398 1.582q.007.664.166 1.246c.106.388.055.782.819 1.254-.553-.341-.309-.343-.27-.2.039.141.078.39.08.622.01.97.243 1.941.725 2.783.088.155.393 1.257.398 1.795.004.474.048.901.143 1.295.048.197.098.383.23.62.066.118.151.256.328.411l.004.002.008.024c.078.252.172.684.235 1.154.078.591.19 1.123.338 1.574.073.226.147.428.28.657.068.114.146.237.308.388l.008.004c.027.14.06.327.062.58v.002c.01 1.052.142 2.014.826 2.918-.037-.05.108.21.186.514.077.303.127.672.127.943 0 .49.044.935.152 1.348.054.207.116.403.268.648.054.09.172.208.287.32.027.141.06.342.06.606 0 .532.077 1.06.203 1.557.127.496.263.938.61 1.396-.003-.003.32.864.324 1.213.01.976.274 1.992.727 2.86.195.374.433 1.368.433 1.562.001.409.057.79.168 1.154.111.365.143.754.807 1.164-.329-.203-.318-.318-.322-.328-.004-.009.02.054.043.147.044.186.085.494.087.793.01 1.043.147 1.998.825 2.894-.07-.09.312.911.312 1.438 0 .485.05.944.145 1.361.048.209.105.405.2.617.097.212.184.475.626.748-.57-.352-.313-.354-.275-.209.037.146.072.402.072.641 0 .99.177 1.893.814 2.736-.021-.028.32.878.324 1.284v.002c.005.5.094.98.237 1.43s.293.86.713 1.28c-.155-.154.016.038.09.303.073.266.123.62.123.905 0 .5.045.95.152 1.369.053.209.112.408.26.654.055.093.173.222.295.342.027.14.06.339.06.601 0 .532.077 1.061.203 1.557.127.496.264.938.612 1.396-.06-.077.32.911.324 1.424.004.48.055.933.154 1.346.05.207.11.404.207.613.097.21.187.466.621.735-.57-.352-.315-.355-.277-.21.037.146.074.402.074.641 0 .99.175 1.894.813 2.737-.036-.047.329.9.337 1.363.019 1.014.184 1.945.838 2.81-.037-.049.108.213.186.516.077.303.127.672.127.943 0 .49.046.933.154 1.346.054.207.114.406.266.65.054.088.17.207.283.319.029.145.064.36.064.635 0 .545.073 1.066.213 1.547s.283.933.809 1.369c-.168-.14-.035-.038.025.14s.104.428.104.604c0 .438-.053.427.02.332.072-.095.002.008-.477.182.256-.093-.116.016-.58.05-.464.035-1.147.067-2.059.096-1.824.059-4.57.107-8.438.143-7.736.071-19.969.097-38.41.097h-48.634l-.2.088q.002-.006.004-.012c0 .033.233-.53.213-.51.7-.698.938-1.444.938-2.372v.312l44.006-.103c20.544-.048 31.867-.087 38.144-.186 3.139-.05 5.01-.113 6.186-.205 1.175-.092 1.727-.02 2.404-.697.283-.284.586-.888.621-1.428s-.045-1.091-.209-1.922c-.328-1.662-1.047-4.434-2.396-9.539a3858 3858 0 0 0-3.504-13.193c-.314-1.153-.75-2.796-.961-3.625a70 70 0 0 0-.963-3.33c-.267-.838-.49-2.174-.49-2.38q0-.612-.164-1.157c-.11-.366-.14-.755-.805-1.166.526.325.306.343.271.216a2.4 2.4 0 0 1-.068-.566c0-.957-.254-1.998-.654-2.885-.22-.489-.56-1.66-.639-2.215-.132-.934-.39-2.104-.678-3.185-.287-1.082-.552-1.992-.892-2.662.055.108-.205-.865-.205-1.405 0-.497-.077-.972-.213-1.414s-.252-.854-.772-1.285c.266.221.035.024-.064-.254-.1-.277-.192-.66-.235-1.006a44 44 0 0 0-.709-4.177 16 16 0 0 0-.408-1.516c-.141-.424-.141-.704-.633-1.195.201.2.078.107.037-.04a2.2 2.2 0 0 1-.072-.513c0-.942-.278-1.865-.713-2.7-.17-.326-.433-1.398-.433-1.775-.001-.447-.048-.85-.17-1.244a2 2 0 0 0-.305-.629c-.031-.043-.164-.062-.209-.111-.003-.01.007.017-.004-.031a5 5 0 0 1-.082-.928 7 7 0 0 0-.2-1.687c-.13-.52-.268-.99-.74-1.461.127.125-.023-.048-.093-.286-.07-.237-.12-.55-.12-.785 0-.459-.038-.871-.132-1.26a2.1 2.1 0 0 0-.234-.617 2 2 0 0 0-.313-.379 7 7 0 0 1-.2-1.06 8 8 0 0 0-.317-1.559 3.5 3.5 0 0 0-.276-.658c-.123-.221-.216-.55-.869-.768.505.169.534.4.55.434.018.034-.01-.028-.034-.127a4.5 4.5 0 0 1-.09-.92c0-.592-.065-1.147-.201-1.652-.137-.506-.297-.99-.823-1.426.195.162.051.06-.013-.16a3.3 3.3 0 0 1-.114-.852 5.4 5.4 0 0 0-.152-1.359 2.2 2.2 0 0 0-.262-.652 2 2 0 0 0-.29-.33 3.2 3.2 0 0 1-.063-.633c0-.546-.072-1.067-.213-1.547-.14-.48-.285-.933-.81-1.37.181.152.042.043-.02-.146a2.3 2.3 0 0 1-.108-.652q0-.679-.15-1.274a3 3 0 0 0-.213-.59c-.1-.203-.21-.453-.607-.699.378.234.27.29.25.227a1.2 1.2 0 0 1-.047-.303c0-.924-.294-1.759-.713-2.562-.015-.028-.01-.034-.023-.06zM31.08 99.052c-.399 0-.621.179-.794.321l.004-.006c.126-.123.415-.314.79-.314m.794 2.145c-.015.016-.006.013-.027.033-.107.1-.354.297-.768.297.36 0 .606-.179.795-.33m189.031 9.36c.348 0 .629.17.758.289.108.098.133.152.156.195-.204-.215-.436-.484-.914-.484m8.006 5.369c.34 0 .615.162.748.28.036.03.03.039.055.065-.168-.15-.377-.345-.803-.345m-203.982 6.136c-.333 0-.57.158-.76.297.006-.006.003-.006.01-.011.13-.118.407-.285.75-.285m.761 2.18c-.006.006-.003.006-.01.012-.13.117-.408.283-.751.283.332 0 .572-.156.761-.295m-3.33 5.867h.002c-.03.02-.024.034-.052.053.04-.03-.007-.017.05-.053m-2.416 11.13c-.342 0-.581.164-.771.308.011-.011.006-.012.02-.024.13-.117.408-.285.751-.285m.77 2.175-.002.002c-.128.12-.412.297-.768.297.337 0 .58-.158.77-.299m1.889 21.09c-.015.014-.01.017-.028.033-.134.116-.409.27-.738.27.378 0 .592-.167.766-.303m85.015 23.117c.135.039.205.197.342.197a.47.47 0 0 1-.295-.103c-.017-.012-.027-.077-.047-.094m3.615.79c.355 0 .34.06.319.058.093.038.16.09.256.127 1.668.65 3.531 1.14 4.904 1.14.418 0 .828.034 1.092.078.132.023.228.05.238.053s-.114.12-.43-.39c.274.443.468.454.588.51.12.054.202.078.283.1.163.047.316.076.495.106q.538.091 1.353.174c1.087.112 2.53.219 4.094.295 5.796.282 10.978-.318 15.271-1.613-.625.392-1.237.737-1.732.957-.536.237-.984.322-1.024.322-.365 0-.696.062-1.017.18-.322.118-.67.226-1 .761.196-.317.314-.33.355-.353s.03-.013-.008 0a5 5 0 0 1-.457.125c-.426.098-1.04.199-1.681.268a18 18 0 0 0-1.961.312 6 6 0 0 0-.748.205c-.115.041-.226.085-.362.158-.016.01-.049.052-.066.06-.03.007-.04.01-.106.02-.219.032-.588.068-1.029.094-.881.053-2.071.08-3.258.08a59 59 0 0 1-3.257-.078c-.441-.026-.808-.06-1.028-.092-.058-.008-.062-.011-.093-.017-.014-.008-.04-.042-.053-.05a2.3 2.3 0 0 0-.35-.16 6 6 0 0 0-.709-.206c-.519-.123-1.153-.23-1.83-.307a13 13 0 0 1-1.53-.264 4 4 0 0 1-.407-.12c-.061-.025-.016-.22.328.337-.377-.609-.749-.673-1.092-.785a3.4 3.4 0 0 0-1.082-.168c-.03 0-.11-.02-.13-.031s.066-.02.169.25c-.388-1.012-1.163-1.314-2.037-1.342-.284-.444-.694-.795-1.268-.795m9.415 4.74c-.113-.184-1.24-.45-2.504-.593s-2.4-.425-2.524-.626-.629-.366-1.121-.366c-.493 0-.995-.259-1.116-.575-.121-.317-.571-.576-1-.576-.428 0-.779-.172-.779-.383a.38.38 0 0 0-.37-.384c-.501 0-2.698-2.175-2.698-2.671 0-.218-.259-.397-.575-.397-.358 0-.576-.362-.576-.958 0-.745-.197-.96-.882-.96-.485 0-1.098-.215-1.361-.479-.377-.377-10.61-.501-48.016-.582l-47.537-.103v-1.527c0-.84.172-1.527.383-1.527s.384-.703.384-1.561c0-.877.252-1.814.575-2.137.317-.317.575-1.253.575-2.082s.167-1.507.37-1.507c.204 0 .486-.867.627-1.926.14-1.06.405-2.019.588-2.132s.333-.898.333-1.744c0-.857.255-1.794.575-2.115.317-.316.576-1.243.576-2.059s.172-1.59.383-1.721c.211-.13.384-.896.384-1.701 0-.834.247-1.67.575-1.942.316-.263.575-1.041.575-1.73 0-.688.258-1.745.573-2.35.315-.603.574-1.649.575-2.322s.175-1.33.386-1.46.384-.985.384-1.9c0-1.123.186-1.733.575-1.883.394-.15.575-.767.575-1.958 0-.956.173-1.738.384-1.738.21 0 .383-.755.383-1.679 0-1.024.225-1.865.576-2.156.316-.263.58-1.104.587-1.869s.266-1.726.575-2.135c.31-.41.563-1.306.563-1.991 0-.686.173-1.353.384-1.484.21-.13.383-.982.383-1.893 0-1.004.227-1.844.576-2.134.35-.29.575-1.131.575-2.156 0-.923.173-1.679.384-1.679.21 0 .383-.755.383-1.679 0-1.024.224-1.865.575-2.156.317-.263.581-1.103.588-1.869.006-.765.265-1.726.575-2.135.31-.41.563-1.306.563-1.991 0-.686.173-1.353.384-1.483.21-.13.383-.93.383-1.776 0-.857.255-1.794.575-2.114.317-.317.576-1.243.576-2.06 0-.816.15-1.576.333-1.69s.448-1.072.588-2.132c.14-1.059.422-1.926.626-1.926s.37-.789.37-1.753c0-1.047.232-1.985.576-2.328.316-.317.575-1.243.575-2.06 0-.816.172-1.59.383-1.72.211-.131.384-.897.384-1.702 0-.834.248-1.67.575-1.942.328-.272.575-1.108.575-1.942 0-.806.158-1.562.35-1.68.193-.12.473-.943.623-1.83.454-2.687.807-2.985 3.53-2.985 1.345 0 2.4-.17 2.4-.384 0-.21.375-.384.833-.384s1.149-.285 1.534-.634c.386-.35.702-.446.702-.215 0 .232-.173.527-.384.658-.21.13-.383.81-.383 1.51s-.26 1.487-.576 1.75c-.347.288-.575 1.128-.575 2.124 0 .906-.19 1.71-.421 1.787-.232.077-.513.959-.626 1.959s-.355 1.91-.538 2.023-.338.843-.345 1.621c-.006.779-.265 1.75-.575 2.16s-.563 1.306-.563 1.991c0 .686-.156 1.343-.347 1.461-.192.118-.467 1.078-.612 2.132s-.42 2.013-.61 2.131c-.192.118-.354.852-.36 1.63-.007.78-.266 1.751-.576 2.16s-.563 1.403-.563 2.206-.173 1.46-.384 1.46c-.21 0-.383.756-.383 1.68 0 1.024-.224 1.865-.575 2.156-.317.262-.576 1.063-.576 1.778s-.165 1.6-.368 1.966c-.38.69-1.073 3.501-1.44 5.844-.115.738-.446 1.682-.734 2.099-.29.416-.526 1.408-.526 2.205s-.172 1.448-.383 1.448-.384.616-.384 1.368-.204 1.744-.454 2.205c-.25.46-.584 1.528-.742 2.372-.352 1.874-1.1 4.715-1.513 5.753-.169.422-.391 1.284-.494 1.917-.336 2.058-2.224 9.194-2.537 9.588-.168.211-.395.988-.505 1.726-.241 1.617-.984 4.503-1.432 5.56-.178.423-.433 1.588-.566 2.59s-.403 1.821-.601 1.821-.36.68-.36 1.512c0 .831-.149 1.603-.33 1.715s-.44 1.011-.576 1.998c-.135.986-.395 1.983-.577 2.215s-.455 1.2-.607 2.148c-.152.95-.363 2.253-.469 2.898-.384 2.337-2.962 2.212 44.097 2.138l43.044-.068.688 2.671c1.004 3.897 2.22 5.364 5.51 6.647 1.542.602 3.456 1.055 4.454 1.055.963 0 1.841.147 1.952.327.112.18 2.73.45 5.82.6 6.157.3 11.703-.324 15.958-1.794 2.41-.832 4.911-3.132 4.911-4.513 0-.446.26-1.07.576-1.386.316-.317.575-.99.575-1.498v-.922l45.241-.105c41.088-.096 45.298-.162 45.862-.726.572-.572.39-1.492-2.307-11.697a3916 3916 0 0 0-3.502-13.186c-.315-1.16-.75-2.8-.965-3.643-.216-.844-.64-2.311-.943-3.26-.303-.95-.55-2.19-.549-2.758s-.17-1.139-.381-1.27c-.211-.13-.384-.76-.384-1.402s-.245-1.71-.545-2.374-.63-1.813-.735-2.551c-.24-1.7-1.008-4.591-1.45-5.46-.186-.366-.338-1.251-.338-1.967 0-.715-.242-1.501-.538-1.747-.296-.245-.627-1.172-.737-2.06-.37-2.993-.997-5.766-1.396-6.165-.219-.218-.397-.86-.397-1.426 0-.567-.258-1.525-.573-2.129s-.574-1.66-.575-2.345-.175-1.246-.386-1.246-.384-.765-.384-1.699c0-.998-.237-1.935-.575-2.273-.316-.317-.575-1.192-.575-1.945s-.15-1.37-.334-1.37c-.183 0-.425-.814-.537-1.81-.112-.994-.394-1.871-.625-1.949-.232-.077-.422-.881-.422-1.787 0-.996-.227-1.836-.575-2.124-.33-.275-.575-1.11-.575-1.965 0-.818-.173-1.487-.384-1.487-.21 0-.383-.67-.383-1.487 0-.854-.245-1.69-.576-1.965-.316-.262-.575-1.05-.575-1.75s-.172-1.38-.383-1.51-.384-.638-.384-1.129c0-.49-.258-1.387-.573-1.99-.845-1.621-.723-2.058.573-2.058.633 0 1.15.152 1.15.339 0 .186 1.1.456 2.443.6 2.102.225 2.504.395 2.877 1.214.238.523.433 1.355.433 1.848s.258 1.391.573 1.996c.315.604.574 1.562.576 2.13 0 .568.175 1.139.385 1.27.211.13.39.873.396 1.652s.266 1.75.575 2.16c.31.41.564 1.305.564 1.99 0 .686.172 1.354.383 1.484s.385.788.386 1.46c0 .674.26 1.719.575 2.323s.58 1.553.587 2.11c.007.555.26 1.442.561 1.969s.555 1.51.562 2.183.186 1.33.397 1.46.39.788.397 1.461.26 1.655.562 2.183c.301.527.554 1.606.562 2.397.007.79.164 1.438.347 1.438.184 0 .449.863.589 1.918s.42 1.917.625 1.917c.203 0 .375.647.382 1.438s.266 1.773.575 2.183c.31.41.563 1.402.563 2.205s.173 1.46.384 1.46c.21 0 .383.658.383 1.462s.254 1.795.563 2.205c.31.41.57 1.286.576 1.947s.27 1.697.585 2.301.574 1.563.575 2.13c.001.568.175 1.14.386 1.27s.389.874.396 1.652c.007.779.265 1.75.575 2.16s.563 1.392.563 2.183.173 1.545.384 1.675c.21.13.383.798.383 1.483 0 .686.254 1.582.563 1.991.31.41.569 1.318.575 2.018.007.701.272 1.533.588 1.85.316.316.575 1.253.575 2.081 0 .83.173 1.507.384 1.507.21 0 .383.657.383 1.46 0 .804.254 1.797.563 2.206.31.41.569 1.382.576 2.16s.184 1.522.395 1.653c.211.13.384.798.384 1.483 0 .686.253 1.581.563 1.99s.574 1.35.587 2.088.278 1.677.588 2.086c.31.41.563 1.402.563 2.206 0 .803.173 1.46.383 1.46s.384.67.384 1.487c0 .854.245 1.69.575 1.965.317.263.575 1.026.575 1.696 0 1.031-.195 1.289-1.273 1.679-.966.349-13.024.46-49.908.46h-48.634l-2.211 2.397c-2.196 2.38-6.115 4.89-7.635 4.89-.41 0-.844.159-.964.353-.12.195-1.34.474-2.713.62-1.372.148-2.588.42-2.703.606-.27.439-9.641.444-9.912.005zM46.199 72.86 18.811 176.725l.85 1.105h86.614c.078.552.197 1.622.729 3.389.326 1.085.755 2.222 1.338 3.213.583.99 1.33 1.872 2.388 2.287 1.802.705 5.93 1.504 10.272 2.086 2.171.29 4.369.512 6.291.603s3.54.07 4.71-.213c1.855-.447 4.552-.69 7.003-1.289 2.451-.6 4.84-1.592 5.683-3.87.992-2.68 1.162-4.228 1.21-5.122h91.253l.85-1.107-26.363-98.389-1.7.455 26.067 97.281h-90.922l-.877.938s.144 1.788-1.168 5.332c-.512 1.382-2.19 2.218-4.451 2.771s-4.92.788-6.998 1.29c-.796.191-2.364.253-4.213.165-1.85-.087-4.007-.304-6.14-.59-4.268-.57-8.549-1.467-9.866-1.982-.5-.196-1.042-.737-1.514-1.539s-.867-1.826-1.168-2.826c-.601-2-.832-3.871-.832-3.871l-.875-.774h-86.18l27.1-102.76Zm27.342-31.433L50.34 149.578l.892 1.065s10.022-.385 21.022-2.315c10.524-1.846 27.205 3.053 37.642 7.797 10.23 4.65 18.055 15.623 18.055 15.623l1.438-1.016s-7.9-11.27-18.764-16.209c-10.656-4.843-27.34-9.916-38.676-7.927-9.881 1.733-18.083 2.137-19.644 2.209L75.262 41.797ZM60.119 58.49 38.26 158.588l.973 1.06s26.456-3.448 46.143-4.404c9.597-.466 20.383 3.631 28.729 7.887s14.232 8.623 14.232 8.623l1.049-1.412s-6.001-4.454-14.483-8.78-19.46-8.569-29.613-8.076c-19.034.924-43.092 4.017-45.047 4.27l21.596-98.89Zm-5.75 9.381-22.818 96.455.951 1.076s38.808-4.213 53.406-4.213c7.131 0 18.058 3.128 27.108 6.28s16.26 6.302 16.26 6.302l.704-1.613s-7.267-3.175-16.386-6.351-20.052-6.377-27.686-6.377c-14.498 0-50.227 3.87-52.361 4.101l22.535-95.254Zm-6.326 3.254L23.307 172.373l1.025 1.072s21.486-4.219 31.617-5.94c10.05-1.706 18.634-1.137 38.405-1.33 19.439-.188 34.394 10.01 34.394 10.01l.994-1.453s-15.343-10.51-35.406-10.316c-19.732.192-28.406-.391-38.682 1.354-9.76 1.657-28.621 5.363-30.314 5.695l24.414-99.922Zm150.125-3.47-1.7.456 26.116 97.266c-1.02-.147-4.067-.582-8.59-1.287-5.219-.814-11.035-1.795-12.992-2.328-.727-.199-1.817-.279-3.406-.35s-3.619-.105-5.96-.11c-4.68-.008-10.603.105-16.663.31-12.122.407-24.676 1.146-29.217 2.054-9.067 1.813-16.219 10.26-16.219 10.26l1.334 1.148s7.037-8.045 15.229-9.683c4.088-.818 16.845-1.613 28.933-2.02 6.044-.203 11.95-.317 16.6-.309a144 144 0 0 1 5.885.11c1.548.069 2.693.198 3.021.287 2.262.617 7.952 1.555 13.184 2.371s9.933 1.486 9.933 1.486l.975-1.1zm-68.879 4.21V175.73l1.246.8s10.817-4.941 26.37-5.343c15.714-.407 35.734-.517 43.366.668 8.066 1.251 30.346 1.908 30.346 1.908l.881-1.092-23.594-95.322-1.707.423 23.31 94.184c-1.958-.063-21.668-.71-28.966-1.842-8.097-1.256-27.939-1.094-43.682-.687-14.596.377-24.166 4.366-25.81 5.074V71.865ZM74.984 37.908l-1.666.106S72.03 42.93 70.69 48.137c-.67 2.603-1.35 5.278-1.892 7.449-.527 2.113-.895 3.637-1.026 4.346l-.207-.217-6.238-3.66-1.318.646s-.542 4.2-.815 6.518c-.203 1.732-2.23 2.842-2.23 2.842l-.033.017s-1.894 1.048-4.022 2.18c-2.128 1.131-4.583 2.372-5.34 2.642-1.17.418-2.233 1.289-3.091 2.315s-1.516 2.204-1.688 3.406c-.058.408-.142.62-.187.695-.045.076-.022.052-.088.08-.134.058-.74.099-1.516.444-.05.022-.566.13-1.166.154s-1.322.008-2.01-.025c-1.375-.067-2.61-.2-2.61-.2l-.944.653L6.47 184.863l.851 1.102h96.897c1.05 1.77 2.62 4.093 5.785 6.014 3.404 2.066 8.526 3.613 16.504 3.613 8.041 0 13.435-2.444 16.793-4.918 2.864-2.11 4.05-3.979 4.406-4.574h100.97l.85-1.108L221.46 80.721l-.85-.653s-1.427.003-5.884-.402c-1.978-.18-4.305-1.323-6.479-2.684-2.174-1.36-4.182-2.907-5.764-3.841-1.215-.719-2.109-2.205-2.648-3.553s-.729-2.479-.729-2.479l-.654-.709s-.179-.03-.265-.027a1.4 1.4 0 0 0-.266.033 3.3 3.3 0 0 0-.7.254c-.591.276-1.508.811-3.027 1.916-2.586 1.881-7.9 2.127-11.287 2.692-2.746.457-7.415-1.59-13.472-3.104-6.38-1.595-20.271-.447-24.756.254-4.316.674-12.76 2.567-13.166 2.658l-.274-.137c-.113-.24-.924-1.977-2.025-4.195-1.175-2.367-2.482-4.925-3.352-6.111-.918-1.252-2.448-2.15-4.091-2.893s-3.412-1.294-4.811-1.644c-1.697-.425-4.428-.195-7.354.218-2.925.413-5.919 1.054-7.79 1.702-3.22 1.114-6.997.35-9.926.496-.938.047-2.68-.706-4.416-1.87-1.737-1.162-3.51-2.667-4.85-3.872-.498-.449-1.349-1.674-2.195-3.18-.847-1.507-1.737-3.314-2.545-5.047-1.616-3.467-2.899-6.635-2.899-6.635m-.601 3.016c.514 1.228.84 2.08 1.904 4.363.82 1.758 1.725 3.596 2.608 5.166.882 1.57 1.692 2.853 2.55 3.625 1.373 1.235 3.192 2.782 5.05 4.026 1.856 1.243 3.707 2.254 5.482 2.166 2.494-.125 6.58.736 10.412-.59 1.653-.573 4.625-1.22 7.463-1.621s5.667-.51 6.681-.256c1.313.328 3.003.86 4.512 1.54 1.509.682 2.825 1.55 3.398 2.33.622.849 2.028 3.51 3.192 5.854a242 242 0 0 1 2.144 4.44l.405.414.812.406.586.072s9.108-2.035 13.367-2.7c4.193-.656 18.507-1.676 24.059-.288 5.875 1.469 10.425 3.76 14.187 3.133 3.122-.52 8.654-.546 12.034-3.004 1.308-.951 1.983-1.324 2.445-1.559.116.516.137.83.525 1.801.614 1.534 1.62 3.37 3.387 4.414 1.402.829 3.46 2.4 5.726 3.819 2.267 1.418 4.756 2.716 7.252 2.943 3.982.362 5.029.36 5.358.365l27.607 102.557H147.254l-.777.469s-1.137 2.177-4.22 4.449-8.062 4.574-15.75 4.574c-7.75 0-12.52-1.495-15.589-3.357-3.068-1.863-4.473-4.09-5.479-5.83l-.761-.44H8.46L35.785 79.578c.452.044.917.099 1.951.149.72.034 1.48.052 2.164.025s1.254-.056 1.813-.305c.444-.197.855-.156 1.502-.437.323-.14.678-.42.9-.793s.339-.805.416-1.346c.1-.696.596-1.69 1.297-2.527s1.604-1.527 2.332-1.787c1.142-.408 3.431-1.607 5.574-2.746a308 308 0 0 0 4.016-2.176l.004-.002c.007-.003 2.85-1.333 3.187-4.207.215-1.826.498-4.014.647-5.176l5.004 2.936c.102.199.157.425.623.744.163.111.38.226.676.25.295.023.648-.093.88-.287.464-.39.588-.874.706-1.538.083-.474.488-2.18 1.027-4.343.54-2.164 1.221-4.835 1.89-7.436 1.013-3.935 1.57-6.05 1.989-7.652" style="color:#000;fill:#000;stroke-linejoin:bevel;-inkscape-stroke:none" transform="matrix(.10242 0 0 .10242 -.61 .542)"/><path d="M12.528 17.833c-.088-.152-.879-.917-1.142-1.106-.632-.454-1.973-.951-3.087-1.146a6.3 6.3 0 0 0-1.827-.005c-.557.09-1.624.195-1.656.162-.03-.03 2.242-10.68 2.279-10.68.013 0 .121.198.24.438.17.347.278.496.52.717.167.154.414.334.549.4.215.108.304.123.754.123.366 0 .618-.029.89-.1.208-.056.584-.112.834-.126.392-.02.495-.009.737.082.38.144.514.283.77.798l.22.44-.013 5.05c-.01 3.874-.025 5.027-.068 4.954" style="fill:#000;stroke:none;stroke-width:.00289873;stroke-linejoin:bevel;fill-opacity:1"/><path d="M12.816 13.092V8.037l.564-.117c1.059-.22 1.152-.23 2.22-.23h1.04l.45.144c.702.225.846.242 1.38.167.52-.072.717-.129.9-.257.069-.047.134-.077.145-.065.04.039 2.627 9.726 2.604 9.748-.013.013-.475-.052-1.028-.145-.553-.092-1.124-.187-1.27-.21-.156-.025-.82-.032-1.613-.016-2.204.044-3.659.147-4.129.292-.316.098-.732.34-1.042.608l-.22.19z" style="fill:#000;fill-opacity:1;stroke:none;stroke-width:.00267226;stroke-linejoin:bevel"/></svg>