<svg xmlns="http://www.w3.org/2000/svg" width="24" height="24" viewBox="0 0 24 24"><path d="m12.34 23.755-1.801.047-.638-.133-.637-.133-.731-.238-.731-.237-1.11-.57-1.108-.57-.98-.822-.98-.82-.723-.96-.723-.96-.61-1.224-.61-1.225-.287-1.197-.287-1.197-.001-1.742-.001-1.742.287-1.122.287-1.122.494-1.026.494-1.026.734-.969.734-.97.861-.716.862-.717.973-.575.973-.574 1.08-.359L9.243.498l1.225-.169 1.225-.168 1.197.094 1.198.095 1.071.274 1.072.274 1.044.522 1.045.523.504.374.504.373.577.51.576.51.624.725.623.725.508.862.509.862.444 1.3.444 1.298.007 2.233.006 2.233-.258.937-.259.936-.631 1.297-.631 1.296-.776 1.009-.775 1.008-.926.76-.926.76-1.297.644-1.296.644-.865.234-.864.234zm.288-.2.936-.072.36-.097.36-.096-2.376-.1-2.378-.101-.504-.07-.504-.068.576.223.577.223 1.008.115 1.009.115zm-.216-1.953 1.873-.046 1.152-.422 1.153-.421.822-.547.822-.547.438-.498.438-.498.303-.595.303-.595v-.929l-.153-.286-.153-.287-1.194-.1-1.194-.101-1.08-.216-1.08-.216-2.594-.88-2.593-.88-1.239-.063-1.238-.064-.65.288-.65.287-.417.546-.417.546v2.472l.346.697.346.698.676.694.676.694.892.45.891.45.824.208.824.207zm5.624-8.17 1.014.012.642-.324.643-.324.315-.57.315-.568.09-.658.091-.659L20.93 9.3l-.218-1.042-.54-1.044-.54-1.045-1.096-1.093-1.097-1.094-1.175-.588-1.175-.588-1.11-.247-1.109-.247-1.38.08-1.382.08-1.057.362-1.057.362-.79.478-.789.478-.926.937-.927.936-.377.558-.378.557-.433.955-.434.956-.18 1.04-.181 1.04.096.47.096.47.377.212.377.212 1.49-.747 1.49-.746.65-.144.648-.143.576-.001.576-.001.966.204.965.205 2.42.969 2.42.969.649.18.648.18z" style="fill:#000;stroke-width:.144073"/><path d="M9.883 23.655a11 11 0 0 1-1.331-.362l-.722-.233-.66-.339-.66-.339v-1.321l.001-1.322.297.302.297.302.881.447.882.447.846.212.846.213 1.884-.05 1.884-.051 1.14-.42 1.138-.421.82-.545c.877-.584.85-.563 1.272-1.066.037-.044.04.023.04 1.277v1.323l-.143.117c-.111.09-.443.265-1.439.76l-1.294.643-.859.233-.859.234-1.747.047c-.96.026-1.782.045-1.826.044-.043-.001-.353-.06-.688-.132zm2.792-.092c.854-.067.898-.072 1.235-.16.35-.092.452-.133.328-.133-.035 0-.057.007-.049.016s-.129.054-.306.1c-.305.08-.368.089-1.247.157l-.925.072-.452-.049a9 9 0 0 0-.496-.045c-.067.005.77.104.908.107.065.002.517-.028 1.004-.065zm-1.97-.053a11 11 0 0 0-.928-.1c-.015.006.155.031.378.056.411.047.567.06.55.044zM9.6 23.353c-.311-.11-.88-.339-.87-.349s.35.028.498.056c.037.007.06.006.052-.003a7 7 0 0 0-.761-.11q-.008.007 0 .015c.039.03 1.127.44 1.171.44.031.002-.01-.02-.09-.05zm4.102-.1a3 3 0 0 0-.271 0c-.078.005-.02.009.129.009s.212-.004.142-.008zm-.718-.029a11 11 0 0 0-.53-.014l-.225.002.27.013c.15.008.388.014.53.014l.26.001zm-.885-.038a3 3 0 0 0-.26 0c-.071.004-.013.008.13.008s.201-.004.13-.008zm-.518-.022a3 3 0 0 0-.271 0c-.078.004-.02.007.129.007s.212-.003.142-.008zm-.542-.023a3 3 0 0 0-.27 0c-.079.004-.02.008.128.008.15 0 .213-.004.142-.008zm-.542-.023a3 3 0 0 0-.26 0c-.071.005-.013.009.13.009s.201-.004.13-.009zm-.518-.022a3 3 0 0 0-.271 0c-.078.004-.02.008.129.008s.213-.004.142-.008zm-.435-.018c-.052-.018-.188-.023-.178-.006.006.01.054.017.106.016s.084-.005.072-.01z" style="opacity:.45977;fill:#000;fill-rule:evenodd;stroke:#000;stroke-width:.0317899;paint-order:stroke fill markers"/><path d="m10.605 23.495-.925-.108-.445-.171a8 8 0 0 0-.468-.171.023.023 0 0 1-.023-.023c0-.03.032-.029.383.023.233.034.855.069 2.629.146l2.391.103c.037.001-.08.042-.26.09-.313.084-.362.09-1.2.156-.482.038-.939.068-1.016.066a27 27 0 0 1-1.066-.111z" style="opacity:.45977;fill:#000;fill-rule:evenodd;stroke:#000;stroke-width:.0317899;paint-order:stroke fill markers"/><path d="M11.654 23.617c-.019-.005-.47-.059-1.004-.12l-.97-.11-.445-.171a8 8 0 0 0-.468-.171.023.023 0 0 1-.023-.023c0-.03.032-.029.383.023.233.034.855.069 2.629.146 1.278.056 2.344.102 2.369.102.089.002-.02.038-.361.12-.312.074-.406.085-1.183.14a42 42 0 0 0-.869.067.14.14 0 0 1-.058-.003z" style="opacity:.45977;fill:#000;fill-rule:evenodd;stroke:#000;stroke-width:.0317899;paint-order:stroke fill markers"/></svg>
