<svg xmlns="http://www.w3.org/2000/svg" width="164" height="165" viewBox="0 0 164 165"><path d="m84 163.565-12.5.328-4.425-.924-4.425-.924-5.075-1.647-5.075-1.647-7.695-3.958-7.696-3.959-6.804-5.699-6.805-5.699-5.018-6.66-5.018-6.66-4.233-8.5-4.234-8.5-1.991-8.308L1.014 92.5l-.007-12.09L1 68.32l1.992-7.788 1.992-7.788 3.428-7.122L11.84 38.5l5.096-6.727 5.096-6.727 5.978-4.975 5.978-4.974 6.756-3.991 6.756-3.99L55 4.629l7.5-2.487L71 .972 79.5-.2l8.314.657 8.315.657 7.434 1.901 7.435 1.902 7.251 3.627 7.251 3.628 3.5 2.594 3.5 2.593 4 3.538 4 3.538 4.328 5.032 4.328 5.032 3.528 5.985 3.528 5.984 3.085 9.016 3.084 9.015.045 15.5.045 15.5-1.795 6.5-1.796 6.5-4.381 9-4.381 9-5.381 7-5.381 7-6.428 5.273-6.428 5.274-9 4.47-9 4.471-6 1.625-6 1.625zm2-1.387 6.5-.5 2.5-.669 2.5-.67-16.5-.698-16.5-.698-3.5-.479-3.5-.479 4 1.551 4 1.55 7 .796 7 .796zm-1.5-13.555 13-.322 8-2.924 8-2.924 5.706-3.795 5.707-3.795 3.037-3.46 3.038-3.459 2.106-4.128 2.106-4.128v-6.446l-1.064-1.989-1.065-1.989-8.285-.699-8.286-.7-7.5-1.496-7.5-1.498-18-6.107-18-6.106-8.596-.444-8.596-.444-4.512 1.996-4.513 1.996-2.891 3.791-2.892 3.791V120.5l2.402 4.84 2.403 4.84 4.692 4.817 4.692 4.817 6.187 3.124 6.187 3.123 5.719 1.442 5.718 1.442Zm39.038-56.712 7.038.089 4.458-2.25 4.458-2.25 2.187-3.95 2.188-3.949.628-4.568.629-4.568-1.509-7.235-1.508-7.235-3.75-7.247-3.75-7.248-7.61-7.591-7.61-7.591-8.157-4.083-8.156-4.082-7.7-1.713-7.698-1.713-9.588.555-9.588.555-7.335 2.51-7.335 2.512-5.479 3.32-5.479 3.321L36.44 34l-6.432 6.5-2.62 3.868-2.62 3.868-3.01 6.632L18.75 61.5l-1.255 7.218-1.255 7.218.667 3.265.668 3.264 2.618 1.47 2.619 1.47 10.344-5.182L43.5 75.04l4.5-.996 4.5-.996 4-.007 4-.007 6.702 1.42 6.702 1.42 16.798 6.726 16.798 6.725 4.5 1.247 4.5 1.248z" style="fill:#000"/><path d="M66.947 162.876c-3.431-.727-5.173-1.201-9.24-2.514l-5.01-1.618-4.581-2.352-4.58-2.351.004-9.173.004-9.173 2.059 2.096 2.059 2.096 6.119 3.1 6.12 3.1 5.872 1.476 5.872 1.478 13.076-.352 13.077-.351 7.908-2.918 7.908-2.918 5.684-3.785c6.089-4.054 5.91-3.904 8.836-7.399.255-.304.27.164.274 8.864l.005 9.185-.999.81c-.768.623-3.073 1.841-9.983 5.274l-8.985 4.463-5.96 1.621-5.962 1.621-12.126.326c-6.67.18-12.373.318-12.675.308-.301-.01-2.45-.422-4.776-.914zm19.378-.643c5.929-.46 6.235-.499 8.576-1.11 2.43-.634 3.135-.92 2.276-.92-.247 0-.4.05-.34.11.061.061-.895.375-2.123.698-2.123.557-2.555.611-8.658 1.085l-6.424.499-3.132-.338c-1.723-.186-3.273-.328-3.445-.315-.464.035 5.344.724 6.301.747.452.011 3.587-.194 6.969-.456zm-13.675-.368c-.109-.103-6.23-.755-6.437-.686-.107.036 1.072.209 2.62.386 2.855.326 3.935.41 3.817.3zm-7.66-1.09c-2.162-.766-6.106-2.348-6.034-2.42.071-.072 2.418.192 3.45.387.258.049.423.04.365-.021-.112-.118-5.177-.848-5.285-.762-.036.029-.036.074 0 .102.27.207 7.823 3.051 8.13 3.062.215.007-.066-.149-.626-.347zm28.468-.687a19 19 0 0 0-1.879 0c-.542.03-.14.055.894.056 1.034 0 1.477-.025.985-.056zm-4.978-.206a75 75 0 0 0-3.68-.098l-1.566.013 1.879.093c1.034.052 2.69.096 3.68.099l1.801.005zm-6.147-.264a17 17 0 0 0-1.8 0c-.496.031-.09.056.9.056s1.396-.025.9-.056zm-3.595-.156a19 19 0 0 0-1.88-.001c-.541.03-.139.056.895.056 1.033 0 1.476-.025.985-.056zm-3.759-.157a19 19 0 0 0-1.879 0c-.542.03-.14.055.894.056 1.034 0 1.477-.025.985-.056zm-3.764-.157a17 17 0 0 0-1.801 0c-.496.031-.09.057.9.057s1.396-.026.9-.057zm-3.596-.156a19 19 0 0 0-1.88 0c-.541.03-.139.055.895.055s1.477-.024.985-.055zm-3.02-.12c-.359-.125-1.304-.16-1.233-.045.042.068.371.118.732.111s.586-.037.5-.067z" style="opacity:.45977;fill:#000;fill-rule:evenodd;stroke:#000;stroke-width:.220652;paint-order:stroke fill markers"/><path d="m71.958 161.763-6.42-.75-3.09-1.188c-1.698-.653-3.16-1.188-3.249-1.188a.16.16 0 0 1-.16-.156c0-.213.223-.2 2.662.16 1.614.236 5.933.476 18.244 1.013a9553 9553 0 0 0 16.6.716c.258.007-.552.287-1.801.623-2.177.585-2.521.63-8.34 1.085-3.34.26-6.51.466-7.048.455-.537-.011-3.866-.358-7.398-.77z" style="opacity:.45977;fill:#000;fill-rule:evenodd;stroke:#000;stroke-width:.220652;paint-order:stroke fill markers"/><path d="M79.24 162.61c-.129-.034-3.265-.408-6.968-.83l-6.734-.77-3.09-1.186c-1.698-.653-3.16-1.187-3.249-1.187a.16.16 0 0 1-.16-.156c0-.213.223-.2 2.662.16 1.614.236 5.933.476 18.244 1.013 8.872.386 16.271.706 16.443.71.618.012-.132.26-2.505.828-2.162.517-2.817.595-8.21.976-3.223.228-5.936.435-6.029.46a1 1 0 0 1-.404-.018z" style="opacity:.45977;fill:#000;fill-rule:evenodd;stroke:#000;stroke-width:.220652;paint-order:stroke fill markers"/><path d="M79.162 162.627c-.086-.038-3.203-.418-6.927-.845l-6.77-.776-3.06-1.184c-1.682-.652-3.181-1.187-3.33-1.19-.245-.004-.243-.026.026-.23.163-.123.354-.19.423-.147.07.043 1.063.215 2.208.382 1.563.229 6.129.481 18.291 1.012 8.915.39 16.314.711 16.444.715.318.01-.47.453-.817.46-.148.003-.576.11-.95.238a10 10 0 0 1-1.063.301c-.21.039-.38.081-.38.094 0 .08-2.55.311-7.83.711-2.843.216-5.38.423-5.638.46-.259.036-.54.036-.627-.001z" style="opacity:.45977;fill:#000;fill-rule:evenodd;stroke:#000;stroke-width:.220652;paint-order:stroke fill markers"/><path d="M77.91 162.478a58 58 0 0 0-4.15-.468 19 19 0 0 1-1.097-.137c-.387-.06-1.127-.15-1.644-.2a127 127 0 0 1-2.662-.283 65 65 0 0 0-1.782-.169c-.635-.052-1.445-.223-1.8-.38a23 23 0 0 0-1.195-.487c-.301-.11-.83-.324-1.174-.475-1.409-.617-3.079-1.242-3.332-1.247-.24-.004-.235-.031.039-.238.17-.128.416-.188.548-.133.131.056.768.162 1.414.237a45 45 0 0 1 2.035.284c.71.123 10.91.621 21.063 1.029 1.206.049 2.898.12 3.759.159 5.2.234 6.989.297 7.79.274.952-.027 1.132.103.549.397-.354.179-2.115.665-2.702.746a3 3 0 0 0-.391.075.44.44 0 0 1-.192.014c-.062-.009-.613.088-1.224.217-.61.128-1.616.234-2.235.235-.62.001-2.359.106-3.866.232-1.507.127-3.198.27-3.758.316-2.293.193-2.795.193-3.994.002z" style="opacity:.45977;fill:#000;fill-rule:evenodd;stroke:#000;stroke-width:.220652;paint-order:stroke fill markers"/><path d="M77.048 162.47c-.99-.124-3.99-.475-6.665-.782l-4.865-.557-2.417-.952a414 414 0 0 0-3.329-1.297c-.74-.28-.869-.38-.689-.53.218-.18 1.216-.08 4.262.428.926.154 5.744.4 10.962.56 4.836.148 22.237.9 22.306.963.176.162-.37.411-1.724.787-.812.226-1.652.426-1.868.445-.215.018-.92.113-1.566.211-1.277.193-8.517.77-11.04.878-.866.038-2.371-.032-3.367-.155z" style="opacity:.45977;fill:#000;fill-rule:evenodd;stroke:#000;stroke-width:.220652;paint-order:stroke fill markers"/></svg>