<svg xmlns="http://www.w3.org/2000/svg" width="24" height="24" viewBox="0 0 24 24">
  <path fill-rule="evenodd" clip-rule="evenodd" d="M15.203 1.594 H5.131 V0.003 H15.203 C16.228 0.003 17.058 0.834 17.058 1.859 V2.03 C17.214 1.99 17.378 1.968 17.547 1.968 H18.16 C19.235 1.968 20.107 2.84 20.107 3.915 V9.034 C20.107 10.109 19.235 10.98 18.16 10.98 H17.547 C17.378 10.98 17.214 10.959 17.058 10.919 V12.461 H15.468 V1.859 C15.468 1.712 15.349 1.594 15.203 1.594 Z"/>
  <path d="M14.099 2.919 H6.147 V14.465 C6.147 14.806 6.192 15.146 6.28 15.475 L8.339 23.138 C8.453 23.563 8.839 23.859 9.279 23.859 H10.967 C11.407 23.859 11.793 23.563 11.907 23.138 L13.966 15.475 C14.054 15.146 14.099 14.806 14.099 14.465 V2.919 Z"/>
</svg>
