<svg version="1.1" id="svg1" width="24" height="24" viewBox="0 0 24 24" xmlns="http://www.w3.org/2000/svg">
   <defs id="defs1" />
   <g id="g1">
      <path style="fill:#000000;stroke-width:0.0291373"
         d="m 5.4837494,23.98187 c -1.81244,-0.10146 -2.95347,-0.56658 -3.97465,-1.62021 C 0.71306941,21.54035 0.26253941,20.5409 0.09752941,19.23025 0.03042941,18.69734 9.294062e-4,16.31011 2.940622e-5,11.33456 -9.7059378e-4,5.7195199 0.02182941,4.9586999 0.21843941,4.0817699 c 0.10304,-0.45965 0.21401,-0.76869 0.43581,-1.2137 0.25287,-0.50733 0.51021999,-0.86208 0.93031999,-1.28239 0.4201,-0.42031 0.77466,-0.67779002 1.28175,-0.93079002 0.60927,-0.30398 1.13752,-0.45796 1.908,-0.55617 0.58935,-0.0751 2.32283,-0.0989000019 7.2096496,-0.09870000191 6.21906,1.79999999e-4 7.05878,0.02200000191 7.90671,0.205440001909 1.51044,0.32681 2.75703,1.27108002 3.44896,2.61255002 0.38538,0.74713 0.56464,1.51155 0.63028,2.68768 0.0395,0.70837 0.0404,12.1934301 9.2e-4,12.9547601 -0.0637,1.23007 -0.23596,1.96723 -0.64347,2.75378 -0.72751,1.40418 -2.02839,2.34859 -3.63295,2.63744 -0.80414,0.14476 -0.65122,0.14172 -7.41915,0.14768 -3.5086996,0.003 -6.5648596,-0.005 -6.7914696,-0.0174 z M 16.962579,20.5297 c 0.5597,-0.11864 1.01884,-0.53012 1.18466,-1.0617 0.0766,-0.24545 0.0833,-0.62243 0.0154,-0.8557 -0.027,-0.0928 -0.70574,-1.71905 -1.50824,-3.61392 -0.8025,-1.89488 -1.46068,-3.46334 -1.46263,-3.48547 -0.002,-0.0237 0.058,-0.0614 0.14588,-0.0917 0.36497,-0.12583 0.6693,-0.42818 0.79741,-0.7922 0.0567,-0.16119 0.0663,-0.26107 0.0796,-0.8278201 0.0171,-0.73301 -0.008,-0.95356 -0.13825,-1.22294 -0.11259,-0.23252 -0.37291,-0.48085 -0.63218,-0.60307 l -0.19772,-0.0932 -1.01955,-0.0227 c -0.56075,-0.0125 -1.99612,-0.0192 -3.18972,-0.0151 l -2.1701796,0.008 -0.18934,0.0906 c -0.34868,0.16693 -0.59154,0.44206 -0.69982,0.79281 -0.0509,0.16499 -0.0576,0.27178 -0.0576,0.92749 0,0.6719301 0.006,0.7577101 0.0602,0.9198501 0.11394,0.3384 0.37829,0.62451 0.71098,0.76952 0.10455,0.0456 0.1901,0.0939 0.1901,0.10747 0,0.0249 -0.11625,0.29333 -1.99642,4.61097 -0.57238,1.31442 -1.05929,2.45543 -1.08203,2.53558 -0.094,0.33138 -0.0424,0.79794 0.1248,1.12805 0.11694,0.23089 0.42504,0.53303 0.66347,0.65062 0.39311,0.19388 0.10031,0.18377 5.3779396,0.18576 4.10147,0.002 4.82088,-0.004 4.99323,-0.0409 z M 7.0776094,19.47313 c -0.0549,-0.028 -0.14014,-0.10135 -0.18935,-0.16295 -0.0785,-0.0982 -0.0893,-0.13402 -0.0884,-0.29145 0.001,-0.16949 0.0403,-0.26921 0.70862,-1.79774 l 0.70753,-1.61829 0.22227,-0.11448 c 0.32181,-0.16575 0.85092,-0.52667 1.48034,-1.00978 0.9945896,-0.7634 1.3342396,-0.98711 1.9371996,-1.27589 0.75198,-0.36014 1.49015,-0.52734 2.32827,-0.52734 h 0.36652 l 1.30774,3.08204 c 1.23915,2.92039 1.30781,3.09145 1.30921,3.26148 10e-4,0.15773 -0.009,0.19301 -0.088,0.29145 -0.18701,0.23411 0.29416,0.21391 -5.09566,0.21391 -4.5184196,0 -4.8124196,-0.003 -4.9063096,-0.051 z m 6.5243096,-1.20204 c 0.11713,-0.0326 0.27137,-0.17873 0.31735,-0.30075 0.0791,-0.20992 -7.4e-4,-0.48004 -0.17962,-0.60769 -0.13756,-0.0982 -0.46092,-0.0982 -0.59848,0 -0.26827,0.19145 -0.28073,0.60492 -0.0244,0.80995 0.1563,0.12503 0.29117,0.15241 0.48515,0.0985 z m -3.0308,-0.68133 c 0.20883,-0.10479 0.38078,-0.27514 0.48456,-0.48005 0.0753,-0.14874 0.0835,-0.19325 0.0835,-0.45627 0,-0.27617 -0.005,-0.30101 -0.099,-0.47413 -0.4274,-0.78856 -1.5459196,-0.72209 -1.8873596,0.11216 -0.0785,0.19168 -0.0709,0.57848 0.0149,0.76839 0.12724,0.28141 0.28768,0.43618 0.57989,0.55941 0.23735,0.10009 0.5904296,0.0874 0.8234996,-0.0295 z M 9.9488294,17.14993 c -0.23868,-0.0851 -0.35573,-0.27964 -0.33304,-0.55343 0.0243,-0.29249 0.24184,-0.46956 0.5496596,-0.44729 0.2616,0.0189 0.42926,0.17311 0.47948,0.44092 0.0427,0.22757 -0.14436,0.50441 -0.38616,0.57159 -0.13923,0.0387 -0.17191,0.0374 -0.3099396,-0.0118 z m 3.5525696,-1.09479 c 0.33,-0.1134 0.58718,-0.33564 0.74102,-0.64034 0.25699,-0.50903 0.16436,-1.09122 -0.2378,-1.49448 -0.49191,-0.49327 -1.29533,-0.50717 -1.8039,-0.0312 -0.72248,0.67613 -0.44002,1.88245 0.51145,2.18431 0.18835,0.0597 0.58919,0.0505 0.78923,-0.0183 z m -0.67783,-0.48405 c -0.16588,-0.0588 -0.36939,-0.24487 -0.44995,-0.41137 -0.0802,-0.16585 -0.0891,-0.45988 -0.0187,-0.62332 0.0623,-0.14472 0.24109,-0.33674 0.38435,-0.41285 0.15604,-0.0829 0.53579,-0.0896 0.67886,-0.012 0.28938,0.15698 0.44387,0.40799 0.44434,0.72194 8.1e-4,0.54086 -0.53031,0.91794 -1.03894,0.73762 z M 8.6169894,14.6789 c 0.0296,-0.0681 0.45512,-1.04582 0.94568,-2.17266 0.4905596,-1.12683 0.8919296,-2.05472 0.8919296,-2.06197 0,-0.007 -0.3025,-0.0132 -0.6722296,-0.0132 h -0.67223 l -0.0851,-0.0852 -0.0851,-0.0852 V 9.6774299 c 0,-0.32078 0.0125,-0.61619 0.0278,-0.65647 0.0153,-0.0403 0.0607,-0.0948 0.10099,-0.12119 0.0672,-0.0441 0.31056,-0.0462 3.0081896,-0.0264 l 2.93504,0.0216 0.0809,0.0809 0.0809,0.0809 v 0.61652 0.6165101 l -0.0851,0.0852 -0.0851,0.0852 h -0.68679 c -0.37774,0 -0.6867,0.01 -0.68659,0.0219 1.2e-4,0.012 0.15588,0.38908 0.34616,0.8379 l 0.34595,0.81605 -0.28061,0.0209 c -1.65465,0.12351 -2.55176,0.48755 -4.1055096,1.666 -0.59871,0.45408 -1.32267,0.97848 -1.35191,0.97924 -0.0114,3e-4 0.003,-0.0552 0.0329,-0.12332 z M 14.046789,6.8332199 c 0.14515,-0.0518 0.21999,-0.12092 0.28556,-0.26379 0.18043,-0.39311 -0.17181,-0.82565 -0.58231,-0.71505 -0.4899,0.13198 -0.51958,0.80852 -0.0429,0.97856 0.14034,0.0501 0.20005,0.0501 0.33969,2.9e-4 z m -1.60815,-1.47437 c 0.4434,-0.14944 0.7376,-0.46641 0.85637,-0.9226 0.15047,-0.57802 -0.12971,-1.18774 -0.6676,-1.45277 -0.39536,-0.19482 -0.78921,-0.19771 -1.17308,-0.009 -0.20127,0.0991 -0.46115,0.34957 -0.55592,0.53571 -0.37567,0.73788 -0.0276,1.60443 0.74358,1.85108 0.23227,0.0743 0.57152,0.0731 0.79665,-0.003 z m -0.64496,-0.47911 c -0.0726,-0.0233 -0.18781,-0.0903 -0.25605,-0.1487 -0.35337,-0.30263 -0.37695,-0.83901 -0.0508,-1.1559 0.15092,-0.14665 0.29136,-0.20691 0.51387,-0.22049 0.25234,-0.0154 0.44679,0.0654 0.61945,0.2576 0.43488,0.48393 0.12684,1.24204 -0.52661,1.29606 -0.10423,0.009 -0.21789,-0.002 -0.29984,-0.0286 z"
         id="path1" />
   </g>
</svg>