<svg xmlns="http://www.w3.org/2000/svg" width="24" height="24" viewBox="0 0 24 24"><path d="M11.935.332a1.8 1.8 0 0 0-.815.194c-.282.139-.647.488-.78.75-.526 1.032-.038 2.246 1.042 2.592.325.104.8.1 1.116-.006v.003c.62-.21 1.032-.655 1.198-1.294.21-.809-.182-1.66-.935-2.032a1.9 1.9 0 0 0-.826-.207m.076.724c.292.011.53.126.741.361.61.678.177 1.74-.738 1.816a1.1 1.1 0 0 1-.421-.04 1.3 1.3 0 0 1-.358-.209c-.495-.423-.528-1.175-.072-1.619.212-.205.408-.287.72-.306a1 1 0 0 1 .128-.003M14.749 5.929a.62.62 0 0 0 .4-.37c.252-.55-.241-1.156-.816-1.001-.686.185-.727 1.132-.06 1.37.197.07.28.07.476 0M7.146 16.914l1.324-3.042a341 341 0 0 0 1.249-2.887c0-.01-.424-.019-.941-.019h-.942l-.119-.12-.119-.118V9.91c0-.45.018-.863.039-.92a.4.4 0 0 1 .141-.169c.094-.062.435-.065 4.212-.037l4.11.03.113.114.114.113v1.726l-.12.12-.119.119h-.961c-.53 0-.962.014-.962.03 0 .017.219.545.485 1.174l.484 1.142-.393.03c-2.316.173-3.572.682-5.748 2.332-.838.636-1.852 1.37-1.893 1.372-.016 0 .004-.078.046-.173z" style="fill:#000;stroke-width:.0407975"/><path d="M14.94 14.11a7.3 7.3 0 0 0-3.26.738c-.844.404-1.32.716-2.713 1.785-.88.677-1.622 1.182-2.072 1.414l-.31.162-.992 2.264c-.936 2.14-.989 2.281-.99 2.519-.001.22.013.27.123.407a1 1 0 0 0 .265.227c.132.067.543.071 6.87.071 7.547 0 6.873.03 7.135-.298.11-.138.124-.187.123-.407-.002-.239-.1-.478-1.835-4.567l-1.83-4.316zm-1.504 1.21c.456.008.908.186 1.253.531.563.565.693 1.38.333 2.092a1.8 1.8 0 0 1-1.036.897c-.28.097-.841.111-1.105.028-1.332-.423-1.728-2.114-.717-3.06a1.8 1.8 0 0 1 1.272-.487m-.036.723c-.185.003-.372.035-.48.093-.201.106-.452.377-.54.58-.098.228-.087.64.025.872.113.233.4.492.632.574a1.09 1.09 0 0 0 1.455-1.031c-.001-.44-.219-.792-.624-1.012-.1-.054-.282-.08-.468-.076M9.173 18.24a1.44 1.44 0 0 1 1.367.774c.132.243.137.278.137.665 0 .368-.01.429-.115.637a1.54 1.54 0 0 1-.681.673 1.51 1.51 0 0 1-1.151.04c-.41-.172-.634-.387-.813-.781-.12-.266-.131-.81-.022-1.078a1.46 1.46 0 0 1 1.278-.93m.062.728c-.388.003-.66.245-.691.629-.032.383.133.657.467.776.194.07.237.071.432.017.339-.094.602-.483.542-.801-.07-.375-.304-.592-.67-.618zm4.663 1.6c.162 0 .325.035.421.104.25.178.363.556.252.85-.064.17-.282.376-.446.421-.271.076-.46.036-.678-.14a.72.72 0 0 1 .033-1.131c.096-.07.257-.104.418-.104" style="display:inline;fill:#000;stroke-width:.0407975"/></svg>
