<svg xmlns="http://www.w3.org/2000/svg" width="24" height="24" viewBox="0 0 24 24"><path d="M10.800 2.630 L 10.800 5.100 8.880 3.180 L 6.960 1.261 6.120 2.100 L 5.280 2.940 8.040 5.700 L 10.800 8.460 10.800 9.670 L 10.800 10.880 9.630 10.880 L 8.460 10.880 5.680 8.100 L 2.900 5.320 2.060 6.160 L 1.221 7.000 3.130 8.910 C 4.181 9.961,5.040 10.834,5.040 10.850 C 5.040 10.867,3.933 10.880,2.580 10.880 L 0.120 10.880 0.120 12.060 L 0.120 13.240 2.590 13.240 L 5.060 13.240 3.150 15.150 C 2.099 16.201,1.240 17.078,1.240 17.101 C 1.240 17.123,1.609 17.509,2.060 17.960 L 2.880 18.780 5.650 16.010 L 8.420 13.240 9.610 13.240 L 10.800 13.240 10.800 14.430 L 10.800 15.620 8.030 18.390 L 5.260 21.160 6.110 22.010 L 6.960 22.860 8.880 20.940 L 10.799 19.021 10.810 21.480 L 10.820 23.940 12.010 23.951 L 13.200 23.961 13.200 21.471 L 13.200 18.980 15.130 20.910 L 17.061 22.840 17.900 22.000 L 18.740 21.160 15.970 18.390 L 13.200 15.620 13.200 14.430 L 13.200 13.240 14.390 13.240 L 15.580 13.240 18.350 16.010 L 21.120 18.780 21.960 17.940 L 22.800 17.101 20.870 15.170 L 18.940 13.240 21.430 13.240 L 23.920 13.240 23.920 12.060 L 23.920 10.880 21.430 10.880 L 18.940 10.880 20.877 8.943 L 22.813 7.007 21.968 6.153 L 21.123 5.300 18.331 8.090 L 15.540 10.880 14.370 10.880 L 13.200 10.880 13.200 9.670 L 13.200 8.460 15.970 5.690 L 18.739 2.920 18.160 2.337 C 17.841 2.017,17.457 1.645,17.307 1.510 L 17.034 1.266 15.117 3.183 L 13.200 5.100 13.200 2.630 L 13.200 0.160 12.000 0.160 L 10.800 0.160 10.800 2.630 " stroke="none" fill-rule="evenodd" fill="black"></path></svg>