<svg xmlns="http://www.w3.org/2000/svg" width="24" height="24"><path d="M11.904 0.222 C 10.982 0.285,10.622 0.332,9.906 0.486 C 8.272 0.838,6.559 1.715,5.472 2.755 C 4.449 3.733,3.878 4.827,3.619 6.300 C 3.533 6.795,3.531 8.231,3.616 8.780 C 3.825 10.124,4.333 11.139,5.233 12.007 C 6.352 13.087,7.898 13.793,11.048 14.662 C 13.056 15.216,13.746 15.575,13.943 16.170 C 14.016 16.390,13.998 16.691,13.899 16.882 C 13.746 17.178,13.328 17.391,12.720 17.484 C 12.263 17.553,10.926 17.509,10.380 17.406 C 9.605 17.259,8.623 16.910,8.000 16.559 C 7.420 16.232,6.777 15.778,6.448 15.463 L 6.116 15.145 5.641 15.622 C 5.380 15.885,4.408 16.874,3.480 17.820 L 1.793 19.540 2.156 19.888 C 3.052 20.748,4.123 21.481,5.333 22.061 C 7.015 22.868,9.010 23.463,10.620 23.638 C 11.738 23.759,13.856 23.720,14.840 23.559 C 18.088 23.028,20.438 21.373,21.338 18.982 C 21.704 18.010,21.831 16.524,21.660 15.220 C 21.459 13.681,20.598 12.231,19.311 11.265 C 18.143 10.388,16.364 9.613,14.438 9.143 C 13.752 8.976,12.550 8.576,12.192 8.397 C 11.774 8.187,11.576 8.020,11.457 7.778 C 11.252 7.359,11.385 6.940,11.815 6.650 C 12.128 6.440,12.337 6.397,13.160 6.372 C 13.991 6.347,14.250 6.381,15.074 6.619 C 16.202 6.945,16.915 7.363,17.874 8.259 L 18.129 8.498 20.046 6.559 C 21.100 5.493,22.070 4.497,22.202 4.348 L 22.442 4.075 22.352 3.949 C 22.215 3.756,21.661 3.211,21.280 2.894 C 20.093 1.906,18.716 1.239,16.676 0.664 C 16.293 0.556,15.561 0.408,15.092 0.343 C 14.680 0.286,12.924 0.153,12.740 0.166 C 12.696 0.168,12.320 0.194,11.904 0.222 " fill="currentColor" stroke="none" fill-rule="evenodd"></path></svg>