<svg xmlns="http://www.w3.org/2000/svg" width="24" height="24" viewbox="0 0 24 24"><path fill="currentColor" fill-rule="nonzero" d="M12.591 3.006c-.004.004-.234.019-.51.034-.519.027-.753.046-.98.085-.072.011-.195.03-.268.038a3.326 3.326 0 0 0-.269.054c-.072.02-.203.046-.284.061-.18.027-.779.227-1.136.38-1.704.722-2.76 1.72-3.282 3.113a6.585 6.585 0 0 0-.268 1.186c-.023.215-.023 1.21-.004 1.324l.042.308c.085.675.357 1.378.737 1.911.818 1.148 2.257 1.885 5.136 2.637.825.215 1.516.495 1.773.722.158.138.28.364.288.537.02.334-.123.56-.449.714-.438.203-1.478.23-2.407.058-.372-.066-1.005-.277-1.408-.465-.45-.207-1.39-.829-1.493-.986a1.197 1.197 0 0 0-.146-.15l-.123-.111-.864.879c-.476.48-1.22 1.236-1.654 1.68l-.787.807.219.21c1.12 1.068 2.36 1.778 4.138 2.373.426.146.974.3 1.205.338.054.011.157.034.23.054.13.03.526.1.806.134.691.092 2.368.092 3.09 0 2.733-.353 4.69-1.739 5.335-3.766.254-.802.3-1.953.116-3.013-.043-.245-.196-.66-.373-1.013-.526-1.056-1.255-1.727-2.63-2.414-.556-.28-1.86-.733-2.448-.852-.357-.07-1.332-.388-1.662-.538-.518-.238-.718-.468-.71-.833.004-.307.28-.583.69-.702.227-.065 1.133-.092 1.433-.039.506.085 1.27.33 1.67.53.28.146.775.51 1.097.814l.28.26 1.666-1.673c1.493-1.5 1.662-1.68 1.616-1.738a4.197 4.197 0 0 0-.326-.373c-.968-.97-2.012-1.57-3.566-2.05a10.038 10.038 0 0 0-2.725-.487c-.23-.015-.503-.03-.603-.038a.708.708 0 0 0-.192 0Z"/></svg>
