<svg xmlns="http://www.w3.org/2000/svg" width="24" height="24" viewbox="0 0 24 24"><path fill="currentColor" d="M12.52 2.006c-.005.005-.26.022-.568.039-.575.03-.836.051-1.087.094a7.18 7.18 0 0 1-.299.042 3.695 3.695 0 0 0-.298.06 5.82 5.82 0 0 1-.316.068c-.2.03-.866.252-1.262.422-1.894.802-3.067 1.911-3.647 3.46a7.316 7.316 0 0 0-.298 1.317c-.026.239-.026 1.343-.005 1.471l.047.342c.094.75.397 1.53.82 2.124.908 1.275 2.507 2.094 5.706 2.93.917.238 1.684.55 1.97.801.175.154.311.405.32.597.021.371-.137.623-.5.794-.485.226-1.641.255-2.673.064-.414-.073-1.118-.308-1.565-.516-.5-.23-1.544-.922-1.66-1.097a1.33 1.33 0 0 0-.161-.166l-.137-.124-.96.977c-.528.533-1.356 1.373-1.838 1.868l-.874.896.243.234c1.245 1.186 2.623 1.975 4.598 2.636.473.162 1.083.333 1.339.375.06.013.175.039.256.06.145.034.584.11.895.15.768.102 2.632.102 3.433 0 3.037-.393 5.212-1.933 5.929-4.185.281-.89.332-2.17.128-3.347-.047-.273-.218-.734-.414-1.126-.584-1.173-1.395-1.92-2.922-2.683-.618-.311-2.068-.815-2.72-.947-.397-.077-1.48-.43-1.847-.597-.576-.264-.798-.52-.79-.925.005-.342.312-.649.768-.78.252-.073 1.259-.103 1.591-.043.563.093 1.412.366 1.855.588.312.162.862.567 1.22.904l.312.29 1.85-1.86c1.66-1.667 1.847-1.867 1.796-1.931a4.663 4.663 0 0 0-.363-.414c-1.074-1.079-2.234-1.744-3.962-2.277a11.153 11.153 0 0 0-3.028-.542c-.255-.017-.558-.034-.67-.043a.787.787 0 0 0-.212 0Z"/></svg>
