<svg xmlns="http://www.w3.org/2000/svg" width="24" height="24" viewBox="0 0 24 24"><title>Sonarr SVG Icon</title><path fill="currentColor" d="m6.44 17.083.196.188-2.951 2.956.154.154 2.954-2.96.194.188L8.8 15.726l-.546-.526zm.126-10.249-.19.19 1.861 1.858.536-.537-1.861-1.857-.193.192-3.048-3.039-.15.156ZM3.671 3.641l-.152.155q.074-.077.152-.155m0 0-.153.153.152-.155zm13.78 13.345-1.953-1.942-.534.536 1.951 1.942.19-.19 3.001 3.104.01-.007.062-.062q.04-.041.08-.086l-3-3.105zm2.806 3.3q-.038.044-.08.085zm-.151.15.01-.007zm-2.84-13.85.075.078zm0 0-.192-.191-1.835 1.866.539.532 1.835-1.863-.194-.19 3.015-2.933-.15-.156Zm3.166-2.78-.15-.155q.076.077.15.156m.029-.027-.152-.155-.026.025.15.156zm-8.478 4.904a3.15 3.15 0 0 0-2.3.947 3.1 3.1 0 0 0-.942 2.067v.456a4 4 0 0 0 .045.385 3.08 3.08 0 0 0 .903 1.698 3 3 0 0 0 .405.346 3.27 3.27 0 0 0 3.792 0 3 3 0 0 0 .33-.276l.07-.07a3.27 3.27 0 0 0 0-4.606 3.14 3.14 0 0 0-2.303-.947m8.195 11.683-.063.062q.034-.03.063-.062M4.647 2.767l-.011.009zm-.975.872-.002.002zm.364 16.98-.024-.021Zm2.602-8.538A6.7 6.7 0 0 0 4.95 7.037c-.954-.954-2.274-2.27-2.278-2.273a11.04 11.04 0 0 0-2.397 6.339.15.15 0 0 0-.022.076q-.017.372-.017.783c0 .26 0 .52.017.78a12 12 0 0 0 .157 1.386 11.04 11.04 0 0 0 2.414 5.212c.008-.008 1.066-1.066 2.072-2.078a6.67 6.67 0 0 0 1.743-5.181m5.364 5.434c-2.14 0-3.597.199-5.163 1.765a512 512 0 0 0-2.007 2.014q.148.117.302.225a11.16 11.16 0 0 0 6.84 2.186 11.27 11.27 0 0 0 6.853-2.186c.119-.081.224-.165.334-.25l-1.896-1.896c-1.692-1.696-3.033-1.858-5.263-1.858M4.76 21.238l-.022-.022Zm-.366-.298-.028-.025Zm7.61-14.2a6.93 6.93 0 0 0 5.26-1.852l2.088-2.082A11.27 11.27 0 0 0 11.974.223a11.33 11.33 0 0 0-7.327 2.543l2.202 2.207a6.87 6.87 0 0 0 5.153 1.766m8.281-3.088V3.65l-.01-.011-.003-.002.003.002zm-1.402 3.598c-1.42 1.422-1.54 2.651-1.54 4.827a6.75 6.75 0 0 0 1.754 5.163c1.041 1.042 2.028 2.024 2.054 2.05a11.32 11.32 0 0 0 2.543-7.327 11.4 11.4 0 0 0-2.877-7.737q.257.297.49.593zm1.807 12.576-.025.028zm-.155-15.918-.1-.106Z" style="stroke-width:1.17428"/></svg>