<svg xmlns="http://www.w3.org/2000/svg" width="24" height="24"><path d="M2.320 0.787 C 2.243 0.795,1.823 0.838,1.386 0.882 C 0.530 0.969,0.366 1.012,0.253 1.185 C 0.183 1.292,0.181 1.592,0.193 8.958 L 0.207 16.620 0.338 16.746 C 0.497 16.898,0.625 16.936,1.860 17.200 C 3.538 17.559,3.923 17.584,4.413 17.367 L 4.600 17.284 4.602 14.772 C 4.606 11.206,4.637 8.920,4.683 8.834 C 4.728 8.749,4.923 8.640,5.028 8.640 C 5.218 8.640,5.597 8.887,6.029 9.292 C 6.276 9.523,6.771 9.979,7.129 10.306 C 7.487 10.632,7.987 11.095,8.240 11.335 C 9.142 12.191,9.157 12.197,9.983 12.006 C 10.646 11.852,10.936 11.811,11.600 11.778 C 12.344 11.741,13.189 11.813,14.051 11.987 C 14.742 12.126,14.767 12.128,14.933 12.065 C 15.115 11.995,15.547 11.613,17.873 9.463 C 18.232 9.131,18.599 8.811,18.689 8.750 C 18.892 8.613,19.122 8.602,19.244 8.724 C 19.454 8.934,19.449 8.841,19.444 12.399 C 19.442 14.214,19.429 15.954,19.415 16.264 C 19.363 17.413,19.511 17.550,20.700 17.448 C 21.546 17.376,23.257 17.020,23.568 16.851 C 23.928 16.656,23.902 17.028,23.885 12.300 C 23.877 10.012,23.859 6.580,23.845 4.673 L 23.820 1.206 23.725 1.105 C 23.605 0.978,23.613 0.980,22.460 0.860 C 20.898 0.698,20.868 0.703,20.359 1.179 C 19.611 1.879,18.590 2.814,18.020 3.320 C 17.690 3.613,17.096 4.153,16.700 4.520 C 16.304 4.887,15.800 5.347,15.580 5.542 C 15.101 5.968,14.884 6.195,14.551 6.620 C 14.311 6.926,14.279 6.950,13.840 7.172 C 13.263 7.462,13.098 7.483,11.680 7.444 C 10.764 7.418,10.641 7.407,10.472 7.331 C 10.352 7.277,10.019 7.003,9.552 6.576 C 9.149 6.207,8.028 5.185,7.060 4.304 C 4.296 1.789,4.003 1.521,3.641 1.173 C 3.453 0.993,3.249 0.826,3.187 0.803 C 3.082 0.763,2.636 0.755,2.320 0.787 M11.680 17.757 C 11.305 17.832,11.145 18.073,11.257 18.393 C 11.327 18.590,11.655 19.164,11.789 19.323 C 11.873 19.424,11.915 19.440,12.089 19.440 C 12.268 19.440,12.305 19.424,12.425 19.297 C 12.499 19.219,12.662 18.949,12.787 18.698 C 12.995 18.281,13.011 18.228,12.977 18.094 C 12.934 17.924,12.798 17.810,12.577 17.758 C 12.397 17.717,11.886 17.716,11.680 17.757 M1.400 18.358 C 0.529 18.379,0.448 18.387,0.293 18.470 C 0.112 18.566,0.084 18.647,0.115 18.974 C 0.128 19.110,0.148 19.137,0.295 19.203 C 0.452 19.274,0.611 19.278,3.424 19.279 C 5.467 19.280,6.427 19.266,6.513 19.236 C 6.613 19.201,6.648 19.159,6.683 19.027 C 6.780 18.670,6.673 18.450,6.360 18.361 C 6.213 18.318,3.110 18.317,1.400 18.358 M18.080 18.360 C 17.548 18.396,17.457 18.432,17.403 18.628 C 17.318 18.933,17.370 19.121,17.568 19.227 C 17.691 19.293,17.894 19.296,20.620 19.286 C 22.226 19.279,23.585 19.264,23.640 19.251 C 23.695 19.239,23.790 19.203,23.852 19.172 C 23.960 19.118,23.963 19.108,23.952 18.829 L 23.940 18.541 23.760 18.441 L 23.580 18.340 21.040 18.336 C 19.643 18.334,18.311 18.344,18.080 18.360 M6.075 20.319 C 5.974 20.337,5.758 20.397,5.595 20.452 C 4.254 20.908,1.223 21.952,0.910 22.066 C 0.452 22.234,0.219 22.387,0.190 22.541 C 0.140 22.803,0.345 23.139,0.582 23.183 C 0.732 23.211,0.970 23.145,1.600 22.899 C 1.809 22.818,2.844 22.454,3.900 22.091 C 4.956 21.728,6.022 21.341,6.270 21.230 L 6.720 21.030 6.720 20.777 C 6.720 20.366,6.538 20.236,6.075 20.319 M17.508 20.346 C 17.341 20.394,17.305 20.828,17.450 21.040 C 17.562 21.205,17.690 21.255,20.018 22.047 C 20.984 22.376,22.010 22.736,22.298 22.848 C 22.943 23.098,23.162 23.159,23.426 23.160 C 23.606 23.160,23.646 23.145,23.732 23.042 C 23.794 22.968,23.842 22.847,23.860 22.723 C 23.883 22.553,23.874 22.505,23.802 22.414 C 23.755 22.354,23.686 22.284,23.649 22.258 C 23.555 22.192,22.778 21.913,20.720 21.205 C 19.763 20.875,18.818 20.548,18.620 20.476 C 18.340 20.375,18.184 20.344,17.920 20.336 C 17.733 20.330,17.547 20.334,17.508 20.346 " stroke="none" fill-rule="evenodd" fill="#000"></path></svg>