<svg xmlns="http://www.w3.org/2000/svg" width="24" height="24"><path d="M6.527 5.383a.485.485 0 0 1 .32.066c.028.024.055.051.083.078.03.032.062.063.093.094.036.031.067.063.102.098.074.066.145.133.219.195.215.191.422.387.633.582.191.176.382.348.578.524.156.14.312.285.468.43.149.132.293.265.442.398.183.164.363.328.543.496.254.238.512.472.773.703.04.039.082.078.121.121.18.148.348.156.57.16a12.01 12.01 0 0 0 .5.012h.13c.652.008.652.008 1.21-.29.114-.12.215-.25.313-.386.086-.121.191-.21.305-.305.175-.16.351-.316.527-.48.023-.024.05-.047.074-.07.055-.047.106-.094.156-.145.59-.543.59-.543.825-.746a25.742 25.742 0 0 0 .562-.512c.13-.117.262-.238.39-.36a9.05 9.05 0 0 1 .286-.26c.121-.11.121-.11.215-.212.152-.144.246-.18.457-.191.172.004.344.02.515.043l.336.035c.07.004.145.012.215.02.051.007.051.007.106.011.238.028.238.028.343.133.012.121.016.234.016.355v.114c0 .125 0 .25.004.375v.265c.004.243.004.489.004.73.004.153.004.306.004.454l.012 1.59c0 .492.003.988.007 1.48.004.422.008.848.008 1.27.004.254.004.508.008.762 0 .234 0 .472.004.71v.262c0 .121.004.238 0 .36.004.05.004.05.004.105 0 .16-.012.246-.11.375-.14.102-.265.129-.433.164l-.098.024c-.07.011-.137.027-.207.043-.101.019-.207.042-.308.062-.434.094-.86.156-1.305.11-.14-.094-.14-.094-.188-.235-.004-.066-.004-.133-.004-.195v-.258c0-.047.004-.09.004-.14v-.302c.004-.16.004-.32.004-.476 0-.453.004-.906.008-1.36.004-.277.004-.554.004-.832 0-.105 0-.21.004-.316v-.445c0-.043.004-.086.004-.133 0-.238 0-.238-.113-.445-.094-.075-.094-.075-.211-.07-.16.066-.266.167-.387.284l-.152.141c-.024.024-.047.05-.075.074a9.98 9.98 0 0 1-.3.274 32.68 32.68 0 0 0-.774.71c-.07.063-.14.13-.21.192a1.72 1.72 0 0 1-.126.113c-.035.036-.07.067-.11.102-.132.113-.218.18-.398.168-.039-.008-.082-.02-.125-.027-.039-.008-.078-.016-.12-.028a5.313 5.313 0 0 1-.266-.054 4.974 4.974 0 0 0-1.02-.09h-.168c-.367.008-.71.043-1.066.144-.203.055-.344.082-.543.016a3.072 3.072 0 0 1-.293-.258c-.055-.05-.11-.101-.16-.156-.04-.04-.04-.04-.082-.078-.102-.098-.207-.192-.313-.285l-.441-.399c-.047-.043-.094-.09-.14-.133a6.511 6.511 0 0 1-.34-.316c-.044-.035-.083-.074-.122-.113a1.346 1.346 0 0 1-.11-.102.847.847 0 0 0-.39-.176c-.105.051-.105.051-.187.14-.028.099-.028.099-.024.204V11.602c-.004.293-.004.585-.004.878v1.403c-.004.164 0 .328 0 .492 0 .102 0 .2-.004.3.004.048.004.095.004.141 0 .04 0 .082-.004.125v.11a.721.721 0 0 1-.015.09c-.375.25-.95.082-1.364 0a3.074 3.074 0 0 1-.183-.04l-.18-.035c-.703-.152-.703-.152-.851-.3-.004-.118-.008-.235-.008-.352V12.93c0-.153 0-.305-.004-.457V9.402C5 8.977 5 8.555 5 8.13V6.39a5.393 5.393 0 0 1 0-.356c-.004-.035-.004-.07-.004-.105.004-.235.004-.235.082-.348.117-.074.223-.082.356-.094.058-.008.113-.011.168-.02.058-.003.117-.011.175-.015.059-.008.114-.012.172-.02.196-.019.387-.035.578-.05Zm0 0" style="stroke:none;fill-rule:nonzero;fill:#3372b6;fill-opacity:1"/><path d="M8.719 16.922a.307.307 0 0 1 .14.14c.008.149.008.149 0 .282a6.281 6.281 0 0 1-.96.394c-.055.02-.11.04-.169.059-.144.05-.293.098-.44.148l-.618.211c-.11.04-.219.078-.328.114-.274.093-.543.19-.809.304a.632.632 0 0 1-.379.035c-.11-.097-.136-.164-.16-.308.02-.113.02-.113.098-.184.117-.074.226-.12.355-.164.051-.015.098-.035.149-.05.054-.02.109-.04.164-.055a57.02 57.02 0 0 1 .61-.21c.144-.052.292-.099.44-.15.274-.097.551-.191.829-.285.125-.039.246-.082.37-.129.063-.02.126-.043.188-.062.051-.02.102-.035.156-.055a.953.953 0 0 1 .364-.035ZM16.281 17.172c.059.02.121.039.18.062.129.043.254.086.379.13l.48.163c.125.043.25.086.375.125.086.032.176.063.262.09.246.086.492.172.734.262.036.016.07.027.11.043.09.047.09.047.183.187-.02.254-.02.254-.14.375-.254.032-.45-.05-.68-.14a15.277 15.277 0 0 0-.238-.094l-.125-.047a31.974 31.974 0 0 0-.653-.226c-.066-.024-.066-.024-.132-.043-.18-.063-.364-.125-.543-.184-.133-.047-.27-.09-.403-.137-.039-.011-.082-.027-.12-.039a9.14 9.14 0 0 1-.575-.215c-.035-.011-.07-.027-.105-.043-.082-.05-.082-.05-.141-.218.012-.16.012-.16.055-.254.312-.153.796.101 1.097.203Zm0 0" style="stroke:none;fill-rule:nonzero;fill:#f39a01;fill-opacity:1"/><path d="M17.137 15.742c.16.004.324 0 .484 0H18.078c.735.004.735.004.953.149.016.164.016.164 0 .328-.168.113-.289.105-.484.105h-.106c-.117.004-.234.004-.347.004h-1.895c-.078 0-.16 0-.238.004-.113 0-.223 0-.336-.004-.031.004-.066.004-.098.004-.132-.004-.226-.008-.34-.082-.082-.137-.035-.258 0-.406.137-.067.274-.067.422-.074.051 0 .051 0 .106-.004.473-.024.95-.024 1.422-.024Zm0 0" style="stroke:none;fill-rule:nonzero;fill:#f39d01;fill-opacity:1"/><path d="M7.207 15.746c1.414-.016 1.414-.016 1.602.113.05.079.05.079.043.25-.012.051-.028.102-.04.157-.14.07-.28.054-.433.054H7.176c-.215 0-.43 0-.649.004H5.355c-.171 0-.242-.008-.386-.105-.02-.164-.02-.164 0-.328.18-.121.332-.11.539-.114.039 0 .082 0 .12-.004.13 0 .259-.003.388-.007.09 0 .18 0 .265-.004.309-.004.617-.012.926-.016Zm0 0" style="stroke:none;fill-rule:nonzero;fill:#f29a01;fill-opacity:1"/><path d="M5.906 5.531v.047l-.703.094a4.633 4.633 0 0 0-.055.695V6.832c-.003.086-.003.172-.003.258 0 .23 0 .465-.004.695 0 .242 0 .485-.004.727 0 .457-.004.914-.004 1.375-.004.52-.004 1.043-.008 1.566-.004 1.07-.012 2.145-.016 3.219h-.046c-.032-2.2-.055-4.402-.06-6.602v-.629C5 7.191 5 6.945 5 6.7v-.648c0-.055 0-.055-.004-.114.004-.242.004-.242.082-.355.242-.152.559-.094.828-.05Zm0 0" style="stroke:none;fill-rule:nonzero;fill:#4787c4;fill-opacity:1"/><path d="M12.05 15.406h.173c.152.016.152.016.293.11.039.082.039.082.046.187-.05.137-.05.137-.128.285-.024.047-.051.098-.075.149-.12.199-.12.199-.218.27-.118.019-.118.019-.235 0-.082-.087-.082-.087-.148-.2l-.07-.113c-.188-.332-.188-.332-.157-.532.156-.164.301-.16.52-.156Zm0 0" style="stroke:none;fill-rule:nonzero;fill:#1f4b9a;fill-opacity:1"/><path d="M16.406 10.172h.047v4.875l1.172.047c-.188.187-.484.148-.734.148-.063 0-.125.004-.188.004-.156-.012-.156-.012-.297-.105-.058-.176-.054-.344-.054-.528v-1.371c.003-.246 0-.488 0-.734v-.844c0-.5.007-.992.054-1.492Zm0 0" style="stroke:none;fill-rule:nonzero;fill:#7897c6;fill-opacity:1"/><path d="M7.547 11.766h.047c.004.437.004.875.008 1.316 0 .203 0 .406.003.61v.59c0 .073.004.148.004.222V15c-.004.047-.011.094-.015.14-.168.114-.293.11-.489.106h-.187c-.152-.012-.23-.023-.356-.105.07-.07.137-.059.235-.063.035 0 .07-.004.105-.004.043-.004.086-.004.133-.008.207-.007.207-.007.418-.02v-1.218h.094v-2.062Zm0 0" style="stroke:none;fill-rule:nonzero;fill:#2d5ea8;fill-opacity:1"/><path d="M5.016 10.36h.046l.047 3.046h.047l.047 1.36.234.093v.047c-.316-.035-.316-.035-.421-.14a7.325 7.325 0 0 1-.012-.414v-.133c0-.14 0-.285.004-.426v-1.078c.004-.262.004-.527.004-.793 0-.52 0-1.043.004-1.563Zm0 0" style="stroke:none;fill-rule:nonzero;fill:#316eb5;fill-opacity:1"/><path d="m15.328 7.078.094.047a4.342 4.342 0 0 1-.563.574c-.09.078-.175.16-.257.246-.282.285-.59.54-.915.774 0-.14 0-.14.083-.227.035-.031.074-.066.113-.097.043-.04.086-.075.129-.114.023-.02.047-.039.07-.062.129-.11.25-.223.371-.336l.156-.145c.024-.023.051-.047.079-.07.21-.2.425-.395.64-.59Zm0 0" style="stroke:none;fill-rule:nonzero;fill:#3d8ccb;fill-opacity:1"/><path d="M7.547 10.406h.047c.008 1.14-.02 2.281-.047 3.422H7.5a300613.615 300613.615 0 0 0-.043-1.734c0-.047 0-.098-.004-.145v-.136c-.004-.04-.004-.083-.004-.122.004-.12.024-.23.051-.347.008-.074.012-.153.016-.227 0-.043.004-.086.004-.129.003-.043.003-.082.007-.129.004-.066.004-.066.004-.132.008-.106.012-.215.016-.32Zm0 0" style="stroke:none;fill-rule:nonzero;fill:#3268af;fill-opacity:1"/><path d="m18.844 5.578.093.047c0 .27.004.535.004.805v.793c0 .207-.007.402-.05.605h-.047l-.024-.937c0-.11-.004-.215-.008-.32l-.011-.458c0-.05 0-.097-.004-.148v-.133c-.004-.039-.004-.078-.004-.117.004-.09.004-.09.05-.137Zm0 0" style="stroke:none;fill-rule:nonzero;fill:#3c80c0;fill-opacity:1"/><path d="M11.578 11.719c.145-.004.285-.004.43-.008h.125c.21-.004.379 0 .57.101v.047H11.25v-.046h.328v-.094Zm0 0" style="stroke:none;fill-rule:nonzero;fill:#225caa;fill-opacity:1"/><path d="M5.11 13.406h.046l.047 1.36.234.093v.047c-.316-.035-.316-.035-.421-.14-.008-.133-.008-.133-.008-.29.004-.05.004-.101.004-.152 0-.039.004-.082.004-.12h.046l.047-.798Zm0 0" style="stroke:none;fill-rule:nonzero;fill:#2760aa;fill-opacity:1"/><path d="M16.594 5.953c0 .14 0 .14-.059.215-.039.039-.039.039-.082.078-.031.027-.058.059-.09.086-.246.227-.496.441-.754.652l-.093-.046c.226-.231.457-.446.703-.657.07-.062.14-.12.21-.183.055-.047.11-.098.165-.145Zm0 0" style="stroke:none;fill-rule:nonzero;fill:#4293cd;fill-opacity:1"/><path d="m16.453 15.047 1.172.047c-.156.156-.344.14-.555.144h-.289c-.078-.004-.156-.004-.234-.004l-.094-.187Zm0 0" style="stroke:none;fill-rule:nonzero;fill:#1d4fa7;fill-opacity:1"/><path d="M18.844 5.578c.093.094.093.094.101.262a4.243 4.243 0 0 0-.008.219c-.003.039-.003.078-.003.117l-.012.37-.012.247c-.004.207-.012.41-.02.613h-.046l-.024-.758a5.68 5.68 0 0 0-.008-.257l-.011-.371c0-.04 0-.079-.004-.118v-.277l.047-.047Zm0 0" style="stroke:none;fill-rule:nonzero;fill:#4689c5;fill-opacity:1"/><path d="M5.906 5.531v.047l-.797.094-.046-.094c.3-.074.539-.101.843-.047Zm0 0" style="stroke:none;fill-rule:nonzero;fill:#559fd3;fill-opacity:1"/><path d="M18.574 5.504c.051.004.102.012.153.016l.117.011c-.094.094-.094.094-.2.106h-.246a.663.663 0 0 1-.304-.106c.168-.054.308-.043.48-.027Zm0 0" style="stroke:none;fill-rule:nonzero;fill:#589bd1;fill-opacity:1"/><path d="m15.328 7.078.094.047c-.149.18-.3.355-.469.516l-.14-.047.515-.516Zm0 0" style="stroke:none;fill-rule:nonzero;fill:#459bd0;fill-opacity:1"/><path d="M14.156 8.25c-.066.16-.144.238-.289.34-.05.035-.05.035-.101.074-.024.02-.051.035-.079.055 0-.14 0-.14.079-.227.035-.027.07-.058.101-.086.035-.031.07-.058.106-.09.09-.066.09-.066.183-.066Zm0 0" style="stroke:none;fill-rule:nonzero;fill:#3882c5;fill-opacity:1"/><path d="M16.594 5.953c0 .14 0 .14-.07.215-.032.027-.063.05-.094.074-.032.028-.063.051-.094.078a.858.858 0 0 0-.07.055c0-.14 0-.14.07-.215.047-.039.047-.039.094-.074.03-.027.062-.05.093-.078.024-.016.047-.035.07-.055Zm0 0" style="stroke:none;fill-rule:nonzero;fill:#4a9dd2;fill-opacity:1"/><path d="m13.266 9 .093.047-.234.281-.094-.047A.488.488 0 0 1 13.266 9Zm0 0" style="stroke:none;fill-rule:nonzero;fill:#3a7bc3;fill-opacity:1"/><path d="M8.813 7.266c.054.043.105.086.156.132.031.024.062.047.09.075.082.074.082.074.175.215a1.45 1.45 0 0 1-.421-.282v-.14Zm0 0" style="stroke:none;fill-rule:nonzero;fill:#499bd2;fill-opacity:1"/><path d="M17.156 5.438c0 .207-.101.269-.234.421l-.094-.14c.11-.094.215-.188.328-.282Zm0 0" style="stroke:none;fill-rule:nonzero;fill:#4a9bd2;fill-opacity:1"/><path d="M18.516 14.86v.093L18.14 15v-.094c.136-.039.23-.047.375-.047Zm0 0" style="stroke:none;fill-rule:nonzero;fill:#204998;fill-opacity:1"/></svg>