<svg width="24" height="24" viewBox="0 0 24 24" fill="none" xmlns="http://www.w3.org/2000/svg">
<path d="M24 12C24 18.6274 18.6274 24 12 24C5.37258 24 0 18.6274 0 12C0 5.37258 5.37258 0 12 0C18.6274 0 24 5.37258 24 12ZM12.218 3.25078C12.1242 3.05391 11.8453 3.05391 11.7492 3.25078L4.71797 17.8922C4.69931 17.9304 4.69101 17.9682 4.6912 18.0039C4.6904 18.1574 4.84717 18.2704 5.01328 18.1922L10.3008 15.7453C10.343 15.7265 10.3875 15.7242 10.4297 15.7383L10.4299 15.736C10.4767 15.7524 10.5188 15.7899 10.5375 15.8414L11.8617 19.6687C11.8817 19.7263 11.9329 19.755 11.984 19.7549L11.9859 19.7548C12.0361 19.7543 12.0857 19.7256 12.1055 19.6687L13.4297 15.8414C13.4484 15.7898 13.4883 15.7523 13.5375 15.7359C13.5773 15.7219 13.6242 15.7242 13.6664 15.7429L18.9539 18.1898C19.1555 18.2859 19.3453 18.0961 19.2492 17.8922L12.218 3.25078Z" fill="black"/>
</svg>
