<svg xmlns="http://www.w3.org/2000/svg" width="24" height="24" fill="none" viewBox="0 0 24 24"><path d="M11.898 0.160 C 11.696 0.189,11.407 0.355,11.297 0.506 C 11.178 0.669,1.682 20.332,1.585 20.615 C 1.516 20.819,1.512 20.878,1.551 21.065 C 1.604 21.319,1.786 21.600,1.972 21.715 C 2.177 21.842,2.479 21.894,2.683 21.839 C 2.776 21.814,4.282 21.174,6.028 20.417 C 7.775 19.660,9.240 19.040,9.284 19.040 C 9.328 19.040,9.404 19.081,9.453 19.130 C 9.505 19.183,9.885 20.081,10.376 21.316 C 11.283 23.593,11.313 23.650,11.678 23.812 C 11.895 23.908,12.201 23.911,12.431 23.819 C 12.789 23.676,12.830 23.596,13.716 21.314 C 14.526 19.228,14.615 19.040,14.787 19.040 C 14.822 19.040,16.318 19.673,18.113 20.446 C 20.052 21.281,21.445 21.859,21.545 21.871 C 21.905 21.911,22.293 21.686,22.464 21.336 C 22.554 21.151,22.567 21.083,22.551 20.850 C 22.534 20.586,22.421 20.346,17.710 10.600 C 14.966 4.924,12.832 0.555,12.760 0.470 C 12.556 0.224,12.241 0.111,11.898 0.160 M12.119 1.639 C 12.169 1.670,12.215 2.881,12.427 9.868 C 12.564 14.374,12.677 18.215,12.678 18.404 C 12.680 18.697,12.667 18.768,12.590 18.880 C 12.437 19.106,12.302 19.180,12.047 19.180 C 11.785 19.180,11.603 19.077,11.492 18.867 C 11.406 18.705,11.400 19.103,11.635 9.474 C 11.785 3.293,11.834 1.716,11.876 1.664 C 11.936 1.592,12.030 1.582,12.119 1.639 " fill="url(#b)" stroke="none" fill-rule="evenodd"></path></svg>