<svg xmlns="http://www.w3.org/2000/svg" width="24" height="24" fill="none" viewBox="0 0 24 24"><path d="M11.900 0.116 C 11.720 0.162,11.552 0.260,11.434 0.386 C 11.294 0.536,11.486 0.145,6.197 11.100 C 1.710 20.394,1.581 20.667,1.567 20.922 C 1.548 21.246,1.653 21.496,1.891 21.700 C 2.101 21.880,2.273 21.933,2.574 21.911 C 2.790 21.895,3.207 21.724,6.020 20.501 C 7.780 19.736,9.270 19.109,9.332 19.108 C 9.394 19.107,9.478 19.141,9.519 19.183 C 9.561 19.226,9.974 20.212,10.439 21.375 C 10.904 22.539,11.328 23.549,11.382 23.619 C 11.436 23.689,11.571 23.797,11.683 23.858 C 11.928 23.991,12.249 24.008,12.511 23.901 C 12.867 23.755,12.906 23.679,13.817 21.342 C 14.355 19.962,14.679 19.182,14.724 19.158 C 14.763 19.137,14.840 19.120,14.896 19.120 C 14.951 19.120,16.433 19.739,18.188 20.496 C 19.944 21.253,21.457 21.893,21.551 21.918 C 22.174 22.085,22.826 21.433,22.682 20.788 C 22.627 20.543,12.992 0.613,12.839 0.429 C 12.771 0.347,12.646 0.244,12.563 0.202 C 12.387 0.112,12.072 0.071,11.900 0.116 M12.200 1.620 C 12.238 1.666,12.313 3.757,12.507 10.203 L 12.765 18.725 12.682 18.893 C 12.556 19.146,12.429 19.220,12.120 19.220 C 11.812 19.220,11.684 19.146,11.560 18.896 L 11.479 18.732 11.679 10.511 C 11.790 5.989,11.880 2.154,11.880 1.988 C 11.880 1.766,11.897 1.669,11.943 1.623 C 12.022 1.543,12.135 1.542,12.200 1.620 " fill="url(#b)" stroke="none" fill-rule="evenodd"></path></svg>