<svg xmlns="http://www.w3.org/2000/svg" width="24" height="24" viewBox="0 0 24 24"><path fill-rule="evenodd" d="M11.89.929a1 1 0 0 0-.101.191c-.033.077-.207.401-.388.72s-.393.697-.471.84-.184.332-.234.42a8 8 0 0 0-.174.32c-.045.088-.145.268-.221.4a9 9 0 0 0-.217.4 4 4 0 0 1-.14.26c-.033.055-.325.577-.648 1.16l-.68 1.22c-.05.088-.156.286-.236.44-.141.272-.377.66-.4.66-.006 0-.189.037-.406.082s-.502.098-.634.117a5 5 0 0 0-.42.081c-.172.043-.415.089-1.92.357a13 13 0 0 0-.8.159 9 9 0 0 1-.98.188 2 2 0 0 0-.28.054c-.066.02-.381.083-.7.141-1.183.212-1.72.337-1.72.398 0 .028.104.16.23.292l.754.796c.481.51.677.72 1.356 1.455.132.142.42.449.64.681s.634.673.92.979c.286.307.684.729.885.939s.432.458.515.552l.152.172-.027.345c-.028.36-.078.75-.147 1.142a10 10 0 0 0-.079.66c-.021.236-.066.619-.099.85a43 43 0 0 0-.12.94c-.033.286-.089.727-.124.98a61 61 0 0 0-.156 1.24 112 112 0 0 0-.208 1.695c-.02.19-.017.195.074.172.052-.013.553-.238 1.114-.501l3.582-1.676 2.562-1.199.398.191c.219.105 1.406.662 2.638 1.238s2.654 1.241 3.16 1.479c.506.237.958.443 1.004.457.171.052.19-.047.118-.625a14 14 0 0 0-.102-.711 9 9 0 0 1-.08-.6 30 30 0 0 0-.101-.84 62 62 0 0 1-.117-.94 30 30 0 0 0-.105-.82c-.05-.335-.098-.723-.157-1.26a39 39 0 0 0-.098-.8q-.164-1.21-.125-1.361c.014-.056.655-.77 1.434-1.596 4.217-4.478 4.052-4.297 3.979-4.37-.052-.052-.512-.147-3.07-.637-.407-.077-1.01-.193-1.34-.257l-1.84-.356a96 96 0 0 0-1.408-.266.47.47 0 0 1-.226-.092c-.054-.061-.546-.942-2.447-4.385-1.27-2.3-1.436-2.593-1.483-2.608-.024-.008-.063.008-.086.037"/></svg>