<svg xmlns="http://www.w3.org/2000/svg" width="24" height="24" viewBox="0 0 2.248 2.258"><path fill="#fff" fill-rule="evenodd" d="M1.696.278a.5.5 0 0 0-.442.471L1.25.781l-.159.23-.159.23-.043.005a.4.4 0 0 0-.142.04l-.032.017-.35-.144c-.294-.122-.35-.144-.352-.139-.005.008 0 .181.007.246.006.063.024.152.036.19l.009.026.248.102.248.102.004.016c.017.07.062.14.121.19a.5.5 0 0 0 .143.072.352.352 0 0 0 .337-.091.35.35 0 0 0 .112-.248l.001-.027.228-.163.229-.163.043-.003a.5.5 0 0 0 .447-.348.5.5 0 0 0-.031-.374.5.5 0 0 0-.5-.27m.112.169a.332.332 0 1 1-.283.57.36.36 0 0 1-.096-.163.3.3 0 0 1-.008-.081.332.332 0 0 1 .387-.326M1.705.51a.25.25 0 0 0-.15.4.25.25 0 0 0 .415-.272.26.26 0 0 0-.107-.103.2.2 0 0 0-.113-.027zm-.713.828a.26.26 0 0 1 .123.073.2.2 0 0 1 .051.07c.023.045.03.077.03.128 0 .079-.025.138-.081.195a.27.27 0 0 1-.179.082.29.29 0 0 1-.214-.08.3.3 0 0 1-.054-.074l.083.032c.044.019.09.037.103.041.07.024.153.004.207-.05a.205.205 0 0 0 0-.292c-.027-.026-.048-.038-.166-.086a1 1 0 0 1-.073-.033.3.3 0 0 1 .066-.015.4.4 0 0 1 .104.009" style="fill:#000;fill-opacity:1;stroke-width:.09429"/></svg>