<svg width="64" height="64" viewBox="0 0 64 64" xmlns="http://www.w3.org/2000/svg"><path d="M29.813 0.066 C 24.161 0.515,19.004 2.256,14.411 5.266 C 12.524 6.502,11.066 7.699,9.330 9.436 C 5.699 13.069,3.289 16.947,1.655 21.783 C 0.827 24.238,0.187 27.271,0.088 29.217 L 0.053 29.901 8.629 33.434 L 17.205 36.967 18.190 36.473 C 19.353 35.890,20.295 35.633,21.575 35.549 L 22.509 35.488 26.369 29.880 L 30.229 24.272 30.363 22.989 C 30.528 21.411,30.805 20.312,31.349 19.080 C 32.828 15.729,35.907 13.110,39.437 12.201 C 40.835 11.841,42.940 11.749,44.374 11.985 C 46.964 12.412,49.277 13.611,51.109 15.477 C 55.366 19.813,55.768 26.533,52.062 31.413 C 51.028 32.775,49.372 34.143,47.812 34.924 C 46.464 35.599,44.205 36.160,42.837 36.160 L 42.182 36.160 36.584 40.163 L 30.987 44.166 30.921 45.097 C 30.794 46.914,30.157 48.504,28.967 49.978 C 27.221 52.141,24.847 53.259,22.027 53.245 C 19.279 53.231,16.768 51.987,15.087 49.805 C 14.535 49.088,13.843 47.741,13.607 46.922 L 13.434 46.325 7.446 43.855 C 4.153 42.497,1.441 41.403,1.420 41.425 C 1.399 41.446,1.579 42.028,1.822 42.719 C 5.058 51.934,12.589 59.292,21.955 62.389 C 29.914 65.022,38.745 64.386,46.202 60.642 C 52.228 57.616,57.187 52.772,60.270 46.899 C 61.800 43.985,62.865 40.889,63.460 37.631 C 64.099 34.125,64.099 29.875,63.460 26.369 C 62.274 19.873,59.310 14.195,54.670 9.536 C 51.923 6.777,49.538 5.038,46.226 3.380 C 42.889 1.711,39.718 0.753,35.893 0.260 C 34.652 0.100,30.894 -0.020,29.813 0.066 M40.800 16.063 C 38.167 16.649,35.966 18.492,34.995 20.924 C 34.520 22.115,34.305 23.340,34.384 24.423 C 34.614 27.613,36.589 30.360,39.467 31.495 C 40.696 31.979,41.064 32.045,42.507 32.040 C 43.721 32.036,44.006 31.998,44.800 31.742 C 47.212 30.961,49.024 29.312,49.937 27.069 C 51.763 22.582,49.361 17.608,44.693 16.212 C 43.641 15.897,41.853 15.829,40.800 16.063 M43.936 18.084 C 45.865 18.539,47.528 20.069,48.228 22.034 C 48.540 22.909,48.608 24.363,48.381 25.326 C 47.766 27.944,45.549 29.844,42.880 30.042 C 39.993 30.256,37.268 28.242,36.580 25.387 C 36.370 24.515,36.417 23.018,36.681 22.187 C 37.313 20.197,38.967 18.613,40.960 18.088 C 41.732 17.885,43.085 17.883,43.936 18.084 M21.120 37.620 C 20.973 37.645,20.591 37.739,20.270 37.829 L 19.688 37.993 21.924 38.922 C 23.154 39.434,24.352 39.975,24.587 40.125 C 25.249 40.548,26.009 41.431,26.363 42.188 C 27.944 45.566,25.523 49.387,21.802 49.387 C 20.970 49.387,20.243 49.161,17.885 48.172 C 16.848 47.737,16.000 47.419,16.000 47.465 C 16.000 47.694,16.946 48.920,17.552 49.475 C 18.801 50.620,20.388 51.227,22.133 51.229 C 25.250 51.231,27.961 49.099,28.749 46.027 C 28.964 45.187,28.962 43.607,28.744 42.754 C 28.260 40.856,26.887 39.145,25.173 38.307 C 23.873 37.670,22.358 37.414,21.120 37.620 " stroke="none" fill-rule="evenodd"></path></svg>
