<svg xmlns="http://www.w3.org/2000/svg" width="263" height="263" fill="none" viewBox="0 0 263 263"><path fill="#000" fill-rule="evenodd" d="M241.5 1.6q14.4 4.2 19.7 17.5l1.8 4.4v93l-2.1 4.6a33 33 0 0 1-12.5 14l-3.9 2.3v98.2l-1.5 5.8a27 27 0 0 1-19 20.1l-4.9 1.5H90l-5.2-1.5c-7-2.1-12.9-6.9-16.6-13.5l-3.1-5.5-.6-27c-.3-14.8-.7-27.1-.8-27.2 0-.2-5.4-.3-11.9-.3s-16-.5-21.4-1l-9.7-.8-5.2-2.8a30 30 0 0 1-13.6-16.7L0 161.5v-111l1.9-5.4a33 33 0 0 1 15-17l5.1-2.6 102.7-1 2-5.5q2.2-5.4 7-10.2l4.9-4.8L151 .1l85.1-.1zM87.2 86.4a27 27 0 0 0-19.2 19l-1.5 5v127.5l2 5.5a28 28 0 0 0 15.6 15.2l4.9 1.9h128l5.2-1.3a30 30 0 0 0 16.6-13.6l2.2-4.1.4-101-1.1 3q-1.2 3-1.2 49.5l-.1 46.5-2.5 5a26 26 0 0 1-14.8 12.5c-2.4.6-26.5 1-67.2 1H91l-8.2-2.5-4.5-5.2c-2.4-3-5-7-5.7-9l-1.2-3.8-1.2-127 1.7-5.1a27 27 0 0 1 12.6-14l3.5-1.9h134l5 2.3c2.7 1.3 6 3.3 7.4 4.5l2.4 2.2-1-2a22 22 0 0 0-10.8-8.7l-5-2.3-128-.4zM92.5 219l-1 2v2.5l1.5 2 2.5.5h116l3-.5 2-2 .5-2-.5-1.5-2-1-2-.5H211L94.5 218zM108 28.3H79l-50-.1-5 1.2A25 25 0 0 0 4.2 48.3L3 53.5v107l1.4 4.8c.8 2.8 3 6.5 5.3 9l3.9 4.2-3-5.5a40 40 0 0 1-4-12.5c-.6-4-1-29.6-1-59.3L5.4 49l2.1-4.2a26 26 0 0 1 16.3-14c2-.6 22.7-1.3 54.1-1.7l29.5.5h18l11 .5 4 1 4 2 3.5 2 2.5 2 2 3 1 2 1.5 3.5 1 4 .5 3 .5 6.5.5 24h2.5l-.5-22-1-8-.5-3.5-1-4-2-5.5-2.5-3.5-4-3.5-4.5-3-7-1.7-5-.3h-9.5zM93 170l-1 2v2.5l1.5 2 2.5.5h116l3-.5 2-2 .5-2-.5-1.5-2-1-2-.5h-1.5L95 169zm8.5-63-2 1-1.5 3-2.5 6-2 7.5-3 14-.5 6.5v5.5l1 2.5 1.5 1h3l2.5-1.5 2-2 3.5-4.5 8.5-11.5 5-6.5 3-3.5 2.5-2h.5l.5.5v14.5l.5 2.5 1 2 2 2 2.5 1 2.5.5 2.5-1 6.5-5 6-4.5 3.5-2 3-1h3l3.5 1 4.5 2.5 4.5 1.5 6 1.5 2.5-.5 3.5-.5 6-2 4-2 6-1h3.5l4 .5 6 2 4 2h2l1.5-.5.5-1 .5-1.5-.5-2-1.5-1.5-5-2.5-6.5-1.5-8-1h-4l-3 .5-4.5 2-3 2-3 1h-3.5l-6.5-1-9-4.5-6-1-3.5.5-4 1-3.5 2-4 3-3.5 3-2.5 2.5-1.5 1-1.5-.5-.5-2.5v-16l-2-2.5-1.5-1.5-2.5-1.5h-2l-2.5 1.5-3.5 3-4.5 6-7 8-3 5-2.5 3L98 141l-.5-.5-.5-1 .5-3 2-9.5 2-6 3-8 .5-2.5-.5-1.5-2-2zm-75 39.5-1.5 1-.5 2v1.5l1.5 1.5 2.5.5H63v-7H27.5zm-1-43-1 2.5.5 2.5 2 1 2 .5h34.5v-2l.5-3.5.5-2H27zm0-44.5-1 2v2.5l1.4 2 2.2.5h105.4l2.7-.5 1.8-2 .5-2-.5-1.5-1.8-1-1.8-.5h-1.3L27.2 58zm208-55c-7-1-77-1-83 0a23 23 0 0 0-14 6.6c-4.4 4-5.7 6-7 10.5-1.2 4.2.4 3.6 2-.7 2-5.7 8.6-11.7 15.1-13.7l5.6-1.8h43.4c25-.1 41-.5 37.9-1m7.4 1q-1.7.2-.6.7t2-.1q.3-.5-1.4-.5" clip-rule="evenodd"/></svg>