<svg xmlns="http://www.w3.org/2000/svg" width="24" height="24" viewBox="0 0 24 24">
  <path
    d="M.115 3.263a1.168 1.384 0 1 1 2.335 0v17.922h20.29a1.169 1.385 0 0 1 0 2.77H.116Zm19.731-1.54-.58-.89a.387.46 0 0 1-.084-.434c.103-.36.451-.317.7-.305.708.06 2.27.192 2.634.209a.387.46 0 0 1 .388.571c-.074.436-.308 2.422-.43 3.213-.043.276-.113.636-.409.661a.387.46 0 0 1-.333-.2l-.58-.89-.239-.358-2.908 2.614v.06a1.754 2.08 0 0 1-3.509 0v-.138l-2.031-1.742a1.752 2.077 0 0 1-2.116-.11L8.374 5.65a1.781 2.112 0 0 1 .067.538 1.743 2.066 0 1 1-1.043-1.903l2.323-1.96a1.754 2.08 0 0 1 3.497.052v.136l2.035 1.744a1.754 2.08 0 0 1 2.043.035l2.662-2.399zM19.83 7.09h2.418a.254.3 0 0 1 .254.298v11.141a.256.303 0 0 1-.254.3H19.83a.254.3 0 0 1-.254-.3V7.388a.254.3 0 0 1 .254-.298m-4.787 3.817h2.419a.254.3 0 0 1 .253.3v7.322a.256.303 0 0 1-.253.3h-2.419a.254.3 0 0 1-.253-.3v-7.322a.254.3 0 0 1 .253-.3M10.254 7.09h2.42a.252.298 0 0 1 .252.298v11.141a.256.303 0 0 1-.252.3h-2.42a.256.303 0 0 1-.254-.3V7.388a.254.3 0 0 1 .254-.298m-4.787 4.432h2.419a.254.3 0 0 1 .253.3v6.707a.256.303 0 0 1-.253.3H5.467a.254.3 0 0 1-.253-.3v-6.707a.254.3 0 0 1 .253-.3" />
</svg>