<svg xmlns="http://www.w3.org/2000/svg" width="24" height="24" viewBox="0 0 512 512"><path d="M270.038 9.872a19.485 19.485 0 0 0-27.424 0L9.872 242.614a19.48 19.48 0 0 0 0 27.423l232.742 232.742a19.48 19.48 0 0 0 27.424 0l232.743-232.742a19.476 19.476 0 0 0 0-27.423zm73.172 257.86-102.536 71.716a13.35 13.35 0 0 1-13.813.913 13.32 13.32 0 0 1-7.182-11.834V185.096a13.325 13.325 0 0 1 10.598-13.056 13.33 13.33 0 0 1 10.397 2.135L343.21 245.89a13.28 13.28 0 0 1 5.737 10.922 13.26 13.26 0 0 1-5.737 10.92" style="stroke-width:1.21345"/></svg>
