<svg xmlns="http://www.w3.org/2000/svg" height="24" widht="32" viewBox="0 0 32 24">
  <path
    d="M16.4478.0019c-4.4926.0597-11.893 2.687-15.2184 10.6624a16.0723 16.0723 0 0 0-.558 1.6044c-.2434.841-.4216 1.706-.5389 2.5825H.1277c-.5392 5.5476.692 8.4337 2.503 9.0196 1.212.392 2.2783-.1353 3.5298-1.2103 1.3758-1.1818 1.9132-2.0755 1.7588-3.3048-.1595-1.271-1.5008-2.1968-2.7156-2.5271-1.7574-.5217-1.0485-1.6727-1.0485-1.6727s1.8923 1.3896 4.9456 1.0398c2.7854-.319 3.3147-.914 3.3147-.914-.0043-2.9369 1.538-4.9847 3.554-5.182-1.4009.6747-2.2086 3.0052-2.2059 4.8964l.0074 5.0073h.6958c2.043.0031 3.7845-2.0969 3.781-4.4703l-.0025-.9823s1.529-.8467 3.6989-1.0952c1.027-.1177 1.8308-.0075 2.5247.2045-.4036-.5022-.664-1.0961-.6861-1.7962-.0096-.3054.4858-.4403.5943 0 .3867 1.7747 1.3786 2.535 3.8632 3.2963.4203.0698.882.088 1.4085.0277 1.077-.1513 2.1521-.7624 2.3242-2.0562.1612-1.2118-.4277-2.039-1.0316-2.8872-.0489-.0686-.0987-.1376-.1474-.2067-.2346-.3336-.4634-.6752-.6402-1.0483-.1573-.3319-.2724-.6876-.389-1.042-.1423-.4326-.286-.865-.5025-1.2571C26.4145 1.5335 21.3451-.0633 16.4478.0019Zm10.7464 8.5657c.012-.0007.0241 0 .0362 0 .3872.0006.7.3459.7007.7713.0006.4254-.3135.7698-.7007.7692-.3871-.0005-.7-.3459-.7006-.7713-.0006-.4121.294-.7491.6644-.7692zm-4.9963 5.6487c-.3784.0032-1.3478.0982-3.0514.7947.2788 2.8101-1.2853 3.9952-1.2853 3.9952 2.1807-.1336 4.6474-2.1679 4.5227-4.7814 0 0-.0599-.0096-.186-.0085z" />
</svg>