<svg version="1.1" id="svg1" width="24" height="24" viewBox="0 0 24 24" xmlns="http://www.w3.org/2000/svg">
   <defs id="defs1" />
   <g id="g1">
      <path style="fill:#000000;stroke-width:0.0437097"
         d="m 5.5008656,23.972509 c -1.133645,-0.06217 -1.883443,-0.235948 -2.633595,-0.610386 -0.44382,-0.221532 -0.822447,-0.489247 -1.193763,-0.844073 -0.91695102,-0.876228 -1.39979402,-1.893951 -1.57947002,-3.329164 -0.06874,-0.549043 -0.107234,-4.527058 -0.0899,-9.2889489 0.01727,-4.74294 0.03212,-5.094352 0.25212,-5.965535 0.484835,-1.919901 1.98068802,-3.34397502 3.92575202,-3.73737402 0.711534,-0.143911 0.790061,-0.147154 4.397541,-0.18165 4.1816634,-0.03999 10.0476044,0.0024 10.6218584,0.07672 1.407382,0.182191 2.418686,0.656314 3.276768,1.53622702 0.88981,0.912449 1.319852,1.937211 1.471729,3.507032 0.04796,0.495725 0.07085,12.1021319 0.02586,13.1132569 -0.06048,1.359361 -0.194901,2.018924 -0.573086,2.812027 -0.475972,0.998175 -1.270774,1.808854 -2.260322,2.305476 -0.755506,0.379164 -1.472775,0.540549 -2.703956,0.60839 -0.638757,0.0352 -12.2920904,0.03339 -12.9375374,-0.002 z m 1.428915,-4.420661 c 0.05547,-0.02865 1.724112,-1.189194 3.7080854,-2.57899 l 3.607223,-2.526903 h 2.156849 c 1.516444,0 2.175748,-0.0096 2.220497,-0.0322 0.09057,-0.04581 2.200532,-2.151751 2.250946,-2.246652 0.05336,-0.10045 0.05336,-0.237568 0,-0.338017 -0.05041,-0.0949 -2.160377,-2.2008389 -2.250946,-2.2466529 -0.04475,-0.02263 -0.703356,-0.03219 -2.217915,-0.03219 H 14.250251 L 10.631914,7.0150671 C 8.6418286,5.6207201 6.9726676,4.4587341 6.9226666,4.4328751 c -0.11851,-0.06129 -0.297063,-0.03782 -0.393358,0.05171 -0.0402,0.03738 -0.617537,0.845535 -1.282965,1.795909 -1.321538,1.88744 -1.305813,1.85986 -1.17719,2.064564 0.03846,0.0612 0.898986,0.67995 2.593821,1.8650329 1.394948,0.975392 2.533492,1.781756 2.530097,1.791919 -0.0034,0.01016 -1.133837,0.807432 -2.512093,1.771709 -1.378255,0.964277 -2.534837,1.785444 -2.570182,1.824814 -0.08895,0.09908 -0.114648,0.258901 -0.06002,0.373291 0.04235,0.08869 2.340135,3.387172 2.436547,3.497677 0.05651,0.06477 0.198174,0.131684 0.282199,0.133297 0.03267,6.3e-4 0.104788,-0.0223 0.160262,-0.05095 z"
         id="path1" />
   </g>
</svg>