<svg xmlns="http://www.w3.org/2000/svg" width="24" height="24" viewBox="0 0 24 24"><path d="M3.745 1.643 C 3.599 1.758,1.461 4.761,0.607 6.052 C 0.207 6.656,0.137 6.814,0.198 6.974 C 0.248 7.107,0.798 7.516,3.140 9.161 C 6.259 11.352,7.376 12.147,7.387 12.184 C 7.399 12.226,7.349 12.262,4.340 14.373 C 0.891 16.792,0.280 17.235,0.238 17.346 C 0.147 17.585,0.187 17.700,0.547 18.230 C 1.001 18.899,2.698 21.335,3.246 22.106 C 3.633 22.650,3.696 22.719,3.855 22.780 C 3.963 22.821,4.069 22.837,4.126 22.819 C 4.251 22.781,4.964 22.289,10.100 18.698 L 14.460 15.649 17.520 15.621 C 20.201 15.597,20.592 15.585,20.678 15.530 C 20.732 15.496,21.455 14.789,22.285 13.959 C 23.890 12.355,23.895 12.350,23.822 12.050 C 23.804 11.976,23.277 11.422,22.228 10.375 L 20.660 8.810 20.284 8.785 C 20.077 8.771,18.691 8.760,17.204 8.759 L 14.500 8.758 10.640 6.053 C 8.517 4.565,6.197 2.946,5.485 2.454 C 4.296 1.633,4.176 1.560,4.020 1.560 C 3.909 1.560,3.814 1.589,3.745 1.643 " stroke="none" fill-rule="evenodd" fill="#000"></path></svg>