<svg width="48" height="48" viewBox="0 0 48 48" xmlns="http://www.w3.org/2000/svg"><path d="M24.087 22.547a10.64 10.64 0 0 0-5.142 3.89c-1.52 2.19-5.544 7.78-5.544 9.97s6.126 8.093 6.126 8.093s-8.54-3.174-9.39-6.125a36.4 36.4 0 0 1-.894-10.82c.268-2.594 2.19-9.881 3.22-11.446S21.404 4.573 24.086 3.5c2.638.85 6.304 5.052 8.54 7.87s6.438 13.457 6.215 15.872s-1.431 12.16-2.191 13.636a29.2 29.2 0 0 0-3.13-6.975c-.537-.938-5.187-8.316-5.187-8.316s-3.13-2.682-4.247-3.04"/><path d="M14.915 32.583c1.245 4.811 6.671 8.951 8.867 8.951c1.756 0 8.687-3.575 9-8.844m-13.398-6.845c.218.65-.44 3.92-1.31 4.579c0 0 6.725-.952 7.49-7.015c-.057 2.851-.975 5.909-2.34 7.015c2.283-.47 5.477-4.255 5.477-4.255"/><path d="M22.52 39.245a6.3 6.3 0 0 1 2.728 0M24 12.617l-3.402 2.352m1.851.486l-2.384 1.82l2.234 2.807l-3.943 2.415"/><path d="m24 15.973l-1.63 1.615L24 19.987m0-7.37l3.402 2.352m-1.851.486l2.384 1.82l-2.234 2.807l3.943 2.415"/><path d="m24 15.973l1.63 1.615L24 19.987M15.58 31.46a5.92 5.92 0 0 0 5.003 1.809m0 0a5.68 5.68 0 0 0-3.768-3.734m14.445.71a5.6 5.6 0 0 0-4.64 2.586a4.36 4.36 0 0 0 5.447-1.293m-2.265.237l-.51.204m-11.665-.519l.588.297m8.292-1.333a14.4 14.4 0 0 1 3.76-1.763m-8.891 2.463a15 15 0 0 0-1.368-1.231m-1.125-.903a63 63 0 0 1-1.227-.697m5.616 7.757a1.4 1.4 0 0 0 1.087 0"/></svg>
