<svg xmlns="http://www.w3.org/2000/svg" width="48" height="48" viewBox="0 0 48 48"><path d="M23.419 0.672 C 21.621 1.755,17.732 5.839,13.508 11.080 C 12.056 12.882,10.905 14.388,10.543 14.960 C 9.523 16.572,7.574 23.299,6.870 27.640 C 6.727 28.518,6.725 33.287,6.866 34.680 C 7.153 37.502,7.758 40.710,8.122 41.330 C 9.186 43.147,13.116 45.582,18.235 47.598 L 18.670 47.769 17.595 46.664 C 14.075 43.045,11.961 40.222,11.692 38.783 C 11.611 38.350,11.695 37.713,11.926 37.009 C 12.099 36.483,13.268 34.079,13.350 34.082 C 13.378 34.083,13.501 34.398,13.624 34.782 C 13.909 35.670,14.476 36.808,15.135 37.813 C 17.335 41.169,21.459 44.330,23.636 44.330 C 24.299 44.330,25.314 43.993,26.549 43.361 C 29.407 41.901,31.789 39.746,33.030 37.498 C 33.431 36.772,33.903 35.382,33.972 34.729 C 34.000 34.460,34.045 34.240,34.073 34.240 C 34.100 34.240,34.480 34.837,34.916 35.567 C 36.319 37.915,37.393 40.213,38.159 42.507 C 38.347 43.070,38.531 43.501,38.569 43.463 C 38.786 43.246,39.378 40.357,39.876 37.080 C 40.589 32.395,41.071 28.213,41.015 27.200 C 40.831 23.845,36.395 12.794,33.935 9.562 C 33.310 8.741,31.692 6.822,30.806 5.851 C 29.085 3.967,27.522 2.512,26.195 1.558 C 25.513 1.068,24.256 0.400,24.017 0.400 C 23.936 0.400,23.667 0.522,23.419 0.672 M24.448 22.608 C 25.240 23.027,26.787 24.151,28.265 25.380 C 28.869 25.882,28.949 25.992,30.565 28.564 C 31.486 30.029,32.228 31.239,32.214 31.253 C 32.200 31.266,31.905 31.317,31.558 31.365 C 29.996 31.583,28.838 32.174,27.706 33.330 L 26.972 34.080 23.334 34.080 L 19.695 34.080 19.436 33.620 C 19.063 32.957,18.538 32.299,18.037 31.866 C 17.589 31.480,17.513 31.360,17.715 31.360 C 17.955 31.360,19.573 30.785,20.292 30.445 C 21.932 29.667,23.410 28.450,24.295 27.148 C 24.544 26.782,24.733 26.468,24.714 26.452 C 24.681 26.424,19.655 26.237,18.980 26.239 C 18.793 26.240,18.640 26.205,18.640 26.161 C 18.640 26.025,19.691 24.962,20.358 24.426 C 20.711 24.141,21.331 23.710,21.735 23.467 C 22.421 23.055,23.769 22.414,23.968 22.404 C 24.017 22.402,24.233 22.493,24.448 22.608 M25.612 23.851 C 25.594 24.161,25.237 25.352,25.002 25.883 C 24.890 26.137,24.810 26.357,24.825 26.371 C 24.840 26.386,24.962 26.420,25.097 26.447 C 25.337 26.495,25.345 26.487,25.426 26.108 C 25.554 25.501,25.697 24.134,25.659 23.875 C 25.625 23.649,25.624 23.648,25.612 23.851 M18.535 27.060 C 18.460 28.313,17.979 30.076,17.481 30.926 L 17.289 31.253 16.574 30.897 C 16.180 30.701,15.813 30.556,15.759 30.574 C 15.704 30.592,16.438 31.359,17.390 32.278 C 18.341 33.198,19.120 33.979,19.120 34.015 C 19.120 34.051,18.805 34.059,18.420 34.031 C 17.831 33.989,17.479 33.895,16.200 33.438 C 15.364 33.139,14.572 32.853,14.440 32.802 L 14.200 32.710 14.480 33.004 C 14.634 33.165,14.994 33.456,15.279 33.649 L 15.798 34.000 14.611 34.000 C 13.237 34.000,13.307 34.098,13.937 33.047 C 14.888 31.459,18.418 26.240,18.541 26.240 C 18.565 26.240,18.562 26.609,18.535 27.060 M25.279 26.820 C 24.849 28.487,24.517 29.380,24.008 30.235 C 23.837 30.524,23.544 30.932,23.359 31.143 L 23.021 31.526 23.570 31.319 C 24.882 30.825,26.887 29.254,28.611 27.368 L 29.313 26.600 28.197 26.550 C 27.582 26.522,26.694 26.495,26.223 26.490 L 25.366 26.480 25.279 26.820 M29.786 29.950 C 28.857 30.325,27.005 31.272,27.071 31.337 C 27.098 31.365,30.785 29.642,30.860 29.567 C 30.939 29.487,30.873 29.511,29.786 29.950 M33.998 34.100 C 34.000 34.172,31.968 34.181,31.896 34.109 C 31.868 34.082,31.979 33.960,32.143 33.839 C 32.306 33.718,32.617 33.436,32.834 33.213 L 33.227 32.807 33.612 33.423 C 33.823 33.763,33.997 34.067,33.998 34.100 " stroke="none" fill-rule="evenodd" fill="black"></path></svg>