<svg xmlns="http://www.w3.org/2000/svg" width="24" height="24" style="fill-rule:evenodd;clip-rule:evenodd;stroke-linejoin:round;stroke-miterlimit:2" viewBox="0 0 24 24"><path d="M551.563 278.359v-.234a902.398 902.398 0 0 1-.704-11.406c-.468-7.813-1.015-16.25-1.484-22.657a76.867 76.867 0 0 0-3.125-12.031c-7.969-17.656-23.516-26.172-39.922-30.234-7.5-1.328-16.64-1.563-26.406-1.797h-94.219c-60.703 3.281-86.172 38.438-93.047 57.109-26.562 79.454-43.125 182.422-55.078 256.719-.234 1.485-.469 2.891-.703 4.297l-3.906 35.313c-.235 5.546.312 11.64 1.797 17.5 7.422 21.562 29.922 39.687 79.453 21.64 46.797-20.312 102.031-45.625 159.14-73.984 32.5-18.75 80.157-61.875 82.657-116.328-.391-40.313-1.719-82.657-4.453-123.907Zm-75.235 29.844c0 4.688-3.828 8.516-8.515 8.516-28.36 0-51.25 22.968-51.25 51.25v31.406c0 52.734-42.735 95.391-95.391 95.391-4.609 0-8.281-3.75-8.281-8.282v-26.015c0-4.688 3.828-8.516 8.515-8.516 28.36 0 51.25-22.969 51.25-51.25v-31.406c0-52.656 42.735-95.391 95.391-95.391 4.609 0 8.281 3.75 8.281 8.282v26.015Z" style="fill-rule:nonzero" transform="translate(-9.882 -10.188) scale(.05547)"/></svg>
