<svg width="24" height="24" fill="none" xmlns="http://www.w3.org/2000/svg">
  <path fill="url(#a)" fill-rule="evenodd"
    d="M14.751 1.541c.69.975 1.357 2.3 1.763 3.506.3.89.524 1.907.609 2.773.082.838.032 2.075-.117 2.888-.105.572-.391 1.575-.45 1.575-.04 0-1.261-.888-2.566-1.866-3.395-2.543-6.238-4.887-8.005-6.6-.27-.262-.463-.431-.43-.377.035.054.329.475.654.935 2.364 3.347 4.473 6.047 5.336 6.834.171.156.174.16.05.088C9.73 10.21 6.36 7.668 2.983 4.804c-.225-.191-.396-.325-.38-.298.071.122 1.597 2.033 2.425 3.035 2.034 2.465 3.625 4.246 5.22 5.844 1.32 1.322 2.033 1.948 2.843 2.496.244.165.315.229.29.26-.053.063-.798.42-1.147.549-.743.275-1.485.458-2.313.569-.535.072-2.085.082-2.608.018-1.613-.199-3.123-.649-4.655-1.388A21.788 21.788 0 0 1 .75 14.83c-.154-.099-.284-.174-.29-.167-.022.02.35.573.683 1.017 1.259 1.675 2.967 3.196 4.725 4.207 2.102 1.208 4.323 1.832 6.776 1.901 1.501.043 2.706-.17 3.928-.692.186-.079.738-.343 1.228-.586.928-.461 1.25-.589 1.677-.665.837-.15 1.738.105 2.528.715.27.208.721.674.925.954.1.137.191.25.204.25.034.003.147-.38.21-.711.073-.394.047-1.275-.05-1.698-.244-1.06-.893-2.341-1.7-3.362l-.194-.244.11-.346c.14-.44.257-1.019.325-1.599.04-.352.049-.645.036-1.307-.018-.883-.05-1.177-.208-1.932-.616-2.931-2.51-5.705-5.562-8.146-.376-.3-1.32-.994-1.466-1.077-.024-.013.028.077.115.2z"
    clip-rule="evenodd" style="fill:url(#a);stroke-width:.116919" />
  <defs>
    <linearGradient id="a" x1="129.86" x2="129.86" y1="42.745" y2="217.677"
      gradientTransform="matrix(.11692 0 0 .11692 -3.26 -3.658)" gradientUnits="userSpaceOnUse">
      <stop stop-color="#FAA729" />
      <stop offset="1" stop-color="#FF2C17" />
    </linearGradient>
  </defs>
</svg>