<svg xmlns="http://www.w3.org/2000/svg" width="24" height="24" viewBox="0 0 24 24"><path d="M10.900 0.164 C 7.812 0.483,5.024 1.924,3.029 4.232 C 1.849 5.598,1.058 7.063,0.563 8.800 C 0.215 10.022,0.252 10.666,0.709 11.312 C 1.480 12.403,3.027 12.473,3.953 11.460 C 4.196 11.194,4.274 11.030,4.475 10.356 C 4.948 8.777,5.281 8.098,6.055 7.136 C 6.406 6.700,7.064 6.079,7.523 5.751 C 7.948 5.447,9.019 4.898,9.496 4.741 C 10.038 4.561,10.555 4.446,11.291 4.341 C 11.682 4.286,12.020 4.240,12.041 4.240 C 12.115 4.240,12.079 4.163,11.889 3.912 C 11.558 3.474,11.399 2.960,11.401 2.326 C 11.402 1.655,11.606 1.190,12.185 0.544 L 12.564 0.120 11.892 0.125 C 11.522 0.128,11.076 0.146,10.900 0.164 M13.333 0.392 C 12.955 0.527,12.693 0.672,12.477 0.867 C 12.165 1.150,11.887 1.681,11.800 2.163 C 11.711 2.650,11.969 3.353,12.410 3.824 C 12.707 4.142,12.874 4.242,13.340 4.380 C 14.755 4.801,15.076 4.922,15.691 5.266 C 17.044 6.025,18.186 7.251,18.880 8.689 C 19.294 9.546,19.507 10.333,19.600 11.354 C 19.625 11.625,19.662 11.892,19.682 11.945 C 19.725 12.059,19.768 12.045,20.086 11.814 C 20.319 11.645,20.630 11.502,20.938 11.422 C 21.246 11.342,21.885 11.342,22.236 11.422 C 22.724 11.533,23.401 12.002,23.625 12.385 C 23.765 12.624,23.824 12.611,23.855 12.330 C 23.888 12.033,23.816 10.743,23.737 10.200 C 23.408 7.947,22.455 5.932,20.866 4.128 C 19.484 2.558,17.984 1.533,15.995 0.799 C 15.383 0.574,14.373 0.322,13.980 0.296 C 13.697 0.278,13.622 0.289,13.333 0.392 M0.161 12.207 C 0.162 14.004,0.548 15.623,1.361 17.243 C 1.962 18.440,2.640 19.367,3.657 20.381 C 4.778 21.499,5.828 22.238,7.132 22.826 C 8.021 23.226,9.719 23.721,10.200 23.719 C 10.703 23.718,11.232 23.452,11.673 22.981 C 12.460 22.140,12.423 20.989,11.580 20.137 C 11.263 19.817,11.100 19.728,10.560 19.580 C 9.321 19.240,8.555 18.930,7.888 18.496 C 6.689 17.716,5.812 16.753,5.182 15.521 C 4.672 14.523,4.405 13.535,4.336 12.389 C 4.321 12.131,4.293 11.920,4.275 11.920 C 4.256 11.920,4.137 11.998,4.010 12.094 C 3.445 12.520,3.155 12.616,2.420 12.618 C 1.555 12.620,1.181 12.472,0.544 11.874 L 0.160 11.513 0.161 12.207 M21.260 11.839 C 20.747 11.898,20.343 12.119,19.952 12.555 C 19.739 12.792,19.657 12.987,19.454 13.738 C 19.211 14.632,18.783 15.587,18.287 16.340 C 17.054 18.210,14.766 19.520,12.412 19.703 C 12.219 19.718,12.038 19.742,12.011 19.756 C 11.977 19.774,12.011 19.854,12.126 20.021 C 12.556 20.648,12.684 21.152,12.605 21.902 C 12.529 22.623,12.366 22.947,11.770 23.566 C 11.582 23.761,11.454 23.920,11.484 23.919 C 11.739 23.917,13.017 23.832,13.320 23.797 C 16.211 23.468,18.818 22.122,20.828 19.920 C 22.026 18.609,22.774 17.305,23.352 15.520 C 23.780 14.201,23.784 13.460,23.368 12.817 C 23.002 12.253,22.483 11.904,21.911 11.839 C 21.729 11.818,21.562 11.803,21.540 11.806 C 21.518 11.809,21.392 11.823,21.260 11.839 " fill="#5d7dbe" stroke="none" fill-rule="evenodd"></path></svg>