<svg viewBox="0 0 24 24" width="24" height="24" xmlns="http://www.w3.org/2000/svg">
  <g transform="translate(12 12) scale(1.4) translate(-12 -12)">
    <g transform="translate(0 24) scale(0.0046875000 -0.0046875000)" stroke="none">
    <path
      d="M2415 4073 c-357 -42 -655 -179 -898 -412 -215 -207 -354 -443 -427 -730 -26 -101 -25 -173 1 -231 78 -172 297 -213 431 -79 38 38 51 60 68 120 63 220 97 294 190 417 162 216 407 351 689 383 53 6 98 13 100 15 3 2 -5 14 -16 27 -42 45 -66 109 -71 187 -6 102 21 173 94 249 30 30 54 56 54 58 0 4 -177 1 -215 -4z"
      fill="#5D7DBE" />
    <path
      d="M2735 4046 c-65 -21 -101 -43 -139 -88 -36 -42 -66 -118 -66 -168 0 -56 31 -132 73 -177 51 -56 69 -65 189 -96 53 -15 126 -39 162 -56 322 -146 550 -469 573 -813 3 -49 10 -88 15 -88 5 0 25 12 43 26 79 60 191 79 293 49 57 -17 140 -78 161 -118 28 -53 34 -30 28 121 -11 284 -90 525 -253 769 -81 121 -222 274 -335 361 -168 131 -392 234 -597 277 -86 18 -94 18 -147 1z"
      fill="#156260" />
    <path
      d="M1050 2521 c0 -572 384 -1129 935 -1356 89 -37 296 -95 339 -95 98 0 210 81 247 179 37 99 17 194 -60 274 -46 50 -67 60 -174 87 -155 38 -274 96 -394 192 -207 164 -343 426 -360 690 l-6 88 -31 -24 c-76 -57 -116 -71 -211 -71 -108 0 -163 22 -237 97 l-48 47 0 -108z"
      fill="#98C53C" />
    <path
      d="M3687 2576 c-39 -14 -55 -24 -100 -65 -40 -36 -54 -67 -82 -179 -32 -129 -116 -294 -198 -392 -171 -204 -419 -332 -689 -356 l-68 -6 31 -44 c47 -68 62 -123 57 -212 -4 -96 -31 -154 -102 -224 l-51 -51 130 6 c391 17 738 170 1015 447 116 116 196 222 264 350 93 176 163 401 153 497 -10 101 -84 194 -180 230 -43 16 -134 15 -180 -1z"
      fill="#3C97BA" />
    </g>
  </g>
</svg>
