<svg xmlns="http://www.w3.org/2000/svg" width="24" height="24" viewBox="0 0 24 24"><path fill="#fbfbfb" fill-rule="evenodd" d="M11.8.16a.45.45 0 0 1-.192.039c-.073.001-.289.075-.48.166a2.23 2.23 0 0 0-1.164 1.358c-.055.18-.058 1.103-.004 1.137.022.014.04.061.04.105 0 .165.251.599.47.813l.22.215-.661 1.313a60 60 0 0 0-.753 1.534c-.135.322-.177.36-.399.36-.263 0-.317.028-.317.164 0 .104.013.116.13.117.178 0 .245.049.211.155-.054.169-.662 1.04-.942 1.349-.543.599-1.017.997-2.247 1.887-.427.31-.908.684-1.069.833-.455.422-1.363 1.523-1.363 1.654 0 .019-.016.04-.034.048-.019.007-.156.256-.305.553l-.301.6c-.123.229-.169.538-.19 1.273-.023.843.004 1.062.18 1.447.055.121.152.343.215.494.233.561.742 1.141 1.673 1.909.571.471.848.658 1.017.685.09.015.189-.115.121-.159a.5.5 0 0 1-.107-.15c-.063-.124-.606-.664-.985-.979-.266-.222-.68-.729-.862-1.055a4 4 0 0 1-.424-1.207c-.069-.437-.074-1.517-.008-1.584a.22.22 0 0 0 .05-.14c0-.05.02-.141.045-.202s.058-.148.074-.192c.122-.333.444-.905.656-1.168.526-.651 1.411-1.368 2.525-2.046l.358-.218c.301-.184.417-.252.522-.31.913-.5 1.407-.838 1.888-1.292.182-.173.332-.329.332-.348s.068-.137.151-.265c.084-.128.181-.296.217-.373.421-.899.524-1.087.618-1.122.055-.021.685-.038 1.407-.038h1.308l.099.25c.054.137.195.42.315.628.119.208.272.496.339.64.215.462.988 1.108 2.046 1.709 1.099.625 1.983 1.187 2.396 1.522.13.105.292.224.36.265.383.226 1.363 1.441 1.54 1.908l.083.218c.018.044.053.161.079.26s.068.243.093.32c.069.215.049 1.245-.031 1.58-.037.154-.077.33-.088.39-.012.061-.037.121-.057.133-.019.012-.035.052-.036.089 0 .075-.249.579-.421.852-.109.173-.471.546-1.225 1.26-.397.375-.527.558-.505.709.009.066.044.09.146.1q.133.012.108-.03c-.015-.024-.006-.043.018-.043.118 0 1.28-1.001 1.826-1.573.349-.366.433-.482.606-.836.421-.864.508-1.212.508-2.031 0-.362-.02-.648-.053-.76l-.092-.32c-.05-.173-.063-.205-.291-.693-.486-1.039-1.572-2.335-2.47-2.948a40 40 0 0 1-1.487-1.091c-.328-.257-1.4-1.336-1.632-1.643-.264-.348-.435-.658-.435-.786 0-.068.021-.082.11-.072.092.011.113.037.133.163a.7.7 0 0 0 .043.169c.01.011.146.031.301.045.342.032.653-.007.653-.082 0-.078.094-.102.403-.102h.277v.4h.562l-.027-.264c-.021-.205-.014-.272.029-.299.031-.02.556-.036 1.167-.036l1.11-.001.077.13c.128.218.195.262.42.276.301.02.311.015.474-.233.172-.26.182-.362.058-.582-.213-.379-.744-.409-.954-.053l-.084.142-1.026-.005c-.564-.002-1.08-.016-1.146-.03-.118-.026-.12-.031-.124-.286l-.005-.259-.265-.012-.266-.012V7h-.34c-.336 0-.34-.001-.34-.1v-.1l-.47.001c-.258 0-.494.015-.522.033q-.051.035-.026.14.058.227-.237.225a.6.6 0 0 1-.213-.03c-.026-.017-.104-.174-.174-.35-.154-.389-.722-1.554-.766-1.572-.018-.008-.032-.033-.032-.057 0-.08-.331-.769-.446-.928a.7.7 0 0 1-.114-.201c0-.024.108-.15.24-.281s.24-.261.24-.289.014-.051.03-.051c.017 0 .051-.049.075-.11l.138-.33c.078-.185.093-.29.094-.66.001-.509-.075-.784-.319-1.166-.171-.267-.552-.644-.745-.738C12.628.181 11.974.048 11.8.16m.7.414c.646.173 1.153.685 1.298 1.311.059.256.051.625-.02.897-.096.368-.392.858-.52.858-.026 0-.135-.165-.243-.367s-.213-.366-.235-.366-.107.138-.189.307c-.138.285-.228.367-.291.266-.037-.06-.323-.048-.486.02a.8.8 0 0 1-.192.06c-.026 0-.107-.134-.179-.298s-.152-.316-.178-.338c-.034-.028-.1.066-.238.337-.117.229-.21.367-.24.356-.074-.028-.312-.408-.415-.661-.259-.641-.1-1.379.408-1.895.213-.215.589-.436.845-.497.234-.054.65-.05.875.01m.14 5.494.541 1.087-.29.027c-.404.038-1.92.005-1.968-.043-.025-.025.13-.376.439-.999.63-1.265.586-1.188.668-1.173.047.01.247.37.61 1.101m.343 8.758a.26.26 0 0 0 .004.13c.021.079.007.084-.262.084h-.285v-.24h-.92v.24h-.48v-.24h-.456c-.454 0-.455 0-.481.101-.054.217-.352.215-.407-.002-.025-.098-.028-.099-.5-.099H8.72v.24h-.438c-.265 0-.448.017-.464.042a1 1 0 0 0-.037.25c-.107 1.907-.239 3.622-.305 3.928-.023.11-.036.317-.029.46l.013.26.41-.015.41-.014v2.529h.12c.102 0 .12.015.12.101 0 .185.161 1.106.208 1.193.045.082.049.08.082-.054.019-.077.05-.221.069-.32s.051-.225.072-.28.051-.204.067-.33c.025-.212.081-.322.179-.356.022-.008.05-.526.067-1.244l.028-1.23h.542l.048.145c.034.104.043.457.031 1.242l-.017 1.096.093.023c.051.013.099.06.108.108.041.222.115.633.159.896.027.159.062.301.076.316.05.049.138-.242.233-.761.079-.441.105-.521.18-.554.05-.023.097-.091.111-.161.013-.066.024-.622.024-1.235V19.96h.34c.244 0 .341.014.342.05l.022 1.208c.02 1.148.034 1.262.16 1.262.065 0 .071.026.178.72.046.297.093.573.104.614.031.107.104.021.12-.142.012-.123.047-.29.135-.632a3 3 0 0 0 .06-.332c.019-.152.045-.202.122-.237l.097-.044v-1.131c0-.638.017-1.176.039-1.233.037-.097.055-.103.319-.103.272 0 .281.003.311.11.039.138.041 2.066.003 2.237-.027.118-.02.129.09.153.139.031.132.011.25.78.067.441.103.582.15.591.045.009.064-.028.071-.136a.7.7 0 0 1 .031-.182c.012-.018.039-.128.06-.243.022-.116.058-.291.08-.39l.062-.287c.014-.068.056-.115.116-.13.137-.034.154-.237.125-1.453l-.026-1.05h.599v2.515l.11.012c.097.012.113.034.135.193.013.099.063.393.11.654s.085.481.085.49.014.016.032.016c.017 0 .055-.113.084-.25s.078-.327.109-.421c.03-.095.055-.242.055-.329 0-.22.072-.36.186-.36h.093l.01-1.25.011-1.25.435-.011.436-.012-.033-.228a6 6 0 0 1-.038-.591c-.003-.2-.018-.382-.033-.406-.014-.024-.045-.293-.068-.598l-.103-1.354a72 72 0 0 1-.08-1.18c-.032-.617.027-.56-.577-.56h-.519v-.243l-.47.012-.47.011-.013.112c-.012.107-.021.112-.2.1-.17-.011-.188-.022-.199-.12l-.013-.107-.457-.013c-.319-.008-.463.002-.475.034"/></svg>