<svg xmlns="http://www.w3.org/2000/svg" xml:space="preserve" style="fill-rule:evenodd;clip-rule:evenodd;stroke-linejoin:round;stroke-miterlimit:2" viewBox="0 0 6 6"><path d="M2.231.074H1.114s-1.126.07-1.012 1.3C.087 2.407.095 4.392.095 4.392S-.03 5.655 1.208 5.684c1.247.026 3.377-.009 3.377-.009l-3.377.009 3.377-.009s1.177.084 1.11-1.3c-.001-1.398-.006-3.236-.006-3.236S5.712.111 4.643.092C3.577.085 1.114.074 1.114.074l.605.001"/><path d="M1326.82 2046.48s-225.1-178.3-80.71-431.42c144.39-253.14 528.05-215.15 526.81-212.44-.64 3.02 221.9-2.47 386.3 216.6 138.45 245.2-72.23 424.93-75.91 428.18-3.68 3.26-186.97 175.63-505.78 118.79-100.12 37.96-240.14 94.24-240.14 94.24s-40.77 28.96-34.79-14.9c5.98-43.87 24.22-199.05 24.22-199.05Z" style="fill:#fff" transform="matrix(.00388 0 0 .00388 -3.718 -4.259)"/></svg>