<svg xmlns="http://www.w3.org/2000/svg" xml:space="preserve" viewBox="0 0 1024 1024"><path d="M168.960 57.098 L 82.773 107.081 82.773 209.048 L 82.773 311.014 256.362 411.080 C 351.835 466.117,429.979 511.601,430.015 512.156 C 430.051 512.711,351.744 558.393,256.000 613.672 L 81.920 714.179 81.950 815.756 L 81.979 917.333 169.071 967.478 C 238.195 1007.277,256.829 1017.312,259.392 1016.118 C 261.168 1015.290,418.944 924.373,610.005 814.080 L 957.389 613.547 956.988 512.201 L 956.587 410.856 606.720 208.848 C 414.293 97.743,256.469 6.902,256.000 6.978 C 255.531 7.054,216.363 29.608,168.960 57.098 " stroke="none" fill-rule="evenodd" fill="black"></path></svg>