<svg fill="none" xmlns="http://www.w3.org/2000/svg" viewBox="0 0 24 24">
  <path fill-rule="evenodd" clip-rule="evenodd" d="M10.463 3.222c-.644.099-1.061.36-.927.581.134.221-.155.401-.64.401-.942 0-.989.08-1.7 2.905-.423 1.685-.606 1.867-2.334 2.31-1.03.264-2.05.7-2.264.97-.214.27-.669 1.75-1.011 3.29C1.23 15.287.76 16.434.483 16.372c-.83-.185-.525.7.418 1.214.696.38.977.363 1.241-.072.226-.372.511.124.842 1.463.44 1.774.64 2.024 1.614 2.02 2.042-.011 2.886-.48 3.597-2 .844-1.802 1.46-1.702 2.592.418.738 1.382 1.045 1.585 2.402 1.586 2.041.002 2.707-.756 3.062-3.488.162-1.24.565-2.915.896-3.721l.602-1.468 2.318.295 2.317.295.948-1.986c.734-1.538.834-2.101.443-2.5-.39-.397-.78-.305-1.724.405l-1.22.918-.782-1.769c-.57-1.284-1.471-2.221-3.29-3.419-2.473-1.627-3.297-1.802-6.296-1.34Z" fill="#000"/>
</svg>
