<svg xmlns="http://www.w3.org/2000/svg" viewBox="0 0 24 24"><path d="M10.916 0.652 C 8.602 1.982,8.679 1.928,8.600 2.290 C 8.569 2.434,8.558 3.006,8.567 4.120 C 8.580 5.705,8.582 5.744,8.669 5.906 C 8.718 5.998,8.802 6.107,8.856 6.149 C 8.909 6.192,9.639 6.621,10.476 7.103 C 11.313 7.585,11.999 7.992,11.999 8.006 C 12.000 8.020,11.320 8.423,10.490 8.902 C 9.660 9.381,8.922 9.827,8.852 9.893 C 8.585 10.141,8.600 9.790,8.600 15.977 C 8.600 19.763,8.614 21.629,8.642 21.731 C 8.665 21.814,8.737 21.943,8.802 22.017 C 8.929 22.161,11.527 23.690,11.813 23.789 C 12.136 23.900,12.231 23.860,13.782 22.961 C 15.002 22.254,15.238 22.103,15.340 21.961 L 15.460 21.793 15.493 15.927 C 15.512 12.700,15.532 10.055,15.539 10.048 C 15.545 10.041,16.241 10.437,17.085 10.928 L 18.620 11.820 18.920 11.820 L 19.220 11.820 20.620 11.007 C 21.390 10.559,22.063 10.154,22.115 10.107 C 22.168 10.059,22.244 9.948,22.284 9.860 C 22.353 9.712,22.358 9.567,22.359 7.983 C 22.360 6.313,22.358 6.260,22.275 6.090 C 22.217 5.970,22.125 5.872,21.985 5.780 C 21.778 5.645,12.610 0.347,12.372 0.226 C 12.296 0.187,12.148 0.160,12.008 0.160 C 11.779 0.160,11.746 0.175,10.916 0.652 M4.940 4.155 C 4.781 4.196,2.053 5.777,1.905 5.913 C 1.681 6.121,1.680 6.129,1.680 8.000 C 1.680 9.893,1.678 9.875,1.925 10.105 C 1.999 10.174,2.691 10.593,3.463 11.035 C 5.011 11.923,5.085 11.952,5.406 11.810 C 5.636 11.709,8.236 10.213,8.334 10.126 C 8.375 10.090,8.447 9.988,8.494 9.900 C 8.577 9.745,8.580 9.689,8.592 8.090 C 8.599 7.037,8.588 6.385,8.562 6.287 C 8.480 5.983,8.375 5.890,7.620 5.452 C 5.249 4.077,5.249 4.076,4.940 4.155 " stroke="none" fill-rule="evenodd" fill="black"></path></svg>