<svg xmlns="http://www.w3.org/2000/svg" xml:space="preserve" width="24" height="24" viewBox="0 0 24 24"><path d="M11.963 0A11.963 11.963 0 0 0 0 11.963a11.963 11.963 0 0 0 11.963 11.963 11.963 11.963 0 0 0 11.963-11.963A11.963 11.963 0 0 0 11.963 0m5.823 4.379c.958 0 1.729.78 1.729 1.738a1.733 1.733 0 0 1-2.304 1.636l-3.879 5.481a1.734 1.734 0 0 1-.068 2.3c.288.308.466.72.47 1.172l2.486.36c.28-.584.874-.986 1.566-.986a1.728 1.728 0 1 1 0 3.458c-.949 0-1.72-.761-1.734-1.705l-2.49-.36a1.733 1.733 0 1 1-3.042-1.659l-.092-.103-2.624 1.626a1.733 1.733 0 1 1-.388-.692l2.481-1.536-2.948-3.337a1.733 1.733 0 1 1 .916-1.528c0 .378-.117.724-.323 1.009l2.725 3.085a1.741 1.741 0 0 1 2.435-1.58l3.845-5.435a1.733 1.733 0 0 1 1.238-2.944" style="fill:#292b2f;stroke-width:.0467311"/></svg>