<svg xmlns="http://www.w3.org/2000/svg" width="24" height="24" viewBox="0 0 24 24"><path fill-rule="evenodd" d="M11.2.406c-.866.08-2.052.331-2.902.615-1.192.399-2.385 1.084-3.418 1.962-.535.454-1.227 1.179-1.318 1.379-.101.223-.101.264-.002.448.044.083.08.183.08.224s-.166.325-.37.63Q2.12 7.392 1.726 9.311c-.091.443-.149.539-.405.669-.32.162-.687.535-.856.869-.229.455-.259.684-.268 2.091-.007 1.051.001 1.276.057 1.473.113.398.271.673.546.951.4.406.807.579 1.463.623.425.028.609-.018.753-.19a.66.66 0 0 0 .123-.287c.013-.094.04-1.34.06-2.77.038-2.706.043-2.785.234-3.58.505-2.108 1.882-4.041 3.756-5.271a12 12 0 0 1 1.761-.904c.455-.178 1.284-.397 1.87-.492.603-.098 2.027-.098 2.6.001 1.28.22 2.376.66 3.493 1.401 1.982 1.315 3.236 3.12 3.741 5.385.222.992.236 1.195.262 3.867.024 2.447.025 2.489.108 2.6.138.185.307.259.646.282.971.066 1.878-.602 2.157-1.589.064-.229.073-.418.072-1.58-.002-1.115-.013-1.359-.07-1.572-.156-.577-.411-.925-.931-1.271-.403-.267-.48-.357-.516-.599-.072-.476-.393-1.504-.681-2.178-.295-.689-.998-1.898-1.222-2.101-.101-.091-.1-.108.027-.367.161-.329.11-.45-.4-.945C17.45 1.249 14.472.104 11.2.406m-5.469 11.14c-.25.089-.548.377-.689.667-.2.41-.257.754-.256 1.547.001.653.009.732.125 1.17.225.857.725 1.724 1.195 2.075.55.412.911.501 2.16.536 1.276.035 1.839-.011 2.2-.184.439-.209.732-.569.847-1.042.036-.148.033-.23-.015-.417-.129-.493-.455-.94-1.296-1.778-1.195-1.189-2.641-2.281-3.401-2.568-.223-.085-.64-.087-.87-.006m11.378 2.531c-.466.102-.709.183-1.614.537-.877.344-1.312.554-1.733.838-.624.421-.817.678-.82 1.088q-.006.627.796 1.005c.364.172.609.231 1.462.357 1.332.195 1.809.174 2.4-.105.359-.17.806-.63 1.027-1.057.264-.51.35-.844.352-1.36.001-.391-.01-.464-.102-.66-.286-.608-.901-.832-1.768-.643m3.502 3.041a.65.65 0 0 0-.133.23c-.098.3-.369.878-.578 1.234-1.003 1.705-2.548 2.925-4.53 3.577-.927.305-1.766.459-3.05.56-1.216.095-1.98.257-1.98.421s.628.323 1.68.425c.629.062 2.496.061 3.18-.001q2.371-.213 3.64-.867c.316-.163 1.055-.712 1.415-1.051.485-.456.908-1.165 1.064-1.779.105-.414.175-1.141.141-1.459-.037-.344-.163-.785-.291-1.022-.18-.33-.385-.429-.558-.268"/></svg>
