<svg width="24" height="24" viewBox="0 0 24 24" fill="none" xmlns="http://www.w3.org/2000/svg">
<path fill-rule="nonzero" clip-rule="nonzero" d="M5.5 0C4.04131 0 2.64236 0.579463 1.61091 1.61091C0.579463 2.64236 0 4.04131 0 5.5L0 18.5C0 19.9587 0.579463 21.3576 1.61091 22.3891C2.64236 23.4205 4.04131 24 5.5 24H18.5C19.9587 24 21.3576 23.4205 22.3891 22.3891C23.4205 21.3576 24 19.9587 24 18.5V5.5C24 4.04131 23.4205 2.64236 22.3891 1.61091C21.3576 0.579463 19.9587 0 18.5 0L5.5 0ZM5.05 7.38H1.72V4.86H11.08V7.38H7.75V18H5.05V7.38ZM14.781 17.712C14.097 17.4 13.569 16.962 13.197 16.398C12.825 15.834 12.639 15.168 12.639 14.4H15.339C15.339 14.844 15.507 15.198 15.843 15.462C16.191 15.714 16.659 15.84 17.247 15.84C17.811 15.84 18.249 15.714 18.561 15.462C18.885 15.21 19.047 14.862 19.047 14.418C19.047 14.034 18.927 13.704 18.687 13.428C18.447 13.152 18.111 12.966 17.679 12.87L16.347 12.564C15.231 12.3 14.361 11.814 13.737 11.106C13.125 10.386 12.819 9.51 12.819 8.478C12.819 7.71 12.993 7.044 13.341 6.48C13.706 5.8995 14.2311 5.43693 14.853 5.148C15.501 4.836 16.269 4.68 17.157 4.68C18.501 4.68 19.563 5.016 20.343 5.688C21.135 6.348 21.531 7.242 21.531 8.37H18.831C18.831 7.95 18.681 7.62 18.381 7.38C18.093 7.14 17.673 7.02 17.121 7.02C16.605 7.02 16.209 7.14 15.933 7.38C15.657 7.608 15.519 7.938 15.519 8.37C15.5102 8.7274 15.6246 9.07695 15.843 9.36C16.071 9.624 16.389 9.804 16.797 9.9L18.201 10.224C19.365 10.488 20.247 10.968 20.847 11.664C21.447 12.348 21.747 13.224 21.747 14.292C21.747 15.06 21.555 15.738 21.171 16.326C20.799 16.914 20.271 17.37 19.587 17.694C18.915 18.018 18.117 18.18 17.193 18.18C16.269 18.18 15.465 18.024 14.781 17.712Z" fill="black"/>
</svg>
