<svg viewBox="0 0 24 24" style="fill-rule:evenodd;clip-rule:evenodd;stroke-linejoin:round;stroke-miterlimit:2;"
    xmlns="http://www.w3.org/2000/svg">
    <path
        d="M3.232,7.354c0.213,-2.396 1.786,-4.486 4.058,-5.307c2.182,-0.799 4.629,-0.274 6.335,1.278c1.001,-0.383 3.056,-0.896 5.141,0.172c1.989,1.012 3.263,3.096 3.326,5.371c1.735,1.756 2.329,4.361 1.488,6.66c-0.908,2.482 -3.311,4.145 -5.991,4.147c-0.698,0.854 -2.61,2.759 -5.588,2.643c-2.94,-0.113 -4.705,-2.098 -5.371,-3.043c-2.908,0.08 -5.551,-1.816 -6.352,-4.647l-0.002,-0.006c-0.774,-2.809 0.452,-5.803 2.956,-7.268Zm1.329,1.29c-2.019,1.085 -3.123,3.39 -2.51,5.55c0.634,2.178 2.564,3.356 4.874,3.239c0.194,-0.011 0.754,0.261 0.861,0.418c0.46,0.668 1.925,2.582 4.358,2.673c2.446,0.092 3.709,-1.618 4.195,-2.221c0.108,-0.132 0.639,-0.401 0.813,-0.401c2.135,0.038 3.996,-1.074 4.712,-2.976c0.663,-1.758 0.077,-3.79 -1.315,-5.116c-0.108,-0.092 -0.187,-0.665 -0.187,-0.81c-0.013,-1.745 -0.949,-3.163 -2.517,-3.937c-1.716,-0.853 -3.425,-0.176 -4.141,0.113c-0.209,0.083 -0.924,-0.194 -1.084,-0.348c-1.324,-1.233 -2.913,-1.718 -4.643,-1.101c-1.798,0.63 -2.818,2.201 -2.94,4.051c-0.014,0.181 -0.313,0.776 -0.476,0.866Zm4.361,4.248c-0.463,0.171 -0.978,-0.067 -1.149,-0.531c-0.171,-0.463 0.067,-0.978 0.531,-1.149l0.472,-0.174l-0.522,-0.229c-0.453,-0.199 -0.659,-0.727 -0.461,-1.179c0.199,-0.453 0.727,-0.659 1.179,-0.461l2.556,1.121c0.335,0.147 0.547,0.482 0.536,0.847c-0.011,0.365 -0.243,0.687 -0.586,0.813l-2.556,0.942Zm3.04,1.585c-0.423,-0.256 -0.558,-0.807 -0.303,-1.229c0.256,-0.423 0.807,-0.558 1.229,-0.303c0.477,0.289 1.078,0.289 1.555,0c0.422,-0.255 0.973,-0.12 1.229,0.303c0.255,0.422 0.12,0.973 -0.303,1.229c-1.046,0.632 -2.361,0.632 -3.407,-0Z" />
</svg>