<svg xmlns="http://www.w3.org/2000/svg" width="24" height="24" viewBox="0 0 24 24"><path d="M6.04.156A5.89 5.89 0 0 0 .157 6.04v11.77a5.893 5.893 0 0 0 5.885 5.885h11.77a5.893 5.893 0 0 0 5.885-5.885V6.041A5.89 5.89 0 0 0 17.811.156zm0 2.14h11.771a3.75 3.75 0 0 1 3.745 3.745v11.77a3.75 3.75 0 0 1-3.745 3.745H6.041a3.75 3.75 0 0 1-3.745-3.745V6.041A3.75 3.75 0 0 1 6.04 2.296m5.815 1.07a8.57 8.57 0 0 0-8.41 6.949.505.505 0 1 0 .99.19 7.55 7.55 0 0 1 6.346-6.048l-.117 1.036a6.55 6.55 0 0 0-5.332 5.89.504.504 0 0 0 1.001.119l.003-.036a5.54 5.54 0 0 1 4.213-4.917l-.207 1.868.435 2.606c.011.069.072.108.096.172-.135-.005-.267-.05-.4-.003l-.02.007-3.938 1.818-1.912 1.515a1.09 1.09 0 0 0-.366 1.29q.015.046.038.087l.008.017q.006.012.01.023l.011.015.059.108q.037.07.077.138.16.275.334.533a8.56 8.56 0 0 0 7.079 3.745c1.134 0 2.22-.221 3.212-.622a.505.505 0 0 0-.378-.935 7.5 7.5 0 0 1-2.832.55 7.54 7.54 0 0 1-6.098-3.101l.986-.38a6.53 6.53 0 0 0 5.112 2.472c1.334 0 2.58-.4 3.616-1.087a.504.504 0 0 0-.554-.84h-.002a5.5 5.5 0 0 1-3.058.92 5.52 5.52 0 0 1-4.127-1.848l1.866-.72 1.94-1.849-.053.044c.197-.142.308-.354.374-.575.068.22.177.432.374.575l3.363 2.427 2.504.913c.437.16.925.016 1.212-.335a.6.6 0 0 0 .088-.117l.016-.033.006-.008a8.5 8.5 0 0 0 .997-4.013 8.55 8.55 0 0 0-2.673-6.215.503.503 0 1 0-.694.731 7.53 7.53 0 0 1 2.36 5.484c0 .884-.153 1.728-.43 2.514l-.86-.62c.182-.6.285-1.236.285-1.894a6.55 6.55 0 0 0-3.273-5.67.504.504 0 1 0-.502.871 5.53 5.53 0 0 1 2.62 6.063l-1.504-1.084-2.503-.914c-.147-.053-.295-.008-.443.002.032-.083.111-.138.12-.23v-.002l.454-4.085-.434-2.608a1.085 1.085 0 0 0-.991-.897 1 1 0 0 0-.094-.006" style="stroke-width:1.07004"/></svg>