<svg xmlns="http://www.w3.org/2000/svg" width="24" height="24" viewBox="0 0 24 24"><path d="M10.960 0.323 C 8.820 0.461,6.440 1.392,4.677 2.780 C 3.948 3.354,3.095 4.217,2.547 4.936 C 1.573 6.215,0.736 8.073,0.418 9.663 L 0.346 10.025 0.438 10.215 C 0.614 10.579,1.020 10.727,1.360 10.553 C 1.600 10.429,1.680 10.270,1.861 9.560 C 2.064 8.764,2.316 8.096,2.698 7.340 C 3.248 6.250,3.854 5.425,4.725 4.579 C 5.753 3.581,7.013 2.794,8.411 2.275 C 8.810 2.127,9.874 1.851,10.185 1.814 L 10.410 1.788 10.381 2.124 C 10.364 2.309,10.331 2.622,10.306 2.820 L 10.260 3.180 9.752 3.309 C 6.517 4.128,4.049 6.591,3.217 9.829 C 3.036 10.533,2.944 11.232,3.003 11.455 C 3.093 11.795,3.480 12.047,3.784 11.964 C 4.018 11.900,4.179 11.785,4.252 11.631 C 4.289 11.554,4.354 11.274,4.397 11.008 C 4.555 10.037,4.716 9.503,5.083 8.729 C 5.935 6.931,7.443 5.572,9.366 4.871 C 10.045 4.623,10.080 4.616,10.081 4.729 C 10.081 4.779,10.024 5.363,9.953 6.026 L 9.825 7.231 10.035 8.466 C 10.306 10.049,10.433 10.705,10.501 10.868 L 10.555 10.998 10.320 10.974 L 10.086 10.949 7.334 12.222 L 4.582 13.494 3.461 14.382 C 1.995 15.543,1.727 15.778,1.572 16.037 C 1.414 16.299,1.343 16.624,1.377 16.918 C 1.427 17.354,2.033 18.408,2.746 19.300 C 3.998 20.864,5.678 22.114,7.526 22.855 C 10.128 23.899,12.849 23.986,15.560 23.111 C 16.364 22.852,16.545 22.733,16.646 22.397 C 16.743 22.072,16.524 21.687,16.192 21.598 C 15.983 21.542,15.861 21.565,15.218 21.779 C 14.682 21.957,14.084 22.103,13.380 22.228 C 12.753 22.339,10.966 22.325,10.267 22.204 C 8.079 21.823,6.138 20.823,4.598 19.283 C 4.106 18.791,3.588 18.175,3.610 18.109 C 3.618 18.087,3.910 17.955,4.260 17.817 L 4.897 17.565 5.037 17.733 C 6.427 19.392,8.390 20.489,10.640 20.864 C 11.156 20.950,12.586 20.951,13.146 20.865 C 14.481 20.662,16.088 20.045,16.827 19.454 C 17.125 19.214,17.193 18.853,16.998 18.537 C 16.894 18.368,16.739 18.283,16.479 18.252 C 16.292 18.230,16.256 18.243,15.731 18.529 C 14.467 19.216,13.492 19.499,12.220 19.547 C 10.309 19.620,8.504 19.014,7.084 17.822 C 6.639 17.448,6.296 17.088,6.342 17.043 C 6.376 17.008,7.577 16.527,8.447 16.200 L 8.793 16.069 9.967 14.954 C 11.329 13.660,11.646 13.333,11.800 13.065 L 11.913 12.869 12.002 13.045 C 12.201 13.435,12.220 13.450,15.740 15.988 L 17.020 16.911 18.840 17.580 L 20.660 18.248 21.015 18.226 C 21.749 18.181,22.127 17.839,22.580 16.811 C 22.987 15.889,23.293 14.876,23.484 13.820 C 23.556 13.424,23.574 13.141,23.588 12.200 C 23.604 11.204,23.596 10.988,23.524 10.491 C 23.263 8.669,22.649 7.019,21.689 5.560 C 21.064 4.609,20.125 3.549,19.770 3.392 C 19.238 3.156,18.667 3.716,18.895 4.251 C 18.925 4.322,19.161 4.614,19.419 4.900 C 20.365 5.949,20.954 6.858,21.435 8.013 C 22.301 10.093,22.458 12.423,21.883 14.649 C 21.816 14.907,21.735 15.183,21.702 15.262 L 21.641 15.407 21.251 15.137 C 20.467 14.595,20.515 14.640,20.535 14.460 C 20.546 14.372,20.599 14.102,20.655 13.860 C 20.803 13.220,20.840 12.837,20.840 11.966 C 20.840 10.853,20.712 10.087,20.354 9.047 C 19.721 7.212,18.465 5.602,16.800 4.492 C 16.352 4.193,16.272 4.160,16.000 4.160 C 15.706 4.160,15.557 4.229,15.421 4.430 C 15.301 4.606,15.288 4.839,15.385 5.081 C 15.440 5.219,15.523 5.292,15.935 5.571 C 17.242 6.456,18.095 7.410,18.705 8.667 C 18.975 9.222,19.247 10.040,19.361 10.639 C 19.441 11.054,19.447 11.183,19.429 12.117 C 19.410 13.129,19.353 13.640,19.261 13.640 C 19.191 13.640,18.918 13.457,18.040 12.822 L 17.229 12.235 15.705 11.682 C 13.826 11.000,13.647 10.944,13.413 10.971 C 13.244 10.990,13.235 10.986,13.260 10.905 C 13.372 10.558,13.487 9.660,13.823 6.520 L 13.971 5.140 13.901 4.660 C 13.773 3.775,13.440 1.827,13.358 1.482 C 13.231 0.946,12.956 0.600,12.500 0.402 C 12.296 0.313,11.634 0.279,10.960 0.323 " stroke="none" fill-rule="evenodd"></path></svg>