<svg xmlns="http://www.w3.org/2000/svg" width="24" height="24" viewBox="0 0 24 24"><path d="M2.620 0.155 C 2.231 0.267,1.884 0.474,1.576 0.779 C 0.273 2.066,0.883 4.306,2.660 4.760 C 2.960 4.837,3.105 4.840,6.306 4.840 L 9.640 4.840 9.640 13.374 C 9.640 21.741,9.642 21.913,9.719 22.216 C 9.921 23.005,10.485 23.623,11.262 23.905 C 11.487 23.987,11.597 24.000,12.040 24.000 C 12.481 24.000,12.594 23.986,12.813 23.907 C 13.535 23.645,14.063 23.106,14.311 22.380 L 14.420 22.060 14.431 13.451 L 14.441 4.842 17.871 4.831 L 21.300 4.820 21.595 4.712 C 23.001 4.199,23.614 2.581,22.894 1.285 C 22.699 0.934,22.294 0.539,21.936 0.351 C 21.382 0.060,22.145 0.081,12.000 0.083 C 3.465 0.086,2.844 0.090,2.620 0.155 " stroke="none" fill-rule="evenodd" fill="black"></path></svg>