<svg xmlns="http://www.w3.org/2000/svg" xml:space="preserve" viewBox="0 0 24 24" height="24" widht="24"><path d="M7.142.88a.737.737 0 0 0-.735.733H2.366c-.625 0-1.103.477-1.103 1.1V21.78c0 .623.478 1.1 1.103 1.1h14.697c.624 0 1.102-.477 1.102-1.1v-7.055l2.097-2.119a.587.587 0 0 0 .218-.103l1.543-1.54a.362.362 0 0 0 .11-.246l.772-.78a1.26 1.26 0 0 0 0-1.76l-.698-.697c-.515-.55-1.47-.55-1.984 0l-2.058 2.053v-6.82c0-.623-.478-1.1-1.102-1.1H13.02a.737.737 0 0 0-.735-.733zm0 .733h5.144v2.2H7.142V1.98Zm-4.776.734h4.041v.733H3.468a.736.736 0 0 0-.735.733V20.68c0 .403.33.733.735.733H15.96c.404 0 .735-.33.735-.733v-4.437l.735-.733v6.27c0 .22-.146.366-.367.366H2.366c-.22 0-.368-.146-.368-.366V2.713c0-.22.147-.366.368-.366zm10.655 0h4.042c.22 0 .367.146.367.366v7.554l-.735.733V3.813a.736.736 0 0 0-.735-.733h-2.94ZM3.468 3.813h2.94c0 .404.33.733.734.733h5.144c.404 0 .735-.33.735-.733h2.94v7.92l-4.63 4.62a.333.333 0 0 0-.11.257v.022l-.699 1.848c-.183.367-.073.806.221 1.1.22.183.478.293.735.293.147 0 .257 0 .404-.037l1.948-.733c.096-.032.192-.12.215-.215l1.915-1.912v3.704H3.468ZM7.877 6.38c-.22 0-.367.146-.367.366s.147.367.367.367h3.674c.22 0 .368-.147.368-.367s-.147-.366-.368-.366zm13.338 1.494c.174 0 .349.064.477.192l.698.697c.22.184.22.514 0 .734l-.66.66-1.544-1.54.551-.55a.674.674 0 0 1 .478-.193Zm-15.91.706c-.22 0-.367.146-.367.366s.147.367.367.367h5.144c.22 0 .367-.147.367-.367s-.147-.366-.367-.366zm6.614 0c-.22 0-.368.146-.368.366s.147.367.368.367h2.204c.22 0 .368-.147.368-.367s-.147-.366-.368-.366zm7.753.55 1.543 1.54-.796.794-.233.232-1.543-1.54zm-14.367.916c-.22 0-.367.147-.367.367s.147.367.367.367h1.837c.22 0 .368-.147.368-.367s-.147-.367-.368-.367zm3.307 0c-.22 0-.368.147-.368.367s.147.367.368.367h2.94c.22 0 .367-.147.367-.367s-.147-.367-.368-.367zm4.409 0c-.22 0-.368.147-.368.367s.147.367.368.367h1.102c.22 0 .368-.147.368-.367s-.147-.367-.368-.367zm5.105.626 1.53 1.554-2.115 2.11-3.859 3.85-1.543-1.54 4.446-4.436 1.47-1.467zm-12.82.841c-.221 0-.368.147-.368.367s.147.366.367.366h.735c.22 0 .367-.146.367-.366s-.147-.367-.367-.367zm2.204 0c-.22 0-.368.147-.368.367s.147.366.368.366h2.204c.22 0 .368-.146.368-.366s-.147-.367-.368-.367zm3.674 0c-.22 0-.368.147-.368.367s.147.366.368.366h2.94c.22 0 .367-.146.367-.366s-.147-.367-.368-.367zM5.305 12.98c-.22 0-.367.146-.367.366s.147.367.367.367h2.94c.22 0 .367-.147.367-.367s-.147-.366-.368-.366zm4.41 0c-.221 0-.368.146-.368.366s.147.367.367.367h2.205c.22 0 .367-.147.367-.367s-.147-.366-.367-.366zm-4.43 1.467c-.21.008-.347.153-.347.366 0 .22.147.367.367.367h.735c.22 0 .367-.147.367-.367s-.147-.366-.367-.366h-.755zm2.225 0c-.22 0-.368.146-.368.366s.147.367.368.367h2.939c.22 0 .367-.147.367-.367s-.147-.366-.367-.366zm-2.205 1.466c-.22 0-.367.147-.367.367s.147.367.367.367h1.837c.22 0 .368-.147.368-.367s-.147-.367-.368-.367zm3.307 0c-.22 0-.368.147-.368.367s.147.367.368.367h.735c.22 0 .367-.147.367-.367s-.147-.367-.367-.367zm3.15 1.42 1.27 1.267-1.407.54a.285.285 0 0 1-.331-.073.284.284 0 0 1-.073-.33z" /></svg>