<svg xmlns="http://www.w3.org/2000/svg" width="24" height="24" viewBox="0 0 24 24"><path fill="#040404" fill-rule="evenodd" d="M1.017.141C.699.295.357.63.198.944l-.138.272V22.98l.118.24c.126.257.452.632.629.724.093.048 1.445.056 8.986.056h8.877l.201-.161c.214-.17.426-.461.552-.759.074-.172.078-.357.097-4.4.012-2.541.035-4.244.058-4.28.059-.095.414-.552.679-.877.134-.164.333-.418.443-.565s.35-.454.532-.682c.306-.383.706-.887 1.979-2.5.259-.328.544-.704.633-.836l.162-.24-.013-.5-.013-.5-.171-.224a3.3 3.3 0 0 0-.495-.48l-.829-.656c-1.047-.83-1.142-.882-1.624-.877-.49.005-.779.164-1.124.616-.083.109-.166.188-.184.177s-.033-.311-.033-.666c0-.563-.01-.666-.08-.81-.054-.111-.834-.926-2.35-2.454L14.82.038 8.02.04l-6.8.003zM15.973 3.51l1.952 1.95-.012 1.48-.013 1.48-.2.254-1.46 1.846c-.143.18-.366.466-.496.634-.129.168-.485.621-.791 1.006l-.996 1.26c-.242.308-.561.711-.709.895s-.43.545-.628.802-.484.619-.636.805c-.151.186-.301.4-.333.475-.032.076-.083.349-.113.607-.03.259-.065.512-.077.563s-.069.426-.126.833-.128.893-.157 1.08c-.112.721-.063.974.235 1.21.143.113.198.131.45.144.231.011.325-.003.482-.073.107-.049.267-.112.355-.141a39 39 0 0 0 1.84-.739c.088-.039.232-.094.32-.121.088-.028.178-.064.2-.08a.5.5 0 0 1 .141-.053c.18-.043.467-.264.645-.498.255-.334.959-1.232 1.185-1.509.108-.132.338-.428.512-.659l.317-.418.032.578c.018.319.026 1.666.017 2.994-.014 2.306-.018 2.418-.089 2.47-.063.046-1.361.055-8.058.054-4.961 0-8.005-.015-8.042-.038-.053-.034-.06-1.244-.06-10.501s.007-10.467.06-10.501c.037-.023 2.393-.038 6.181-.038l6.121-.001zM4.549 5.478a.89.89 0 0 0-.509.386c-.037.071-.06.226-.06.402 0 .261.011.3.124.44.069.085.186.19.26.234.134.079.208.08 5.022.08h4.887l.153-.124a.8.8 0 0 0 .321-.726c-.02-.287-.126-.461-.376-.616l-.151-.094-4.76-.006c-2.618-.003-4.828.008-4.911.024m16.657 1.933c.118.094.252.198.298.23.192.134.776.613.775.635-.006.091-.36.524-.429.524-.068 0-1.33-.995-1.33-1.048 0-.059.377-.511.426-.512.026 0 .143.077.26.171M4.36 8.975c-.265.141-.415.437-.387.761a.78.78 0 0 0 .424.651l.177.094 4.83-.011 4.829-.01.174-.121c.25-.173.362-.411.344-.728-.012-.204-.036-.274-.135-.397a1.6 1.6 0 0 0-.231-.231c-.11-.083-.13-.083-4.978-.093L4.54 8.879zm15.593.435c.235.182.522.402.637.488.126.095.21.189.21.235 0 .043-.176.298-.39.567s-.57.72-.79 1.001c-.734.937-1.379 1.756-1.611 2.044a28 28 0 0 0-.449.575c-.121.161-.292.377-.38.481s-.367.455-.62.779-.645.822-.87 1.106-.41.535-.41.556q-.002.099-.233-.071a79 79 0 0 1-1.181-.933c-.019-.017.053-.141.16-.277l.643-.814a764 764 0 0 0 2.091-2.65c.253-.324.649-.828.88-1.12s.618-.788.86-1.101.504-.643.583-.733.193-.23.255-.313c.061-.082.129-.15.149-.15.021 0 .23.149.466.33M4.495 12.347c-.129.026-.418.291-.48.439-.03.072-.055.216-.055.32 0 .429.308.746.772.793.137.014 1.562.02 3.168.013 3.265-.013 3.025.009 3.311-.307.315-.349.233-.869-.186-1.182-.11-.082-.144-.083-3.278-.088-1.742-.003-3.205.003-3.252.012m.074 3.41c-.404.103-.635.434-.597.856.024.262.087.373.324.565l.151.122h4.386l.153-.123c.269-.215.385-.54.301-.837q-.107-.383-.395-.523c-.141-.069-.294-.075-2.172-.084-1.111-.005-2.079.006-2.151.024m8.972 2.293.413.33-.193.086c-.3.134-.803.306-.826.283-.044-.045.122-1.029.174-1.029.011 0 .205.149.432.33"/></svg>
