<svg xmlns="http://www.w3.org/2000/svg" width="24" height="24" viewBox="0 0 24 24"><path d="M11.700 0.187 C 11.402 0.213,10.952 0.327,10.665 0.449 C 9.640 0.884,8.911 1.730,8.607 2.837 L 8.501 3.220 8.481 8.183 L 8.460 13.147 8.220 13.347 C 5.882 15.297,5.469 18.871,7.298 21.321 C 7.636 21.775,8.299 22.407,8.756 22.713 C 9.412 23.152,10.186 23.466,11.000 23.624 C 11.556 23.732,12.596 23.723,13.144 23.607 C 15.583 23.088,17.376 21.269,17.825 18.860 C 17.934 18.278,17.925 17.247,17.807 16.694 C 17.524 15.369,16.849 14.207,15.885 13.384 L 15.562 13.109 15.550 8.084 L 15.539 3.060 15.425 2.721 C 15.269 2.254,15.108 1.927,14.891 1.631 C 14.295 0.821,13.439 0.321,12.441 0.201 C 12.109 0.161,12.023 0.159,11.700 0.187 M12.405 2.588 C 12.709 2.685,13.049 3.026,13.136 3.321 C 13.261 3.739,13.286 3.720,12.620 3.720 L 12.040 3.720 12.040 4.300 L 12.040 4.880 12.620 4.880 L 13.200 4.880 13.200 6.060 L 13.200 7.240 12.620 7.240 L 12.040 7.240 12.040 7.820 L 12.040 8.400 12.620 8.400 L 13.200 8.400 13.200 9.580 L 13.200 10.760 12.020 10.760 L 10.840 10.760 10.840 7.225 C 10.840 4.998,10.855 3.611,10.881 3.475 C 10.958 3.064,11.246 2.735,11.648 2.596 C 11.915 2.504,12.132 2.501,12.405 2.588 " stroke="none" fill-rule="evenodd" fill="black"></path></svg>