<svg xmlns="http://www.w3.org/2000/svg" width="24" height="24" viewBox="0 0 24 24"><path d="M1.927.154q-.043.057-.084.119l.098-.08.015-.039zm20.805.581.09.073.009-.01q-.03-.02-.057-.042zM9.455 2.152a.3.3 0 0 0-.195.074c-.47.425-.333.628 2.182 3.244l2.376 2.47-6.833.028-6.833.027v1.272h13.741l-3.076 3.077-3.076 3.078 3.024 3.035c1.663 1.67 3.167 3.099 3.342 3.176.424.19.73 0 .777-.48.032-.324-.116-.497-2.332-2.72l-2.365-2.374h13.736v-1.274H10.182l3.07-3.07 3.069-3.071-.813-.883C11.732 3.663 10.1 2.136 9.455 2.152M.365 22.04l.078.152.038-.006zm23.057 1.797c-.006.01-.004.022-.003.043zm-.204.042a.1.1 0 0 1 .013.027h.027l-.02-.027z" style="fill:#000;stroke-width:.106121"/></svg>