<svg xmlns="http://www.w3.org/2000/svg" viewBox="0 0 24 24"><defs><clipPath id="a" clipPathUnits="userSpaceOnUse"><rect width="38" height="38" x="2" y="2" rx="7.838" ry="7.839"/></clipPath></defs><g transform="matrix(.5 0 0 .5 1.5 1.5)"><rect width="42" height="42" rx="9.844" ry="9.844"/><g clip-path="url(#a)"><path fill="#fff" d="M-.674 1.92h45.48v41.456H-.674z"/><path fill="#fff" d="M8.105 13.199c-1.377.787-1.28 5.12-1.28 6.706 0 1.585 1.707 3.414 3.658 4.39s5.121 3.17 7.194 3.535 5.182.762 6.157.854c.976.091 3.972-.286 6.584-2.622 3.81-3.405 2.534-7.131 7.255-9.754 3.841-2.134 4.738-2.804 4.634-4.634-.122-2.133-2.866-2.194-4.573-2.621-1.535-.384-6.523-.976-9.023-.366s-5.352 1.976-6.828 2.56c-5.672 2.247-6.439-2.244-13.778 1.952"/><path d="M22.497 9.787c.323 1 1.416.735 3.142.186.486-.167 2.061-.874 4.197-1.205 2.284-.354 1.98-.33 5.048.018 2.261.256 3.873 1.141 4.005.31.16-1.005-2.02-2.367-4.008-2.697-1.8-.299-4.786-.714-8.145.72-1.653.707-4.611 1.518-4.24 2.668M19.231 15.302c-.731.396-2.743 2.256-3.627 2.347s-1.25-.396-1.981-.122-4.542 1.463-5 1.768c-.457.305-.61.915-.304 1.189.305.274 4.054.518 4.572.792.518.275 3.597 1.799 4.481 1.768s4.146.244 5.395-.274c1.25-.518 3.384-3.75 4.512-4.572s2.438-1.86 3.688-2.226 2.713-1.34 3.262-2.072.7-1.403 0-1.555c-.701-.152-1.677.762-2.53.945-.854.183-3.597.183-5.243 0s-7.164 2.073-7.225 2.012"/><path fill="#fff" d="M25.846 19.173a4.877 4.877 0 1 1-9.754 0 4.877 4.877 0 1 1 9.754 0"/><path d="M22.188 19.173a1.22 1.22 0 1 1-2.438 0 1.22 1.22 0 1 1 2.438 0M29.19 13.175c-2.583-.62-5.848.037-7.735.495-1.73.42-3.355 1.346-4.02 1.988-.353.342-1.098.992-1.494 1.181-.3.144-.724.184-1.145.122-.545-.08-.964-.443-1.157-1.11-.246-.85-.47-1.584-.146-2.533a.245.245 0 0 0-.461-.164c-.447 1.252-.478 2.484-.156 3.453s1.026 1.684 1.996 1.787c.657.069 1.189-.058 1.646-.305.458-.247.845-.603 1.28-.987.872-.767 1.932-1.677 4.063-2.252 4.47-1.207 2.438-1.096 7.34-1.187a.244.244 0 0 0-.012-.488"/><path d="M33.913 12c-.255.038-.504.144-.766.267-1.304.787-2.585.894-4.062.792-.923-.064-1.905-.156-2.77-.065-1.708.18-2.888.907-2.888.907l.32.518s1.064-.654 2.633-.819c.773-.081 1.732 0 2.663.065s1.831.121 2.557-.072c.698-.187 1.318-.546 1.806-.774.244-.114.453-.192.594-.213s.182-.01.236.045a.46.46 0 0 1 .149.26c.014.083.004.189-.069.342-.145.308-.547.77-1.265 1.36-.675.557-1.616.9-2.655 1.3-1.04.4-2.11.95-3.209 1.718-1.211.848-1.29 1.715-2.641 2.93-.852.766-1.898 1.834-3.15 1.981-3.62.426-4.567-.431-6.893-.978-1.473-.346-2.923-.808-4.15-.919-.613-.055-1.143-.11-1.478-.213a.9.9 0 0 1-.34-.168c-.057-.053-.072-.085-.075-.167-.01-.26.05-.345.255-.477.205-.131.577-.25 1.063-.377.973-.252 2.397-.56 4-1.455l-.296-.534c-1.523.85-2.862 1.141-3.856 1.399-.498.129-.914.242-1.243.453-.328.211-.548.58-.533 1.014a.86.86 0 0 0 .274.594c.16.146.353.234.572.301.437.134.984.18 1.6.236 1.233.111 2.734.238 3.925.854 2.333 1.206 4.228 2.536 7.937 2.1 1.493-.176 3.256-1.502 3.994-2.615s1.29-1.987 2.244-2.708c.674-.51 1.282-1.212 2.312-1.944.9-.64 1.938-1.2 2.728-1.852.748-.616 1.208-1.105 1.43-1.573.11-.235.158-.473.121-.702a1.1 1.1 0 0 0-.32-.59c-.204-.204-.5-.26-.754-.221M20.44 1.702c-.036 1.913-1.468 4.1-1.777 4.892-.452 1.161-2.285 3.024-1.253 3.925.541.473 1.496-.693 1.824-1.185 1.239-1.855.24-.443 2.378-4.817.5-1.022.894-2.213.93-3.192.104-2.9-2.061-1.771-2.102.377"/><path d="M5.866.47c.388 4.483.747 4.568 2.161 8.063 1.614 3.99-2.18 11.055 1.072 10.481 1.838.49 1.557 1.017.177 2.043-1.864.1.1 1.67 1.896 1.983 3.288.574 5.206 4.133 7.698 4.237 2.383.102 5.106.8 5.106 1.41 0 .56-1.574-.237-2.943-.086-1.41.156-4.11 1.222-5.895-.345-4.831-4.241-9.115-4.308-9.587-8.405-.433-3.754 2.438-6.923.826-10.961S1.211 1.609 1.103.817zM11.681-1.59s1.466 8.535 2.414 8.794c.948.258-1.172-4.541-.595-6.538.819-2.83 2.578-3.463 2.578-3.463zM12.14 33.598c3.233 1.803 8.78 4.024 14.266 2.317s8.413-2.805 11.705-7.072c3.292-4.268 3.902-.244 3.292 1.22-.61 1.462-3.414 3.901-5.608 5.486-2.195 1.585-10.869 4.262-15.486 3.536-5.425-.853-10.242-4.146-10.851-4.755-.61-.61-1.951-1.463-1.22-2.317.732-.853 3.05 1.11 3.902 1.585"/></g></g></svg>