<svg width="24" height="24" viewBox="0 0 24 24" fill="none" xmlns="http://www.w3.org/2000/svg">
  <path
    d="M6.78125 0C6.86592 0.441963 6.97679 0.999867 7.10254 1.56152C7.24119 2.18083 7.39716 2.80638 7.55273 3.28711C7.63045 3.5272 7.70827 3.73405 7.78516 3.88574C7.82349 3.96135 7.8626 4.02567 7.90234 4.07422C7.94108 4.12148 7.987 4.16061 8.03906 4.1748C8.08235 4.18647 8.12756 4.18696 8.16699 4.16406C8.20583 4.14122 8.22808 4.10206 8.24023 4.0625C8.26363 3.98579 8.2602 3.87481 8.24414 3.74805C8.21137 3.48973 8.1199 3.12051 8.02344 2.71777C7.92643 2.31276 7.82391 1.86997 7.76562 1.45801C7.7071 1.04423 7.69475 0.66961 7.77344 0.397461C7.81463 0.255006 7.86165 0.123157 7.91016 0H11.9395C11.9016 0.0480193 11.8655 0.100344 11.833 0.157227C11.7095 0.373549 11.6251 0.654767 11.6191 0.97168C11.6088 1.50526 11.4041 2.08217 11.1758 2.58594C11.062 2.83702 10.9426 3.0688 10.8408 3.2666C10.7399 3.4627 10.6539 3.62935 10.6084 3.74609C10.5462 3.90575 10.4352 4.09233 10.3096 4.29395C10.1853 4.49344 10.0469 4.70723 9.93555 4.91602C9.82438 5.12449 9.73546 5.33573 9.71484 5.53027C9.69394 5.72822 9.7433 5.91241 9.9082 6.05664C10.0051 6.14114 10.1214 6.15035 10.2334 6.11719C10.3425 6.08474 10.4531 6.01167 10.5547 5.92578C10.759 5.75279 10.9465 5.51014 11.042 5.36719C11.3955 4.83771 11.4332 4.7695 11.5342 4.52051C11.6324 4.27826 11.7955 3.8554 12.4053 2.60742C12.6923 2.01993 12.9215 1.32991 12.9424 0.758789C12.9544 0.423604 12.9127 0.17364 12.835 0H18.375C21.4814 0.000139154 24 2.51853 24 5.625V18.375C23.9999 21.4814 21.4814 23.9999 18.375 24H5.625C2.51853 24 0.000139157 21.4814 0 18.375V5.625C0 4.14327 0.573358 2.79568 1.50977 1.79102C1.59266 1.89469 1.67959 2.00245 1.76758 2.11523C2.39707 2.92217 3.13061 3.95714 3.58789 5.10254C4.04077 6.23724 3.86573 7.25082 3.60254 8.25684C3.34032 9.25907 2.98605 10.2635 3.11133 11.3506C3.18015 11.9472 3.38886 12.3995 3.70703 12.7793C4.02405 13.1576 4.44859 13.4622 4.94531 13.7656C5.94175 14.3742 7.23539 14.9845 8.61035 16.1914C9.13849 16.6549 9.79939 16.7269 10.4199 16.6748C10.7304 16.6487 11.0345 16.5909 11.3086 16.5352C11.5844 16.4791 11.8285 16.4251 12.0264 16.4033C12.4059 16.3617 12.816 16.4519 13.1416 16.5156C13.3004 16.5467 13.4449 16.5723 13.5498 16.5684C13.602 16.5663 13.6549 16.5567 13.6953 16.5283C13.74 16.4968 13.7617 16.4488 13.7617 16.3926C13.7617 16.3257 13.7242 16.2663 13.6738 16.2168C13.6227 16.1666 13.5508 16.1182 13.4648 16.0732C13.2922 15.983 13.0499 15.8971 12.7686 15.8213C12.2051 15.6695 11.471 15.5545 10.7861 15.5254C10.4446 15.5111 10.1186 15.3789 9.79102 15.1777C9.46297 14.9762 9.13722 14.7088 8.79297 14.4297C8.108 13.8743 7.35243 13.2729 6.39551 13.1055C5.89226 13.0176 5.36576 12.7526 5.09961 12.5078C5.03374 12.4472 4.98642 12.3901 4.95898 12.3398C4.93134 12.289 4.9268 12.2515 4.93457 12.2256C4.94208 12.2011 4.96468 12.1713 5.02344 12.1455C5.05304 12.1326 5.09104 12.1213 5.13672 12.1123C5.35594 12.1572 5.60879 12.1798 5.87891 12.2041C6.58637 12.2677 7.43101 12.3404 8.09863 12.6855C9.42793 13.3728 10.528 14.1435 12.6689 13.8916C13.1088 13.8397 13.5834 13.6194 13.999 13.335C14.4149 13.0502 14.7789 12.6961 14.9951 12.3701C15.4184 11.732 15.7282 11.2423 16.2637 10.8379C16.4588 10.6904 16.6448 10.5145 16.8516 10.3271C17.0594 10.1387 17.2918 9.93554 17.583 9.72852C17.8384 9.54698 18.1138 9.3761 18.3838 9.20312C18.6526 9.03091 18.9168 8.85632 19.1455 8.66797C19.5737 8.31532 19.846 8.02761 19.9785 7.74707C20.0452 7.6056 20.0766 7.45636 20.0527 7.31055C20.0288 7.16477 19.9519 7.03989 19.8525 6.94043C19.7187 6.80663 19.5289 6.77331 19.3701 6.79688C19.2149 6.8201 19.065 6.88391 18.915 6.9541L18.9092 6.95703C18.18 7.39755 17.4621 7.45913 16.624 7.40137C16.4619 7.39006 16.2951 7.37997 16.1279 7.36914C14.7527 7.20313 13.1914 7.52266 12.2461 7.75195C11.2493 7.99377 10.3098 8.52754 9.9209 8.90332C9.82128 8.99962 9.66538 9.1409 9.50684 9.27051C9.34703 9.40111 9.18869 9.5167 9.08301 9.56738C8.92593 9.64246 8.69605 9.66566 8.46387 9.63184C8.17909 9.59015 7.95711 9.40161 7.85254 9.04004C7.71171 8.55303 7.59101 8.15218 7.76855 7.63086C7.80546 7.52664 7.75051 7.41135 7.64648 7.37402C7.54211 7.33693 7.42688 7.39179 7.38965 7.49609C7.13047 8.22182 7.11084 8.9404 7.2998 9.50879C7.347 9.65068 7.40867 9.78407 7.4834 9.90527C6.70023 10.3087 6.01318 10.4629 5.48535 10.5996C5.25281 10.6598 5.04405 10.7178 4.86719 10.8066C4.80636 10.7937 4.75429 10.7744 4.71191 10.7451C4.6099 10.6742 4.54435 10.5517 4.50977 10.376C4.4752 10.2001 4.47323 9.97824 4.49316 9.71973C4.51308 9.46169 4.55396 9.17043 4.60254 8.85742C4.69947 8.23284 4.82635 7.5206 4.87109 6.82324C4.9158 6.12617 4.87908 5.43581 4.64355 4.85352C4.23735 3.84971 3.98756 3.34441 3.80859 2.76562C3.63927 2.21797 3.53588 1.60537 3.43066 0.444336C4.10492 0.158394 4.84648 0 5.625 0H6.78125ZM23.3086 15.3516C23.1871 15.3168 23.0476 15.3261 22.8926 15.3867C22.5849 15.5073 22.2013 15.8327 21.7295 16.4443C20.7934 17.6577 19.9107 18.4182 18.874 18.9971C17.8354 19.577 16.6392 19.9761 15.0713 20.4639C11.9609 21.4315 8.81004 20.1735 6.9668 19.1455C6.84829 19.0794 6.67712 18.9599 6.47656 18.8232C6.27758 18.6876 6.05135 18.5361 5.82715 18.4082C5.60371 18.2807 5.37662 18.1738 5.17676 18.1309C4.97775 18.0883 4.7881 18.1065 4.66211 18.2529C4.54699 18.3872 4.50981 18.5273 4.53125 18.666C4.55218 18.801 4.6275 18.9283 4.72168 19.0449C4.81639 19.1621 4.9352 19.2744 5.0498 19.377C5.16595 19.4809 5.27592 19.5748 5.36133 19.6602C5.4534 19.7521 5.69554 19.938 6.05078 20.1709C6.40793 20.405 6.88392 20.6892 7.44531 20.9775C8.56788 21.5541 10.0381 22.1494 11.5967 22.3945C12.9285 22.6038 14.8375 22.3221 16.5645 21.8779C17.4291 21.6555 18.2511 21.3911 18.9355 21.126C19.6186 20.8613 20.1702 20.5944 20.4902 20.3633C21.119 19.9092 21.8354 19.3318 22.4385 18.7637C22.7397 18.4798 23.0137 18.1972 23.2344 17.9326C23.4545 17.6686 23.6253 17.4185 23.7158 17.2012C23.8071 16.9818 23.8512 16.672 23.8379 16.3711C23.8246 16.071 23.7533 15.7669 23.6035 15.5654C23.5278 15.4637 23.43 15.3864 23.3086 15.3516ZM12.9648 8.41504C13.3156 8.55058 13.6391 8.75726 13.9102 9.02832C14.4025 9.52085 14.684 10.1828 14.7041 10.877C14.5261 11.1258 14.3289 11.3943 13.9854 11.7031C13.7398 11.9238 13.4729 12.1831 13.1768 12.3984C12.881 12.6133 12.5616 12.7799 12.2188 12.8203C11.143 12.9468 10.488 12.8726 9.91504 12.7295C9.49274 12.2371 9.25694 11.6093 9.25684 10.9561C9.25685 10.7905 9.27335 10.6264 9.30273 10.4658C9.35939 10.443 9.41562 10.4183 9.46875 10.3896C9.73748 10.2446 9.96444 10.0354 10.2109 9.81836C10.7062 9.38238 11.304 8.86893 12.5078 8.54395C12.6755 8.49867 12.8269 8.45408 12.9648 8.41504ZM11.9824 10.1982C11.7816 10.1983 11.5883 10.278 11.4463 10.4199C11.3043 10.562 11.2246 10.7552 11.2246 10.9561C11.2247 11.1567 11.3045 11.3492 11.4463 11.4912C11.5884 11.6332 11.7816 11.7138 11.9824 11.7139C12.1832 11.7138 12.3766 11.6332 12.5186 11.4912C12.6602 11.3492 12.7402 11.1566 12.7402 10.9561C12.7402 10.7552 12.6605 10.562 12.5186 10.4199C12.3766 10.2779 12.1832 10.1984 11.9824 10.1982ZM19.9424 3.59668C18.9109 3.42568 17.1898 3.18485 15.2539 4.01172C15.0193 4.11195 14.7382 4.21633 14.4492 4.32715C14.1614 4.43754 13.8658 4.55438 13.6064 4.67969C13.3482 4.80447 13.1195 4.94053 12.9688 5.08984C12.8172 5.24015 12.7347 5.4161 12.7979 5.61133C12.8476 5.76494 12.9294 5.87604 13.0439 5.94629C13.1572 6.0155 13.2965 6.04101 13.4541 6.03809C13.7672 6.03213 14.1793 5.91298 14.6699 5.75684L14.6709 5.75586C14.9541 5.65854 15.8457 5.25822 17.0586 5.07031C17.7128 4.96896 17.9907 4.92289 18.3232 4.92578C18.6577 4.92877 19.0481 4.98134 19.9268 5.08105C20.5688 5.15397 21.1146 5.31477 21.5215 5.40137C21.7212 5.44384 21.8942 5.47001 22.0234 5.45117C22.0893 5.44151 22.1497 5.41968 22.1963 5.37793C22.2435 5.33544 22.2711 5.27703 22.2822 5.20703C22.3088 5.03981 22.2374 4.8666 22.1113 4.7041C21.9843 4.54044 21.7955 4.37859 21.5713 4.23145C21.1226 3.93705 20.5189 3.69236 19.9424 3.59668Z"
    fill="black" />
</svg>