<svg xmlns="http://www.w3.org/2000/svg" width="24" height="24" fill="none" viewBox="0 0 24 24"><path fill="#000" fill-opacity=".8" d="M23 19.6c.3-.2.9 0 .9.5q0 .7-.4 1.5a4 4 0 0 1-2.9 2.2c-.5.2-.5.2-8.2.2a35 35 0 0 1-9.5-.3 4 4 0 0 1-2.7-3q-.3-.7 0-1 .6-.4 1 0l.2.7q.2 1 .9 1.5t1.4.8h16.5q.8-.2 1.5-.8.6-.5.8-1.5zM20 .4q.2-.2.6-.2l1 .3 1 .8q.9 1 1.2 2c.2.6.2.6.2 7.3v6.7l-.2.2q-.4.3-1 0v-.2l-.1-6.6c0-7.3 0-7-.5-7.7a3 3 0 0 0-1.8-1.5Q19.5 1 20 .4M2.8.5Q3.9 0 4 .9q.2.4-.6.6A3 3 0 0 0 1.6 3c-.4.7-.4.6-.4 7.7 0 6.4 0 6.5-.2 6.6q-.4.4-.9 0v-14a4 4 0 0 1 2.7-3"/><path fill="#000" fill-opacity=".8" fill-rule="evenodd" d="M19.2 5.7q.8-.3 1.3.6 0 .3.3.3V7l-.3.3L18 9l-2.4 1.6H15l-.2-.1-.5.3q-.6.3-.4.5v.7l-.1.9a2 2 0 0 1-2 1.1 2 2 0 0 1-1.8-1.1q-.2-.4-.2-.9v-.7q.1-.2-.4-.5l-.4-.3h-.8q-.4 0-1.4-.8c-1.3-.9-1.5-1-1.4-1.6q0-.6.7-.9c.4-.1.6 0 1.6.6 1.6 1 1.7 1.2 1.7 1.7q-.1.3.5.6l.5.3.2-.1c.7-.6 1.8-.6 2.5 0l.3.1.4-.3q.6-.3.5-.6 0-.4.3-.7c.4-.3 4.3-3 4.5-3M12 11l-.5.1q-.4.2-.4.6v.7l.3.3q.8.5 1.2 0l.2-.5v-.5q-.1-.8-.8-.7M7.8 8.6c-1.2-.8-1.4-.9-1.6-.6v.4l1 .8q1.6 1.1 1.6.6c.1-.4 0-.5-1-1.2m11.7-2.3-2.1 1.4-2.2 1.6q-.4.4.2.6.3 0 2.2-1.4L19.8 7c.2-.2.1-.7-.3-.7" clip-rule="evenodd"/><path fill="#000" fill-opacity=".8" d="M3 6.7q.1-.2.8.2t.4.5l-.5-.2q-.7-.4-.6-.5M17.1 3.2h.3l-.2.6q-.4.8-.6.6v-.2zM6.5 3.1q.2-.1.6.5.5.8.1.8l-.4-.5q-.5-.6-.3-.8M12 0c6 0 5.9 0 6 .3q.2.4 0 .8c-.3.3-.4.3-3 .3a95 95 0 0 0-8.8-.1q-.4-.2-.4-.6t.3-.6zM12 3l.1.5q0 .9-.2.8-.2.1-.2-.5T12 3M20 11.8h1q.4 0 0 .3h-.9q-.3 0-.1-.3M2.7 11.8h1q.5 0 0 .3H3q-.4 0-.2-.3"/><path fill="#000" fill-opacity=".8" d="M3 6.7q.1-.2.8.2t.4.5l-.5-.2q-.7-.4-.6-.5M20 17q0-.3.7.1t.5.5l-.6-.1q-.7-.4-.6-.6"/><path fill="#000" fill-opacity=".8" d="M20 17q0-.3.7.1t.5.5l-.6-.1q-.7-.4-.6-.6M6.9 19.7H7l-.2.6q-.4.8-.6.6v-.2zM12 19.8q.3.2.2.5 0 .9-.2.8-.2.1-.2-.5t.2-.8M17 19.9q0-.2.5.4.4.9 0 .8l-.4-.5q-.3-.6-.2-.7M3.2 17.3l.9-.4q.1.1-.2.4c0 .1-.7.5-.8.4q-.1-.3.1-.4"/></svg>