<svg xmlns="http://www.w3.org/2000/svg" width="24" height="24" viewBox="0 0 24 24"><path fill="#fafafb" fill-rule="evenodd" d="M11.36 1.198c-1.997.277-3.682.979-5.35 2.23-.413.31-1.424 1.3-1.787 1.75-.695.861-1.264 1.848-1.782 3.088-.04.096.058.083-1.418.195-.439.033-.803.066-.81.073-.025.025 3.556 3.626 3.607 3.626.065 0 3.02-3.974 3.02-4.061 0-.017-.202-.019-.45-.005-1.397.082-1.426.082-1.454.011-.047-.125.545-1.055 1.089-1.71.452-.543 1.228-1.23 1.904-1.685.445-.3 1.507-.812 2.051-.988a8.8 8.8 0 0 1 3.117-.43c1.309.041 2.42.311 3.563.867.982.478 1.674.981 2.481 1.807.471.482 1.059 1.199 1.059 1.292 0 .014.037.065.083.114.045.048.239.403.432.788.457.916.69 1.638.87 2.7.096.562.097 1.838.001 2.46-.318 2.086-1.142 3.719-2.613 5.184-1.321 1.314-3.019 2.155-4.933 2.441-.559.084-1.729.094-2.28.02-2.766-.374-5.111-1.854-6.487-4.093-.198-.322-.252-.385-.307-.355-.136.074-1.586 1.29-1.598 1.34-.033.143.912 1.376 1.532 2 .809.813 1.62 1.442 2.457 1.903 1.221.673 2.351 1.065 3.752 1.302.515.087.695.098 1.664.098.97 0 1.151-.011 1.68-.099a10.5 10.5 0 0 0 1.775-.425c3.257-1.056 5.878-3.639 7.017-6.916.157-.451.378-1.328.453-1.8.302-1.876.058-4.112-.636-5.836-1.031-2.56-2.936-4.63-5.361-5.822-1.104-.543-2.026-.828-3.321-1.028-.771-.119-2.289-.137-3.02-.036m1.152 3.949c-.093.015-.111.042-.129.185-.024.191-.123 2.114-.185 3.608-.022.55-.067 1.486-.099 2.08a39 39 0 0 0-.059 1.586v.506l.31.276c.171.152.832.725 1.47 1.273l1.72 1.478c.756.651.965.821 1.007.821.02 0 .119-.086.221-.19l.185-.19-1.757-1.92c-.966-1.056-1.766-1.956-1.776-2-.017-.068-.167-2.521-.397-6.455-.032-.536-.074-.992-.094-1.012-.045-.045-.273-.07-.417-.046"/></svg>