<svg version="1.1" id="svg1" width="24" height="24" viewBox="0 0 24 24" xmlns="http://www.w3.org/2000/svg">
   <defs id="defs1" />
   <g id="g1">
      <path style="fill:#000000;stroke-width:0.175796"
         d="M 5.2662752,23.975943 C 2.5758502,23.734844 0.87865715,22.373951 0.19845715,19.912315 0.01708915,19.255949 -0.00319385,18.448528 3.5715097e-4,12.026623 0.00465715,4.3022159 0.02388715,4.0301479 0.65404215,2.7930699 1.2918172,1.5410299 2.7782402,0.44123288 4.2473422,0.13440488 c 0.858047,-0.179206 14.6472758,-0.179206 15.5053238,0 1.469102,0.306828 2.955525,1.40662502 3.593299,2.65866502 0.630154,1.237078 0.649415,1.509146 0.653686,9.2335531 0.0035,6.421905 -0.01672,7.229326 -0.1981,7.885692 -0.558979,2.022941 -1.777634,3.273778 -3.779628,3.879442 -0.489132,0.147978 -1.713533,0.181181 -7.436378,0.201654 -3.7679598,0.01348 -7.0616308,0.0056 -7.3192698,-0.01747 z m 8.4167678,-4.441904 c 1.39253,-0.295475 2.663566,-1.002617 3.764339,-2.094293 0.810012,-0.803317 1.049408,-1.134448 1.496884,-2.070468 0.629372,-1.316509 0.826365,-2.163362 0.818673,-3.519402 -0.0227,-4.0011571 -3.018818,-7.2308981 -7.13114,-7.6871901 -0.741802,-0.08231 -1.129137,0.02858 -1.418552,0.406104 -0.09438,0.123118 -0.143921,0.689931 -0.146385,1.674951 -0.0035,1.39497 0.01357,1.508993 0.270512,1.808161 0.37629,0.438127 0.94897,0.438127 1.32526,0 0.231285,-0.269294 0.274236,-0.448324 0.274236,-1.143085 v -0.823782 l 0.380602,0.07687 c 0.674215,0.136175 2.003924,0.833113 2.597231,1.361283 0.757922,0.674712 1.42211,1.721288 1.723907,2.7163961 0.313558,1.033885 0.264947,2.72764 -0.107779,3.755495 -0.633562,1.747146 -2.222965,3.184445 -4.066973,3.67777 -0.755898,0.202226 -2.177802,0.200482 -2.943121,-0.0036 -0.9057038,-0.241526 -2.0160998,-0.881205 -2.6747918,-1.540897 -0.658693,-0.659694 -1.297401,-1.771776 -1.538562,-2.678855 -0.198245,-0.745661 -0.208445,-2.125689 -0.02238,-3.0279 0.129251,-0.6267221 0.121342,-0.7065551 -0.09946,-1.0039921 -0.334814,-0.451009 -0.983308,-0.504223 -1.374177,-0.112762 -0.559566,0.560417 -0.762737,2.9173061 -0.381225,4.4224341 0.56313,2.221643 2.138102,4.208874 4.082917,5.151649 0.55471,0.268902 1.34223,0.561449 1.7500458,0.650104 0.982751,0.213639 2.426745,0.215757 3.419943,0.005 z m -1.03362,-6.915654 c 0.189755,-0.190043 0.287447,-0.420229 0.287447,-0.677289 0,-0.353332 -0.290657,-0.679773 -3.1376418,-3.5239151 -3.465077,-3.461619 -3.463925,-3.460846 -4.144038,-2.7797 -0.284429,0.284861 -0.339256,0.417814 -0.278105,0.674395 0.04949,0.20767 1.172754,1.418269 3.207583,3.456989 3.3984918,3.4049911 3.4641598,3.4510261 4.0647548,2.8495201 z"
         id="path1" />
   </g>
</svg>