<?xml version="1.0" encoding="UTF-8" standalone="no"?>
<svg
   width="85.333"
   height="85.333"
   viewBox="0 0 64 64"
   version="1.1"
   id="svg1"
   sodipodi:docname=":tinyrdm:.svg"
   inkscape:version="1.4.3 (0d15f75, 2025-12-25)"
   xmlns:inkscape="http://www.inkscape.org/namespaces/inkscape"
   xmlns:sodipodi="http://sodipodi.sourceforge.net/DTD/sodipodi-0.dtd"
   xmlns="http://www.w3.org/2000/svg"
   xmlns:svg="http://www.w3.org/2000/svg">
  <defs
     id="defs1" />
  <sodipodi:namedview
     id="namedview1"
     pagecolor="#505050"
     bordercolor="#ffffff"
     borderopacity="1"
     inkscape:showpageshadow="0"
     inkscape:pageopacity="0"
     inkscape:pagecheckerboard="1"
     inkscape:deskcolor="#505050"
     inkscape:zoom="2.7573525"
     inkscape:cx="56.576009"
     inkscape:cy="58.933343"
     inkscape:window-width="968"
     inkscape:window-height="1044"
     inkscape:window-x="742"
     inkscape:window-y="40"
     inkscape:window-maximized="0"
     inkscape:current-layer="svg1" />
  <path
     d="M 30.339664,0.60736242 C 29.312965,0.81572191 27.917862,1.3381306 26.21324,2.1534505 20.04776,5.0999261 8.8144623,12.203778 5.8174071,15.050604 c -1.6057273,1.525705 -2.1787159,3.478698 -2.5501395,8.692971 -0.1826919,2.567503 -0.1842018,14.997356 -0.00151,17.393491 0.4242683,5.573618 1.2237347,7.130275 5.1848307,10.091094 4.7001695,3.51267 14.1797725,9.127808 19.1147225,11.321622 2.290446,1.018395 3.10954,1.278845 4.009411,1.275071 2.392361,-0.009 7.185385,-2.122097 16.104834,-7.098569 6.338357,-3.536072 8.472532,-4.961372 10.211881,-6.82 1.879011,-2.008102 2.69886,-4.358941 3.041596,-8.715618 0.200811,-2.550139 0.353306,-7.88822 0.357081,-12.508366 0.0061,-6.032612 -0.223458,-8.798661 -0.906667,-10.94718 L 60.058075,16.71144 58.861517,15.527717 C 57.162934,13.848007 54.165124,11.639094 50.524871,9.3856401 47.48403,7.502855 41.582019,4.1887307 38.748028,2.7717348 34.616318,0.70550277 32.516115,0.16497587 30.339664,0.60736242 M 9.625253,40.988346 c 1.418506,0.420494 4.467652,1.973376 8.152445,4.151337 5.127457,3.030272 10.045798,5.492086 12.500062,6.257581 0.823624,0.256674 1.050102,0.283851 1.972621,0.236291 2.262512,-0.117768 5.527567,-1.540804 11.724753,-5.110093 7.355998,-4.235888 9.010041,-5.064042 10.114496,-5.064042 0.609981,0 0.885529,0.323863 1.042554,1.225999 0.275547,1.580814 -0.338208,3.334508 -1.521177,4.347619 -3.369234,2.886081 -16.374341,9.797427 -20.638162,10.966807 -0.976873,0.267999 -1.339993,0.237046 -2.830216,-0.238557 C 25.026495,56.126119 14.342785,49.724348 10.595333,46.047859 9.6003403,45.07174 9.2085335,44.393061 8.8567382,43.040234 8.6597028,42.280024 8.5819455,41.028357 8.7231167,40.886431 8.8295612,40.779986 8.9820561,40.797351 9.625253,40.988346"
     stroke="none"
     fill-rule="evenodd"
     fill="#000000"
     id="path1"
     style="stroke-width:0.754926" />
</svg>
