<svg version="1.0" xmlns="http://www.w3.org/2000/svg"
 width="64.000000pt" height="64.000000pt" viewBox="0 0 64.000000 64.000000"
 preserveAspectRatio="xMidYMid meet">

<g transform="translate(0.000000,64.000000) scale(0.100000,-0.100000)"
fill="#000000" stroke="none">
<path d="M295 581 c-41 -12 -184 -101 -199 -123 -12 -17 -16 -49 -16 -134 0
-96 3 -115 20 -136 21 -27 167 -114 207 -124 16 -4 50 9 118 46 132 73 129 70
133 204 2 77 -1 119 -10 136 -8 14 -52 47 -103 76 -99 57 -120 65 -150 55z
m14 -417 c19 -4 49 8 111 44 77 45 85 47 88 29 2 -11 -2 -25 -10 -33 -26 -25
-158 -94 -180 -94 -34 0 -178 87 -187 113 -5 12 -7 25 -5 29 3 4 39 -13 80
-38 42 -25 88 -47 103 -50z"/>
</g>
</svg>
