<?xml version="1.0" encoding="UTF-8" standalone="no"?>
<svg
   viewBox="0 0 28 28"
   version="1.1"
   id="svg4"
   sodipodi:docname="Tips.svg"
   width="28"
   height="28"
   inkscape:version="1.4.2 (ebf0e940, 2025-05-08)"
   xmlns:inkscape="http://www.inkscape.org/namespaces/inkscape"
   xmlns:sodipodi="http://sodipodi.sourceforge.net/DTD/sodipodi-0.dtd"
   xmlns:xlink="http://www.w3.org/1999/xlink"
   xmlns="http://www.w3.org/2000/svg"
   xmlns:svg="http://www.w3.org/2000/svg">
  <sodipodi:namedview
     id="namedview4"
     pagecolor="#ffffff"
     bordercolor="#000000"
     borderopacity="0.25"
     inkscape:showpageshadow="2"
     inkscape:pageopacity="0.0"
     inkscape:pagecheckerboard="0"
     inkscape:deskcolor="#d1d1d1"
     inkscape:zoom="10.054592"
     inkscape:cx="5.5695945"
     inkscape:cy="30.63277"
     inkscape:window-width="1712"
     inkscape:window-height="1043"
     inkscape:window-x="1"
     inkscape:window-y="40"
     inkscape:window-maximized="0"
     inkscape:current-layer="svg4" />
  <defs
     id="defs1">
    <path
       id="a"
       d="M 233,300 H 67 C 30.15,300 0,269.85 0,233 V 67 C 0,30.15 30.15,0 67,0 h 166 c 36.85,0 67,30.15 67,67 v 166 c 0,36.85 -30.15,67 -67,67 z" />
  </defs>
  <clipPath
     id="b">
    <use
       xlink:href="#a"
       overflow="visible"
       id="use1" />
  </clipPath>
  <linearGradient
     id="c"
     gradientUnits="userSpaceOnUse"
     x1="150"
     y1="0.026000001"
     x2="150"
     y2="299.974">
    <stop
       offset="0"
       stop-color="#ffa900"
       id="stop1" />
    <stop
       offset="1"
       stop-color="#ffcb02"
       id="stop2" />
  </linearGradient>
  <g
     clip-path="url(#b)"
     fill="#fff"
     id="g3"
     style="fill:#1a1a1a"
     transform="matrix(0.11472774,0,0,0.11472774,-3.0783502,-3.6722961)">
    <path
       d="m 169.3,228.391 h -38.685 c -2.27,0 -4.128,1.858 -4.128,4.128 0,2.27 1.858,4.128 4.128,4.128 H 169.3 c 2.27,0 4.128,-1.858 4.128,-4.128 0,-2.27 -1.858,-4.128 -4.128,-4.128 z m -2.063,13.587 h -34.558 a 4.14,4.14 0 0 0 -4.128,4.128 4.14,4.14 0 0 0 4.128,4.128 h 34.558 a 4.14,4.14 0 0 0 4.128,-4.128 4.14,4.14 0 0 0 -4.128,-4.128 z m -6.601,13.588 h -21.357 a 4.14,4.14 0 0 0 -4.128,4.128 4.14,4.14 0 0 0 4.128,4.128 h 21.357 a 4.14,4.14 0 0 0 4.128,-4.128 4.139,4.139 0 0 0 -4.128,-4.128 z"
       id="path3"
       style="fill:#1a1a1a" />
  </g>
  <path
     d="m 149.958,40.136 c -35.167,0 -72.355,26.956 -72.355,76.439 0,30.206 33.911,58.205 38.386,64.509 4.475,6.305 8.742,15.964 9.249,19.989 0.816,6.478 -0.029,9.856 3.048,16.701 1.492,3.319 5.105,4.978 21.672,4.978 16.567,0 20.18,-1.659 21.672,-4.978 3.077,-6.845 2.232,-10.222 3.048,-16.701 0.507,-4.025 4.774,-13.684 9.249,-19.989 4.475,-6.305 38.386,-34.304 38.386,-64.509 0,-49.482 -37.188,-76.439 -72.355,-76.439 z m 33.175,91.145 c -0.604,1.85 -2.432,3.025 -4.378,3.025 h -22.803 c -0.821,0 -1.486,0.665 -1.486,1.486 v 67.71 a 4.525,4.525 0 0 1 -5.99,4.267 c -1.85,-0.604 -3.025,-2.432 -3.025,-4.378 v -67.599 c 0,-0.821 -0.666,-1.486 -1.486,-1.486 H 121.05 a 4.525,4.525 0 0 1 -4.267,-5.99 c 0.604,-1.85 2.432,-3.025 4.378,-3.025 h 57.705 a 4.525,4.525 0 0 1 4.267,5.99 z"
     clip-path="url(#b)"
     fill="#fff"
     id="path4"
     style="fill:#1a1a1a"
     transform="matrix(0.11472774,0,0,0.11472774,-3.0783502,-3.6722961)" />
</svg>
