<svg xmlns="http://www.w3.org/2000/svg" width="28" height="28">
  <path fill="#FFF" fill-rule="evenodd"
    d="M15.527 26.305a.533.533 0 0 1 0 1.065h-2.556a.533.533 0 0 1 0-1.065zm.71-1.633a.533.533 0 0 1 0 1.065h-3.976a.533.533 0 0 1 0-1.065zm.355-1.633a.533.533 0 0 1 0 1.065h-4.686a.533.533 0 0 1 0-1.065zM14.25.424a8.698 8.698 0 0 1 7.544 13.03c-1.084 1.885-4.18 3.517-4.62 6.89l-.014.103v.497a1.42 1.42 0 0 1-1.42 1.42h-2.982a1.42 1.42 0 0 1-1.42-1.42v-.497l-.01-.102c-.405-3.37-3.417-4.797-4.622-6.892A8.698 8.698 0 0 1 14.249.423zm3.48 10.26h-6.96a.533.533 0 0 0 0 1.065h2.699c.137 0 .248.111.248.249v8.094a.533.533 0 0 0 1.066 0v-8.094c0-.138.11-.249.248-.249h2.698a.533.533 0 0 0 0-1.065z"
    style="fill:#1a1a1a;stroke-width:.0355031" />
</svg>