<svg width="24" height="24" viewBox="0 0 24 24" xmlns="http://www.w3.org/2000/svg">
	<path
		d="M 12 18.42 C 10.519 18.42 9.087 17.882 7.972 16.906 C 6.857 15.931 6.134 14.584 5.936 13.116 C 5.741 11.649 6.081 10.158 6.899 8.923 C 7.717 7.689 8.955 6.791 10.384 6.4 L 10.384 8.181 C 9.423 8.557 8.623 9.258 8.124 10.161 C 7.624 11.064 7.456 12.114 7.648 13.127 C 7.839 14.142 8.379 15.056 9.173 15.715 C 9.969 16.373 10.968 16.734 12.001 16.734 C 13.032 16.734 14.032 16.373 14.826 15.715 C 15.621 15.056 16.161 14.142 16.352 13.127 C 16.544 12.114 16.376 11.064 15.877 10.161 C 15.378 9.258 14.578 8.557 13.617 8.181 L 13.617 6.4 C 15.045 6.791 16.284 7.689 17.101 8.923 C 17.919 10.159 18.26 11.649 18.062 13.117 C 17.866 14.585 17.142 15.932 16.027 16.907 C 14.912 17.883 13.482 18.42 12 18.42 Z M 11.121 4.356 L 12.879 4.356 L 12.879 13.074 L 11.121 13.074 L 11.121 4.356 Z M 12 0.051 C 9.636 0.051 7.326 0.752 5.361 2.066 C 3.396 3.378 1.866 5.245 0.961 7.428 C 0.057 9.611 -0.18 12.014 0.281 14.332 C 0.742 16.65 1.88 18.778 3.552 20.45 C 5.223 22.121 7.352 23.258 9.669 23.719 C 11.987 24.18 14.39 23.944 16.573 23.039 C 18.755 22.135 20.623 20.604 21.935 18.638 C 23.248 16.674 23.949 14.364 23.949 12 C 23.949 10.431 23.639 8.877 23.039 7.427 C 22.438 5.978 21.558 4.66 20.449 3.552 C 19.34 2.442 18.022 1.562 16.573 0.961 C 15.123 0.361 13.569 0.051 12 0.051 Z"
		fill="black" />
</svg>