<svg version="1.1" id="svg1" width="24" height="24" viewBox="0 0 24 24" xmlns="http://www.w3.org/2000/svg">
   <defs id="defs1" />
   <g id="g1">
      <path style="fill:#000000;stroke-width:0.0291329"
         d="m 5.4345072,23.972693 c -1.32507,-0.0722 -2.24814,-0.34783 -3.12171,-0.93206 -0.36144,-0.24173 -0.86411,-0.71132 -1.13533,-1.06062 -0.60102996,-0.77406 -0.93882996,-1.63611 -1.07983996,-2.75576 -0.0667,-0.52972 -0.0966,-2.91215 -0.09760000038,-7.79117 -0.001,-5.5049604 0.02410000038,-6.4070804 0.20393000038,-7.2773704 0.41514,-2.00891 1.94237996,-3.53491002 3.95531996,-3.95209002 0.16193,-0.0336 0.4551,-0.0815 0.65148,-0.10644 1.02216,-0.13002 13.3813598,-0.12938 14.4101998,7.5e-4 1.7091,0.21617 2.97124,0.95541002 3.83471,2.24601002 0.59046,0.88255 0.8442,1.78468 0.91555,3.25508 0.0381,0.7847 0.0385,12.1217104 4.6e-4,12.8556304 -0.0602,1.16184 -0.22918,1.9327 -0.57779,2.63566 -0.70513,1.4219 -1.96736,2.39733 -3.52158,2.72144 -0.44368,0.0925 -0.75083,0.12909 -1.37714,0.16394 -0.61485,0.0342 -12.4277298,0.0315 -13.0606198,-0.003 z m 7.2198898,-2.91163 c 3.99647,-0.29489 7.31859,-3.14359 8.21303,-7.04262 0.1664,-0.72536 0.20339,-1.09142 0.20387,-2.01722 4.8e-4,-0.91956 -0.0235,-1.17778 -0.17708,-1.90722 -0.41341,-1.9634204 -1.50179,-3.7641504 -3.0691,-5.0778304 -1.29153,-1.08253 -2.78691,-1.74935 -4.54404,-2.02628 -0.53895,-0.0849 -1.95196,-0.0911 -2.49105,-0.0108 -2.0431898,0.30414 -3.8151398,1.18892 -5.2289798,2.61096 -3.32421,3.34351 -3.54124,8.6474704 -0.50195,12.2673704 0.26691,0.3179 0.88085,0.92275 1.20145,1.18368 1.79475,1.46066 4.1007598,2.1892 6.3938498,2.02 z m -1.20904,-3.81738 c -0.31878,-0.0339 -0.77664,-0.13221 -1.08498,-0.23296 -0.3759798,-0.12285 -1.0905398,-0.48457 -1.4201498,-0.71891 -0.35526,-0.25256 -0.9787,-0.87609 -1.23122,-1.2314 -0.23431,-0.32967 -0.59597,-1.04433 -0.71881,-1.42037 -0.2239,-0.68545 -0.30606,-1.44814 -0.23347,-2.16745 0.24905,-2.4679304 2.17423,-4.4257804 4.6376598,-4.7163604 0.46448,-0.0548 1.22249,-0.0225 1.66987,0.0711 1.88101,0.39355 3.38371,1.74659 3.96886,3.5736004 0.17982,0.56143 0.22347,0.87403 0.22347,1.60031 0,0.73948 -0.0437,1.04208 -0.23496,1.62672 -0.77375,2.36529 -3.10719,3.87832 -5.57627,3.61574 z"
         id="path1" />
   </g>
</svg>