<?xml version="1.0" encoding="UTF-8" standalone="no"?>
<svg
   width="800"
   height="800"
   viewBox="0 0 48 48"
   version="1.1"
   id="svg1"
   sodipodi:docname=":trading_view:.svg"
   inkscape:version="1.4.3 (0d15f75, 2025-12-25)"
   xmlns:inkscape="http://www.inkscape.org/namespaces/inkscape"
   xmlns:sodipodi="http://sodipodi.sourceforge.net/DTD/sodipodi-0.dtd"
   xmlns="http://www.w3.org/2000/svg"
   xmlns:svg="http://www.w3.org/2000/svg">
  <defs
     id="defs1" />
  <sodipodi:namedview
     id="namedview1"
     pagecolor="#505050"
     bordercolor="#ffffff"
     borderopacity="1"
     inkscape:showpageshadow="0"
     inkscape:pageopacity="0"
     inkscape:pagecheckerboard="1"
     inkscape:deskcolor="#505050"
     inkscape:zoom="0.44406242"
     inkscape:cx="470.65455"
     inkscape:cy="620.40827"
     inkscape:window-width="968"
     inkscape:window-height="1044"
     inkscape:window-x="742"
     inkscape:window-y="40"
     inkscape:window-maximized="0"
     inkscape:current-layer="svg1" />
  <path
     d="m 0.8982412,12.181562 c -0.36847433,0.201547 -0.36001396,0.08046 -0.36001396,5.154261 0,4.622159 0.006117,4.823646 0.15288587,5.004912 l 0.15288599,0.188829 4.2073033,0.02208 4.2072433,0.02208 v 6.478152 c 0,6.343744 0.00331,6.48151 0.1579862,6.636196 0.086883,0.08688 0.2398892,0.178088 0.3399732,0.202748 0.1001441,0.0246 2.2961689,0.03456 4.8800489,0.02201 l 4.698003,-0.02275 0.182227,-0.182227 0.182167,-0.182227 0.02364,-11.338219 c 0.0159,-7.652872 -0.0033,-11.431458 -0.05929,-11.625027 -0.05262,-0.182039 -0.157621,-0.320885 -0.287405,-0.380047 C 19.093227,12.053568 1.1336302,12.052788 0.8982412,12.181451 m 24.7180798,-0.009 c -1.097803,0.143524 -2.011699,0.618624 -2.922774,1.519318 -2.731726,2.700826 -1.582742,7.392406 2.108423,8.609075 0.904713,0.298211 2.202925,0.315372 3.097319,0.04092 1.513919,-0.464538 2.852151,-1.708926 3.398413,-3.160264 1.008638,-2.679641 -0.327613,-5.657016 -3.017157,-6.723018 -0.812073,-0.321853 -1.678625,-0.414917 -2.664224,-0.28603 m 10.493867,0.09498 c -0.143286,0.128884 -1.612923,3.499876 -5.061796,11.61111 -4.684801,11.017747 -4.855629,11.437045 -4.742104,11.639253 0.06474,0.115386 0.206648,0.254829 0.315372,0.309791 0.285011,0.144248 11.068749,0.145327 11.3525,0.0011 0.160566,-0.08161 1.042721,-2.092402 5.060178,-11.534788 2.676162,-6.289805 4.865708,-11.514989 4.865708,-11.611591 0,-0.0966 -0.06882,-0.260591 -0.152886,-0.364454 l -0.152946,-0.188881 -5.640999,-0.02159 -5.641059,-0.02155 -0.201968,0.181568 M 18.538925,24.009483 V 34.729917 H 14.498729 10.458592 V 28.246166 21.762254 L 10.262205,21.565926 10.065877,21.369537 H 5.9020754 1.7382736 V 17.329401 13.289204 H 10.1386 18.538925 v 10.720437 m 8.649398,-10.640513 c 0.678506,0.125825 1.545719,0.594863 2.07098,1.120123 1.573441,1.573441 1.56048,4.1116 -0.02905,5.700102 -1.583037,1.581962 -4.065274,1.5774 -5.644234,-0.0104 -0.609143,-0.612504 -0.913237,-1.133505 -1.083641,-1.856471 -0.23041,-0.977379 -0.101345,-2.084423 0.33883,-2.906094 0.303495,-0.566603 1.158826,-1.397694 1.73401,-1.684866 0.803549,-0.401116 1.719307,-0.52814 2.613102,-0.362413 m 19.158923,0.06012 c -0.02743,0.07698 -2.074041,4.901168 -4.548058,10.720375 L 37.301052,34.730057 H 32.522106 27.74322 l 0.06876,-0.180005 c 0.10423,-0.272772 8.980069,-21.131862 9.021231,-21.200865 0.01975,-0.033 2.179645,-0.06 4.799886,-0.06 4.502814,0 4.761245,0.0077 4.714143,0.140047"
     stroke="none"
     fill-rule="evenodd"
     fill="#000000"
     id="path1"
     style="stroke-width:0.0600024" />
</svg>
