<svg xmlns="http://www.w3.org/2000/svg" xml:space="preserve" width="24" height="24" viewBox="0 0 24 24"><path d="M5.761 8.897c-.604 0-.987.475-1.15 1.064l-1.055 8.862c-.015.753.426 1.165 1.055 1.232l15.133-.057c.566.019.902-.451.868-1.266l-1.338-8.939c-.158-.498-.757-.915-1.361-.896Zm4.321.527h3.946l1.041 6.666h1.645l-4.968 2.858-4.45-2.858h1.645z" style="clip-rule:evenodd;fill:#000;fill-opacity:1;fill-rule:evenodd;stroke:none;stroke-width:.0479522"/><path d="M4.28 7.295c-.652-.024-1.31.542-1.367 1.228-.494 4.042-1.223 8.085-1.597 12.122v1.698c.02.877.595 1.462 1.228 1.577H21.73c.541-.014 1.146-.388 1.126-1.107V20.63L21.13 8.873c-.139-.72-.757-1.487-1.611-1.578Zm5.802 2.13h3.946l1.041 6.665h1.645l-4.968 2.858-4.45-2.858h1.645z" style="clip-rule:evenodd;fill:#000;fill-opacity:1;fill-rule:evenodd;stroke:none;stroke-width:.0479522"/><path d="M6.217.601h11.681c1.535 0 2.781.494 2.781 1.098v1.16c0 .61-1.246 1.099-2.78 1.099H6.216c-1.534 0-2.781-.494-2.781-1.098V1.7C3.44 1.094 4.683.6 6.217.6" style="fill:#000;fill-opacity:1;stroke:none;stroke-width:.0479522;stroke-linecap:round;stroke-linejoin:round"/><path d="M10.68 8.918h2.75c.333 0 .598.104.598.23v5.115c0 .128-.27.23-.598.23h-2.75a.598.23 0 0 1-.597-.23V9.15a.593.229 0 0 1 .597-.23" style="fill:#000;fill-opacity:1;stroke:none;stroke-width:.0299208;stroke-linecap:round;stroke-linejoin:round"/><path d="M10.681.091h2.748c.332 0 .597.135.597.299v6.64c0 .167-.27.3-.597.3H10.68a.597.3 0 0 1-.596-.3V.39a.592.297 0 0 1 .596-.299" style="fill:#000;fill-opacity:1;stroke:none;stroke-width:.0340745;stroke-linecap:round;stroke-linejoin:round"/></svg>