<svg viewBox="0 0 24 24" width="24" height="24" xmlns="http://www.w3.org/2000/svg"><path d="M5.626 3.622Q4.421 4.0 4.421 5.264L4.421 12.295Q4.421 13.558 5.626 13.936L13.953 16.548Q15.158 16.926 15.158 15.663L15.158 1.895Q15.158 0.632 13.953 1.01L5.626 3.622Z M11.31 9.72Q10.105 10.098 10.105 11.361L10.105 18.392Q10.105 19.655 11.31 20.033L19.637 22.645Q20.842 23.024 20.842 21.76L20.842 7.992Q20.842 6.729 19.637 7.107L11.31 9.72Z M11.747 11.682Q11.747 11.303 12.109 11.19L18.838 9.079Q19.2 8.965 19.2 9.344L19.2 20.408Q19.2 20.787 18.838 20.674L12.109 18.563Q11.747 18.449 11.747 18.07L11.747 11.682Z"/></svg>
