<svg xmlns="http://www.w3.org/2000/svg" width="28" height="28"><defs><linearGradient id="a" x1="60" x2="60" y1="1.51" y2="121.36" gradientTransform="scale(.23436)" gradientUnits="userSpaceOnUse"><stop offset="0" stop-color="#333"/><stop offset="1" stop-color="#111"/></linearGradient></defs><rect width="28.123" height="28.123" fill="url(#a)" rx="6.093" style="fill:url(#a);stroke-width:.234358"/><path fill="#f9f9f9" fill-rule="evenodd" d="M10.91 13.79a2.3 2.3 0 0 1 1.099-1.934 2.376 2.376 0 0 0-1.859-1.008c-.79-.08-1.544.47-1.945.47-.4 0-1.02-.456-1.676-.441a2.48 2.48 0 0 0-2.109 1.272c-.895 1.554-.234 3.858.644 5.118.427.615.938 1.31 1.603 1.285.666-.026.886-.415 1.664-.415.778 0 .996.415 1.678.4.682-.013 1.13-.627 1.554-1.246a5.536 5.536 0 0 0 .703-1.446 2.233 2.233 0 0 1-1.357-2.055zm-1.278-3.774a2.236 2.236 0 0 0 .527-1.624 2.278 2.278 0 0 0-1.488.771 2.11 2.11 0 0 0-.539 1.57 1.875 1.875 0 0 0 1.5-.717Z" style="stroke-width:.234358"/><path fill="#f9f9f9" d="M16.874 12.386v-1.172h-1.427v-1.64h-1.268v1.64h-1.107v1.172h1.107v4.253a1.905 1.905 0 0 0 1.903 1.903h.635v-1.26h-.635a.637.637 0 0 1-.635-.643v-4.253zm5.929-1.5L20.9 16.6l-1.905-5.714h-1.27l2.54 7.628h1.27l2.538-7.619z" style="stroke-width:.234358"/></svg>