<svg version="1.1" xmlns="http://www.w3.org/2000/svg" width="240" height="240">

<path d="M0 0 C0.09292952 10.01442037 0.16388109 20.02873712 0.20724869 30.04350185 C0.22806943 34.69444005 0.25628555 39.34508192 0.30175781 43.99584961 C0.34541328 48.48923188 0.36917852 52.9823302 0.37950897 57.47590828 C0.38686515 59.18503345 0.40122972 60.89414415 0.42292023 62.60314751 C0.55453843 73.4091201 0.42730548 82.81964348 -7.3125 91.1875 C-7.84488281 91.77917969 -8.37726563 92.37085938 -8.92578125 92.98046875 C-14.15243144 98.06931649 -19.76508122 102.37464224 -25.8125 106.4375 C-27.22807612 107.39942836 -28.64344119 108.36166737 -30.05859375 109.32421875 C-30.73647949 109.7836084 -31.41436523 110.24299805 -32.11279297 110.71630859 C-35.32899282 112.9039902 -38.50970647 115.14152209 -41.69140625 117.37890625 C-43.341512 118.53760995 -44.99561697 119.69062679 -46.65234375 120.83984375 C-50.1847897 123.29336348 -53.66055266 125.72419903 -57 128.4375 C-59 130 -59 130 -61 130 C-61.06976158 120.52434268 -61.12294334 111.04877489 -61.15543652 101.57291603 C-61.17103804 97.17205302 -61.19217452 92.77136678 -61.22631836 88.37060547 C-61.25910985 84.11713315 -61.2768944 79.86382999 -61.28463173 75.61024094 C-61.29013995 73.99406652 -61.30089542 72.37790051 -61.31719017 70.76179886 C-61.43766119 58.30907802 -61.07443105 48.13676642 -52.05078125 38.7734375 C-43.07953919 30.35145516 -32.77803646 23.16821094 -22.796875 16.0078125 C-19.20035115 13.42595041 -15.63152436 10.80718359 -12.0625 8.1875 C-11.4228833 7.71868408 -10.7832666 7.24986816 -10.12426758 6.7668457 C-9.51736084 6.32171631 -8.9104541 5.87658691 -8.28515625 5.41796875 C-7.42881592 4.79027588 -7.42881592 4.79027588 -6.55517578 4.14990234 C-5.23334323 3.17253479 -3.92561946 2.17613184 -2.62109375 1.17578125 C-1 0 -1 0 0 0 Z " fill="#060606" transform="translate(164,65)" data-index="1"></path>
<path d="M0 0 C2.2048343 27.57738898 2.2048343 27.57738898 -1.16455078 34.3359375 C-4.1685718 37.67831544 -7.94536377 39.39085294 -12.04101562 41.09570312 C-15.35725732 42.62653055 -18.09547932 44.85758179 -20.9375 47.125 C-21.47777832 47.54442871 -22.01805664 47.96385742 -22.57470703 48.39599609 C-30.305242 54.47152979 -35.22449914 60.48643736 -38 70 C-38.40706738 73.52955614 -38.30735092 76.95930362 -38.15234375 80.50390625 C-38.12300303 82.48108227 -38.09639219 84.45830036 -38.07226562 86.43554688 C-38.01449155 89.50740667 -37.93701474 92.57439405 -37.81176758 95.64428711 C-37.18388263 112.4070748 -37.18388263 112.4070748 -40.25900269 116.79751587 C-43.69833033 120.10772315 -47.67910392 122.01245342 -52 124 C-53.42232396 124.9835883 -54.82499906 125.99758565 -56.1875 127.0625 C-59 129 -59 129 -61 129 C-61.09307402 119.54164262 -61.16395333 110.08344523 -61.20724869 100.6247282 C-61.2280384 96.23166809 -61.25619641 91.8389235 -61.30175781 87.44604492 C-61.34552581 83.19903822 -61.36920174 78.95233318 -61.37950897 74.70511818 C-61.38684525 73.09254019 -61.40116992 71.47997691 -61.42292023 69.86752892 C-61.58589963 57.2732617 -60.57550918 46.7227332 -51.44921875 37.2421875 C-43.46908254 29.93660826 -34.45014405 23.8343719 -25.63671875 17.58984375 C-21.71116859 14.80338014 -17.82081609 11.96993246 -13.9375 9.125 C-13.3182666 8.67261963 -12.6990332 8.22023926 -12.06103516 7.75415039 C-9.377551 5.78506217 -6.75921018 3.80107211 -4.19140625 1.6796875 C-2 0 -2 0 0 0 Z " fill="#070707" transform="translate(134,44)" data-index="2"></path>
</svg>