<svg xmlns="http://www.w3.org/2000/svg" width="24" height="24" viewBox="0 0 24 24">
  <g transform="translate(1, 1) scale(0.92)">
    <path d="M5.883.59C4.66.672 3.94.828 3.258 1.172 1.93 1.828 1.035 3.023.746 4.504.57 5.398.555 6.25.578 12.633c.012 5.394.027 6.191.094 6.562.226 1.27.683 2.153 1.492 2.907.82.757 1.781 1.152 3.152 1.285.707.07 12.66.07 13.368 0 1.37-.133 2.332-.528 3.152-1.285.824-.766 1.297-1.696 1.492-2.938.082-.492.086-1.016.086-7.047 0-6.98 0-7.004-.238-7.941-.235-.934-.844-1.883-1.582-2.465-.45-.356-1.172-.73-1.68-.867-.934-.254-.887-.25-7.586-.258C8.91.582 6.016.586 5.883.59m14 3.52c.336.152.664.484.816.827l.137.29v13.5l-.148.312c-.254.535-.668.844-1.254.934-.172.027-3.258.039-7.645.035-6.84-.016-7.375-.02-7.562-.094a1.7 1.7 0 0 1-.973-1c-.086-.227-.09-.465-.09-6.96V5.226l.133-.282a1.63 1.63 0 0 1 .984-.894c.157-.047 1.633-.059 7.79-.051l7.593.008Zm0 0" style="stroke:none;fill-rule:nonzero;fill:#000;fill-opacity:1"/>
    <path d="M5.328 5.25a.99.99 0 0 0-.789.563l-.133.242v5.316c0 5.871-.02 5.496.297 5.828.082.082.234.196.336.242.18.086.465.09 6.953.09 7.465 0 6.93.024 7.27-.297.082-.082.195-.234.242-.336.086-.18.09-.425.09-5.511V6.055l-.125-.242c-.18-.336-.434-.512-.817-.563-.363-.047-12.933-.047-13.324 0m2.578 1.762c.07.05.16.152.188.21.047.09.058 1.012.047 4.2l-.008 4.094-.156.148-.149.156h-.91c-.852 0-.918-.004-1.043-.097-.254-.192-.254-.121-.242-4.446.015-3.75.02-3.996.101-4.109.168-.25.305-.277 1.211-.27.758.016.84.024.961.114m3.34-.035c.09.046.2.156.246.246.082.152.086.37.082 4.12 0 2.938-.015 4.005-.058 4.126a.63.63 0 0 1-.22.273c-.16.106-.187.106-1.038.094l-.883-.016-.148-.156-.157-.148V11.37c0-4.078 0-4.144.094-4.246.18-.203.328-.23 1.149-.234.664 0 .796.015.933.086m3.457.035c.07.05.16.152.188.21.046.09.058 1.012.046 4.2l-.007 4.094-.157.148-.148.156-.883.016c-.851.012-.879.012-1.039-.094a.63.63 0 0 1-.219-.273c-.043-.121-.058-1.188-.058-4.125-.004-3.75 0-3.969.082-4.121.164-.305.297-.336 1.234-.325.758.016.84.024.961.114m3.32-.047a.7.7 0 0 1 .243.2c.082.116.086.355.101 4.112.012 4.325.012 4.254-.242 4.446-.125.093-.191.097-1.043.097h-.91l-.149-.156-.156-.148V11.37c0-4.078 0-4.144.094-4.246.18-.203.328-.23 1.14-.234.61 0 .801.015.922.074m0 0" style="stroke:none;fill-rule:nonzero;fill:#000;fill-opacity:1"/>
    <path d="M6.488 7.984c-.011.032-.015.5-.011 1.04l.015.984.367.015c.235.008.391-.007.434-.043.05-.043.066-.246.066-.98 0-.512-.015-.96-.027-1.004-.023-.059-.11-.074-.422-.074-.277 0-.402.02-.422.062M9.871 7.992c-.012.043-.027.496-.027 1.008 0 .734.015.938.066.98.043.036.2.051.434.043l.367-.015V7.945l-.402-.015c-.34-.008-.414 0-.438.062M13.285 7.984c-.012.032-.015.5-.012 1.04l.016.984.367.015c.235.008.39-.007.434-.043.05-.043.066-.246.066-.98 0-.512-.015-.96-.027-1.004-.024-.059-.11-.074-.422-.074-.277 0-.402.02-.422.062M16.668 7.992c-.012.043-.027.496-.027 1.008 0 .734.015.938.066.98.043.036.2.051.434.043l.367-.015V7.945l-.403-.015c-.34-.008-.414 0-.437.062m0 0" style="stroke:none;fill-rule:nonzero;fill:#000;fill-opacity:1"/>
  </g>
</svg>