<svg width="104.34" height="117.86" xmlns="http://www.w3.org/2000/svg">
   <path
      d="m52.16 117.86 47.61-27.49-18.25-10.55-18.65 10.77a1.06 1.06 0 0 1-1.04 0 1.05 1.05 0 0 1-.52-.9v-25.6c0-.75.39-1.43 1.04-1.8l22.17-12.81a1.03 1.03 0 0 1 1.03 0c.33.19.53.53.53.9v21.54l18.26 10.55V27.49L52.16 57.61zm0 0" />
   <path fill="#4d4d4d"
      d="M41.49 90.6 22.82 79.83 4.56 90.37l47.6 27.49V57.61L0 27.49v54.98l18.25-10.55V50.38c.01-.37.21-.71.53-.89a1.04 1.04 0 0 1 1.04 0L42 62.28a2.1 2.1 0 0 1 1.04 1.8v25.6c0 .37-.2.71-.52.9a1 1 0 0 1-1.03.02" />
   <path fill="gray"
      d="M56.74 0v21.09l18.65 10.77a1.04 1.04 0 0 1 0 1.8L53.22 46.47a2.12 2.12 0 0 1-2.1 0L28.97 33.66a1.03 1.03 0 0 1-.52-.9 1.04 1.04 0 0 1 .52-.9l18.65-10.77V0L0 27.49l52.16 30.12 52.18-30.12Zm0 0" />
</svg>