<svg xmlns="http://www.w3.org/2000/svg" width="400" height="400" viewBox="0 0 400 400"><g fill-rule="evenodd"><path fill="#3594dc" d="M84.286 2.286c-.53.53-1.592.722-4.666.846-3.26.131-4.102.296-4.661.914-.529.584-1.241.754-3.159.754-1.968 0-2.625.164-3.2.8-.505.558-1.232.8-2.4.8s-1.895.242-2.4.8c-.398.44-1.118.8-1.6.8s-1.202.36-1.6.8c-.507.56-1.232.8-2.419.8-1.138 0-1.771.197-1.926.6-.126.33-.687.6-1.246.6s-1.325.36-1.702.8-1.067.8-1.534.8-1.175.36-1.573.8-1.11.8-1.581.8c-.472 0-1.557.718-2.419 1.6-.859.88-1.936 1.6-2.394 1.6-.485 0-1.819.998-3.206 2.4-1.36 1.374-2.724 2.4-3.192 2.4C36.298 22 22 36.305 22 37.416c0 .458-1.041 1.84-2.4 3.184-1.402 1.387-2.4 2.721-2.4 3.206 0 .458-.72 1.535-1.6 2.394-.882.862-1.6 1.947-1.6 2.419 0 .471-.36 1.183-.8 1.581s-.8 1.106-.8 1.573-.36 1.157-.8 1.534-.8 1.143-.8 1.702-.27 1.12-.6 1.246c-.403.155-.6.788-.6 1.926 0 1.187-.24 1.912-.8 2.419-.44.398-.8 1.118-.8 1.6s-.36 1.202-.8 1.6c-.558.505-.8 1.232-.8 2.4s-.242 1.895-.8 2.4c-.636.575-.8 1.232-.8 3.2S4.636 74.425 4 75c-.671.607-.8 1.232-.8 3.866 0 2.647-.126 3.25-.8 3.827-1.264 1.082-1.264 233.532 0 234.614.674.577.8 1.18.8 3.827 0 2.634.129 3.259.8 3.866.636.575.8 1.232.8 3.2s.164 2.625.8 3.2c.558.505.8 1.232.8 2.4s.242 1.895.8 2.4c.44.398.8 1.118.8 1.6s.36 1.202.8 1.6c.56.507.8 1.232.8 2.419 0 1.138.197 1.771.6 1.926.33.126.6.672.6 1.212 0 .617.594 1.564 1.6 2.55.88.862 1.6 1.928 1.6 2.369 0 .44.36 1.126.8 1.524s.8 1.11.8 1.581c0 .472.718 1.557 1.6 2.419.88.859 1.6 1.939 1.6 2.4s.72 1.541 1.6 2.4 1.6 1.933 1.6 2.386c0 1.111 12.703 13.814 13.814 13.814.474 0 2.111 1.314 3.986 3.2 1.98 1.992 3.501 3.2 4.029 3.2.466 0 1.173.36 1.571.8s1.118.8 1.6.8 1.202.36 1.6.8 1.084.8 1.524.8c.441 0 1.507.72 2.369 1.6.986 1.006 1.933 1.6 2.55 1.6.54 0 1.086.27 1.212.6.155.403.788.6 1.926.6 1.187 0 1.912.24 2.419.8.398.44 1.118.8 1.6.8s1.202.36 1.6.8c.505.558 1.232.8 2.4.8s1.895.242 2.4.8c.575.636 1.232.8 3.2.8 1.918 0 2.63.17 3.159.754.558.618 1.4.783 4.634.913 3.012.121 4.132.322 4.711.846 1.178 1.066 230.214 1.066 231.392 0 .579-.524 1.699-.725 4.711-.846 3.234-.13 4.076-.295 4.634-.913.529-.584 1.241-.754 3.159-.754 1.968 0 2.625-.164 3.2-.8.505-.558 1.232-.8 2.4-.8s1.895-.242 2.4-.8c.398-.44 1.118-.8 1.6-.8s1.202-.36 1.6-.8c.507-.56 1.232-.8 2.419-.8 1.138 0 1.771-.197 1.926-.6.126-.33.672-.6 1.212-.6.617 0 1.564-.594 2.55-1.6.862-.88 1.928-1.6 2.369-1.6.44 0 1.126-.36 1.524-.8s1.118-.8 1.6-.8 1.202-.36 1.6-.8 1.105-.8 1.571-.8c.528 0 2.049-1.208 4.029-3.2 1.875-1.886 3.512-3.2 3.986-3.2 1.111 0 13.814-12.703 13.814-13.814 0-.453.72-1.527 1.6-2.386s1.6-1.939 1.6-2.4.72-1.541 1.6-2.4c.882-.862 1.6-1.947 1.6-2.419 0-.471.36-1.183.8-1.581s.8-1.084.8-1.524c0-.441.72-1.507 1.6-2.369 1.006-.986 1.6-1.933 1.6-2.55 0-.54.27-1.086.6-1.212.403-.155.6-.788.6-1.926 0-1.187.24-1.912.8-2.419.44-.398.8-1.118.8-1.6s.36-1.202.8-1.6c.558-.505.8-1.232.8-2.4s.242-1.895.8-2.4c.636-.575.8-1.232.8-3.2 0-1.918.17-2.63.754-3.159.618-.558.783-1.4.913-4.634.121-3.012.322-4.132.846-4.711 1.066-1.178 1.066-230.214 0-231.392-.524-.579-.725-1.699-.846-4.711-.13-3.234-.295-4.076-.913-4.634-.584-.529-.754-1.241-.754-3.159 0-1.968-.164-2.625-.8-3.2-.558-.505-.8-1.232-.8-2.4s-.242-1.895-.8-2.4c-.44-.398-.8-1.118-.8-1.6s-.36-1.202-.8-1.6c-.56-.507-.8-1.232-.8-2.419 0-1.138-.197-1.771-.6-1.926-.33-.126-.6-.672-.6-1.212 0-.617-.594-1.564-1.6-2.55-.88-.862-1.6-1.928-1.6-2.369 0-.44-.36-1.126-.8-1.524s-.8-1.11-.8-1.581c0-.472-.718-1.557-1.6-2.419-.88-.859-1.6-1.939-1.6-2.4s-.72-1.541-1.6-2.4-1.6-1.933-1.6-2.386c0-1.111-12.703-13.814-13.814-13.814-.474 0-2.111-1.314-3.986-3.2-1.98-1.992-3.501-3.2-4.029-3.2-.466 0-1.173-.36-1.571-.8s-1.118-.8-1.6-.8-1.202-.36-1.6-.8-1.084-.8-1.524-.8c-.441 0-1.507-.72-2.369-1.6-.986-1.006-1.933-1.6-2.55-1.6-.54 0-1.086-.27-1.212-.6-.155-.403-.788-.6-1.926-.6-1.187 0-1.912-.24-2.419-.8-.398-.44-1.118-.8-1.6-.8s-1.202-.36-1.6-.8c-.505-.558-1.232-.8-2.4-.8s-1.895-.242-2.4-.8c-.575-.636-1.232-.8-3.2-.8-1.918 0-2.63-.17-3.159-.754-.558-.618-1.4-.783-4.634-.913-3.012-.121-4.132-.322-4.711-.846-1.177-1.065-230.345-1.066-231.41-.001M316.487 16.1c.818.385 2.351.7 3.406.7 1.155 0 2.513.319 3.411.8.821.44 2.034.8 2.696.8s1.875.36 2.696.8c.82.44 1.887.8 2.37.8.482 0 1.125.248 1.428.551s1.114.675 1.801.826 1.455.521 1.705.823.995.667 1.655.812c.659.145 1.292.505 1.405.801.114.296.73.653 1.369.793s1.266.424 1.394.631c.127.206.804.644 1.504.972s1.993 1.036 2.873 1.573 1.96 1.149 2.4 1.36 1.498 1.03 2.35 1.821 1.702 1.437 1.886 1.437c.185 0 .529.36.764.8s.602.8.814.8.71.315 1.106.7 1.327 1.15 2.069 1.7c2.428 1.801 5.164 4.72 7.569 8.077.739 1.032 1.591 1.971 1.893 2.087s.549.374.549.573.647 1.06 1.437 1.913c.791.852 1.61 1.91 1.821 2.35s.823 1.52 1.36 2.4 1.245 2.173 1.573 2.873.766 1.377.972 1.504c.207.128.49.755.631 1.394.14.639.497 1.255.793 1.369.296.113.656.746.801 1.405.145.66.51 1.405.812 1.655s.672 1.018.823 1.705.498 1.473.77 1.745c.273.273.616 1.246.763 2.163.146.916.531 1.931.855 2.255s.59 1.251.591 2.061c.002.809.291 2.011.644 2.671.352.66.794 2.524.982 4.141.189 1.618.574 3.22.857 3.562.923 1.111.74 229.28-.185 231.811-.385 1.053-.706 2.673-.714 3.6-.007.927-.361 2.406-.786 3.286s-.779 2.253-.786 3.051-.265 1.659-.572 1.914-.68 1.112-.828 1.904c-.149.792-.618 2.087-1.042 2.879s-.772 1.675-.772 1.962-.322 1.01-.716 1.606c-1.226 1.856-1.659 2.634-2.325 4.184-.355.825-.792 1.5-.971 1.5s-.44.528-.582 1.172c-.142.645-.516 1.387-.832 1.649s-.574.661-.574.887c0 .541-2.408 4.128-3.956 5.892-2.644 3.013-3.715 4.294-5.62 6.723-1.088 1.387-3.114 3.413-4.501 4.501-2.429 1.905-3.71 2.976-6.723 5.62-1.829 1.604-5.162 3.794-6.3 4.138-.495.149-.9.42-.9.602 0 .181-.468.447-1.04.59-.572.144-1.517.576-2.1.96-1.693 1.115-2.575 1.616-3.911 2.219-.688.311-1.374.764-1.524 1.006-.15.243-.579.441-.955.441-.375 0-1.309.334-2.076.741-.767.408-2.051.863-2.854 1.011s-1.68.534-1.949.859c-.287.346-1.175.589-2.151.589-.914 0-2.078.292-2.587.648s-2.303.803-3.986.992-3.601.572-4.263.851c-1.773.75-228.235.75-230.008 0-.662-.279-2.58-.663-4.263-.851-1.683-.189-3.477-.635-3.986-.992-.509-.356-1.673-.648-2.587-.648-.976 0-1.864-.243-2.151-.589-.269-.325-1.146-.711-1.949-.859s-2.087-.603-2.854-1.011-1.629-.741-1.916-.741-1.01-.322-1.606-.716c-1.856-1.226-2.634-1.659-4.184-2.325-.825-.355-1.5-.792-1.5-.971s-.54-.443-1.2-.588-1.2-.417-1.2-.605-.405-.464-.9-.613c-1.138-.344-4.471-2.534-6.3-4.138-3.013-2.644-4.294-3.715-6.723-5.62-1.387-1.088-3.413-3.114-4.501-4.501-1.912-2.438-2.471-3.105-6.055-7.236-1.736-2.001-2.302-2.849-3.304-4.96-.333-.7-.774-1.377-.98-1.504-.207-.128-.494-.77-.638-1.428S25.79 342 25.612 342c-.179 0-.616-.675-.971-1.5-.655-1.524-1.082-2.296-2.275-4.116-.366-.558-.79-1.581-.941-2.272-.152-.691-.515-1.455-.807-1.697-.292-.243-.649-1.23-.794-2.195s-.524-1.971-.844-2.236-.586-1.135-.594-1.933c-.007-.798-.361-2.171-.786-3.051s-.779-2.359-.786-3.286-.329-2.547-.714-3.6c-1.087-2.972-1.087-229.77 0-232.422.385-.94.7-2.515.7-3.502 0-1.029.341-2.429.8-3.286.44-.82.8-2.157.8-2.97 0-.812.265-1.742.589-2.066s.709-1.339.855-2.255c.147-.917.499-1.899.783-2.182.283-.284.641-1.186.795-2.005.153-.82.509-1.578.789-1.686.281-.107.628-.822.772-1.589.144-.766.504-1.486.8-1.6.296-.113.654-.824.796-1.579.141-.754.427-1.372.634-1.372s.655-.585.996-1.3c1.038-2.177 1.902-3.668 2.433-4.199.278-.278.614-.848.747-1.266s.505-.862.826-.985c.322-.124.585-.494.585-.823 0-.33.36-.792.8-1.027s.8-.627.8-.871c0-1.44 13.289-14.729 14.729-14.729.244 0 .636-.36.871-.8s.683-.8.994-.8c.312 0 .71-.226.886-.501.281-.441 1.094-1.009 4.32-3.017.44-.274 1.385-.767 2.1-1.095.715-.329 1.3-.767 1.3-.974s.618-.493 1.372-.634 1.466-.5 1.579-.796c.114-.296.834-.656 1.6-.8s1.49-.514 1.609-.822c.118-.309.538-.561.933-.561.396 0 1.346-.334 2.113-.741.767-.408 2.095-.871 2.951-1.029.857-.158 1.815-.545 2.129-.859s1.143-.577 1.843-.585c.699-.007 1.991-.361 2.871-.786s2.451-.779 3.492-.786 2.57-.273 3.4-.59c.829-.317 1.868-.657 2.308-.755 2.911-.653 229.275-.034 230.687.631M35.1 242.3c-.153 64.896-.176 61.766.461 62.887.358.632.628 2.723.746 5.8.146 3.771.349 5.083.939 6.06.415.686.754 1.842.754 2.569s.291 1.643.647 2.036c.356.394.742 1.578.857 2.632s.433 2.049.708 2.211.62.778.768 1.368.618 1.517 1.045 2.059.775 1.302.775 1.689.247.798.549.914c.301.116.663.669.804 1.229.14.56.838 1.853 1.551 2.873s1.476 2.127 1.696 2.46c3.404 5.153 15.509 15.923 18.835 16.757.566.143 1.12.495 1.231.783s.738.642 1.394.786c.657.144 1.291.515 1.41.825.118.309.532.562.919.562s1.132.335 1.657.744 1.794.868 2.821 1.019c1.027.152 2.084.537 2.349.857s1.052.58 1.748.58c.697 0 1.917.332 2.712.737.987.503 2.775.818 5.64.993 2.307.141 5.243.53 6.523.863 3.535.921 207.187.921 210.722 0 1.28-.333 4.243-.717 6.584-.853 2.695-.156 4.486-.446 4.884-.791.346-.3 1.516-.66 2.6-.801s2.246-.493 2.581-.783c.336-.29 1.416-.653 2.4-.806.985-.154 2.219-.613 2.744-1.019.525-.407 1.27-.74 1.657-.74s.801-.253.919-.562c.119-.31.753-.681 1.41-.825s1.284-.498 1.394-.786c.111-.288.665-.64 1.231-.783 3.326-.834 15.431-11.604 18.835-16.757.22-.333.983-1.44 1.696-2.46s1.411-2.313 1.551-2.873c.141-.56.503-1.113.804-1.229s.549-.527.549-.914.349-1.147.775-1.689.897-1.468 1.045-2.059c.148-.59.494-1.206.768-1.368.275-.162.593-1.157.708-2.211s.501-2.238.857-2.632c.356-.393.647-1.31.647-2.036 0-.727.339-1.883.754-2.569.59-.977.793-2.289.939-6.06.118-3.077.388-5.168.746-5.8.637-1.121.614 2.009.461-62.887l-.1-42.3h-73.6v10.669c0 9.531-.073 10.749-.689 11.429-.474.524-.739 1.655-.85 3.631-.113 2.013-.386 3.156-.911 3.825-.501.637-.75 1.604-.75 2.912 0 1.321-.185 2.03-.567 2.177-.324.124-.683 1.07-.841 2.215-.151 1.1-.508 2.088-.792 2.197-.285.11-.637.997-.783 1.972-.159 1.06-.477 1.773-.79 1.773-.3 0-.631.666-.774 1.556-.136.856-.497 1.652-.8 1.768s-.67.839-.813 1.605c-.144.767-.527 1.495-.851 1.62-.324.124-.589.585-.589 1.023s-.345 1.119-.768 1.512c-.422.394-.891 1.211-1.043 1.816s-.426 1.1-.611 1.1c-.184 0-.569.417-.856.926-1.261 2.235-2.428 3.874-2.762 3.874-.198 0-.36.268-.36.597s-.36.821-.8 1.096-.8.648-.8.83c0 .46-1.942 3.005-3.5 4.585-.715.725-1.3 1.419-1.3 1.541 0 .635-8.821 8.567-10.05 9.038-.413.158-.75.479-.75.713s-.301.541-.669.682-.98.541-1.358.887c-1.824 1.67-2.89 2.431-3.407 2.431-.311 0-.566.189-.566.421s-.54.609-1.2.839-1.2.567-1.2.748-.614.533-1.365.78c-.75.248-1.465.712-1.587 1.031-.123.32-.561.581-.974.581s-1.167.36-1.674.8-1.305.8-1.772.8-1.158.36-1.535.8-1.109.8-1.627.8-1.268.36-1.666.8c-.411.454-1.232.8-1.899.8-.646 0-1.632.36-2.192.8-.559.44-1.563.8-2.231.8s-1.526.281-1.905.625c-.38.343-1.744.727-3.032.852-1.287.126-2.635.484-2.994.795-.365.317-1.953.671-3.6.803-1.621.129-3.487.524-4.147.877-1.031.551-3.035.642-14.2.642s-13.169-.091-14.2-.642c-.66-.353-2.526-.748-4.147-.877-1.647-.132-3.235-.486-3.6-.803-.359-.311-1.707-.669-2.994-.795-1.288-.125-2.652-.509-3.032-.852-.379-.344-1.237-.625-1.905-.625s-1.672-.36-2.231-.8c-.56-.44-1.546-.8-2.192-.8-.667 0-1.488-.346-1.899-.8-.398-.44-1.148-.8-1.666-.8s-1.25-.36-1.627-.8-1.067-.8-1.535-.8-1.265-.36-1.772-.8-1.261-.8-1.674-.8-.851-.261-.974-.581c-.122-.319-.837-.783-1.587-1.031-.751-.247-1.365-.598-1.365-.78 0-.181-.54-.518-1.2-.748s-1.2-.608-1.2-.839c0-.232-.255-.421-.566-.421-.525 0-1.626-.791-3.476-2.5-.417-.385-.928-.7-1.135-.7-.208 0-.613-.332-.9-.737s-.727-.81-.976-.9c-.956-.344-9.747-8.384-9.747-8.914 0-.122-.585-.816-1.3-1.541-1.558-1.58-3.5-4.125-3.5-4.585 0-.182-.36-.555-.8-.83s-.8-.768-.8-1.096-.162-.597-.36-.597c-.313 0-1.026-.973-2.643-3.607-.221-.36-.716-.969-1.1-1.353-.383-.383-.697-1.004-.697-1.38s-.36-.99-.8-1.367-.8-1.053-.8-1.502-.265-.918-.589-1.042c-.324-.125-.707-.853-.851-1.62-.143-.766-.503-1.486-.8-1.6-.296-.113-.656-.833-.8-1.6-.143-.766-.5-1.484-.791-1.596s-.648-.986-.791-1.942c-.144-.955-.493-1.826-.778-1.936-.284-.109-.641-1.097-.792-2.197-.158-1.145-.517-2.091-.841-2.215-.382-.147-.567-.856-.567-2.177 0-1.308-.249-2.275-.75-2.912-.523-.666-.798-1.81-.909-3.792-.112-1.992-.366-3.044-.851-3.529-.619-.619-.69-1.793-.69-11.462V200H35.2zm112.5-39.463c0 2.231.171 3.054.8 3.854.705.897.8 1.623.8 6.143 0 4.219.11 5.188.621 5.474.396.221.707 1.173.856 2.62.129 1.25.372 2.272.54 2.272.398 0 1.183 2.267 1.183 3.417 0 .494.27 1.001.6 1.128.33.126.6.596.6 1.042s.342 1.155.759 1.572c.418.418.879 1.303 1.025 1.967s.524 1.307.84 1.428c.317.122.576.436.576.7s.269.764.598 1.112c1.447 1.534 2.602 3.196 2.602 3.745 0 .328.36.69.8.805s.8.496.8.847c0 .35.258.637.573.637s.687.36.827.8.5.8.8.8.66.36.8.8.472.8.738.8.774.315 1.128.7 1.068 1.017 1.588 1.404c.521.386 1.512 1.151 2.204 1.7s1.437.996 1.657.996.503.27.63.6c.126.33.596.6 1.042.6s1.155.342 1.572.759c.418.418 1.303.879 1.967 1.025s1.307.524 1.428.84c.122.317.668.576 1.215.576 1.162 0 3.031.779 3.031 1.264 0 .185.81.336 1.8.336 1.217 0 2.039.239 2.538.738.603.603 1.613.782 5.5.976 2.619.131 5.347.468 6.062.75 1.056.415 1.544.415 2.6 0 .715-.282 3.443-.619 6.062-.75 3.887-.194 4.897-.373 5.5-.976.499-.499 1.321-.738 2.538-.738.99 0 1.8-.151 1.8-.336 0-.485 1.869-1.264 3.031-1.264.547 0 1.093-.259 1.215-.576.121-.316.764-.694 1.428-.84s1.549-.607 1.967-1.025c.417-.417 1.125-.759 1.572-.759.446 0 .916-.27 1.042-.6.127-.33.41-.6.63-.6s.965-.448 1.657-.996c.692-.549 1.683-1.314 2.204-1.7.52-.387 1.235-1.019 1.588-1.404.354-.385.862-.7 1.128-.7s.598-.36.738-.8.5-.8.8-.8.66-.36.8-.8.491-.8.78-.8.621-.36.736-.8.496-.8.847-.8c.35 0 .637-.289.637-.642 0-.57.933-1.952 2.537-3.758.293-.33.647-.915.785-1.3.139-.385.424-.7.634-.7.209 0 .503-.558.653-1.241.15-.682.614-1.582 1.032-2 .417-.417.759-1.209.759-1.759 0-.622.227-1 .6-1 .363 0 .6-.371.6-.94 0-1.184.778-3.46 1.183-3.46.168 0 .409-1.007.536-2.238.133-1.285.487-2.434.834-2.7.473-.363.628-1.643.725-5.995.104-4.719.225-5.608.822-6.044.554-.404.7-1.109.7-3.367V200h-32.731l-.135 6.559c-.114 5.562-.24 6.676-.834 7.331-.385.425-.7 1.091-.7 1.479s-.36.8-.8.915-.8.539-.8.942-.45 1.218-1 1.812c-.55.593-1 1.233-1 1.42 0 .188-.23.342-.511.342s-.819.36-1.196.8-1.041.8-1.475.8-.983.36-1.218.8-.699.8-1.031.8-.989.36-1.461.8c-.787.733-1.412.8-7.508.8s-6.721-.067-7.508-.8c-.472-.44-1.13-.8-1.461-.8s-.796-.36-1.031-.8-.784-.8-1.218-.8-1.098-.36-1.475-.8-.915-.8-1.196-.8-.511-.154-.511-.342c0-.187-.45-.827-1-1.42-.55-.594-1-1.409-1-1.812s-.36-.827-.8-.942-.8-.527-.8-.915-.315-1.054-.7-1.479c-.594-.655-.72-1.769-.834-7.331l-.135-6.559H147.6z"/><path fill="#4cacf4" d="M94.2 35.399c-1.1.3-3.857.673-6.126.829-2.759.19-4.609.531-5.584 1.028-.803.409-1.923.744-2.49.744s-1.737.36-2.6.8-2.049.8-2.636.8c-.586 0-1.281.258-1.543.574s-1.004.69-1.649.832c-.644.142-1.172.404-1.172.582 0 .179-.705.607-1.566.952-.861.344-1.673.8-1.805 1.012-.131.213-.761.501-1.4.642-.639.14-1.262.514-1.383.83-.122.317-.426.576-.676.576-.429 0-2.205 1.282-3.604 2.602-.348.329-.724.598-.835.598-.898 0-10.331 9.473-10.331 10.375 0 .136-.315.551-.7.922-1.484 1.431-2.045 2.141-2.528 3.203-.275.605-.632 1.1-.793 1.1s-.413.481-.56 1.068-.617 1.512-1.044 2.054c-.426.542-.775 1.21-.775 1.483s-.252.706-.561.962c-.308.256-.682.953-.831 1.549s-.504 1.354-.788 1.684-.645 1.32-.799 2.2-.509 1.96-.788 2.4-.63 1.578-.78 2.528c-.149.951-.52 2.121-.825 2.6s-.677 2.582-.83 4.672-.526 4.88-.832 6.2c-.453 1.962-.537 8.497-.462 35.8l.091 33.4.105-32.758c.098-30.623.15-32.79.802-33.267.575-.419.722-1.289.833-4.942l.136-4.433H363.2v3.55c0 4.258.31 6.05 1.048 6.05.458 0 .564 5.37.652 32.9l.105 32.9.091-33.4c.076-27.495-.007-33.824-.469-35.8-.308-1.32-.685-4.11-.837-6.2s-.522-4.192-.824-4.672-.67-1.649-.819-2.6c-.15-.95-.501-2.088-.78-2.528s-.63-1.471-.78-2.291-.793-2.44-1.43-3.6-1.424-2.682-1.751-3.382-.763-1.377-.969-1.504c-.207-.128-.494-.77-.638-1.428s-.433-1.195-.641-1.195-.564-.49-.792-1.089c-.396-1.041-.917-1.72-2.466-3.214-.385-.371-.7-.786-.7-.922 0-.934-9.441-10.375-10.375-10.375-.136 0-.551-.315-.922-.7-1.494-1.549-2.173-2.07-3.214-2.466-.599-.228-1.089-.584-1.089-.792s-.538-.497-1.195-.641c-.658-.144-1.303-.436-1.434-.649-.132-.212-.944-.668-1.805-1.012-.861-.345-1.566-.768-1.566-.94s-.495-.437-1.1-.588-1.37-.508-1.7-.794-1.44-.641-2.467-.789c-1.027-.147-2.084-.529-2.349-.849s-1.052-.58-1.748-.58c-.697 0-1.918-.332-2.713-.737-.963-.491-2.791-.826-5.469-1.001-2.212-.145-5.057-.534-6.322-.863-3.302-.86-208.376-.86-211.532 0m98.5 64.064c-.385.108-.7.367-.7.576 0 .21-.45.552-1 .761s-1 .655-1 .99c0 .381-.369.61-.984.61-.542 0-1.307.331-1.7.736-.394.405-1.031.849-1.416.987-.385.139-.7.508-.7.822s-.26.669-.578.791-.698.861-.844 1.643-.505 1.421-.796 1.421c-.29 0-.654.405-.809.9-.154.495-.45 1.009-.656 1.141-.916.591-1.093 4.566-1.022 22.959l.077 19.6.214-19.6c.193-17.662.283-19.727.914-20.88.385-.704.7-1.524.7-1.822s.405-1.101.9-1.783a64 64 0 0 0 1.5-2.162c.912-1.401 3.329-3.65 4.985-4.64 4.192-2.503 5.63-2.913 10.215-2.913s6.023.41 10.215 2.913c1.656.99 4.073 3.239 4.985 4.64.33.507 1.005 1.48 1.5 2.162s.9 1.484.9 1.783.315 1.118.7 1.822c.63 1.153.722 3.229.923 20.88l.222 19.6-.022-20.658c-.021-18.514-.091-20.736-.676-21.4-.359-.408-.776-1.147-.927-1.642-.15-.495-.512-.9-.802-.9s-.647-.63-.792-1.4c-.144-.77-.439-1.4-.654-1.4s-.563-.45-.772-1-.615-1-.901-1-.829-.36-1.206-.8-1.137-.8-1.689-.8c-.633 0-1.004-.225-1.004-.61 0-.335-.431-.774-.958-.974s-1.037-.601-1.133-.89c-.175-.527-13.522-.933-15.209-.463m-71.4 22.149c-.495.199-.9.548-.9.775s-.467.413-1.037.413c-.701 0-1.106.259-1.247.8-.115.44-.541.8-.947.8s-1.06.331-1.453.736c-.394.405-1.031.849-1.416.987-.385.139-.7.5-.7.802s-.36.877-.8 1.275c-1.006.91-1.154 2.192-.158 1.365.353-.292.8-.949.994-1.458.193-.51.984-1.3 1.758-1.756.773-.457 1.406-.992 1.406-1.191 0-.198.242-.36.538-.36s.855-.35 1.241-.777 1.27-.899 1.962-1.047c.693-.147 1.509-.471 1.815-.718 1.946-1.572 13.113-.332 15.126 1.681.539.539.588.522.457-.163-.082-.422-.505-.836-.942-.92s-1.224-.491-1.749-.904c-1.056-.831-12.06-1.098-13.948-.34m143.485.314c-.544.428-1.346.846-1.782.93-.437.084-.86.498-.942.92-.131.685-.082.702.457.163 2.013-2.013 13.18-3.253 15.126-1.681.306.247 1.122.571 1.815.718s1.575.619 1.962 1.047c.386.427.945.777 1.241.777s.538.162.538.36c0 .199.633.734 1.406 1.191.774.456 1.565 1.246 1.758 1.756.194.509.641 1.166.994 1.458.996.827.848-.455-.158-1.365-.44-.398-.8-.972-.8-1.275s-.315-.663-.7-.802c-.385-.138-1.022-.582-1.416-.987s-1.047-.736-1.453-.736-.832-.36-.947-.8c-.13-.499-.546-.8-1.102-.8-.492 0-1.124-.315-1.405-.7-.827-1.133-13.185-1.281-14.592-.174m-124.71 3.776c1.031.714 2.11 1.748 2.399 2.298s.649 1.094.801 1.209c.656.495 2.337 3.302 2.575 4.301.143.6.46 1.343.705 1.651.316.398.506 11.102.656 36.8l.212 36.239-.012-36.858c-.01-33.353-.072-36.929-.657-37.6-.356-.408-.764-1.237-.908-1.842s-.435-1.1-.648-1.1-.65-.63-.972-1.4-.753-1.4-.959-1.4-.471-.373-.591-.83c-.119-.456-.59-.927-1.046-1.046-.457-.12-.83-.447-.83-.728 0-.552-.866-.997-1.933-.994-.377.002.148.567 1.208 1.3m119.625-1.037c-.275.111-.5.436-.5.722s-.373.617-.83.737c-.456.119-.927.59-1.046 1.046-.12.457-.385.83-.591.83s-.637.63-.959 1.4-.759 1.4-.972 1.4-.504.495-.648 1.1-.552 1.434-.908 1.842c-.584.671-.647 4.23-.656 37.4l-.01 36.658.222-35.8c.254-40.827.038-38.286 3.598-42.341.33-.376.836-1.128 1.125-1.671s1.369-1.572 2.4-2.286c1.695-1.173 1.568-1.76-.225-1.037m-148.6 6.167c-.385.224-.7.664-.7.978s-.359 1.16-.799 1.88c-.587.964-.784 1.944-.743 3.71l.055 2.4.302-2c.376-2.48 1.509-5.77 2.308-6.7.681-.793.584-.854-.423-.268m177.339.21c.837.992 1.965 4.244 2.346 6.758l.302 2 .054-2.4c.04-1.791-.148-2.705-.741-3.6-.437-.66-.796-1.509-.797-1.886s-.408-.898-.903-1.158c-.855-.449-.868-.435-.261.286M108.954 212c0 2.75.064 3.875.142 2.5a54 54 0 0 0 0-5c-.078-1.375-.142-.25-.142 2.5m182 0c0 2.75.064 3.875.142 2.5a54 54 0 0 0 0-5c-.078-1.375-.142-.25-.142 2.5m-110.061-2.8c0 .77.082 1.085.183.7s.1-1.015 0-1.4c-.101-.385-.183-.07-.183.7m37.907-.187c0 .557-.27 1.659-.6 2.449-.784 1.876-.769 2.672.021 1.156.655-1.256 1.262-4.618.833-4.618-.14 0-.254.456-.254 1.013m-70.947 1.387c.149.99.405 2.7.567 3.8.252 1.7.274 1.574.148-.837-.081-1.56-.336-3.27-.567-3.8-.337-.772-.366-.606-.148.837m103.996-.716c-.138.504-.32 2.176-.404 3.716-.083 1.54-.083 2.26.002 1.6.084-.66.359-2.239.61-3.51.447-2.261.291-3.616-.208-1.806m-70.635 1.37c-.008.25.255.97.584 1.6s.592.876.585.546c-.014-.717-1.148-2.8-1.169-2.146m-71.987 7.22c-.03.973.699 3.133.967 2.866.094-.095-.079-.975-.385-1.956-.326-1.048-.567-1.423-.582-.91m181.091.326c-.144.66-.376 1.56-.515 2-.14.44.039.295.396-.323s.59-1.518.516-2c-.114-.739-.176-.689-.397.323m-40.046 1.219c-.37.774-.668 1.627-.663 1.895.005.267.368-.306.807-1.274.951-2.096.823-2.649-.144-.621m-100.748.381c.202.44.468 1.07.59 1.4.193.518.227.515.254-.024.018-.342-.248-.972-.59-1.4-.612-.764-.616-.763-.254.024m40.876 2.557c0 .507 1.577 1.399 1.901 1.075.128-.127.035-.232-.206-.232s-.721-.283-1.066-.629c-.346-.345-.629-.442-.629-.214m18.8-.085c0 .223-.405.601-.9.84s-.709.446-.476.461c.672.043 2.006-1.077 1.675-1.407-.164-.165-.299-.117-.299.106m-98.707 2.128c0 .77.082 1.085.183.7s.1-1.015 0-1.4c-.101-.385-.183-.07-.183.7m39.907-.953c0 .22.264.749.587 1.177.323.427.588.596.588.376s-.265-.749-.588-1.176c-.323-.428-.587-.597-.587-.377m98.457.61c-.282.452-.425.909-.317 1.016.107.108.404-.195.66-.673.605-1.13.324-1.41-.343-.343m40.436.343c0 .77.082 1.085.183.7s.1-1.015 0-1.4c-.101-.385-.183-.07-.183.7m-95.693-.2c.274.33.78.6 1.125.6.503 0 .473-.117-.149-.587-1.015-.769-1.61-.776-.976-.013m11.824.013c-.622.47-.652.587-.149.587.345 0 .851-.27 1.125-.6.634-.763.039-.756-.976.013m-7.524.882c1.155.081 3.045.081 4.2 0s.21-.147-2.1-.147-3.255.066-2.1.147m90.557 2.162c-.282.452-.425.909-.317 1.016.107.108.404-.195.66-.673.605-1.13.324-1.41-.343-.343M152 227.783c0 .16.36.748.8 1.308.44.559.8.886.8.726s-.36-.748-.8-1.308c-.44-.559-.8-.886-.8-.726m3.771 6.846c.346.345.629.825.629 1.066s.105.334.232.206c.324-.324-.568-1.901-1.075-1.901-.228 0-.131.283.214.629m6.516 8.18c.708.742 1.355 1.269 1.438 1.17s-.496-.706-1.287-1.35L161 241.458zm30.018 15.074c.497.096 1.217.092 1.6-.008.382-.1-.025-.179-.905-.174-.88.004-1.193.086-.695.182m14 0c.497.096 1.217.092 1.6-.008.382-.1-.025-.179-.905-.174-.88.004-1.193.086-.695.182m-10.705.517c1.368.438 2.419.438 1.4 0-.44-.189-1.16-.338-1.6-.332-.643.009-.604.075.2.332m7.4 0c-1.019.438.032.438 1.4 0 .804-.257.843-.323.2-.332-.44-.006-1.16.143-1.6.332m65.434 7.753-.965 1.247 1.144-1.088c.63-.598 1.064-1.159.966-1.247s-.614.402-1.145 1.088M134.8 270.2c1.195 1.21 2.263 2.2 2.373 2.2s-.778-.99-1.973-2.2-2.263-2.2-2.373-2.2.778.99 1.973 2.2m129.986.1-2.186 2.3 2.3-2.186c2.137-2.032 2.483-2.414 2.186-2.414-.062 0-1.097 1.035-2.3 2.3"/><path fill="#44a4ec" d="M36.735 92.033c-.111 3.643-.259 4.523-.829 4.94-.654.477-.702 5.82-.835 93.867-.077 51.348-.079 74.415-.004 51.26l.137-42.1H108.8l.001-32.5c.002-31.774.02-32.529.8-33.81.44-.72.799-1.569.799-1.886s.36-.769.8-1.004.8-.754.8-1.152.36-1.05.8-1.448.8-.972.8-1.275.315-.663.7-.802c.385-.138 1.022-.582 1.416-.987s1.047-.736 1.453-.736.832-.36.947-.8c.13-.499.546-.8 1.102-.8.492 0 1.124-.315 1.405-.7.856-1.173 13.066-1.28 14.624-.128.616.455 1.415.828 1.774.828.36 0 .748.36.863.8s.534.8.93.8c1.119 0 1.986.435 1.986.996 0 .281.373.608.83.728.456.119.927.59 1.046 1.046.12.457.385.83.591.83s.637.63.959 1.4.759 1.4.972 1.4.504.495.648 1.1.552 1.434.908 1.842c.581.668.657 4.013.757 33.5l.111 32.758h32.709l.135 6.559c.114 5.562.24 6.676.834 7.331.385.425.7 1.091.7 1.479s.36.8.8.915.8.539.8.942.45 1.218 1 1.812c.55.593 1 1.233 1 1.42 0 .188.23.342.511.342s.819.36 1.196.8.979.8 1.338.8c.879 0-.03-1.138-1.291-1.618-.484-.183-1.532-1.318-2.331-2.521s-1.715-2.405-2.037-2.673c-.322-.267-.587-.779-.588-1.137s-.309-1.191-.683-1.851c-1.349-2.383-1.676-100.182-.339-101.519.285-.285.644-.915.798-1.4s.518-.881.808-.881.649-.639.796-1.421c.146-.782.526-1.521.844-1.643s.578-.478.578-.791.315-.683.7-.822 1.022-.582 1.416-.987 1.158-.736 1.7-.736c.615 0 .984-.229.984-.61 0-.335.431-.774.958-.974s1.037-.601 1.133-.89c.256-.768 15.562-.768 15.818 0 .096.289.606.69 1.133.89s.958.639.958.974c0 .385.371.61 1.004.61.552 0 1.312.36 1.689.8s.919.8 1.206.8.692.45.901 1 .556 1 .772 1 .51.63.654 1.4.501 1.4.792 1.4c.29 0 .652.405.802.9s.568 1.234.927 1.641c1.275 1.447.827 98.974-.464 101.259-.373.66-.679 1.493-.681 1.851-.001.358-.266.87-.588 1.137-.322.268-1.239 1.47-2.037 2.673-.799 1.203-1.847 2.338-2.331 2.521-1.261.48-2.17 1.618-1.291 1.618.359 0 .961-.36 1.338-.8s.915-.8 1.196-.8.511-.154.511-.342c0-.187.45-.827 1-1.42.55-.594 1-1.409 1-1.812s.36-.827.8-.942.8-.527.8-.915.315-1.054.7-1.479c.594-.655.72-1.769.834-7.331l.135-6.559h32.709l.111-32.758c.1-29.487.176-32.832.757-33.5.356-.408.764-1.237.908-1.842s.435-1.1.648-1.1.65-.63.972-1.4.753-1.4.959-1.4.471-.373.591-.83c.119-.456.59-.927 1.046-1.046.457-.12.83-.447.83-.728 0-.561.867-.996 1.986-.996.396 0 .815-.36.93-.8s.503-.8.863-.8c.359 0 1.158-.373 1.774-.828 1.558-1.152 13.768-1.045 14.624.128.281.385.913.7 1.405.7.556 0 .972.301 1.102.8.115.44.541.8.947.8s1.06.331 1.453.736c.394.405 1.031.849 1.416.987.385.139.7.5.7.802s.36.877.8 1.275.8 1.05.8 1.448.36.917.8 1.152.801.737.803 1.114c.001.377.36 1.226.797 1.886.777 1.173.795 1.943.797 33.7l.003 32.5h73.6l.097 42.3c.084 36.35.116 38.362.226 14.3.247-53.527-.366-159.4-.922-159.4-.692 0-1.001-1.87-1.001-6.05V87.6H36.871zM147.761 207.6c.117.99.391 2.61.609 3.6s.403 2.973.413 4.406c.012 1.815.26 3.059.817 4.098.44.821.8 1.994.8 2.606s.252 1.472.561 1.913c.308.44.76 1.539 1.003 2.442.479 1.782 1.636 3.175 1.636 1.971 0-.363-.27-.765-.6-.891-.33-.127-.6-.634-.6-1.128 0-1.15-.785-3.417-1.183-3.417-.168 0-.411-1.022-.54-2.272-.149-1.447-.46-2.399-.856-2.62-.511-.286-.621-1.255-.621-5.484 0-4.617-.083-5.231-.826-6.08l-.826-.944zm103.429-.574c-.214.564-.39 3.255-.39 5.98 0 4.064-.112 5.017-.621 5.302-.396.221-.707 1.173-.856 2.62-.129 1.25-.372 2.272-.54 2.272-.405 0-1.183 2.276-1.183 3.46 0 .569-.237.94-.6.94-.345 0-.6.361-.6.849 0 1.372 1.114.158 1.636-1.784.243-.903.695-2.002 1.003-2.442.309-.441.561-1.308.561-1.928s.36-1.833.8-2.695c.54-1.058.806-2.386.817-4.084.01-1.384.196-3.326.413-4.316 1.01-4.596.73-7.252-.44-4.174m-142.343 12.045c-.03 1.588.145 2.663.489 3.008.294.294.64.802.768 1.128s.247.044.264-.627-.159-1.411-.393-1.645-.573-1.305-.753-2.38l-.328-1.955zM290.861 218c-.049.77-.347 1.85-.661 2.4s-.564 1.54-.554 2.2.116.93.238.6.476-.895.789-1.255c.396-.455.525-1.37.424-3-.084-1.346-.184-1.749-.236-.945M190 223.2c.235.44.692.8 1.014.8.443 0 .391-.195-.214-.8-.44-.44-.896-.8-1.014-.8s-.021.36.214.8m19.1.033c-.567.622-.589.767-.114.767.322 0 .779-.36 1.014-.8.536-1.002.028-.983-.9.033m-17.1 1.023c0 .624 1.52 1.315 2.8 1.271 1.146-.038 1.206-.077.329-.211-.589-.09-1.286-.423-1.549-.74-.479-.577-1.58-.801-1.58-.32m14.42.32c-.263.317-.96.65-1.549.74-.877.134-.817.173.329.211 1.28.044 2.8-.647 2.8-1.271 0-.481-1.101-.257-1.58.32m-95.984 2.561c-.021.778.299 1.762.764 2.354.75.953.8.965.8.187 0-.457-.177-.94-.394-1.074-.216-.134-.56-.82-.764-1.524l-.37-1.28zm178.828-.513c-.035.452-.328 1.172-.651 1.6-.999 1.32-.793 2.513.213 1.234.567-.722.775-1.457.664-2.354-.089-.717-.191-.933-.226-.48M153.6 230.037c0 .24.36.894.8 1.454s.8 1.353.8 1.763.189.746.419.746c.231 0 .636.503.9 1.118.265.615.709 1.38.987 1.7 2.003 2.303 2.494 2.767 2.494 2.36 0-.436-1.274-2.204-2.602-3.612-.329-.348-.598-.849-.598-1.112s-.259-.578-.576-.7c-.316-.121-.694-.764-.84-1.428-.261-1.188-1.784-3.142-1.784-2.289m91.941.406c-.363.371-.779 1.219-.925 1.883s-.524 1.307-.84 1.428c-.317.122-.576.436-.576.7s-.269.764-.598 1.112c-1.328 1.408-2.602 3.176-2.602 3.612 0 .407.491-.057 2.494-2.36.278-.32.722-1.085.987-1.7.264-.615.669-1.118.9-1.118s.419-.336.419-.746.374-1.222.832-1.804c.961-1.222.889-2.013-.091-1.007M112 233.318c0 .609.255 1.205.567 1.325.324.124.683 1.07.841 2.215.151 1.1.508 2.088.792 2.197.285.11.634.981.778 1.936.143.956.499 1.83.791 1.942.291.112.648.83.791 1.596s.504 1.487.8 1.6c.297.114.657.834.8 1.6.232 1.232 1.44 2.456 1.44 1.458a.385.385 0 0 0-.381-.387c-.21 0-.555-.628-.767-1.395s-.67-1.68-1.018-2.028c-.349-.349-.634-.998-.634-1.442 0-.445-.36-1.266-.8-1.826-.44-.559-.8-1.353-.8-1.764s-.36-1.42-.8-2.241c-.44-.82-.8-1.81-.8-2.2 0-.389-.36-1.379-.8-2.2-.781-1.456-.8-1.466-.8-.386m175.1.538c-.385.757-.7 1.687-.7 2.066 0 .38-.36 1.362-.8 2.182-.44.821-.8 1.829-.8 2.241 0 .411-.36 1.205-.8 1.764-.44.56-.8 1.372-.8 1.805s-.269 1.011-.597 1.284c-.329.272-.785 1.194-1.016 2.049-.23.854-.591 1.553-.802 1.553a.387.387 0 0 0-.385.387c0 .998 1.208-.226 1.44-1.458.143-.766.509-1.488.813-1.605s.664-.912.8-1.768c.143-.89.474-1.556.774-1.556.313 0 .631-.713.79-1.773.146-.975.495-1.861.774-1.968.28-.108.638-1.057.796-2.11s.557-2.113.888-2.354.539-.817.463-1.278c-.119-.721-.236-.646-.838.539m-124.821 8.524c1.262 1.309 2.349 2.325 2.417 2.257.294-.294-.431-1.437-.912-1.437-.291 0-.644-.36-.784-.8s-.491-.8-.78-.8-.621-.36-.736-.8-.499-.8-.854-.8c-.409 0 .196.873 1.649 2.38m76.237-1.58c-.115.44-.446.8-.736.8-.289 0-.64.36-.78.8s-.493.8-.784.8c-.46 0-1.016.813-1.016 1.485 0 .244 3.098-2.878 3.956-3.985.402-.519.416-.7.056-.7-.268 0-.581.36-.696.8m-72.823 4.8c.275.44.645.8.823.8s.954.612 1.724 1.36 1.931 1.579 2.58 1.848 1.18.633 1.18.81c0 .176.616.523 1.368.771.752.249 1.584.713 1.849 1.031.265.319.746.58 1.069.58s1.045.36 1.605.8c.559.44 1.43.8 1.934.8.505 0 1.188.27 1.518.6.654.654 1.457.799 1.457.264 0-.485-1.869-1.264-3.031-1.264-.547 0-1.093-.259-1.215-.576-.121-.316-.764-.694-1.428-.84s-1.549-.607-1.967-1.025c-.417-.417-1.125-.759-1.572-.759-.446 0-.916-.27-1.042-.6-.127-.33-.41-.6-.63-.6s-.965-.448-1.657-.996a105 105 0 0 0-2.204-1.7c-.52-.387-1.235-1.019-1.588-1.404-.876-.952-1.389-.886-.773.1m67.841-.1c-.353.385-1.068 1.017-1.588 1.404-.521.386-1.512 1.151-2.204 1.7s-1.437.996-1.657.996-.503.27-.63.6c-.126.33-.596.6-1.042.6s-1.155.342-1.572.759c-.418.418-1.303.879-1.967 1.025s-1.307.524-1.428.84c-.122.317-.668.576-1.215.576-1.162 0-3.031.779-3.031 1.264 0 .535.803.39 1.457-.264.33-.33 1.013-.6 1.518-.6.504 0 1.375-.36 1.934-.8.56-.44 1.282-.8 1.605-.8s.804-.261 1.069-.58 1.097-.782 1.849-1.031 1.368-.595 1.368-.771.531-.541 1.18-.81 1.81-1.1 2.58-1.848 1.546-1.36 1.724-1.36.548-.36.823-.8c.616-.986.103-1.052-.773-.1m-113.922 5.004c-.007.387.348 1.012.788 1.389s.8.992.8 1.367c0 .376.314.997.697 1.38.384.384.879.993 1.1 1.353 1.608 2.619 2.328 3.607 2.63 3.607.331 0-1.357-2.749-1.959-3.191-.156-.115-.514-.659-.796-1.209-1.198-2.343-1.812-3.412-2.068-3.6-.15-.11-.477-.56-.726-1-.398-.702-.455-.714-.466-.096M280 250.371c0 .205-.239.611-.532.904-.498.498-1.127 1.553-2.34 3.925-.282.55-.64 1.094-.796 1.209-.602.442-2.29 3.191-1.959 3.191.322 0 1.502-1.662 2.749-3.874.287-.509.672-.926.856-.926.185 0 .459-.495.611-1.1s.621-1.422 1.043-1.816c.693-.646 1.066-1.884.568-1.884-.11 0-.2.167-.2.371m-95.302 5.619c.713.169 1.573.537 1.909.816s.743.378.902.218c.522-.522-1.231-1.425-2.685-1.383l-1.424.041zm28.279.177c-.427.312-.645.698-.486.857s.565.061.902-.218c.336-.279 1.196-.647 1.909-.816l1.298-.308-1.424-.041c-.782-.023-1.772.214-2.199.526m-20.777 1.42c1.98.185 4.107.534 4.726.775s2.003.438 3.074.438 2.455-.197 3.074-.438 2.746-.59 4.726-.775l3.6-.338-4.4.156c-2.42.087-4.985.385-5.7.664-1.049.409-1.551.409-2.6 0-.715-.279-3.28-.577-5.7-.664l-4.4-.156zm-64.6 4.64c0 .371 2.103 3.064 3.5 4.481.715.725 1.3 1.419 1.3 1.541 0 .277 4.899 4.998 7.42 7.151 2.703 2.308 3.189 2.268.584-.048-3.973-3.532-11.204-10.963-11.204-11.514 0-.131-.36-.598-.8-1.038s-.8-.698-.8-.573m143.9.64c-.385.403-.7.84-.7.971 0 .551-7.231 7.982-11.204 11.514-2.605 2.316-2.119 2.356.584.048 2.521-2.153 7.42-6.874 7.42-7.151 0-.122.585-.816 1.3-1.541 1.5-1.522 3.647-4.31 3.44-4.468-.077-.058-.455.223-.84.627m-128.599 14.704c.08.315.48.765.888 1a11.4 11.4 0 0 1 1.434 1.029c2.188 1.894 2.898 2.4 3.368 2.4.288 0 .627.27.754.6.126.33.443.6.704.6.283 0 .183-.323-.249-.8-.398-.44-.895-.8-1.104-.8-.367 0-2.22-1.366-3.53-2.602-.348-.329-.834-.598-1.08-.598-.245 0-.646-.315-.889-.7-.257-.406-.382-.46-.296-.129m113.075.757c-.343.15-.883.494-1.2.766-1.779 1.526-3.137 2.506-3.472 2.506-.209 0-.706.36-1.104.8-.432.477-.532.8-.249.8.261 0 .578-.27.704-.6.127-.33.466-.6.754-.6.487 0 1.616-.822 3.433-2.5.417-.385.927-.7 1.134-.7s.488-.18.624-.4c.278-.449.249-.452-.624-.072M151.6 284c.507.44 1.102.8 1.322.8s-.015-.36-.522-.8-1.102-.8-1.322-.8.015.36.522.8m96 0c-.507.44-.742.8-.522.8s.815-.36 1.322-.8.742-.8.522-.8-.815.36-1.322.8m-93.307 1.6c.377.44.939.8 1.25.8.336 0 .153-.324-.452-.8-.56-.44-1.122-.8-1.25-.8s.075.36.452.8m90.563.013c-.582.485-.731.787-.389.787.305 0 .863-.36 1.24-.8.873-1.019.379-1.012-.851.013M157.2 287.2c.507.44 1.21.789 1.561.775.437-.018.367-.135-.22-.372-.473-.191-.978-.54-1.124-.775-.145-.235-.461-.428-.702-.428s-.022.36.485.8m85.383-.372c-.146.235-.651.584-1.124.775-.587.237-.657.354-.22.372.351.014 1.054-.335 1.561-.775s.725-.8.485-.8c-.241 0-.557.193-.702.428m-82.363 1.679c.268.7 1.676 1.33 2.077.93.13-.131-.004-.237-.299-.237-.294 0-.872-.305-1.284-.678-.684-.618-.726-.62-.494-.015m78.98.093c-.274.33-.776.6-1.116.6-.339 0-.511.106-.381.237.379.379 1.802-.213 2.047-.852.288-.75.08-.745-.55.015m-75.4 1.8c.398.44 1.191.784 1.762.764.957-.033.937-.065-.262-.412-.715-.206-1.3-.55-1.3-.763 0-.214-.208-.389-.462-.389-.262 0-.149.346.262.8m72.2-.411c0 .213-.585.557-1.3.763-1.199.347-1.219.379-.262.412.571.02 1.364-.324 1.762-.764.411-.454.524-.8.262-.8-.254 0-.462.175-.462.389m-68.056 2.024c.52.433 1.42.771 2 .751 1.001-.034.99-.055-.224-.406-.704-.204-1.39-.548-1.524-.764-.134-.217-.458-.388-.72-.381s-.051.368.468.8m63.773-.37c-.244.244-1.045.585-1.78.759l-1.337.316 1.256.041c.713.023 1.663-.299 2.2-.746.519-.432.755-.792.524-.8-.231-.007-.619.186-.863.43M172 293.4c.274.33.78.6 1.125.6.503 0 .473-.117-.149-.587-1.015-.769-1.61-.776-.976-.013m55.024.013c-.622.47-.652.587-.149.587.345 0 .851-.27 1.125-.6.634-.763.039-.756-.976.013m-52.524.863c.385.1 1.015.1 1.4 0 .385-.101.07-.183-.7-.183s-1.085.082-.7.183m49.6 0c.385.1 1.015.1 1.4 0 .385-.101.07-.183-.7-.183s-1.085.082-.7.183M178 295c.274.33.881.599 1.349.598.738-.003.698-.083-.295-.6-1.444-.754-1.681-.753-1.054.002m42.8.033c-.937.521-.947.556-.149.561.468.003 1.075-.264 1.349-.594.603-.727.147-.714-1.2.033m-39.495.854c.609.092 1.509.09 2-.005s-.005-.171-1.105-.168-1.503.081-.895.173m35.6 0c.609.092 1.509.09 2-.005s-.005-.171-1.105-.168-1.503.081-.895.173m-31.305.677c.55.334 1.63.596 2.4.581l1.4-.027-1.4-.381c-.77-.21-1.85-.472-2.4-.581l-1-.2zm27.887-.318c-.136.136-.841.387-1.567.559l-1.32.313 1.4.027c.77.015 1.85-.231 2.4-.545.924-.528.937-.573.167-.586-.459-.008-.945.097-1.08.232m-17.787 1.252c2.365.071 6.235.071 8.6 0s.43-.128-4.3-.128-6.665.058-4.3.128M34.856 303.2c-.02.55.157 1.81.394 2.8s.568 3.15.735 4.8l.303 3 .039-2.6c.035-2.378-.123-3.465-1.103-7.6-.265-1.117-.339-1.198-.368-.4m329.834.4c-.128.77-.417 2.21-.644 3.2-.226.99-.388 2.97-.359 4.4.038 1.887.088 2.107.182.8.071-.99.42-3.361.774-5.269s.562-3.708.461-4c-.1-.292-.287.099-.414.869M36.403 316.276c-.002.262.174.586.391.72.216.134.56.82.764 1.524.236.817.382.99.403.48.019-.44-.324-1.34-.761-2s-.796-.986-.797-.724m326.206 1.056c-.396.734-.619 1.591-.496 1.902q.224.564.255-.245c.018-.446.32-1.223.673-1.726.352-.503.561-.994.464-1.091s-.5.425-.896 1.16M38 321.434c0 .223.199.605.443.849s.6 1.045.793 1.78c.345 1.316.347 1.313.17-.235-.155-1.365-1.406-3.493-1.406-2.394m323.238.321c-.262.315-.555 1.265-.65 2.109-.169 1.493-.164 1.499.168.238.188-.713.571-1.573.85-1.909s.418-.702.308-.812-.414.058-.676.374m-319.554 8.048c.156.242.46.88.675 1.419.247.618.4.737.416.322.014-.36-.29-.999-.675-1.419-.385-.419-.572-.565-.416-.322m316.088.384c-.356.543-.585 1.149-.51 1.347.076.198.43-.246.787-.987.765-1.585.635-1.753-.277-.36m-312.485 6.409c.87 1.533 2.313 3.26 2.313 2.767 0-.224-.614-1.075-2.426-3.363-.639-.806-.617-.69.113.596m308.934.17c-.544.862-1.176 1.683-1.405 1.824s-.416.427-.416.634c0 .581 1.308-.863 2.29-2.528 1.171-1.984.792-1.927-.469.07m-302.755 7.677c2.181 2.39 5.334 5.367 5.334 5.036 0-.246-6.033-6.279-6.279-6.279-.104 0 .321.559.945 1.243m294.779 1.802c-3.063 3.063-4.115 4.399-1.802 2.289 2.39-2.181 5.367-5.334 5.036-5.334-.104 0-1.559 1.37-3.234 3.045m-284.801 7.127c.118.305.735.771 1.371 1.034.637.264 1.366.731 1.621 1.037s.755.543 1.113.525c.545-.026.554-.069.053-.266-.329-.129-1.447-.831-2.484-1.56-1.038-.729-1.791-1.076-1.674-.77m275.356.828c-.99.741-2.07 1.373-2.4 1.405-.35.034-.41.136-.145.245.25.103 1.131-.272 1.956-.832s1.636-1.018 1.802-1.018.405-.27.532-.6c.288-.751.391-.798-1.745.8m-265.222 5.041c.539.215 1.177.519 1.419.675.243.156.097-.031-.322-.416s-1.059-.689-1.419-.675c-.415.016-.296.169.322.416m255.747.259c-.419.385-.565.572-.322.416s.88-.46 1.419-.675c.618-.247.737-.4.322-.416-.36-.014-.999.29-1.419.675m-250.892 1.446c.807.705 2.119 1.127 1.618.519-.302-.366-.827-.665-1.167-.665-.339 0-.542.066-.451.146m245.516.519c-.502.609-.464.622.451.146 1.341-.697 1.442-.811.716-.811-.34 0-.865.299-1.167.665m-239.725 1.522c.427.323.956.588 1.176.588s.051-.265-.376-.588c-.428-.323-.957-.587-1.177-.587s-.051.264.377.587m234.525.078c-.502.609-.464.622.451.146 1.341-.697 1.442-.811.716-.811-.34 0-.865.299-1.167.665m-230.442.825c.719.089 1.799.087 2.4-.004s.013-.164-1.307-.162-1.812.077-1.093.166m225.2 0c.719.089 1.799.087 2.4-.004s.013-.164-1.307-.162-1.812.077-1.093.166m-218.907.734c3.13.706 4.576.682 2-.033-1.1-.306-2.54-.545-3.2-.532q-1.2.023 1.2.565m212.6-.004c-2.392.685-.832.688 2.2.004 1.861-.42 2.085-.539 1-.531-.77.006-2.21.243-3.2.527"/></g></svg>