<?xml version="1.0" encoding="UTF-8" standalone="no"?>
<svg
   width="24"
   height="24"
   viewBox="0 0 24 24"
   version="1.1"
   id="svg1"
   sodipodi:docname=":usenapp:.svg"
   inkscape:version="1.4.3 (0d15f75, 2025-12-25)"
   xmlns:inkscape="http://www.inkscape.org/namespaces/inkscape"
   xmlns:sodipodi="http://sodipodi.sourceforge.net/DTD/sodipodi-0.dtd"
   xmlns="http://www.w3.org/2000/svg"
   xmlns:svg="http://www.w3.org/2000/svg">
  <defs
     id="defs1" />
  <sodipodi:namedview
     id="namedview1"
     pagecolor="#505050"
     bordercolor="#ffffff"
     borderopacity="1"
     inkscape:showpageshadow="0"
     inkscape:pageopacity="0"
     inkscape:pagecheckerboard="1"
     inkscape:deskcolor="#505050"
     inkscape:zoom="19.833854"
     inkscape:cx="14.520627"
     inkscape:cy="18.175993"
     inkscape:window-width="1710"
     inkscape:window-height="1044"
     inkscape:window-x="0"
     inkscape:window-y="40"
     inkscape:window-maximized="0"
     inkscape:current-layer="svg1" />
  <path
     style="fill:#000000;fill-opacity:1;stroke-width:2.02908"
     d="m 4.3057507,2.9930126 c 0.363206,0.1866757 0.8420698,0.677714 1.0530944,1.0875888 0.1866757,0.3571189 0.2637809,2.1366255 0.2698682,6.2495776 0.00405,1.745012 0.04261,3.331756 0.08725,3.571188 0.2089957,1.099764 0.3834969,1.665878 0.5681435,1.850525 a 4.0581675,4.0581675 0 0 1 0.2130537,0.405816 c 0.1623267,0.342915 0.8867097,1.304701 1.0287455,1.367602 0.036523,0.01623 0.2008793,0.154211 0.3652351,0.308421 0.6330741,0.592493 1.8200882,1.170781 2.7352049,1.335137 1.160636,0.206967 1.414272,0.223199 1.947921,0.127835 l 0.73047,-0.125808 c 0.549882,-0.0913 1.10585,-0.294216 1.785594,-0.647277 0.917146,-0.476834 2.475482,-2.150828 2.475482,-2.658099 0,-0.0629 0.03044,-0.113631 0.06492,-0.113631 0.06696,0 0.239431,-0.381468 0.405816,-0.892798 0.211025,-0.655393 0.265811,-1.651674 0.330742,-5.9675351 0.07507,-5.0402439 0.03652,-4.7095032 0.649307,-5.405479 0.399729,-0.4524857 0.827866,-0.6391614 1.592831,-0.6959758 0.702062,-0.050727 1.15049,0.1197163 1.676022,0.6371324 0.712208,0.702063 0.677714,0.4037876 0.671627,6.0730479 -0.0061,4.7845796 -0.04464,5.8741976 -0.204938,6.0446396 -0.04058,0.04261 -0.07305,0.154211 -0.07305,0.24755 0,0.217111 -0.401759,1.322962 -0.716267,1.974297 -0.576259,1.189044 -1.06324,1.872844 -2.077782,2.919852 -0.793371,0.81975 -1.211362,1.168752 -1.980386,1.653703 -0.566114,0.357119 -1.714576,0.949611 -1.945891,1.002368 a 14.203587,14.203587 0 0 0 -0.66554,0.204937 c -1.219478,0.3977 -1.32702,0.413933 -3.003044,0.462631 -1.19513,0.03246 -2.5566455,-0.07507 -2.8427463,-0.225229 A 1.4203587,1.4203587 0 0 0 9.0822138,23.685609 2.6378089,2.6378089 0 0 1 8.6784262,23.590242 C 7.511703,23.158047 6.568179,22.697445 5.8782906,22.22264 L 5.1478205,21.725514 C 4.991581,21.622031 4.4802519,21.137079 4.0115336,20.64807 3.1430856,19.741071 2.3618884,18.6129 1.9296936,17.642998 1.6090984,16.924702 1.2600959,15.932479 1.310823,15.881752 1.335172,15.857403 1.308794,15.780298 1.2519796,15.713339 1.0267513,15.439413 0.98008238,14.416754 0.97399514,9.502313 0.96790789,4.5574362 0.96993697,4.506709 1.1424091,4.1333576 A 2.8407173,2.8407173 0 0 1 2.327394,2.9341691 c 0.4524857,-0.2252283 1.4792021,-0.194792 1.9783567,0.058844"
     id="path2" />
  <path
     style="fill:#000000;fill-opacity:1;stroke-width:2.02908"
     d="m 12.984142,0.31056377 c 0.180588,0.0933385 0.480893,0.33479883 0.665539,0.53567821 0.639162,0.69394662 0.610755,0.44639842 0.649307,5.45011962 a 166.38486,166.38486 0 0 1 -0.04261,6.0223204 l -0.0771,1.556306 -0.257694,0.405818 a 2.2928647,2.2928647 0 0 1 -1.964152,1.065268 c -0.302334,0 -0.572202,-0.03653 -0.600609,-0.08117 -0.02841,-0.04464 -0.140007,-0.08117 -0.247548,-0.08117 -0.109571,0 -0.198851,-0.03652 -0.198851,-0.08117 0,-0.04464 -0.05276,-0.08117 -0.115657,-0.08117 -0.123774,0 -0.935408,-0.868449 -0.9455535,-1.010484 A 2.0290838,2.0290838 0 0 0 9.7984805,13.763389 C 9.6848517,13.343369 9.6077466,9.1675147 9.6503573,5.693723 9.6929681,2.2077572 9.7132589,1.8120858 9.8471784,1.5097523 10.117047,0.89899808 10.567503,0.4810068 11.275653,0.19084788 c 0.363206,-0.15015224 1.310788,-0.0831924 1.708489,0.11971589"
     id="path1" />
</svg>
