<svg xmlns="http://www.w3.org/2000/svg" width="24" height="24" viewBox="0 0 24 24"><path fill="#3594dc" fill-rule="evenodd" d="M5.08.298c-.253.026-.499.069-.547.095a.5.5 0 0 1-.208.047c-.066 0-.131.018-.145.04s-.06.04-.104.04a1 1 0 0 0-.276.1c-.109.055-.216.1-.239.1-.127 0-.782.378-1.138.657-.277.217-.827.756-.998.978-.4.521-.742 1.097-.744 1.251a.8.8 0 0 1-.101.24.8.8 0 0 0-.1.262c0 .048-.018.098-.04.112s-.04.079-.04.144a.6.6 0 0 1-.055.228C.216 4.845.2 5.662.2 12.071c-.001 6.421.015 7.238.146 7.497a.6.6 0 0 1 .054.228c0 .065.018.13.04.144s.04.059.04.1.045.16.1.264c.055.103.1.212.1.243 0 .058.033.123.219.433.182.302.17.284.493.768.245.368 1.088 1.119 1.488 1.326.121.063.291.162.377.221a1 1 0 0 0 .26.13c.057.012.19.065.297.119a1 1 0 0 0 .267.096c.041 0 .085.018.099.04s.071.04.127.04.186.026.288.059c.443.14.868.147 7.665.129 4.334-.011 6.771-.032 6.94-.059.291-.047.585-.12.689-.174a.4.4 0 0 1 .132-.035.7.7 0 0 0 .219-.08c.086-.044.242-.109.348-.144a1 1 0 0 0 .272-.136c.044-.039.197-.129.34-.201.143-.071.347-.203.453-.294.323-.276 1.001-.959 1.099-1.106.215-.324.408-.637.408-.662 0-.014.045-.078.099-.143a.9.9 0 0 0 .142-.279 1.6 1.6 0 0 1 .121-.299.6.6 0 0 0 .078-.229c0-.05.018-.109.04-.131.042-.042.102-.287.165-.676.022-.132.057-1.809.079-3.727.042-3.709-.006-10.192-.079-10.633-.077-.471-.151-.73-.307-1.08-.049-.11-.1-.248-.113-.307a.7.7 0 0 0-.115-.22 2 2 0 0 1-.168-.253 11 11 0 0 0-.447-.695c-.084-.122-.619-.639-1.003-.97a3 3 0 0 0-.482-.314 2 2 0 0 1-.311-.182C20.83.832 20.6.72 20.533.72a1 1 0 0 1-.253-.1 1 1 0 0 0-.276-.1c-.044 0-.09-.018-.104-.04s-.079-.04-.144-.04a.6.6 0 0 1-.228-.054C19.266.256 18.421.24 11.94.245 7.305.249 5.413.263 5.08.298m14.084.841c.236.053.372.088.636.165.122.035.855.413 1.067.55.324.209.819.66 1.082.986.331.412.357.451.623.969.231.451.258.522.395 1.051l.093.36-.004 6.86-.005 6.86-.088.36a6 6 0 0 1-.121.44 5 5 0 0 0-.085.22c-.119.328-.519.994-.806 1.342-.333.403-.886.89-1.235 1.087-.452.254-.582.32-.776.391-.11.041-.218.086-.24.102a.6.6 0 0 1-.16.05 9 9 0 0 0-.4.093c-.262.066-.715.07-7.08.07-6.322 0-6.821-.005-7.1-.07-.165-.038-.354-.08-.42-.092a.6.6 0 0 1-.16-.051 2 2 0 0 0-.233-.1c-.362-.133-1.026-.536-1.377-.834-.891-.756-1.505-1.805-1.689-2.885-.027-.154-.04-2.608-.039-7 .002-6.919 0-6.776.139-7.443.014-.066.04-.156.058-.2s.063-.161.1-.26c.105-.283.412-.835.628-1.128.269-.364.961-1.017 1.287-1.212.494-.297.964-.511 1.326-.603.716-.184.221-.174 7.524-.154 5.709.016 6.846.028 7.06.076M7.32 2.241c-1.023.017-1.95.049-2.06.071-.836.172-1.441.505-2.028 1.12-.408.428-.698.905-.83 1.368a7 7 0 0 1-.085.28c-.106.314-.117.968-.116 7.013 0 5.065.011 6.351.054 6.617.03.182.045.33.035.33-.011 0-.001.023.021.05a.5.5 0 0 1 .062.184c.063.4.748 1.459 1.1 1.7.081.055.227.174.324.263s.185.154.195.144c.019-.019.215.079.328.163.033.025.186.086.34.136s.308.105.342.121c.035.017.233.055.44.084.526.075 12.629.079 13.178.005.392-.054 1.062-.269 1.248-.401.064-.046.192-.114.284-.151.093-.036.168-.082.168-.1s.111-.119.246-.225c.249-.196.754-.779.754-.872a.35.35 0 0 1 .076-.146c.085-.109.276-.543.332-.755.021-.077.07-.329.111-.56.069-.397.072-.758.061-6.66-.008-4.157-.026-6.343-.055-6.548a3.71 3.71 0 0 0-3.173-3.174c-.47-.067-8.353-.106-11.352-.057m5.222 3.949c.089.046.237.165.328.264.315.342.301.22.32 2.686a82 82 0 0 1-.021 2.968l-.038.767-.127.2a1.13 1.13 0 0 1-.968.525c-.149 0-.282-.018-.296-.04s-.069-.04-.122-.04c-.054 0-.098-.018-.098-.04s-.026-.04-.057-.04c-.061 0-.461-.428-.466-.498a1 1 0 0 0-.025-.122c-.056-.207-.094-2.265-.073-3.977.021-1.718.031-1.913.097-2.062.133-.301.355-.507.704-.65.179-.074.646-.041.842.059M8.265 7.512c.179.092.415.334.519.536.092.176.13 1.053.133 3.08.002.86.021 1.642.043 1.76.103.542.189.821.28.912a2 2 0 0 1 .105.2c.08.169.437.643.507.674.018.008.099.076.18.152.312.292.897.577 1.348.658.572.102.697.11.96.063l.36-.062c.271-.045.545-.145.88-.319.452-.235 1.22-1.06 1.22-1.31 0-.031.015-.056.032-.056.033 0 .118-.188.2-.44.104-.323.131-.814.163-2.941.037-2.484.018-2.321.32-2.664.197-.223.408-.315.785-.343.346-.025.567.059.826.314.351.346.334.199.331 2.993-.003 2.358-.022 2.895-.101 2.979-.02.021-.036.076-.036.122 0 .107-.198.652-.353.973-.284.586-.524.923-1.024 1.439-.391.404-.597.576-.976.815-.279.176-.845.468-.959.494a7 7 0 0 0-.328.101c-.601.196-.654.204-1.48.228-.589.016-1.26-.037-1.401-.111a.7.7 0 0 0-.18-.049 1.3 1.3 0 0 1-.199-.047c-.575-.213-1.04-.44-1.38-.674l-.36-.245c-.077-.051-.329-.29-.56-.531-.428-.447-.813-1.003-1.026-1.481-.158-.354-.33-.843-.305-.868.012-.012-.001-.05-.029-.083-.111-.135-.134-.639-.137-3.061-.003-2.437-.002-2.462.083-2.646a1.4 1.4 0 0 1 .584-.591c.223-.111.729-.096.975.029" style="fill:#000;fill-opacity:1"/></svg>
