<svg xmlns="http://www.w3.org/2000/svg" width="24" height="24" fill="none"><g clip-path="url(#a)"><path fill="#fff" fill-rule="evenodd" d="M0 4a4 4 0 0 1 4-4h16a4 4 0 0 1 4 4v16a4 4 0 0 1-4 4H4a4 4 0 0 1-4-4V4Zm17 0H7a3 3 0 0 0-3 3v10a3 3 0 0 0 3 3h10a3 3 0 0 0 3-3V7a3 3 0 0 0-3-3ZM7 3a4 4 0 0 0-4 4v10a4 4 0 0 0 4 4h10a4 4 0 0 0 4-4V7a4 4 0 0 0-4-4H7Zm2 3h6a3 3 0 0 1 3 3v6a3 3 0 0 1-3 3H9a3 3 0 0 1-3-3V9a3 3 0 0 1 3-3ZM5 9a4 4 0 0 1 4-4h6a4 4 0 0 1 4 4v6a4 4 0 0 1-4 4H9a4 4 0 0 1-4-4V9Zm8-1h-2a3 3 0 0 0-3 3v2a3 3 0 0 0 3 3h2a3 3 0 0 0 3-3v-2a3 3 0 0 0-3-3Zm-2-1a4 4 0 0 0-4 4v2a4 4 0 0 0 4 4h2a4 4 0 0 0 4-4v-2a4 4 0 0 0-4-4h-2Zm0 3a1 1 0 0 0-1 1v2a1 1 0 0 0 1 1h2a1 1 0 0 0 1-1v-2a1 1 0 0 0-1-1h-2Z" clip-rule="evenodd"/></g><defs><clipPath id="a"><path fill="#fff" d="M0 0h24v24H0z"/></clipPath></defs></svg>