<svg xmlns="http://www.w3.org/2000/svg" width="24" height="24" fill="none"><path d="M3.433.043a4.299 4.299 0 0 0-1.702.669C.956 1.239.396 2.034.129 2.989L.02 3.38v17.24l.111.397c.421 1.509 1.576 2.591 3.095 2.9.403.082.472.083 8.774.083s8.371-.001 8.774-.083c1.517-.309 2.683-1.402 3.098-2.905l.108-.392V3.38l-.106-.385c-.263-.95-.83-1.756-1.605-2.283a5.134 5.134 0 0 0-1.311-.6l-.338-.09-8.48-.007C7.476.012 3.558.024 3.433.043m14.525 3.07a4.3 4.3 0 0 1 1.865 1.064 4.243 4.243 0 0 1 1.066 1.885l.091.358v11.16l-.091.358a4.059 4.059 0 0 1-2.884 2.936l-.385.106H6.38l-.385-.106c-.95-.263-1.756-.83-2.283-1.605a4.935 4.935 0 0 1-.601-1.331l-.091-.358V6.42l.091-.358c.105-.41.362-.977.611-1.347.582-.863 1.634-1.512 2.711-1.672.125-.019 2.693-.031 5.707-.028l5.48.007.338.091m-11.455.929c-1.016.173-1.947.934-2.301 1.883-.206.552-.201.39-.201 6.067-.001 5.788-.01 5.564.233 6.159a3.046 3.046 0 0 0 1.615 1.615c.595.242.372.234 6.151.234 5.777 0 5.556.008 6.15-.233a3.08 3.08 0 0 0 1.617-1.617c.241-.594.233-.373.233-6.15 0-5.779.008-5.556-.234-6.151a2.99 2.99 0 0 0-1.47-1.537c-.653-.314-.125-.289-6.176-.297-2.981-.003-5.509.008-5.617.027m9.455 1.071a4.307 4.307 0 0 1 1.865 1.064 4.243 4.243 0 0 1 1.066 1.885l.091.358v7.16l-.091.358a4.059 4.059 0 0 1-2.884 2.936l-.385.106H8.38l-.385-.106c-.95-.263-1.756-.83-2.283-1.605a4.935 4.935 0 0 1-.601-1.331l-.091-.358V8.42l.091-.358c.105-.41.362-.977.611-1.347.582-.863 1.632-1.511 2.711-1.673.125-.019 1.793-.03 3.707-.026 3.465.007 3.481.008 3.818.097m-7.455.929c-1.018.174-1.947.934-2.301 1.883-.2.535-.201.552-.201 4.067-.001 2.809.008 3.335.061 3.589a2.993 2.993 0 0 0 2.357 2.357c.445.092 6.717.092 7.162 0a3.003 3.003 0 0 0 2.357-2.357c.092-.445.092-6.717 0-7.162a2.96 2.96 0 0 0-1.642-2.107c-.638-.307-.364-.288-4.176-.296-1.881-.005-3.509.007-3.617.026m5.455 1.073a4.269 4.269 0 0 1 1.865 1.062 4.243 4.243 0 0 1 1.066 1.885c.087.343.091.425.091 1.938s-.004 1.595-.091 1.938a4.056 4.056 0 0 1-2.884 2.935l-.385.106h-3.24l-.385-.106c-.948-.261-1.756-.828-2.283-1.604a4.935 4.935 0 0 1-.601-1.331c-.087-.343-.091-.425-.091-1.938s.004-1.595.091-1.938c.105-.41.362-.977.611-1.347.582-.862 1.625-1.506 2.711-1.674.125-.019.893-.03 1.707-.024 1.373.01 1.504.017 1.818.098m-3.455.926c-1.024.179-1.947.935-2.301 1.884-.179.478-.201.704-.201 2.067-.001 1.009.012 1.357.061 1.589a2.993 2.993 0 0 0 2.357 2.357c.429.089 2.733.089 3.162 0a3.003 3.003 0 0 0 2.357-2.357c.089-.429.089-2.733 0-3.162a2.96 2.96 0 0 0-1.642-2.107c-.585-.282-.598-.284-2.176-.295-.781-.006-1.509.005-1.617.024m2.837 2.025c.253.087.507.341.594.594.098.288.098 2.392 0 2.68a1.046 1.046 0 0 1-.594.594c-.288.098-2.392.098-2.68 0a1.046 1.046 0 0 1-.594-.594c-.098-.288-.098-2.392 0-2.68.083-.244.341-.508.577-.591.27-.095 2.419-.097 2.697-.003"/></svg>

