<svg xmlns="http://www.w3.org/2000/svg" width="24" height="24" fill="none" viewBox="0 0 24 24"><path fill="#000" d="M11.592 2.559c.689-.025 1.354.193 1.8.669.51.544.645 1.331.472 2.022l-2.137 8.538a3.45 3.45 0 0 1-2.904 2.58 3.23 3.23 0 0 1-3.361-1.844l-3.69-7.876V6.61a2.25 2.25 0 0 1 .18-1.85c.364-.613 1.028-1.03 1.784-1.134 1.514-.205 2.779.732 3.328 1.92l.833 1.798.418-2.027C8.574 4.06 9.63 2.735 11.32 2.582q.136-.018.273-.023m-.161 1.02c-1.205.099-1.954 1.074-2.132 1.94l-.887 4.308c-.08.39-.28.412-.447.051l-1.812-3.91c-.371-.803-1.301-1.48-2.28-1.347-.98.134-1.47 1.002-1.096 1.803l3.594 7.674c.375.801 1.372 1.403 2.317 1.274.946-.128 1.85-.97 2.065-1.828l2.137-8.537c.214-.858-.342-1.58-1.46-1.428"/><path fill="#000" d="M16.442 9.3a6.24 6.24 0 0 1 3.416 1.09 6.4 6.4 0 0 1 1.855 1.973h.001a2.39 2.39 0 0 1-.815 3.258 2.39 2.39 0 0 1-3.26-.815 1.6 1.6 0 0 0-.467-.497 1.5 1.5 0 0 0-1.383-.161q-.268.103-.484.292-.223.195-.368.455c-.144.263-.22.558-.22.858 0 .399.14.785.395 1.091a1.5 1.5 0 0 0 1.165.549h.002a1.5 1.5 0 0 0 .815-.24l.001-.001a2.38 2.38 0 0 1 1.79-.313 2.38 2.38 0 0 1 1.823 1.91 2.38 2.38 0 0 1-1.07 2.414 6.244 6.244 0 0 1-6.462.157 6.3 6.3 0 0 1-1.709-1.43 6.45 6.45 0 0 1-1.428-5.099 6.448 6.448 0 0 1 2.142-3.93 6.4 6.4 0 0 1 1.9-1.147 6.2 6.2 0 0 1 2.361-.415m.66 1.03a5.27 5.27 0 0 0-2.67.294 5.4 5.4 0 0 0-1.61.972 5.518 5.518 0 0 0-1.88 4.154 5.47 5.47 0 0 0 1.273 3.515c.406.485.896.895 1.445 1.209a5.27 5.27 0 0 0 4.113.477 5.4 5.4 0 0 0 1.344-.61 1.4 1.4 0 1 0-1.5-2.366 2.6 2.6 0 0 1-.64.292 2.475 2.475 0 0 1-2.613-.798 2.68 2.68 0 0 1-.621-1.717c0-.464.117-.92.34-1.327.15-.272.347-.516.58-.72a2.6 2.6 0 0 1 .775-.467 2.48 2.48 0 0 1 2.286.267c.305.21.562.482.752.8a1.4 1.4 0 1 0 2.402-1.44 5.4 5.4 0 0 0-1.57-1.67 5.3 5.3 0 0 0-2.206-.865"/></svg>