<svg xmlns="http://www.w3.org/2000/svg" width="24" height="24" fill="none" viewBox="0 0 24 24"><path fill="#000" d="M11.755 1.266c.794-.029 1.56.222 2.073.77.588.627.743 1.534.544 2.33L11.911 14.2a3.97 3.97 0 0 1-3.345 2.972 3.72 3.72 0 0 1-3.872-2.124L.444 5.976v-.044a2.6 2.6 0 0 1 .207-2.13c.42-.707 1.184-1.187 2.055-1.307 1.744-.236 3.201.843 3.833 2.212l.96 2.07.481-2.334c.299-1.448 1.515-2.974 3.462-3.15q.156-.021.314-.027m-.185 1.175c-1.388.114-2.25 1.237-2.456 2.235L8.093 9.638c-.092.45-.322.474-.515.059L5.491 5.193c-.427-.925-1.498-1.705-2.626-1.552-1.129.155-1.693 1.154-1.262 2.077l4.14 8.84c.431.922 1.58 1.616 2.668 1.467 1.09-.147 2.131-1.117 2.379-2.106l2.461-9.833c.247-.988-.394-1.82-1.681-1.645" style="stroke-width:1.15187"/><path fill="#000" d="M17.342 9.03a7.2 7.2 0 0 1 3.934 1.256 7.4 7.4 0 0 1 2.137 2.273h.001a2.753 2.753 0 0 1-.938 3.753 2.753 2.753 0 0 1-3.756-.939 1.84 1.84 0 0 0-.537-.572 1.73 1.73 0 0 0-1.594-.186q-.308.119-.557.336-.257.225-.424.525a2.06 2.06 0 0 0-.253.988c0 .46.16.904.455 1.256a1.73 1.73 0 0 0 1.342.633h.002a1.73 1.73 0 0 0 .939-.277 2.74 2.74 0 0 1 2.063-.361 2.74 2.74 0 0 1 2.1 2.2 2.74 2.74 0 0 1-1.233 2.78 7.19 7.19 0 0 1-7.443.181 7.3 7.3 0 0 1-1.969-1.647 7.43 7.43 0 0 1-1.645-5.873 7.43 7.43 0 0 1 2.468-4.527 7.4 7.4 0 0 1 2.188-1.321 7.1 7.1 0 0 1 2.72-.478m.76 1.186a6.07 6.07 0 0 0-3.076.339 6.2 6.2 0 0 0-1.854 1.12 6.36 6.36 0 0 0-2.166 4.784 6.3 6.3 0 0 0 1.467 4.049 6.2 6.2 0 0 0 1.664 1.393 6.07 6.07 0 0 0 4.738.549 6.2 6.2 0 0 0 1.548-.703 1.613 1.613 0 1 0-1.728-2.725 3 3 0 0 1-.737.336 2.85 2.85 0 0 1-3.01-.919 3.1 3.1 0 0 1-.715-1.978c0-.534.135-1.06.391-1.528.173-.313.4-.594.669-.83a3 3 0 0 1 .892-.537 2.86 2.86 0 0 1 2.633.307c.352.242.648.555.867.922a1.613 1.613 0 1 0 2.766-1.659 6.2 6.2 0 0 0-1.808-1.924 6.1 6.1 0 0 0-2.541-.996" style="stroke-width:1.15187"/></svg>
