<svg xmlns="http://www.w3.org/2000/svg" width="24" height="24" viewBox="0 0 24 24"><path d="M22.346 5.368c-.405-1.446-1.207-2.588-2.381-3.396C18.482.949 16.777.588 15.305.368 13.266.064 11.421.02 9.661.236c-1.649.203-2.89.525-4.023 1.045-2.22 1.02-3.552 2.671-3.96 4.905a31 31 0 0 0-.408 3.002c-.178 2.163-.016 4.077.494 5.851.498 1.73 1.367 2.965 2.657 3.777.328.207.75.357 1.157.5.23.082.455.16.64.248.17.079.17.093.168.235-.014 1.229 0 3.64 0 3.64l.004.514h.923l.15-.146c.1-.093 2.388-2.305 3.204-3.196l.112-.124c.14-.162.14-.162.283-.164a99 99 0 0 0 3.346-.125c1.355-.073 2.925-.205 4.403-.82 1.353-.566 2.341-1.463 2.935-2.666.62-1.256.986-2.615 1.124-4.156.243-2.71.07-5.061-.525-7.188m-4.873 10.538c-.34.553-.846.938-1.444 1.187-.437.182-.883.144-1.314-.039-3.611-1.529-6.445-3.937-8.316-7.4-.387-.713-.654-1.49-.962-2.244-.063-.154-.059-.336-.087-.507.026-1.217.96-1.903 1.904-2.11.36-.081.68.047.947.304A8.3 8.3 0 0 1 9.97 7.54c.192.403.105.76-.223 1.06q-.104.092-.215.176c-.75.563-.859.99-.46 1.839.68 1.444 1.811 2.414 3.271 3.016.385.158.748.079 1.041-.233.04-.04.085-.081.114-.13.575-.96 1.411-.865 2.183-.318.506.36.998.741 1.499 1.108.763.56.757 1.087.293 1.847m-4.79-9.582q-.255 0-.508.043a.518.518 0 1 1-.17-1.023 4.077 4.077 0 0 1 4.695 4.695.519.519 0 0 1-1.023-.17 3.04 3.04 0 0 0-2.993-3.544zm2.518 3.111a.52.52 0 0 1-1.037 0c0-.857-.699-1.555-1.555-1.555a.52.52 0 0 1 0-1.037A2.595 2.595 0 0 1 15.2 9.435m2.961 1.152a.519.519 0 0 1-1.013-.23 4.578 4.578 0 0 0-5.474-5.474.516.516 0 0 1-.62-.392.516.516 0 0 1 .391-.62 5.614 5.614 0 0 1 6.716 6.716" style="stroke-width:.518484"/></svg>