<svg xmlns="http://www.w3.org/2000/svg" width="24" height="24" viewBox="0 0 24 24"><path d="M11.988.089a.5.5 0 0 0-.155.046L2.026 4.35a.5.5 0 0 0-.155.062.5.5 0 0 0-.202.217l-.015.016a.5.5 0 0 0-.031.093v.03a.5.5 0 0 0 .015.264l.62 9.653a.5.5 0 0 0 .202.372l3.672 2.665a4.5 4.5 0 0 0-.109.898c0 2.901 2.702 5.268 6.012 5.268s5.996-2.365 5.996-5.268c0-.292-.035-.585-.093-.883l3.672-2.68a.5.5 0 0 0 .201-.372l.635-9.746v-.015a1 1 0 0 0 0-.093v-.062a.5.5 0 0 0-.046-.14 1 1 0 0 0-.047-.077l-.03-.031v-.016a.5.5 0 0 0-.17-.108l-.094-.031-9.823-4.23a.5.5 0 0 0-.248-.046m.047 1.038 8.816 3.78-8.816 5.02-8.816-5.02zm0 1.301-1.503.65.573.357c.064.041.1.11.108.186a.25.25 0 0 1-.077.202l-.852.82 2.231-.913a.246.246 0 0 1 .294.077.25.25 0 0 1-.015.31l-.682.806 1.085-.388c.097-.035.195 0 .263.078a.25.25 0 0 1 .031.279l-.635 1.224 1.611.945 3.595-2.045zm-2.061.883L6.008 5.016l6.027 3.424 1.936-1.1-1.58-.93a.243.243 0 0 1-.093-.325l.465-.868-1.364.48a.234.234 0 0 1-.278-.093.24.24 0 0 1 .015-.294l.62-.744-2.51 1.038a.256.256 0 0 1-.31-.093c-.066-.1-.04-.228.046-.31l1.58-1.518ZM2.661 5.728l8.878 5.051v9.653l-8.305-6.043Zm18.747 0-.573 8.661-8.305 6.043v-9.653zM19.952 7.96l-6.136 3.734-.108 6.322 5.78-4.044zm-15.866.109.403 5.686 5.609 4.013-.14-6.043z" style="stroke-width:.495798"/></svg>