<svg xmlns="http://www.w3.org/2000/svg" width="24" height="24" viewBox="0 0 24 24"><path d="M17.302.208a1.35 1.35 0 0 0-.577.153c.465.23.793.685.847 1.224.01.065.015.124.015.153v20.555c0 .61-.356 1.132-.869 1.382.187.103.396.16.612.16.192 0 .373-.045.536-.12l.001.002c.827-.427 4.958-2.566 5.11-2.653.48-.275.777-.789.777-1.34V4.307c0-.513-.254-.99-.68-1.277C22.91 2.92 17.886.323 17.886.323v.002a1.3 1.3 0 0 0-.584-.117m-1.256 1.016a.51.51 0 0 0-.364.15s-2.941 3.309-6.198 6.968l3.85 3.15 3.226-2.715v-7.04a.51.51 0 0 0-.514-.513M3.198 4.82c-.08 0-.229 0-.896.31-.367.17-1.647.841-1.647.841-.17.092-.306.236-.402.403a1 1 0 0 1 .118-.012h.001c.343 0 .554.24.628.317 0 0 14.496 15.79 14.682 15.977a.51.51 0 0 0 .726 0c.1-.1.152-.232.152-.364v-6.85L3.889 5.088a1.03 1.03 0 0 0-.69-.267m-2.98 2.57a.103.103 0 0 0-.103.103v9.56a.1.1 0 0 0 .1.101.1.1 0 0 0 .073-.033l2.91-3.23v-3.408L.291 7.42a.1.1 0 0 0-.073-.03m5.166 5.557S.967 17.907.917 17.958a.77.77 0 0 1-.662.213c.103.18.256.33.444.42l-.002.004c.447.227 1.923.976 2.117 1.056a1.03 1.03 0 0 0 .897-.064c.012-.006 4.383-3.684 4.383-3.684z" style="stroke-width:.513889"/></svg>