<svg xmlns="http://www.w3.org/2000/svg" width="24" height="24" viewBox="0 0 1.44 1.44"><path fill-rule="evenodd" d="M.329.021c-.01.005-.01-.02-.01.706-.001.552 0 .693.002.697.005.01.02.01.027 0l.005-.006V.032L.347.026Q.34.018.33.021M.169.33.162.342C.16.348.159.51.158.736l-.002.384.007.007c.007.007.01.008.018.004.011-.006.011.006.013-.405L.196.339.189.332Q.18.322.17.33M.775.34C.771.349.771.353.77.425l-.001.69c.003.015.02.018.028.006.005-.007.005-.012.007-.389C.806.362.806.35.802.342Q.798.333.79.334C.78.333.779.334.775.34M.483.344C.48.35.48.357.477.464L.476.848c0 .264 0 .27.004.278q.005.008.013.008.012 0 .017-.014L.512.733V.35L.507.344Q.493.332.483.344M1.1.349l-.006.006v.374l-.001.374.005.007q.01.012.023 0l.006-.006V.73l.001-.373L1.12.35C1.112.341 1.108.341 1.1.35M.638.52Q.634.523.63.53a1.3 1.3 0 0 0-.002.21C.63.924.63.941.635.946.643.96.657.958.663.944.666.936.666.91.665.736Q.663.54.66.531A.016.016 0 0 0 .638.52m.306.003Q.94.528.937.536a3 3 0 0 0-.002.19c0 .179 0 .18.005.186C.946.92.957.92.964.91.97.903.97.902.97.719c0-.184 0-.184-.005-.19A.016.016 0 0 0 .944.523m.31.013c-.005.008-.005.013-.005.2 0 .181 0 .19.004.196.005.007.018.008.023.002l.006-.013c.001-.006.002-.092.002-.193 0-.194 0-.194-.01-.199q-.014-.005-.02.007M.025.6.019.607v.128c0 .081 0 .131.002.137C.026.89.04.892.05.881.054.876.055.87.055.743.055.65.054.608.052.604Q.046.594.035.593zm1.37.01c-.01.006-.011.013-.01.12a1 1 0 0 0 .005.108c.003.007.012.011.018.01q.005-.002.01-.01c.004-.007.005-.01.003-.11 0-.065-.002-.106-.004-.11L1.41.61C1.402.607 1.4.607 1.395.61" style="stroke-width:1.2;stroke-dasharray:none"/></svg>