<svg version="1.1" id="svg1" width="24" height="24" viewBox="0 0 24 24" xmlns="http://www.w3.org/2000/svg">
   <defs id="defs1" />
   <g id="g1">
      <path style="fill:#000000;stroke-width:0.0149999"
         d="M 0,12 V 0 H 12 24 V 12 24 H 12 0 Z m 13.055057,9.780999 c 0.571571,-0.263897 0.621807,-1.068105 0.08807,-1.409827 L 13.02,20.292342 V 12.009875 3.7274085 l 0.0702,-0.033475 c 0.08971,-0.042779 0.241983,-0.1826903 0.301868,-0.277359 0.119972,-0.189657 0.157675,-0.4476035 0.09617,-0.6579442 -0.06585,-0.2252071 -0.256065,-0.439039 -0.464202,-0.5218494 -0.163273,-0.06496 -0.465177,-0.064798 -0.628966,3.376e-4 -0.167645,0.066669 -0.318138,0.2130501 -0.409883,0.3986842 -0.07105,0.1437532 -0.07518,0.1626354 -0.07518,0.343161 0,0.1732499 0.0059,0.2035573 0.0637,0.3255037 0.07465,0.1575722 0.211085,0.3112934 0.334328,0.3766739 l 0.08748,0.04641 0.01187,0.491225 c 0.0065,0.2701735 0.01053,3.9951627 0.0089,8.2777527 l -0.003,7.786528 -0.111652,0.07652 c -0.327686,0.224587 -0.464427,0.552817 -0.37315,0.895699 0.07261,0.272774 0.259013,0.469046 0.541238,0.569906 0.163165,0.05831 0.402442,0.04025 0.585318,-0.04419 z M 7.9659021,19.896841 c 0.061075,-0.03269 0.09089,-0.0658 0.1140203,-0.126637 C 8.0932331,19.735194 8.1,17.122396 8.1,12.018056 8.1,3.6983652 8.10691,4.2291307 7.9976625,4.1526138 c -0.065933,-0.046182 -0.2003851,-0.041961 -0.2642764,0.0083 -0.028605,0.0225 -0.061268,0.07425 -0.072586,0.115 -0.026812,0.09654 -0.028133,15.3582682 -0.00134,15.4740912 0.032389,0.140007 0.1837161,0.212521 0.3064407,0.146841 z m 1.6353084,-1.397703 c 0.033253,-0.02368 0.066044,-0.07204 0.077976,-0.115 0.013919,-0.05012 0.020627,-2.117132 0.020702,-6.37978 1.2e-4,-6.8114945 0.00669,-6.3954549 -0.1022259,-6.4717442 -0.1178223,-0.082526 -0.2957211,-0.00598 -0.330143,0.142044 -0.00994,0.042759 -0.013195,2.8157615 -0.00752,6.4119832 l 0.01,6.336641 0.065316,0.05836 c 0.079408,0.07095 0.1814008,0.07766 0.2658949,0.0175 z m -0.785712,-0.459222 c 0.036024,-0.02196 0.076524,-0.06468 0.09,-0.09493 C 8.9246537,17.901999 8.93,16.606608 8.93,12.008443 V 6.1268854 L 8.874101,6.053598 C 8.843356,6.01329 8.796274,5.974807 8.769473,5.9680806 8.690075,5.9481529 8.5777937,5.9853435 8.5319412,6.0467572 L 8.49,6.1029318 8.4849,11.993232 c -0.00559,6.459024 -0.014418,5.974396 0.1102134,6.051672 0.072794,0.04514 0.1406976,0.0436 0.2203851,-0.005 z M 6.3964776,16.558232 c 0.036075,-0.01258 0.081677,-0.05269 0.1079845,-0.095 L 6.5500001,16.39 v -4.383535 c 0,-4.352534 -2.835e-4,-4.3839102 -0.04,-4.4365395 -0.064387,-0.085319 -0.1334299,-0.1174857 -0.218086,-0.1016042 -0.092157,0.017289 -0.1431024,0.066703 -0.1705038,0.16538 -0.014614,0.052628 -0.021222,1.4182798 -0.021299,4.4019407 -9e-5,3.605551 0.00442,4.336357 0.027128,4.39 0.039091,0.09236 0.089506,0.131712 0.1947757,0.152038 0.00661,0.0013 0.040117,-0.0075 0.074463,-0.01945 z m 0.8788433,-0.604461 c 0.026109,-0.02611 0.055628,-0.08264 0.065598,-0.125621 0.023305,-0.100474 0.023388,-7.4867983 9e-5,-7.6075828 C 7.3161899,8.0919243 7.2231484,8.011629 7.1156158,8.0260522 7.0723228,8.0318591 7.0183568,8.0531229 6.9956924,8.0733051 6.8954295,8.1625827 6.9,7.9732857 6.9,12.0364 v 3.797684 l 0.0456,0.06767 c 0.02508,0.03722 0.06783,0.07936 0.095,0.09365 0.067276,0.03539 0.1772012,0.01589 0.2347209,-0.04163 z m 3.0952941,0.03056 c 0.02234,-0.01888 0.05609,-0.05659 0.075,-0.08378 0.03222,-0.04634 0.03439,-0.289691 0.03439,-3.865643 0,-4.1177088 0.0054,-3.9068182 -0.102337,-3.9822942 -0.02561,-0.017938 -0.08385,-0.032614 -0.129416,-0.032614 -0.11803,0 -0.180074,0.05529 -0.208039,0.1853923 -0.01632,0.075936 -0.0208,1.1379242 -0.01635,3.8746079 0.0066,4.042392 6.45e-4,3.815842 0.102338,3.905001 0.0519,0.0455 0.19025,0.04512 0.244415,-6.6e-4 z m -5.5280462,-0.89566 c 0.1240346,-0.06414 0.1174313,0.108416 0.1174313,-3.068671 0,-3.1200714 0.00415,-2.9927961 -0.1000796,-3.0658046 -0.02794,-0.01957 -0.078086,-0.029125 -0.1357611,-0.025869 -0.076238,0.0043 -0.100833,0.016395 -0.1478077,0.072663 L 4.52,9.0684891 v 2.9367489 c 0,3.215514 -0.00742,3.016891 0.1152514,3.083454 0.071271,0.03867 0.1325076,0.03866 0.2073174,0 z m 8.8580862,-0.439009 c 0.127548,-0.06596 0.120324,0.101807 0.114574,-2.660755 L 13.81,9.4767144 13.744684,9.4183572 C 13.69265,9.3718662 13.660726,9.36 13.587684,9.36 13.510084,9.36 13.485555,9.370445 13.428,9.428 L 13.36,9.496 v 2.502993 c 0,2.739537 -0.0068,2.583482 0.115251,2.649699 0.07102,0.03853 0.152089,0.03888 0.225404,9.7e-4 z m -8.0559705,-0.248019 0.065316,-0.05836 0.00525,-2.310665 0.00525,-2.3106653 -0.061086,-0.069573 C 5.6258175,9.6141179 5.5732695,9.5773061 5.5426414,9.570579 5.4405899,9.5481648 5.3134842,9.6273621 5.2888877,9.7286882 c -0.00552,0.022721 -0.00752,1.0703008 -0.00446,2.3279548 l 0.00557,2.286644 0.065316,0.05836 c 0.090339,0.08071 0.1990299,0.08071 0.2893685,0 z M 11.971726,14.20703 C 12.085112,14.132737 12.08,14.235995 12.08,12.02 c 0,-2.2089233 0.0046,-2.1124863 -0.104336,-2.1887859 -0.09299,-0.065131 -0.267336,-0.019295 -0.313704,0.082472 -0.03193,0.070071 -0.0315,4.1511189 4.41e-4,4.2107999 0.05988,0.111893 0.205306,0.1507 0.309325,0.08254 z m -0.795705,-0.656751 c 0.03752,-0.03157 0.06617,-0.08086 0.07847,-0.135 0.01483,-0.06522 0.02138,-2.480297 0.0076,-2.792279 -0.0011,-0.02585 -0.03268,-0.0776 -0.07008,-0.115 -0.111692,-0.111692 -0.269834,-0.08755 -0.342114,0.05222 -0.0257,0.0497 -0.02979,0.254555 -0.02918,1.463786 7.66e-4,1.520692 -0.0035,1.461845 0.11064,1.537066 0.08127,0.05357 0.172985,0.04953 0.244672,-0.01079 z m 4.918009,-0.04947 c 0.132437,-0.08075 0.127363,-0.01753 0.121381,-1.512155 l -0.0054,-1.351743 -0.07471,-0.06846 c -0.117552,-0.107718 -0.256918,-0.08787 -0.349692,0.04979 l -0.0456,0.06767 v 1.328036 c 0,1.465593 -0.005,1.407024 0.125971,1.486859 0.03522,0.02147 0.08653,0.03904 0.114029,0.03904 0.0275,0 0.07881,-0.01757 0.11403,-0.03904 z m -0.811988,-0.146503 c 0.03883,-0.02611 0.07819,-0.0754 0.09183,-0.114999 0.03113,-0.09037 0.03611,-2.312579 0.0054,-2.423022 -0.05465,-0.196751 -0.315767,-0.241463 -0.41922,-0.07178 -0.03877,0.06359 -0.03992,0.100774 -0.0393,1.275498 6.86e-4,1.308545 -0.0028,1.266347 0.110565,1.341073 0.07803,0.05144 0.167724,0.04902 0.250694,-0.0068 z M 14.52,13.222169 c 0.101622,-0.07322 0.100298,-0.05612 0.09498,-1.226795 l -0.005,-1.094627 -0.06538,-0.06537 c -0.0547,-0.05471 -0.08025,-0.06537 -0.156521,-0.06537 -0.07972,0 -0.09974,0.0094 -0.159616,0.07471 l -0.06846,0.0747 v 1.097596 c 0,1.095225 9e-5,1.097716 0.0433,1.152648 0.08588,0.109185 0.209575,0.129694 0.316696,0.05251 z M 4.1100699,13.17393 c 0.052664,-0.05266 0.068753,-0.08817 0.079297,-0.175 0.00727,-0.05991 0.010394,-0.542531 0.00693,-1.072489 -0.00612,-0.936899 -0.00744,-0.96512 -0.047587,-1.02 -0.02271,-0.03104 -0.07446,-0.07293 -0.1150001,-0.09309 -0.071461,-0.03553 -0.075996,-0.03553 -0.1487092,0 -0.1478736,0.07226 -0.1449378,0.04781 -0.1449378,1.206647 0,0.940686 0.00303,1.036046 0.034969,1.099722 0.068526,0.136628 0.2269813,0.162265 0.3350381,0.05421 z M 16.835628,12.909416 c 0.14506,-0.05804 0.144372,-0.0538 0.144372,-0.888495 0,-0.824961 -4.65e-4,-0.828108 -0.129071,-0.889139 -0.09333,-0.04429 -0.190396,-0.0254 -0.263967,0.05137 l -0.05696,0.05944 -0.0057,0.754746 -0.0057,0.754745 0.04637,0.06896 c 0.03736,0.05557 0.103533,0.0967 0.189579,0.117833 0.0025,6.21e-4 0.03899,-0.01263 0.08103,-0.02946 z m 0.790926,-0.156687 c 0.0359,-0.015 0.08286,-0.05325 0.104358,-0.085 0.03584,-0.05293 0.03962,-0.100909 0.04548,-0.577729 0.0035,-0.286 4.65e-4,-0.559957 -0.0068,-0.608794 -0.03466,-0.233359 -0.303973,-0.302057 -0.430671,-0.109857 -0.03599,0.0546 -0.03865,0.09874 -0.0385,0.638651 1.8e-4,0.635043 0.002,0.64636 0.117822,0.7244 0.07818,0.05268 0.117748,0.05617 0.208305,0.01833 z m 1.612003,-0.06506 c 0.108357,-0.06401 0.110936,-0.07774 0.117912,-0.62767 0.0073,-0.574522 -0.0023,-0.639722 -0.102559,-0.700882 -0.131889,-0.08042 -0.286451,-0.02972 -0.346334,0.113598 -0.03633,0.08696 -0.03752,0.981844 -0.0015,1.086591 0.04601,0.133591 0.213861,0.198404 0.332429,0.128363 z m 1.636736,-0.0361 0.07471,-0.06843 0.0059,-0.531579 c 0.0052,-0.464675 0.0017,-0.540499 -0.0277,-0.602448 -0.0773,-0.162895 -0.319872,-0.175009 -0.404736,-0.02021 -0.02798,0.05103 -0.03456,0.136952 -0.03996,0.521106 -0.0079,0.561554 -0.0012,0.616374 0.08625,0.703794 0.09405,0.09405 0.201246,0.09327 0.305499,-0.0022 z M 3.2729775,12.585861 C 3.3570988,12.531425 3.37,12.456183 3.37,12.02 c 0,-0.35332 -0.00497,-0.420363 -0.035921,-0.484962 -0.088843,-0.185407 -0.3175512,-0.1672 -0.3927472,0.03126 -0.01255,0.03312 -0.02132,0.222503 -0.021301,0.46 3e-5,0.456905 0.0142,0.515863 0.1388863,0.578096 0.072633,0.03625 0.1381622,0.03058 0.2140604,-0.01854 z m 15.1695915,-0.09719 c 0.09857,-0.05097 0.11743,-0.127924 0.11743,-0.479023 0,-0.33387 -0.01412,-0.395436 -0.103977,-0.453392 -0.07633,-0.04923 -0.137136,-0.05549 -0.219376,-0.02258 C 18.106395,11.585792 18.09,11.639046 18.09,12.01 c 0,0.215614 0.0084,0.339827 0.02568,0.380779 0.04974,0.117722 0.200966,0.163011 0.326891,0.09789 z M 1.6278561,12.429677 c 0.1126891,-0.05348 0.1321438,-0.113315 0.1321438,-0.406461 0,-0.143337 -0.00878,-0.283694 -0.019502,-0.311905 -0.049317,-0.129715 -0.2538919,-0.167008 -0.3560017,-0.0649 -0.040032,0.04003 -0.052222,0.07823 -0.064284,0.201413 -0.018954,0.193584 -0.00326,0.42587 0.033696,0.498685 0.026752,0.05271 0.1212905,0.110915 0.1830684,0.112707 0.014838,4.31e-4 0.055733,-0.01286 0.09088,-0.02954 z m 18.4209079,0.0072 c 0.0942,-0.04292 0.131289,-0.161532 0.130798,-0.418238 -3.45e-4,-0.182342 -0.0082,-0.245875 -0.03894,-0.313505 -0.07461,-0.164362 -0.259063,-0.190571 -0.379092,-0.05387 L 19.7,11.721392 V 12.022696 12.324 l 0.068,0.068 c 0.05496,0.05496 0.08354,0.068 0.149058,0.068 0.04458,0 0.103849,-0.01038 0.131706,-0.02308 z m 1.625283,-0.06085 0.06595,-0.06392 v -0.293156 c 0,-0.283763 -0.0016,-0.294858 -0.04923,-0.34628 -0.103524,-0.111703 -0.241557,-0.116226 -0.342264,-0.01121 -0.05768,0.06015 -0.0586,0.06467 -0.06513,0.321679 -0.0044,0.173532 0.0015,0.280316 0.01771,0.319425 0.03764,0.09087 0.110662,0.137394 0.215665,0.137394 0.07566,0 0.102681,-0.01098 0.157302,-0.06392 z m 0.75921,-0.13878 c 0.05391,-0.04474 0.08674,-0.134295 0.08674,-0.236598 0,-0.08699 -0.0094,-0.111596 -0.06693,-0.174326 -0.05774,-0.06301 -0.07912,-0.07304 -0.155617,-0.07304 -0.114052,0 -0.185472,0.04759 -0.226939,0.15123 -0.08238,0.205895 0.0817,0.427296 0.27643,0.372995 0.03132,-0.0087 0.07016,-0.02685 0.08632,-0.04026 z M 0.92648299,12.200764 c 0.0600932,-0.05798 0.0890165,-0.176286 0.0657565,-0.268962 -0.0155217,-0.06184 -0.10172205,-0.144826 -0.1676226,-0.161366 -0.17899973,-0.04493 -0.32907176,0.186909 -0.23666448,0.365604 0.0776943,0.150245 0.22141779,0.177723 0.33853058,0.06472 z m 22.27417101,0.0489 c 0.16532,-0.08549 0.154674,-0.406185 -0.01566,-0.47186 -0.08155,-0.03144 -0.203275,-0.0086 -0.260808,0.04892 -0.06079,0.06079 -0.08269,0.220319 -0.0433,0.315409 0.04962,0.1198 0.198941,0.170011 0.31977,0.107527 z M 2.4582963,12.230881 c 0.138445,-0.07159 0.1580859,-0.30584 0.033604,-0.400787 -0.2377964,-0.181376 -0.4996694,0.185182 -0.2702241,0.378248 0.069486,0.05847 0.1519492,0.06632 0.2366201,0.02254 z"
         id="path1" />
   </g>
</svg>