<svg width="25" height="20" viewBox="0 0 25 20" fill="none" xmlns="http://www.w3.org/2000/svg">
<path fill-rule="evenodd" clip-rule="evenodd" d="M21.2987 0.52787H12.042L11.4441 3H2.5C1.11929 3 0 4.11929 0 5.5V17C0 18.3807 1.11929 19.5 2.5 19.5H11.8873L12.5261 17.025H21.2987C22.0169 17.0213 22.7047 16.7249 23.2125 16.2C23.7203 15.6752 24.0072 14.9644 24.0107 14.2222V3.3353C24.0107 1.78334 22.7959 0.52787 21.2987 0.52787ZM11.2023 4L8.05239 17.025H11.4933L11.1127 18.5H2.5C1.67157 18.5 1 17.8284 1 17V5.5C1 4.67157 1.67157 4 2.5 4H11.2023Z" fill="black"/>
</svg>
