<svg xmlns="http://www.w3.org/2000/svg" xml:space="preserve" width="600" height="600" viewBox="0 -50 600 600"><path d="M218.2 183.2c51 0 99.3 21.9 138.2 39.5 21.2 9.6 43.1 19.5 53.4 19.5 8 0 21.5 0 30.5-42.1l4.6-21.3 21.6 3.1 66.7 9.6c11.2-27.9 18.8-61.6 22.9-101.2L426.4 71.7c-8.6 40.3-24.5 60.5-53.3 60.5-37.4 0-113.8-59.1-191.6-59.1-105.1 0-158.3 66.3-174.2 203.1l46 6.7c7.6-15.6 16.4-29.3 26.4-41.2 32.9-38.8 79.5-58.5 138.5-58.5"/><path d="M409.8 265.6c-37.4 0-113.8-59.1-191.6-59.1-105.1 0-158.4 66.3-174.3 203.1l129.6 18.7c8.7-41.8 24.5-60.5 53.3-60.5 38.9 0 112.3 59.1 191.6 59.1 105.1 0 159.9-66.3 174.3-203.1l-129.6-18.7c-8.7 40.3-24.5 60.5-53.3 60.5"/></svg>