<svg xmlns="http://www.w3.org/2000/svg" class="icon" viewBox="0 0 24 24"><path d="M16.3078.52997c-.42476 0-.76583.43353-.76583.96468v1.92547c0 .53507.34417.96468.76583.96468.42478 0 .76584-.43351.76584-.96468V1.49465c0-.53508-.34416-.96468-.76584-.96468zm-4.69196 1.28445c-.12937.00046-.26046.04225-.38051.12938-.36586.26558-.49299.85142-.27905 1.31618l.76583 1.6677c.21084.46087.67902.61709 1.04488.3515.36587-.26558.4899-.85532.27905-1.31617l-.76584-1.6677c-.13176-.28805-.36408-.45711-.6091-.47854a.78607.90304 0 0 0-.0552-.00223zm9.33309 1.14873c-.19574 0-.39184.09374-.54221.2812l-1.0821 1.36308c-.29765.37493-.29765.9842 0 1.36306.29766.37494.78134.37494 1.0821 0l1.08209-1.36306c.30075-.37884.30075-.98812 0-1.36307-.14883-.18747-.34417-.2812-.53988-.2812Zm-5.85088 3.18152a5.24326 4.1703 88.86366 0 0-2.5212 1.36403c-.80963-.58884-1.74608-.93012-2.7459-.93012-2.85939 0-5.22215 2.76607-5.49114 6.28178-2.14798.21342-3.85303 2.4881-3.85303 5.24642 0 2.90487 1.89177 5.42858 4.22023 5.26613.0891-.0052.16521-.01457.23004-.02202l.67314-.07713v.07327h9.1444c.01788 0 .05998-.0037.09062-.0045.10676.013.21222.02357.312.02715.97233.03772 1.86315-.35688 2.59304-.94858 1.31522-1.06467 2.1802-2.92991 2.18752-5.03306v-.0044c0-1.27803-.32408-2.46272-.8701-3.43763a5.24326 4.1703 88.86366 0 0 .365-3.93164 5.24326 4.1703 88.86366 0 0-3.19339-3.76892 5.24326 4.1703 88.86366 0 0-1.14123-.10135ZM22.9487 8.3696a.77759.89329 0 0 0-.06636.00149.6439.6439 0 0 0-.15332.03235l-1.47585.49992c-.40617.1367-.64802.66395-.5395 1.1795.10852.51553.5271.82016.93637.67957l1.47585-.49992c.40928-.1367.65112-.66395.5395-1.1795-.08901-.4229-.38668-.70393-.71668-.71365Zm-13.11775.07348c1.9786 0 3.61118 1.77678 3.96721 4.12473l.13472.88803.70879-.14234c.1773-.03564.3587-.05483.5408-.05483 1.816 0 3.27393 1.83593 3.27495 4.12315-.0059 1.46559-.60358 2.73942-1.50772 3.47112l-.00023.00028-.00023.0002c-.52252.4236-1.1197.67722-1.74692.65274h-.0024c-.09404-.0037-.17703-.0098-.25401-.02127l-.07658-.0114-.0769.0088c.01423-.0015-.0046.0001-.0384.0001H4.17893c-1.224-.22432-2.21238-1.69477-2.21238-3.37573 0-1.89023 1.2009-3.40296 2.70149-3.40296.10673 0 .2076.0067.29796.0206l.86699.13309-.03796-1.09904c-.00238-.06286-.00238-.13923-.00238-.22908 0-2.81971 1.79935-5.08627 4.03784-5.08627zm11.19155 5.2594c-.3284.01177-.62653.2922-.71809.71189-.10852.51554.13332 1.0428.53949 1.1795l1.47586.49992c.40927.13669.82784-.16794.93635-.67957.10853-.51555-.13331-1.0428-.53949-1.1795l-1.47585-.49992c-.05077-.01704-.1017-.0273-.15223-.03102a.76466.87844 0 0 0-.06604-.0015z"/></svg>