<svg xmlns="http://www.w3.org/2000/svg" width="24" height="24" viewBox="0 0 24 24"><path d="M9.918 1.165 C 7.010 2.836,3.905 4.638,2.768 5.314 C 1.942 5.805,1.711 5.961,1.688 6.040 C 1.651 6.171,1.651 17.550,1.689 17.680 C 1.706 17.740,1.793 17.826,1.909 17.895 C 3.736 18.995,11.390 23.425,11.709 23.567 L 11.877 23.643 12.129 23.516 C 12.426 23.366,13.435 22.790,16.940 20.769 C 21.814 17.958,22.067 17.806,22.106 17.652 C 22.154 17.460,22.097 6.067,22.048 5.974 C 21.988 5.863,21.099 5.341,15.726 2.263 C 12.208 0.248,11.976 0.120,11.849 0.120 C 11.775 0.120,11.115 0.478,9.918 1.165 M9.860 7.044 C 10.158 7.096,10.670 7.338,10.966 7.567 C 11.230 7.772,11.511 8.091,11.709 8.410 C 11.787 8.537,11.865 8.640,11.882 8.640 C 11.899 8.640,11.962 8.555,12.023 8.450 C 12.433 7.746,13.071 7.257,13.840 7.055 C 14.134 6.978,14.836 6.969,15.200 7.039 C 15.671 7.129,16.372 7.551,16.706 7.948 C 17.561 8.962,17.645 10.312,16.943 11.740 C 16.511 12.618,15.967 13.248,14.460 14.614 C 12.742 16.171,12.443 16.475,12.052 17.064 C 11.973 17.183,11.895 17.280,11.878 17.280 C 11.861 17.280,11.743 17.132,11.617 16.950 C 11.320 16.523,10.778 15.968,9.760 15.050 C 7.774 13.259,7.112 12.493,6.673 11.473 C 6.436 10.924,6.361 10.553,6.360 9.935 C 6.360 9.294,6.400 9.066,6.582 8.684 C 7.200 7.378,8.378 6.789,9.860 7.044 " fill="#333943" stroke="none" fill-rule="evenodd"></path></svg>