<svg viewBox="0 0 1024 1024" version="1.1" xmlns="http://www.w3.org/2000/svg" width="24" height="24"><path d="M702.528 770.368c27.84 27.968 61.632 44.928 98.816 55.488l14.208 3.712c26.56 4.864 40.448 29.056 41.6 53.76 0 29.12-21.12 53.76-50.112 58.048-27.84 3.648-56.768-13.952-62.848-41.664-8.448-42.944-26.56-80.384-57.984-111.808-3.648-3.648-1.28-11.52-2.432-17.536l12.8-1.088c2.752-0.064 4.992 0.128 5.952 1.088z m51.392-547.52c59.2 62.912 91.776 137.216 92.992 223.68a114.432 114.432 0 0 0-47.744-10.304h-2.368a114.688 114.688 0 0 0-109.44 101.504c-1.152 10.24-1.152 20.608 0 30.208-21.12 21.184-47.104 34.496-79.104 39.936h-0.64a110.464 110.464 0 0 0-46.464 193.92 437.248 437.248 0 0 1-111.808 18.752 505.472 505.472 0 0 1-144.384-13.888 52.544 52.544 0 0 0-23.68 2.368l-109.248 53.76c-13.952 7.296-26.688 8.512-38.72-1.152-11.52-8.512-12.736-21.184-11.52-36.288 4.864-30.144 8.512-60.416 11.52-90.624a32.768 32.768 0 0 0-8.512-19.968C77.12 667.008 36.032 614.4 15.424 548.032-23.168 416.32 11.84 303.296 107.328 208.96 281.92 38.08 587.072 45.888 753.92 222.912z m217.536 435.776a58.304 58.304 0 0 1 52.544 57.984c0 28.992-17.536 52.608-46.528 57.984a195.072 195.072 0 0 0-94.208 44.672l-9.728 9.088c-6.016 6.08-15.104 11.52-21.12 2.432-2.496-4.864-1.28-16.32 2.368-19.904 28.48-28.8 47.232-65.792 53.76-105.728a57.472 57.472 0 0 1 62.912-46.528z m-226.048-54.4c-1.216 6.08 1.216 15.168-2.432 18.688-30.208 30.272-46.464 66.56-54.976 108.16a53.952 53.952 0 0 1-62.784 42.88 60.672 60.672 0 0 1-50.752-58.56c0-25.408 18.688-48.96 44.096-53.76a200 200 0 0 0 108.16-55.04c3.584-3.584 12.672-2.368 18.752-2.368z m53.76-113.6a56.96 56.96 0 0 1 56.832 45.312 200.32 200.32 0 0 0 55.04 108.16c3.584 3.584 1.152 13.888 2.368 19.968l-13.44 0.704c-2.752 0-5.056-0.512-6.464-1.92-30.272-31.488-67.712-47.808-109.44-56.832a56.32 56.32 0 0 1-42.88-61.632 60.928 60.928 0 0 1 57.984-53.76z" fill="#000"></path></svg>