<?xml version="1.0" encoding="UTF-8" standalone="no"?>
<svg
   width="24"
   height="24"
   viewBox="0 0 24 24"
   version="1.1"
   id="svg1"
   sodipodi:docname=":wezterm:.svg"
   inkscape:version="1.4.3 (0d15f75, 2025-12-25)"
   xmlns:inkscape="http://www.inkscape.org/namespaces/inkscape"
   xmlns:sodipodi="http://sodipodi.sourceforge.net/DTD/sodipodi-0.dtd"
   xmlns="http://www.w3.org/2000/svg"
   xmlns:svg="http://www.w3.org/2000/svg">
  <defs
     id="defs1" />
  <sodipodi:namedview
     id="namedview1"
     pagecolor="#505050"
     bordercolor="#ffffff"
     borderopacity="1"
     inkscape:showpageshadow="0"
     inkscape:pageopacity="0"
     inkscape:pagecheckerboard="1"
     inkscape:deskcolor="#505050"
     inkscape:zoom="12.755717"
     inkscape:cx="8.3099991"
     inkscape:cy="26.772308"
     inkscape:window-width="1710"
     inkscape:window-height="1044"
     inkscape:window-x="0"
     inkscape:window-y="40"
     inkscape:window-maximized="0"
     inkscape:current-layer="svg1" />
  <title
     id="title1">Wezterm SVG Icon</title>
  <path
     fill="currentColor"
     d="m 3.27,7.8304444 c 0,-0.7903188 0.62,-1.2774496 2.123,-1.2774496 l -0.5,3.4974462 C 3.962,9.2601225 3.269,8.5294264 3.269,7.8304444 Z m 4.008,8.6351536 c 0,0.820765 -0.644,1.368787 -2.123,1.458855 l 0.524,-3.709297 c 0.931,0.791587 1.6,1.490569 1.6,2.250442 z m -2.625,7.60127 0.454,-3.435287 c 3.603,-0.42624 5.01,-2.280888 5.01,-4.318212 0,-2.096945 -2.004,-3.739743 -3.841,-5.168152 L 6.944,6.6443318 c 0.764,0.091337 1.67,0.2740111 2.744,0.5480221 L 9.998,4.0602554 C 9.188,3.908027 8.423,3.8471357 7.708,3.7862444 L 8.257,0.44229473 5.894,0.41184906 5.441,3.8166901 C 1.838,4.1820381 0.43,6.0975783 0.43,8.1349011 0.43,10.20267 2.434,11.783307 4.271,13.150826 L 3.603,17.86483 C 2.744,17.803939 1.695,17.621265 0.478,17.347254 L 0,20.479352 c 1.026,0.152229 1.98,0.243566 2.84,0.274011 l -0.525,3.283059 z m 15.553,-2.402672 h 2.673 C 23.213,18.107128 23.689,10.932097 24,2.8132515 H 21.447 C 21.376,4.7287916 21.113,16.130696 21.017,17.073243 H 20.946 C 20.302,14.003304 19.777,11.509296 19.133,8.4698036 h -1.456 c -0.62,3.0394924 -1.05,5.3203814 -1.694,8.6034394 H 15.887 C 15.816,16.130696 15.41,4.7300602 15.362,2.81452 h -2.648 c 0.31,8.117577 0.763,15.292608 1.097,18.850946 h 2.625 l 1.838,-9.032217 z"
     id="path1"
     style="stroke-width:1.12631" />
</svg>
