<svg viewBox="0 0 24 24" width="24" height="24" xmlns="http://www.w3.org/2000/svg">
  <path
    d="M4.8 0h14.4C21.833 0 24 2.167 24 4.8v14.4c0 2.633-2.167 4.8-4.8 4.8H4.8A4.8 4.8 0 0 1 0 19.2V4.8A4.8 4.8 0 0 1 4.8 0Zm2.13 18.875.335-1.997c2.657-.247 3.695-1.325 3.695-2.51 0-1.219-1.478-2.174-2.833-3.004l.493-2.616c.563.053 1.231.159 2.023.318l.229-1.821c-.598-.088-1.161-.123-1.689-.159l.404-1.944-1.742-.017-.334 1.979c-2.657.212-3.695 1.326-3.695 2.51 0 1.202 1.478 2.121 2.833 2.916l-.493 2.74c-.634-.036-1.408-.142-2.305-.301l-.352 1.821c.757.088 1.46.141 2.094.159l-.387 1.909 1.724.017ZM5.91 9.437c0-.459.457-.742 1.566-.742l-.37 2.032c-.686-.459-1.196-.883-1.196-1.29Zm2.956 5.02c0 .477-.475.795-1.566.848l.387-2.156c.686.459 1.179.866 1.179 1.308Zm9.533 3.022h1.971c.247-2.068.599-6.239.827-10.958h-1.882c-.053 1.113-.247 7.741-.317 8.289h-.053c-.475-1.785-.862-3.234-1.337-5.002h-1.074c-.457 1.768-.774 3.093-1.249 5.002h-.071c-.052-.548-.351-7.176-.387-8.289h-1.953c.229 4.719.563 8.89.81 10.958h1.935l1.355-5.249 1.425 5.249Z" />
</svg>