<svg xmlns="http://www.w3.org/2000/svg" width="24" height="24" viewBox="0 0 24 24"><path fill-rule="evenodd" d="M21.503.443c-3.155.189-6.319 1.082-8.903 2.512a19 19 0 0 0-4.2 3.107c-.901.878-1.037 1.024-1.706 1.824-1.696 2.031-3.137 4.507-4.302 7.394-.416 1.029-1.124 3.253-1.447 4.545-.175.698-.45 2.001-.487 2.306a.9.9 0 0 1-.142.4c-.095.14-.115.211-.115.413-.002.436.259.67.859.77.309.051 1.482.137 2.96.215 1.375.073 14.468.072 15.88-.001 1.419-.073 2.635-.161 2.953-.212l.273-.044-.027-.166a6 6 0 0 0-.103-.464 2.5 2.5 0 0 1-.076-.495c0-.122-.053-.355-.138-.603-.874-2.549-1.395-4.893-1.644-7.384-.086-.867-.12-2.894-.062-3.76.12-1.785.391-3.286.858-4.74.403-1.257.965-2.52 1.549-3.484.446-.735.437-.714.437-1.066 0-.358-.095-.597-.326-.818-.255-.243-.428-.291-1.034-.285-.297.003-.773.019-1.057.036"/></svg>