<svg xmlns="http://www.w3.org/2000/svg" viewBox="0 0 24 24">
    <g transform="translate(5, 0)">
        <path
            d="M6.213 13.792c-.217.115-.384.2-.547.29a5.3 5.3 0 0 0-1.694 1.473c-.147.199-.248.215-.472.078-2.914-1.782-3.101-6.254.08-8.2 2.476-1.514 5.638-.589 6.823 1.688.224.432.253 1.096.11 1.549-.49 1.563-1.65 2.44-3.24 2.812.468-.402.842-.857.96-1.487a2.18 2.18 0 0 0-.374-1.728 2.206 2.206 0 0 0-2.54-.774c-.98.372-1.517 1.266-1.42 2.365.09 1.021.864 1.683 2.314 1.934M0 18.894c.234-1.579 2.083-3.033 3.647-2.867-.484.655-.708 1.396-.762 2.135-.52.095-1.01.16-1.485.28-.468.12-.922.295-1.4.452" />
        <path
            d="M11.603 14.854c-.132-.114-.216-.114-.37-.015q-.787.503-1.606.953c-.313.172-.652.297-1.044.472.135.035.2.05.264.068 1.466.39 2.249 1.677 1.902 3.118-.308 1.281-1.61 2.1-2.87 1.885-1.051-.18-1.969-1.053-2.122-2.1-.167-1.14.4-2.235 1.41-2.695.56-.254 1.136-.476 1.695-.733.635-.293 1.322-.524 1.877-.932 1.377-1.01 2.227-2.403 2.559-4.083.198-1.007.185-2.009-.276-2.964-.353-.734-.933-1.266-1.556-1.753-.641-.5-1.32-.952-1.958-1.456-.173-.136-.29-.371-.37-.585-.033-.09.077-.335.15-.348a9 9 0 0 1 1.19-.122c.46-.017.92-.002 1.38.004.1.001.236-.012.293.045.239.234.426.083.591-.07.14-.13.239-.303.35-.449-.068-.01-.205-.045-.344-.048-.463-.01-.926-.004-1.389-.02-.082-.004-.162-.089-.242-.136.085-.033.17-.096.255-.097.798-.007 1.596-.004 2.395-.004.001-.415-.554-.984-1.047-1.138l-.01.164c-.49.012-.972.003-1.409-.23-.115-.061-.19-.197-.284-.299-.118-.128-.215-.292-.359-.376-.295-.17-.616-.295-.924-.445-1.093-.532-2.248-.514-3.488-.4l2.08.484-.023.122c-.895.12-1.742-.208-2.618-.33a10 10 0 0 0 .971.508c.338.151.686.28 1.034.42-.442.378-.886.46-1.442.334a3.5 3.5 0 0 0-.936-.092c-.32.016-.643.095-.934.29.312.157.599.288.87.447.112.066.24.177.27.292.075.275.097.564.14.848-.51.057-1.408.576-1.589.914.784.15 1.638-.032 2.386.474-.246.186-.82.418-1.03.577.26.069.863.035 1.099.02.198-.014.29-.019.371.048l2.31 1.807c.242.196 1.222 1.124 1.478 1.707.218.497.245.92.245 1.023a3.3 3.3 0 0 1-.225 1.193c-.08.203-.314.652-.798 1.176-.749.812-1.713 1.25-2.767 1.468-2.452.506-4.489 3.124-3.914 6.01.672 3.37 4.39 5.194 7.43 3.59 1.964-1.035 3.006-3.056 2.727-5.257-.17-1.329-.77-2.413-1.778-3.284M10.329 1.843c.088-.067.178-.123.286-.034.062.051.122.104.197.168-.093.049-.168.09-.245.129-.108.054-.188.018-.254-.068-.052-.07-.062-.135.016-.195" />
    </g>
</svg>
