<svg xmlns="http://www.w3.org/2000/svg" width="24" height="24" viewBox="0 0 24 24"><title>Xbox Logo</title><path d="M12.318 11.481c-1.84-.176-3.701-.837-5.3-1.88-1.341-.875-1.644-1.234-1.644-1.951 0-1.441 1.585-3.965 4.295-6.843 1.54-1.634 3.684-3.549 3.916-3.497.451.1 4.056 3.617 5.405 5.272 2.134 2.617 3.115 4.76 2.617 5.715-.38.727-2.73 2.146-4.457 2.692-1.423.449-3.293.64-4.832.492m-8.754-5.33C2.45 4.443 1.888 2.761 1.616.328c-.09-.804-.058-1.263.204-2.912.325-2.055 1.496-4.433 2.902-5.896.599-.623.652-.638 1.382-.392.887.298 1.834.952 3.302 2.28l.857.775-.468.574c-2.172 2.668-4.464 6.45-5.328 8.79-.47 1.272-.66 2.549-.457 3.08.136.36.01.225-.446-.476m19.55.291c.11-.537-.03-1.524-.356-2.518-.706-2.155-3.067-6.164-5.235-8.889l-.682-.858.738-.678c.964-.885 1.634-1.415 2.356-1.865.57-.355 1.384-.67 1.734-.67.216 0 .976.789 1.59 1.65.95 1.332 1.648 2.948 2.002 4.63.229 1.086.248 3.413.037 4.497-.173.89-.539 2.043-.895 2.826-.268.586-.932 1.725-1.224 2.096-.15.19-.15.19-.065-.221m-10.6-15.885c-1-.508-2.543-1.053-3.395-1.2a6 6 0 0 0-1.133-.063c-.704.035-.672-.002.456-.535.938-.443 1.72-.703 2.783-.926 1.195-.251 3.44-.254 4.616-.006 1.27.267 2.766.824 3.608 1.342l.25.154-.574-.029c-1.142-.057-2.806.404-4.592 1.274-.54.262-1.008.471-1.042.465s-.474-.22-.977-.476" style="fill:#000;stroke-width:.0641153" transform="translate(-1.57 12.357)"/></svg>