<svg xml:space="preserve" width="24" height="24" fill-rule="evenodd" stroke-linejoin="round" stroke-miterlimit="2"
  clip-rule="evenodd" xmlns="http://www.w3.org/2000/svg">
  <path fill="#fff"
    d="M6.816 21.91h-1.96a4.444 4.444 0 0 1-4.442-4.442V6.467a4.444 4.444 0 0 1 4.441-4.442h10.557c.493.255.67.605.81.818.045.068.086.146.124.232H5.33A3.847 3.847 0 0 0 1.485 6.92v10.206A3.847 3.847 0 0 0 5.33 20.97h1.622c-.123.197-.294.57-.136.939Zm8.596-19.885a2.31 2.31 0 0 0-.374-.151c-.789-.245-.851-.296-1.975-.34-1.125-.045-1.048.05-.43-.376.529-.364.375-.128-.045-.208-.26-.05-.39-.019-.39-.019S12.864.27 15.57.385C18.277.502 20.618 2 20.83 2.191c.213.191.657 1.193 1.561 1.22.905.027.581-.154 1.015.099.433.252.871.447.871.447s.216-.122-.531 1.27c-.748 1.392-.838 1.295-.995 1.219-.132-.063-.675-.38-.85-.482.027-.016.028-.072.035-.13a9.86 9.86 0 0 1 .029-.101s.722.425.883.503a.97.97 0 0 0 .086-.097c.131-.172.318-.481.608-1.021.282-.525.426-.858.49-1.02-.169-.08-.457-.222-.742-.389a5.263 5.263 0 0 0-.187-.103l-.054.007c-.102.016-.278.04-.664.029-.522-.016-.916-.304-1.205-.625-.243-.27-.4-.561-.504-.654C20.47 2.177 18.19.729 15.56.616c-1.169-.05-1.936.045-2.426.163a.27.27 0 0 1 .065.137c.004.029.024.144-.107.229-.015.01-.092.046-.247.149l.227.009c1.158.046 1.222.098 2.034.35.32.1.556.231.737.372h-.431Zm6.49 3.94c-.037-.04-.227-.172-.314-.29a4.408 4.408 0 0 0-.144-.576c.164.142.278.3.326.433.035.099.196.201.196.201a.26.26 0 0 0-.029.1 5.892 5.892 0 0 0-.034.131Zm-.314-.29c.046.256.07.521.07.792v11.001a4.444 4.444 0 0 1-4.441 4.442h-6.794c.138-.259.305-.577.495-.94h5.868a3.847 3.847 0 0 0 3.845-3.844V6.92c0-.709-.192-1.372-.527-1.942.669-.194 1.33.3 1.448.632.007.02.02.042.036.064ZM10.423 21.91c-.183.343-.313.58-.373.677-.497.807-.981.677-1.537.543-.556-.134-1.27-.53-1.635-1.104a.833.833 0 0 1-.062-.116h.262c.333.519.985.874 1.49.995.282.068.543.152.798.047.166-.069.323-.219.488-.486.052-.085.159-.278.307-.556h.262ZM21.205 4.927c-.338-.198.165-.057.239.172a1.623 1.623 0 0 0-.24-.172Zm-4.859-1.852s.332.24.365.37h-.235a2.71 2.71 0 0 0-.13-.37ZM6.952 20.97c.057-.091.103-.145.103-.145l.14-.225h.271a1437.99 1437.99 0 0 0-.23.37h-.284Zm.242-.37H5.188a3.387 3.387 0 0 1-3.386-3.386V6.83a3.387 3.387 0 0 1 3.386-3.386h11.288c.151.543.187 1.206.062 1.59-.179.547-1.302 2.672-1.772 3.42a37.234 37.234 0 0 0-.916 1.575.327.327 0 0 0-.184.137l-.306.489-1.255-2.022.992-1.593a.866.866 0 0 0-1.47-.915l-.54.869-.565-.91a.866.866 0 0 0-1.47.914l1.015 1.634L7 13.56H4.343a.817.817 0 0 0 0 1.633h1.642l-.997 1.601a.866.866 0 0 0 1.47.915l1.566-2.516h2.52L7.195 20.6Zm12.91-15.623c-.099.028-.198.072-.296.134a3.374 3.374 0 0 0-.124-.195c.097-.061.38-.008.42.06ZM10.918 20.97s-.134-.242-.067-.37h.26l-.193.37Zm8.89-15.86c.298.505.469 1.092.469 1.72v10.384a3.387 3.387 0 0 1-3.386 3.386h-5.78c.782-1.5 1.855-3.589 2.788-5.41h.242l1.54 2.48a.866.866 0 0 0 1.47-.913l-.972-1.566h1.55a.817.817 0 0 0 0-1.633h-2.565l-.235-.38.972-1.905a.417.417 0 0 0 .02-.18c.032-.08.062-.167.081-.249.067-.276.743-1.346 1.758-3.314 1.014-1.968 1.251-1.883 2.016-2.398.01-.007.021-.015.032-.021Zm-6.5 6.09c-.246.397-.414.64-.83 1.313l-.137-.22 1.02-1.64-.052.547Zm-2.763 3.99 1.012-1.632h.272l-1.012 1.633h-.272Zm.306 5.41 2.789-5.41a940.384 940.384 0 0 1-2.79 5.41Zm.706-7.042H9.04l2.045-3.287 1.256 2.023-.784 1.264Zm3.372-.38-1.03 2.013h-.26c.423-.824.818-1.598 1.147-2.242l.143.23Zm-2.452-.665-.648 1.045.648-1.045Z" />
  <path fill="#fff"
    d="M21.903 5.964c-.045-.047-.304-.222-.35-.354-.139-.386-1.012-.993-1.777-.477-.765.515-1.001.43-2.016 2.398-1.015 1.968-1.69 3.038-1.757 3.314-.02.082-.05.169-.081.25a.417.417 0 0 1-.02.179s-5.355 10.507-5.852 11.313c-.497.807-.981.677-1.537.543-.556-.134-1.27-.53-1.635-1.103-.364-.574.177-1.201.177-1.201s6.323-10.213 6.611-10.66a.327.327 0 0 1 .185-.137c.219-.397.602-1.076.915-1.575.47-.748 1.593-2.873 1.772-3.42.178-.548.03-1.667-.316-2.19-.17-.26-.396-.725-1.184-.97-.789-.245-.85-.296-1.975-.34-1.125-.045-1.048.05-.43-.376.529-.364.375-.128-.045-.208-.26-.05-.39-.019-.39-.019S12.864.27 15.57.385C18.277.502 20.619 2 20.83 2.191c.213.191.657 1.193 1.562 1.22.904.027.58-.154 1.014.099.434.252.871.447.871.447s.217-.122-.531 1.27-.838 1.295-.995 1.22c-.132-.064-.675-.38-.849-.483.016-.062.036-.138.063-.231 0 0 .722.425.883.503a.977.977 0 0 0 .086-.097c.131-.171.318-.481.608-1.021.282-.525.426-.858.49-1.02-.169-.08-.456-.222-.742-.389a5.344 5.344 0 0 0-.187-.103 3.377 3.377 0 0 1-.718.036c-.522-.016-.916-.304-1.205-.625-.243-.27-.4-.561-.504-.654C20.47 2.177 18.191.729 15.56.616c-1.168-.05-1.936.045-2.426.163a.27.27 0 0 1 .065.137c.004.029.024.144-.107.229-.015.01-.092.046-.247.149l.227.009c1.158.046 1.222.098 2.034.35.869.27 1.12.777 1.31 1.063.375.571.536 1.792.342 2.389-.181.556-1.32 2.713-1.796 3.472-.312.496-.691 1.17-.91 1.564a.231.231 0 0 1-.133.108.102.102 0 0 0-.059.043c-.288.446-6.608 10.655-6.608 10.655a.232.232 0 0 1-.022.03s-.11.13-.185.319c-.066.17-.107.393.028.607.332.523.987.88 1.494 1.002.283.068.544.152.8.047.165-.069.322-.219.487-.486.484-.786 5.584-10.792 5.832-11.279a.176.176 0 0 0 .006-.066.231.231 0 0 1 .014-.11 1.77 1.77 0 0 0 .072-.22c.068-.28.747-1.369 1.776-3.365 1.052-2.04 1.3-1.95 2.093-2.485.545-.367 1.136-.261 1.558-.013.292.171.497.414.565.604.035.099.196.201.196.201s.005-.01 0 0c-.044.073-.02.205-.063.231Z" />
</svg>