<?xml version="1.0" encoding="UTF-8" standalone="no"?>
<svg
   xml:space="preserve"
   width="24"
   height="24"
   fill-rule="evenodd"
   stroke-linejoin="round"
   stroke-miterlimit="2"
   clip-rule="evenodd"
   version="1.1"
   id="svg1"
   sodipodi:docname=":xcode: copy.svg"
   inkscape:version="1.4.3 (0d15f75, 2025-12-25)"
   xmlns:inkscape="http://www.inkscape.org/namespaces/inkscape"
   xmlns:sodipodi="http://sodipodi.sourceforge.net/DTD/sodipodi-0.dtd"
   xmlns="http://www.w3.org/2000/svg"
   xmlns:svg="http://www.w3.org/2000/svg"><defs
     id="defs1" /><sodipodi:namedview
     id="namedview1"
     pagecolor="#505050"
     bordercolor="#ffffff"
     borderopacity="1"
     inkscape:showpageshadow="0"
     inkscape:pageopacity="0"
     inkscape:pagecheckerboard="1"
     inkscape:deskcolor="#505050"
     inkscape:zoom="2.2083333"
     inkscape:cx="11.773585"
     inkscape:cy="12"
     inkscape:window-width="968"
     inkscape:window-height="1044"
     inkscape:window-x="742"
     inkscape:window-y="40"
     inkscape:window-maximized="0"
     inkscape:current-layer="svg1" /><path
     d="M9.980 0.296 C 9.479 0.404,9.208 0.491,8.984 0.614 L 8.829 0.700 9.179 0.740 L 9.529 0.780 9.184 1.014 C 8.995 1.142,8.848 1.261,8.859 1.278 C 8.869 1.295,9.108 1.321,9.389 1.336 C 10.515 1.395,10.874 1.440,11.369 1.583 C 12.049 1.778,12.330 1.922,12.629 2.225 C 12.923 2.524,13.210 3.071,13.298 3.503 C 13.384 3.918,13.415 4.506,13.366 4.770 C 13.238 5.456,11.222 9.179,10.302 10.427 C 10.186 10.584,9.546 11.592,8.879 12.667 C 4.612 19.543,3.297 21.682,3.233 21.850 C 3.144 22.082,3.141 22.217,3.221 22.443 C 3.456 23.110,4.532 23.792,5.469 23.868 C 5.997 23.911,6.301 23.702,6.696 23.026 C 7.391 21.837,12.595 11.675,12.699 11.303 C 12.801 10.944,13.053 10.454,14.710 7.400 C 15.441 6.053,15.719 5.710,16.447 5.256 C 17.108 4.844,17.447 4.796,17.948 5.041 C 18.238 5.184,18.254 5.198,18.529 5.544 C 18.766 5.843,19.122 6.104,19.649 6.364 C 19.901 6.488,19.918 6.491,20.012 6.429 C 20.207 6.301,20.794 5.304,21.203 4.406 C 21.379 4.019,21.401 3.944,21.354 3.897 C 21.323 3.866,21.059 3.715,20.767 3.561 L 20.235 3.280 19.725 3.280 C 19.374 3.280,19.159 3.261,19.036 3.219 C 18.775 3.130,18.449 2.855,18.123 2.447 C 17.763 1.996,17.556 1.835,16.879 1.484 C 15.779 0.914,14.943 0.607,13.740 0.331 C 13.322 0.235,13.228 0.229,11.860 0.216 C 10.467 0.202,10.406 0.205,9.980 0.296 "
     fill="#fff"
     stroke="none"
     fill-rule="evenodd"
     id="path1"
     style="fill:#000000;fill-opacity:1" /></svg>
