<?xml version="1.0" encoding="UTF-8" standalone="no"?>
<svg
   width="24"
   height="24"
   fill="none"
   version="1.1"
   id="svg25"
   sodipodi:docname=":xmind:.svg"
   inkscape:version="1.4.3 (0d15f75, 2025-12-25)"
   xmlns:inkscape="http://www.inkscape.org/namespaces/inkscape"
   xmlns:sodipodi="http://sodipodi.sourceforge.net/DTD/sodipodi-0.dtd"
   xmlns="http://www.w3.org/2000/svg"
   xmlns:svg="http://www.w3.org/2000/svg">
  <sodipodi:namedview
     id="namedview25"
     pagecolor="#505050"
     bordercolor="#ffffff"
     borderopacity="1"
     inkscape:showpageshadow="0"
     inkscape:pageopacity="0"
     inkscape:pagecheckerboard="1"
     inkscape:deskcolor="#505050"
     inkscape:zoom="2.2083333"
     inkscape:cx="11.773585"
     inkscape:cy="11.773585"
     inkscape:window-width="930"
     inkscape:window-height="505"
     inkscape:window-x="0"
     inkscape:window-y="579"
     inkscape:window-maximized="0"
     inkscape:current-layer="svg25" />
  <path
     fill="url(#a)"
     d="M3.55 8.045c6.155.753 10.546 6.322 9.83 12.456 0 .02 0 .044-.005.064 0 .02 0 .034-.01.054a11.3 11.3 0 0 1-.76 2.88 11.2 11.2 0 0 1-6.298-2.92q.185-.451.325-.925a11.085 11.085 0 0 0 .445-4.258 11.25 11.25 0 0 0-3.561-7.248c.01-.035.025-.064.04-.098z"
     style="fill:#000000;stroke-width:0.257666;fill-opacity:1"
     id="path1" />
  <path
     fill="url(#c)"
     d="M20.185 15.696C14.031 14.943 9.64 9.374 10.356 3.24q-.002-.032.006-.064c0-.02 0-.034.01-.054.128-1.014.39-1.98.76-2.88a11.2 11.2 0 0 1 6.297 2.92 11.4 11.4 0 0 0-.73 2.83 11 11 0 0 0-.04 2.354 11.24 11.24 0 0 0 3.561 7.247c-.01.035-.025.064-.04.099z"
     style="fill:#000000;stroke-width:0.257666;fill-opacity:1"
     id="path2" />
  <path
     fill="#fff"
     d="M20.185 15.696C14.031 14.943 9.64 9.374 10.356 3.24a11.28 11.28 0 0 0 8.422 5.579 11.5 11.5 0 0 0 3.274-.074 11.2 11.2 0 0 1 1.349 6.838c0 .02 0 .035-.01.054-.983.163-2 .192-3.038.084-.068-.01-.123-.014-.168-.02z"
     style="stroke-width:0.257666;fill:#000000;fill-opacity:1"
     id="path3" />
  <path
     fill="#fff"
     d="M3.55 8.045c6.155.753 10.546 6.322 9.83 12.456a11.28 11.28 0 0 0-8.421-5.579 11.5 11.5 0 0 0-3.275.074A11.2 11.2 0 0 1 .336 8.158c0-.02 0-.035.009-.054a11.4 11.4 0 0 1 3.038-.084c.059.005.108.01.168.02z"
     style="stroke-width:0.257666;fill:#000000;fill-opacity:1"
     id="path4" />
  <defs
     id="defs25">
    <linearGradient
       id="a"
       x1="482.915"
       x2="510.917"
       y1="298.694"
       y2="245.977"
       gradientTransform="translate(-120.945 -52.607)scale(.25767)"
       gradientUnits="userSpaceOnUse">
      <stop
         offset=".19"
         stop-color="#fff"
         id="stop4" />
      <stop
         offset=".4"
         stop-color="#fdfcfc"
         stop-opacity=".99"
         id="stop5" />
      <stop
         offset=".51"
         stop-color="#f9f4f5"
         stop-opacity=".97"
         id="stop6" />
      <stop
         offset=".6"
         stop-color="#f3e7e9"
         stop-opacity=".93"
         id="stop7" />
      <stop
         offset=".67"
         stop-color="#e9d4d7"
         stop-opacity=".88"
         id="stop8" />
      <stop
         offset=".74"
         stop-color="#ddbbc0"
         stop-opacity=".81"
         id="stop9" />
      <stop
         offset=".81"
         stop-color="#ce9ca4"
         stop-opacity=".73"
         id="stop10" />
      <stop
         offset=".87"
         stop-color="#bc7883"
         stop-opacity=".63"
         id="stop11" />
      <stop
         offset=".92"
         stop-color="#a84e5c"
         stop-opacity=".51"
         id="stop12" />
      <stop
         offset=".97"
         stop-color="#911f31"
         stop-opacity=".38"
         id="stop13" />
      <stop
         offset="1"
         stop-color="#830317"
         stop-opacity=".3"
         id="stop14" />
    </linearGradient>
    <linearGradient
       id="c"
       x1="557.461"
       x2="515.275"
       y1="163.389"
       y2="274.859"
       gradientTransform="translate(-120.945 -52.607)scale(.25767)"
       gradientUnits="userSpaceOnUse">
      <stop
         offset=".19"
         stop-color="#fff"
         id="stop15" />
      <stop
         offset=".4"
         stop-color="#fdfcfc"
         stop-opacity=".99"
         id="stop16" />
      <stop
         offset=".51"
         stop-color="#f9f4f5"
         stop-opacity=".97"
         id="stop17" />
      <stop
         offset=".6"
         stop-color="#f3e7e9"
         stop-opacity=".93"
         id="stop18" />
      <stop
         offset=".67"
         stop-color="#e9d4d7"
         stop-opacity=".88"
         id="stop19" />
      <stop
         offset=".74"
         stop-color="#ddbbc0"
         stop-opacity=".81"
         id="stop20" />
      <stop
         offset=".81"
         stop-color="#ce9ca4"
         stop-opacity=".73"
         id="stop21" />
      <stop
         offset=".87"
         stop-color="#bc7883"
         stop-opacity=".63"
         id="stop22" />
      <stop
         offset=".92"
         stop-color="#a84e5c"
         stop-opacity=".51"
         id="stop23" />
      <stop
         offset=".97"
         stop-color="#911f31"
         stop-opacity=".38"
         id="stop24" />
      <stop
         offset="1"
         stop-color="#830317"
         stop-opacity=".3"
         id="stop25" />
    </linearGradient>
  </defs>
</svg>
