<svg xmlns="http://www.w3.org/2000/svg" width="639" height="639" fill="none" viewBox="0 0 639 639"><path fill="#000" fill-rule="evenodd" d="M301.8.5a318 318 0 0 0-182.5 69.7c-12.2 9.7-39.5 37-49.1 49.2A316 316 0 0 0 .4 303.2a319 319 0 0 0 69 215.2 436 436 0 0 0 51 51 322 322 0 0 0 168.4 68c16.2 1.7 49.8 1.4 65.6-.5a369 369 0 0 0 56.6-11.4l4.2-1.1-5-14.7c-5.3-15.5-8.2-21.9-11-23.6-1.3-.8-4-.5-10.2 1.1-25.7 6.8-43 8.7-69.5 8-26-.9-45.2-4-68.7-11.3A311 311 0 0 1 97.3 473.5C55.8 418 36.6 349 45.8 288c16-105.8 99-203.7 201-236.8a233 233 0 0 1 86.5-12.4c21.6.6 31.1 1.7 50.3 6l9.7 2.1 7.8-2.2a777 777 0 0 0 43-15.7l4.4-1.8-6.8-3c-11.7-5-38.3-13.3-52.9-16.5a328 328 0 0 0-87-7.1m170 54.6c-89.8 33.8-129.4 52-155.5 71.8a128 128 0 0 0-21 19.8c-.9 1.5-2.6 1.7-12.2 1.7-17.3 0-40.9 2.4-56.8 5.7a116 116 0 0 0-39.6 14.9c-5.2 4-9.2 19.7-10.9 42.4-1 14.3.2 13-12.4 13h-11l-.8-3.2c-.5-1.8-3-11.3-5.3-21-2.4-9.8-4.8-17.8-5.2-17.8s-4.2 4.6-8.3 10.2c-15.2 20.3-25 40-28 56.6q-5.4 28.2 18.3 40.5c10.6 5.5 18.3 7.3 38.7 9.1l13 1.1.7 6c1.2 10.3 2.8 35.6 4.3 69.5 2.6 53.2 4.7 75.1 8.5 85.3 7.4 19.8 34.4 44.5 69.9 64.1 23 12.7 48.4 22.3 62 23.3 7.6.6 8 .5 10.5-1.9 4.4-4.4 5-8.5 5.4-36.6.4-24.1.5-26.3 2-25.6l6.7 2.4c29.4 10.6 53.7 26 69.3 44a176 176 0 0 1 35.8 73.2l1.7 6.7 10.7-5.4a321 321 0 0 0 171-226c5-26.9 6.7-64.3 4-90a322 322 0 0 0-46-137 334 334 0 0 0-88.6-94C488 47.3 491.4 47.6 471.8 55M431 161.9a306 306 0 0 1 84.7 46.3c9 7.3 19.4 18.6 23.5 25.4 4 6.8 6.7 16.8 5.8 22.2-1.4 8.6-8.3 19.8-13.5 21.8-15 5.9-67 7-89.6 2-20.3-4.6-34.4-13.1-43.8-26.5-8.6-12.2-19.3-34.3-18.5-38.4.3-1.6 2.7-1.8 27.1-2.3l26.8-.5-8.3-11.2c-11.2-15.2-16.1-25-16.2-32.4 0-4.7.4-6.2 2.4-8.3 3-3.1 4.7-3 19.6 2m-99.4 162q9.6 3.4 15.2 11.9a29.7 29.7 0 0 1-25 46.6 29.7 29.7 0 0 1-27.2-42 30 30 0 0 1 37-16.4" clip-rule="evenodd"/></svg>