<svg width="24" height="24" viewBox="0 0 24 24" xmlns="http://www.w3.org/2000/svg">
  <path
    d="M 20.958 9.636 L 20.881 9.276 L 17.877 8.746 L 19.626 6.359 L 19.425 6.124 L 16.854 7.372 L 17.178 4.064 L 16.915 3.909 L 15.351 6.592 L 13.601 2.598 L 13.292 2.598 L 13.709 6.452 L 9.295 2.878 L 8.923 2.988 L 12.315 7.31 L 5.594 5.048 L 5.283 5.392 L 11.293 8.855 L 3.006 9.558 L 2.914 10.073 L 11.525 11.023 L 4.338 17.047 L 4.648 17.468 L 13.198 12.756 L 11.51 21.058 L 12.022 21.058 L 15.304 13.24 L 17.304 19.356 L 17.659 19.075 L 16.839 12.866 L 19.95 16.439 L 20.152 16.11 L 17.769 11.68 L 21.097 12.928 L 21.128 12.553 L 18.14 10.321 L 20.958 9.636 Z">
  </path>
</svg>