<svg width="24" height="24" viewBox="0 0 24 24" fill="none" xmlns="http://www.w3.org/2000/svg">
<path fill-rule="evenodd" clip-rule="evenodd" d="M20.9545 5.4053C20.9143 5.29819 20.8446 5.16787 20.7539 5.02685C20.5725 4.74302 20.2987 4.39491 19.9952 4.06644V4.06466C19.6708 3.73084 19.3394 3.44164 19.0708 3.25062C18.9364 3.15602 18.8144 3.08104 18.7133 3.03998C18.6627 3.01856 18.6121 3.00428 18.5633 3.00071C18.5161 2.99713 18.4569 3.00606 18.4114 3.05248L12.1222 9.32192C12.0523 9.39155 11.9389 9.39155 11.8692 9.32192L5.5798 3.05248C5.53446 3.00784 5.47515 2.99892 5.42806 3.00071C5.38096 3.00428 5.32865 3.01856 5.27806 3.03998C5.1769 3.08104 5.05306 3.15602 4.92052 3.25062C4.65191 3.44164 4.32053 3.73261 3.99611 4.06466V4.06644C3.69263 4.39491 3.4188 4.74302 3.23741 5.02685C3.14671 5.16787 3.0752 5.29819 3.03684 5.4053C3.01765 5.45886 3.0037 5.51241 3.0002 5.56061C2.99846 5.60881 3.00718 5.67129 3.05427 5.7177L10.0814 12.7172C10.1442 12.7797 10.1791 12.8654 10.1791 12.9546L10.1721 21.5163C10.1721 21.5805 10.2088 21.6287 10.2402 21.6591C10.2733 21.6912 10.3169 21.718 10.3658 21.7412C10.4634 21.7893 10.5977 21.834 10.7564 21.8715C11.0774 21.9465 11.5152 22 12 22C12.4848 22 12.9226 21.9465 13.2436 21.8715C13.4023 21.834 13.5367 21.7893 13.6343 21.7412C13.6831 21.718 13.7267 21.6894 13.7598 21.6591C13.7912 21.6287 13.8279 21.5805 13.8279 21.5163L13.8209 12.9546C13.8209 12.8654 13.8558 12.7797 13.9186 12.7172L20.9457 5.7177C20.9928 5.67129 21.0015 5.60881 20.9998 5.56061C20.9981 5.51063 20.9823 5.45707 20.9632 5.4053H20.9545Z" fill="black"/>
</svg>
