<svg width="24" height="25" viewBox="0 0 24 24" xmlns="http://www.w3.org/2000/svg">
   <path
      d="M 7.4979073,23.980213 C 6.5434437,23.876272 5.954939,23.7004 5.5358422,23.395665 5.1924903,23.145971 4.9900463,22.724064 5.0855991,22.45748 5.2025311,22.132901 5.5589922,21.942264 6.5161008,21.693514 6.9098881,21.59076 7.2946953,21.466381 7.4919427,21.376848 l 0.3256332,-0.147642 0.2822873,0.06141 c 0.6151276,0.135 1.0442282,0.175284 2.0564478,0.193238 l 1.000527,0.01771 0.02125,0.08858 c 0.01158,0.04843 0.03187,0.226425 0.04488,0.394151 0.07323,0.94716 -0.428038,1.51293 -1.6195163,1.828721 -0.565048,0.149767 -1.5460512,0.227133 -2.105028,0.16595 z m 7.4106447,-0.114576 c -0.818872,-0.08623 -1.607718,-0.385526 -1.942732,-0.736564 -0.386697,-0.405251 -0.337327,-0.801525 0.169018,-1.356214 l 0.221104,-0.242134 0.368392,0.02362 c 1.505693,0.09686 3.03926,-0.0756 4.280416,-0.484269 0.235279,-0.07795 0.370871,-0.1063 0.398863,-0.08504 0.07323,0.05552 0.237287,0.394267 0.298824,0.614906 0.04133,0.149412 0.05433,0.311112 0.0437,0.552302 -0.01892,0.435725 -0.123195,0.649513 -0.471503,0.969131 -0.510598,0.468566 -1.3808,0.724993 -2.579235,0.759955 -0.27355,0.0079 -0.627649,8.39e-4 -0.786863,-0.01654 z M 10.040056,21.120564 C 7.4286461,21.003631 5.5002547,20.284786 4.0441819,18.886723 2.2613528,17.174911 1.8282242,14.736139 2.9856853,12.926754 3.4462751,12.206727 4.0689853,11.572618 5.1336187,10.739448 6.1670989,9.9306 6.4939975,9.6544486 6.7014019,9.4145818 6.9543997,9.12213 7.0778255,8.8844828 7.1014475,8.6445922 7.1179738,8.4749796 7.1063275,8.4182854 7.0199518,8.2565853 6.9337301,8.0952415 6.8638081,8.0292156 6.5452591,7.8108214 6.3395067,7.6697925 6.1267881,7.5161254 6.072339,7.469352 5.982574,7.3925774 5.9541086,7.386672 5.7748146,7.4067516 4.7668464,7.5225037 2.2995715,6.641487 0.70001455,5.5945897 0.20152272,5.268357 0,5.0738224 0,4.9190923 0,4.7642443 0.07842612,4.6613663 0.23037712,4.6166009 0.29616641,4.5977021 0.68988039,4.5646304 1.1052803,4.5445512 2.7447272,4.4654141 3.8004725,4.2888328 4.6088598,3.9590567 L 4.814968,3.875195 4.8598513,3.6591632 C 4.9236296,3.351711 5.1303262,2.7968088 5.2884786,2.5055381 5.9927807,1.2082854 7.4016799,0.26854206 8.9618215,0.05540423 11.487506,-0.2896085 13.917329,1.0057544 14.732327,3.1316872 c 0.2002,0.5221847 0.272721,0.9237744 0.273429,1.5148316 5.54e-4,0.4119835 -0.01654,0.6000224 -0.07913,0.8707409 -0.292092,1.2635782 -0.958953,2.1351695 -2.216244,2.8964062 -0.598945,0.3626127 -0.7669,0.5133265 -0.934383,0.8387312 -0.103938,0.200796 -0.11575,0.2567835 -0.114567,0.529627 9.57e-4,0.2733169 0.013,0.3285919 0.120004,0.5306889 0.07796,0.148941 0.186379,0.282412 0.317721,0.39285 0.610994,0.513798 2.142895,0.921295 3.470922,0.923301 1.16246,0.0017 1.999696,-0.3182 2.759121,-1.054171 0.411384,-0.398638 0.615718,-0.7135305 1.052852,-1.6215481 0.122004,-0.2535918 0.234333,-0.3678085 0.387525,-0.3942669 0.201383,-0.03425 0.422014,0.063779 0.72639,0.3257585 0.553944,0.4760028 0.960958,1.1741785 1.135645,1.9482895 0.06969,0.310525 0.06024,1.19441 -0.01771,1.553845 -0.42792,1.979138 -2.220388,3.699478 -4.351554,4.17679 -2.090937,0.468325 -4.200608,-0.262333 -4.996399,-1.730426 -0.404179,-0.745539 -0.385046,-1.462708 0.05551,-2.082691 0.142446,-0.200558 0.582883,-0.621873 0.895761,-0.856803 0.140317,-0.105125 0.158863,-0.177525 0.03662,-0.143629 -1.074111,0.299067 -1.874722,0.979879 -2.075595,1.764963 -0.08268,0.321388 -0.05433,0.922475 0.05906,1.250373 0.67371,1.957088 3.260412,3.078917 5.890531,2.55463 2.186854,-0.435962 4.126999,-2.025193 4.825667,-3.95294 0.20705,-0.571203 0.273549,-0.947044 0.277329,-1.567735 0.0018,-0.307688 -0.0088,-0.609707 -0.02363,-0.671246 -0.026,-0.107492 -0.01304,-0.12508 0.313116,-0.423677 0.389179,-0.356587 0.649615,-0.498208 0.916076,-0.498208 0.29965,0 0.417881,0.147762 0.515088,0.644079 0.06378,0.325642 0.06496,1.674605 0.0018,2.186409 -0.174687,1.416229 -0.538237,2.627269 -1.097616,3.656674 -0.563158,1.036337 -1.259581,1.8576 -2.168879,2.557689 -1.037141,0.798453 -2.443679,1.402304 -3.878562,1.665026 -1.152656,0.211071 -1.248834,0.216621 -3.821562,0.224179 -1.296871,0.0038 -2.623209,-0.005 -2.947416,-0.02008 z M 6.7789119,6.8121271 C 6.7796915,6.5942057 6.7045024,6.4189235 6.4621354,6.0769817 6.0342157,5.472353 5.1474187,4.4422874 5.0957333,4.489852 c -0.036625,0.03425 0.1110249,0.4214332 0.255004,0.6655758 0.2721332,0.4617103 0.6963884,1.0623227 1.0098573,1.4299783 0.1698458,0.1992584 0.3193749,0.3874169 0.3321332,0.4181256 0.038958,0.092129 0.085037,-0.013 0.086221,-0.1913459 z M 9.5658244,4.9923586 C 9.6496827,4.9534002 9.7853951,4.8503835 9.8678368,4.7642793 10.369458,4.2398502 10.107366,3.4340606 9.3709396,3.2370928 9.1295189,3.1721298 8.9388856,3.1910282 8.676677,3.3044182 7.8500109,3.6621872 7.9567845,4.7904889 8.8425061,5.0578411 c 0.1592166,0.048429 0.5585518,0.011792 0.7234363,-0.064963 z" />
</svg>