<?xml version="1.0" encoding="UTF-8" standalone="no"?>
<!-- Created with Inkscape (http://www.inkscape.org/) -->

<svg
   width="210mm"
   height="297mm"
   viewBox="0 0 210 297"
   version="1.1"
   id="svg1"
   xml:space="preserve"
   inkscape:version="1.4.2 (ebf0e940, 2025-05-08)"
   sodipodi:docname="yazi.svg"
   xmlns:inkscape="http://www.inkscape.org/namespaces/inkscape"
   xmlns:sodipodi="http://sodipodi.sourceforge.net/DTD/sodipodi-0.dtd"
   xmlns="http://www.w3.org/2000/svg"
   xmlns:svg="http://www.w3.org/2000/svg"><sodipodi:namedview
     id="namedview1"
     pagecolor="#ffffff"
     bordercolor="#000000"
     borderopacity="0.25"
     inkscape:showpageshadow="2"
     inkscape:pageopacity="0.0"
     inkscape:pagecheckerboard="0"
     inkscape:deskcolor="#d1d1d1"
     inkscape:document-units="mm"
     inkscape:zoom="0.43486311"
     inkscape:cx="-12.647658"
     inkscape:cy="587.54122"
     inkscape:window-width="1488"
     inkscape:window-height="894"
     inkscape:window-x="12"
     inkscape:window-y="48"
     inkscape:window-maximized="0"
     inkscape:current-layer="layer1" /><defs
     id="defs1" /><g
     inkscape:label="图层 1"
     inkscape:groupmode="layer"
     id="layer1"><path
       style="fill:#000000"
       d="m 71.537363,242.26393 c -6.854175,-0.81496 -11.080755,-2.18356 -14.090436,-4.56257 -2.465387,-1.94878 -3.919622,-5.24234 -3.233133,-7.32242 0.836191,-2.53369 3.399488,-4.02148 10.27303,-5.96271 2.827702,-0.7986 5.591738,-1.77329 7.008131,-2.4713 l 2.338841,-1.15261 2.026784,0.48342 c 4.417927,1.05373 7.499488,1.36852 14.76824,1.50861 l 7.185208,0.13849 0.150953,0.69539 c 0.08303,0.38247 0.226999,1.76697 0.319943,3.07665 0.524619,7.39248 -3.073984,11.80894 -11.630484,14.27375 -4.058012,1.16896 -11.102825,1.77259 -15.117077,1.2953 z m 53.218967,-0.89077 c -5.88043,-0.67456 -11.54568,-3.00916 -13.9516,-5.74935 -2.77736,-3.16324 -2.42271,-6.25597 1.21388,-10.58577 l 1.5875,-1.89011 2.64583,0.18598 c 10.81308,0.76005 21.82622,-0.59419 30.73948,-3.77991 1.68985,-0.60398 2.66375,-0.82936 2.86434,-0.66288 0.52256,0.43368 1.70437,3.0774 2.14562,4.79974 0.29875,1.16614 0.39084,2.42877 0.31441,4.31097 -0.13811,3.40135 -0.885,5.06997 -3.38609,7.56478 -3.6669,3.6577 -9.91605,5.65897 -18.52255,5.9318 -1.96453,0.0623 -4.5074,0.006 -5.65082,-0.12525 z M 89.793612,219.94342 C 71.039888,219.02754 57.191297,213.4198 46.734664,202.50746 33.931373,189.14619 30.820892,170.1107 39.133156,155.98781 c 3.307681,-5.61989 7.779677,-10.56953 15.42522,-17.07275 7.422005,-6.31309 9.769496,-8.46918 11.258931,-10.34098 1.816742,-2.28313 2.703261,-4.13761 2.873046,-6.01004 0.12009,-1.32437 0.03509,-1.7662 -0.582749,-3.02901 -0.616222,-1.25951 -1.121133,-1.77478 -3.409294,-3.47923 -1.47727,-1.10042 -3.005467,-2.29971 -3.395992,-2.66508 -0.640917,-0.59964 -0.848904,-0.64697 -2.136277,-0.48612 -7.238177,0.90435 -24.957202,-5.97266 -36.4443,-14.144569 -3.579884,-2.546725 -5.027083,-4.064637 -5.027083,-5.272716 0,-1.208905 0.562796,-2.011978 1.654466,-2.360815 0.472492,-0.150983 3.299857,-0.40273 6.283034,-0.559439 11.773574,-0.618477 19.355337,-1.995615 25.160719,-4.570149 l 1.480513,-0.656569 0.324452,-1.686267 c 0.461693,-2.399541 1.942368,-6.731326 3.077945,-9.004678 5.057867,-10.125521 15.17577,-17.460538 26.379845,-19.124183 18.137978,-2.69323 35.587648,7.41749 41.440428,24.011494 1.43748,4.075572 1.95809,7.210072 1.96382,11.823807 0.004,3.215265 -0.11873,4.683277 -0.56821,6.796724 -2.09756,9.86267 -6.88696,16.66572 -15.91577,22.60741 -4.30093,2.83036 -5.50709,4.00709 -6.7103,6.54655 -0.74263,1.56735 -0.82946,2.00394 -0.82217,4.13369 0.007,2.1333 0.097,2.56459 0.86139,4.14201 0.56322,1.16225 1.33875,2.20448 2.28157,3.06616 4.38825,4.01062 15.3891,7.19109 24.92621,7.20645 8.34771,0.0135 14.36066,-2.48349 19.81442,-8.22815 2.95395,-3.11151 4.42214,-5.56926 7.56079,-12.6568 0.87649,-1.97924 1.68289,-2.87085 2.78316,-3.07726 1.44589,-0.27125 3.03035,0.50103 5.21634,2.5425 3.97839,3.71538 6.90089,9.16485 8.15547,15.20717 0.50328,2.42391 0.43078,9.32272 -0.12745,12.12831 -3.07326,15.44566 -15.94556,28.87351 -31.25041,32.59913 -15.0159,3.65527 -30.16632,-2.04772 -35.88125,-13.50661 -2.90229,-5.81932 -2.76545,-11.41701 0.39741,-16.25614 1.023,-1.56519 4.18598,-4.85356 6.43284,-6.68789 1.00813,-0.82303 1.14105,-1.38609 0.26459,-1.12082 -7.71336,2.33453 -13.463179,7.64858 -14.905748,13.77608 -0.59065,2.50886 -0.387067,7.20015 0.423528,9.75961 4.83794,15.27582 23.41441,24.0321 42.30244,19.93985 15.70473,-3.40256 29.63773,-15.80736 34.65523,-30.85417 1.48672,-4.45849 1.96423,-7.39203 1.99185,-12.23672 0.0137,-2.4011 -0.0627,-4.75888 -0.16974,-5.23952 -0.18639,-0.83691 -0.0912,-0.97685 2.24896,-3.30729 2.79455,-2.78291 4.66521,-3.88861 6.57888,-3.88861 2.1519,0 3.00053,1.15328 3.69912,5.02708 0.45842,2.54198 0.46652,13.07085 0.0131,17.06563 -1.2546,11.0542 -3.86511,20.50681 -7.88228,28.54164 -4.0442,8.08887 -9.0456,14.49927 -15.5757,19.96369 -7.4479,6.23243 -17.54913,10.94551 -27.85366,12.99608 -8.27778,1.64725 -8.96838,1.69129 -27.44425,1.75003 -9.31333,0.0296 -18.838334,-0.0392 -21.166668,-0.15291 z M 66.373937,108.26097 c 0.0056,-1.70115 -0.536693,-3.06932 -2.274595,-5.73831 -3.072932,-4.719269 -9.441557,-12.7593 -9.812777,-12.388081 -0.267615,0.267616 0.797418,3.289173 1.831015,5.194687 1.954743,3.603719 5.001022,8.292144 7.25214,11.161524 1.219892,1.55493 2.293306,3.02343 2.385364,3.26333 0.275533,0.71803 0.614237,-0.0992 0.618853,-1.49315 z M 86.387952,94.057055 c 0.600741,-0.306762 1.576581,-1.107971 2.168534,-1.780465 3.602823,-4.093023 1.71986,-10.382834 -3.56852,-11.920208 -1.733895,-0.504057 -3.102632,-0.359601 -4.98575,0.526194 -5.936346,2.79238 -5.170122,11.599322 1.190726,13.686154 1.143432,0.375131 4.011565,0.09264 5.19501,-0.511675 z"
       id="path601" /></g></svg>
