<svg version="1.1" id="prefix__Calque_1" xmlns="http://www.w3.org/2000/svg" x="0" y="0" viewBox="0 0 24 24"
  xml:space="preserve" width="24" height="24">
  <style>
    .prefix__st1 {
      fill: #fff
    }
  </style>
  <path cx="50" cy="50" r="50" fill="red" d="M24 12A12 12 0 0 1 12 24 12 12 0 0 1 0 12a12 12 0 0 1 24 0" />
  <path id="prefix__XMLID_42_" class="prefix__st1"
    d="M12 6.528c3.024 0 5.472 2.448 5.472 5.472s-2.448 5.472 -5.472 5.472 -5.472 -2.448 -5.472 -5.472 2.448 -5.472 5.472 -5.472m0 -0.528c-3.312 0 -6 2.688 -6 6s2.688 6 6 6 6 -2.688 6 -6 -2.688 -6 -6 -6" />
  <path id="prefix__XMLID_274_" class="prefix__st1" d="m9.912 15 5.088 -3.12 -5.088 -2.88z" />
</svg>