<svg id="svg" xmlns="http://www.w3.org/2000/svg" xmlns:xlink="http://www.w3.org/1999/xlink" width="400" height="400" viewBox="0, 0, 400,400"><g id="svgg"><path id="path0" d="M139.063 59.905 C 111.726 60.352,70.740 62.705,52.344 64.883 C 42.417 66.058,31.207 70.126,26.137 74.394 C 2.845 94.000,-0.304 109.966,0.209 205.860 C 0.543 268.365,0.652 270.169,5.408 292.188 C 10.601 316.225,27.974 332.230,51.953 335.067 C 85.603 339.048,118.299 340.180,199.609 340.176 C 314.371 340.171,352.326 337.594,368.937 328.679 C 385.831 319.612,393.198 305.395,398.169 272.266 C 400.156 259.027,400.670 153.517,398.836 135.366 C 394.894 96.342,386.319 79.594,365.092 69.463 C 348.602 61.593,261.343 57.903,139.063 59.905 M222.494 169.531 C 250.081 183.926,272.654 195.887,272.655 196.112 C 272.656 196.467,151.984 259.336,149.976 260.026 C 149.491 260.193,149.219 237.105,149.219 195.800 L 149.219 131.314 160.776 137.337 C 167.133 140.649,194.906 155.137,222.494 169.531 " stroke="none" fill="#000000" fill-rule="evenodd"></path></g></svg>