<svg width="369.89" height="358.4" viewBox="0 0 97.87 94.83" version="1.1" xml:space="preserve" sodipodi:docname=":yubico:.svg" xmlns:sodipodi="http://sodipodi.sourceforge.net/DTD/sodipodi-0.dtd" xmlns="http://www.w3.org/2000/svg" xmlns:svg="http://www.w3.org/2000/svg"><sodipodi:namedview pagecolor="#ffffff" bordercolor="#000000" borderopacity=".25"/><defs/><g transform="translate(-55.235535,-98.039179)"><path style="fill:#000" d="m 100.38293,192.83283 c -0.33955,-0.0392 -1.371428,-0.15611 -2.29306,-0.25988 -13.014898,-1.4654 -25.658266,-8.67134 -33.477718,-19.08024 -5.047938,-6.71958 -8.444555,-15.27269 -9.230051,-23.24242 -0.306439,-3.10916 -0.107561,-9.81006 0.366457,-12.34722 1.308471,-7.00354 3.469817,-12.46828 7.065134,-17.86349 2.137862,-3.20812 3.555799,-4.93091 6.348051,-7.7129 3.951939,-3.93741 7.487732,-6.45953 12.612153,-8.99638 4.675813,-2.31477 8.558235,-3.633718 13.214768,-4.489381 3.440703,-0.63224 5.372346,-0.80174 9.136656,-0.80174 8.52444,0 15.32905,1.644463 23.08156,5.578071 4.89978,2.48615 8.07068,4.79341 12.08318,8.79215 6.94341,6.91962 11.16353,14.66533 13.02488,23.90617 0.7265,3.60677 0.84974,5.24614 0.7645,10.16949 -0.0875,5.05426 -0.34767,7.03065 -1.4595,11.08741 -0.82689,3.01706 -1.66596,5.21199 -3.1684,8.28824 -2.42657,4.96839 -4.95082,8.47157 -9.08667,12.6106 -4.11295,4.11613 -7.54725,6.59037 -12.71471,9.16036 -7.04998,3.50624 -13.62951,5.09448 -21.59293,5.21233 -2.23132,0.033 -4.33476,0.028 -4.6743,-0.0112 z m 10.31875,-9.9439 c 6.91596,-1.19593 13.22288,-3.91643 18.37101,-7.92437 1.72737,-1.3448 5.18578,-4.76893 6.61175,-6.54621 3.38756,-4.22217 6.18513,-10.22638 7.30064,-15.6688 0.8858,-4.32176 0.88904,-10.19053 0.008,-14.53484 -1.9224,-9.47929 -7.78199,-18.18134 -15.97545,-23.72505 -4.672,-3.16108 -10.29429,-5.41895 -15.9632,-6.4107 -1.96303,-0.34342 -2.9404,-0.40299 -6.79097,-0.41387 -3.98524,-0.0113 -4.759278,0.0345 -6.790972,0.40116 -16.467975,2.97229 -28.831752,14.60699 -32.109428,30.21596 -0.565564,2.69333 -0.794726,8.52543 -0.44696,11.37494 1.539901,12.61759 9.384016,23.60895 21.002915,29.42979 4.727627,2.36845 9.756251,3.75709 15.257645,4.21335 2.13677,0.17721 7.44775,-0.0521 9.525,-0.41136 z M 92.621813,168.35487 c 0,-0.0653 1.222989,-2.89796 2.717752,-6.29481 l 2.717752,-6.17608 -3.701706,-9.12275 c -8.097308,-19.95558 -9.680193,-23.90112 -9.614919,-23.96639 0.03739,-0.0374 2.590634,-0.0863 5.673885,-0.10869 l 5.60591,-0.0407 3.678662,9.525 c 2.023261,5.23875 3.897781,10.09961 4.165591,10.80191 0.26782,0.7023 0.52931,1.27777 0.5811,1.27882 0.0878,0.002 1.75116,-4.44033 6.1908,-16.53331 l 1.82893,-4.98175 5.59346,-0.001 5.59347,-10e-4 -0.75863,1.80799 c -4.12857,9.83926 -18.34875,43.62513 -18.37975,43.66865 -0.0821,0.11525 -11.892307,0.25886 -11.892307,0.14461 z"/></g></svg>