<svg xmlns="http://www.w3.org/2000/svg" xml:space="preserve" width="24" height="24" viewBox="0 0 24 24">
  <path
    d="m7.596.965 3.868 11.732.001-.001.05.142a1.6 1.6 0 0 1 .598-.126 1.65 1.65 0 0 1 .65.124l.047-.13.008.003L16.548.965h-.23l-3.653 11.493L14.942.965h-.222l-2.23 11.222L13.558.965h-.22l-1.09 11.54-.046-.004h.023L12.294.965h-.22l-.068 11.54h.005l-.028.002L11.027.965h-.22l.933 11.33L9.294.965H9.07l2.382 11.036L7.826.965Z" />
  <path
    d="m4.21.19 5.655 15.355 4.582.006L20.045.189 17.11.965l-4.38 11.86h-1.208L7.16.901Zm6.628 16.6v6.946l1.232-1.267 1.233 1.267V16.79z" />
</svg>