<svg width="26" height="26" viewBox="0 0 26 26" fill="none" xmlns="http://www.w3.org/2000/svg">
<path d="M3.51793 2.752C3.43065 2.75461 3.35671 2.75834 3.29436 2.76264C3.29215 2.82668 3.29052 2.89939 3.28918 2.98336C3.28831 3.03779 3.28746 3.10722 3.28654 3.18292C3.28527 3.28765 3.28384 3.40453 3.28201 3.51012L3.303 19.2133C3.30392 19.9037 2.74503 20.4641 2.05467 20.465C1.36432 20.4659 0.803925 19.907 0.803003 19.2167L0.781999 3.50167L0.782196 3.4778C0.783789 3.38811 0.784887 3.29564 0.785992 3.20265C0.789152 2.93658 0.792363 2.66624 0.807369 2.44456C0.827288 2.15031 0.875715 1.71416 1.10703 1.30777C1.38015 0.827964 1.8025 0.558432 2.23998 0.419409C2.62331 0.297593 3.05383 0.263861 3.46545 0.252479C3.47696 0.25216 3.48848 0.252001 3.5 0.252001L24.119 0.251999C24.6227 0.251999 25.0771 0.554261 25.2718 1.01875C25.4665 1.48324 25.3635 2.01921 25.0104 2.37835L20.3746 7.09339L20.3747 7.14533L20.3236 7.14536L12.4309 15.173L15.0659 15.1678L15.0709 12.6731L16.9409 12.6769L16.934 16.1029C16.933 16.6178 16.5158 17.035 16.0008 17.036L10.5888 17.0467L8.8467 18.8186L18.6904 18.8003L18.7806 9.01554L21.2805 9.03857L21.1789 20.0595C21.1726 20.7444 20.6163 21.2967 19.9313 21.298L6.38425 21.3232L5.01238 22.7186L24.7327 22.729C25.423 22.7294 25.9824 23.2893 25.982 23.9797C25.9816 24.67 25.4217 25.2294 24.7313 25.229L2.03134 25.217C1.52781 25.2167 1.0736 24.9144 0.879064 24.4499C0.684523 23.9855 0.787636 23.4497 1.14065 23.0906L5.24984 18.9111L5.24968 18.8253L5.33436 18.8252L12.9717 11.0571L10.986 11.053L10.9929 12.707L9.12295 12.7149L9.11201 10.1199C9.11096 9.87094 9.20927 9.63181 9.38515 9.45556C9.56104 9.2793 9.79996 9.18048 10.049 9.181L14.8065 9.19095L16.8158 7.14724L7.3373 7.15233L7.3473 16.7567L4.8473 16.7593L4.836 5.9043C4.83566 5.57267 4.96711 5.2545 5.20142 5.01981C5.43573 4.78513 5.7537 4.65318 6.08533 4.653L19.275 4.64592L21.1371 2.752L3.51793 2.752Z" fill="black"/>
</svg>
