<svg xmlns="http://www.w3.org/2000/svg" width="24" height="24" style="fill-rule:evenodd;clip-rule:evenodd;stroke-linejoin:round;stroke-miterlimit:2" viewBox="0 0 24 24"><path d="M12 16.562a4.561 4.561 0 1 0 .001-9.123A4.561 4.561 0 0 0 12 16.562ZM15.65 12a3.65 3.65 0 1 1-7.3 0 3.65 3.65 0 0 1 7.3 0Z" style="fill:#202020"/><path d="M19.907 12a7.907 7.907 0 1 1-15.814 0 7.907 7.907 0 0 1 15.814 0ZM12 18.387a6.388 6.388 0 1 0-.001-12.775A6.388 6.388 0 0 0 12 18.387Z" style="fill:#202020"/><path d="M23.861 12c0 6.551-5.31 11.861-11.861 11.861C5.449 23.861.139 18.551.139 12 .139 5.449 5.449.139 12 .139c6.551 0 11.861 5.31 11.861 11.861ZM12 21.732c5.375 0 9.732-4.357 9.732-9.732 0-5.375-4.357-9.732-9.732-9.732-5.375 0-9.732 4.357-9.732 9.732 0 5.375 4.357 9.732 9.732 9.732Z" style="fill:#202020"/></svg>
