<svg xmlns="http://www.w3.org/2000/svg" width="24" height="24"><path d="M23.52 12C23.52 5.642 18.358.48 12 .48S.48 5.642.48 12 5.642 23.52 12 23.52 23.52 18.358 23.52 12Z"/><path d="M63.435 57.677c-.053 3.213-2.741 5.759-5.954 5.759H35.404a1.464 1.464 0 0 1-1.275-2.186c1.463-2.574 4.321-6.783 8.553-9.154a2.951 2.951 0 0 1 1.442-.378h13.453a5.859 5.859 0 0 1 5.858 5.959ZM45.871 18.75c-1.463 2.574-4.32 6.783-8.553 9.154a2.951 2.951 0 0 1-1.442.378H22.519c-3.213 0-5.901-2.546-5.954-5.759a5.859 5.859 0 0 1 5.858-5.959h22.173a1.464 1.464 0 0 1 1.275 2.186ZM22.421 63.438a5.859 5.859 0 0 1-5.411-8.103 38.176 38.176 0 0 1 8.114-12.251 38.097 38.097 0 0 1 12.634-8.497c6.569-2.721 11.685-7.837 14.406-14.406a5.859 5.859 0 1 1 10.826 4.484 38.176 38.176 0 0 1-8.114 12.251 38.097 38.097 0 0 1-12.634 8.497c-6.569 2.721-11.685 7.837-14.406 14.406a5.861 5.861 0 0 1-5.415 3.619Z" style="fill:#fef9fe;fill-rule:nonzero" transform="matrix(.288 0 0 .288 .48 .48)"/></svg>