<svg xmlns="http://www.w3.org/2000/svg" width="28" height="28" preserveAspectRatio="xMidYMid" viewBox="-13 0 9.87 9.87"><path fill="#ffc600" d="M-7.79 5.89v2.786c.118-.021.232-.062.336-.12l2.306-1.326c.337-.195.546-.555.546-.945V3.64c0-.107-.018-.211-.048-.311l-2.506 1.445c-.515.365-.627.71-.634 1.114"/><path fill="#f6eb61" d="m-3.736 2.802-.914.528c.03.1.048.204.048.31v2.645c0 .389-.21.75-.546.945l-2.306 1.325a1.06 1.06 0 0 1-.336.121v1.052c.163-.023.32-.077.463-.158l2.994-1.722c.418-.241.676-.686.676-1.169V3.246a1.31 1.31 0 0 0-.079-.444"/><path fill="#439879" d="M-8 5.014c.136-.223.34-.415.631-.599l2.523-1.455a1.066 1.066 0 0 0-.302-.264L-7.454 1.37a1.094 1.094 0 0 0-1.088 0l-2.296 1.325c-.121.07-.223.164-.306.27l2.51 1.45c.294.184.497.376.634.599"/><path fill="#28cdfb" d="m-10.838 2.695 2.296-1.324a1.094 1.094 0 0 1 1.088-.001l2.306 1.326c.118.068.219.16.301.264l.913-.527a1.32 1.32 0 0 0-.399-.356L-7.327.356a1.353 1.353 0 0 0-1.345 0l-2.982 1.72a1.338 1.338 0 0 0-.403.363l.913.526c.083-.108.187-.2.306-.27"/><path fill="#fdd757" d="m-8.542 8.555-2.296-1.325a1.093 1.093 0 0 1-.546-.944V3.64c0-.104.017-.206.046-.303l-.915-.528c-.05.14-.075.287-.076.435v3.437c0 .482.258.926.675 1.167l2.981 1.721c.142.081.297.134.462.159V8.675a1.057 1.057 0 0 1-.331-.12"/><path fill="#ec8b00" d="m-8.848 4.773-2.49-1.436a1.066 1.066 0 0 0-.046.303v2.645c0 .389.21.75.546.945l2.296 1.325c.104.06.216.098.331.12V5.888c-.007-.404-.118-.75-.638-1.116"/></svg>