<svg xmlns="http://www.w3.org/2000/svg" width="28" height="28" viewBox="0 16 28 28"><defs><linearGradient id="f"><stop offset="0" style="stop-color:#fff;stop-opacity:.285714"/><stop offset="1" style="stop-color:#daecf8;stop-opacity:1"/></linearGradient><linearGradient id="g"><stop offset="0" style="stop-color:#b9e5ff;stop-opacity:.419643"/><stop offset="1" style="stop-color:#fff;stop-opacity:1"/></linearGradient><linearGradient id="h"><stop offset="0" style="stop-color:#66b8ff;stop-opacity:1"/><stop offset="1" style="stop-color:#00507a;stop-opacity:1"/></linearGradient><linearGradient id="e"><stop offset="0" style="stop-color:#838383;stop-opacity:1"/><stop offset="1" style="stop-color:#2c2c2c;stop-opacity:1"/></linearGradient><linearGradient id="d"><stop offset="0" style="stop-color:#e1dedd;stop-opacity:.866071"/><stop offset="1" style="stop-color:#2c2c2c;stop-opacity:1"/></linearGradient><linearGradient id="b"><stop offset="0" style="stop-color:#fff9db;stop-opacity:.732143"/><stop offset="1" style="stop-color:#2c2c2c;stop-opacity:1"/></linearGradient><linearGradient id="c"><stop offset="0" style="stop-color:#6e6969;stop-opacity:1"/><stop offset="1" style="stop-color:#2c2c2c;stop-opacity:1"/></linearGradient><linearGradient id="a"><stop offset="0" style="stop-color:#fff2bc;stop-opacity:1"/><stop offset="1" style="stop-color:#83560b;stop-opacity:1"/></linearGradient></defs><path d="m25.12 19.612-.086.015c.046.023.093.047.139.073zm-3.1.533-.515.99c.187-.34.36-.672.516-.99zm-.515.99-4.038 6.346c.777-1.174 2.73-3.963 4.038-6.347zm4.415-.205c-.806 1.106-5.596 9.055-6.861 11.868 1.268-.904 1.828-1.64 3.084-1.863-.217-2.827 2.18-6.24 4.128-9.431zm-7.992 7.388h-.029c-.194.019-.494.282-.734.644-.26.391-.376.79-.277.944L12.66 39.9l4.324-9.932c.186.028.518-.244.782-.642.295-.445.4-.887.233-.988a.148.148 0 0 0-.071-.02z" style="opacity:1;vector-effect:none;fill:#0e0d0d;fill-opacity:1;fill-rule:evenodd;stroke:none;stroke-width:.149672;stroke-linecap:round;stroke-linejoin:miter;stroke-miterlimit:4;stroke-dasharray:none;stroke-dashoffset:65.0041;stroke-opacity:1;paint-order:markers fill stroke"/><path d="M13.544 18.547c-.46 0-.915.023-1.362.066 1.791 2.722 1.104 6.566-1.106 10.74-2.785 5.2.803 10.346.803 10.346.05.14-9.992-6.19-10.6-12.853a11.143 11.143 0 0 0-.61 3.638c0 3.166 1.356 6.202 3.771 8.44 2.414 2.24 5.689 3.497 9.104 3.497 3.414 0 6.689-1.257 9.103-3.496 2.415-2.239 3.77-5.275 3.77-8.44 0-1.794-.434-3.545-1.25-5.133l.07-.124-.08-.089c-.917 1.558-1.815 3.938-1.824 7.432-5.848.873-10.632 7.302-10.537 7.383l-.325-.015c1.006-3.152 3.521-10.514 4.709-12.006.376-.658 2.793-4.008 4.325-6.799l-.082-.09c-2.243-1.61-5.012-2.497-7.88-2.497z" style="opacity:1;vector-effect:none;fill:#0e0d0d;fill-opacity:1;fill-rule:evenodd;stroke:none;stroke-width:.149672;stroke-linecap:round;stroke-linejoin:miter;stroke-miterlimit:4;stroke-dasharray:none;stroke-dashoffset:65.0041;stroke-opacity:1;paint-order:markers fill stroke"/><path d="M13.544 18.042c-7.409 0-13.42 5.573-13.42 12.442 0 3.3 1.414 6.465 3.93 8.798 2.517 2.334 5.93 3.645 9.49 3.645 3.559 0 6.972-1.311 9.489-3.645 2.516-2.333 3.93-5.498 3.93-8.798 0-1.989-.514-3.929-1.473-5.667-.084.13-.168.267-.252.41l-.04.07a12.94 11.989 0 0 1 1.286 5.187 12.94 11.989 0 0 1-12.94 11.99 12.94 11.989 0 0 1-12.94-11.99 12.94 11.989 0 0 1 12.94-11.989 12.94 11.989 0 0 1 7.9 2.512c.078-.143.153-.284.226-.424-2.323-1.639-5.174-2.541-8.126-2.541z" style="color:#000;font-style:normal;font-variant:normal;font-weight:400;font-stretch:normal;font-size:12px;line-height:normal;font-family:sans-serif;font-variant-ligatures:normal;font-variant-position:normal;font-variant-caps:normal;font-variant-numeric:normal;font-variant-alternates:normal;font-feature-settings:normal;text-indent:0;text-align:start;text-decoration:none;text-decoration-line:none;text-decoration-style:solid;text-decoration-color:#000;letter-spacing:normal;word-spacing:normal;text-transform:none;writing-mode:lr-tb;direction:ltr;text-orientation:mixed;dominant-baseline:auto;baseline-shift:baseline;text-anchor:start;white-space:normal;shape-padding:0;clip-rule:nonzero;display:inline;overflow:visible;visibility:visible;opacity:1;isolation:auto;mix-blend-mode:normal;color-interpolation:sRGB;color-interpolation-filters:linearRGB;solid-color:#000;solid-opacity:1;vector-effect:none;fill:#0e0d0d;fill-opacity:1;fill-rule:evenodd;stroke:none;stroke-width:.525212;stroke-linecap:butt;stroke-linejoin:miter;stroke-miterlimit:4;stroke-dasharray:none;stroke-dashoffset:0;stroke-opacity:1;color-rendering:auto;image-rendering:auto;shape-rendering:auto;text-rendering:auto;enable-background:accumulate"/><path d="M22.818 18.252c-.634-.027-1.16.113-1.506.401-.877.858-.09 2.225.193 2.481l.87-1.366c.64-1.004 4.18.867 3.896 1.736l-.716 2.176c.79.105 1.453-.025 1.867-.368.95-.79.353-2.474-1.334-3.76-1.008-.77-2.232-1.256-3.27-1.3z" style="font-size:12px;fill:#0e0d0d;fill-opacity:1;fill-rule:evenodd;stroke:#000;stroke-width:.0276984pt"/></svg>